G04 #@! TF.FileFunction,Soldermask,Bot*
%FSLAX46Y46*%
G04 Gerber Fmt 4.6, Leading zero omitted, Abs format (unit mm)*
G04 Created by KiCad (PCBNEW (2014-11-14 BZR 5284)-product) date Mon Dec  1 16:34:15 2014*
%MOMM*%
G01*
G04 APERTURE LIST*
%ADD10C,0.100000*%
%ADD11C,1.778000*%
%ADD12R,1.778000X1.778000*%
%ADD13R,2.540000X2.540000*%
%ADD14C,2.540000*%
%ADD15R,1.500000X1.300000*%
%ADD16C,3.048000*%
%ADD17R,4.572000X3.048000*%
%ADD18O,4.572000X3.048000*%
%ADD19O,3.048000X4.572000*%
%ADD20C,1.524000*%
%ADD21R,1.524000X1.524000*%
%ADD22O,1.727200X2.032000*%
%ADD23R,1.727200X2.032000*%
%ADD24C,1.676400*%
%ADD25R,1.676400X1.676400*%
%ADD26R,1.500000X1.250000*%
%ADD27R,1.250000X1.500000*%
%ADD28O,1.574800X2.286000*%
%ADD29R,1.574800X2.286000*%
%ADD30R,0.406400X1.371600*%
%ADD31R,1.600200X1.422400*%
%ADD32R,1.905000X1.905000*%
%ADD33C,1.905000*%
%ADD34C,1.501140*%
%ADD35R,1.501140X1.501140*%
%ADD36C,1.998980*%
%ADD37R,1.998980X1.998980*%
G04 APERTURE END LIST*
D10*
X102000000Y-46000000D02*
X102000000Y-60000000D01*
X100000000Y-46000000D02*
X102000000Y-46000000D01*
X100000000Y-60000000D02*
X100000000Y-46000000D01*
X102000000Y-44000000D02*
X102000000Y-30000000D01*
X100000000Y-44000000D02*
X102000000Y-44000000D01*
X100000000Y-30000000D02*
X100000000Y-44000000D01*
X117000000Y-60000000D02*
X102000000Y-60000000D01*
X117000000Y-30000000D02*
X117000000Y-60000000D01*
X102000000Y-30000000D02*
X117000000Y-30000000D01*
X30000000Y-60000000D02*
X30000000Y-30000000D01*
X100000000Y-60000000D02*
X30000000Y-60000000D01*
X30000000Y-30000000D02*
X100000000Y-30000000D01*
D11*
X35960000Y-33000000D03*
D12*
X38500000Y-33000000D03*
D11*
X41040000Y-33000000D03*
D13*
X97550000Y-32050000D03*
D14*
X91050000Y-36550000D03*
X97550000Y-36550000D03*
D13*
X91050000Y-32050000D03*
D15*
X54350000Y-53700000D03*
X51650000Y-53700000D03*
X45850000Y-53700000D03*
X48550000Y-53700000D03*
X81750000Y-46000000D03*
X84450000Y-46000000D03*
D16*
X98000000Y-58000000D03*
X42500000Y-55000000D03*
D17*
X34400000Y-52000000D03*
D18*
X34400000Y-45904000D03*
D19*
X39480000Y-48825000D03*
D20*
X48160000Y-37370000D03*
X48160000Y-34830000D03*
X50700000Y-37370000D03*
X50700000Y-34830000D03*
X53240000Y-37370000D03*
D21*
X53240000Y-34830000D03*
D22*
X65890000Y-31600000D03*
X63350000Y-31600000D03*
X60810000Y-31600000D03*
X58270000Y-31600000D03*
X55730000Y-31600000D03*
X53190000Y-31600000D03*
D23*
X50650000Y-31600000D03*
D22*
X48110000Y-31600000D03*
X87890000Y-31600000D03*
X85350000Y-31600000D03*
X82810000Y-31600000D03*
X80270000Y-31600000D03*
X77730000Y-31600000D03*
X75190000Y-31600000D03*
X72650000Y-31600000D03*
X70110000Y-31600000D03*
X75150000Y-57000000D03*
X77690000Y-57000000D03*
X80230000Y-57000000D03*
X82770000Y-57000000D03*
X85310000Y-57000000D03*
X87850000Y-57000000D03*
X57450000Y-57000000D03*
X59990000Y-57000000D03*
X62530000Y-57000000D03*
D23*
X65070000Y-57000000D03*
X67610000Y-57000000D03*
D22*
X70150000Y-57000000D03*
D20*
X45000000Y-31710000D03*
X45000000Y-34250000D03*
X45000000Y-36790000D03*
D24*
X51700000Y-56230000D03*
D25*
X51700000Y-58770000D03*
D24*
X47200000Y-56230000D03*
D25*
X47200000Y-58770000D03*
D26*
X60550000Y-46800000D03*
X58050000Y-46800000D03*
X64250000Y-46800000D03*
X66750000Y-46800000D03*
X88050000Y-46000000D03*
X90550000Y-46000000D03*
X70750000Y-46800000D03*
X73250000Y-46800000D03*
D27*
X39000000Y-38500000D03*
X39000000Y-36000000D03*
X36000000Y-36000000D03*
X36000000Y-38500000D03*
D26*
X64250000Y-53700000D03*
X66750000Y-53700000D03*
D28*
X82970000Y-42990000D03*
X80430000Y-42990000D03*
X77890000Y-42990000D03*
X75350000Y-42990000D03*
X72810000Y-42990000D03*
X70270000Y-42990000D03*
D29*
X67730000Y-42990000D03*
D28*
X65190000Y-42990000D03*
X62650000Y-42990000D03*
X60110000Y-42990000D03*
X57570000Y-42990000D03*
X55030000Y-42990000D03*
X52490000Y-42990000D03*
X85510000Y-42990000D03*
X52490000Y-50610000D03*
X55030000Y-50610000D03*
X57570000Y-50610000D03*
X60110000Y-50610000D03*
X62650000Y-50610000D03*
X65190000Y-50610000D03*
X67730000Y-50610000D03*
D29*
X70270000Y-50610000D03*
D28*
X72810000Y-50610000D03*
X75350000Y-50610000D03*
X77890000Y-50610000D03*
X80430000Y-50610000D03*
X82970000Y-50610000D03*
X85510000Y-50610000D03*
D21*
X98000000Y-53350000D03*
X98000000Y-50810000D03*
D20*
X98000000Y-48270000D03*
X98000000Y-45730000D03*
X98000000Y-43190000D03*
X98000000Y-40650000D03*
D30*
X34400000Y-55800000D03*
X33749760Y-55800000D03*
X33099520Y-55800000D03*
X35050240Y-55800000D03*
X35700480Y-55800000D03*
D31*
X37575000Y-56054000D03*
X31225000Y-56054000D03*
D32*
X35606500Y-58467000D03*
X33193500Y-58467000D03*
D33*
X37702000Y-58467000D03*
X31098000Y-58467000D03*
D34*
X64240940Y-36100000D03*
X59359060Y-36100000D03*
D35*
X61800000Y-36100000D03*
D36*
X41500000Y-44750000D03*
D37*
X41500000Y-40940000D03*
D16*
X32000000Y-32000000D03*
X87500000Y-35000000D03*
D20*
X70060000Y-36000000D03*
X72600000Y-36000000D03*
X75140000Y-36000000D03*
D35*
X33800000Y-38760000D03*
D34*
X33800000Y-41300000D03*
D24*
X109500000Y-37730000D03*
X109500000Y-40270000D03*
D21*
X103150000Y-54000000D03*
X105690000Y-54000000D03*
D20*
X108230000Y-54000000D03*
X110770000Y-54000000D03*
X113310000Y-54000000D03*
X115850000Y-54000000D03*
D33*
X112802000Y-31583000D03*
X106198000Y-31583000D03*
D16*
X115000000Y-58000000D03*
X104000000Y-58000000D03*
D21*
X43000000Y-50520000D03*
D20*
X43000000Y-47980000D03*
M02*
