G04 #@! TF.FileFunction,Soldermask,Top*
%FSLAX46Y46*%
G04 Gerber Fmt 4.6, Leading zero omitted, Abs format (unit mm)*
G04 Created by KiCad (PCBNEW (2014-11-14 BZR 5284)-product) date Mon Dec  1 16:34:15 2014*
%MOMM*%
G01*
G04 APERTURE LIST*
%ADD10C,0.100000*%
%ADD11C,1.778000*%
%ADD12R,1.778000X1.778000*%
%ADD13R,2.540000X2.540000*%
%ADD14C,2.540000*%
%ADD15C,3.048000*%
%ADD16R,4.572000X3.048000*%
%ADD17O,4.572000X3.048000*%
%ADD18O,3.048000X4.572000*%
%ADD19C,1.524000*%
%ADD20R,1.524000X1.524000*%
%ADD21O,1.727200X2.032000*%
%ADD22R,1.727200X2.032000*%
%ADD23C,1.676400*%
%ADD24R,1.676400X1.676400*%
%ADD25O,1.574800X2.286000*%
%ADD26R,1.574800X2.286000*%
%ADD27C,1.905000*%
%ADD28C,1.501140*%
%ADD29R,1.501140X1.501140*%
%ADD30C,1.998980*%
%ADD31R,1.998980X1.998980*%
%ADD32R,1.250000X1.500000*%
%ADD33R,0.406400X1.371600*%
%ADD34R,1.600200X1.422400*%
%ADD35R,1.905000X1.905000*%
%ADD36R,1.300000X1.500000*%
%ADD37R,0.492760X0.942340*%
%ADD38R,0.942340X0.492760*%
%ADD39R,2.042160X2.042160*%
G04 APERTURE END LIST*
D10*
X102000000Y-46000000D02*
X102000000Y-60000000D01*
X100000000Y-46000000D02*
X102000000Y-46000000D01*
X100000000Y-60000000D02*
X100000000Y-46000000D01*
X102000000Y-44000000D02*
X102000000Y-30000000D01*
X100000000Y-44000000D02*
X102000000Y-44000000D01*
X100000000Y-30000000D02*
X100000000Y-44000000D01*
X117000000Y-60000000D02*
X102000000Y-60000000D01*
X117000000Y-30000000D02*
X117000000Y-60000000D01*
X102000000Y-30000000D02*
X117000000Y-30000000D01*
X30000000Y-60000000D02*
X30000000Y-30000000D01*
X100000000Y-60000000D02*
X30000000Y-60000000D01*
X30000000Y-30000000D02*
X100000000Y-30000000D01*
D11*
X35960000Y-33000000D03*
D12*
X38500000Y-33000000D03*
D11*
X41040000Y-33000000D03*
D13*
X97550000Y-32050000D03*
D14*
X91050000Y-36550000D03*
X97550000Y-36550000D03*
D13*
X91050000Y-32050000D03*
D15*
X98000000Y-58000000D03*
X42500000Y-55000000D03*
D16*
X34400000Y-52000000D03*
D17*
X34400000Y-45904000D03*
D18*
X39480000Y-48825000D03*
D19*
X48160000Y-37370000D03*
X48160000Y-34830000D03*
X50700000Y-37370000D03*
X50700000Y-34830000D03*
X53240000Y-37370000D03*
D20*
X53240000Y-34830000D03*
D21*
X65890000Y-31600000D03*
X63350000Y-31600000D03*
X60810000Y-31600000D03*
X58270000Y-31600000D03*
X55730000Y-31600000D03*
X53190000Y-31600000D03*
D22*
X50650000Y-31600000D03*
D21*
X48110000Y-31600000D03*
X87890000Y-31600000D03*
X85350000Y-31600000D03*
X82810000Y-31600000D03*
X80270000Y-31600000D03*
X77730000Y-31600000D03*
X75190000Y-31600000D03*
X72650000Y-31600000D03*
X70110000Y-31600000D03*
X75150000Y-57000000D03*
X77690000Y-57000000D03*
X80230000Y-57000000D03*
X82770000Y-57000000D03*
X85310000Y-57000000D03*
X87850000Y-57000000D03*
X57450000Y-57000000D03*
X59990000Y-57000000D03*
X62530000Y-57000000D03*
D22*
X65070000Y-57000000D03*
X67610000Y-57000000D03*
D21*
X70150000Y-57000000D03*
D19*
X45000000Y-31710000D03*
X45000000Y-34250000D03*
X45000000Y-36790000D03*
D23*
X51700000Y-56230000D03*
D24*
X51700000Y-58770000D03*
D23*
X47200000Y-56230000D03*
D24*
X47200000Y-58770000D03*
D25*
X82970000Y-42990000D03*
X80430000Y-42990000D03*
X77890000Y-42990000D03*
X75350000Y-42990000D03*
X72810000Y-42990000D03*
X70270000Y-42990000D03*
D26*
X67730000Y-42990000D03*
D25*
X65190000Y-42990000D03*
X62650000Y-42990000D03*
X60110000Y-42990000D03*
X57570000Y-42990000D03*
X55030000Y-42990000D03*
X52490000Y-42990000D03*
X85510000Y-42990000D03*
X52490000Y-50610000D03*
X55030000Y-50610000D03*
X57570000Y-50610000D03*
X60110000Y-50610000D03*
X62650000Y-50610000D03*
X65190000Y-50610000D03*
X67730000Y-50610000D03*
D26*
X70270000Y-50610000D03*
D25*
X72810000Y-50610000D03*
X75350000Y-50610000D03*
X77890000Y-50610000D03*
X80430000Y-50610000D03*
X82970000Y-50610000D03*
X85510000Y-50610000D03*
D20*
X98000000Y-53350000D03*
X98000000Y-50810000D03*
D19*
X98000000Y-48270000D03*
X98000000Y-45730000D03*
X98000000Y-43190000D03*
X98000000Y-40650000D03*
D27*
X37702000Y-58467000D03*
X31098000Y-58467000D03*
D28*
X64240940Y-36100000D03*
X59359060Y-36100000D03*
D29*
X61800000Y-36100000D03*
D30*
X41500000Y-44750000D03*
D31*
X41500000Y-40940000D03*
D15*
X32000000Y-32000000D03*
X87500000Y-35000000D03*
D19*
X70060000Y-36000000D03*
X72600000Y-36000000D03*
X75140000Y-36000000D03*
D29*
X33800000Y-38760000D03*
D28*
X33800000Y-41300000D03*
D32*
X104000000Y-45500000D03*
X104000000Y-48000000D03*
X104000000Y-42250000D03*
X104000000Y-39750000D03*
X115000000Y-45500000D03*
X115000000Y-48000000D03*
D23*
X109500000Y-37730000D03*
X109500000Y-40270000D03*
D20*
X103150000Y-54000000D03*
X105690000Y-54000000D03*
D19*
X108230000Y-54000000D03*
X110770000Y-54000000D03*
X113310000Y-54000000D03*
X115850000Y-54000000D03*
D33*
X109500000Y-34250000D03*
X108849760Y-34250000D03*
X108199520Y-34250000D03*
X110150240Y-34250000D03*
X110800480Y-34250000D03*
D34*
X112675000Y-33996000D03*
X106325000Y-33996000D03*
D35*
X110706500Y-31583000D03*
X108293500Y-31583000D03*
D27*
X112802000Y-31583000D03*
X106198000Y-31583000D03*
D36*
X115000000Y-39650000D03*
X115000000Y-42350000D03*
D37*
X110800480Y-44650120D03*
X110150240Y-44650120D03*
X109500000Y-44650120D03*
X108849760Y-44650120D03*
D38*
X106647580Y-45549280D03*
X106647580Y-46199520D03*
X106647580Y-46849760D03*
X106647580Y-47500000D03*
X106647580Y-48150240D03*
X106647580Y-48800480D03*
X106647580Y-49450720D03*
D37*
X111450720Y-44650120D03*
D39*
X108550040Y-46550040D03*
X110449960Y-46550040D03*
X110449960Y-48449960D03*
X108550040Y-48449960D03*
D37*
X107498480Y-50352420D03*
X108148720Y-50352420D03*
X108798960Y-50352420D03*
X109500000Y-50352420D03*
X110099440Y-50352420D03*
X110749680Y-50352420D03*
X111399920Y-50352420D03*
D38*
X112349880Y-49450720D03*
X112349880Y-48800480D03*
X112349880Y-48150240D03*
X112349880Y-47500000D03*
X112349880Y-46849760D03*
X112349880Y-46199520D03*
X112349880Y-45549280D03*
D37*
X108199520Y-44650120D03*
X107549280Y-44650120D03*
D15*
X115000000Y-58000000D03*
X104000000Y-58000000D03*
D20*
X43000000Y-50520000D03*
D19*
X43000000Y-47980000D03*
M02*
