M48
INCH,TZ
T1C0.025
T2C0.032
T3C0.040
T4C0.045
T5C0.046
T6C0.050
T7C0.100
%
G90
G05
T1
X4.1929Y-1.6634
X4.1929Y-2.8445
X4.1929Y-4.0256
X4.2913Y-1.6634
X4.2913Y-2.8445
X4.2913Y-4.0256
X4.3701Y-1.6634
X4.3701Y-2.8445
X4.3701Y-4.0256
X4.4488Y-1.4862
X4.4488Y-2.6673
X4.4488Y-3.8484
X4.7835Y-1.6634
X4.7835Y-2.8445
X4.7835Y-4.0256
X4.8819Y-1.6634
X4.8819Y-2.8445
X4.8819Y-4.0256
X4.9606Y-1.6634
X4.9606Y-2.8445
X4.9606Y-4.0256
X5.0394Y-1.4862
X5.0394Y-2.6673
X5.0394Y-3.8484
T2
X1.3307Y-1.526
X1.3307Y-1.626
X1.3307Y-2.7071
X1.3307Y-2.8071
X1.3307Y-3.8882
X1.3307Y-3.9882
X1.8583Y-2.2138
X1.8583Y-2.3138
X1.8583Y-3.3949
X1.8583Y-3.4949
X1.8583Y-4.576
X1.8583Y-4.676
X2.0354Y-2.2138
X2.0354Y-2.3138
X2.0354Y-3.3949
X2.0354Y-3.4949
X2.0354Y-4.576
X2.0354Y-4.676
X2.0665Y-1.6925
X2.0665Y-1.9925
X2.0665Y-2.8736
X2.0665Y-3.1736
X2.0665Y-4.0547
X2.0665Y-4.3547
X2.1665Y-1.6925
X2.1665Y-1.9925
X2.1665Y-2.8736
X2.1665Y-3.1736
X2.1665Y-4.0547
X2.1665Y-4.3547
X2.2665Y-1.6925
X2.2665Y-1.9925
X2.2665Y-2.8736
X2.2665Y-3.1736
X2.2665Y-4.0547
X2.2665Y-4.3547
X2.337Y-1.4213
X2.337Y-2.6024
X2.337Y-3.7835
X2.3665Y-1.6925
X2.3665Y-1.9925
X2.3665Y-2.8736
X2.3665Y-3.1736
X2.3665Y-4.0547
X2.3665Y-4.3547
X2.4331Y-1.4213
X2.4331Y-2.6024
X2.4331Y-3.7835
X2.4665Y-1.6925
X2.4665Y-1.9925
X2.4665Y-2.8736
X2.4665Y-3.1736
X2.4665Y-4.0547
X2.4665Y-4.3547
X2.5292Y-1.4213
X2.5292Y-2.6024
X2.5292Y-3.7835
X2.5665Y-1.6925
X2.5665Y-1.9925
X2.5665Y-2.8736
X2.5665Y-3.1736
X2.5665Y-4.0547
X2.5665Y-4.3547
X2.6665Y-1.6925
X2.6665Y-1.9925
X2.6665Y-2.8736
X2.6665Y-3.1736
X2.6665Y-4.0547
X2.6665Y-4.3547
X2.7665Y-1.6925
X2.7665Y-1.9925
X2.7665Y-2.8736
X2.7665Y-3.1736
X2.7665Y-4.0547
X2.7665Y-4.3547
X2.8665Y-1.6925
X2.8665Y-1.9925
X2.8665Y-2.8736
X2.8665Y-3.1736
X2.8665Y-4.0547
X2.8665Y-4.3547
X2.9665Y-1.6925
X2.9665Y-1.9925
X2.9665Y-2.8736
X2.9665Y-3.1736
X2.9665Y-4.0547
X2.9665Y-4.3547
X3.0665Y-1.6925
X3.0665Y-1.9925
X3.0665Y-2.8736
X3.0665Y-3.1736
X3.0665Y-4.0547
X3.0665Y-4.3547
X3.1665Y-1.6925
X3.1665Y-1.9925
X3.1665Y-2.8736
X3.1665Y-3.1736
X3.1665Y-4.0547
X3.1665Y-4.3547
X3.2665Y-1.6925
X3.2665Y-1.9925
X3.2665Y-2.8736
X3.2665Y-3.1736
X3.2665Y-4.0547
X3.2665Y-4.3547
X3.3665Y-1.6925
X3.3665Y-1.9925
X3.3665Y-2.8736
X3.3665Y-3.1736
X3.3665Y-4.0547
X3.3665Y-4.3547
X4.2323Y-1.4854
X4.2323Y-1.5854
X4.2323Y-2.6665
X4.2323Y-2.7665
X4.2323Y-3.8476
X4.2323Y-3.9476
X4.8228Y-1.4854
X4.8228Y-1.5854
X4.8228Y-2.6665
X4.8228Y-2.7665
X4.8228Y-3.8476
X4.8228Y-3.9476
T3
X1.6929Y-1.889
X1.6929Y-1.989
X1.6929Y-3.0701
X1.6929Y-3.1701
X1.6929Y-4.2512
X1.6929Y-4.3512
X1.7717Y-1.2484
X1.7717Y-1.3484
X1.7717Y-1.4484
X1.7717Y-2.4295
X1.7717Y-2.5295
X1.7717Y-2.6295
X1.7717Y-3.6106
X1.7717Y-3.7106
X1.7717Y-3.8106
X1.8941Y-1.2441
X1.8941Y-2.4252
X1.8941Y-3.6063
X1.8961Y-1.3713
X1.8961Y-1.4713
X1.8961Y-2.5524
X1.8961Y-2.6524
X1.8961Y-3.7335
X1.8961Y-3.8335
X1.9941Y-1.2441
X1.9941Y-2.4252
X1.9941Y-3.6063
X1.9961Y-1.3713
X1.9961Y-1.4713
X1.9961Y-2.5524
X1.9961Y-2.6524
X1.9961Y-3.7335
X1.9961Y-3.8335
X2.0941Y-1.2441
X2.0941Y-2.4252
X2.0941Y-3.6063
X2.0961Y-1.3713
X2.0961Y-1.4713
X2.0961Y-2.5524
X2.0961Y-2.6524
X2.0961Y-3.7335
X2.0961Y-3.8335
X2.1941Y-1.2441
X2.1941Y-2.4252
X2.1941Y-3.6063
X2.2618Y-2.2441
X2.2618Y-3.4252
X2.2618Y-4.6063
X2.2941Y-1.2441
X2.2941Y-2.4252
X2.2941Y-3.6063
X2.3618Y-2.2441
X2.3618Y-3.4252
X2.3618Y-4.6063
X2.3941Y-1.2441
X2.3941Y-2.4252
X2.3941Y-3.6063
X2.4618Y-2.2441
X2.4618Y-3.4252
X2.4618Y-4.6063
X2.4941Y-1.2441
X2.4941Y-2.4252
X2.4941Y-3.6063
X2.5618Y-2.2441
X2.5618Y-3.4252
X2.5618Y-4.6063
X2.5941Y-1.2441
X2.5941Y-2.4252
X2.5941Y-3.6063
X2.6618Y-2.2441
X2.6618Y-3.4252
X2.6618Y-4.6063
X2.7583Y-1.4173
X2.7583Y-2.5984
X2.7583Y-3.7795
X2.7602Y-1.2441
X2.7602Y-2.4252
X2.7602Y-3.6063
X2.7618Y-2.2441
X2.7618Y-3.4252
X2.7618Y-4.6063
X2.8583Y-1.4173
X2.8583Y-2.5984
X2.8583Y-3.7795
X2.8602Y-1.2441
X2.8602Y-2.4252
X2.8602Y-3.6063
X2.9583Y-1.4173
X2.9583Y-2.5984
X2.9583Y-3.7795
X2.9587Y-2.2441
X2.9587Y-3.4252
X2.9587Y-4.6063
X2.9602Y-1.2441
X2.9602Y-2.4252
X2.9602Y-3.6063
X3.0587Y-2.2441
X3.0587Y-3.4252
X3.0587Y-4.6063
X3.0602Y-1.2441
X3.0602Y-2.4252
X3.0602Y-3.6063
X3.1587Y-2.2441
X3.1587Y-3.4252
X3.1587Y-4.6063
X3.1602Y-1.2441
X3.1602Y-2.4252
X3.1602Y-3.6063
X3.2587Y-2.2441
X3.2587Y-3.4252
X3.2587Y-4.6063
X3.2602Y-1.2441
X3.2602Y-2.4252
X3.2602Y-3.6063
X3.3587Y-2.2441
X3.3587Y-3.4252
X3.3587Y-4.6063
X3.3602Y-1.2441
X3.3602Y-2.4252
X3.3602Y-3.6063
X3.4587Y-2.2441
X3.4587Y-3.4252
X3.4587Y-4.6063
X3.4602Y-1.2441
X3.4602Y-2.4252
X3.4602Y-3.6063
X3.5846Y-1.2618
X3.5846Y-1.439
X3.5846Y-2.4429
X3.5846Y-2.6201
X3.5846Y-3.624
X3.5846Y-3.8012
X3.8406Y-1.2618
X3.8406Y-1.439
X3.8406Y-2.4429
X3.8406Y-2.6201
X3.8406Y-3.624
X3.8406Y-3.8012
X3.8583Y-1.6004
X3.8583Y-1.7004
X3.8583Y-1.8004
X3.8583Y-1.9004
X3.8583Y-2.0004
X3.8583Y-2.1004
X3.8583Y-2.7815
X3.8583Y-2.8815
X3.8583Y-2.9815
X3.8583Y-3.0815
X3.8583Y-3.1815
X3.8583Y-3.2815
X3.8583Y-3.9626
X3.8583Y-4.0626
X3.8583Y-4.1626
X3.8583Y-4.2626
X3.8583Y-4.3626
X3.8583Y-4.4626
X3.9823Y-2.126
X3.9823Y-3.3071
X3.9823Y-4.4882
X4.0823Y-2.126
X4.0823Y-3.3071
X4.0823Y-4.4882
X4.1823Y-2.126
X4.1823Y-3.3071
X4.1823Y-4.4882
X4.2823Y-2.126
X4.2823Y-3.3071
X4.2823Y-4.4882
X4.3823Y-2.126
X4.3823Y-3.3071
X4.3823Y-4.4882
X4.4823Y-2.126
X4.4823Y-3.3071
X4.4823Y-4.4882
X4.5728Y-2.126
X4.5728Y-3.3071
X4.5728Y-4.4882
X4.6728Y-2.126
X4.6728Y-3.3071
X4.6728Y-4.4882
X4.7728Y-2.126
X4.7728Y-3.3071
X4.7728Y-4.4882
X4.8728Y-2.126
X4.8728Y-3.3071
X4.8728Y-4.4882
X4.9728Y-2.126
X4.9728Y-3.3071
X4.9728Y-4.4882
X5.0728Y-2.126
X5.0728Y-3.3071
X5.0728Y-4.4882
T4
X1.4157Y-1.2992
X1.4157Y-2.4803
X1.4157Y-3.6614
X1.5157Y-1.2992
X1.5157Y-2.4803
X1.5157Y-3.6614
X1.6157Y-1.2992
X1.6157Y-2.4803
X1.6157Y-3.6614
T6
X1.2243Y-2.3019
X1.2243Y-3.483
X1.2243Y-4.6641
X1.4843Y-2.3019
X1.4843Y-3.483
X1.4843Y-4.6641
X1.6339Y-1.6118
X1.6339Y-1.7618
X1.6339Y-2.7929
X1.6339Y-2.9429
X1.6339Y-3.974
X1.6339Y-4.124
X4.1023Y-1.2434
X4.1023Y-2.4245
X4.1023Y-3.6056
X4.3623Y-1.2434
X4.3623Y-2.4245
X4.3623Y-3.6056
X4.6928Y-1.2434
X4.6928Y-2.4245
X4.6928Y-3.6056
X4.9528Y-1.2434
X4.9528Y-2.4245
X4.9528Y-3.6056
T7
X1.2598Y-1.2598
X1.2598Y-2.4409
X1.2598Y-3.622
X1.6732Y-2.1654
X1.6732Y-3.3465
X1.6732Y-4.5276
X3.4449Y-1.378
X3.4449Y-2.5591
X3.4449Y-3.7402
X3.8583Y-2.2835
X3.8583Y-3.4646
X3.8583Y-4.6457
X4.0157Y-2.2835
X4.0157Y-3.4646
X4.0157Y-4.6457
X4.4488Y-2.2835
X4.4488Y-3.4646
X4.4488Y-4.6457
X4.6063Y-2.2835
X4.6063Y-3.4646
X4.6063Y-4.6457
X5.0394Y-2.2835
X5.0394Y-3.4646
X5.0394Y-4.6457
T5
X1.2973Y-1.8072G85X1.4113Y-1.8072
G05
X1.3073Y-2.0472G85X1.4013Y-2.0472
G05
X1.2973Y-2.9883G85X1.4113Y-2.9883
G05
X1.3073Y-3.2283G85X1.4013Y-3.2283
G05
X1.2973Y-4.1694G85X1.4113Y-4.1694
G05
X1.3073Y-4.4094G85X1.4013Y-4.4094
G05
X1.5543Y-1.9692G85X1.5543Y-1.8752
G05
X1.5543Y-3.1503G85X1.5543Y-3.0563
G05
X1.5543Y-4.3314G85X1.5543Y-4.2374
G05
T0
M30
