G04 #@! TF.FileFunction,Soldermask,Top*
%FSLAX46Y46*%
G04 Gerber Fmt 4.6, Leading zero omitted, Abs format (unit mm)*
G04 Created by KiCad (PCBNEW (2014-11-14 BZR 5284)-product) date Mon Dec  1 16:34:46 2014*
%MOMM*%
G01*
G04 APERTURE LIST*
%ADD10C,0.100000*%
%ADD11C,3.048000*%
%ADD12R,0.492760X0.942340*%
%ADD13R,0.942340X0.492760*%
%ADD14R,2.042160X2.042160*%
%ADD15R,1.300000X1.500000*%
%ADD16R,0.406400X1.371600*%
%ADD17R,1.600200X1.422400*%
%ADD18R,1.905000X1.905000*%
%ADD19C,1.905000*%
%ADD20R,1.524000X1.524000*%
%ADD21C,1.524000*%
%ADD22C,1.676400*%
%ADD23R,1.250000X1.500000*%
%ADD24C,1.778000*%
%ADD25R,1.778000X1.778000*%
%ADD26R,2.540000X2.540000*%
%ADD27C,2.540000*%
%ADD28R,4.572000X3.048000*%
%ADD29O,4.572000X3.048000*%
%ADD30O,3.048000X4.572000*%
%ADD31O,1.727200X2.032000*%
%ADD32R,1.727200X2.032000*%
%ADD33R,1.676400X1.676400*%
%ADD34O,1.574800X2.286000*%
%ADD35R,1.574800X2.286000*%
%ADD36C,1.501140*%
%ADD37R,1.501140X1.501140*%
%ADD38C,1.998980*%
%ADD39R,1.998980X1.998980*%
G04 APERTURE END LIST*
D10*
X115000000Y-120000000D02*
X115000000Y-90000000D01*
X115000000Y-90000000D02*
X130000000Y-90000000D01*
X130000000Y-90000000D02*
X130000000Y-120000000D01*
X130000000Y-120000000D02*
X115000000Y-120000000D01*
X115000000Y-120000000D02*
X100000000Y-120000000D01*
X115000000Y-90000000D02*
X115000000Y-120000000D01*
X100000000Y-90000000D02*
X115000000Y-90000000D01*
X100000000Y-120000000D02*
X100000000Y-90000000D01*
X30000000Y-120000000D02*
X30000000Y-90000000D01*
X100000000Y-120000000D02*
X30000000Y-120000000D01*
X100000000Y-90000000D02*
X100000000Y-120000000D01*
X30000000Y-90000000D02*
X100000000Y-90000000D01*
X30000000Y-60000000D02*
X100000000Y-60000000D01*
X100000000Y-60000000D02*
X100000000Y-90000000D01*
X100000000Y-90000000D02*
X30000000Y-90000000D01*
X30000000Y-90000000D02*
X30000000Y-60000000D01*
X100000000Y-90000000D02*
X100000000Y-60000000D01*
X100000000Y-60000000D02*
X115000000Y-60000000D01*
X115000000Y-60000000D02*
X115000000Y-90000000D01*
X115000000Y-90000000D02*
X100000000Y-90000000D01*
X130000000Y-90000000D02*
X115000000Y-90000000D01*
X130000000Y-60000000D02*
X130000000Y-90000000D01*
X115000000Y-60000000D02*
X130000000Y-60000000D01*
X115000000Y-90000000D02*
X115000000Y-60000000D01*
X115000000Y-60000000D02*
X115000000Y-30000000D01*
X115000000Y-30000000D02*
X130000000Y-30000000D01*
X130000000Y-30000000D02*
X130000000Y-60000000D01*
X130000000Y-60000000D02*
X115000000Y-60000000D01*
X115000000Y-60000000D02*
X100000000Y-60000000D01*
X115000000Y-30000000D02*
X115000000Y-60000000D01*
X100000000Y-30000000D02*
X115000000Y-30000000D01*
X100000000Y-60000000D02*
X100000000Y-30000000D01*
X30000000Y-60000000D02*
X30000000Y-30000000D01*
X100000000Y-60000000D02*
X30000000Y-60000000D01*
X100000000Y-30000000D02*
X100000000Y-60000000D01*
X30000000Y-30000000D02*
X100000000Y-30000000D01*
D11*
X117000000Y-118000000D03*
X128000000Y-118000000D03*
D12*
X123800480Y-104650120D03*
X123150240Y-104650120D03*
X122500000Y-104650120D03*
X121849760Y-104650120D03*
D13*
X119647580Y-105549280D03*
X119647580Y-106199520D03*
X119647580Y-106849760D03*
X119647580Y-107500000D03*
X119647580Y-108150240D03*
X119647580Y-108800480D03*
X119647580Y-109450720D03*
D12*
X124450720Y-104650120D03*
D14*
X121550040Y-106550040D03*
X123449960Y-106550040D03*
X123449960Y-108449960D03*
X121550040Y-108449960D03*
D12*
X120498480Y-110352420D03*
X121148720Y-110352420D03*
X121798960Y-110352420D03*
X122500000Y-110352420D03*
X123099440Y-110352420D03*
X123749680Y-110352420D03*
X124399920Y-110352420D03*
D13*
X125349880Y-109450720D03*
X125349880Y-108800480D03*
X125349880Y-108150240D03*
X125349880Y-107500000D03*
X125349880Y-106849760D03*
X125349880Y-106199520D03*
X125349880Y-105549280D03*
D12*
X121199520Y-104650120D03*
X120549280Y-104650120D03*
D15*
X128000000Y-99650000D03*
X128000000Y-102350000D03*
D16*
X122500000Y-94250000D03*
X121849760Y-94250000D03*
X121199520Y-94250000D03*
X123150240Y-94250000D03*
X123800480Y-94250000D03*
D17*
X125675000Y-93996000D03*
X119325000Y-93996000D03*
D18*
X123706500Y-91583000D03*
X121293500Y-91583000D03*
D19*
X125802000Y-91583000D03*
X119198000Y-91583000D03*
D20*
X116150000Y-114000000D03*
X118690000Y-114000000D03*
D21*
X121230000Y-114000000D03*
X123770000Y-114000000D03*
X126310000Y-114000000D03*
X128850000Y-114000000D03*
D22*
X122500000Y-97730000D03*
X122500000Y-100270000D03*
D23*
X128000000Y-105500000D03*
X128000000Y-108000000D03*
X117000000Y-102250000D03*
X117000000Y-99750000D03*
X117000000Y-105500000D03*
X117000000Y-108000000D03*
D24*
X35960000Y-93000000D03*
D25*
X38500000Y-93000000D03*
D24*
X41040000Y-93000000D03*
D26*
X97550000Y-92050000D03*
D27*
X91050000Y-96550000D03*
X97550000Y-96550000D03*
D26*
X91050000Y-92050000D03*
D11*
X98000000Y-118000000D03*
X42500000Y-115000000D03*
D28*
X34400000Y-112000000D03*
D29*
X34400000Y-105904000D03*
D30*
X39480000Y-108825000D03*
D21*
X48160000Y-97370000D03*
X48160000Y-94830000D03*
X50700000Y-97370000D03*
X50700000Y-94830000D03*
X53240000Y-97370000D03*
D20*
X53240000Y-94830000D03*
D31*
X65890000Y-91600000D03*
X63350000Y-91600000D03*
X60810000Y-91600000D03*
X58270000Y-91600000D03*
X55730000Y-91600000D03*
X53190000Y-91600000D03*
D32*
X50650000Y-91600000D03*
D31*
X48110000Y-91600000D03*
X87890000Y-91600000D03*
X85350000Y-91600000D03*
X82810000Y-91600000D03*
X80270000Y-91600000D03*
X77730000Y-91600000D03*
X75190000Y-91600000D03*
X72650000Y-91600000D03*
X70110000Y-91600000D03*
X75150000Y-117000000D03*
X77690000Y-117000000D03*
X80230000Y-117000000D03*
X82770000Y-117000000D03*
X85310000Y-117000000D03*
X87850000Y-117000000D03*
X57450000Y-117000000D03*
X59990000Y-117000000D03*
X62530000Y-117000000D03*
D32*
X65070000Y-117000000D03*
X67610000Y-117000000D03*
D31*
X70150000Y-117000000D03*
D21*
X45000000Y-91710000D03*
X45000000Y-94250000D03*
X45000000Y-96790000D03*
D22*
X51700000Y-116230000D03*
D33*
X51700000Y-118770000D03*
D22*
X47200000Y-116230000D03*
D33*
X47200000Y-118770000D03*
D34*
X82970000Y-102990000D03*
X80430000Y-102990000D03*
X77890000Y-102990000D03*
X75350000Y-102990000D03*
X72810000Y-102990000D03*
X70270000Y-102990000D03*
D35*
X67730000Y-102990000D03*
D34*
X65190000Y-102990000D03*
X62650000Y-102990000D03*
X60110000Y-102990000D03*
X57570000Y-102990000D03*
X55030000Y-102990000D03*
X52490000Y-102990000D03*
X85510000Y-102990000D03*
X52490000Y-110610000D03*
X55030000Y-110610000D03*
X57570000Y-110610000D03*
X60110000Y-110610000D03*
X62650000Y-110610000D03*
X65190000Y-110610000D03*
X67730000Y-110610000D03*
D35*
X70270000Y-110610000D03*
D34*
X72810000Y-110610000D03*
X75350000Y-110610000D03*
X77890000Y-110610000D03*
X80430000Y-110610000D03*
X82970000Y-110610000D03*
X85510000Y-110610000D03*
D20*
X98000000Y-113350000D03*
X98000000Y-110810000D03*
D21*
X98000000Y-108270000D03*
X98000000Y-105730000D03*
X98000000Y-103190000D03*
X98000000Y-100650000D03*
D19*
X37702000Y-118467000D03*
X31098000Y-118467000D03*
D36*
X64240940Y-96100000D03*
X59359060Y-96100000D03*
D37*
X61800000Y-96100000D03*
D38*
X41500000Y-104750000D03*
D39*
X41500000Y-100940000D03*
D11*
X32000000Y-92000000D03*
X87500000Y-95000000D03*
D21*
X70060000Y-96000000D03*
X72600000Y-96000000D03*
X75140000Y-96000000D03*
D37*
X33800000Y-98760000D03*
D36*
X33800000Y-101300000D03*
D23*
X102000000Y-105500000D03*
X102000000Y-108000000D03*
X102000000Y-102250000D03*
X102000000Y-99750000D03*
X113000000Y-105500000D03*
X113000000Y-108000000D03*
D22*
X107500000Y-97730000D03*
X107500000Y-100270000D03*
D20*
X101150000Y-114000000D03*
X103690000Y-114000000D03*
D21*
X106230000Y-114000000D03*
X108770000Y-114000000D03*
X111310000Y-114000000D03*
X113850000Y-114000000D03*
D16*
X107500000Y-94250000D03*
X106849760Y-94250000D03*
X106199520Y-94250000D03*
X108150240Y-94250000D03*
X108800480Y-94250000D03*
D17*
X110675000Y-93996000D03*
X104325000Y-93996000D03*
D18*
X108706500Y-91583000D03*
X106293500Y-91583000D03*
D19*
X110802000Y-91583000D03*
X104198000Y-91583000D03*
D15*
X113000000Y-99650000D03*
X113000000Y-102350000D03*
D12*
X108800480Y-104650120D03*
X108150240Y-104650120D03*
X107500000Y-104650120D03*
X106849760Y-104650120D03*
D13*
X104647580Y-105549280D03*
X104647580Y-106199520D03*
X104647580Y-106849760D03*
X104647580Y-107500000D03*
X104647580Y-108150240D03*
X104647580Y-108800480D03*
X104647580Y-109450720D03*
D12*
X109450720Y-104650120D03*
D14*
X106550040Y-106550040D03*
X108449960Y-106550040D03*
X108449960Y-108449960D03*
X106550040Y-108449960D03*
D12*
X105498480Y-110352420D03*
X106148720Y-110352420D03*
X106798960Y-110352420D03*
X107500000Y-110352420D03*
X108099440Y-110352420D03*
X108749680Y-110352420D03*
X109399920Y-110352420D03*
D13*
X110349880Y-109450720D03*
X110349880Y-108800480D03*
X110349880Y-108150240D03*
X110349880Y-107500000D03*
X110349880Y-106849760D03*
X110349880Y-106199520D03*
X110349880Y-105549280D03*
D12*
X106199520Y-104650120D03*
X105549280Y-104650120D03*
D11*
X113000000Y-118000000D03*
X102000000Y-118000000D03*
D20*
X43000000Y-110520000D03*
D21*
X43000000Y-107980000D03*
D20*
X43000000Y-80520000D03*
D21*
X43000000Y-77980000D03*
D11*
X102000000Y-88000000D03*
X113000000Y-88000000D03*
D12*
X108800480Y-74650120D03*
X108150240Y-74650120D03*
X107500000Y-74650120D03*
X106849760Y-74650120D03*
D13*
X104647580Y-75549280D03*
X104647580Y-76199520D03*
X104647580Y-76849760D03*
X104647580Y-77500000D03*
X104647580Y-78150240D03*
X104647580Y-78800480D03*
X104647580Y-79450720D03*
D12*
X109450720Y-74650120D03*
D14*
X106550040Y-76550040D03*
X108449960Y-76550040D03*
X108449960Y-78449960D03*
X106550040Y-78449960D03*
D12*
X105498480Y-80352420D03*
X106148720Y-80352420D03*
X106798960Y-80352420D03*
X107500000Y-80352420D03*
X108099440Y-80352420D03*
X108749680Y-80352420D03*
X109399920Y-80352420D03*
D13*
X110349880Y-79450720D03*
X110349880Y-78800480D03*
X110349880Y-78150240D03*
X110349880Y-77500000D03*
X110349880Y-76849760D03*
X110349880Y-76199520D03*
X110349880Y-75549280D03*
D12*
X106199520Y-74650120D03*
X105549280Y-74650120D03*
D15*
X113000000Y-69650000D03*
X113000000Y-72350000D03*
D16*
X107500000Y-64250000D03*
X106849760Y-64250000D03*
X106199520Y-64250000D03*
X108150240Y-64250000D03*
X108800480Y-64250000D03*
D17*
X110675000Y-63996000D03*
X104325000Y-63996000D03*
D18*
X108706500Y-61583000D03*
X106293500Y-61583000D03*
D19*
X110802000Y-61583000D03*
X104198000Y-61583000D03*
D20*
X101150000Y-84000000D03*
X103690000Y-84000000D03*
D21*
X106230000Y-84000000D03*
X108770000Y-84000000D03*
X111310000Y-84000000D03*
X113850000Y-84000000D03*
D22*
X107500000Y-67730000D03*
X107500000Y-70270000D03*
D23*
X113000000Y-75500000D03*
X113000000Y-78000000D03*
X102000000Y-72250000D03*
X102000000Y-69750000D03*
X102000000Y-75500000D03*
X102000000Y-78000000D03*
D37*
X33800000Y-68760000D03*
D36*
X33800000Y-71300000D03*
D21*
X70060000Y-66000000D03*
X72600000Y-66000000D03*
X75140000Y-66000000D03*
D11*
X87500000Y-65000000D03*
X32000000Y-62000000D03*
D38*
X41500000Y-74750000D03*
D39*
X41500000Y-70940000D03*
D36*
X64240940Y-66100000D03*
X59359060Y-66100000D03*
D37*
X61800000Y-66100000D03*
D19*
X37702000Y-88467000D03*
X31098000Y-88467000D03*
D20*
X98000000Y-83350000D03*
X98000000Y-80810000D03*
D21*
X98000000Y-78270000D03*
X98000000Y-75730000D03*
X98000000Y-73190000D03*
X98000000Y-70650000D03*
D34*
X82970000Y-72990000D03*
X80430000Y-72990000D03*
X77890000Y-72990000D03*
X75350000Y-72990000D03*
X72810000Y-72990000D03*
X70270000Y-72990000D03*
D35*
X67730000Y-72990000D03*
D34*
X65190000Y-72990000D03*
X62650000Y-72990000D03*
X60110000Y-72990000D03*
X57570000Y-72990000D03*
X55030000Y-72990000D03*
X52490000Y-72990000D03*
X85510000Y-72990000D03*
X52490000Y-80610000D03*
X55030000Y-80610000D03*
X57570000Y-80610000D03*
X60110000Y-80610000D03*
X62650000Y-80610000D03*
X65190000Y-80610000D03*
X67730000Y-80610000D03*
D35*
X70270000Y-80610000D03*
D34*
X72810000Y-80610000D03*
X75350000Y-80610000D03*
X77890000Y-80610000D03*
X80430000Y-80610000D03*
X82970000Y-80610000D03*
X85510000Y-80610000D03*
D22*
X47200000Y-86230000D03*
D33*
X47200000Y-88770000D03*
D22*
X51700000Y-86230000D03*
D33*
X51700000Y-88770000D03*
D21*
X45000000Y-61710000D03*
X45000000Y-64250000D03*
X45000000Y-66790000D03*
D31*
X57450000Y-87000000D03*
X59990000Y-87000000D03*
X62530000Y-87000000D03*
D32*
X65070000Y-87000000D03*
X67610000Y-87000000D03*
D31*
X70150000Y-87000000D03*
X75150000Y-87000000D03*
X77690000Y-87000000D03*
X80230000Y-87000000D03*
X82770000Y-87000000D03*
X85310000Y-87000000D03*
X87850000Y-87000000D03*
X87890000Y-61600000D03*
X85350000Y-61600000D03*
X82810000Y-61600000D03*
X80270000Y-61600000D03*
X77730000Y-61600000D03*
X75190000Y-61600000D03*
X72650000Y-61600000D03*
X70110000Y-61600000D03*
X65890000Y-61600000D03*
X63350000Y-61600000D03*
X60810000Y-61600000D03*
X58270000Y-61600000D03*
X55730000Y-61600000D03*
X53190000Y-61600000D03*
D32*
X50650000Y-61600000D03*
D31*
X48110000Y-61600000D03*
D21*
X48160000Y-67370000D03*
X48160000Y-64830000D03*
X50700000Y-67370000D03*
X50700000Y-64830000D03*
X53240000Y-67370000D03*
D20*
X53240000Y-64830000D03*
D28*
X34400000Y-82000000D03*
D29*
X34400000Y-75904000D03*
D30*
X39480000Y-78825000D03*
D11*
X42500000Y-85000000D03*
X98000000Y-88000000D03*
D26*
X97550000Y-62050000D03*
D27*
X91050000Y-66550000D03*
X97550000Y-66550000D03*
D26*
X91050000Y-62050000D03*
D24*
X35960000Y-63000000D03*
D25*
X38500000Y-63000000D03*
D24*
X41040000Y-63000000D03*
D23*
X117000000Y-75500000D03*
X117000000Y-78000000D03*
X117000000Y-72250000D03*
X117000000Y-69750000D03*
X128000000Y-75500000D03*
X128000000Y-78000000D03*
D22*
X122500000Y-67730000D03*
X122500000Y-70270000D03*
D20*
X116150000Y-84000000D03*
X118690000Y-84000000D03*
D21*
X121230000Y-84000000D03*
X123770000Y-84000000D03*
X126310000Y-84000000D03*
X128850000Y-84000000D03*
D16*
X122500000Y-64250000D03*
X121849760Y-64250000D03*
X121199520Y-64250000D03*
X123150240Y-64250000D03*
X123800480Y-64250000D03*
D17*
X125675000Y-63996000D03*
X119325000Y-63996000D03*
D18*
X123706500Y-61583000D03*
X121293500Y-61583000D03*
D19*
X125802000Y-61583000D03*
X119198000Y-61583000D03*
D15*
X128000000Y-69650000D03*
X128000000Y-72350000D03*
D12*
X123800480Y-74650120D03*
X123150240Y-74650120D03*
X122500000Y-74650120D03*
X121849760Y-74650120D03*
D13*
X119647580Y-75549280D03*
X119647580Y-76199520D03*
X119647580Y-76849760D03*
X119647580Y-77500000D03*
X119647580Y-78150240D03*
X119647580Y-78800480D03*
X119647580Y-79450720D03*
D12*
X124450720Y-74650120D03*
D14*
X121550040Y-76550040D03*
X123449960Y-76550040D03*
X123449960Y-78449960D03*
X121550040Y-78449960D03*
D12*
X120498480Y-80352420D03*
X121148720Y-80352420D03*
X121798960Y-80352420D03*
X122500000Y-80352420D03*
X123099440Y-80352420D03*
X123749680Y-80352420D03*
X124399920Y-80352420D03*
D13*
X125349880Y-79450720D03*
X125349880Y-78800480D03*
X125349880Y-78150240D03*
X125349880Y-77500000D03*
X125349880Y-76849760D03*
X125349880Y-76199520D03*
X125349880Y-75549280D03*
D12*
X121199520Y-74650120D03*
X120549280Y-74650120D03*
D11*
X128000000Y-88000000D03*
X117000000Y-88000000D03*
X117000000Y-58000000D03*
X128000000Y-58000000D03*
D12*
X123800480Y-44650120D03*
X123150240Y-44650120D03*
X122500000Y-44650120D03*
X121849760Y-44650120D03*
D13*
X119647580Y-45549280D03*
X119647580Y-46199520D03*
X119647580Y-46849760D03*
X119647580Y-47500000D03*
X119647580Y-48150240D03*
X119647580Y-48800480D03*
X119647580Y-49450720D03*
D12*
X124450720Y-44650120D03*
D14*
X121550040Y-46550040D03*
X123449960Y-46550040D03*
X123449960Y-48449960D03*
X121550040Y-48449960D03*
D12*
X120498480Y-50352420D03*
X121148720Y-50352420D03*
X121798960Y-50352420D03*
X122500000Y-50352420D03*
X123099440Y-50352420D03*
X123749680Y-50352420D03*
X124399920Y-50352420D03*
D13*
X125349880Y-49450720D03*
X125349880Y-48800480D03*
X125349880Y-48150240D03*
X125349880Y-47500000D03*
X125349880Y-46849760D03*
X125349880Y-46199520D03*
X125349880Y-45549280D03*
D12*
X121199520Y-44650120D03*
X120549280Y-44650120D03*
D15*
X128000000Y-39650000D03*
X128000000Y-42350000D03*
D16*
X122500000Y-34250000D03*
X121849760Y-34250000D03*
X121199520Y-34250000D03*
X123150240Y-34250000D03*
X123800480Y-34250000D03*
D17*
X125675000Y-33996000D03*
X119325000Y-33996000D03*
D18*
X123706500Y-31583000D03*
X121293500Y-31583000D03*
D19*
X125802000Y-31583000D03*
X119198000Y-31583000D03*
D20*
X116150000Y-54000000D03*
X118690000Y-54000000D03*
D21*
X121230000Y-54000000D03*
X123770000Y-54000000D03*
X126310000Y-54000000D03*
X128850000Y-54000000D03*
D22*
X122500000Y-37730000D03*
X122500000Y-40270000D03*
D23*
X128000000Y-45500000D03*
X128000000Y-48000000D03*
X117000000Y-42250000D03*
X117000000Y-39750000D03*
X117000000Y-45500000D03*
X117000000Y-48000000D03*
D24*
X35960000Y-33000000D03*
D25*
X38500000Y-33000000D03*
D24*
X41040000Y-33000000D03*
D26*
X97550000Y-32050000D03*
D27*
X91050000Y-36550000D03*
X97550000Y-36550000D03*
D26*
X91050000Y-32050000D03*
D11*
X98000000Y-58000000D03*
X42500000Y-55000000D03*
D28*
X34400000Y-52000000D03*
D29*
X34400000Y-45904000D03*
D30*
X39480000Y-48825000D03*
D21*
X48160000Y-37370000D03*
X48160000Y-34830000D03*
X50700000Y-37370000D03*
X50700000Y-34830000D03*
X53240000Y-37370000D03*
D20*
X53240000Y-34830000D03*
D31*
X65890000Y-31600000D03*
X63350000Y-31600000D03*
X60810000Y-31600000D03*
X58270000Y-31600000D03*
X55730000Y-31600000D03*
X53190000Y-31600000D03*
D32*
X50650000Y-31600000D03*
D31*
X48110000Y-31600000D03*
X87890000Y-31600000D03*
X85350000Y-31600000D03*
X82810000Y-31600000D03*
X80270000Y-31600000D03*
X77730000Y-31600000D03*
X75190000Y-31600000D03*
X72650000Y-31600000D03*
X70110000Y-31600000D03*
X75150000Y-57000000D03*
X77690000Y-57000000D03*
X80230000Y-57000000D03*
X82770000Y-57000000D03*
X85310000Y-57000000D03*
X87850000Y-57000000D03*
X57450000Y-57000000D03*
X59990000Y-57000000D03*
X62530000Y-57000000D03*
D32*
X65070000Y-57000000D03*
X67610000Y-57000000D03*
D31*
X70150000Y-57000000D03*
D21*
X45000000Y-31710000D03*
X45000000Y-34250000D03*
X45000000Y-36790000D03*
D22*
X51700000Y-56230000D03*
D33*
X51700000Y-58770000D03*
D22*
X47200000Y-56230000D03*
D33*
X47200000Y-58770000D03*
D34*
X82970000Y-42990000D03*
X80430000Y-42990000D03*
X77890000Y-42990000D03*
X75350000Y-42990000D03*
X72810000Y-42990000D03*
X70270000Y-42990000D03*
D35*
X67730000Y-42990000D03*
D34*
X65190000Y-42990000D03*
X62650000Y-42990000D03*
X60110000Y-42990000D03*
X57570000Y-42990000D03*
X55030000Y-42990000D03*
X52490000Y-42990000D03*
X85510000Y-42990000D03*
X52490000Y-50610000D03*
X55030000Y-50610000D03*
X57570000Y-50610000D03*
X60110000Y-50610000D03*
X62650000Y-50610000D03*
X65190000Y-50610000D03*
X67730000Y-50610000D03*
D35*
X70270000Y-50610000D03*
D34*
X72810000Y-50610000D03*
X75350000Y-50610000D03*
X77890000Y-50610000D03*
X80430000Y-50610000D03*
X82970000Y-50610000D03*
X85510000Y-50610000D03*
D20*
X98000000Y-53350000D03*
X98000000Y-50810000D03*
D21*
X98000000Y-48270000D03*
X98000000Y-45730000D03*
X98000000Y-43190000D03*
X98000000Y-40650000D03*
D19*
X37702000Y-58467000D03*
X31098000Y-58467000D03*
D36*
X64240940Y-36100000D03*
X59359060Y-36100000D03*
D37*
X61800000Y-36100000D03*
D38*
X41500000Y-44750000D03*
D39*
X41500000Y-40940000D03*
D11*
X32000000Y-32000000D03*
X87500000Y-35000000D03*
D21*
X70060000Y-36000000D03*
X72600000Y-36000000D03*
X75140000Y-36000000D03*
D37*
X33800000Y-38760000D03*
D36*
X33800000Y-41300000D03*
D23*
X102000000Y-45500000D03*
X102000000Y-48000000D03*
X102000000Y-42250000D03*
X102000000Y-39750000D03*
X113000000Y-45500000D03*
X113000000Y-48000000D03*
D22*
X107500000Y-37730000D03*
X107500000Y-40270000D03*
D20*
X101150000Y-54000000D03*
X103690000Y-54000000D03*
D21*
X106230000Y-54000000D03*
X108770000Y-54000000D03*
X111310000Y-54000000D03*
X113850000Y-54000000D03*
D16*
X107500000Y-34250000D03*
X106849760Y-34250000D03*
X106199520Y-34250000D03*
X108150240Y-34250000D03*
X108800480Y-34250000D03*
D17*
X110675000Y-33996000D03*
X104325000Y-33996000D03*
D18*
X108706500Y-31583000D03*
X106293500Y-31583000D03*
D19*
X110802000Y-31583000D03*
X104198000Y-31583000D03*
D15*
X113000000Y-39650000D03*
X113000000Y-42350000D03*
D12*
X108800480Y-44650120D03*
X108150240Y-44650120D03*
X107500000Y-44650120D03*
X106849760Y-44650120D03*
D13*
X104647580Y-45549280D03*
X104647580Y-46199520D03*
X104647580Y-46849760D03*
X104647580Y-47500000D03*
X104647580Y-48150240D03*
X104647580Y-48800480D03*
X104647580Y-49450720D03*
D12*
X109450720Y-44650120D03*
D14*
X106550040Y-46550040D03*
X108449960Y-46550040D03*
X108449960Y-48449960D03*
X106550040Y-48449960D03*
D12*
X105498480Y-50352420D03*
X106148720Y-50352420D03*
X106798960Y-50352420D03*
X107500000Y-50352420D03*
X108099440Y-50352420D03*
X108749680Y-50352420D03*
X109399920Y-50352420D03*
D13*
X110349880Y-49450720D03*
X110349880Y-48800480D03*
X110349880Y-48150240D03*
X110349880Y-47500000D03*
X110349880Y-46849760D03*
X110349880Y-46199520D03*
X110349880Y-45549280D03*
D12*
X106199520Y-44650120D03*
X105549280Y-44650120D03*
D11*
X113000000Y-58000000D03*
X102000000Y-58000000D03*
D20*
X43000000Y-50520000D03*
D21*
X43000000Y-47980000D03*
M02*
