G04 #@! TF.FileFunction,Profile,NP*
%FSLAX46Y46*%
G04 Gerber Fmt 4.6, Leading zero omitted, Abs format (unit mm)*
G04 Created by KiCad (PCBNEW (2014-11-14 BZR 5284)-product) date Mon Dec  1 16:34:46 2014*
%MOMM*%
G01*
G04 APERTURE LIST*
%ADD10C,0.100000*%
G04 APERTURE END LIST*
D10*
X115000000Y-120000000D02*
X115000000Y-90000000D01*
X115000000Y-90000000D02*
X130000000Y-90000000D01*
X130000000Y-90000000D02*
X130000000Y-120000000D01*
X130000000Y-120000000D02*
X115000000Y-120000000D01*
X115000000Y-120000000D02*
X100000000Y-120000000D01*
X115000000Y-90000000D02*
X115000000Y-120000000D01*
X100000000Y-90000000D02*
X115000000Y-90000000D01*
X100000000Y-120000000D02*
X100000000Y-90000000D01*
X30000000Y-120000000D02*
X30000000Y-90000000D01*
X100000000Y-120000000D02*
X30000000Y-120000000D01*
X100000000Y-90000000D02*
X100000000Y-120000000D01*
X30000000Y-90000000D02*
X100000000Y-90000000D01*
X30000000Y-60000000D02*
X100000000Y-60000000D01*
X100000000Y-60000000D02*
X100000000Y-90000000D01*
X100000000Y-90000000D02*
X30000000Y-90000000D01*
X30000000Y-90000000D02*
X30000000Y-60000000D01*
X100000000Y-90000000D02*
X100000000Y-60000000D01*
X100000000Y-60000000D02*
X115000000Y-60000000D01*
X115000000Y-60000000D02*
X115000000Y-90000000D01*
X115000000Y-90000000D02*
X100000000Y-90000000D01*
X130000000Y-90000000D02*
X115000000Y-90000000D01*
X130000000Y-60000000D02*
X130000000Y-90000000D01*
X115000000Y-60000000D02*
X130000000Y-60000000D01*
X115000000Y-90000000D02*
X115000000Y-60000000D01*
X115000000Y-60000000D02*
X115000000Y-30000000D01*
X115000000Y-30000000D02*
X130000000Y-30000000D01*
X130000000Y-30000000D02*
X130000000Y-60000000D01*
X130000000Y-60000000D02*
X115000000Y-60000000D01*
X115000000Y-60000000D02*
X100000000Y-60000000D01*
X115000000Y-30000000D02*
X115000000Y-60000000D01*
X100000000Y-30000000D02*
X115000000Y-30000000D01*
X100000000Y-60000000D02*
X100000000Y-30000000D01*
X30000000Y-60000000D02*
X30000000Y-30000000D01*
X100000000Y-60000000D02*
X30000000Y-60000000D01*
X100000000Y-30000000D02*
X100000000Y-60000000D01*
X30000000Y-30000000D02*
X100000000Y-30000000D01*
M02*
