G04 #@! TF.FileFunction,Copper,L2,Bot,Signal*
%FSLAX46Y46*%
G04 Gerber Fmt 4.6, Leading zero omitted, Abs format (unit mm)*
G04 Created by KiCad (PCBNEW (2014-12-11 BZR 5320)-product) date Wed Dec 17 12:14:25 2014*
%MOMM*%
G01*
G04 APERTURE LIST*
%ADD10C,0.100000*%
%ADD11C,1.778000*%
%ADD12R,1.778000X1.778000*%
%ADD13R,1.500000X1.300000*%
%ADD14C,3.048000*%
%ADD15R,4.572000X3.048000*%
%ADD16O,4.572000X3.048000*%
%ADD17O,3.048000X4.572000*%
%ADD18C,1.524000*%
%ADD19R,1.524000X1.524000*%
%ADD20R,1.500000X1.250000*%
%ADD21R,1.250000X1.500000*%
%ADD22O,1.574800X2.286000*%
%ADD23R,1.574800X2.286000*%
%ADD24R,0.406400X1.371600*%
%ADD25R,1.600200X1.422400*%
%ADD26R,1.905000X1.905000*%
%ADD27C,1.905000*%
%ADD28C,1.501140*%
%ADD29R,1.501140X1.501140*%
%ADD30C,0.500000*%
%ADD31C,0.254000*%
%ADD32C,0.250000*%
G04 APERTURE END LIST*
D10*
X100000000Y-58000000D02*
X100000000Y-32000000D01*
X100000000Y-32000000D02*
G75*
G03X98000000Y-30000000I-2000000J0D01*
G01*
X98000000Y-60000000D02*
G75*
G03X100000000Y-58000000I0J2000000D01*
G01*
X32000000Y-30000000D02*
G75*
G03X30000000Y-32000000I0J-2000000D01*
G01*
X30000000Y-60000000D02*
X30000000Y-32000000D01*
X98000000Y-60000000D02*
X30000000Y-60000000D01*
X32000000Y-30000000D02*
X98000000Y-30000000D01*
D11*
X35960000Y-32870000D03*
D12*
X38500000Y-32870000D03*
D11*
X41040000Y-32870000D03*
D12*
X98250000Y-32000000D03*
D11*
X91750000Y-36500000D03*
X98250000Y-36500000D03*
D12*
X91750000Y-32000000D03*
D13*
X55250000Y-53700000D03*
X52550000Y-53700000D03*
X47210000Y-53700000D03*
X49910000Y-53700000D03*
X81750000Y-46000000D03*
X84450000Y-46000000D03*
D14*
X98000000Y-58000000D03*
X42500000Y-55000000D03*
D15*
X34400000Y-52000000D03*
D16*
X34400000Y-45904000D03*
D17*
X39480000Y-48825000D03*
D18*
X50320000Y-37950000D03*
X50320000Y-35410000D03*
X52860000Y-37950000D03*
X52860000Y-35410000D03*
X55400000Y-37950000D03*
D19*
X55400000Y-35410000D03*
D18*
X65560000Y-31600000D03*
X63020000Y-31600000D03*
X60480000Y-31600000D03*
X57940000Y-31600000D03*
X55400000Y-31600000D03*
X52860000Y-31600000D03*
D19*
X50320000Y-31600000D03*
D18*
X47780000Y-31600000D03*
X88420000Y-31600000D03*
X85880000Y-31600000D03*
X83340000Y-31600000D03*
X80800000Y-31600000D03*
X78260000Y-31600000D03*
X75720000Y-31600000D03*
X73180000Y-31600000D03*
X70640000Y-31600000D03*
X88420000Y-57000000D03*
X85880000Y-57000000D03*
X83340000Y-57000000D03*
X80800000Y-57000000D03*
X78260000Y-57000000D03*
X75720000Y-57000000D03*
X70640000Y-57000000D03*
D19*
X68100000Y-57000000D03*
X65560000Y-57000000D03*
D18*
X63020000Y-57000000D03*
X60480000Y-57000000D03*
X57940000Y-57000000D03*
X45230000Y-32870000D03*
X45230000Y-35410000D03*
X45230000Y-37950000D03*
X51700000Y-56230000D03*
D19*
X51700000Y-58770000D03*
D18*
X47200000Y-56230000D03*
D19*
X47200000Y-58770000D03*
D20*
X60550000Y-46800000D03*
X58050000Y-46800000D03*
X64250000Y-46800000D03*
X66750000Y-46800000D03*
X88050000Y-46000000D03*
X90550000Y-46000000D03*
X70750000Y-46800000D03*
X73250000Y-46800000D03*
D21*
X47750000Y-37000000D03*
X47750000Y-34500000D03*
D20*
X33460000Y-35420000D03*
X35960000Y-35420000D03*
X64250000Y-53700000D03*
X66750000Y-53700000D03*
D22*
X82970000Y-42990000D03*
X80430000Y-42990000D03*
X77890000Y-42990000D03*
X75350000Y-42990000D03*
X72810000Y-42990000D03*
X70270000Y-42990000D03*
D23*
X67730000Y-42990000D03*
D22*
X65190000Y-42990000D03*
X62650000Y-42990000D03*
X60110000Y-42990000D03*
X57570000Y-42990000D03*
X55030000Y-42990000D03*
X52490000Y-42990000D03*
X85510000Y-42990000D03*
X52490000Y-50610000D03*
X55030000Y-50610000D03*
X57570000Y-50610000D03*
X60110000Y-50610000D03*
X62650000Y-50610000D03*
X65190000Y-50610000D03*
X67730000Y-50610000D03*
D23*
X70270000Y-50610000D03*
D22*
X72810000Y-50610000D03*
X75350000Y-50610000D03*
X77890000Y-50610000D03*
X80430000Y-50610000D03*
X82970000Y-50610000D03*
X85510000Y-50610000D03*
D19*
X98000000Y-53350000D03*
X98000000Y-50810000D03*
D18*
X98000000Y-48270000D03*
X98000000Y-45730000D03*
X98000000Y-43190000D03*
X98000000Y-40650000D03*
D24*
X34400000Y-55800000D03*
X33749760Y-55800000D03*
X33099520Y-55800000D03*
X35050240Y-55800000D03*
X35700480Y-55800000D03*
D25*
X37575000Y-56054000D03*
X31225000Y-56054000D03*
D26*
X35606500Y-58467000D03*
X33193500Y-58467000D03*
D27*
X37702000Y-58467000D03*
X31098000Y-58467000D03*
D28*
X65450940Y-36080000D03*
X60569060Y-36080000D03*
D29*
X63010000Y-36080000D03*
D11*
X42000000Y-40250000D03*
D12*
X42000000Y-36440000D03*
D14*
X32000000Y-32000000D03*
X87500000Y-35000000D03*
D18*
X70640000Y-35410000D03*
X73180000Y-35410000D03*
X75720000Y-35410000D03*
D29*
X34910000Y-39970000D03*
D28*
X37450000Y-39970000D03*
D19*
X42700000Y-44300000D03*
D18*
X40160000Y-44300000D03*
D30*
X82550000Y-47560000D02*
X97290000Y-47560000D01*
X97290000Y-47560000D02*
X98000000Y-48270000D01*
X64250000Y-53196800D02*
X64250000Y-53700000D01*
X81750000Y-46000000D02*
X81750000Y-46376000D01*
X70850000Y-35620000D02*
X70640000Y-35410000D01*
X70270000Y-42990000D02*
X70270000Y-45092150D01*
X70270000Y-45092150D02*
X76892150Y-45092150D01*
X65190000Y-49210000D02*
X65190000Y-50610000D01*
X65800000Y-48600000D02*
X65190000Y-49210000D01*
X67700000Y-48600000D02*
X65800000Y-48600000D01*
X68700000Y-47600000D02*
X67700000Y-48600000D01*
X69692150Y-45092150D02*
X70270000Y-45092150D01*
X69692150Y-45092150D02*
X68700000Y-46084300D01*
X68700000Y-46084300D02*
X68700000Y-47600000D01*
X64250000Y-52950000D02*
X65190000Y-52010000D01*
X65190000Y-52010000D02*
X65190000Y-50610000D01*
X64250000Y-53700000D02*
X64250000Y-52950000D01*
X81750000Y-46760000D02*
X82550000Y-47560000D01*
X81750000Y-46000000D02*
X81750000Y-46760000D01*
X77800000Y-46000000D02*
X76892150Y-45092150D01*
X81750000Y-46000000D02*
X77800000Y-46000000D01*
X64250000Y-54540000D02*
X63020000Y-55770000D01*
X63020000Y-55770000D02*
X63020000Y-57000000D01*
X64250000Y-53700000D02*
X64250000Y-54540000D01*
X70270000Y-39992150D02*
X70640000Y-39622150D01*
X70640000Y-39622150D02*
X70640000Y-35410000D01*
X70270000Y-42990000D02*
X70270000Y-39992150D01*
X48500000Y-37000000D02*
X47750000Y-37000000D01*
X50090000Y-35410000D02*
X48500000Y-37000000D01*
X50320000Y-35410000D02*
X50090000Y-35410000D01*
X47000000Y-37000000D02*
X47750000Y-37000000D01*
X45410000Y-35410000D02*
X47000000Y-37000000D01*
X45230000Y-35410000D02*
X45410000Y-35410000D01*
X47750000Y-37990000D02*
X48550000Y-38790000D01*
X48550000Y-38790000D02*
X48550000Y-50510000D01*
X49910000Y-51870000D02*
X49910000Y-53700000D01*
X48550000Y-50510000D02*
X49910000Y-51870000D01*
X47750000Y-37000000D02*
X47750000Y-37990000D01*
X98000000Y-50810000D02*
X98930000Y-50810000D01*
X95350000Y-37850000D02*
X95350000Y-32000000D01*
X96000000Y-38500000D02*
X95350000Y-37850000D01*
X98790000Y-38500000D02*
X96000000Y-38500000D01*
X99410000Y-39120000D02*
X98790000Y-38500000D01*
X99410000Y-50330000D02*
X99410000Y-39120000D01*
X98930000Y-50810000D02*
X99410000Y-50330000D01*
X70270000Y-50610000D02*
X70270000Y-52930000D01*
X70270000Y-52930000D02*
X69500000Y-53700000D01*
X66750000Y-53700000D02*
X67315700Y-53700000D01*
D31*
X33099500Y-56054000D02*
X33099500Y-55800000D01*
D30*
X98000000Y-50810000D02*
X98000000Y-53350000D01*
X66750000Y-46800000D02*
X66750000Y-45793700D01*
X67730000Y-42990000D02*
X67730000Y-44813700D01*
X67730000Y-44813700D02*
X66750000Y-45793700D01*
D31*
X33099500Y-56333500D02*
X33099500Y-56054000D01*
D30*
X37575000Y-57870200D02*
X37537100Y-57870200D01*
X37702000Y-57997200D02*
X37575000Y-57870200D01*
X69500000Y-53700000D02*
X66750000Y-53700000D01*
X31098000Y-56181000D02*
X31225000Y-56054000D01*
X31098000Y-58467000D02*
X31098000Y-56181000D01*
X31098000Y-58467000D02*
X33193500Y-58467000D01*
X37702000Y-58467000D02*
X35606500Y-58467000D01*
X35606500Y-58467000D02*
X33193500Y-58467000D01*
X37702000Y-56181000D02*
X37575000Y-56054000D01*
X37702000Y-58467000D02*
X37702000Y-56181000D01*
X33193500Y-57193500D02*
X33099520Y-57099520D01*
D31*
X33099520Y-57099520D02*
X33099520Y-55800000D01*
D30*
X33193500Y-58467000D02*
X33193500Y-57193500D01*
X34400000Y-53500000D02*
X34400000Y-52000000D01*
X33099520Y-54800480D02*
X34400000Y-53500000D01*
D31*
X33099520Y-55800000D02*
X33099520Y-54800480D01*
D30*
X92710000Y-50810000D02*
X90600000Y-48700000D01*
X73250000Y-48700000D02*
X70900000Y-48700000D01*
X90600000Y-48700000D02*
X73250000Y-48700000D01*
X70900000Y-48700000D02*
X70270000Y-49330000D01*
X70270000Y-49330000D02*
X70270000Y-50610000D01*
X98000000Y-50810000D02*
X92710000Y-50810000D01*
X73250000Y-46800000D02*
X73250000Y-48700000D01*
X38500000Y-32870000D02*
X38500000Y-30359200D01*
X98250000Y-32000000D02*
X95350000Y-32000000D01*
X95350000Y-32000000D02*
X91750000Y-32000000D01*
X51700000Y-58770000D02*
X47200000Y-58770000D01*
X42270000Y-58770000D02*
X41967000Y-58467000D01*
X41967000Y-58467000D02*
X37702000Y-58467000D01*
X47200000Y-58770000D02*
X42270000Y-58770000D01*
X64770000Y-58770000D02*
X51700000Y-58770000D01*
X66830000Y-57000000D02*
X68090000Y-57000000D01*
X65550000Y-57000000D02*
X66830000Y-57000000D01*
X66750000Y-55420000D02*
X66830000Y-55500000D01*
X66830000Y-55500000D02*
X66830000Y-57000000D01*
X66750000Y-53700000D02*
X66750000Y-55420000D01*
X65560000Y-57980000D02*
X64770000Y-58770000D01*
X65560000Y-57000000D02*
X65560000Y-57980000D01*
X50320000Y-32810000D02*
X49830000Y-33300000D01*
X47750000Y-33300000D02*
X47350000Y-33300000D01*
X49830000Y-33300000D02*
X47750000Y-33300000D01*
X47350000Y-33300000D02*
X46490000Y-32440000D01*
X46490000Y-32440000D02*
X46490000Y-32280000D01*
X46490000Y-32280000D02*
X44569200Y-30359200D01*
X44569200Y-30359200D02*
X38500000Y-30359200D01*
X50320000Y-31600000D02*
X50320000Y-32810000D01*
X50900000Y-41960000D02*
X51860000Y-41000000D01*
X50900000Y-45200000D02*
X50900000Y-41960000D01*
X51800000Y-46100000D02*
X50900000Y-45200000D01*
X54900000Y-46100000D02*
X51800000Y-46100000D01*
X55600000Y-46800000D02*
X54900000Y-46100000D01*
X55600000Y-46800000D02*
X58050000Y-46800000D01*
X51860000Y-41000000D02*
X56530000Y-41000000D01*
X63010000Y-35280000D02*
X63890000Y-34400000D01*
X63890000Y-34400000D02*
X66600000Y-34400000D01*
X66600000Y-34400000D02*
X67730000Y-35530000D01*
X67730000Y-35530000D02*
X67730000Y-42990000D01*
X63010000Y-36080000D02*
X63010000Y-35280000D01*
X56810000Y-35410000D02*
X57460000Y-36060000D01*
X57460000Y-36060000D02*
X57460000Y-40070000D01*
X57460000Y-40070000D02*
X56530000Y-41000000D01*
X55400000Y-35410000D02*
X56810000Y-35410000D01*
X34200000Y-31200000D02*
X35040800Y-30359200D01*
X38500000Y-30359200D02*
X35040800Y-30359200D01*
X33460000Y-34280000D02*
X33460000Y-35420000D01*
X34200000Y-33540000D02*
X33460000Y-34280000D01*
X34200000Y-31200000D02*
X34200000Y-33540000D01*
X31100000Y-36170000D02*
X31850000Y-35420000D01*
X31850000Y-35420000D02*
X33460000Y-35420000D01*
X31100000Y-39970000D02*
X31100000Y-51400000D01*
X31100000Y-51400000D02*
X31700000Y-52000000D01*
X34400000Y-52000000D02*
X31700000Y-52000000D01*
X31100000Y-39970000D02*
X31100000Y-36170000D01*
X34910000Y-39970000D02*
X31100000Y-39970000D01*
X47750000Y-34500000D02*
X47750000Y-33300000D01*
X42700000Y-50530000D02*
X41230000Y-52000000D01*
X41230000Y-52000000D02*
X34400000Y-52000000D01*
X42700000Y-44300000D02*
X42700000Y-50530000D01*
X35960000Y-32870000D02*
X35960000Y-35420000D01*
D32*
X90200000Y-40530000D02*
X90200000Y-38050000D01*
X90200000Y-38050000D02*
X91750000Y-36500000D01*
X91750000Y-36500000D02*
X91750000Y-36780000D01*
X86870000Y-41630000D02*
X85510000Y-42990000D01*
X89100000Y-41630000D02*
X86870000Y-41630000D01*
X90200000Y-40530000D02*
X89100000Y-41630000D01*
X86200000Y-46000000D02*
X88050000Y-46000000D01*
X84450000Y-46000000D02*
X86200000Y-46000000D01*
X86200000Y-44900000D02*
X86200000Y-46000000D01*
X85510000Y-44210000D02*
X86200000Y-44900000D01*
X85510000Y-42990000D02*
X85510000Y-44210000D01*
X90550000Y-46000000D02*
X96170000Y-46000000D01*
X96580000Y-42070000D02*
X98000000Y-40650000D01*
X96580000Y-45590000D02*
X96580000Y-42070000D01*
X96170000Y-46000000D02*
X96580000Y-45590000D01*
X47210000Y-56220000D02*
X47200000Y-56230000D01*
X47210000Y-53700000D02*
X47210000Y-56220000D01*
X51700000Y-54550000D02*
X52550000Y-53700000D01*
X51700000Y-56230000D02*
X51700000Y-54550000D01*
D30*
X45570000Y-55230000D02*
X43490000Y-57310000D01*
X45570000Y-52640000D02*
X45570000Y-55230000D01*
X47720000Y-50490000D02*
X45570000Y-52640000D01*
X39600000Y-55140000D02*
X38820000Y-54360000D01*
X36040000Y-54360000D02*
X38820000Y-54360000D01*
X35700480Y-54699520D02*
X36040000Y-54360000D01*
D31*
X35700480Y-55800000D02*
X35700480Y-54699520D01*
D30*
X43490000Y-57310000D02*
X41490000Y-57310000D01*
X41490000Y-57310000D02*
X39600000Y-55420000D01*
X39600000Y-55420000D02*
X39600000Y-55140000D01*
X47720000Y-39610000D02*
X46060000Y-37950000D01*
X46060000Y-37950000D02*
X45230000Y-37950000D01*
X47720000Y-50490000D02*
X47720000Y-39610000D01*
D32*
X70750000Y-46800000D02*
X70750000Y-47303100D01*
X67730000Y-49470000D02*
X68900000Y-48300000D01*
X68900000Y-48300000D02*
X70100000Y-48300000D01*
X70100000Y-48300000D02*
X70750000Y-47650000D01*
X70750000Y-47650000D02*
X70750000Y-46800000D01*
X67730000Y-50610000D02*
X67730000Y-49470000D01*
X89540000Y-32720000D02*
X89540000Y-40330000D01*
X82970000Y-41770000D02*
X82970000Y-42990000D01*
X83720000Y-41020000D02*
X82970000Y-41770000D01*
X88850000Y-41020000D02*
X83720000Y-41020000D01*
X89540000Y-40330000D02*
X88850000Y-41020000D01*
X89540000Y-32720000D02*
X88420000Y-31600000D01*
X61780000Y-32840000D02*
X63020000Y-31600000D01*
X63900000Y-41960000D02*
X63900000Y-44500000D01*
X63900000Y-44500000D02*
X62700000Y-45700000D01*
X62700000Y-45700000D02*
X62700000Y-48070500D01*
X62700000Y-48070500D02*
X63900000Y-49270500D01*
X62500000Y-52400000D02*
X59737000Y-55163000D01*
X59737000Y-55163000D02*
X54273000Y-55163000D01*
X63900000Y-51740000D02*
X63240000Y-52400000D01*
X63240000Y-52400000D02*
X62500000Y-52400000D01*
X63900000Y-49270500D02*
X63900000Y-51740000D01*
X61780000Y-32840000D02*
X61780000Y-39840000D01*
X61780000Y-39840000D02*
X63900000Y-41960000D01*
X54273000Y-55163000D02*
X53900000Y-54790000D01*
X53900000Y-54790000D02*
X53900000Y-52610000D01*
X53900000Y-52610000D02*
X53700000Y-52410000D01*
X53700000Y-52410000D02*
X52920000Y-52410000D01*
X52920000Y-52410000D02*
X52490000Y-51980000D01*
X52490000Y-51980000D02*
X52490000Y-50610000D01*
X58840000Y-44818500D02*
X59201800Y-45180300D01*
X59201800Y-45180300D02*
X59201800Y-49333600D01*
X59201800Y-49333600D02*
X58840000Y-49695400D01*
X56100000Y-52600000D02*
X58300000Y-52600000D01*
X58300000Y-52600000D02*
X58840000Y-52060000D01*
X58840000Y-52060000D02*
X58840000Y-49695400D01*
X55030000Y-51530000D02*
X56100000Y-52600000D01*
X55030000Y-50610000D02*
X55030000Y-51530000D01*
X58840000Y-33240000D02*
X60480000Y-31600000D01*
X58840000Y-44818500D02*
X58840000Y-33240000D01*
X50320000Y-40280000D02*
X49790000Y-40810000D01*
X52570000Y-40280000D02*
X50320000Y-40280000D01*
X54160000Y-38690000D02*
X52570000Y-40280000D01*
X54160000Y-36710000D02*
X52860000Y-35410000D01*
X49790000Y-47630000D02*
X49790000Y-40810000D01*
X50470000Y-48310000D02*
X55270000Y-48310000D01*
X49790000Y-47630000D02*
X50470000Y-48310000D01*
X57570000Y-50610000D02*
X55270000Y-48310000D01*
X54160000Y-36710000D02*
X54160000Y-38690000D01*
X49250000Y-47860000D02*
X49250000Y-40520000D01*
X51090000Y-39720000D02*
X52860000Y-37950000D01*
X50050000Y-39720000D02*
X51090000Y-39720000D01*
X49250000Y-40520000D02*
X50050000Y-39720000D01*
X53090000Y-48850000D02*
X53800000Y-49560000D01*
X50240000Y-48850000D02*
X53090000Y-48850000D01*
X49250000Y-47860000D02*
X50240000Y-48850000D01*
X53800000Y-49560000D02*
X53800000Y-51450000D01*
X52860000Y-32910000D02*
X51610000Y-34160000D01*
X51610000Y-34160000D02*
X51610000Y-36700000D01*
X51610000Y-36700000D02*
X52860000Y-37950000D01*
X52860000Y-31600000D02*
X52860000Y-32910000D01*
X55250000Y-52900000D02*
X53800000Y-51450000D01*
X55250000Y-53700000D02*
X55250000Y-52900000D01*
X59560000Y-53700000D02*
X62650000Y-50610000D01*
X55250000Y-53700000D02*
X59560000Y-53700000D01*
X65190000Y-40190000D02*
X65190000Y-42990000D01*
X64250000Y-46800000D02*
X64250000Y-45454300D01*
X64250000Y-45454300D02*
X65190000Y-44514300D01*
X65190000Y-42990000D02*
X65190000Y-44514300D01*
X65450940Y-39929060D02*
X65190000Y-40190000D01*
X65450940Y-36080000D02*
X65450940Y-39929060D01*
X60569060Y-36080000D02*
X60569060Y-40909060D01*
X60569060Y-40909060D02*
X62650000Y-42990000D01*
X62650000Y-42990000D02*
X62204500Y-42990000D01*
X62650000Y-44450000D02*
X62000000Y-45100000D01*
X62650000Y-42990000D02*
X62650000Y-44450000D01*
X60550000Y-45550000D02*
X60550000Y-46800000D01*
X61000000Y-45100000D02*
X60550000Y-45550000D01*
X62000000Y-45100000D02*
X61000000Y-45100000D01*
D31*
G36*
X31291747Y-58481142D02*
X31112142Y-58660747D01*
X31098000Y-58646605D01*
X31083857Y-58660747D01*
X30904252Y-58481142D01*
X30918395Y-58467000D01*
X30904252Y-58452857D01*
X31083857Y-58273252D01*
X31098000Y-58287395D01*
X31112142Y-58273252D01*
X31291747Y-58452857D01*
X31277605Y-58467000D01*
X31291747Y-58481142D01*
X31291747Y-58481142D01*
G37*
X31291747Y-58481142D02*
X31112142Y-58660747D01*
X31098000Y-58646605D01*
X31083857Y-58660747D01*
X30904252Y-58481142D01*
X30918395Y-58467000D01*
X30904252Y-58452857D01*
X31083857Y-58273252D01*
X31098000Y-58287395D01*
X31112142Y-58273252D01*
X31291747Y-58452857D01*
X31277605Y-58467000D01*
X31291747Y-58481142D01*
G36*
X35753500Y-58594000D02*
X35733500Y-58594000D01*
X35733500Y-58614000D01*
X35479500Y-58614000D01*
X35479500Y-58594000D01*
X34622250Y-58594000D01*
X34177750Y-58594000D01*
X33320500Y-58594000D01*
X33320500Y-58614000D01*
X33066500Y-58614000D01*
X33066500Y-58594000D01*
X33046500Y-58594000D01*
X33046500Y-58340000D01*
X33066500Y-58340000D01*
X33066500Y-58320000D01*
X33320500Y-58320000D01*
X33320500Y-58340000D01*
X34177750Y-58340000D01*
X34622250Y-58340000D01*
X35479500Y-58340000D01*
X35479500Y-58320000D01*
X35733500Y-58320000D01*
X35733500Y-58340000D01*
X35753500Y-58340000D01*
X35753500Y-58594000D01*
X35753500Y-58594000D01*
G37*
X35753500Y-58594000D02*
X35733500Y-58594000D01*
X35733500Y-58614000D01*
X35479500Y-58614000D01*
X35479500Y-58594000D01*
X34622250Y-58594000D01*
X34177750Y-58594000D01*
X33320500Y-58594000D01*
X33320500Y-58614000D01*
X33066500Y-58614000D01*
X33066500Y-58594000D01*
X33046500Y-58594000D01*
X33046500Y-58340000D01*
X33066500Y-58340000D01*
X33066500Y-58320000D01*
X33320500Y-58320000D01*
X33320500Y-58340000D01*
X34177750Y-58340000D01*
X34622250Y-58340000D01*
X35479500Y-58340000D01*
X35479500Y-58320000D01*
X35733500Y-58320000D01*
X35733500Y-58340000D01*
X35753500Y-58340000D01*
X35753500Y-58594000D01*
G36*
X37722000Y-56181000D02*
X37702000Y-56181000D01*
X37702000Y-56201000D01*
X37448000Y-56201000D01*
X37448000Y-56181000D01*
X37428000Y-56181000D01*
X37428000Y-55927000D01*
X37448000Y-55927000D01*
X37448000Y-55907000D01*
X37702000Y-55907000D01*
X37702000Y-55927000D01*
X37722000Y-55927000D01*
X37722000Y-56181000D01*
X37722000Y-56181000D01*
G37*
X37722000Y-56181000D02*
X37702000Y-56181000D01*
X37702000Y-56201000D01*
X37448000Y-56201000D01*
X37448000Y-56181000D01*
X37428000Y-56181000D01*
X37428000Y-55927000D01*
X37448000Y-55927000D01*
X37448000Y-55907000D01*
X37702000Y-55907000D01*
X37702000Y-55927000D01*
X37722000Y-55927000D01*
X37722000Y-56181000D01*
G36*
X51989667Y-32705530D02*
X51072599Y-33622599D01*
X50907852Y-33869161D01*
X50857822Y-34120673D01*
X50599100Y-34013243D01*
X50043339Y-34012758D01*
X49529697Y-34224990D01*
X49136371Y-34617630D01*
X49010000Y-34921965D01*
X49010000Y-34785750D01*
X49010000Y-34214250D01*
X49010000Y-33623691D01*
X48913327Y-33390302D01*
X48734699Y-33211673D01*
X48501310Y-33115000D01*
X48248691Y-33115000D01*
X48035750Y-33115000D01*
X47877000Y-33273750D01*
X47877000Y-34373000D01*
X48851250Y-34373000D01*
X49010000Y-34214250D01*
X49010000Y-34785750D01*
X48851250Y-34627000D01*
X47877000Y-34627000D01*
X47877000Y-34647000D01*
X47623000Y-34647000D01*
X47623000Y-34627000D01*
X47623000Y-34373000D01*
X47623000Y-33273750D01*
X47464250Y-33115000D01*
X47251309Y-33115000D01*
X46998690Y-33115000D01*
X46765301Y-33211673D01*
X46586673Y-33390302D01*
X46490000Y-33623691D01*
X46490000Y-34214250D01*
X46648750Y-34373000D01*
X47623000Y-34373000D01*
X47623000Y-34627000D01*
X46648750Y-34627000D01*
X46490000Y-34785750D01*
X46490000Y-34801187D01*
X46415010Y-34619697D01*
X46022370Y-34226371D01*
X45814487Y-34140050D01*
X46020303Y-34055010D01*
X46413629Y-33662370D01*
X46626757Y-33149100D01*
X46627242Y-32593339D01*
X46415010Y-32079697D01*
X46022370Y-31686371D01*
X45509100Y-31473243D01*
X44953339Y-31472758D01*
X44439697Y-31684990D01*
X44046371Y-32077630D01*
X43833243Y-32590900D01*
X43832758Y-33146661D01*
X44044990Y-33660303D01*
X44437630Y-34053629D01*
X44645512Y-34139949D01*
X44439697Y-34224990D01*
X44046371Y-34617630D01*
X43833243Y-35130900D01*
X43832758Y-35686661D01*
X44044990Y-36200303D01*
X44437630Y-36593629D01*
X44645512Y-36679949D01*
X44439697Y-36764990D01*
X44046371Y-37157630D01*
X43833243Y-37670900D01*
X43832758Y-38226661D01*
X44044990Y-38740303D01*
X44437630Y-39133629D01*
X44950900Y-39346757D01*
X45506661Y-39347242D01*
X46001287Y-39142867D01*
X46835000Y-39976579D01*
X46835000Y-42050000D01*
X46835000Y-50123420D01*
X44944210Y-52014210D01*
X44752367Y-52301325D01*
X44741189Y-52357515D01*
X44684999Y-52640000D01*
X44685000Y-52640005D01*
X44685000Y-54863420D01*
X44659097Y-54889323D01*
X44659374Y-54572433D01*
X44331378Y-53778623D01*
X44097000Y-53543835D01*
X44097000Y-45188310D01*
X44097000Y-44935691D01*
X44097000Y-44585750D01*
X44097000Y-44014250D01*
X44097000Y-43664309D01*
X44097000Y-43411690D01*
X44000327Y-43178301D01*
X43821698Y-42999673D01*
X43588309Y-42903000D01*
X43536440Y-42903000D01*
X43536440Y-37329000D01*
X43536440Y-35551000D01*
X43489463Y-35308877D01*
X43349673Y-35096073D01*
X43138640Y-34953623D01*
X42889000Y-34903560D01*
X42564264Y-34903560D01*
X42564264Y-32568188D01*
X42332738Y-32007851D01*
X41904404Y-31578769D01*
X41344472Y-31346265D01*
X40738188Y-31345736D01*
X40177851Y-31577262D01*
X39987707Y-31767073D01*
X39927327Y-31621302D01*
X39748699Y-31442673D01*
X39515310Y-31346000D01*
X39262691Y-31346000D01*
X38785750Y-31346000D01*
X38627000Y-31504750D01*
X38627000Y-32743000D01*
X38647000Y-32743000D01*
X38647000Y-32997000D01*
X38627000Y-32997000D01*
X38627000Y-34235250D01*
X38785750Y-34394000D01*
X39262691Y-34394000D01*
X39515310Y-34394000D01*
X39748699Y-34297327D01*
X39927327Y-34118698D01*
X39987681Y-33972988D01*
X40175596Y-34161231D01*
X40735528Y-34393735D01*
X41341812Y-34394264D01*
X41902149Y-34162738D01*
X42331231Y-33734404D01*
X42563735Y-33174472D01*
X42564264Y-32568188D01*
X42564264Y-34903560D01*
X41111000Y-34903560D01*
X40868877Y-34950537D01*
X40656073Y-35090327D01*
X40513623Y-35301360D01*
X40463560Y-35551000D01*
X40463560Y-37329000D01*
X40510537Y-37571123D01*
X40650327Y-37783927D01*
X40861360Y-37926377D01*
X41111000Y-37976440D01*
X42889000Y-37976440D01*
X43131123Y-37929463D01*
X43343927Y-37789673D01*
X43486377Y-37578640D01*
X43536440Y-37329000D01*
X43536440Y-42903000D01*
X43524264Y-42903000D01*
X43524264Y-39948188D01*
X43292738Y-39387851D01*
X42864404Y-38958769D01*
X42304472Y-38726265D01*
X41698188Y-38725736D01*
X41137851Y-38957262D01*
X40708769Y-39385596D01*
X40476265Y-39945528D01*
X40475736Y-40551812D01*
X40707262Y-41112149D01*
X41135596Y-41541231D01*
X41695528Y-41773735D01*
X42301812Y-41774264D01*
X42862149Y-41542738D01*
X43291231Y-41114404D01*
X43523735Y-40554472D01*
X43524264Y-39948188D01*
X43524264Y-42903000D01*
X42985750Y-42903000D01*
X42827000Y-43061750D01*
X42827000Y-44173000D01*
X43938250Y-44173000D01*
X44097000Y-44014250D01*
X44097000Y-44585750D01*
X43938250Y-44427000D01*
X42827000Y-44427000D01*
X42827000Y-45538250D01*
X42985750Y-45697000D01*
X43588309Y-45697000D01*
X43821698Y-45600327D01*
X44000327Y-45421699D01*
X44097000Y-45188310D01*
X44097000Y-53543835D01*
X43724572Y-53170756D01*
X42931336Y-52841376D01*
X42573000Y-52841063D01*
X42573000Y-45538250D01*
X42573000Y-44427000D01*
X42553000Y-44427000D01*
X42553000Y-44173000D01*
X42573000Y-44173000D01*
X42573000Y-43061750D01*
X42414250Y-42903000D01*
X41811691Y-42903000D01*
X41578302Y-42999673D01*
X41399673Y-43178301D01*
X41303000Y-43411690D01*
X41303000Y-43467613D01*
X40952370Y-43116371D01*
X40439100Y-42903243D01*
X39883339Y-42902758D01*
X39369697Y-43114990D01*
X38976371Y-43507630D01*
X38835810Y-43846138D01*
X38835810Y-39695602D01*
X38625314Y-39186163D01*
X38373000Y-38933408D01*
X38373000Y-34235250D01*
X38373000Y-32997000D01*
X38353000Y-32997000D01*
X38353000Y-32743000D01*
X38373000Y-32743000D01*
X38373000Y-31504750D01*
X38214250Y-31346000D01*
X37737309Y-31346000D01*
X37484690Y-31346000D01*
X37251301Y-31442673D01*
X37072673Y-31621302D01*
X37012318Y-31767011D01*
X36824404Y-31578769D01*
X36264472Y-31346265D01*
X35658188Y-31345736D01*
X35097851Y-31577262D01*
X34668769Y-32005596D01*
X34436265Y-32565528D01*
X34435736Y-33171812D01*
X34667262Y-33732149D01*
X35075000Y-34140599D01*
X35075000Y-34173752D01*
X34967877Y-34194537D01*
X34755073Y-34334327D01*
X34711662Y-34398637D01*
X34569698Y-34256673D01*
X34336309Y-34160000D01*
X33745750Y-34160000D01*
X33587000Y-34318750D01*
X33587000Y-35293000D01*
X33607000Y-35293000D01*
X33607000Y-35547000D01*
X33587000Y-35547000D01*
X33587000Y-36521250D01*
X33745750Y-36680000D01*
X34336309Y-36680000D01*
X34569698Y-36583327D01*
X34711176Y-36441849D01*
X34749327Y-36499927D01*
X34960360Y-36642377D01*
X35210000Y-36692440D01*
X36710000Y-36692440D01*
X36952123Y-36645463D01*
X37164927Y-36505673D01*
X37307377Y-36294640D01*
X37357440Y-36045000D01*
X37357440Y-34795000D01*
X37310463Y-34552877D01*
X37170673Y-34340073D01*
X36959640Y-34197623D01*
X36845000Y-34174633D01*
X36845000Y-34139926D01*
X37012292Y-33972926D01*
X37072673Y-34118698D01*
X37251301Y-34297327D01*
X37484690Y-34394000D01*
X37737309Y-34394000D01*
X38214250Y-34394000D01*
X38373000Y-34235250D01*
X38373000Y-38933408D01*
X38235887Y-38796056D01*
X37726816Y-38584671D01*
X37175602Y-38584190D01*
X36666163Y-38794686D01*
X36295570Y-39164633D01*
X36295570Y-39093120D01*
X36198897Y-38859731D01*
X36020268Y-38681103D01*
X35786879Y-38584430D01*
X35195750Y-38584430D01*
X35037000Y-38743180D01*
X35037000Y-39843000D01*
X35057000Y-39843000D01*
X35057000Y-40097000D01*
X35037000Y-40097000D01*
X35037000Y-41196820D01*
X35195750Y-41355570D01*
X35786879Y-41355570D01*
X36020268Y-41258897D01*
X36198897Y-41080269D01*
X36295570Y-40846880D01*
X36295570Y-40774757D01*
X36664113Y-41143944D01*
X37173184Y-41355329D01*
X37724398Y-41355810D01*
X38233837Y-41145314D01*
X38623944Y-40755887D01*
X38835329Y-40246816D01*
X38835810Y-39695602D01*
X38835810Y-43846138D01*
X38763243Y-44020900D01*
X38762758Y-44576661D01*
X38974990Y-45090303D01*
X39367630Y-45483629D01*
X39880900Y-45696757D01*
X40436661Y-45697242D01*
X40950303Y-45485010D01*
X41303000Y-45132928D01*
X41303000Y-45188310D01*
X41399673Y-45421699D01*
X41578302Y-45600327D01*
X41811691Y-45697000D01*
X42414250Y-45697000D01*
X42573000Y-45538250D01*
X42573000Y-52841063D01*
X42072433Y-52840626D01*
X41639000Y-53019717D01*
X41639000Y-49644226D01*
X41639000Y-48005774D01*
X41474656Y-47179560D01*
X41006644Y-46479130D01*
X40306214Y-46011118D01*
X39480000Y-45846774D01*
X38653786Y-46011118D01*
X37953356Y-46479130D01*
X37485344Y-47179560D01*
X37378226Y-47718079D01*
X37378226Y-45904000D01*
X37213882Y-45077786D01*
X36745870Y-44377356D01*
X36045440Y-43909344D01*
X35219226Y-43745000D01*
X34783000Y-43745000D01*
X34783000Y-41196820D01*
X34783000Y-40097000D01*
X34783000Y-39843000D01*
X34783000Y-38743180D01*
X34624250Y-38584430D01*
X34033121Y-38584430D01*
X33799732Y-38681103D01*
X33621103Y-38859731D01*
X33524430Y-39093120D01*
X33524430Y-39345739D01*
X33524430Y-39684250D01*
X33683180Y-39843000D01*
X34783000Y-39843000D01*
X34783000Y-40097000D01*
X33683180Y-40097000D01*
X33524430Y-40255750D01*
X33524430Y-40594261D01*
X33524430Y-40846880D01*
X33621103Y-41080269D01*
X33799732Y-41258897D01*
X34033121Y-41355570D01*
X34624250Y-41355570D01*
X34783000Y-41196820D01*
X34783000Y-43745000D01*
X33580774Y-43745000D01*
X33333000Y-43794285D01*
X33333000Y-36521250D01*
X33333000Y-35547000D01*
X33333000Y-35293000D01*
X33333000Y-34318750D01*
X33174250Y-34160000D01*
X32583691Y-34160000D01*
X32350302Y-34256673D01*
X32171673Y-34435301D01*
X32075000Y-34668690D01*
X32075000Y-34921309D01*
X32075000Y-35134250D01*
X32233750Y-35293000D01*
X33333000Y-35293000D01*
X33333000Y-35547000D01*
X32233750Y-35547000D01*
X32075000Y-35705750D01*
X32075000Y-35918691D01*
X32075000Y-36171310D01*
X32171673Y-36404699D01*
X32350302Y-36583327D01*
X32583691Y-36680000D01*
X33174250Y-36680000D01*
X33333000Y-36521250D01*
X33333000Y-43794285D01*
X32754560Y-43909344D01*
X32054130Y-44377356D01*
X31586118Y-45077786D01*
X31421774Y-45904000D01*
X31586118Y-46730214D01*
X32054130Y-47430644D01*
X32754560Y-47898656D01*
X33580774Y-48063000D01*
X35219226Y-48063000D01*
X36045440Y-47898656D01*
X36745870Y-47430644D01*
X37213882Y-46730214D01*
X37378226Y-45904000D01*
X37378226Y-47718079D01*
X37321000Y-48005774D01*
X37321000Y-49644226D01*
X37485344Y-50470440D01*
X37953356Y-51170870D01*
X38653786Y-51638882D01*
X39480000Y-51803226D01*
X40306214Y-51638882D01*
X41006644Y-51170870D01*
X41474656Y-50470440D01*
X41639000Y-49644226D01*
X41639000Y-53019717D01*
X41278623Y-53168622D01*
X40670756Y-53775428D01*
X40341376Y-54568664D01*
X40341272Y-54687042D01*
X40225790Y-54514211D01*
X40225790Y-54514210D01*
X40225786Y-54514207D01*
X39445790Y-53734210D01*
X39158675Y-53542367D01*
X39102484Y-53531189D01*
X38820000Y-53474999D01*
X38819994Y-53475000D01*
X37321000Y-53475000D01*
X37321000Y-52285750D01*
X37321000Y-51714250D01*
X37321000Y-50349691D01*
X37224327Y-50116302D01*
X37045699Y-49937673D01*
X36812310Y-49841000D01*
X36559691Y-49841000D01*
X34685750Y-49841000D01*
X34527000Y-49999750D01*
X34527000Y-51873000D01*
X37162250Y-51873000D01*
X37321000Y-51714250D01*
X37321000Y-52285750D01*
X37162250Y-52127000D01*
X34527000Y-52127000D01*
X34527000Y-54000250D01*
X34685750Y-54159000D01*
X35017714Y-54159000D01*
X34882847Y-54360846D01*
X34861778Y-54466760D01*
X34847040Y-54466760D01*
X34723105Y-54490805D01*
X34603200Y-54466760D01*
X34273000Y-54466760D01*
X34273000Y-54000250D01*
X34273000Y-52127000D01*
X34273000Y-51873000D01*
X34273000Y-49999750D01*
X34114250Y-49841000D01*
X32240309Y-49841000D01*
X31987690Y-49841000D01*
X31754301Y-49937673D01*
X31575673Y-50116302D01*
X31479000Y-50349691D01*
X31479000Y-51714250D01*
X31637750Y-51873000D01*
X34273000Y-51873000D01*
X34273000Y-52127000D01*
X31637750Y-52127000D01*
X31479000Y-52285750D01*
X31479000Y-53650309D01*
X31575673Y-53883698D01*
X31754301Y-54062327D01*
X31987690Y-54159000D01*
X32240309Y-54159000D01*
X34114250Y-54159000D01*
X34273000Y-54000250D01*
X34273000Y-54466760D01*
X34196800Y-54466760D01*
X34072865Y-54490805D01*
X33952960Y-54466760D01*
X33546560Y-54466760D01*
X33446068Y-54486257D01*
X33429030Y-54479200D01*
X33359870Y-54479200D01*
X33330363Y-54508706D01*
X33304437Y-54513737D01*
X33091633Y-54653527D01*
X32997920Y-54792358D01*
X32997920Y-54637950D01*
X32839170Y-54479200D01*
X32770010Y-54479200D01*
X32536621Y-54575873D01*
X32357993Y-54754502D01*
X32344251Y-54787677D01*
X32151410Y-54707800D01*
X31898791Y-54707800D01*
X31510750Y-54707800D01*
X31352000Y-54866550D01*
X31352000Y-55927000D01*
X31372000Y-55927000D01*
X31372000Y-56181000D01*
X31352000Y-56181000D01*
X31352000Y-56201000D01*
X31098000Y-56201000D01*
X31098000Y-56181000D01*
X31078000Y-56181000D01*
X31078000Y-55927000D01*
X31098000Y-55927000D01*
X31098000Y-54866550D01*
X30939250Y-54707800D01*
X30685000Y-54707800D01*
X30685000Y-33738657D01*
X30775428Y-33829244D01*
X31568664Y-34158624D01*
X32427567Y-34159374D01*
X33221377Y-33831378D01*
X33829244Y-33224572D01*
X34158624Y-32431336D01*
X34159374Y-31572433D01*
X33831378Y-30778623D01*
X33737918Y-30685000D01*
X46719215Y-30685000D01*
X46596371Y-30807630D01*
X46383243Y-31320900D01*
X46382758Y-31876661D01*
X46594990Y-32390303D01*
X46987630Y-32783629D01*
X47500900Y-32996757D01*
X48056661Y-32997242D01*
X48570303Y-32785010D01*
X48923000Y-32432928D01*
X48923000Y-32488310D01*
X49019673Y-32721699D01*
X49198302Y-32900327D01*
X49431691Y-32997000D01*
X50034250Y-32997000D01*
X50193000Y-32838250D01*
X50193000Y-31727000D01*
X50173000Y-31727000D01*
X50173000Y-31473000D01*
X50193000Y-31473000D01*
X50193000Y-31453000D01*
X50447000Y-31453000D01*
X50447000Y-31473000D01*
X50467000Y-31473000D01*
X50467000Y-31727000D01*
X50447000Y-31727000D01*
X50447000Y-32838250D01*
X50605750Y-32997000D01*
X51208309Y-32997000D01*
X51441698Y-32900327D01*
X51620327Y-32721699D01*
X51717000Y-32488310D01*
X51717000Y-32432386D01*
X51989667Y-32705530D01*
X51989667Y-32705530D01*
G37*
X51989667Y-32705530D02*
X51072599Y-33622599D01*
X50907852Y-33869161D01*
X50857822Y-34120673D01*
X50599100Y-34013243D01*
X50043339Y-34012758D01*
X49529697Y-34224990D01*
X49136371Y-34617630D01*
X49010000Y-34921965D01*
X49010000Y-34785750D01*
X49010000Y-34214250D01*
X49010000Y-33623691D01*
X48913327Y-33390302D01*
X48734699Y-33211673D01*
X48501310Y-33115000D01*
X48248691Y-33115000D01*
X48035750Y-33115000D01*
X47877000Y-33273750D01*
X47877000Y-34373000D01*
X48851250Y-34373000D01*
X49010000Y-34214250D01*
X49010000Y-34785750D01*
X48851250Y-34627000D01*
X47877000Y-34627000D01*
X47877000Y-34647000D01*
X47623000Y-34647000D01*
X47623000Y-34627000D01*
X47623000Y-34373000D01*
X47623000Y-33273750D01*
X47464250Y-33115000D01*
X47251309Y-33115000D01*
X46998690Y-33115000D01*
X46765301Y-33211673D01*
X46586673Y-33390302D01*
X46490000Y-33623691D01*
X46490000Y-34214250D01*
X46648750Y-34373000D01*
X47623000Y-34373000D01*
X47623000Y-34627000D01*
X46648750Y-34627000D01*
X46490000Y-34785750D01*
X46490000Y-34801187D01*
X46415010Y-34619697D01*
X46022370Y-34226371D01*
X45814487Y-34140050D01*
X46020303Y-34055010D01*
X46413629Y-33662370D01*
X46626757Y-33149100D01*
X46627242Y-32593339D01*
X46415010Y-32079697D01*
X46022370Y-31686371D01*
X45509100Y-31473243D01*
X44953339Y-31472758D01*
X44439697Y-31684990D01*
X44046371Y-32077630D01*
X43833243Y-32590900D01*
X43832758Y-33146661D01*
X44044990Y-33660303D01*
X44437630Y-34053629D01*
X44645512Y-34139949D01*
X44439697Y-34224990D01*
X44046371Y-34617630D01*
X43833243Y-35130900D01*
X43832758Y-35686661D01*
X44044990Y-36200303D01*
X44437630Y-36593629D01*
X44645512Y-36679949D01*
X44439697Y-36764990D01*
X44046371Y-37157630D01*
X43833243Y-37670900D01*
X43832758Y-38226661D01*
X44044990Y-38740303D01*
X44437630Y-39133629D01*
X44950900Y-39346757D01*
X45506661Y-39347242D01*
X46001287Y-39142867D01*
X46835000Y-39976579D01*
X46835000Y-42050000D01*
X46835000Y-50123420D01*
X44944210Y-52014210D01*
X44752367Y-52301325D01*
X44741189Y-52357515D01*
X44684999Y-52640000D01*
X44685000Y-52640005D01*
X44685000Y-54863420D01*
X44659097Y-54889323D01*
X44659374Y-54572433D01*
X44331378Y-53778623D01*
X44097000Y-53543835D01*
X44097000Y-45188310D01*
X44097000Y-44935691D01*
X44097000Y-44585750D01*
X44097000Y-44014250D01*
X44097000Y-43664309D01*
X44097000Y-43411690D01*
X44000327Y-43178301D01*
X43821698Y-42999673D01*
X43588309Y-42903000D01*
X43536440Y-42903000D01*
X43536440Y-37329000D01*
X43536440Y-35551000D01*
X43489463Y-35308877D01*
X43349673Y-35096073D01*
X43138640Y-34953623D01*
X42889000Y-34903560D01*
X42564264Y-34903560D01*
X42564264Y-32568188D01*
X42332738Y-32007851D01*
X41904404Y-31578769D01*
X41344472Y-31346265D01*
X40738188Y-31345736D01*
X40177851Y-31577262D01*
X39987707Y-31767073D01*
X39927327Y-31621302D01*
X39748699Y-31442673D01*
X39515310Y-31346000D01*
X39262691Y-31346000D01*
X38785750Y-31346000D01*
X38627000Y-31504750D01*
X38627000Y-32743000D01*
X38647000Y-32743000D01*
X38647000Y-32997000D01*
X38627000Y-32997000D01*
X38627000Y-34235250D01*
X38785750Y-34394000D01*
X39262691Y-34394000D01*
X39515310Y-34394000D01*
X39748699Y-34297327D01*
X39927327Y-34118698D01*
X39987681Y-33972988D01*
X40175596Y-34161231D01*
X40735528Y-34393735D01*
X41341812Y-34394264D01*
X41902149Y-34162738D01*
X42331231Y-33734404D01*
X42563735Y-33174472D01*
X42564264Y-32568188D01*
X42564264Y-34903560D01*
X41111000Y-34903560D01*
X40868877Y-34950537D01*
X40656073Y-35090327D01*
X40513623Y-35301360D01*
X40463560Y-35551000D01*
X40463560Y-37329000D01*
X40510537Y-37571123D01*
X40650327Y-37783927D01*
X40861360Y-37926377D01*
X41111000Y-37976440D01*
X42889000Y-37976440D01*
X43131123Y-37929463D01*
X43343927Y-37789673D01*
X43486377Y-37578640D01*
X43536440Y-37329000D01*
X43536440Y-42903000D01*
X43524264Y-42903000D01*
X43524264Y-39948188D01*
X43292738Y-39387851D01*
X42864404Y-38958769D01*
X42304472Y-38726265D01*
X41698188Y-38725736D01*
X41137851Y-38957262D01*
X40708769Y-39385596D01*
X40476265Y-39945528D01*
X40475736Y-40551812D01*
X40707262Y-41112149D01*
X41135596Y-41541231D01*
X41695528Y-41773735D01*
X42301812Y-41774264D01*
X42862149Y-41542738D01*
X43291231Y-41114404D01*
X43523735Y-40554472D01*
X43524264Y-39948188D01*
X43524264Y-42903000D01*
X42985750Y-42903000D01*
X42827000Y-43061750D01*
X42827000Y-44173000D01*
X43938250Y-44173000D01*
X44097000Y-44014250D01*
X44097000Y-44585750D01*
X43938250Y-44427000D01*
X42827000Y-44427000D01*
X42827000Y-45538250D01*
X42985750Y-45697000D01*
X43588309Y-45697000D01*
X43821698Y-45600327D01*
X44000327Y-45421699D01*
X44097000Y-45188310D01*
X44097000Y-53543835D01*
X43724572Y-53170756D01*
X42931336Y-52841376D01*
X42573000Y-52841063D01*
X42573000Y-45538250D01*
X42573000Y-44427000D01*
X42553000Y-44427000D01*
X42553000Y-44173000D01*
X42573000Y-44173000D01*
X42573000Y-43061750D01*
X42414250Y-42903000D01*
X41811691Y-42903000D01*
X41578302Y-42999673D01*
X41399673Y-43178301D01*
X41303000Y-43411690D01*
X41303000Y-43467613D01*
X40952370Y-43116371D01*
X40439100Y-42903243D01*
X39883339Y-42902758D01*
X39369697Y-43114990D01*
X38976371Y-43507630D01*
X38835810Y-43846138D01*
X38835810Y-39695602D01*
X38625314Y-39186163D01*
X38373000Y-38933408D01*
X38373000Y-34235250D01*
X38373000Y-32997000D01*
X38353000Y-32997000D01*
X38353000Y-32743000D01*
X38373000Y-32743000D01*
X38373000Y-31504750D01*
X38214250Y-31346000D01*
X37737309Y-31346000D01*
X37484690Y-31346000D01*
X37251301Y-31442673D01*
X37072673Y-31621302D01*
X37012318Y-31767011D01*
X36824404Y-31578769D01*
X36264472Y-31346265D01*
X35658188Y-31345736D01*
X35097851Y-31577262D01*
X34668769Y-32005596D01*
X34436265Y-32565528D01*
X34435736Y-33171812D01*
X34667262Y-33732149D01*
X35075000Y-34140599D01*
X35075000Y-34173752D01*
X34967877Y-34194537D01*
X34755073Y-34334327D01*
X34711662Y-34398637D01*
X34569698Y-34256673D01*
X34336309Y-34160000D01*
X33745750Y-34160000D01*
X33587000Y-34318750D01*
X33587000Y-35293000D01*
X33607000Y-35293000D01*
X33607000Y-35547000D01*
X33587000Y-35547000D01*
X33587000Y-36521250D01*
X33745750Y-36680000D01*
X34336309Y-36680000D01*
X34569698Y-36583327D01*
X34711176Y-36441849D01*
X34749327Y-36499927D01*
X34960360Y-36642377D01*
X35210000Y-36692440D01*
X36710000Y-36692440D01*
X36952123Y-36645463D01*
X37164927Y-36505673D01*
X37307377Y-36294640D01*
X37357440Y-36045000D01*
X37357440Y-34795000D01*
X37310463Y-34552877D01*
X37170673Y-34340073D01*
X36959640Y-34197623D01*
X36845000Y-34174633D01*
X36845000Y-34139926D01*
X37012292Y-33972926D01*
X37072673Y-34118698D01*
X37251301Y-34297327D01*
X37484690Y-34394000D01*
X37737309Y-34394000D01*
X38214250Y-34394000D01*
X38373000Y-34235250D01*
X38373000Y-38933408D01*
X38235887Y-38796056D01*
X37726816Y-38584671D01*
X37175602Y-38584190D01*
X36666163Y-38794686D01*
X36295570Y-39164633D01*
X36295570Y-39093120D01*
X36198897Y-38859731D01*
X36020268Y-38681103D01*
X35786879Y-38584430D01*
X35195750Y-38584430D01*
X35037000Y-38743180D01*
X35037000Y-39843000D01*
X35057000Y-39843000D01*
X35057000Y-40097000D01*
X35037000Y-40097000D01*
X35037000Y-41196820D01*
X35195750Y-41355570D01*
X35786879Y-41355570D01*
X36020268Y-41258897D01*
X36198897Y-41080269D01*
X36295570Y-40846880D01*
X36295570Y-40774757D01*
X36664113Y-41143944D01*
X37173184Y-41355329D01*
X37724398Y-41355810D01*
X38233837Y-41145314D01*
X38623944Y-40755887D01*
X38835329Y-40246816D01*
X38835810Y-39695602D01*
X38835810Y-43846138D01*
X38763243Y-44020900D01*
X38762758Y-44576661D01*
X38974990Y-45090303D01*
X39367630Y-45483629D01*
X39880900Y-45696757D01*
X40436661Y-45697242D01*
X40950303Y-45485010D01*
X41303000Y-45132928D01*
X41303000Y-45188310D01*
X41399673Y-45421699D01*
X41578302Y-45600327D01*
X41811691Y-45697000D01*
X42414250Y-45697000D01*
X42573000Y-45538250D01*
X42573000Y-52841063D01*
X42072433Y-52840626D01*
X41639000Y-53019717D01*
X41639000Y-49644226D01*
X41639000Y-48005774D01*
X41474656Y-47179560D01*
X41006644Y-46479130D01*
X40306214Y-46011118D01*
X39480000Y-45846774D01*
X38653786Y-46011118D01*
X37953356Y-46479130D01*
X37485344Y-47179560D01*
X37378226Y-47718079D01*
X37378226Y-45904000D01*
X37213882Y-45077786D01*
X36745870Y-44377356D01*
X36045440Y-43909344D01*
X35219226Y-43745000D01*
X34783000Y-43745000D01*
X34783000Y-41196820D01*
X34783000Y-40097000D01*
X34783000Y-39843000D01*
X34783000Y-38743180D01*
X34624250Y-38584430D01*
X34033121Y-38584430D01*
X33799732Y-38681103D01*
X33621103Y-38859731D01*
X33524430Y-39093120D01*
X33524430Y-39345739D01*
X33524430Y-39684250D01*
X33683180Y-39843000D01*
X34783000Y-39843000D01*
X34783000Y-40097000D01*
X33683180Y-40097000D01*
X33524430Y-40255750D01*
X33524430Y-40594261D01*
X33524430Y-40846880D01*
X33621103Y-41080269D01*
X33799732Y-41258897D01*
X34033121Y-41355570D01*
X34624250Y-41355570D01*
X34783000Y-41196820D01*
X34783000Y-43745000D01*
X33580774Y-43745000D01*
X33333000Y-43794285D01*
X33333000Y-36521250D01*
X33333000Y-35547000D01*
X33333000Y-35293000D01*
X33333000Y-34318750D01*
X33174250Y-34160000D01*
X32583691Y-34160000D01*
X32350302Y-34256673D01*
X32171673Y-34435301D01*
X32075000Y-34668690D01*
X32075000Y-34921309D01*
X32075000Y-35134250D01*
X32233750Y-35293000D01*
X33333000Y-35293000D01*
X33333000Y-35547000D01*
X32233750Y-35547000D01*
X32075000Y-35705750D01*
X32075000Y-35918691D01*
X32075000Y-36171310D01*
X32171673Y-36404699D01*
X32350302Y-36583327D01*
X32583691Y-36680000D01*
X33174250Y-36680000D01*
X33333000Y-36521250D01*
X33333000Y-43794285D01*
X32754560Y-43909344D01*
X32054130Y-44377356D01*
X31586118Y-45077786D01*
X31421774Y-45904000D01*
X31586118Y-46730214D01*
X32054130Y-47430644D01*
X32754560Y-47898656D01*
X33580774Y-48063000D01*
X35219226Y-48063000D01*
X36045440Y-47898656D01*
X36745870Y-47430644D01*
X37213882Y-46730214D01*
X37378226Y-45904000D01*
X37378226Y-47718079D01*
X37321000Y-48005774D01*
X37321000Y-49644226D01*
X37485344Y-50470440D01*
X37953356Y-51170870D01*
X38653786Y-51638882D01*
X39480000Y-51803226D01*
X40306214Y-51638882D01*
X41006644Y-51170870D01*
X41474656Y-50470440D01*
X41639000Y-49644226D01*
X41639000Y-53019717D01*
X41278623Y-53168622D01*
X40670756Y-53775428D01*
X40341376Y-54568664D01*
X40341272Y-54687042D01*
X40225790Y-54514211D01*
X40225790Y-54514210D01*
X40225786Y-54514207D01*
X39445790Y-53734210D01*
X39158675Y-53542367D01*
X39102484Y-53531189D01*
X38820000Y-53474999D01*
X38819994Y-53475000D01*
X37321000Y-53475000D01*
X37321000Y-52285750D01*
X37321000Y-51714250D01*
X37321000Y-50349691D01*
X37224327Y-50116302D01*
X37045699Y-49937673D01*
X36812310Y-49841000D01*
X36559691Y-49841000D01*
X34685750Y-49841000D01*
X34527000Y-49999750D01*
X34527000Y-51873000D01*
X37162250Y-51873000D01*
X37321000Y-51714250D01*
X37321000Y-52285750D01*
X37162250Y-52127000D01*
X34527000Y-52127000D01*
X34527000Y-54000250D01*
X34685750Y-54159000D01*
X35017714Y-54159000D01*
X34882847Y-54360846D01*
X34861778Y-54466760D01*
X34847040Y-54466760D01*
X34723105Y-54490805D01*
X34603200Y-54466760D01*
X34273000Y-54466760D01*
X34273000Y-54000250D01*
X34273000Y-52127000D01*
X34273000Y-51873000D01*
X34273000Y-49999750D01*
X34114250Y-49841000D01*
X32240309Y-49841000D01*
X31987690Y-49841000D01*
X31754301Y-49937673D01*
X31575673Y-50116302D01*
X31479000Y-50349691D01*
X31479000Y-51714250D01*
X31637750Y-51873000D01*
X34273000Y-51873000D01*
X34273000Y-52127000D01*
X31637750Y-52127000D01*
X31479000Y-52285750D01*
X31479000Y-53650309D01*
X31575673Y-53883698D01*
X31754301Y-54062327D01*
X31987690Y-54159000D01*
X32240309Y-54159000D01*
X34114250Y-54159000D01*
X34273000Y-54000250D01*
X34273000Y-54466760D01*
X34196800Y-54466760D01*
X34072865Y-54490805D01*
X33952960Y-54466760D01*
X33546560Y-54466760D01*
X33446068Y-54486257D01*
X33429030Y-54479200D01*
X33359870Y-54479200D01*
X33330363Y-54508706D01*
X33304437Y-54513737D01*
X33091633Y-54653527D01*
X32997920Y-54792358D01*
X32997920Y-54637950D01*
X32839170Y-54479200D01*
X32770010Y-54479200D01*
X32536621Y-54575873D01*
X32357993Y-54754502D01*
X32344251Y-54787677D01*
X32151410Y-54707800D01*
X31898791Y-54707800D01*
X31510750Y-54707800D01*
X31352000Y-54866550D01*
X31352000Y-55927000D01*
X31372000Y-55927000D01*
X31372000Y-56181000D01*
X31352000Y-56181000D01*
X31352000Y-56201000D01*
X31098000Y-56201000D01*
X31098000Y-56181000D01*
X31078000Y-56181000D01*
X31078000Y-55927000D01*
X31098000Y-55927000D01*
X31098000Y-54866550D01*
X30939250Y-54707800D01*
X30685000Y-54707800D01*
X30685000Y-33738657D01*
X30775428Y-33829244D01*
X31568664Y-34158624D01*
X32427567Y-34159374D01*
X33221377Y-33831378D01*
X33829244Y-33224572D01*
X34158624Y-32431336D01*
X34159374Y-31572433D01*
X33831378Y-30778623D01*
X33737918Y-30685000D01*
X46719215Y-30685000D01*
X46596371Y-30807630D01*
X46383243Y-31320900D01*
X46382758Y-31876661D01*
X46594990Y-32390303D01*
X46987630Y-32783629D01*
X47500900Y-32996757D01*
X48056661Y-32997242D01*
X48570303Y-32785010D01*
X48923000Y-32432928D01*
X48923000Y-32488310D01*
X49019673Y-32721699D01*
X49198302Y-32900327D01*
X49431691Y-32997000D01*
X50034250Y-32997000D01*
X50193000Y-32838250D01*
X50193000Y-31727000D01*
X50173000Y-31727000D01*
X50173000Y-31473000D01*
X50193000Y-31473000D01*
X50193000Y-31453000D01*
X50447000Y-31453000D01*
X50447000Y-31473000D01*
X50467000Y-31473000D01*
X50467000Y-31727000D01*
X50447000Y-31727000D01*
X50447000Y-32838250D01*
X50605750Y-32997000D01*
X51208309Y-32997000D01*
X51441698Y-32900327D01*
X51620327Y-32721699D01*
X51717000Y-32488310D01*
X51717000Y-32432386D01*
X51989667Y-32705530D01*
G36*
X58441800Y-49018798D02*
X58378586Y-49082011D01*
X58114329Y-48905441D01*
X57923000Y-48867383D01*
X57923000Y-47901250D01*
X57923000Y-46927000D01*
X57923000Y-46673000D01*
X57923000Y-45698750D01*
X57764250Y-45540000D01*
X57173691Y-45540000D01*
X56940302Y-45636673D01*
X56761673Y-45815301D01*
X56665000Y-46048690D01*
X56665000Y-46301309D01*
X56665000Y-46514250D01*
X56823750Y-46673000D01*
X57923000Y-46673000D01*
X57923000Y-46927000D01*
X56823750Y-46927000D01*
X56665000Y-47085750D01*
X56665000Y-47298691D01*
X56665000Y-47551310D01*
X56761673Y-47784699D01*
X56940302Y-47963327D01*
X57173691Y-48060000D01*
X57764250Y-48060000D01*
X57923000Y-47901250D01*
X57923000Y-48867383D01*
X57570000Y-48797167D01*
X57025671Y-48905441D01*
X56974460Y-48939658D01*
X55807401Y-47772599D01*
X55560839Y-47607852D01*
X55270000Y-47550000D01*
X50784802Y-47550000D01*
X50550000Y-47315198D01*
X50550000Y-41124802D01*
X50634802Y-41040000D01*
X52570000Y-41040000D01*
X52860839Y-40982148D01*
X53107401Y-40817401D01*
X54697401Y-39227401D01*
X54726951Y-39183175D01*
X55120900Y-39346757D01*
X55676661Y-39347242D01*
X56190303Y-39135010D01*
X56583629Y-38742370D01*
X56796757Y-38229100D01*
X56797242Y-37673339D01*
X56585010Y-37159697D01*
X56232928Y-36807000D01*
X56288309Y-36807000D01*
X56521698Y-36710327D01*
X56700327Y-36531699D01*
X56797000Y-36298310D01*
X56797000Y-36045691D01*
X56797000Y-35695750D01*
X56797000Y-35124250D01*
X56797000Y-34774309D01*
X56797000Y-34521690D01*
X56700327Y-34288301D01*
X56521698Y-34109673D01*
X56288309Y-34013000D01*
X55685750Y-34013000D01*
X55527000Y-34171750D01*
X55527000Y-35283000D01*
X56638250Y-35283000D01*
X56797000Y-35124250D01*
X56797000Y-35695750D01*
X56638250Y-35537000D01*
X55527000Y-35537000D01*
X55527000Y-35557000D01*
X55273000Y-35557000D01*
X55273000Y-35537000D01*
X55253000Y-35537000D01*
X55253000Y-35283000D01*
X55273000Y-35283000D01*
X55273000Y-34171750D01*
X55114250Y-34013000D01*
X54511691Y-34013000D01*
X54278302Y-34109673D01*
X54099673Y-34288301D01*
X54003000Y-34521690D01*
X54003000Y-34577613D01*
X53652370Y-34226371D01*
X53139100Y-34013243D01*
X52831827Y-34012974D01*
X53397401Y-33447401D01*
X53562148Y-33200839D01*
X53620000Y-32910000D01*
X53620000Y-32797530D01*
X53650303Y-32785010D01*
X54043629Y-32392370D01*
X54129949Y-32184487D01*
X54214990Y-32390303D01*
X54607630Y-32783629D01*
X55120900Y-32996757D01*
X55676661Y-32997242D01*
X56190303Y-32785010D01*
X56583629Y-32392370D01*
X56669949Y-32184487D01*
X56754990Y-32390303D01*
X57147630Y-32783629D01*
X57660900Y-32996757D01*
X58128303Y-32997164D01*
X58080000Y-33240000D01*
X58080000Y-41278612D01*
X57570000Y-41177167D01*
X57025671Y-41285441D01*
X56564211Y-41593778D01*
X56300000Y-41989198D01*
X56035789Y-41593778D01*
X55574329Y-41285441D01*
X55030000Y-41177167D01*
X54485671Y-41285441D01*
X54024211Y-41593778D01*
X53760000Y-41989198D01*
X53495789Y-41593778D01*
X53034329Y-41285441D01*
X52490000Y-41177167D01*
X51945671Y-41285441D01*
X51484211Y-41593778D01*
X51175874Y-42055238D01*
X51067600Y-42599567D01*
X51067600Y-43380433D01*
X51175874Y-43924762D01*
X51484211Y-44386222D01*
X51945671Y-44694559D01*
X52490000Y-44802833D01*
X53034329Y-44694559D01*
X53495789Y-44386222D01*
X53760000Y-43990801D01*
X54024211Y-44386222D01*
X54485671Y-44694559D01*
X55030000Y-44802833D01*
X55574329Y-44694559D01*
X56035789Y-44386222D01*
X56300000Y-43990801D01*
X56564211Y-44386222D01*
X57025671Y-44694559D01*
X57570000Y-44802833D01*
X58080000Y-44701387D01*
X58080000Y-44818500D01*
X58137852Y-45109339D01*
X58302599Y-45355901D01*
X58441800Y-45495102D01*
X58441800Y-45540000D01*
X58335750Y-45540000D01*
X58177000Y-45698750D01*
X58177000Y-46673000D01*
X58197000Y-46673000D01*
X58197000Y-46927000D01*
X58177000Y-46927000D01*
X58177000Y-47901250D01*
X58335750Y-48060000D01*
X58441800Y-48060000D01*
X58441800Y-49018798D01*
X58441800Y-49018798D01*
G37*
X58441800Y-49018798D02*
X58378586Y-49082011D01*
X58114329Y-48905441D01*
X57923000Y-48867383D01*
X57923000Y-47901250D01*
X57923000Y-46927000D01*
X57923000Y-46673000D01*
X57923000Y-45698750D01*
X57764250Y-45540000D01*
X57173691Y-45540000D01*
X56940302Y-45636673D01*
X56761673Y-45815301D01*
X56665000Y-46048690D01*
X56665000Y-46301309D01*
X56665000Y-46514250D01*
X56823750Y-46673000D01*
X57923000Y-46673000D01*
X57923000Y-46927000D01*
X56823750Y-46927000D01*
X56665000Y-47085750D01*
X56665000Y-47298691D01*
X56665000Y-47551310D01*
X56761673Y-47784699D01*
X56940302Y-47963327D01*
X57173691Y-48060000D01*
X57764250Y-48060000D01*
X57923000Y-47901250D01*
X57923000Y-48867383D01*
X57570000Y-48797167D01*
X57025671Y-48905441D01*
X56974460Y-48939658D01*
X55807401Y-47772599D01*
X55560839Y-47607852D01*
X55270000Y-47550000D01*
X50784802Y-47550000D01*
X50550000Y-47315198D01*
X50550000Y-41124802D01*
X50634802Y-41040000D01*
X52570000Y-41040000D01*
X52860839Y-40982148D01*
X53107401Y-40817401D01*
X54697401Y-39227401D01*
X54726951Y-39183175D01*
X55120900Y-39346757D01*
X55676661Y-39347242D01*
X56190303Y-39135010D01*
X56583629Y-38742370D01*
X56796757Y-38229100D01*
X56797242Y-37673339D01*
X56585010Y-37159697D01*
X56232928Y-36807000D01*
X56288309Y-36807000D01*
X56521698Y-36710327D01*
X56700327Y-36531699D01*
X56797000Y-36298310D01*
X56797000Y-36045691D01*
X56797000Y-35695750D01*
X56797000Y-35124250D01*
X56797000Y-34774309D01*
X56797000Y-34521690D01*
X56700327Y-34288301D01*
X56521698Y-34109673D01*
X56288309Y-34013000D01*
X55685750Y-34013000D01*
X55527000Y-34171750D01*
X55527000Y-35283000D01*
X56638250Y-35283000D01*
X56797000Y-35124250D01*
X56797000Y-35695750D01*
X56638250Y-35537000D01*
X55527000Y-35537000D01*
X55527000Y-35557000D01*
X55273000Y-35557000D01*
X55273000Y-35537000D01*
X55253000Y-35537000D01*
X55253000Y-35283000D01*
X55273000Y-35283000D01*
X55273000Y-34171750D01*
X55114250Y-34013000D01*
X54511691Y-34013000D01*
X54278302Y-34109673D01*
X54099673Y-34288301D01*
X54003000Y-34521690D01*
X54003000Y-34577613D01*
X53652370Y-34226371D01*
X53139100Y-34013243D01*
X52831827Y-34012974D01*
X53397401Y-33447401D01*
X53562148Y-33200839D01*
X53620000Y-32910000D01*
X53620000Y-32797530D01*
X53650303Y-32785010D01*
X54043629Y-32392370D01*
X54129949Y-32184487D01*
X54214990Y-32390303D01*
X54607630Y-32783629D01*
X55120900Y-32996757D01*
X55676661Y-32997242D01*
X56190303Y-32785010D01*
X56583629Y-32392370D01*
X56669949Y-32184487D01*
X56754990Y-32390303D01*
X57147630Y-32783629D01*
X57660900Y-32996757D01*
X58128303Y-32997164D01*
X58080000Y-33240000D01*
X58080000Y-41278612D01*
X57570000Y-41177167D01*
X57025671Y-41285441D01*
X56564211Y-41593778D01*
X56300000Y-41989198D01*
X56035789Y-41593778D01*
X55574329Y-41285441D01*
X55030000Y-41177167D01*
X54485671Y-41285441D01*
X54024211Y-41593778D01*
X53760000Y-41989198D01*
X53495789Y-41593778D01*
X53034329Y-41285441D01*
X52490000Y-41177167D01*
X51945671Y-41285441D01*
X51484211Y-41593778D01*
X51175874Y-42055238D01*
X51067600Y-42599567D01*
X51067600Y-43380433D01*
X51175874Y-43924762D01*
X51484211Y-44386222D01*
X51945671Y-44694559D01*
X52490000Y-44802833D01*
X53034329Y-44694559D01*
X53495789Y-44386222D01*
X53760000Y-43990801D01*
X54024211Y-44386222D01*
X54485671Y-44694559D01*
X55030000Y-44802833D01*
X55574329Y-44694559D01*
X56035789Y-44386222D01*
X56300000Y-43990801D01*
X56564211Y-44386222D01*
X57025671Y-44694559D01*
X57570000Y-44802833D01*
X58080000Y-44701387D01*
X58080000Y-44818500D01*
X58137852Y-45109339D01*
X58302599Y-45355901D01*
X58441800Y-45495102D01*
X58441800Y-45540000D01*
X58335750Y-45540000D01*
X58177000Y-45698750D01*
X58177000Y-46673000D01*
X58197000Y-46673000D01*
X58197000Y-46927000D01*
X58177000Y-46927000D01*
X58177000Y-47901250D01*
X58335750Y-48060000D01*
X58441800Y-48060000D01*
X58441800Y-49018798D01*
G36*
X88780000Y-40015198D02*
X88535198Y-40260000D01*
X83720000Y-40260000D01*
X83429160Y-40317852D01*
X83182599Y-40482599D01*
X82432599Y-41232599D01*
X82374401Y-41319698D01*
X81964211Y-41593778D01*
X81700000Y-41989198D01*
X81435789Y-41593778D01*
X80974329Y-41285441D01*
X80430000Y-41177167D01*
X79885671Y-41285441D01*
X79424211Y-41593778D01*
X79160000Y-41989198D01*
X78895789Y-41593778D01*
X78434329Y-41285441D01*
X78238730Y-41246534D01*
X78180839Y-41207852D01*
X77890000Y-41150000D01*
X77599161Y-41207852D01*
X77541269Y-41246534D01*
X77345671Y-41285441D01*
X76884211Y-41593778D01*
X76620000Y-41989198D01*
X76355789Y-41593778D01*
X75894329Y-41285441D01*
X75350000Y-41177167D01*
X74805671Y-41285441D01*
X74344211Y-41593778D01*
X74080000Y-41989198D01*
X73815789Y-41593778D01*
X73354329Y-41285441D01*
X72810000Y-41177167D01*
X72265671Y-41285441D01*
X71804211Y-41593778D01*
X71540000Y-41989198D01*
X71275789Y-41593778D01*
X71155000Y-41513069D01*
X71155000Y-40358729D01*
X71265786Y-40247942D01*
X71265789Y-40247940D01*
X71265790Y-40247940D01*
X71457633Y-39960825D01*
X71457633Y-39960824D01*
X71468810Y-39904634D01*
X71525000Y-39622150D01*
X71525001Y-39622150D01*
X71525000Y-39622144D01*
X71525000Y-36500478D01*
X71823629Y-36202370D01*
X71909949Y-35994487D01*
X71994990Y-36200303D01*
X72387630Y-36593629D01*
X72900900Y-36806757D01*
X73456661Y-36807242D01*
X73970303Y-36595010D01*
X74363629Y-36202370D01*
X74449949Y-35994487D01*
X74534990Y-36200303D01*
X74927630Y-36593629D01*
X75440900Y-36806757D01*
X75996661Y-36807242D01*
X76510303Y-36595010D01*
X76903629Y-36202370D01*
X77116757Y-35689100D01*
X77117242Y-35133339D01*
X76905010Y-34619697D01*
X76512370Y-34226371D01*
X75999100Y-34013243D01*
X75443339Y-34012758D01*
X74929697Y-34224990D01*
X74536371Y-34617630D01*
X74450050Y-34825512D01*
X74365010Y-34619697D01*
X73972370Y-34226371D01*
X73459100Y-34013243D01*
X72903339Y-34012758D01*
X72389697Y-34224990D01*
X71996371Y-34617630D01*
X71910050Y-34825512D01*
X71825010Y-34619697D01*
X71432370Y-34226371D01*
X70919100Y-34013243D01*
X70363339Y-34012758D01*
X69849697Y-34224990D01*
X69456371Y-34617630D01*
X69243243Y-35130900D01*
X69242758Y-35686661D01*
X69454990Y-36200303D01*
X69755000Y-36500837D01*
X69755000Y-39255570D01*
X69644210Y-39366360D01*
X69452367Y-39653475D01*
X69441189Y-39709665D01*
X69384999Y-39992150D01*
X69385000Y-39992155D01*
X69385000Y-41513069D01*
X69264211Y-41593778D01*
X69152400Y-41761115D01*
X69152400Y-41720690D01*
X69055727Y-41487301D01*
X68877098Y-41308673D01*
X68643709Y-41212000D01*
X68015750Y-41212000D01*
X67857000Y-41370750D01*
X67857000Y-42863000D01*
X67877000Y-42863000D01*
X67877000Y-43117000D01*
X67857000Y-43117000D01*
X67857000Y-44609250D01*
X68015750Y-44768000D01*
X68643709Y-44768000D01*
X68850289Y-44682431D01*
X68074210Y-45458510D01*
X67916927Y-45693901D01*
X67859698Y-45636673D01*
X67626309Y-45540000D01*
X67035750Y-45540000D01*
X66877000Y-45698750D01*
X66877000Y-46673000D01*
X66897000Y-46673000D01*
X66897000Y-46927000D01*
X66877000Y-46927000D01*
X66877000Y-46947000D01*
X66623000Y-46947000D01*
X66623000Y-46927000D01*
X66603000Y-46927000D01*
X66603000Y-46673000D01*
X66623000Y-46673000D01*
X66623000Y-45698750D01*
X66464250Y-45540000D01*
X65873691Y-45540000D01*
X65640302Y-45636673D01*
X65498823Y-45778150D01*
X65460673Y-45720073D01*
X65249640Y-45577623D01*
X65209523Y-45569578D01*
X65727401Y-45051701D01*
X65892148Y-44805139D01*
X65941706Y-44555994D01*
X66195789Y-44386222D01*
X66307600Y-44218884D01*
X66307600Y-44259310D01*
X66404273Y-44492699D01*
X66582902Y-44671327D01*
X66816291Y-44768000D01*
X67444250Y-44768000D01*
X67603000Y-44609250D01*
X67603000Y-43117000D01*
X67583000Y-43117000D01*
X67583000Y-42863000D01*
X67603000Y-42863000D01*
X67603000Y-41370750D01*
X67444250Y-41212000D01*
X66816291Y-41212000D01*
X66582902Y-41308673D01*
X66404273Y-41487301D01*
X66307600Y-41720690D01*
X66307600Y-41761115D01*
X66195789Y-41593778D01*
X65950000Y-41429547D01*
X65950000Y-40504802D01*
X65988341Y-40466461D01*
X66153088Y-40219899D01*
X66210940Y-39929060D01*
X66210940Y-37265163D01*
X66234777Y-37255314D01*
X66624884Y-36865887D01*
X66836269Y-36356816D01*
X66836750Y-35805602D01*
X66626254Y-35296163D01*
X66236827Y-34906056D01*
X65727756Y-34694671D01*
X65176542Y-34694190D01*
X64667103Y-34904686D01*
X64387548Y-35183753D01*
X64298897Y-34969731D01*
X64120268Y-34791103D01*
X63886879Y-34694430D01*
X63295750Y-34694430D01*
X63137000Y-34853180D01*
X63137000Y-35953000D01*
X63157000Y-35953000D01*
X63157000Y-36207000D01*
X63137000Y-36207000D01*
X63137000Y-37306820D01*
X63295750Y-37465570D01*
X63886879Y-37465570D01*
X64120268Y-37368897D01*
X64298897Y-37190269D01*
X64387633Y-36976040D01*
X64665053Y-37253944D01*
X64690940Y-37264693D01*
X64690940Y-39614258D01*
X64652599Y-39652599D01*
X64487852Y-39899161D01*
X64430000Y-40190000D01*
X64430000Y-41415198D01*
X62540000Y-39525198D01*
X62540000Y-37465570D01*
X62724250Y-37465570D01*
X62883000Y-37306820D01*
X62883000Y-36207000D01*
X62863000Y-36207000D01*
X62863000Y-35953000D01*
X62883000Y-35953000D01*
X62883000Y-34853180D01*
X62724250Y-34694430D01*
X62540000Y-34694430D01*
X62540000Y-33154802D01*
X62710618Y-32984183D01*
X62740900Y-32996757D01*
X63296661Y-32997242D01*
X63810303Y-32785010D01*
X64203629Y-32392370D01*
X64289949Y-32184487D01*
X64374990Y-32390303D01*
X64767630Y-32783629D01*
X65280900Y-32996757D01*
X65836661Y-32997242D01*
X66350303Y-32785010D01*
X66743629Y-32392370D01*
X66956757Y-31879100D01*
X66957242Y-31323339D01*
X66745010Y-30809697D01*
X66620530Y-30685000D01*
X69579215Y-30685000D01*
X69456371Y-30807630D01*
X69243243Y-31320900D01*
X69242758Y-31876661D01*
X69454990Y-32390303D01*
X69847630Y-32783629D01*
X70360900Y-32996757D01*
X70916661Y-32997242D01*
X71430303Y-32785010D01*
X71823629Y-32392370D01*
X71909949Y-32184487D01*
X71994990Y-32390303D01*
X72387630Y-32783629D01*
X72900900Y-32996757D01*
X73456661Y-32997242D01*
X73970303Y-32785010D01*
X74363629Y-32392370D01*
X74449949Y-32184487D01*
X74534990Y-32390303D01*
X74927630Y-32783629D01*
X75440900Y-32996757D01*
X75996661Y-32997242D01*
X76510303Y-32785010D01*
X76903629Y-32392370D01*
X76989949Y-32184487D01*
X77074990Y-32390303D01*
X77467630Y-32783629D01*
X77980900Y-32996757D01*
X78536661Y-32997242D01*
X79050303Y-32785010D01*
X79443629Y-32392370D01*
X79529949Y-32184487D01*
X79614990Y-32390303D01*
X80007630Y-32783629D01*
X80520900Y-32996757D01*
X81076661Y-32997242D01*
X81590303Y-32785010D01*
X81983629Y-32392370D01*
X82069949Y-32184487D01*
X82154990Y-32390303D01*
X82547630Y-32783629D01*
X83060900Y-32996757D01*
X83616661Y-32997242D01*
X84130303Y-32785010D01*
X84523629Y-32392370D01*
X84609949Y-32184487D01*
X84694990Y-32390303D01*
X85087630Y-32783629D01*
X85600900Y-32996757D01*
X86156661Y-32997242D01*
X86670303Y-32785010D01*
X87063629Y-32392370D01*
X87149949Y-32184487D01*
X87234990Y-32390303D01*
X87627630Y-32783629D01*
X87766353Y-32841231D01*
X87072433Y-32840626D01*
X86278623Y-33168622D01*
X85670756Y-33775428D01*
X85341376Y-34568664D01*
X85340626Y-35427567D01*
X85668622Y-36221377D01*
X86275428Y-36829244D01*
X87068664Y-37158624D01*
X87927567Y-37159374D01*
X88721377Y-36831378D01*
X88780000Y-36772857D01*
X88780000Y-40015198D01*
X88780000Y-40015198D01*
G37*
X88780000Y-40015198D02*
X88535198Y-40260000D01*
X83720000Y-40260000D01*
X83429160Y-40317852D01*
X83182599Y-40482599D01*
X82432599Y-41232599D01*
X82374401Y-41319698D01*
X81964211Y-41593778D01*
X81700000Y-41989198D01*
X81435789Y-41593778D01*
X80974329Y-41285441D01*
X80430000Y-41177167D01*
X79885671Y-41285441D01*
X79424211Y-41593778D01*
X79160000Y-41989198D01*
X78895789Y-41593778D01*
X78434329Y-41285441D01*
X78238730Y-41246534D01*
X78180839Y-41207852D01*
X77890000Y-41150000D01*
X77599161Y-41207852D01*
X77541269Y-41246534D01*
X77345671Y-41285441D01*
X76884211Y-41593778D01*
X76620000Y-41989198D01*
X76355789Y-41593778D01*
X75894329Y-41285441D01*
X75350000Y-41177167D01*
X74805671Y-41285441D01*
X74344211Y-41593778D01*
X74080000Y-41989198D01*
X73815789Y-41593778D01*
X73354329Y-41285441D01*
X72810000Y-41177167D01*
X72265671Y-41285441D01*
X71804211Y-41593778D01*
X71540000Y-41989198D01*
X71275789Y-41593778D01*
X71155000Y-41513069D01*
X71155000Y-40358729D01*
X71265786Y-40247942D01*
X71265789Y-40247940D01*
X71265790Y-40247940D01*
X71457633Y-39960825D01*
X71457633Y-39960824D01*
X71468810Y-39904634D01*
X71525000Y-39622150D01*
X71525001Y-39622150D01*
X71525000Y-39622144D01*
X71525000Y-36500478D01*
X71823629Y-36202370D01*
X71909949Y-35994487D01*
X71994990Y-36200303D01*
X72387630Y-36593629D01*
X72900900Y-36806757D01*
X73456661Y-36807242D01*
X73970303Y-36595010D01*
X74363629Y-36202370D01*
X74449949Y-35994487D01*
X74534990Y-36200303D01*
X74927630Y-36593629D01*
X75440900Y-36806757D01*
X75996661Y-36807242D01*
X76510303Y-36595010D01*
X76903629Y-36202370D01*
X77116757Y-35689100D01*
X77117242Y-35133339D01*
X76905010Y-34619697D01*
X76512370Y-34226371D01*
X75999100Y-34013243D01*
X75443339Y-34012758D01*
X74929697Y-34224990D01*
X74536371Y-34617630D01*
X74450050Y-34825512D01*
X74365010Y-34619697D01*
X73972370Y-34226371D01*
X73459100Y-34013243D01*
X72903339Y-34012758D01*
X72389697Y-34224990D01*
X71996371Y-34617630D01*
X71910050Y-34825512D01*
X71825010Y-34619697D01*
X71432370Y-34226371D01*
X70919100Y-34013243D01*
X70363339Y-34012758D01*
X69849697Y-34224990D01*
X69456371Y-34617630D01*
X69243243Y-35130900D01*
X69242758Y-35686661D01*
X69454990Y-36200303D01*
X69755000Y-36500837D01*
X69755000Y-39255570D01*
X69644210Y-39366360D01*
X69452367Y-39653475D01*
X69441189Y-39709665D01*
X69384999Y-39992150D01*
X69385000Y-39992155D01*
X69385000Y-41513069D01*
X69264211Y-41593778D01*
X69152400Y-41761115D01*
X69152400Y-41720690D01*
X69055727Y-41487301D01*
X68877098Y-41308673D01*
X68643709Y-41212000D01*
X68015750Y-41212000D01*
X67857000Y-41370750D01*
X67857000Y-42863000D01*
X67877000Y-42863000D01*
X67877000Y-43117000D01*
X67857000Y-43117000D01*
X67857000Y-44609250D01*
X68015750Y-44768000D01*
X68643709Y-44768000D01*
X68850289Y-44682431D01*
X68074210Y-45458510D01*
X67916927Y-45693901D01*
X67859698Y-45636673D01*
X67626309Y-45540000D01*
X67035750Y-45540000D01*
X66877000Y-45698750D01*
X66877000Y-46673000D01*
X66897000Y-46673000D01*
X66897000Y-46927000D01*
X66877000Y-46927000D01*
X66877000Y-46947000D01*
X66623000Y-46947000D01*
X66623000Y-46927000D01*
X66603000Y-46927000D01*
X66603000Y-46673000D01*
X66623000Y-46673000D01*
X66623000Y-45698750D01*
X66464250Y-45540000D01*
X65873691Y-45540000D01*
X65640302Y-45636673D01*
X65498823Y-45778150D01*
X65460673Y-45720073D01*
X65249640Y-45577623D01*
X65209523Y-45569578D01*
X65727401Y-45051701D01*
X65892148Y-44805139D01*
X65941706Y-44555994D01*
X66195789Y-44386222D01*
X66307600Y-44218884D01*
X66307600Y-44259310D01*
X66404273Y-44492699D01*
X66582902Y-44671327D01*
X66816291Y-44768000D01*
X67444250Y-44768000D01*
X67603000Y-44609250D01*
X67603000Y-43117000D01*
X67583000Y-43117000D01*
X67583000Y-42863000D01*
X67603000Y-42863000D01*
X67603000Y-41370750D01*
X67444250Y-41212000D01*
X66816291Y-41212000D01*
X66582902Y-41308673D01*
X66404273Y-41487301D01*
X66307600Y-41720690D01*
X66307600Y-41761115D01*
X66195789Y-41593778D01*
X65950000Y-41429547D01*
X65950000Y-40504802D01*
X65988341Y-40466461D01*
X66153088Y-40219899D01*
X66210940Y-39929060D01*
X66210940Y-37265163D01*
X66234777Y-37255314D01*
X66624884Y-36865887D01*
X66836269Y-36356816D01*
X66836750Y-35805602D01*
X66626254Y-35296163D01*
X66236827Y-34906056D01*
X65727756Y-34694671D01*
X65176542Y-34694190D01*
X64667103Y-34904686D01*
X64387548Y-35183753D01*
X64298897Y-34969731D01*
X64120268Y-34791103D01*
X63886879Y-34694430D01*
X63295750Y-34694430D01*
X63137000Y-34853180D01*
X63137000Y-35953000D01*
X63157000Y-35953000D01*
X63157000Y-36207000D01*
X63137000Y-36207000D01*
X63137000Y-37306820D01*
X63295750Y-37465570D01*
X63886879Y-37465570D01*
X64120268Y-37368897D01*
X64298897Y-37190269D01*
X64387633Y-36976040D01*
X64665053Y-37253944D01*
X64690940Y-37264693D01*
X64690940Y-39614258D01*
X64652599Y-39652599D01*
X64487852Y-39899161D01*
X64430000Y-40190000D01*
X64430000Y-41415198D01*
X62540000Y-39525198D01*
X62540000Y-37465570D01*
X62724250Y-37465570D01*
X62883000Y-37306820D01*
X62883000Y-36207000D01*
X62863000Y-36207000D01*
X62863000Y-35953000D01*
X62883000Y-35953000D01*
X62883000Y-34853180D01*
X62724250Y-34694430D01*
X62540000Y-34694430D01*
X62540000Y-33154802D01*
X62710618Y-32984183D01*
X62740900Y-32996757D01*
X63296661Y-32997242D01*
X63810303Y-32785010D01*
X64203629Y-32392370D01*
X64289949Y-32184487D01*
X64374990Y-32390303D01*
X64767630Y-32783629D01*
X65280900Y-32996757D01*
X65836661Y-32997242D01*
X66350303Y-32785010D01*
X66743629Y-32392370D01*
X66956757Y-31879100D01*
X66957242Y-31323339D01*
X66745010Y-30809697D01*
X66620530Y-30685000D01*
X69579215Y-30685000D01*
X69456371Y-30807630D01*
X69243243Y-31320900D01*
X69242758Y-31876661D01*
X69454990Y-32390303D01*
X69847630Y-32783629D01*
X70360900Y-32996757D01*
X70916661Y-32997242D01*
X71430303Y-32785010D01*
X71823629Y-32392370D01*
X71909949Y-32184487D01*
X71994990Y-32390303D01*
X72387630Y-32783629D01*
X72900900Y-32996757D01*
X73456661Y-32997242D01*
X73970303Y-32785010D01*
X74363629Y-32392370D01*
X74449949Y-32184487D01*
X74534990Y-32390303D01*
X74927630Y-32783629D01*
X75440900Y-32996757D01*
X75996661Y-32997242D01*
X76510303Y-32785010D01*
X76903629Y-32392370D01*
X76989949Y-32184487D01*
X77074990Y-32390303D01*
X77467630Y-32783629D01*
X77980900Y-32996757D01*
X78536661Y-32997242D01*
X79050303Y-32785010D01*
X79443629Y-32392370D01*
X79529949Y-32184487D01*
X79614990Y-32390303D01*
X80007630Y-32783629D01*
X80520900Y-32996757D01*
X81076661Y-32997242D01*
X81590303Y-32785010D01*
X81983629Y-32392370D01*
X82069949Y-32184487D01*
X82154990Y-32390303D01*
X82547630Y-32783629D01*
X83060900Y-32996757D01*
X83616661Y-32997242D01*
X84130303Y-32785010D01*
X84523629Y-32392370D01*
X84609949Y-32184487D01*
X84694990Y-32390303D01*
X85087630Y-32783629D01*
X85600900Y-32996757D01*
X86156661Y-32997242D01*
X86670303Y-32785010D01*
X87063629Y-32392370D01*
X87149949Y-32184487D01*
X87234990Y-32390303D01*
X87627630Y-32783629D01*
X87766353Y-32841231D01*
X87072433Y-32840626D01*
X86278623Y-33168622D01*
X85670756Y-33775428D01*
X85341376Y-34568664D01*
X85340626Y-35427567D01*
X85668622Y-36221377D01*
X86275428Y-36829244D01*
X87068664Y-37158624D01*
X87927567Y-37159374D01*
X88721377Y-36831378D01*
X88780000Y-36772857D01*
X88780000Y-40015198D01*
G36*
X99315000Y-40174297D02*
X99185010Y-39859697D01*
X98792370Y-39466371D01*
X98279100Y-39253243D01*
X97723339Y-39252758D01*
X97209697Y-39464990D01*
X96816371Y-39857630D01*
X96603243Y-40370900D01*
X96602758Y-40926661D01*
X96616142Y-40959055D01*
X96042599Y-41532599D01*
X95877852Y-41779161D01*
X95820000Y-42070000D01*
X95820000Y-45240000D01*
X91921247Y-45240000D01*
X91900463Y-45132877D01*
X91760673Y-44920073D01*
X91549640Y-44777623D01*
X91300000Y-44727560D01*
X89800000Y-44727560D01*
X89557877Y-44774537D01*
X89345073Y-44914327D01*
X89300386Y-44980528D01*
X89260673Y-44920073D01*
X89049640Y-44777623D01*
X88800000Y-44727560D01*
X87300000Y-44727560D01*
X87057877Y-44774537D01*
X86949238Y-44845900D01*
X86902148Y-44609161D01*
X86902148Y-44609160D01*
X86737401Y-44362599D01*
X86614016Y-44239214D01*
X86824126Y-43924762D01*
X86932400Y-43380433D01*
X86932400Y-42642402D01*
X87184802Y-42390000D01*
X89100000Y-42390000D01*
X89390839Y-42332148D01*
X89637401Y-42167401D01*
X90737401Y-41067401D01*
X90902148Y-40820839D01*
X90960000Y-40530000D01*
X90960000Y-38364802D01*
X91343452Y-37981349D01*
X91445528Y-38023735D01*
X92051812Y-38024264D01*
X92612149Y-37792738D01*
X93041231Y-37364404D01*
X93273735Y-36804472D01*
X93274264Y-36198188D01*
X93274000Y-36197549D01*
X93274000Y-33015309D01*
X93274000Y-32285750D01*
X93115250Y-32127000D01*
X91877000Y-32127000D01*
X91877000Y-33365250D01*
X92035750Y-33524000D01*
X92512691Y-33524000D01*
X92765310Y-33524000D01*
X92998699Y-33427327D01*
X93177327Y-33248698D01*
X93274000Y-33015309D01*
X93274000Y-36197549D01*
X93042738Y-35637851D01*
X92614404Y-35208769D01*
X92054472Y-34976265D01*
X91448188Y-34975736D01*
X90887851Y-35207262D01*
X90458769Y-35635596D01*
X90300000Y-36017954D01*
X90300000Y-33193960D01*
X90322673Y-33248698D01*
X90501301Y-33427327D01*
X90734690Y-33524000D01*
X90987309Y-33524000D01*
X91464250Y-33524000D01*
X91623000Y-33365250D01*
X91623000Y-32127000D01*
X90384750Y-32127000D01*
X90226000Y-32285750D01*
X90226000Y-32404992D01*
X90077401Y-32182599D01*
X89804183Y-31909381D01*
X89816757Y-31879100D01*
X89817242Y-31323339D01*
X89605010Y-30809697D01*
X89480530Y-30685000D01*
X90388974Y-30685000D01*
X90322673Y-30751302D01*
X90226000Y-30984691D01*
X90226000Y-31714250D01*
X90384750Y-31873000D01*
X91623000Y-31873000D01*
X91623000Y-31853000D01*
X91877000Y-31853000D01*
X91877000Y-31873000D01*
X93115250Y-31873000D01*
X93274000Y-31714250D01*
X93274000Y-30984691D01*
X93177327Y-30751302D01*
X93111025Y-30685000D01*
X96888974Y-30685000D01*
X96822673Y-30751302D01*
X96726000Y-30984691D01*
X96726000Y-31714250D01*
X96884750Y-31873000D01*
X98123000Y-31873000D01*
X98123000Y-31853000D01*
X98377000Y-31853000D01*
X98377000Y-31873000D01*
X98397000Y-31873000D01*
X98397000Y-32127000D01*
X98377000Y-32127000D01*
X98377000Y-33365250D01*
X98535750Y-33524000D01*
X99012691Y-33524000D01*
X99265310Y-33524000D01*
X99315000Y-33503417D01*
X99315000Y-35409715D01*
X99114404Y-35208769D01*
X98554472Y-34976265D01*
X98123000Y-34975888D01*
X98123000Y-33365250D01*
X98123000Y-32127000D01*
X96884750Y-32127000D01*
X96726000Y-32285750D01*
X96726000Y-33015309D01*
X96822673Y-33248698D01*
X97001301Y-33427327D01*
X97234690Y-33524000D01*
X97487309Y-33524000D01*
X97964250Y-33524000D01*
X98123000Y-33365250D01*
X98123000Y-34975888D01*
X97948188Y-34975736D01*
X97387851Y-35207262D01*
X96958769Y-35635596D01*
X96726265Y-36195528D01*
X96725736Y-36801812D01*
X96957262Y-37362149D01*
X97385596Y-37791231D01*
X97945528Y-38023735D01*
X98551812Y-38024264D01*
X99112149Y-37792738D01*
X99315000Y-37590240D01*
X99315000Y-40174297D01*
X99315000Y-40174297D01*
G37*
X99315000Y-40174297D02*
X99185010Y-39859697D01*
X98792370Y-39466371D01*
X98279100Y-39253243D01*
X97723339Y-39252758D01*
X97209697Y-39464990D01*
X96816371Y-39857630D01*
X96603243Y-40370900D01*
X96602758Y-40926661D01*
X96616142Y-40959055D01*
X96042599Y-41532599D01*
X95877852Y-41779161D01*
X95820000Y-42070000D01*
X95820000Y-45240000D01*
X91921247Y-45240000D01*
X91900463Y-45132877D01*
X91760673Y-44920073D01*
X91549640Y-44777623D01*
X91300000Y-44727560D01*
X89800000Y-44727560D01*
X89557877Y-44774537D01*
X89345073Y-44914327D01*
X89300386Y-44980528D01*
X89260673Y-44920073D01*
X89049640Y-44777623D01*
X88800000Y-44727560D01*
X87300000Y-44727560D01*
X87057877Y-44774537D01*
X86949238Y-44845900D01*
X86902148Y-44609161D01*
X86902148Y-44609160D01*
X86737401Y-44362599D01*
X86614016Y-44239214D01*
X86824126Y-43924762D01*
X86932400Y-43380433D01*
X86932400Y-42642402D01*
X87184802Y-42390000D01*
X89100000Y-42390000D01*
X89390839Y-42332148D01*
X89637401Y-42167401D01*
X90737401Y-41067401D01*
X90902148Y-40820839D01*
X90960000Y-40530000D01*
X90960000Y-38364802D01*
X91343452Y-37981349D01*
X91445528Y-38023735D01*
X92051812Y-38024264D01*
X92612149Y-37792738D01*
X93041231Y-37364404D01*
X93273735Y-36804472D01*
X93274264Y-36198188D01*
X93274000Y-36197549D01*
X93274000Y-33015309D01*
X93274000Y-32285750D01*
X93115250Y-32127000D01*
X91877000Y-32127000D01*
X91877000Y-33365250D01*
X92035750Y-33524000D01*
X92512691Y-33524000D01*
X92765310Y-33524000D01*
X92998699Y-33427327D01*
X93177327Y-33248698D01*
X93274000Y-33015309D01*
X93274000Y-36197549D01*
X93042738Y-35637851D01*
X92614404Y-35208769D01*
X92054472Y-34976265D01*
X91448188Y-34975736D01*
X90887851Y-35207262D01*
X90458769Y-35635596D01*
X90300000Y-36017954D01*
X90300000Y-33193960D01*
X90322673Y-33248698D01*
X90501301Y-33427327D01*
X90734690Y-33524000D01*
X90987309Y-33524000D01*
X91464250Y-33524000D01*
X91623000Y-33365250D01*
X91623000Y-32127000D01*
X90384750Y-32127000D01*
X90226000Y-32285750D01*
X90226000Y-32404992D01*
X90077401Y-32182599D01*
X89804183Y-31909381D01*
X89816757Y-31879100D01*
X89817242Y-31323339D01*
X89605010Y-30809697D01*
X89480530Y-30685000D01*
X90388974Y-30685000D01*
X90322673Y-30751302D01*
X90226000Y-30984691D01*
X90226000Y-31714250D01*
X90384750Y-31873000D01*
X91623000Y-31873000D01*
X91623000Y-31853000D01*
X91877000Y-31853000D01*
X91877000Y-31873000D01*
X93115250Y-31873000D01*
X93274000Y-31714250D01*
X93274000Y-30984691D01*
X93177327Y-30751302D01*
X93111025Y-30685000D01*
X96888974Y-30685000D01*
X96822673Y-30751302D01*
X96726000Y-30984691D01*
X96726000Y-31714250D01*
X96884750Y-31873000D01*
X98123000Y-31873000D01*
X98123000Y-31853000D01*
X98377000Y-31853000D01*
X98377000Y-31873000D01*
X98397000Y-31873000D01*
X98397000Y-32127000D01*
X98377000Y-32127000D01*
X98377000Y-33365250D01*
X98535750Y-33524000D01*
X99012691Y-33524000D01*
X99265310Y-33524000D01*
X99315000Y-33503417D01*
X99315000Y-35409715D01*
X99114404Y-35208769D01*
X98554472Y-34976265D01*
X98123000Y-34975888D01*
X98123000Y-33365250D01*
X98123000Y-32127000D01*
X96884750Y-32127000D01*
X96726000Y-32285750D01*
X96726000Y-33015309D01*
X96822673Y-33248698D01*
X97001301Y-33427327D01*
X97234690Y-33524000D01*
X97487309Y-33524000D01*
X97964250Y-33524000D01*
X98123000Y-33365250D01*
X98123000Y-34975888D01*
X97948188Y-34975736D01*
X97387851Y-35207262D01*
X96958769Y-35635596D01*
X96726265Y-36195528D01*
X96725736Y-36801812D01*
X96957262Y-37362149D01*
X97385596Y-37791231D01*
X97945528Y-38023735D01*
X98551812Y-38024264D01*
X99112149Y-37792738D01*
X99315000Y-37590240D01*
X99315000Y-40174297D01*
G36*
X99315000Y-56261342D02*
X99224572Y-56170756D01*
X98431336Y-55841376D01*
X97873000Y-55840888D01*
X97873000Y-54588250D01*
X97873000Y-53477000D01*
X97873000Y-53223000D01*
X97873000Y-52111750D01*
X97841250Y-52080000D01*
X97873000Y-52048250D01*
X97873000Y-50937000D01*
X96761750Y-50937000D01*
X96603000Y-51095750D01*
X96603000Y-51698309D01*
X96699673Y-51931698D01*
X96847974Y-52080000D01*
X96699673Y-52228302D01*
X96603000Y-52461691D01*
X96603000Y-53064250D01*
X96761750Y-53223000D01*
X97873000Y-53223000D01*
X97873000Y-53477000D01*
X96761750Y-53477000D01*
X96603000Y-53635750D01*
X96603000Y-54238309D01*
X96699673Y-54471698D01*
X96878301Y-54650327D01*
X97111690Y-54747000D01*
X97364309Y-54747000D01*
X97714250Y-54747000D01*
X97873000Y-54588250D01*
X97873000Y-55840888D01*
X97572433Y-55840626D01*
X96778623Y-56168622D01*
X96170756Y-56775428D01*
X95841376Y-57568664D01*
X95840626Y-58427567D01*
X96168622Y-59221377D01*
X96262081Y-59315000D01*
X89817242Y-59315000D01*
X89817242Y-56723339D01*
X89605010Y-56209697D01*
X89212370Y-55816371D01*
X88699100Y-55603243D01*
X88143339Y-55602758D01*
X87629697Y-55814990D01*
X87236371Y-56207630D01*
X87150050Y-56415512D01*
X87065010Y-56209697D01*
X86672370Y-55816371D01*
X86159100Y-55603243D01*
X85603339Y-55602758D01*
X85089697Y-55814990D01*
X84696371Y-56207630D01*
X84610050Y-56415512D01*
X84525010Y-56209697D01*
X84132370Y-55816371D01*
X83619100Y-55603243D01*
X83063339Y-55602758D01*
X82549697Y-55814990D01*
X82156371Y-56207630D01*
X82070050Y-56415512D01*
X81985010Y-56209697D01*
X81592370Y-55816371D01*
X81079100Y-55603243D01*
X80523339Y-55602758D01*
X80009697Y-55814990D01*
X79616371Y-56207630D01*
X79530050Y-56415512D01*
X79445010Y-56209697D01*
X79052370Y-55816371D01*
X78539100Y-55603243D01*
X77983339Y-55602758D01*
X77469697Y-55814990D01*
X77076371Y-56207630D01*
X76990050Y-56415512D01*
X76905010Y-56209697D01*
X76512370Y-55816371D01*
X75999100Y-55603243D01*
X75443339Y-55602758D01*
X74929697Y-55814990D01*
X74536371Y-56207630D01*
X74323243Y-56720900D01*
X74322758Y-57276661D01*
X74534990Y-57790303D01*
X74927630Y-58183629D01*
X75440900Y-58396757D01*
X75996661Y-58397242D01*
X76510303Y-58185010D01*
X76903629Y-57792370D01*
X76989949Y-57584487D01*
X77074990Y-57790303D01*
X77467630Y-58183629D01*
X77980900Y-58396757D01*
X78536661Y-58397242D01*
X79050303Y-58185010D01*
X79443629Y-57792370D01*
X79529949Y-57584487D01*
X79614990Y-57790303D01*
X80007630Y-58183629D01*
X80520900Y-58396757D01*
X81076661Y-58397242D01*
X81590303Y-58185010D01*
X81983629Y-57792370D01*
X82069949Y-57584487D01*
X82154990Y-57790303D01*
X82547630Y-58183629D01*
X83060900Y-58396757D01*
X83616661Y-58397242D01*
X84130303Y-58185010D01*
X84523629Y-57792370D01*
X84609949Y-57584487D01*
X84694990Y-57790303D01*
X85087630Y-58183629D01*
X85600900Y-58396757D01*
X86156661Y-58397242D01*
X86670303Y-58185010D01*
X87063629Y-57792370D01*
X87149949Y-57584487D01*
X87234990Y-57790303D01*
X87627630Y-58183629D01*
X88140900Y-58396757D01*
X88696661Y-58397242D01*
X89210303Y-58185010D01*
X89603629Y-57792370D01*
X89816757Y-57279100D01*
X89817242Y-56723339D01*
X89817242Y-59315000D01*
X72037242Y-59315000D01*
X72037242Y-56723339D01*
X71825010Y-56209697D01*
X71432370Y-55816371D01*
X70919100Y-55603243D01*
X70363339Y-55602758D01*
X69849697Y-55814990D01*
X69497000Y-56167071D01*
X69497000Y-56111690D01*
X69400327Y-55878301D01*
X69221698Y-55699673D01*
X68988309Y-55603000D01*
X68385750Y-55603000D01*
X68227000Y-55761750D01*
X68227000Y-56873000D01*
X68247000Y-56873000D01*
X68247000Y-57127000D01*
X68227000Y-57127000D01*
X68227000Y-58238250D01*
X68385750Y-58397000D01*
X68988309Y-58397000D01*
X69221698Y-58300327D01*
X69400327Y-58121699D01*
X69497000Y-57888310D01*
X69497000Y-57832386D01*
X69847630Y-58183629D01*
X70360900Y-58396757D01*
X70916661Y-58397242D01*
X71430303Y-58185010D01*
X71823629Y-57792370D01*
X72036757Y-57279100D01*
X72037242Y-56723339D01*
X72037242Y-59315000D01*
X68135000Y-59315000D01*
X68135000Y-54451310D01*
X68135000Y-54198691D01*
X68135000Y-53985750D01*
X68135000Y-53414250D01*
X68135000Y-53201309D01*
X68135000Y-52948690D01*
X68038327Y-52715301D01*
X67859698Y-52536673D01*
X67626309Y-52440000D01*
X67035750Y-52440000D01*
X66877000Y-52598750D01*
X66877000Y-53573000D01*
X67976250Y-53573000D01*
X68135000Y-53414250D01*
X68135000Y-53985750D01*
X67976250Y-53827000D01*
X66877000Y-53827000D01*
X66877000Y-54801250D01*
X67035750Y-54960000D01*
X67626309Y-54960000D01*
X67859698Y-54863327D01*
X68038327Y-54684699D01*
X68135000Y-54451310D01*
X68135000Y-59315000D01*
X67973000Y-59315000D01*
X67973000Y-58238250D01*
X67973000Y-57127000D01*
X67973000Y-56873000D01*
X67973000Y-55761750D01*
X67814250Y-55603000D01*
X67211691Y-55603000D01*
X66978302Y-55699673D01*
X66830000Y-55847974D01*
X66681698Y-55699673D01*
X66448309Y-55603000D01*
X65845750Y-55603000D01*
X65687000Y-55761750D01*
X65687000Y-56873000D01*
X66798250Y-56873000D01*
X66830000Y-56841250D01*
X66861750Y-56873000D01*
X67973000Y-56873000D01*
X67973000Y-57127000D01*
X66861750Y-57127000D01*
X66830000Y-57158750D01*
X66798250Y-57127000D01*
X65687000Y-57127000D01*
X65687000Y-58238250D01*
X65845750Y-58397000D01*
X66448309Y-58397000D01*
X66681698Y-58300327D01*
X66830000Y-58152025D01*
X66978302Y-58300327D01*
X67211691Y-58397000D01*
X67814250Y-58397000D01*
X67973000Y-58238250D01*
X67973000Y-59315000D01*
X53097000Y-59315000D01*
X53097000Y-59055750D01*
X52938250Y-58897000D01*
X51827000Y-58897000D01*
X51827000Y-58917000D01*
X51573000Y-58917000D01*
X51573000Y-58897000D01*
X50461750Y-58897000D01*
X50303000Y-59055750D01*
X50303000Y-59315000D01*
X48597000Y-59315000D01*
X48597000Y-59055750D01*
X48438250Y-58897000D01*
X47327000Y-58897000D01*
X47327000Y-58917000D01*
X47073000Y-58917000D01*
X47073000Y-58897000D01*
X45961750Y-58897000D01*
X45803000Y-59055750D01*
X45803000Y-59315000D01*
X39075633Y-59315000D01*
X39082088Y-59312712D01*
X39300675Y-58720199D01*
X39275878Y-58089139D01*
X39082088Y-57621288D01*
X38820159Y-57528446D01*
X37881605Y-58467000D01*
X37895747Y-58481142D01*
X37716142Y-58660747D01*
X37702000Y-58646605D01*
X37687857Y-58660747D01*
X37508252Y-58481142D01*
X37522395Y-58467000D01*
X37508252Y-58452857D01*
X37687857Y-58273252D01*
X37702000Y-58287395D01*
X38640554Y-57348841D01*
X38638614Y-57343368D01*
X38734799Y-57303527D01*
X38913427Y-57124898D01*
X39010100Y-56891509D01*
X39010100Y-56339750D01*
X38851352Y-56181002D01*
X39010100Y-56181002D01*
X39010100Y-56081679D01*
X40864207Y-57935786D01*
X40864210Y-57935790D01*
X40864211Y-57935790D01*
X41151325Y-58127633D01*
X41151326Y-58127633D01*
X41207515Y-58138810D01*
X41490000Y-58195001D01*
X41490000Y-58195000D01*
X41490005Y-58195000D01*
X43489994Y-58195000D01*
X43490000Y-58195001D01*
X43490000Y-58195000D01*
X43772484Y-58138810D01*
X43828674Y-58127633D01*
X43828675Y-58127633D01*
X44115790Y-57935790D01*
X45802983Y-56248595D01*
X45802758Y-56506661D01*
X46014990Y-57020303D01*
X46367071Y-57373000D01*
X46311690Y-57373000D01*
X46078301Y-57469673D01*
X45899673Y-57648302D01*
X45803000Y-57881691D01*
X45803000Y-58484250D01*
X45961750Y-58643000D01*
X47073000Y-58643000D01*
X47073000Y-58623000D01*
X47327000Y-58623000D01*
X47327000Y-58643000D01*
X48438250Y-58643000D01*
X48597000Y-58484250D01*
X48597000Y-57881691D01*
X48500327Y-57648302D01*
X48321699Y-57469673D01*
X48088310Y-57373000D01*
X48032386Y-57373000D01*
X48383629Y-57022370D01*
X48596757Y-56509100D01*
X48597242Y-55953339D01*
X48385010Y-55439697D01*
X47992370Y-55046371D01*
X47970000Y-55037082D01*
X47970000Y-54995499D01*
X48202123Y-54950463D01*
X48414927Y-54810673D01*
X48557377Y-54599640D01*
X48559216Y-54590469D01*
X48559537Y-54592123D01*
X48699327Y-54804927D01*
X48910360Y-54947377D01*
X49160000Y-54997440D01*
X50660000Y-54997440D01*
X50902123Y-54950463D01*
X50940000Y-54925581D01*
X50940000Y-55032469D01*
X50909697Y-55044990D01*
X50516371Y-55437630D01*
X50303243Y-55950900D01*
X50302758Y-56506661D01*
X50514990Y-57020303D01*
X50867071Y-57373000D01*
X50811690Y-57373000D01*
X50578301Y-57469673D01*
X50399673Y-57648302D01*
X50303000Y-57881691D01*
X50303000Y-58484250D01*
X50461750Y-58643000D01*
X51573000Y-58643000D01*
X51573000Y-58623000D01*
X51827000Y-58623000D01*
X51827000Y-58643000D01*
X52938250Y-58643000D01*
X53097000Y-58484250D01*
X53097000Y-57881691D01*
X53000327Y-57648302D01*
X52821699Y-57469673D01*
X52588310Y-57373000D01*
X52532386Y-57373000D01*
X52883629Y-57022370D01*
X53096757Y-56509100D01*
X53097242Y-55953339D01*
X52885010Y-55439697D01*
X52492370Y-55046371D01*
X52460000Y-55032929D01*
X52460000Y-54997440D01*
X53181262Y-54997440D01*
X53197852Y-55080839D01*
X53362599Y-55327401D01*
X53735599Y-55700401D01*
X53982161Y-55865148D01*
X54273000Y-55923000D01*
X57041498Y-55923000D01*
X56756371Y-56207630D01*
X56543243Y-56720900D01*
X56542758Y-57276661D01*
X56754990Y-57790303D01*
X57147630Y-58183629D01*
X57660900Y-58396757D01*
X58216661Y-58397242D01*
X58730303Y-58185010D01*
X59123629Y-57792370D01*
X59209949Y-57584487D01*
X59294990Y-57790303D01*
X59687630Y-58183629D01*
X60200900Y-58396757D01*
X60756661Y-58397242D01*
X61270303Y-58185010D01*
X61663629Y-57792370D01*
X61749949Y-57584487D01*
X61834990Y-57790303D01*
X62227630Y-58183629D01*
X62740900Y-58396757D01*
X63296661Y-58397242D01*
X63810303Y-58185010D01*
X64163000Y-57832928D01*
X64163000Y-57888310D01*
X64259673Y-58121699D01*
X64438302Y-58300327D01*
X64671691Y-58397000D01*
X65274250Y-58397000D01*
X65433000Y-58238250D01*
X65433000Y-57127000D01*
X65413000Y-57127000D01*
X65413000Y-56873000D01*
X65433000Y-56873000D01*
X65433000Y-55761750D01*
X65274250Y-55603000D01*
X64671691Y-55603000D01*
X64438302Y-55699673D01*
X64259673Y-55878301D01*
X64163000Y-56111690D01*
X64163000Y-56167613D01*
X64018609Y-56022970D01*
X64875786Y-55165792D01*
X64875790Y-55165790D01*
X64875790Y-55165789D01*
X65005723Y-54971329D01*
X65242123Y-54925463D01*
X65454927Y-54785673D01*
X65498337Y-54721362D01*
X65640302Y-54863327D01*
X65873691Y-54960000D01*
X66464250Y-54960000D01*
X66623000Y-54801250D01*
X66623000Y-53827000D01*
X66603000Y-53827000D01*
X66603000Y-53573000D01*
X66623000Y-53573000D01*
X66623000Y-52598750D01*
X66464250Y-52440000D01*
X65946611Y-52440000D01*
X66007633Y-52348675D01*
X66007633Y-52348674D01*
X66018810Y-52292484D01*
X66057352Y-52098721D01*
X66195789Y-52006222D01*
X66460000Y-51610801D01*
X66724211Y-52006222D01*
X67185671Y-52314559D01*
X67730000Y-52422833D01*
X68274329Y-52314559D01*
X68735789Y-52006222D01*
X68847600Y-51838884D01*
X68847600Y-51879310D01*
X68944273Y-52112699D01*
X69122902Y-52291327D01*
X69356291Y-52388000D01*
X69984250Y-52388000D01*
X70143000Y-52229250D01*
X70143000Y-50737000D01*
X70123000Y-50737000D01*
X70123000Y-50483000D01*
X70143000Y-50483000D01*
X70143000Y-50463000D01*
X70397000Y-50463000D01*
X70397000Y-50483000D01*
X70417000Y-50483000D01*
X70417000Y-50737000D01*
X70397000Y-50737000D01*
X70397000Y-52229250D01*
X70555750Y-52388000D01*
X71183709Y-52388000D01*
X71417098Y-52291327D01*
X71595727Y-52112699D01*
X71692400Y-51879310D01*
X71692400Y-51838884D01*
X71804211Y-52006222D01*
X72265671Y-52314559D01*
X72810000Y-52422833D01*
X73354329Y-52314559D01*
X73815789Y-52006222D01*
X74080000Y-51610801D01*
X74344211Y-52006222D01*
X74805671Y-52314559D01*
X75350000Y-52422833D01*
X75894329Y-52314559D01*
X76355789Y-52006222D01*
X76620000Y-51610801D01*
X76884211Y-52006222D01*
X77345671Y-52314559D01*
X77890000Y-52422833D01*
X78434329Y-52314559D01*
X78895789Y-52006222D01*
X79160000Y-51610801D01*
X79424211Y-52006222D01*
X79885671Y-52314559D01*
X80430000Y-52422833D01*
X80974329Y-52314559D01*
X81435789Y-52006222D01*
X81700000Y-51610801D01*
X81964211Y-52006222D01*
X82425671Y-52314559D01*
X82970000Y-52422833D01*
X83514329Y-52314559D01*
X83975789Y-52006222D01*
X84240000Y-51610801D01*
X84504211Y-52006222D01*
X84965671Y-52314559D01*
X85510000Y-52422833D01*
X86054329Y-52314559D01*
X86515789Y-52006222D01*
X86824126Y-51544762D01*
X86932400Y-51000433D01*
X86932400Y-50219567D01*
X86824126Y-49675238D01*
X86515789Y-49213778D01*
X86054329Y-48905441D01*
X85510000Y-48797167D01*
X84965671Y-48905441D01*
X84504211Y-49213778D01*
X84240000Y-49609198D01*
X83975789Y-49213778D01*
X83514329Y-48905441D01*
X82970000Y-48797167D01*
X82425671Y-48905441D01*
X81964211Y-49213778D01*
X81700000Y-49609198D01*
X81435789Y-49213778D01*
X80974329Y-48905441D01*
X80430000Y-48797167D01*
X79885671Y-48905441D01*
X79424211Y-49213778D01*
X79160000Y-49609198D01*
X78895789Y-49213778D01*
X78434329Y-48905441D01*
X77890000Y-48797167D01*
X77345671Y-48905441D01*
X76884211Y-49213778D01*
X76620000Y-49609198D01*
X76355789Y-49213778D01*
X75894329Y-48905441D01*
X75350000Y-48797167D01*
X74805671Y-48905441D01*
X74635000Y-49019479D01*
X74635000Y-47551310D01*
X74635000Y-47298691D01*
X74635000Y-47085750D01*
X74476250Y-46927000D01*
X73377000Y-46927000D01*
X73377000Y-47901250D01*
X73535750Y-48060000D01*
X74126309Y-48060000D01*
X74359698Y-47963327D01*
X74538327Y-47784699D01*
X74635000Y-47551310D01*
X74635000Y-49019479D01*
X74344211Y-49213778D01*
X74080000Y-49609198D01*
X73815789Y-49213778D01*
X73354329Y-48905441D01*
X72810000Y-48797167D01*
X72265671Y-48905441D01*
X71804211Y-49213778D01*
X71692400Y-49381115D01*
X71692400Y-49340690D01*
X71595727Y-49107301D01*
X71417098Y-48928673D01*
X71183709Y-48832000D01*
X70642802Y-48832000D01*
X71287401Y-48187401D01*
X71364215Y-48072440D01*
X71500000Y-48072440D01*
X71742123Y-48025463D01*
X71954927Y-47885673D01*
X71998337Y-47821362D01*
X72140302Y-47963327D01*
X72373691Y-48060000D01*
X72964250Y-48060000D01*
X73123000Y-47901250D01*
X73123000Y-46927000D01*
X73103000Y-46927000D01*
X73103000Y-46673000D01*
X73123000Y-46673000D01*
X73123000Y-46653000D01*
X73377000Y-46653000D01*
X73377000Y-46673000D01*
X74476250Y-46673000D01*
X74635000Y-46514250D01*
X74635000Y-46301309D01*
X74635000Y-46048690D01*
X74605367Y-45977150D01*
X76525570Y-45977150D01*
X77174207Y-46625786D01*
X77174210Y-46625790D01*
X77174211Y-46625790D01*
X77461325Y-46817633D01*
X77461326Y-46817633D01*
X77517515Y-46828810D01*
X77800000Y-46885001D01*
X77800000Y-46885000D01*
X77800005Y-46885000D01*
X80398154Y-46885000D01*
X80399537Y-46892123D01*
X80539327Y-47104927D01*
X80750360Y-47247377D01*
X81000000Y-47297440D01*
X81065176Y-47297440D01*
X81124210Y-47385790D01*
X81924207Y-48185786D01*
X81924210Y-48185790D01*
X81924211Y-48185790D01*
X82211325Y-48377633D01*
X82211326Y-48377633D01*
X82267515Y-48388810D01*
X82550000Y-48445001D01*
X82550000Y-48445000D01*
X82550005Y-48445000D01*
X96602846Y-48445000D01*
X96602758Y-48546661D01*
X96814990Y-49060303D01*
X97167071Y-49413000D01*
X97111690Y-49413000D01*
X96878301Y-49509673D01*
X96699673Y-49688302D01*
X96603000Y-49921691D01*
X96603000Y-50524250D01*
X96761750Y-50683000D01*
X97873000Y-50683000D01*
X97873000Y-50663000D01*
X98127000Y-50663000D01*
X98127000Y-50683000D01*
X98147000Y-50683000D01*
X98147000Y-50937000D01*
X98127000Y-50937000D01*
X98127000Y-52048250D01*
X98158750Y-52080000D01*
X98127000Y-52111750D01*
X98127000Y-53223000D01*
X98147000Y-53223000D01*
X98147000Y-53477000D01*
X98127000Y-53477000D01*
X98127000Y-54588250D01*
X98285750Y-54747000D01*
X98635691Y-54747000D01*
X98888310Y-54747000D01*
X99121699Y-54650327D01*
X99300327Y-54471698D01*
X99315000Y-54436274D01*
X99315000Y-56261342D01*
X99315000Y-56261342D01*
G37*
X99315000Y-56261342D02*
X99224572Y-56170756D01*
X98431336Y-55841376D01*
X97873000Y-55840888D01*
X97873000Y-54588250D01*
X97873000Y-53477000D01*
X97873000Y-53223000D01*
X97873000Y-52111750D01*
X97841250Y-52080000D01*
X97873000Y-52048250D01*
X97873000Y-50937000D01*
X96761750Y-50937000D01*
X96603000Y-51095750D01*
X96603000Y-51698309D01*
X96699673Y-51931698D01*
X96847974Y-52080000D01*
X96699673Y-52228302D01*
X96603000Y-52461691D01*
X96603000Y-53064250D01*
X96761750Y-53223000D01*
X97873000Y-53223000D01*
X97873000Y-53477000D01*
X96761750Y-53477000D01*
X96603000Y-53635750D01*
X96603000Y-54238309D01*
X96699673Y-54471698D01*
X96878301Y-54650327D01*
X97111690Y-54747000D01*
X97364309Y-54747000D01*
X97714250Y-54747000D01*
X97873000Y-54588250D01*
X97873000Y-55840888D01*
X97572433Y-55840626D01*
X96778623Y-56168622D01*
X96170756Y-56775428D01*
X95841376Y-57568664D01*
X95840626Y-58427567D01*
X96168622Y-59221377D01*
X96262081Y-59315000D01*
X89817242Y-59315000D01*
X89817242Y-56723339D01*
X89605010Y-56209697D01*
X89212370Y-55816371D01*
X88699100Y-55603243D01*
X88143339Y-55602758D01*
X87629697Y-55814990D01*
X87236371Y-56207630D01*
X87150050Y-56415512D01*
X87065010Y-56209697D01*
X86672370Y-55816371D01*
X86159100Y-55603243D01*
X85603339Y-55602758D01*
X85089697Y-55814990D01*
X84696371Y-56207630D01*
X84610050Y-56415512D01*
X84525010Y-56209697D01*
X84132370Y-55816371D01*
X83619100Y-55603243D01*
X83063339Y-55602758D01*
X82549697Y-55814990D01*
X82156371Y-56207630D01*
X82070050Y-56415512D01*
X81985010Y-56209697D01*
X81592370Y-55816371D01*
X81079100Y-55603243D01*
X80523339Y-55602758D01*
X80009697Y-55814990D01*
X79616371Y-56207630D01*
X79530050Y-56415512D01*
X79445010Y-56209697D01*
X79052370Y-55816371D01*
X78539100Y-55603243D01*
X77983339Y-55602758D01*
X77469697Y-55814990D01*
X77076371Y-56207630D01*
X76990050Y-56415512D01*
X76905010Y-56209697D01*
X76512370Y-55816371D01*
X75999100Y-55603243D01*
X75443339Y-55602758D01*
X74929697Y-55814990D01*
X74536371Y-56207630D01*
X74323243Y-56720900D01*
X74322758Y-57276661D01*
X74534990Y-57790303D01*
X74927630Y-58183629D01*
X75440900Y-58396757D01*
X75996661Y-58397242D01*
X76510303Y-58185010D01*
X76903629Y-57792370D01*
X76989949Y-57584487D01*
X77074990Y-57790303D01*
X77467630Y-58183629D01*
X77980900Y-58396757D01*
X78536661Y-58397242D01*
X79050303Y-58185010D01*
X79443629Y-57792370D01*
X79529949Y-57584487D01*
X79614990Y-57790303D01*
X80007630Y-58183629D01*
X80520900Y-58396757D01*
X81076661Y-58397242D01*
X81590303Y-58185010D01*
X81983629Y-57792370D01*
X82069949Y-57584487D01*
X82154990Y-57790303D01*
X82547630Y-58183629D01*
X83060900Y-58396757D01*
X83616661Y-58397242D01*
X84130303Y-58185010D01*
X84523629Y-57792370D01*
X84609949Y-57584487D01*
X84694990Y-57790303D01*
X85087630Y-58183629D01*
X85600900Y-58396757D01*
X86156661Y-58397242D01*
X86670303Y-58185010D01*
X87063629Y-57792370D01*
X87149949Y-57584487D01*
X87234990Y-57790303D01*
X87627630Y-58183629D01*
X88140900Y-58396757D01*
X88696661Y-58397242D01*
X89210303Y-58185010D01*
X89603629Y-57792370D01*
X89816757Y-57279100D01*
X89817242Y-56723339D01*
X89817242Y-59315000D01*
X72037242Y-59315000D01*
X72037242Y-56723339D01*
X71825010Y-56209697D01*
X71432370Y-55816371D01*
X70919100Y-55603243D01*
X70363339Y-55602758D01*
X69849697Y-55814990D01*
X69497000Y-56167071D01*
X69497000Y-56111690D01*
X69400327Y-55878301D01*
X69221698Y-55699673D01*
X68988309Y-55603000D01*
X68385750Y-55603000D01*
X68227000Y-55761750D01*
X68227000Y-56873000D01*
X68247000Y-56873000D01*
X68247000Y-57127000D01*
X68227000Y-57127000D01*
X68227000Y-58238250D01*
X68385750Y-58397000D01*
X68988309Y-58397000D01*
X69221698Y-58300327D01*
X69400327Y-58121699D01*
X69497000Y-57888310D01*
X69497000Y-57832386D01*
X69847630Y-58183629D01*
X70360900Y-58396757D01*
X70916661Y-58397242D01*
X71430303Y-58185010D01*
X71823629Y-57792370D01*
X72036757Y-57279100D01*
X72037242Y-56723339D01*
X72037242Y-59315000D01*
X68135000Y-59315000D01*
X68135000Y-54451310D01*
X68135000Y-54198691D01*
X68135000Y-53985750D01*
X68135000Y-53414250D01*
X68135000Y-53201309D01*
X68135000Y-52948690D01*
X68038327Y-52715301D01*
X67859698Y-52536673D01*
X67626309Y-52440000D01*
X67035750Y-52440000D01*
X66877000Y-52598750D01*
X66877000Y-53573000D01*
X67976250Y-53573000D01*
X68135000Y-53414250D01*
X68135000Y-53985750D01*
X67976250Y-53827000D01*
X66877000Y-53827000D01*
X66877000Y-54801250D01*
X67035750Y-54960000D01*
X67626309Y-54960000D01*
X67859698Y-54863327D01*
X68038327Y-54684699D01*
X68135000Y-54451310D01*
X68135000Y-59315000D01*
X67973000Y-59315000D01*
X67973000Y-58238250D01*
X67973000Y-57127000D01*
X67973000Y-56873000D01*
X67973000Y-55761750D01*
X67814250Y-55603000D01*
X67211691Y-55603000D01*
X66978302Y-55699673D01*
X66830000Y-55847974D01*
X66681698Y-55699673D01*
X66448309Y-55603000D01*
X65845750Y-55603000D01*
X65687000Y-55761750D01*
X65687000Y-56873000D01*
X66798250Y-56873000D01*
X66830000Y-56841250D01*
X66861750Y-56873000D01*
X67973000Y-56873000D01*
X67973000Y-57127000D01*
X66861750Y-57127000D01*
X66830000Y-57158750D01*
X66798250Y-57127000D01*
X65687000Y-57127000D01*
X65687000Y-58238250D01*
X65845750Y-58397000D01*
X66448309Y-58397000D01*
X66681698Y-58300327D01*
X66830000Y-58152025D01*
X66978302Y-58300327D01*
X67211691Y-58397000D01*
X67814250Y-58397000D01*
X67973000Y-58238250D01*
X67973000Y-59315000D01*
X53097000Y-59315000D01*
X53097000Y-59055750D01*
X52938250Y-58897000D01*
X51827000Y-58897000D01*
X51827000Y-58917000D01*
X51573000Y-58917000D01*
X51573000Y-58897000D01*
X50461750Y-58897000D01*
X50303000Y-59055750D01*
X50303000Y-59315000D01*
X48597000Y-59315000D01*
X48597000Y-59055750D01*
X48438250Y-58897000D01*
X47327000Y-58897000D01*
X47327000Y-58917000D01*
X47073000Y-58917000D01*
X47073000Y-58897000D01*
X45961750Y-58897000D01*
X45803000Y-59055750D01*
X45803000Y-59315000D01*
X39075633Y-59315000D01*
X39082088Y-59312712D01*
X39300675Y-58720199D01*
X39275878Y-58089139D01*
X39082088Y-57621288D01*
X38820159Y-57528446D01*
X37881605Y-58467000D01*
X37895747Y-58481142D01*
X37716142Y-58660747D01*
X37702000Y-58646605D01*
X37687857Y-58660747D01*
X37508252Y-58481142D01*
X37522395Y-58467000D01*
X37508252Y-58452857D01*
X37687857Y-58273252D01*
X37702000Y-58287395D01*
X38640554Y-57348841D01*
X38638614Y-57343368D01*
X38734799Y-57303527D01*
X38913427Y-57124898D01*
X39010100Y-56891509D01*
X39010100Y-56339750D01*
X38851352Y-56181002D01*
X39010100Y-56181002D01*
X39010100Y-56081679D01*
X40864207Y-57935786D01*
X40864210Y-57935790D01*
X40864211Y-57935790D01*
X41151325Y-58127633D01*
X41151326Y-58127633D01*
X41207515Y-58138810D01*
X41490000Y-58195001D01*
X41490000Y-58195000D01*
X41490005Y-58195000D01*
X43489994Y-58195000D01*
X43490000Y-58195001D01*
X43490000Y-58195000D01*
X43772484Y-58138810D01*
X43828674Y-58127633D01*
X43828675Y-58127633D01*
X44115790Y-57935790D01*
X45802983Y-56248595D01*
X45802758Y-56506661D01*
X46014990Y-57020303D01*
X46367071Y-57373000D01*
X46311690Y-57373000D01*
X46078301Y-57469673D01*
X45899673Y-57648302D01*
X45803000Y-57881691D01*
X45803000Y-58484250D01*
X45961750Y-58643000D01*
X47073000Y-58643000D01*
X47073000Y-58623000D01*
X47327000Y-58623000D01*
X47327000Y-58643000D01*
X48438250Y-58643000D01*
X48597000Y-58484250D01*
X48597000Y-57881691D01*
X48500327Y-57648302D01*
X48321699Y-57469673D01*
X48088310Y-57373000D01*
X48032386Y-57373000D01*
X48383629Y-57022370D01*
X48596757Y-56509100D01*
X48597242Y-55953339D01*
X48385010Y-55439697D01*
X47992370Y-55046371D01*
X47970000Y-55037082D01*
X47970000Y-54995499D01*
X48202123Y-54950463D01*
X48414927Y-54810673D01*
X48557377Y-54599640D01*
X48559216Y-54590469D01*
X48559537Y-54592123D01*
X48699327Y-54804927D01*
X48910360Y-54947377D01*
X49160000Y-54997440D01*
X50660000Y-54997440D01*
X50902123Y-54950463D01*
X50940000Y-54925581D01*
X50940000Y-55032469D01*
X50909697Y-55044990D01*
X50516371Y-55437630D01*
X50303243Y-55950900D01*
X50302758Y-56506661D01*
X50514990Y-57020303D01*
X50867071Y-57373000D01*
X50811690Y-57373000D01*
X50578301Y-57469673D01*
X50399673Y-57648302D01*
X50303000Y-57881691D01*
X50303000Y-58484250D01*
X50461750Y-58643000D01*
X51573000Y-58643000D01*
X51573000Y-58623000D01*
X51827000Y-58623000D01*
X51827000Y-58643000D01*
X52938250Y-58643000D01*
X53097000Y-58484250D01*
X53097000Y-57881691D01*
X53000327Y-57648302D01*
X52821699Y-57469673D01*
X52588310Y-57373000D01*
X52532386Y-57373000D01*
X52883629Y-57022370D01*
X53096757Y-56509100D01*
X53097242Y-55953339D01*
X52885010Y-55439697D01*
X52492370Y-55046371D01*
X52460000Y-55032929D01*
X52460000Y-54997440D01*
X53181262Y-54997440D01*
X53197852Y-55080839D01*
X53362599Y-55327401D01*
X53735599Y-55700401D01*
X53982161Y-55865148D01*
X54273000Y-55923000D01*
X57041498Y-55923000D01*
X56756371Y-56207630D01*
X56543243Y-56720900D01*
X56542758Y-57276661D01*
X56754990Y-57790303D01*
X57147630Y-58183629D01*
X57660900Y-58396757D01*
X58216661Y-58397242D01*
X58730303Y-58185010D01*
X59123629Y-57792370D01*
X59209949Y-57584487D01*
X59294990Y-57790303D01*
X59687630Y-58183629D01*
X60200900Y-58396757D01*
X60756661Y-58397242D01*
X61270303Y-58185010D01*
X61663629Y-57792370D01*
X61749949Y-57584487D01*
X61834990Y-57790303D01*
X62227630Y-58183629D01*
X62740900Y-58396757D01*
X63296661Y-58397242D01*
X63810303Y-58185010D01*
X64163000Y-57832928D01*
X64163000Y-57888310D01*
X64259673Y-58121699D01*
X64438302Y-58300327D01*
X64671691Y-58397000D01*
X65274250Y-58397000D01*
X65433000Y-58238250D01*
X65433000Y-57127000D01*
X65413000Y-57127000D01*
X65413000Y-56873000D01*
X65433000Y-56873000D01*
X65433000Y-55761750D01*
X65274250Y-55603000D01*
X64671691Y-55603000D01*
X64438302Y-55699673D01*
X64259673Y-55878301D01*
X64163000Y-56111690D01*
X64163000Y-56167613D01*
X64018609Y-56022970D01*
X64875786Y-55165792D01*
X64875790Y-55165790D01*
X64875790Y-55165789D01*
X65005723Y-54971329D01*
X65242123Y-54925463D01*
X65454927Y-54785673D01*
X65498337Y-54721362D01*
X65640302Y-54863327D01*
X65873691Y-54960000D01*
X66464250Y-54960000D01*
X66623000Y-54801250D01*
X66623000Y-53827000D01*
X66603000Y-53827000D01*
X66603000Y-53573000D01*
X66623000Y-53573000D01*
X66623000Y-52598750D01*
X66464250Y-52440000D01*
X65946611Y-52440000D01*
X66007633Y-52348675D01*
X66007633Y-52348674D01*
X66018810Y-52292484D01*
X66057352Y-52098721D01*
X66195789Y-52006222D01*
X66460000Y-51610801D01*
X66724211Y-52006222D01*
X67185671Y-52314559D01*
X67730000Y-52422833D01*
X68274329Y-52314559D01*
X68735789Y-52006222D01*
X68847600Y-51838884D01*
X68847600Y-51879310D01*
X68944273Y-52112699D01*
X69122902Y-52291327D01*
X69356291Y-52388000D01*
X69984250Y-52388000D01*
X70143000Y-52229250D01*
X70143000Y-50737000D01*
X70123000Y-50737000D01*
X70123000Y-50483000D01*
X70143000Y-50483000D01*
X70143000Y-50463000D01*
X70397000Y-50463000D01*
X70397000Y-50483000D01*
X70417000Y-50483000D01*
X70417000Y-50737000D01*
X70397000Y-50737000D01*
X70397000Y-52229250D01*
X70555750Y-52388000D01*
X71183709Y-52388000D01*
X71417098Y-52291327D01*
X71595727Y-52112699D01*
X71692400Y-51879310D01*
X71692400Y-51838884D01*
X71804211Y-52006222D01*
X72265671Y-52314559D01*
X72810000Y-52422833D01*
X73354329Y-52314559D01*
X73815789Y-52006222D01*
X74080000Y-51610801D01*
X74344211Y-52006222D01*
X74805671Y-52314559D01*
X75350000Y-52422833D01*
X75894329Y-52314559D01*
X76355789Y-52006222D01*
X76620000Y-51610801D01*
X76884211Y-52006222D01*
X77345671Y-52314559D01*
X77890000Y-52422833D01*
X78434329Y-52314559D01*
X78895789Y-52006222D01*
X79160000Y-51610801D01*
X79424211Y-52006222D01*
X79885671Y-52314559D01*
X80430000Y-52422833D01*
X80974329Y-52314559D01*
X81435789Y-52006222D01*
X81700000Y-51610801D01*
X81964211Y-52006222D01*
X82425671Y-52314559D01*
X82970000Y-52422833D01*
X83514329Y-52314559D01*
X83975789Y-52006222D01*
X84240000Y-51610801D01*
X84504211Y-52006222D01*
X84965671Y-52314559D01*
X85510000Y-52422833D01*
X86054329Y-52314559D01*
X86515789Y-52006222D01*
X86824126Y-51544762D01*
X86932400Y-51000433D01*
X86932400Y-50219567D01*
X86824126Y-49675238D01*
X86515789Y-49213778D01*
X86054329Y-48905441D01*
X85510000Y-48797167D01*
X84965671Y-48905441D01*
X84504211Y-49213778D01*
X84240000Y-49609198D01*
X83975789Y-49213778D01*
X83514329Y-48905441D01*
X82970000Y-48797167D01*
X82425671Y-48905441D01*
X81964211Y-49213778D01*
X81700000Y-49609198D01*
X81435789Y-49213778D01*
X80974329Y-48905441D01*
X80430000Y-48797167D01*
X79885671Y-48905441D01*
X79424211Y-49213778D01*
X79160000Y-49609198D01*
X78895789Y-49213778D01*
X78434329Y-48905441D01*
X77890000Y-48797167D01*
X77345671Y-48905441D01*
X76884211Y-49213778D01*
X76620000Y-49609198D01*
X76355789Y-49213778D01*
X75894329Y-48905441D01*
X75350000Y-48797167D01*
X74805671Y-48905441D01*
X74635000Y-49019479D01*
X74635000Y-47551310D01*
X74635000Y-47298691D01*
X74635000Y-47085750D01*
X74476250Y-46927000D01*
X73377000Y-46927000D01*
X73377000Y-47901250D01*
X73535750Y-48060000D01*
X74126309Y-48060000D01*
X74359698Y-47963327D01*
X74538327Y-47784699D01*
X74635000Y-47551310D01*
X74635000Y-49019479D01*
X74344211Y-49213778D01*
X74080000Y-49609198D01*
X73815789Y-49213778D01*
X73354329Y-48905441D01*
X72810000Y-48797167D01*
X72265671Y-48905441D01*
X71804211Y-49213778D01*
X71692400Y-49381115D01*
X71692400Y-49340690D01*
X71595727Y-49107301D01*
X71417098Y-48928673D01*
X71183709Y-48832000D01*
X70642802Y-48832000D01*
X71287401Y-48187401D01*
X71364215Y-48072440D01*
X71500000Y-48072440D01*
X71742123Y-48025463D01*
X71954927Y-47885673D01*
X71998337Y-47821362D01*
X72140302Y-47963327D01*
X72373691Y-48060000D01*
X72964250Y-48060000D01*
X73123000Y-47901250D01*
X73123000Y-46927000D01*
X73103000Y-46927000D01*
X73103000Y-46673000D01*
X73123000Y-46673000D01*
X73123000Y-46653000D01*
X73377000Y-46653000D01*
X73377000Y-46673000D01*
X74476250Y-46673000D01*
X74635000Y-46514250D01*
X74635000Y-46301309D01*
X74635000Y-46048690D01*
X74605367Y-45977150D01*
X76525570Y-45977150D01*
X77174207Y-46625786D01*
X77174210Y-46625790D01*
X77174211Y-46625790D01*
X77461325Y-46817633D01*
X77461326Y-46817633D01*
X77517515Y-46828810D01*
X77800000Y-46885001D01*
X77800000Y-46885000D01*
X77800005Y-46885000D01*
X80398154Y-46885000D01*
X80399537Y-46892123D01*
X80539327Y-47104927D01*
X80750360Y-47247377D01*
X81000000Y-47297440D01*
X81065176Y-47297440D01*
X81124210Y-47385790D01*
X81924207Y-48185786D01*
X81924210Y-48185790D01*
X81924211Y-48185790D01*
X82211325Y-48377633D01*
X82211326Y-48377633D01*
X82267515Y-48388810D01*
X82550000Y-48445001D01*
X82550000Y-48445000D01*
X82550005Y-48445000D01*
X96602846Y-48445000D01*
X96602758Y-48546661D01*
X96814990Y-49060303D01*
X97167071Y-49413000D01*
X97111690Y-49413000D01*
X96878301Y-49509673D01*
X96699673Y-49688302D01*
X96603000Y-49921691D01*
X96603000Y-50524250D01*
X96761750Y-50683000D01*
X97873000Y-50683000D01*
X97873000Y-50663000D01*
X98127000Y-50663000D01*
X98127000Y-50683000D01*
X98147000Y-50683000D01*
X98147000Y-50937000D01*
X98127000Y-50937000D01*
X98127000Y-52048250D01*
X98158750Y-52080000D01*
X98127000Y-52111750D01*
X98127000Y-53223000D01*
X98147000Y-53223000D01*
X98147000Y-53477000D01*
X98127000Y-53477000D01*
X98127000Y-54588250D01*
X98285750Y-54747000D01*
X98635691Y-54747000D01*
X98888310Y-54747000D01*
X99121699Y-54650327D01*
X99300327Y-54471698D01*
X99315000Y-54436274D01*
X99315000Y-56261342D01*
M02*
