M48
INCH,TZ
T1C0.025
T2C0.032
T3C0.040
T4C0.045
T5C0.046
T6C0.050
T7C0.100
%
G90
G05
T1
X4.5866Y-1.6634
X4.685Y-1.6634
X4.7638Y-1.6634
X4.8425Y-1.4862
T2
X1.3307Y-1.526
X1.3307Y-1.626
X1.8583Y-2.2138
X1.8583Y-2.3138
X2.0354Y-2.2138
X2.0354Y-2.3138
X2.0665Y-1.6925
X2.0665Y-1.9925
X2.1665Y-1.6925
X2.1665Y-1.9925
X2.2665Y-1.6925
X2.2665Y-1.9925
X2.337Y-1.4213
X2.3665Y-1.6925
X2.3665Y-1.9925
X2.4331Y-1.4213
X2.4665Y-1.6925
X2.4665Y-1.9925
X2.5292Y-1.4213
X2.5665Y-1.6925
X2.5665Y-1.9925
X2.6665Y-1.6925
X2.6665Y-1.9925
X2.7665Y-1.6925
X2.7665Y-1.9925
X2.8665Y-1.6925
X2.8665Y-1.9925
X2.9665Y-1.6925
X2.9665Y-1.9925
X3.0665Y-1.6925
X3.0665Y-1.9925
X3.1665Y-1.6925
X3.1665Y-1.9925
X3.2665Y-1.6925
X3.2665Y-1.9925
X3.3665Y-1.6925
X3.3665Y-1.9925
X4.626Y-1.4854
X4.626Y-1.5854
T3
X1.6929Y-1.889
X1.6929Y-1.989
X1.7717Y-1.2484
X1.7717Y-1.3484
X1.7717Y-1.4484
X1.8941Y-1.2441
X1.8961Y-1.3713
X1.8961Y-1.4713
X1.9941Y-1.2441
X1.9961Y-1.3713
X1.9961Y-1.4713
X2.0941Y-1.2441
X2.0961Y-1.3713
X2.0961Y-1.4713
X2.1941Y-1.2441
X2.2618Y-2.2441
X2.2941Y-1.2441
X2.3618Y-2.2441
X2.3941Y-1.2441
X2.4618Y-2.2441
X2.4941Y-1.2441
X2.5618Y-2.2441
X2.5941Y-1.2441
X2.6618Y-2.2441
X2.7583Y-1.4173
X2.7602Y-1.2441
X2.7618Y-2.2441
X2.8583Y-1.4173
X2.8602Y-1.2441
X2.9583Y-1.4173
X2.9587Y-2.2441
X2.9602Y-1.2441
X3.0587Y-2.2441
X3.0602Y-1.2441
X3.1587Y-2.2441
X3.1602Y-1.2441
X3.2587Y-2.2441
X3.2602Y-1.2441
X3.3587Y-2.2441
X3.3602Y-1.2441
X3.4587Y-2.2441
X3.4602Y-1.2441
X3.5846Y-1.2618
X3.5846Y-1.439
X3.8406Y-1.2618
X3.8406Y-1.439
X3.8583Y-1.6004
X3.8583Y-1.7004
X3.8583Y-1.8004
X3.8583Y-1.9004
X3.8583Y-2.0004
X3.8583Y-2.1004
X4.376Y-2.126
X4.476Y-2.126
X4.576Y-2.126
X4.676Y-2.126
X4.776Y-2.126
X4.876Y-2.126
T4
X1.4157Y-1.2992
X1.5157Y-1.2992
X1.6157Y-1.2992
T6
X1.2243Y-2.3019
X1.4843Y-2.3019
X1.6339Y-1.6118
X1.6339Y-1.7618
X4.496Y-1.2434
X4.756Y-1.2434
T7
X1.2598Y-1.2598
X1.6732Y-2.1654
X3.4449Y-1.378
X3.8583Y-2.2835
X4.4094Y-2.2835
X4.8425Y-2.2835
T5
X1.2973Y-1.8072G85X1.4113Y-1.8072
G05
X1.3073Y-2.0472G85X1.4013Y-2.0472
G05
X1.5543Y-1.9692G85X1.5543Y-1.8752
G05
T0
M30
