G04 #@! TF.FileFunction,Soldermask,Top*
%FSLAX46Y46*%
G04 Gerber Fmt 4.6, Leading zero omitted, Abs format (unit mm)*
G04 Created by KiCad (PCBNEW 0.201411181401+5290~19~ubuntu14.10.1-product) date Tuesday 02 December 2014 11:12:42 PM IST*
%MOMM*%
G01*
G04 APERTURE LIST*
%ADD10C,0.100000*%
%ADD11C,1.778000*%
%ADD12R,1.778000X1.778000*%
%ADD13C,3.048000*%
%ADD14R,4.572000X3.048000*%
%ADD15O,4.572000X3.048000*%
%ADD16O,3.048000X4.572000*%
%ADD17C,1.524000*%
%ADD18R,1.524000X1.524000*%
%ADD19O,1.574800X2.286000*%
%ADD20R,1.574800X2.286000*%
%ADD21C,1.905000*%
%ADD22C,1.501140*%
%ADD23R,1.501140X1.501140*%
G04 APERTURE END LIST*
D10*
X100000000Y-58000000D02*
X100000000Y-32000000D01*
X100000000Y-32000000D02*
G75*
G03X98000000Y-30000000I-2000000J0D01*
G01*
X98000000Y-60000000D02*
G75*
G03X100000000Y-58000000I0J2000000D01*
G01*
X32000000Y-30000000D02*
G75*
G03X30000000Y-32000000I0J-2000000D01*
G01*
X30000000Y-60000000D02*
X30000000Y-32000000D01*
X98000000Y-60000000D02*
X30000000Y-60000000D01*
X32000000Y-30000000D02*
X98000000Y-30000000D01*
D11*
X35960000Y-32870000D03*
D12*
X38500000Y-32870000D03*
D11*
X41040000Y-32870000D03*
D12*
X98250000Y-32000000D03*
D11*
X91750000Y-36500000D03*
X98250000Y-36500000D03*
D12*
X91750000Y-32000000D03*
D13*
X98000000Y-58000000D03*
X42500000Y-55000000D03*
D14*
X34400000Y-52000000D03*
D15*
X34400000Y-45904000D03*
D16*
X39480000Y-48825000D03*
D17*
X50320000Y-37950000D03*
X50320000Y-35410000D03*
X52860000Y-37950000D03*
X52860000Y-35410000D03*
X55400000Y-37950000D03*
D18*
X55400000Y-35410000D03*
D17*
X65560000Y-31600000D03*
X63020000Y-31600000D03*
X60480000Y-31600000D03*
X57940000Y-31600000D03*
X55400000Y-31600000D03*
X52860000Y-31600000D03*
D18*
X50320000Y-31600000D03*
D17*
X47780000Y-31600000D03*
X88420000Y-31600000D03*
X85880000Y-31600000D03*
X83340000Y-31600000D03*
X80800000Y-31600000D03*
X78260000Y-31600000D03*
X75720000Y-31600000D03*
X73180000Y-31600000D03*
X70640000Y-31600000D03*
X88420000Y-57000000D03*
X85880000Y-57000000D03*
X83340000Y-57000000D03*
X80800000Y-57000000D03*
X78260000Y-57000000D03*
X75720000Y-57000000D03*
X70640000Y-57000000D03*
D18*
X68100000Y-57000000D03*
X65560000Y-57000000D03*
D17*
X63020000Y-57000000D03*
X60480000Y-57000000D03*
X57940000Y-57000000D03*
X45230000Y-32870000D03*
X45230000Y-35410000D03*
X45230000Y-37950000D03*
X51700000Y-56230000D03*
D18*
X51700000Y-58770000D03*
D17*
X47200000Y-56230000D03*
D18*
X47200000Y-58770000D03*
D19*
X82970000Y-42990000D03*
X80430000Y-42990000D03*
X77890000Y-42990000D03*
X75350000Y-42990000D03*
X72810000Y-42990000D03*
X70270000Y-42990000D03*
D20*
X67730000Y-42990000D03*
D19*
X65190000Y-42990000D03*
X62650000Y-42990000D03*
X60110000Y-42990000D03*
X57570000Y-42990000D03*
X55030000Y-42990000D03*
X52490000Y-42990000D03*
X85510000Y-42990000D03*
X52490000Y-50610000D03*
X55030000Y-50610000D03*
X57570000Y-50610000D03*
X60110000Y-50610000D03*
X62650000Y-50610000D03*
X65190000Y-50610000D03*
X67730000Y-50610000D03*
D20*
X70270000Y-50610000D03*
D19*
X72810000Y-50610000D03*
X75350000Y-50610000D03*
X77890000Y-50610000D03*
X80430000Y-50610000D03*
X82970000Y-50610000D03*
X85510000Y-50610000D03*
D18*
X98000000Y-53350000D03*
X98000000Y-50810000D03*
D17*
X98000000Y-48270000D03*
X98000000Y-45730000D03*
X98000000Y-43190000D03*
X98000000Y-40650000D03*
D21*
X37702000Y-58467000D03*
X31098000Y-58467000D03*
D22*
X65450940Y-36080000D03*
X60569060Y-36080000D03*
D23*
X63010000Y-36080000D03*
D11*
X42700000Y-43760000D03*
D12*
X42700000Y-39950000D03*
D13*
X32000000Y-32000000D03*
X87500000Y-35000000D03*
D17*
X70640000Y-35410000D03*
X73180000Y-35410000D03*
X75720000Y-35410000D03*
D23*
X34910000Y-39970000D03*
D22*
X37450000Y-39970000D03*
D18*
X42700000Y-49380000D03*
D17*
X42700000Y-46840000D03*
M02*
