G04 #@! TF.FileFunction,Soldermask,Top*
%FSLAX46Y46*%
G04 Gerber Fmt 4.6, Leading zero omitted, Abs format (unit mm)*
G04 Created by KiCad (PCBNEW (2014-12-01 BZR 5309)-product) date Tue Dec  2 18:18:23 2014*
%MOMM*%
G01*
G04 APERTURE LIST*
%ADD10C,0.100000*%
%ADD11C,1.778000*%
%ADD12R,1.778000X1.778000*%
%ADD13C,3.048000*%
%ADD14R,4.572000X3.048000*%
%ADD15O,4.572000X3.048000*%
%ADD16O,3.048000X4.572000*%
%ADD17C,1.524000*%
%ADD18R,1.524000X1.524000*%
%ADD19O,1.574800X2.286000*%
%ADD20R,1.574800X2.286000*%
%ADD21C,1.905000*%
%ADD22C,1.501140*%
%ADD23R,1.501140X1.501140*%
%ADD24R,1.250000X1.500000*%
%ADD25R,0.406400X1.371600*%
%ADD26R,1.600200X1.422400*%
%ADD27R,1.905000X1.905000*%
%ADD28R,1.500000X1.300000*%
%ADD29R,0.492760X0.942340*%
%ADD30R,0.942340X0.492760*%
%ADD31R,2.042160X2.042160*%
%ADD32R,1.200000X1.200000*%
G04 APERTURE END LIST*
D10*
X125000000Y-49000000D02*
X125000000Y-46000000D01*
X110000000Y-49000000D02*
X110000000Y-46000000D01*
X110000000Y-49000000D02*
X125000000Y-49000000D01*
X125000000Y-46000000D02*
X125000000Y-44000000D01*
X125000000Y-44000000D02*
X125000000Y-32000000D01*
X100000000Y-46000000D02*
X110000000Y-46000000D01*
X100000000Y-58000000D02*
X100000000Y-46000000D01*
X110000000Y-44000000D02*
X110000000Y-32000000D01*
X100000000Y-44000000D02*
X110000000Y-44000000D01*
X100000000Y-32000000D02*
X100000000Y-44000000D01*
X123000000Y-30000000D02*
X112000000Y-30000000D01*
X125000000Y-32000000D02*
G75*
G03X123000000Y-30000000I-2000000J0D01*
G01*
X112000000Y-30000000D02*
G75*
G03X110000000Y-32000000I0J-2000000D01*
G01*
X100000000Y-32000000D02*
G75*
G03X98000000Y-30000000I-2000000J0D01*
G01*
X98000000Y-60000000D02*
G75*
G03X100000000Y-58000000I0J2000000D01*
G01*
X32000000Y-30000000D02*
G75*
G03X30000000Y-32000000I0J-2000000D01*
G01*
X30000000Y-60000000D02*
X30000000Y-32000000D01*
X98000000Y-60000000D02*
X30000000Y-60000000D01*
X32000000Y-30000000D02*
X98000000Y-30000000D01*
D11*
X35960000Y-32870000D03*
D12*
X38500000Y-32870000D03*
D11*
X41040000Y-32870000D03*
D12*
X98250000Y-32000000D03*
D11*
X91750000Y-36500000D03*
X98250000Y-36500000D03*
D12*
X91750000Y-32000000D03*
D13*
X98000000Y-58000000D03*
X42500000Y-55000000D03*
D14*
X34400000Y-52000000D03*
D15*
X34400000Y-45904000D03*
D16*
X39480000Y-48825000D03*
D17*
X50320000Y-37950000D03*
X50320000Y-35410000D03*
X52860000Y-37950000D03*
X52860000Y-35410000D03*
X55400000Y-37950000D03*
D18*
X55400000Y-35410000D03*
D17*
X65560000Y-31600000D03*
X63020000Y-31600000D03*
X60480000Y-31600000D03*
X57940000Y-31600000D03*
X55400000Y-31600000D03*
X52860000Y-31600000D03*
D18*
X50320000Y-31600000D03*
D17*
X47780000Y-31600000D03*
X88420000Y-31600000D03*
X85880000Y-31600000D03*
X83340000Y-31600000D03*
X80800000Y-31600000D03*
X78260000Y-31600000D03*
X75720000Y-31600000D03*
X73180000Y-31600000D03*
X70640000Y-31600000D03*
X88420000Y-57000000D03*
X85880000Y-57000000D03*
X83340000Y-57000000D03*
X80800000Y-57000000D03*
X78260000Y-57000000D03*
X75720000Y-57000000D03*
X70640000Y-57000000D03*
D18*
X68100000Y-57000000D03*
X65560000Y-57000000D03*
D17*
X63020000Y-57000000D03*
X60480000Y-57000000D03*
X57940000Y-57000000D03*
X45230000Y-32870000D03*
X45230000Y-35410000D03*
X45230000Y-37950000D03*
X51700000Y-56230000D03*
D18*
X51700000Y-58770000D03*
D17*
X47200000Y-56230000D03*
D18*
X47200000Y-58770000D03*
D19*
X82970000Y-42990000D03*
X80430000Y-42990000D03*
X77890000Y-42990000D03*
X75350000Y-42990000D03*
X72810000Y-42990000D03*
X70270000Y-42990000D03*
D20*
X67730000Y-42990000D03*
D19*
X65190000Y-42990000D03*
X62650000Y-42990000D03*
X60110000Y-42990000D03*
X57570000Y-42990000D03*
X55030000Y-42990000D03*
X52490000Y-42990000D03*
X85510000Y-42990000D03*
X52490000Y-50610000D03*
X55030000Y-50610000D03*
X57570000Y-50610000D03*
X60110000Y-50610000D03*
X62650000Y-50610000D03*
X65190000Y-50610000D03*
X67730000Y-50610000D03*
D20*
X70270000Y-50610000D03*
D19*
X72810000Y-50610000D03*
X75350000Y-50610000D03*
X77890000Y-50610000D03*
X80430000Y-50610000D03*
X82970000Y-50610000D03*
X85510000Y-50610000D03*
D18*
X98000000Y-53350000D03*
X98000000Y-50810000D03*
D17*
X98000000Y-48270000D03*
X98000000Y-45730000D03*
X98000000Y-43190000D03*
X98000000Y-40650000D03*
D21*
X37702000Y-58467000D03*
X31098000Y-58467000D03*
D22*
X65450940Y-36080000D03*
X60569060Y-36080000D03*
D23*
X63010000Y-36080000D03*
D11*
X42700000Y-43760000D03*
D12*
X42700000Y-39950000D03*
D13*
X32000000Y-32000000D03*
X87500000Y-35000000D03*
D17*
X70640000Y-35410000D03*
X73180000Y-35410000D03*
X75720000Y-35410000D03*
D23*
X34910000Y-39970000D03*
D22*
X37450000Y-39970000D03*
D24*
X121925000Y-44000000D03*
X121925000Y-41500000D03*
X123925000Y-46850000D03*
X123925000Y-44350000D03*
D25*
X117500000Y-34250000D03*
X116849760Y-34250000D03*
X116199520Y-34250000D03*
X118150240Y-34250000D03*
X118800480Y-34250000D03*
D26*
X120675000Y-33996000D03*
X114325000Y-33996000D03*
D27*
X118706500Y-31583000D03*
X116293500Y-31583000D03*
D21*
X120802000Y-31583000D03*
X114198000Y-31583000D03*
D28*
X119650000Y-36775000D03*
X122350000Y-36775000D03*
D29*
X116199520Y-46849880D03*
X116849760Y-46849880D03*
X117500000Y-46849880D03*
X118150240Y-46849880D03*
D30*
X120352420Y-45950720D03*
X120352420Y-45300480D03*
X120352420Y-44650240D03*
X120352420Y-44000000D03*
X120352420Y-43349760D03*
X120352420Y-42699520D03*
X120352420Y-42049280D03*
D29*
X115549280Y-46849880D03*
D31*
X118449960Y-44949960D03*
X116550040Y-44949960D03*
X116550040Y-43050040D03*
X118449960Y-43050040D03*
D29*
X119501520Y-41147580D03*
X118851280Y-41147580D03*
X118201040Y-41147580D03*
X117500000Y-41147580D03*
X116900560Y-41147580D03*
X116250320Y-41147580D03*
X115600080Y-41147580D03*
D30*
X114650120Y-42049280D03*
X114650120Y-42699520D03*
X114650120Y-43349760D03*
X114650120Y-44000000D03*
X114650120Y-44650240D03*
X114650120Y-45300480D03*
X114650120Y-45950720D03*
D29*
X118800480Y-46849880D03*
X119450720Y-46849880D03*
D18*
X42700000Y-49380000D03*
D17*
X42700000Y-46840000D03*
D32*
X123400000Y-34150000D03*
X123400000Y-32050000D03*
D18*
X123850000Y-39000000D03*
X121310000Y-39000000D03*
D17*
X118770000Y-39000000D03*
X116230000Y-39000000D03*
X113690000Y-39000000D03*
X111150000Y-39000000D03*
M02*
