G04 #@! TF.FileFunction,Copper,L1,Top,Signal*
%FSLAX46Y46*%
G04 Gerber Fmt 4.6, Leading zero omitted, Abs format (unit mm)*
G04 Created by KiCad (PCBNEW (2014-11-14 BZR 5284)-product) date Sat Nov 29 17:27:18 2014*
%MOMM*%
G01*
G04 APERTURE LIST*
%ADD10C,0.100000*%
%ADD11C,0.150000*%
%ADD12C,0.300000*%
%ADD13C,0.400000*%
%ADD14C,1.778000*%
%ADD15R,1.778000X1.778000*%
%ADD16R,2.540000X2.540000*%
%ADD17C,2.540000*%
%ADD18C,3.048000*%
%ADD19R,4.572000X3.048000*%
%ADD20O,4.572000X3.048000*%
%ADD21O,3.048000X4.572000*%
%ADD22C,1.524000*%
%ADD23R,1.524000X1.524000*%
%ADD24O,1.727200X2.032000*%
%ADD25R,1.727200X2.032000*%
%ADD26C,1.676400*%
%ADD27R,1.676400X1.676400*%
%ADD28O,1.574800X2.286000*%
%ADD29R,1.574800X2.286000*%
%ADD30C,1.905000*%
%ADD31C,1.501140*%
%ADD32R,1.501140X1.501140*%
%ADD33C,1.998980*%
%ADD34R,1.998980X1.998980*%
%ADD35C,0.500000*%
%ADD36C,0.250000*%
G04 APERTURE END LIST*
D10*
D11*
X177002200Y-166007200D02*
X177002200Y-198007200D01*
X285002200Y-198007200D01*
X285002200Y-166007200D01*
X177002200Y-166007200D01*
D10*
D11*
X10000000Y-10000000D02*
X10000000Y-200007200D01*
X287002200Y-200007200D01*
X287002200Y-10000000D01*
X10000000Y-10000000D01*
D10*
D11*
X12000000Y-12000000D02*
X12000000Y-198007200D01*
X285002200Y-198007200D01*
X285002200Y-12000000D01*
X12000000Y-12000000D01*
D10*
D11*
X60000000Y-12000000D02*
X60000000Y-10000000D01*
D10*
D11*
X110000000Y-12000000D02*
X110000000Y-10000000D01*
D10*
D11*
X160000000Y-12000000D02*
X160000000Y-10000000D01*
D10*
D11*
X210000000Y-12000000D02*
X210000000Y-10000000D01*
D10*
D11*
X260000000Y-12000000D02*
X260000000Y-10000000D01*
D10*
D11*
X35990476Y-11588095D02*
X35247619Y-11588095D01*
X35619048Y-11588095D02*
X35619048Y-10288095D01*
X35495238Y-10473810D01*
X35371429Y-10597619D01*
X35247619Y-10659524D01*
D10*
D11*
X85247619Y-10411905D02*
X85309524Y-10350000D01*
X85433333Y-10288095D01*
X85742857Y-10288095D01*
X85866667Y-10350000D01*
X85928571Y-10411905D01*
X85990476Y-10535714D01*
X85990476Y-10659524D01*
X85928571Y-10845238D01*
X85185714Y-11588095D01*
X85990476Y-11588095D01*
D10*
D11*
X135185714Y-10288095D02*
X135990476Y-10288095D01*
X135557143Y-10783333D01*
X135742857Y-10783333D01*
X135866667Y-10845238D01*
X135928571Y-10907143D01*
X135990476Y-11030952D01*
X135990476Y-11340476D01*
X135928571Y-11464286D01*
X135866667Y-11526190D01*
X135742857Y-11588095D01*
X135371429Y-11588095D01*
X135247619Y-11526190D01*
X135185714Y-11464286D01*
D10*
D11*
X185866667Y-10721429D02*
X185866667Y-11588095D01*
X185557143Y-10226190D02*
X185247619Y-11154762D01*
X186052381Y-11154762D01*
D10*
D11*
X235928571Y-10288095D02*
X235309524Y-10288095D01*
X235247619Y-10907143D01*
X235309524Y-10845238D01*
X235433333Y-10783333D01*
X235742857Y-10783333D01*
X235866667Y-10845238D01*
X235928571Y-10907143D01*
X235990476Y-11030952D01*
X235990476Y-11340476D01*
X235928571Y-11464286D01*
X235866667Y-11526190D01*
X235742857Y-11588095D01*
X235433333Y-11588095D01*
X235309524Y-11526190D01*
X235247619Y-11464286D01*
D10*
D11*
X285866667Y-10288095D02*
X285619048Y-10288095D01*
X285495238Y-10350000D01*
X285433333Y-10411905D01*
X285309524Y-10597619D01*
X285247619Y-10845238D01*
X285247619Y-11340476D01*
X285309524Y-11464286D01*
X285371429Y-11526190D01*
X285495238Y-11588095D01*
X285742857Y-11588095D01*
X285866667Y-11526190D01*
X285928571Y-11464286D01*
X285990476Y-11340476D01*
X285990476Y-11030952D01*
X285928571Y-10907143D01*
X285866667Y-10845238D01*
X285742857Y-10783333D01*
X285495238Y-10783333D01*
X285371429Y-10845238D01*
X285309524Y-10907143D01*
X285247619Y-11030952D01*
D10*
D11*
X60000000Y-198007200D02*
X60000000Y-200007200D01*
D10*
D11*
X110000000Y-198007200D02*
X110000000Y-200007200D01*
D10*
D11*
X160000000Y-198007200D02*
X160000000Y-200007200D01*
D10*
D11*
X210000000Y-198007200D02*
X210000000Y-200007200D01*
D10*
D11*
X260000000Y-198007200D02*
X260000000Y-200007200D01*
D10*
D11*
X35990476Y-199595295D02*
X35247619Y-199595295D01*
X35619048Y-199595295D02*
X35619048Y-198295295D01*
X35495238Y-198481010D01*
X35371429Y-198604819D01*
X35247619Y-198666724D01*
D10*
D11*
X85247619Y-198419105D02*
X85309524Y-198357200D01*
X85433333Y-198295295D01*
X85742857Y-198295295D01*
X85866667Y-198357200D01*
X85928571Y-198419105D01*
X85990476Y-198542914D01*
X85990476Y-198666724D01*
X85928571Y-198852438D01*
X85185714Y-199595295D01*
X85990476Y-199595295D01*
D10*
D11*
X135185714Y-198295295D02*
X135990476Y-198295295D01*
X135557143Y-198790533D01*
X135742857Y-198790533D01*
X135866667Y-198852438D01*
X135928571Y-198914343D01*
X135990476Y-199038152D01*
X135990476Y-199347676D01*
X135928571Y-199471486D01*
X135866667Y-199533390D01*
X135742857Y-199595295D01*
X135371429Y-199595295D01*
X135247619Y-199533390D01*
X135185714Y-199471486D01*
D10*
D11*
X185866667Y-198728629D02*
X185866667Y-199595295D01*
X185557143Y-198233390D02*
X185247619Y-199161962D01*
X186052381Y-199161962D01*
D10*
D11*
X235928571Y-198295295D02*
X235309524Y-198295295D01*
X235247619Y-198914343D01*
X235309524Y-198852438D01*
X235433333Y-198790533D01*
X235742857Y-198790533D01*
X235866667Y-198852438D01*
X235928571Y-198914343D01*
X235990476Y-199038152D01*
X235990476Y-199347676D01*
X235928571Y-199471486D01*
X235866667Y-199533390D01*
X235742857Y-199595295D01*
X235433333Y-199595295D01*
X235309524Y-199533390D01*
X235247619Y-199471486D01*
D10*
D11*
X285866667Y-198295295D02*
X285619048Y-198295295D01*
X285495238Y-198357200D01*
X285433333Y-198419105D01*
X285309524Y-198604819D01*
X285247619Y-198852438D01*
X285247619Y-199347676D01*
X285309524Y-199471486D01*
X285371429Y-199533390D01*
X285495238Y-199595295D01*
X285742857Y-199595295D01*
X285866667Y-199533390D01*
X285928571Y-199471486D01*
X285990476Y-199347676D01*
X285990476Y-199038152D01*
X285928571Y-198914343D01*
X285866667Y-198852438D01*
X285742857Y-198790533D01*
X285495238Y-198790533D01*
X285371429Y-198852438D01*
X285309524Y-198914343D01*
X285247619Y-199038152D01*
D10*
D11*
X10000000Y-60000000D02*
X12000000Y-60000000D01*
D10*
D11*
X10000000Y-110000000D02*
X12000000Y-110000000D01*
D10*
D11*
X10000000Y-160000000D02*
X12000000Y-160000000D01*
D10*
D11*
X10690476Y-35216667D02*
X11309524Y-35216667D01*
X10566667Y-35588095D02*
X11000000Y-34288095D01*
X11433333Y-35588095D01*
D10*
D11*
X11092857Y-84907143D02*
X11278571Y-84969048D01*
X11340476Y-85030952D01*
X11402381Y-85154762D01*
X11402381Y-85340476D01*
X11340476Y-85464286D01*
X11278571Y-85526190D01*
X11154762Y-85588095D01*
X10659524Y-85588095D01*
X10659524Y-84288095D01*
X11092857Y-84288095D01*
X11216667Y-84350000D01*
X11278571Y-84411905D01*
X11340476Y-84535714D01*
X11340476Y-84659524D01*
X11278571Y-84783333D01*
X11216667Y-84845238D01*
X11092857Y-84907143D01*
X10659524Y-84907143D01*
D10*
D11*
X11402381Y-135464286D02*
X11340476Y-135526190D01*
X11154762Y-135588095D01*
X11030952Y-135588095D01*
X10845238Y-135526190D01*
X10721429Y-135402381D01*
X10659524Y-135278571D01*
X10597619Y-135030952D01*
X10597619Y-134845238D01*
X10659524Y-134597619D01*
X10721429Y-134473810D01*
X10845238Y-134350000D01*
X11030952Y-134288095D01*
X11154762Y-134288095D01*
X11340476Y-134350000D01*
X11402381Y-134411905D01*
D10*
D11*
X10659524Y-185588095D02*
X10659524Y-184288095D01*
X10969048Y-184288095D01*
X11154762Y-184350000D01*
X11278571Y-184473810D01*
X11340476Y-184597619D01*
X11402381Y-184845238D01*
X11402381Y-185030952D01*
X11340476Y-185278571D01*
X11278571Y-185402381D01*
X11154762Y-185526190D01*
X10969048Y-185588095D01*
X10659524Y-185588095D01*
D10*
D11*
X287002200Y-60000000D02*
X285002200Y-60000000D01*
D10*
D11*
X287002200Y-110000000D02*
X285002200Y-110000000D01*
D10*
D11*
X287002200Y-160000000D02*
X285002200Y-160000000D01*
D10*
D11*
X285692676Y-35216667D02*
X286311724Y-35216667D01*
X285568867Y-35588095D02*
X286002200Y-34288095D01*
X286435533Y-35588095D01*
D10*
D11*
X286095057Y-84907143D02*
X286280771Y-84969048D01*
X286342676Y-85030952D01*
X286404581Y-85154762D01*
X286404581Y-85340476D01*
X286342676Y-85464286D01*
X286280771Y-85526190D01*
X286156962Y-85588095D01*
X285661724Y-85588095D01*
X285661724Y-84288095D01*
X286095057Y-84288095D01*
X286218867Y-84350000D01*
X286280771Y-84411905D01*
X286342676Y-84535714D01*
X286342676Y-84659524D01*
X286280771Y-84783333D01*
X286218867Y-84845238D01*
X286095057Y-84907143D01*
X285661724Y-84907143D01*
D10*
D11*
X286404581Y-135464286D02*
X286342676Y-135526190D01*
X286156962Y-135588095D01*
X286033152Y-135588095D01*
X285847438Y-135526190D01*
X285723629Y-135402381D01*
X285661724Y-135278571D01*
X285599819Y-135030952D01*
X285599819Y-134845238D01*
X285661724Y-134597619D01*
X285723629Y-134473810D01*
X285847438Y-134350000D01*
X286033152Y-134288095D01*
X286156962Y-134288095D01*
X286342676Y-134350000D01*
X286404581Y-134411905D01*
D10*
D11*
X285661724Y-185588095D02*
X285661724Y-184288095D01*
X285971248Y-184288095D01*
X286156962Y-184350000D01*
X286280771Y-184473810D01*
X286342676Y-184597619D01*
X286404581Y-184845238D01*
X286404581Y-185030952D01*
X286342676Y-185278571D01*
X286280771Y-185402381D01*
X286156962Y-185526190D01*
X285971248Y-185588095D01*
X285661724Y-185588095D01*
D10*
D11*
X200359343Y-193785771D02*
X200359343Y-192285771D01*
X200716486Y-192285771D01*
X200930771Y-192357200D01*
X201073629Y-192500057D01*
X201145057Y-192642914D01*
X201216486Y-192928629D01*
X201216486Y-193142914D01*
X201145057Y-193428629D01*
X201073629Y-193571486D01*
X200930771Y-193714343D01*
X200716486Y-193785771D01*
X200359343Y-193785771D01*
X202502200Y-193785771D02*
X202502200Y-193000057D01*
X202430771Y-192857200D01*
X202287914Y-192785771D01*
X202002200Y-192785771D01*
X201859343Y-192857200D01*
X202502200Y-193714343D02*
X202359343Y-193785771D01*
X202002200Y-193785771D01*
X201859343Y-193714343D01*
X201787914Y-193571486D01*
X201787914Y-193428629D01*
X201859343Y-193285771D01*
X202002200Y-193214343D01*
X202359343Y-193214343D01*
X202502200Y-193142914D01*
X203002200Y-192785771D02*
X203573629Y-192785771D01*
X203216486Y-192285771D02*
X203216486Y-193571486D01*
X203287914Y-193714343D01*
X203430772Y-193785771D01*
X203573629Y-193785771D01*
X204645057Y-193714343D02*
X204502200Y-193785771D01*
X204216486Y-193785771D01*
X204073629Y-193714343D01*
X204002200Y-193571486D01*
X204002200Y-193000057D01*
X204073629Y-192857200D01*
X204216486Y-192785771D01*
X204502200Y-192785771D01*
X204645057Y-192857200D01*
X204716486Y-193000057D01*
X204716486Y-193142914D01*
X204002200Y-193285771D01*
X205359343Y-193642914D02*
X205430771Y-193714343D01*
X205359343Y-193785771D01*
X205287914Y-193714343D01*
X205359343Y-193642914D01*
X205359343Y-193785771D01*
X205359343Y-192857200D02*
X205430771Y-192928629D01*
X205359343Y-193000057D01*
X205287914Y-192928629D01*
X205359343Y-192857200D01*
X205359343Y-193000057D01*
D10*
D11*
X177002200Y-194507200D02*
X285002200Y-194507200D01*
D10*
D11*
X178359343Y-196585771D02*
X178359343Y-195085771D01*
X179216486Y-196585771D02*
X178573629Y-195728629D01*
X179216486Y-195085771D02*
X178359343Y-195942914D01*
X179859343Y-196585771D02*
X179859343Y-195585771D01*
X179859343Y-195085771D02*
X179787914Y-195157200D01*
X179859343Y-195228629D01*
X179930771Y-195157200D01*
X179859343Y-195085771D01*
X179859343Y-195228629D01*
X181430772Y-196442914D02*
X181359343Y-196514343D01*
X181145057Y-196585771D01*
X181002200Y-196585771D01*
X180787915Y-196514343D01*
X180645057Y-196371486D01*
X180573629Y-196228629D01*
X180502200Y-195942914D01*
X180502200Y-195728629D01*
X180573629Y-195442914D01*
X180645057Y-195300057D01*
X180787915Y-195157200D01*
X181002200Y-195085771D01*
X181145057Y-195085771D01*
X181359343Y-195157200D01*
X181430772Y-195228629D01*
X182716486Y-196585771D02*
X182716486Y-195800057D01*
X182645057Y-195657200D01*
X182502200Y-195585771D01*
X182216486Y-195585771D01*
X182073629Y-195657200D01*
X182716486Y-196514343D02*
X182573629Y-196585771D01*
X182216486Y-196585771D01*
X182073629Y-196514343D01*
X182002200Y-196371486D01*
X182002200Y-196228629D01*
X182073629Y-196085771D01*
X182216486Y-196014343D01*
X182573629Y-196014343D01*
X182716486Y-195942914D01*
X184073629Y-196585771D02*
X184073629Y-195085771D01*
X184073629Y-196514343D02*
X183930772Y-196585771D01*
X183645058Y-196585771D01*
X183502200Y-196514343D01*
X183430772Y-196442914D01*
X183359343Y-196300057D01*
X183359343Y-195871486D01*
X183430772Y-195728629D01*
X183502200Y-195657200D01*
X183645058Y-195585771D01*
X183930772Y-195585771D01*
X184073629Y-195657200D01*
X185930772Y-195800057D02*
X186430772Y-195800057D01*
X186645058Y-196585771D02*
X185930772Y-196585771D01*
X185930772Y-195085771D01*
X186645058Y-195085771D01*
X187287915Y-196442914D02*
X187359343Y-196514343D01*
X187287915Y-196585771D01*
X187216486Y-196514343D01*
X187287915Y-196442914D01*
X187287915Y-196585771D01*
X188002201Y-196585771D02*
X188002201Y-195085771D01*
X188359344Y-195085771D01*
X188573629Y-195157200D01*
X188716487Y-195300057D01*
X188787915Y-195442914D01*
X188859344Y-195728629D01*
X188859344Y-195942914D01*
X188787915Y-196228629D01*
X188716487Y-196371486D01*
X188573629Y-196514343D01*
X188359344Y-196585771D01*
X188002201Y-196585771D01*
X189502201Y-196442914D02*
X189573629Y-196514343D01*
X189502201Y-196585771D01*
X189430772Y-196514343D01*
X189502201Y-196442914D01*
X189502201Y-196585771D01*
X190145058Y-196157200D02*
X190859344Y-196157200D01*
X190002201Y-196585771D02*
X190502201Y-195085771D01*
X191002201Y-196585771D01*
X191502201Y-196442914D02*
X191573629Y-196514343D01*
X191502201Y-196585771D01*
X191430772Y-196514343D01*
X191502201Y-196442914D01*
X191502201Y-196585771D01*
X194502201Y-196585771D02*
X194502201Y-195085771D01*
X194645058Y-196014343D02*
X195073629Y-196585771D01*
X195073629Y-195585771D02*
X194502201Y-196157200D01*
X195716487Y-196585771D02*
X195716487Y-195585771D01*
X195716487Y-195085771D02*
X195645058Y-195157200D01*
X195716487Y-195228629D01*
X195787915Y-195157200D01*
X195716487Y-195085771D01*
X195716487Y-195228629D01*
X197073630Y-196514343D02*
X196930773Y-196585771D01*
X196645059Y-196585771D01*
X196502201Y-196514343D01*
X196430773Y-196442914D01*
X196359344Y-196300057D01*
X196359344Y-195871486D01*
X196430773Y-195728629D01*
X196502201Y-195657200D01*
X196645059Y-195585771D01*
X196930773Y-195585771D01*
X197073630Y-195657200D01*
X198359344Y-196585771D02*
X198359344Y-195800057D01*
X198287915Y-195657200D01*
X198145058Y-195585771D01*
X197859344Y-195585771D01*
X197716487Y-195657200D01*
X198359344Y-196514343D02*
X198216487Y-196585771D01*
X197859344Y-196585771D01*
X197716487Y-196514343D01*
X197645058Y-196371486D01*
X197645058Y-196228629D01*
X197716487Y-196085771D01*
X197859344Y-196014343D01*
X198216487Y-196014343D01*
X198359344Y-195942914D01*
X199716487Y-196585771D02*
X199716487Y-195085771D01*
X199716487Y-196514343D02*
X199573630Y-196585771D01*
X199287916Y-196585771D01*
X199145058Y-196514343D01*
X199073630Y-196442914D01*
X199002201Y-196300057D01*
X199002201Y-195871486D01*
X199073630Y-195728629D01*
X199145058Y-195657200D01*
X199287916Y-195585771D01*
X199573630Y-195585771D01*
X199716487Y-195657200D01*
X202002201Y-197157200D02*
X201930773Y-197085771D01*
X201787916Y-196871486D01*
X201716487Y-196728629D01*
X201645058Y-196514343D01*
X201573630Y-196157200D01*
X201573630Y-195871486D01*
X201645058Y-195514343D01*
X201716487Y-195300057D01*
X201787916Y-195157200D01*
X201930773Y-194942914D01*
X202002201Y-194871486D01*
X202502201Y-195228629D02*
X202573630Y-195157200D01*
X202716487Y-195085771D01*
X203073630Y-195085771D01*
X203216487Y-195157200D01*
X203287916Y-195228629D01*
X203359344Y-195371486D01*
X203359344Y-195514343D01*
X203287916Y-195728629D01*
X202430773Y-196585771D01*
X203359344Y-196585771D01*
X204287915Y-195085771D02*
X204430772Y-195085771D01*
X204573629Y-195157200D01*
X204645058Y-195228629D01*
X204716487Y-195371486D01*
X204787915Y-195657200D01*
X204787915Y-196014343D01*
X204716487Y-196300057D01*
X204645058Y-196442914D01*
X204573629Y-196514343D01*
X204430772Y-196585771D01*
X204287915Y-196585771D01*
X204145058Y-196514343D01*
X204073629Y-196442914D01*
X204002201Y-196300057D01*
X203930772Y-196014343D01*
X203930772Y-195657200D01*
X204002201Y-195371486D01*
X204073629Y-195228629D01*
X204145058Y-195157200D01*
X204287915Y-195085771D01*
X206216486Y-196585771D02*
X205359343Y-196585771D01*
X205787915Y-196585771D02*
X205787915Y-195085771D01*
X205645058Y-195300057D01*
X205502200Y-195442914D01*
X205359343Y-195514343D01*
X207502200Y-195585771D02*
X207502200Y-196585771D01*
X207145057Y-195014343D02*
X206787914Y-196085771D01*
X207716486Y-196085771D01*
X208287914Y-196014343D02*
X209430771Y-196014343D01*
X210930771Y-196585771D02*
X210073628Y-196585771D01*
X210502200Y-196585771D02*
X210502200Y-195085771D01*
X210359343Y-195300057D01*
X210216485Y-195442914D01*
X210073628Y-195514343D01*
X212359342Y-196585771D02*
X211502199Y-196585771D01*
X211930771Y-196585771D02*
X211930771Y-195085771D01*
X211787914Y-195300057D01*
X211645056Y-195442914D01*
X211502199Y-195514343D01*
X213002199Y-196014343D02*
X214145056Y-196014343D01*
X215645056Y-196585771D02*
X214787913Y-196585771D01*
X215216485Y-196585771D02*
X215216485Y-195085771D01*
X215073628Y-195300057D01*
X214930770Y-195442914D01*
X214787913Y-195514343D01*
X216930770Y-195585771D02*
X216930770Y-196585771D01*
X216573627Y-195014343D02*
X216216484Y-196085771D01*
X217145056Y-196085771D01*
X219359341Y-195800057D02*
X219573627Y-195871486D01*
X219645055Y-195942914D01*
X219716484Y-196085771D01*
X219716484Y-196300057D01*
X219645055Y-196442914D01*
X219573627Y-196514343D01*
X219430769Y-196585771D01*
X218859341Y-196585771D01*
X218859341Y-195085771D01*
X219359341Y-195085771D01*
X219502198Y-195157200D01*
X219573627Y-195228629D01*
X219645055Y-195371486D01*
X219645055Y-195514343D01*
X219573627Y-195657200D01*
X219502198Y-195728629D01*
X219359341Y-195800057D01*
X218859341Y-195800057D01*
X220216484Y-195085771D02*
X221216484Y-195085771D01*
X220216484Y-196585771D01*
X221216484Y-196585771D01*
X222645055Y-196585771D02*
X222145055Y-195871486D01*
X221787912Y-196585771D02*
X221787912Y-195085771D01*
X222359340Y-195085771D01*
X222502198Y-195157200D01*
X222573626Y-195228629D01*
X222645055Y-195371486D01*
X222645055Y-195585771D01*
X222573626Y-195728629D01*
X222502198Y-195800057D01*
X222359340Y-195871486D01*
X221787912Y-195871486D01*
X225145055Y-195085771D02*
X224430769Y-195085771D01*
X224359340Y-195800057D01*
X224430769Y-195728629D01*
X224573626Y-195657200D01*
X224930769Y-195657200D01*
X225073626Y-195728629D01*
X225145055Y-195800057D01*
X225216483Y-195942914D01*
X225216483Y-196300057D01*
X225145055Y-196442914D01*
X225073626Y-196514343D01*
X224930769Y-196585771D01*
X224573626Y-196585771D01*
X224430769Y-196514343D01*
X224359340Y-196442914D01*
X225787911Y-195228629D02*
X225859340Y-195157200D01*
X226002197Y-195085771D01*
X226359340Y-195085771D01*
X226502197Y-195157200D01*
X226573626Y-195228629D01*
X226645054Y-195371486D01*
X226645054Y-195514343D01*
X226573626Y-195728629D01*
X225716483Y-196585771D01*
X226645054Y-196585771D01*
X227502197Y-195728629D02*
X227359339Y-195657200D01*
X227287911Y-195585771D01*
X227216482Y-195442914D01*
X227216482Y-195371486D01*
X227287911Y-195228629D01*
X227359339Y-195157200D01*
X227502197Y-195085771D01*
X227787911Y-195085771D01*
X227930768Y-195157200D01*
X228002197Y-195228629D01*
X228073625Y-195371486D01*
X228073625Y-195442914D01*
X228002197Y-195585771D01*
X227930768Y-195657200D01*
X227787911Y-195728629D01*
X227502197Y-195728629D01*
X227359339Y-195800057D01*
X227287911Y-195871486D01*
X227216482Y-196014343D01*
X227216482Y-196300057D01*
X227287911Y-196442914D01*
X227359339Y-196514343D01*
X227502197Y-196585771D01*
X227787911Y-196585771D01*
X227930768Y-196514343D01*
X228002197Y-196442914D01*
X228073625Y-196300057D01*
X228073625Y-196014343D01*
X228002197Y-195871486D01*
X227930768Y-195800057D01*
X227787911Y-195728629D01*
X229359339Y-195585771D02*
X229359339Y-196585771D01*
X229002196Y-195014343D02*
X228645053Y-196085771D01*
X229573625Y-196085771D01*
X230002196Y-197157200D02*
X230073624Y-197085771D01*
X230216481Y-196871486D01*
X230287910Y-196728629D01*
X230359339Y-196514343D01*
X230430767Y-196157200D01*
X230430767Y-195871486D01*
X230359339Y-195514343D01*
X230287910Y-195300057D01*
X230216481Y-195157200D01*
X230073624Y-194942914D01*
X230002196Y-194871486D01*
X231145053Y-196014343D02*
X232287910Y-196014343D01*
X233002196Y-195585771D02*
X233002196Y-197085771D01*
X233002196Y-195657200D02*
X233145053Y-195585771D01*
X233430767Y-195585771D01*
X233573624Y-195657200D01*
X233645053Y-195728629D01*
X233716482Y-195871486D01*
X233716482Y-196300057D01*
X233645053Y-196442914D01*
X233573624Y-196514343D01*
X233430767Y-196585771D01*
X233145053Y-196585771D01*
X233002196Y-196514343D01*
X234359339Y-196585771D02*
X234359339Y-195585771D01*
X234359339Y-195871486D02*
X234430767Y-195728629D01*
X234502196Y-195657200D01*
X234645053Y-195585771D01*
X234787910Y-195585771D01*
X235502196Y-196585771D02*
X235359338Y-196514343D01*
X235287910Y-196442914D01*
X235216481Y-196300057D01*
X235216481Y-195871486D01*
X235287910Y-195728629D01*
X235359338Y-195657200D01*
X235502196Y-195585771D01*
X235716481Y-195585771D01*
X235859338Y-195657200D01*
X235930767Y-195728629D01*
X236002196Y-195871486D01*
X236002196Y-196300057D01*
X235930767Y-196442914D01*
X235859338Y-196514343D01*
X235716481Y-196585771D01*
X235502196Y-196585771D01*
X237287910Y-196585771D02*
X237287910Y-195085771D01*
X237287910Y-196514343D02*
X237145053Y-196585771D01*
X236859339Y-196585771D01*
X236716481Y-196514343D01*
X236645053Y-196442914D01*
X236573624Y-196300057D01*
X236573624Y-195871486D01*
X236645053Y-195728629D01*
X236716481Y-195657200D01*
X236859339Y-195585771D01*
X237145053Y-195585771D01*
X237287910Y-195657200D01*
X238645053Y-195585771D02*
X238645053Y-196585771D01*
X238002196Y-195585771D02*
X238002196Y-196371486D01*
X238073624Y-196514343D01*
X238216482Y-196585771D01*
X238430767Y-196585771D01*
X238573624Y-196514343D01*
X238645053Y-196442914D01*
X240002196Y-196514343D02*
X239859339Y-196585771D01*
X239573625Y-196585771D01*
X239430767Y-196514343D01*
X239359339Y-196442914D01*
X239287910Y-196300057D01*
X239287910Y-195871486D01*
X239359339Y-195728629D01*
X239430767Y-195657200D01*
X239573625Y-195585771D01*
X239859339Y-195585771D01*
X240002196Y-195657200D01*
X240430767Y-195585771D02*
X241002196Y-195585771D01*
X240645053Y-195085771D02*
X240645053Y-196371486D01*
X240716481Y-196514343D01*
X240859339Y-196585771D01*
X241002196Y-196585771D01*
D10*
D11*
X177002200Y-191507200D02*
X285002200Y-191507200D01*
D10*
D12*
X264216486Y-193785771D02*
X263716486Y-193071486D01*
X263359343Y-193785771D02*
X263359343Y-192285771D01*
X263930771Y-192285771D01*
X264073629Y-192357200D01*
X264145057Y-192428629D01*
X264216486Y-192571486D01*
X264216486Y-192785771D01*
X264145057Y-192928629D01*
X264073629Y-193000057D01*
X263930771Y-193071486D01*
X263359343Y-193071486D01*
X265430771Y-193714343D02*
X265287914Y-193785771D01*
X265002200Y-193785771D01*
X264859343Y-193714343D01*
X264787914Y-193571486D01*
X264787914Y-193000057D01*
X264859343Y-192857200D01*
X265002200Y-192785771D01*
X265287914Y-192785771D01*
X265430771Y-192857200D01*
X265502200Y-193000057D01*
X265502200Y-193142914D01*
X264787914Y-193285771D01*
X266002200Y-192785771D02*
X266359343Y-193785771D01*
X266716485Y-192785771D01*
X267287914Y-193642914D02*
X267359342Y-193714343D01*
X267287914Y-193785771D01*
X267216485Y-193714343D01*
X267287914Y-193642914D01*
X267287914Y-193785771D01*
X267287914Y-192857200D02*
X267359342Y-192928629D01*
X267287914Y-193000057D01*
X267216485Y-192928629D01*
X267287914Y-192857200D01*
X267287914Y-193000057D01*
X269002200Y-192785771D02*
X269359343Y-193785771D01*
X269716485Y-192785771D01*
X271073628Y-193785771D02*
X270216485Y-193785771D01*
X270645057Y-193785771D02*
X270645057Y-192285771D01*
X270502200Y-192500057D01*
X270359342Y-192642914D01*
X270216485Y-192714343D01*
D10*
D11*
X178287914Y-193714343D02*
X178502200Y-193785771D01*
X178859343Y-193785771D01*
X179002200Y-193714343D01*
X179073629Y-193642914D01*
X179145057Y-193500057D01*
X179145057Y-193357200D01*
X179073629Y-193214343D01*
X179002200Y-193142914D01*
X178859343Y-193071486D01*
X178573629Y-193000057D01*
X178430771Y-192928629D01*
X178359343Y-192857200D01*
X178287914Y-192714343D01*
X178287914Y-192571486D01*
X178359343Y-192428629D01*
X178430771Y-192357200D01*
X178573629Y-192285771D01*
X178930771Y-192285771D01*
X179145057Y-192357200D01*
X179787914Y-193785771D02*
X179787914Y-192785771D01*
X179787914Y-192285771D02*
X179716485Y-192357200D01*
X179787914Y-192428629D01*
X179859342Y-192357200D01*
X179787914Y-192285771D01*
X179787914Y-192428629D01*
X180359343Y-192785771D02*
X181145057Y-192785771D01*
X180359343Y-193785771D01*
X181145057Y-193785771D01*
X182287914Y-193714343D02*
X182145057Y-193785771D01*
X181859343Y-193785771D01*
X181716486Y-193714343D01*
X181645057Y-193571486D01*
X181645057Y-193000057D01*
X181716486Y-192857200D01*
X181859343Y-192785771D01*
X182145057Y-192785771D01*
X182287914Y-192857200D01*
X182359343Y-193000057D01*
X182359343Y-193142914D01*
X181645057Y-193285771D01*
X183002200Y-193642914D02*
X183073628Y-193714343D01*
X183002200Y-193785771D01*
X182930771Y-193714343D01*
X183002200Y-193642914D01*
X183002200Y-193785771D01*
X183002200Y-192857200D02*
X183073628Y-192928629D01*
X183002200Y-193000057D01*
X182930771Y-192928629D01*
X183002200Y-192857200D01*
X183002200Y-193000057D01*
X184787914Y-193357200D02*
X185502200Y-193357200D01*
X184645057Y-193785771D02*
X185145057Y-192285771D01*
X185645057Y-193785771D01*
X186787914Y-192785771D02*
X186787914Y-193785771D01*
X186430771Y-192214343D02*
X186073628Y-193285771D01*
X187002200Y-193285771D01*
D10*
D11*
X263359343Y-196585771D02*
X263359343Y-195085771D01*
X264716486Y-196585771D02*
X264716486Y-195085771D01*
X264716486Y-196514343D02*
X264573629Y-196585771D01*
X264287915Y-196585771D01*
X264145057Y-196514343D01*
X264073629Y-196442914D01*
X264002200Y-196300057D01*
X264002200Y-195871486D01*
X264073629Y-195728629D01*
X264145057Y-195657200D01*
X264287915Y-195585771D01*
X264573629Y-195585771D01*
X264716486Y-195657200D01*
X265430772Y-196442914D02*
X265502200Y-196514343D01*
X265430772Y-196585771D01*
X265359343Y-196514343D01*
X265430772Y-196442914D01*
X265430772Y-196585771D01*
X265430772Y-195657200D02*
X265502200Y-195728629D01*
X265430772Y-195800057D01*
X265359343Y-195728629D01*
X265430772Y-195657200D01*
X265430772Y-195800057D01*
X268073629Y-196585771D02*
X267216486Y-196585771D01*
X267645058Y-196585771D02*
X267645058Y-195085771D01*
X267502201Y-195300057D01*
X267359343Y-195442914D01*
X267216486Y-195514343D01*
X269787914Y-195014343D02*
X268502200Y-196942914D01*
X271073629Y-196585771D02*
X270216486Y-196585771D01*
X270645058Y-196585771D02*
X270645058Y-195085771D01*
X270502201Y-195300057D01*
X270359343Y-195442914D01*
X270216486Y-195514343D01*
D10*
D11*
X177002200Y-187507200D02*
X285002200Y-187507200D01*
D10*
D13*
X178454581Y-188211962D02*
X179597438Y-188211962D01*
X178776010Y-190211962D02*
X179026010Y-188211962D01*
X180014105Y-190211962D02*
X180180771Y-188878629D01*
X180264105Y-188211962D02*
X180156962Y-188307200D01*
X180240295Y-188402438D01*
X180347439Y-188307200D01*
X180264105Y-188211962D01*
X180240295Y-188402438D01*
X180847438Y-188878629D02*
X181609343Y-188878629D01*
X181216486Y-188211962D02*
X181002200Y-189926248D01*
X181073630Y-190116724D01*
X181252201Y-190211962D01*
X181442677Y-190211962D01*
X182395058Y-190211962D02*
X182216487Y-190116724D01*
X182145057Y-189926248D01*
X182359343Y-188211962D01*
X183930772Y-190116724D02*
X183728391Y-190211962D01*
X183347439Y-190211962D01*
X183168867Y-190116724D01*
X183097438Y-189926248D01*
X183192676Y-189164343D01*
X183311724Y-188973867D01*
X183514105Y-188878629D01*
X183895057Y-188878629D01*
X184073629Y-188973867D01*
X184145057Y-189164343D01*
X184121248Y-189354819D01*
X183145057Y-189545295D01*
X184895057Y-190021486D02*
X184978392Y-190116724D01*
X184871248Y-190211962D01*
X184787915Y-190116724D01*
X184895057Y-190021486D01*
X184871248Y-190211962D01*
X185026010Y-188973867D02*
X185109344Y-189069105D01*
X185002200Y-189164343D01*
X184918867Y-189069105D01*
X185026010Y-188973867D01*
X185002200Y-189164343D01*
X187347439Y-190211962D02*
X187597439Y-188211962D01*
X188085534Y-189640533D01*
X188930773Y-188211962D01*
X188680773Y-190211962D01*
X189609343Y-189640533D02*
X190561724Y-189640533D01*
X189347439Y-190211962D02*
X190264106Y-188211962D01*
X190680773Y-190211962D01*
X191347439Y-190211962D02*
X191597439Y-188211962D01*
X192359344Y-188211962D01*
X192537915Y-188307200D01*
X192621249Y-188402438D01*
X192692678Y-188592914D01*
X192656963Y-188878629D01*
X192537916Y-189069105D01*
X192430772Y-189164343D01*
X192228391Y-189259581D01*
X191466486Y-189259581D01*
X193633154Y-190211962D02*
X193454583Y-190116724D01*
X193371248Y-190021486D01*
X193299820Y-189831010D01*
X193371248Y-189259581D01*
X193490296Y-189069105D01*
X193597440Y-188973867D01*
X193799820Y-188878629D01*
X194085534Y-188878629D01*
X194264106Y-188973867D01*
X194347439Y-189069105D01*
X194418867Y-189259581D01*
X194347439Y-189831010D01*
X194228391Y-190021486D01*
X194121249Y-190116724D01*
X193918868Y-190211962D01*
X193633154Y-190211962D01*
X195323629Y-188878629D02*
X195156963Y-190211962D01*
X195299820Y-189069105D02*
X195406964Y-188973867D01*
X195609344Y-188878629D01*
X195895058Y-188878629D01*
X196073630Y-188973867D01*
X196145058Y-189164343D01*
X196014106Y-190211962D01*
X197740297Y-190116724D02*
X197537916Y-190211962D01*
X197156964Y-190211962D01*
X196978392Y-190116724D01*
X196906963Y-189926248D01*
X197002201Y-189164343D01*
X197121249Y-188973867D01*
X197323630Y-188878629D01*
X197704582Y-188878629D01*
X197883154Y-188973867D01*
X197954582Y-189164343D01*
X197930773Y-189354819D01*
X196954582Y-189545295D01*
X200299821Y-189450057D02*
X201823631Y-189450057D01*
X205002202Y-189164343D02*
X205276011Y-189259581D01*
X205359346Y-189354819D01*
X205430774Y-189545295D01*
X205395060Y-189831010D01*
X205276012Y-190021486D01*
X205168869Y-190116724D01*
X204966488Y-190211962D01*
X204204583Y-190211962D01*
X204454583Y-188211962D01*
X205121250Y-188211962D01*
X205299821Y-188307200D01*
X205383154Y-188402438D01*
X205454584Y-188592914D01*
X205430774Y-188783390D01*
X205311726Y-188973867D01*
X205204583Y-189069105D01*
X205002202Y-189164343D01*
X204335535Y-189164343D01*
X207061726Y-190211962D02*
X207192678Y-189164343D01*
X207121250Y-188973867D01*
X206942678Y-188878629D01*
X206561726Y-188878629D01*
X206359345Y-188973867D01*
X207073631Y-190116724D02*
X206871250Y-190211962D01*
X206395060Y-190211962D01*
X206216488Y-190116724D01*
X206145059Y-189926248D01*
X206168869Y-189735771D01*
X206287916Y-189545295D01*
X206490298Y-189450057D01*
X206966488Y-189450057D01*
X207168869Y-189354819D01*
X208014107Y-190211962D02*
X208180773Y-188878629D01*
X208133154Y-189259581D02*
X208252203Y-189069105D01*
X208359346Y-188973867D01*
X208561726Y-188878629D01*
X208752202Y-188878629D01*
X210026012Y-190116724D02*
X209823631Y-190211962D01*
X209442679Y-190211962D01*
X209264107Y-190116724D01*
X209192678Y-189926248D01*
X209287916Y-189164343D01*
X209406964Y-188973867D01*
X209609345Y-188878629D01*
X209990297Y-188878629D01*
X210168869Y-188973867D01*
X210240297Y-189164343D01*
X210216488Y-189354819D01*
X209240297Y-189545295D01*
X213287917Y-189164343D02*
X213561726Y-189259581D01*
X213645061Y-189354819D01*
X213716489Y-189545295D01*
X213680775Y-189831010D01*
X213561727Y-190021486D01*
X213454584Y-190116724D01*
X213252203Y-190211962D01*
X212490298Y-190211962D01*
X212740298Y-188211962D01*
X213406965Y-188211962D01*
X213585536Y-188307200D01*
X213668869Y-188402438D01*
X213740299Y-188592914D01*
X213716489Y-188783390D01*
X213597441Y-188973867D01*
X213490298Y-189069105D01*
X213287917Y-189164343D01*
X212621250Y-189164343D01*
X214776013Y-190211962D02*
X214597442Y-190116724D01*
X214514107Y-190021486D01*
X214442679Y-189831010D01*
X214514107Y-189259581D01*
X214633155Y-189069105D01*
X214740299Y-188973867D01*
X214942679Y-188878629D01*
X215228393Y-188878629D01*
X215406965Y-188973867D01*
X215490298Y-189069105D01*
X215561726Y-189259581D01*
X215490298Y-189831010D01*
X215371250Y-190021486D01*
X215264108Y-190116724D01*
X215061727Y-190211962D01*
X214776013Y-190211962D01*
X216466488Y-188878629D02*
X216299822Y-190211962D01*
X216442679Y-189069105D02*
X216549823Y-188973867D01*
X216752203Y-188878629D01*
X217037917Y-188878629D01*
X217216489Y-188973867D01*
X217287917Y-189164343D01*
X217156965Y-190211962D01*
X218883156Y-190116724D02*
X218680775Y-190211962D01*
X218299823Y-190211962D01*
X218121251Y-190116724D01*
X218049822Y-189926248D01*
X218145060Y-189164343D01*
X218264108Y-188973867D01*
X218466489Y-188878629D01*
X218847441Y-188878629D01*
X219026013Y-188973867D01*
X219097441Y-189164343D01*
X219073632Y-189354819D01*
X218097441Y-189545295D01*
X219740299Y-190116724D02*
X219918871Y-190211962D01*
X220299823Y-190211962D01*
X220502204Y-190116724D01*
X220621251Y-189926248D01*
X220633156Y-189831010D01*
X220561727Y-189640533D01*
X220383156Y-189545295D01*
X220097442Y-189545295D01*
X219918870Y-189450057D01*
X219847441Y-189259581D01*
X219859346Y-189164343D01*
X219978394Y-188973867D01*
X220180775Y-188878629D01*
X220466489Y-188878629D01*
X220645061Y-188973867D01*
X222942680Y-189640533D02*
X223895061Y-189640533D01*
X222680776Y-190211962D02*
X223597443Y-188211962D01*
X224014110Y-190211962D01*
X224680776Y-190211962D02*
X224847442Y-188878629D01*
X224799823Y-189259581D02*
X224918872Y-189069105D01*
X225026015Y-188973867D01*
X225228395Y-188878629D01*
X225418871Y-188878629D01*
X226776014Y-190211962D02*
X227026014Y-188211962D01*
X226787919Y-190116724D02*
X226585538Y-190211962D01*
X226204586Y-190211962D01*
X226026015Y-190116724D01*
X225942680Y-190021486D01*
X225871252Y-189831010D01*
X225942680Y-189259581D01*
X226061728Y-189069105D01*
X226168872Y-188973867D01*
X226371252Y-188878629D01*
X226752204Y-188878629D01*
X226930776Y-188973867D01*
X228752204Y-188878629D02*
X228585538Y-190211962D01*
X227895061Y-188878629D02*
X227764109Y-189926248D01*
X227835539Y-190116724D01*
X228014110Y-190211962D01*
X228299824Y-190211962D01*
X228502205Y-190116724D01*
X228609347Y-190021486D01*
X229537919Y-190211962D02*
X229704585Y-188878629D01*
X229787919Y-188211962D02*
X229680776Y-188307200D01*
X229764109Y-188402438D01*
X229871253Y-188307200D01*
X229787919Y-188211962D01*
X229764109Y-188402438D01*
X230656966Y-188878629D02*
X230490300Y-190211962D01*
X230633157Y-189069105D02*
X230740301Y-188973867D01*
X230942681Y-188878629D01*
X231228395Y-188878629D01*
X231406967Y-188973867D01*
X231478395Y-189164343D01*
X231347443Y-190211962D01*
X232585539Y-190211962D02*
X232406968Y-190116724D01*
X232323633Y-190021486D01*
X232252205Y-189831010D01*
X232323633Y-189259581D01*
X232442681Y-189069105D01*
X232549825Y-188973867D01*
X232752205Y-188878629D01*
X233037919Y-188878629D01*
X233216491Y-188973867D01*
X233299824Y-189069105D01*
X233371252Y-189259581D01*
X233299824Y-189831010D01*
X233180776Y-190021486D01*
X233073634Y-190116724D01*
X232871253Y-190211962D01*
X232585539Y-190211962D01*
D10*
D11*
X178859343Y-185600057D02*
X178359343Y-185600057D01*
X178359343Y-186385771D02*
X178359343Y-184885771D01*
X179073629Y-184885771D01*
X179645057Y-186385771D02*
X179645057Y-185385771D01*
X179645057Y-184885771D02*
X179573628Y-184957200D01*
X179645057Y-185028629D01*
X179716485Y-184957200D01*
X179645057Y-184885771D01*
X179645057Y-185028629D01*
X180573629Y-186385771D02*
X180430771Y-186314343D01*
X180359343Y-186171486D01*
X180359343Y-184885771D01*
X181716485Y-186314343D02*
X181573628Y-186385771D01*
X181287914Y-186385771D01*
X181145057Y-186314343D01*
X181073628Y-186171486D01*
X181073628Y-185600057D01*
X181145057Y-185457200D01*
X181287914Y-185385771D01*
X181573628Y-185385771D01*
X181716485Y-185457200D01*
X181787914Y-185600057D01*
X181787914Y-185742914D01*
X181073628Y-185885771D01*
X182430771Y-186242914D02*
X182502199Y-186314343D01*
X182430771Y-186385771D01*
X182359342Y-186314343D01*
X182430771Y-186242914D01*
X182430771Y-186385771D01*
X182430771Y-185457200D02*
X182502199Y-185528629D01*
X182430771Y-185600057D01*
X182359342Y-185528629D01*
X182430771Y-185457200D01*
X182430771Y-185600057D01*
X184287914Y-186385771D02*
X184287914Y-184885771D01*
X184787914Y-185957200D01*
X185287914Y-184885771D01*
X185287914Y-186385771D01*
X185930771Y-185957200D02*
X186645057Y-185957200D01*
X185787914Y-186385771D02*
X186287914Y-184885771D01*
X186787914Y-186385771D01*
X187287914Y-186385771D02*
X187287914Y-184885771D01*
X187859342Y-184885771D01*
X188002200Y-184957200D01*
X188073628Y-185028629D01*
X188145057Y-185171486D01*
X188145057Y-185385771D01*
X188073628Y-185528629D01*
X188002200Y-185600057D01*
X187859342Y-185671486D01*
X187287914Y-185671486D01*
X189002200Y-186385771D02*
X188859342Y-186314343D01*
X188787914Y-186242914D01*
X188716485Y-186100057D01*
X188716485Y-185671486D01*
X188787914Y-185528629D01*
X188859342Y-185457200D01*
X189002200Y-185385771D01*
X189216485Y-185385771D01*
X189359342Y-185457200D01*
X189430771Y-185528629D01*
X189502200Y-185671486D01*
X189502200Y-186100057D01*
X189430771Y-186242914D01*
X189359342Y-186314343D01*
X189216485Y-186385771D01*
X189002200Y-186385771D01*
X190145057Y-185385771D02*
X190145057Y-186385771D01*
X190145057Y-185528629D02*
X190216485Y-185457200D01*
X190359343Y-185385771D01*
X190573628Y-185385771D01*
X190716485Y-185457200D01*
X190787914Y-185600057D01*
X190787914Y-186385771D01*
X192073628Y-186314343D02*
X191930771Y-186385771D01*
X191645057Y-186385771D01*
X191502200Y-186314343D01*
X191430771Y-186171486D01*
X191430771Y-185600057D01*
X191502200Y-185457200D01*
X191645057Y-185385771D01*
X191930771Y-185385771D01*
X192073628Y-185457200D01*
X192145057Y-185600057D01*
X192145057Y-185742914D01*
X191430771Y-185885771D01*
X192787914Y-186242914D02*
X192859342Y-186314343D01*
X192787914Y-186385771D01*
X192716485Y-186314343D01*
X192787914Y-186242914D01*
X192787914Y-186385771D01*
X193502200Y-186385771D02*
X193502200Y-184885771D01*
X193645057Y-185814343D02*
X194073628Y-186385771D01*
X194073628Y-185385771D02*
X193502200Y-185957200D01*
X194716486Y-186385771D02*
X194716486Y-185385771D01*
X194716486Y-184885771D02*
X194645057Y-184957200D01*
X194716486Y-185028629D01*
X194787914Y-184957200D01*
X194716486Y-184885771D01*
X194716486Y-185028629D01*
X196073629Y-186314343D02*
X195930772Y-186385771D01*
X195645058Y-186385771D01*
X195502200Y-186314343D01*
X195430772Y-186242914D01*
X195359343Y-186100057D01*
X195359343Y-185671486D01*
X195430772Y-185528629D01*
X195502200Y-185457200D01*
X195645058Y-185385771D01*
X195930772Y-185385771D01*
X196073629Y-185457200D01*
X197359343Y-186385771D02*
X197359343Y-185600057D01*
X197287914Y-185457200D01*
X197145057Y-185385771D01*
X196859343Y-185385771D01*
X196716486Y-185457200D01*
X197359343Y-186314343D02*
X197216486Y-186385771D01*
X196859343Y-186385771D01*
X196716486Y-186314343D01*
X196645057Y-186171486D01*
X196645057Y-186028629D01*
X196716486Y-185885771D01*
X196859343Y-185814343D01*
X197216486Y-185814343D01*
X197359343Y-185742914D01*
X198716486Y-186385771D02*
X198716486Y-184885771D01*
X198716486Y-186314343D02*
X198573629Y-186385771D01*
X198287915Y-186385771D01*
X198145057Y-186314343D01*
X198073629Y-186242914D01*
X198002200Y-186100057D01*
X198002200Y-185671486D01*
X198073629Y-185528629D01*
X198145057Y-185457200D01*
X198287915Y-185385771D01*
X198573629Y-185385771D01*
X198716486Y-185457200D01*
X199073629Y-186528629D02*
X200216486Y-186528629D01*
X200573629Y-185385771D02*
X200573629Y-186885771D01*
X200573629Y-185457200D02*
X200716486Y-185385771D01*
X201002200Y-185385771D01*
X201145057Y-185457200D01*
X201216486Y-185528629D01*
X201287915Y-185671486D01*
X201287915Y-186100057D01*
X201216486Y-186242914D01*
X201145057Y-186314343D01*
X201002200Y-186385771D01*
X200716486Y-186385771D01*
X200573629Y-186314343D01*
X202573629Y-186314343D02*
X202430772Y-186385771D01*
X202145058Y-186385771D01*
X202002200Y-186314343D01*
X201930772Y-186242914D01*
X201859343Y-186100057D01*
X201859343Y-185671486D01*
X201930772Y-185528629D01*
X202002200Y-185457200D01*
X202145058Y-185385771D01*
X202430772Y-185385771D01*
X202573629Y-185457200D01*
X203216486Y-186385771D02*
X203216486Y-184885771D01*
X203216486Y-185457200D02*
X203359343Y-185385771D01*
X203645057Y-185385771D01*
X203787914Y-185457200D01*
X203859343Y-185528629D01*
X203930772Y-185671486D01*
X203930772Y-186100057D01*
X203859343Y-186242914D01*
X203787914Y-186314343D01*
X203645057Y-186385771D01*
X203359343Y-186385771D01*
X203216486Y-186314343D01*
D10*
D11*
X177002200Y-181507200D02*
X285002200Y-181507200D01*
D10*
D11*
X178287914Y-183614343D02*
X178502200Y-183685771D01*
X178859343Y-183685771D01*
X179002200Y-183614343D01*
X179073629Y-183542914D01*
X179145057Y-183400057D01*
X179145057Y-183257200D01*
X179073629Y-183114343D01*
X179002200Y-183042914D01*
X178859343Y-182971486D01*
X178573629Y-182900057D01*
X178430771Y-182828629D01*
X178359343Y-182757200D01*
X178287914Y-182614343D01*
X178287914Y-182471486D01*
X178359343Y-182328629D01*
X178430771Y-182257200D01*
X178573629Y-182185771D01*
X178930771Y-182185771D01*
X179145057Y-182257200D01*
X179787914Y-183685771D02*
X179787914Y-182185771D01*
X180430771Y-183685771D02*
X180430771Y-182900057D01*
X180359342Y-182757200D01*
X180216485Y-182685771D01*
X180002200Y-182685771D01*
X179859342Y-182757200D01*
X179787914Y-182828629D01*
X181716485Y-183614343D02*
X181573628Y-183685771D01*
X181287914Y-183685771D01*
X181145057Y-183614343D01*
X181073628Y-183471486D01*
X181073628Y-182900057D01*
X181145057Y-182757200D01*
X181287914Y-182685771D01*
X181573628Y-182685771D01*
X181716485Y-182757200D01*
X181787914Y-182900057D01*
X181787914Y-183042914D01*
X181073628Y-183185771D01*
X183002199Y-183614343D02*
X182859342Y-183685771D01*
X182573628Y-183685771D01*
X182430771Y-183614343D01*
X182359342Y-183471486D01*
X182359342Y-182900057D01*
X182430771Y-182757200D01*
X182573628Y-182685771D01*
X182859342Y-182685771D01*
X183002199Y-182757200D01*
X183073628Y-182900057D01*
X183073628Y-183042914D01*
X182359342Y-183185771D01*
X183502199Y-182685771D02*
X184073628Y-182685771D01*
X183716485Y-182185771D02*
X183716485Y-183471486D01*
X183787913Y-183614343D01*
X183930771Y-183685771D01*
X184073628Y-183685771D01*
X184573628Y-183542914D02*
X184645056Y-183614343D01*
X184573628Y-183685771D01*
X184502199Y-183614343D01*
X184573628Y-183542914D01*
X184573628Y-183685771D01*
X184573628Y-182757200D02*
X184645056Y-182828629D01*
X184573628Y-182900057D01*
X184502199Y-182828629D01*
X184573628Y-182757200D01*
X184573628Y-182900057D01*
D10*
D12*
X178359343Y-180685771D02*
X178359343Y-179185771D01*
X178859343Y-180257200D01*
X179359343Y-179185771D01*
X179359343Y-180685771D01*
X180716486Y-180685771D02*
X180716486Y-179900057D01*
X180645057Y-179757200D01*
X180502200Y-179685771D01*
X180216486Y-179685771D01*
X180073629Y-179757200D01*
X180716486Y-180614343D02*
X180573629Y-180685771D01*
X180216486Y-180685771D01*
X180073629Y-180614343D01*
X180002200Y-180471486D01*
X180002200Y-180328629D01*
X180073629Y-180185771D01*
X180216486Y-180114343D01*
X180573629Y-180114343D01*
X180716486Y-180042914D01*
X181430772Y-180685771D02*
X181430772Y-179185771D01*
X181573629Y-180114343D02*
X182002200Y-180685771D01*
X182002200Y-179685771D02*
X181430772Y-180257200D01*
X183216486Y-180614343D02*
X183073629Y-180685771D01*
X182787915Y-180685771D01*
X182645058Y-180614343D01*
X182573629Y-180471486D01*
X182573629Y-179900057D01*
X182645058Y-179757200D01*
X182787915Y-179685771D01*
X183073629Y-179685771D01*
X183216486Y-179757200D01*
X183287915Y-179900057D01*
X183287915Y-180042914D01*
X182573629Y-180185771D01*
X183930772Y-180685771D02*
X183930772Y-179685771D01*
X183930772Y-179971486D02*
X184002200Y-179828629D01*
X184073629Y-179757200D01*
X184216486Y-179685771D01*
X184359343Y-179685771D01*
X184930771Y-179185771D02*
X184787914Y-179471486D01*
X185502200Y-180614343D02*
X185645057Y-180685771D01*
X185930772Y-180685771D01*
X186073629Y-180614343D01*
X186145057Y-180471486D01*
X186145057Y-180400057D01*
X186073629Y-180257200D01*
X185930772Y-180185771D01*
X185716486Y-180185771D01*
X185573629Y-180114343D01*
X185502200Y-179971486D01*
X185502200Y-179900057D01*
X185573629Y-179757200D01*
X185716486Y-179685771D01*
X185930772Y-179685771D01*
X186073629Y-179757200D01*
X187859343Y-180257200D02*
X188573629Y-180257200D01*
X187716486Y-180685771D02*
X188216486Y-179185771D01*
X188716486Y-180685771D01*
X189145057Y-180614343D02*
X189287914Y-180685771D01*
X189573629Y-180685771D01*
X189716486Y-180614343D01*
X189787914Y-180471486D01*
X189787914Y-180400057D01*
X189716486Y-180257200D01*
X189573629Y-180185771D01*
X189359343Y-180185771D01*
X189216486Y-180114343D01*
X189145057Y-179971486D01*
X189145057Y-179900057D01*
X189216486Y-179757200D01*
X189359343Y-179685771D01*
X189573629Y-179685771D01*
X189716486Y-179757200D01*
X190287915Y-179685771D02*
X190645058Y-180685771D01*
X191002200Y-179685771D02*
X190645058Y-180685771D01*
X190502200Y-181042914D01*
X190430772Y-181114343D01*
X190287915Y-181185771D01*
X191787915Y-180685771D02*
X191645057Y-180614343D01*
X191573629Y-180471486D01*
X191573629Y-179185771D01*
X193002200Y-179685771D02*
X193002200Y-180685771D01*
X192359343Y-179685771D02*
X192359343Y-180471486D01*
X192430771Y-180614343D01*
X192573629Y-180685771D01*
X192787914Y-180685771D01*
X192930771Y-180614343D01*
X193002200Y-180542914D01*
X193716486Y-180685771D02*
X193716486Y-179685771D01*
X193716486Y-179828629D02*
X193787914Y-179757200D01*
X193930772Y-179685771D01*
X194145057Y-179685771D01*
X194287914Y-179757200D01*
X194359343Y-179900057D01*
X194359343Y-180685771D01*
X194359343Y-179900057D02*
X194430772Y-179757200D01*
X194573629Y-179685771D01*
X194787914Y-179685771D01*
X194930772Y-179757200D01*
X195002200Y-179900057D01*
X195002200Y-180685771D01*
X196859343Y-180542914D02*
X196930771Y-180614343D01*
X196859343Y-180685771D01*
X196787914Y-180614343D01*
X196859343Y-180542914D01*
X196859343Y-180685771D01*
X196859343Y-179757200D02*
X196930771Y-179828629D01*
X196859343Y-179900057D01*
X196787914Y-179828629D01*
X196859343Y-179757200D01*
X196859343Y-179900057D01*
X198573629Y-179685771D02*
X198859343Y-180685771D01*
X199145057Y-179971486D01*
X199430772Y-180685771D01*
X199716486Y-179685771D01*
X200145058Y-179685771D02*
X200430772Y-180685771D01*
X200716486Y-179971486D01*
X201002201Y-180685771D01*
X201287915Y-179685771D01*
X201716487Y-179685771D02*
X202002201Y-180685771D01*
X202287915Y-179971486D01*
X202573630Y-180685771D01*
X202859344Y-179685771D01*
X203430773Y-180542914D02*
X203502201Y-180614343D01*
X203430773Y-180685771D01*
X203359344Y-180614343D01*
X203430773Y-180542914D01*
X203430773Y-180685771D01*
X204787916Y-179685771D02*
X204787916Y-180900057D01*
X204716487Y-181042914D01*
X204645059Y-181114343D01*
X204502202Y-181185771D01*
X204287916Y-181185771D01*
X204145059Y-181114343D01*
X204787916Y-180614343D02*
X204645059Y-180685771D01*
X204359345Y-180685771D01*
X204216487Y-180614343D01*
X204145059Y-180542914D01*
X204073630Y-180400057D01*
X204073630Y-179971486D01*
X204145059Y-179828629D01*
X204216487Y-179757200D01*
X204359345Y-179685771D01*
X204645059Y-179685771D01*
X204787916Y-179757200D01*
X205502202Y-180685771D02*
X205502202Y-179685771D01*
X205502202Y-179185771D02*
X205430773Y-179257200D01*
X205502202Y-179328629D01*
X205573630Y-179257200D01*
X205502202Y-179185771D01*
X205502202Y-179328629D01*
X206002202Y-179685771D02*
X206573631Y-179685771D01*
X206216488Y-179185771D02*
X206216488Y-180471486D01*
X206287916Y-180614343D01*
X206430774Y-180685771D01*
X206573631Y-180685771D01*
X207073631Y-180685771D02*
X207073631Y-179185771D01*
X207716488Y-180685771D02*
X207716488Y-179900057D01*
X207645059Y-179757200D01*
X207502202Y-179685771D01*
X207287917Y-179685771D01*
X207145059Y-179757200D01*
X207073631Y-179828629D01*
X209073631Y-179685771D02*
X209073631Y-180685771D01*
X208430774Y-179685771D02*
X208430774Y-180471486D01*
X208502202Y-180614343D01*
X208645060Y-180685771D01*
X208859345Y-180685771D01*
X209002202Y-180614343D01*
X209073631Y-180542914D01*
X209787917Y-180685771D02*
X209787917Y-179185771D01*
X209787917Y-179757200D02*
X209930774Y-179685771D01*
X210216488Y-179685771D01*
X210359345Y-179757200D01*
X210430774Y-179828629D01*
X210502203Y-179971486D01*
X210502203Y-180400057D01*
X210430774Y-180542914D01*
X210359345Y-180614343D01*
X210216488Y-180685771D01*
X209930774Y-180685771D01*
X209787917Y-180614343D01*
X211145060Y-180542914D02*
X211216488Y-180614343D01*
X211145060Y-180685771D01*
X211073631Y-180614343D01*
X211145060Y-180542914D01*
X211145060Y-180685771D01*
X212502203Y-180614343D02*
X212359346Y-180685771D01*
X212073632Y-180685771D01*
X211930774Y-180614343D01*
X211859346Y-180542914D01*
X211787917Y-180400057D01*
X211787917Y-179971486D01*
X211859346Y-179828629D01*
X211930774Y-179757200D01*
X212073632Y-179685771D01*
X212359346Y-179685771D01*
X212502203Y-179757200D01*
X213359346Y-180685771D02*
X213216488Y-180614343D01*
X213145060Y-180542914D01*
X213073631Y-180400057D01*
X213073631Y-179971486D01*
X213145060Y-179828629D01*
X213216488Y-179757200D01*
X213359346Y-179685771D01*
X213573631Y-179685771D01*
X213716488Y-179757200D01*
X213787917Y-179828629D01*
X213859346Y-179971486D01*
X213859346Y-180400057D01*
X213787917Y-180542914D01*
X213716488Y-180614343D01*
X213573631Y-180685771D01*
X213359346Y-180685771D01*
X214502203Y-180685771D02*
X214502203Y-179685771D01*
X214502203Y-179828629D02*
X214573631Y-179757200D01*
X214716489Y-179685771D01*
X214930774Y-179685771D01*
X215073631Y-179757200D01*
X215145060Y-179900057D01*
X215145060Y-180685771D01*
X215145060Y-179900057D02*
X215216489Y-179757200D01*
X215359346Y-179685771D01*
X215573631Y-179685771D01*
X215716489Y-179757200D01*
X215787917Y-179900057D01*
X215787917Y-180685771D01*
X217573631Y-179114343D02*
X216287917Y-181042914D01*
X218073632Y-180685771D02*
X218073632Y-179185771D01*
X218573632Y-180257200D01*
X219073632Y-179185771D01*
X219073632Y-180685771D01*
X220430775Y-180685771D02*
X220430775Y-179900057D01*
X220359346Y-179757200D01*
X220216489Y-179685771D01*
X219930775Y-179685771D01*
X219787918Y-179757200D01*
X220430775Y-180614343D02*
X220287918Y-180685771D01*
X219930775Y-180685771D01*
X219787918Y-180614343D01*
X219716489Y-180471486D01*
X219716489Y-180328629D01*
X219787918Y-180185771D01*
X219930775Y-180114343D01*
X220287918Y-180114343D01*
X220430775Y-180042914D01*
X221145061Y-180685771D02*
X221145061Y-179185771D01*
X221287918Y-180114343D02*
X221716489Y-180685771D01*
X221716489Y-179685771D02*
X221145061Y-180257200D01*
X222930775Y-180614343D02*
X222787918Y-180685771D01*
X222502204Y-180685771D01*
X222359347Y-180614343D01*
X222287918Y-180471486D01*
X222287918Y-179900057D01*
X222359347Y-179757200D01*
X222502204Y-179685771D01*
X222787918Y-179685771D01*
X222930775Y-179757200D01*
X223002204Y-179900057D01*
X223002204Y-180042914D01*
X222287918Y-180185771D01*
X223645061Y-180685771D02*
X223645061Y-179685771D01*
X223645061Y-179971486D02*
X223716489Y-179828629D01*
X223787918Y-179757200D01*
X223930775Y-179685771D01*
X224073632Y-179685771D01*
X224502203Y-180614343D02*
X224645060Y-180685771D01*
X224930775Y-180685771D01*
X225073632Y-180614343D01*
X225145060Y-180471486D01*
X225145060Y-180400057D01*
X225073632Y-180257200D01*
X224930775Y-180185771D01*
X224716489Y-180185771D01*
X224573632Y-180114343D01*
X224502203Y-179971486D01*
X224502203Y-179900057D01*
X224573632Y-179757200D01*
X224716489Y-179685771D01*
X224930775Y-179685771D01*
X225073632Y-179757200D01*
X225716489Y-180257200D02*
X226430775Y-180257200D01*
X225573632Y-180685771D02*
X226073632Y-179185771D01*
X226573632Y-180685771D01*
X227002203Y-180614343D02*
X227145060Y-180685771D01*
X227430775Y-180685771D01*
X227573632Y-180614343D01*
X227645060Y-180471486D01*
X227645060Y-180400057D01*
X227573632Y-180257200D01*
X227430775Y-180185771D01*
X227216489Y-180185771D01*
X227073632Y-180114343D01*
X227002203Y-179971486D01*
X227002203Y-179900057D01*
X227073632Y-179757200D01*
X227216489Y-179685771D01*
X227430775Y-179685771D01*
X227573632Y-179757200D01*
X228145061Y-179685771D02*
X228502204Y-180685771D01*
X228859346Y-179685771D02*
X228502204Y-180685771D01*
X228359346Y-181042914D01*
X228287918Y-181114343D01*
X228145061Y-181185771D01*
X229645061Y-180685771D02*
X229502203Y-180614343D01*
X229430775Y-180471486D01*
X229430775Y-179185771D01*
X230859346Y-179685771D02*
X230859346Y-180685771D01*
X230216489Y-179685771D02*
X230216489Y-180471486D01*
X230287917Y-180614343D01*
X230430775Y-180685771D01*
X230645060Y-180685771D01*
X230787917Y-180614343D01*
X230859346Y-180542914D01*
X231573632Y-180685771D02*
X231573632Y-179685771D01*
X231573632Y-179828629D02*
X231645060Y-179757200D01*
X231787918Y-179685771D01*
X232002203Y-179685771D01*
X232145060Y-179757200D01*
X232216489Y-179900057D01*
X232216489Y-180685771D01*
X232216489Y-179900057D02*
X232287918Y-179757200D01*
X232430775Y-179685771D01*
X232645060Y-179685771D01*
X232787918Y-179757200D01*
X232859346Y-179900057D01*
X232859346Y-180685771D01*
X233573632Y-180685771D02*
X233573632Y-179185771D01*
X234287918Y-179685771D02*
X234287918Y-180685771D01*
X234287918Y-179828629D02*
X234359346Y-179757200D01*
X234502204Y-179685771D01*
X234716489Y-179685771D01*
X234859346Y-179757200D01*
X234930775Y-179900057D01*
X234930775Y-180685771D01*
X236287918Y-180685771D02*
X236287918Y-179185771D01*
X236287918Y-180614343D02*
X236145061Y-180685771D01*
X235859347Y-180685771D01*
X235716489Y-180614343D01*
X235645061Y-180542914D01*
X235573632Y-180400057D01*
X235573632Y-179971486D01*
X235645061Y-179828629D01*
X235716489Y-179757200D01*
X235859347Y-179685771D01*
X236145061Y-179685771D01*
X236287918Y-179757200D01*
X237002204Y-180685771D02*
X237002204Y-179685771D01*
X237002204Y-179185771D02*
X236930775Y-179257200D01*
X237002204Y-179328629D01*
X237073632Y-179257200D01*
X237002204Y-179185771D01*
X237002204Y-179328629D01*
X238359347Y-180685771D02*
X238359347Y-179900057D01*
X238287918Y-179757200D01*
X238145061Y-179685771D01*
X237859347Y-179685771D01*
X237716490Y-179757200D01*
X238359347Y-180614343D02*
X238216490Y-180685771D01*
X237859347Y-180685771D01*
X237716490Y-180614343D01*
X237645061Y-180471486D01*
X237645061Y-180328629D01*
X237716490Y-180185771D01*
X237859347Y-180114343D01*
X238216490Y-180114343D01*
X238359347Y-180042914D01*
D10*
D11*
X197002200Y-191507200D02*
X197002200Y-194507200D01*
D10*
D11*
X261002200Y-191507200D02*
X261002200Y-198007200D01*
D10*
X100000000Y-32000000D02*
G75*
G03X98000000Y-30000000I-2000000J0D01*
G01*
X98000000Y-60000000D02*
G75*
G03X100000000Y-58000000I0J2000000D01*
G01*
X32000000Y-30000000D02*
G75*
G03X30000000Y-32000000I0J-2000000D01*
G01*
X100000000Y-32000000D02*
X100000000Y-58000000D01*
X30000000Y-60000000D02*
X30000000Y-32000000D01*
X98000000Y-60000000D02*
X30000000Y-60000000D01*
X32000000Y-30000000D02*
X98000000Y-30000000D01*
D14*
X35960000Y-33000000D03*
D15*
X38500000Y-33000000D03*
D14*
X41040000Y-33000000D03*
D16*
X97550000Y-32050000D03*
D17*
X91050000Y-36550000D03*
X97550000Y-36550000D03*
D16*
X91050000Y-32050000D03*
D18*
X98000000Y-58000000D03*
X42500000Y-55000000D03*
D19*
X34400000Y-52000000D03*
D20*
X34400000Y-45904000D03*
D21*
X39480000Y-48825000D03*
D22*
X48160000Y-37370000D03*
X48160000Y-34830000D03*
X50700000Y-37370000D03*
X50700000Y-34830000D03*
X53240000Y-37370000D03*
D23*
X53240000Y-34830000D03*
D24*
X65890000Y-31600000D03*
X63350000Y-31600000D03*
X60810000Y-31600000D03*
X58270000Y-31600000D03*
X55730000Y-31600000D03*
X53190000Y-31600000D03*
D25*
X50650000Y-31600000D03*
D24*
X48110000Y-31600000D03*
X87890000Y-31600000D03*
X85350000Y-31600000D03*
X82810000Y-31600000D03*
X80270000Y-31600000D03*
X77730000Y-31600000D03*
X75190000Y-31600000D03*
X72650000Y-31600000D03*
X70110000Y-31600000D03*
X75150000Y-57000000D03*
X77690000Y-57000000D03*
X80230000Y-57000000D03*
X82770000Y-57000000D03*
X85310000Y-57000000D03*
X87850000Y-57000000D03*
X57450000Y-57000000D03*
X59990000Y-57000000D03*
X62530000Y-57000000D03*
D25*
X65070000Y-57000000D03*
X67610000Y-57000000D03*
D24*
X70150000Y-57000000D03*
D22*
X45000000Y-31710000D03*
X45000000Y-34250000D03*
X45000000Y-36790000D03*
D26*
X51700000Y-56230000D03*
D27*
X51700000Y-58770000D03*
D26*
X47200000Y-56230000D03*
D27*
X47200000Y-58770000D03*
D28*
X82970000Y-42990000D03*
X80430000Y-42990000D03*
X77890000Y-42990000D03*
X75350000Y-42990000D03*
X72810000Y-42990000D03*
X70270000Y-42990000D03*
D29*
X67730000Y-42990000D03*
D28*
X65190000Y-42990000D03*
X62650000Y-42990000D03*
X60110000Y-42990000D03*
X57570000Y-42990000D03*
X55030000Y-42990000D03*
X52490000Y-42990000D03*
X85510000Y-42990000D03*
X52490000Y-50610000D03*
X55030000Y-50610000D03*
X57570000Y-50610000D03*
X60110000Y-50610000D03*
X62650000Y-50610000D03*
X65190000Y-50610000D03*
X67730000Y-50610000D03*
D29*
X70270000Y-50610000D03*
D28*
X72810000Y-50610000D03*
X75350000Y-50610000D03*
X77890000Y-50610000D03*
X80430000Y-50610000D03*
X82970000Y-50610000D03*
X85510000Y-50610000D03*
D23*
X98000000Y-53350000D03*
X98000000Y-50810000D03*
D22*
X98000000Y-48270000D03*
X98000000Y-45730000D03*
X98000000Y-43190000D03*
X98000000Y-40650000D03*
D30*
X37702000Y-58467000D03*
X31098000Y-58467000D03*
D31*
X64240940Y-36100000D03*
X59359060Y-36100000D03*
D32*
X61800000Y-36100000D03*
D33*
X41500000Y-44750000D03*
D34*
X41500000Y-40940000D03*
D18*
X32000000Y-32000000D03*
X87500000Y-35000000D03*
D22*
X70060000Y-36000000D03*
X72600000Y-36000000D03*
X75140000Y-36000000D03*
D32*
X33800000Y-38760000D03*
D31*
X33800000Y-41300000D03*
D35*
X65190000Y-52410000D02*
X64600000Y-53000000D01*
X64600000Y-53000000D02*
X50100000Y-53000000D01*
X50100000Y-53000000D02*
X47400000Y-50300000D01*
X47400000Y-50300000D02*
X47400000Y-39000000D01*
X65190000Y-50610000D02*
X65190000Y-52410000D01*
X46600000Y-36390000D02*
X48160000Y-34830000D01*
X46600000Y-38200000D02*
X46600000Y-36390000D01*
X47400000Y-39000000D02*
X46600000Y-38200000D01*
X97550000Y-32050000D02*
X98950000Y-32050000D01*
X98890000Y-50810000D02*
X98000000Y-50810000D01*
X99400000Y-50300000D02*
X98890000Y-50810000D01*
X99400000Y-32500000D02*
X99400000Y-50300000D01*
X98950000Y-32050000D02*
X99400000Y-32500000D01*
X67730000Y-42990000D02*
X67730000Y-45330000D01*
X67730000Y-45330000D02*
X70270000Y-47870000D01*
X70270000Y-47870000D02*
X70270000Y-50610000D01*
X60530000Y-34830000D02*
X53240000Y-34830000D01*
X61800000Y-36100000D02*
X60530000Y-34830000D01*
X33800000Y-41300000D02*
X35600000Y-41300000D01*
X35600000Y-41300000D02*
X35960000Y-40940000D01*
X41500000Y-40940000D02*
X35960000Y-40940000D01*
X35960000Y-33000000D02*
X35960000Y-40940000D01*
X69000000Y-54600000D02*
X70150000Y-55750000D01*
X70150000Y-55750000D02*
X70150000Y-57000000D01*
X41500000Y-40940000D02*
X43940000Y-40940000D01*
X44800000Y-41800000D02*
X43940000Y-40940000D01*
X44800000Y-51100000D02*
X44800000Y-41800000D01*
X48300000Y-54600000D02*
X44800000Y-51100000D01*
X56500000Y-54600000D02*
X48300000Y-54600000D01*
X56500000Y-54600000D02*
X69000000Y-54600000D01*
D36*
X88990000Y-42990000D02*
X85510000Y-42990000D01*
X89700000Y-43700000D02*
X88990000Y-42990000D01*
X97550000Y-36550000D02*
X91050000Y-36550000D01*
X73150000Y-38300000D02*
X74950000Y-38300000D01*
X71550000Y-39900000D02*
X73150000Y-38300000D01*
X71550000Y-44600000D02*
X71550000Y-39900000D01*
X72350000Y-45400000D02*
X71550000Y-44600000D01*
X85510000Y-44690000D02*
X84800000Y-45400000D01*
X84800000Y-45400000D02*
X72350000Y-45400000D01*
X76625000Y-36625000D02*
X76625000Y-35325000D01*
X76625000Y-35325000D02*
X76000000Y-34700000D01*
X76000000Y-34700000D02*
X72100000Y-34700000D01*
X72100000Y-34700000D02*
X71356600Y-35443400D01*
X85510000Y-44690000D02*
X85510000Y-42990000D01*
X50200000Y-44600000D02*
X50200000Y-40410000D01*
X51100000Y-45500000D02*
X50200000Y-44600000D01*
X53240000Y-37370000D02*
X50200000Y-40410000D01*
X71356600Y-37543400D02*
X68300000Y-40600000D01*
X68300000Y-40600000D02*
X65100000Y-40600000D01*
X65100000Y-40600000D02*
X63900000Y-41800000D01*
X63900000Y-41800000D02*
X63900000Y-45000000D01*
X63900000Y-45000000D02*
X63400000Y-45500000D01*
X63400000Y-45500000D02*
X51100000Y-45500000D01*
X71356600Y-35443400D02*
X71356600Y-37543400D01*
X74950000Y-38300000D02*
X76625000Y-36625000D01*
X58200000Y-59100000D02*
X57450000Y-58350000D01*
X57450000Y-58350000D02*
X57450000Y-57000000D01*
X70600000Y-59100000D02*
X89100000Y-59100000D01*
X89100000Y-59100000D02*
X89700000Y-58500000D01*
X89700000Y-43700000D02*
X89700000Y-58500000D01*
X70600000Y-59100000D02*
X58200000Y-59100000D01*
D35*
X38221300Y-44750000D02*
X37067300Y-45904000D01*
X41500000Y-44750000D02*
X38221300Y-44750000D01*
X34400000Y-45904000D02*
X37067300Y-45904000D01*
X45000000Y-31710000D02*
X42330000Y-31710000D01*
X42330000Y-31710000D02*
X41040000Y-33000000D01*
D36*
X75150000Y-57000000D02*
X75150000Y-52950000D01*
X75150000Y-52950000D02*
X72810000Y-50610000D01*
X77690000Y-57000000D02*
X77690000Y-52950000D01*
X77690000Y-52950000D02*
X75350000Y-50610000D01*
X80230000Y-57000000D02*
X80230000Y-52950000D01*
X80230000Y-52950000D02*
X77890000Y-50610000D01*
X82770000Y-57000000D02*
X82770000Y-52950000D01*
X82770000Y-52950000D02*
X80430000Y-50610000D01*
X85310000Y-57000000D02*
X85310000Y-52950000D01*
X85310000Y-52950000D02*
X82970000Y-50610000D01*
X87850000Y-57000000D02*
X87850000Y-52950000D01*
X87850000Y-52950000D02*
X85510000Y-50610000D01*
X72600000Y-36000000D02*
X72600000Y-37100000D01*
X68500000Y-41200000D02*
X66900000Y-41200000D01*
X72600000Y-37100000D02*
X68500000Y-41200000D01*
X66500000Y-41600000D02*
X66900000Y-41200000D01*
X66500000Y-47855700D02*
X66500000Y-41600000D01*
X67730000Y-49085700D02*
X66500000Y-47855700D01*
X67730000Y-50610000D02*
X67730000Y-49085700D01*
X85350000Y-31600000D02*
X85350000Y-33350000D01*
X84400000Y-34300000D02*
X84400000Y-40300000D01*
X85350000Y-33350000D02*
X84400000Y-34300000D01*
X80430000Y-42990000D02*
X80430000Y-41370000D01*
X93190000Y-43190000D02*
X98000000Y-43190000D01*
X90300000Y-40300000D02*
X93190000Y-43190000D01*
X81500000Y-40300000D02*
X84400000Y-40300000D01*
X84400000Y-40300000D02*
X90300000Y-40300000D01*
X80430000Y-41370000D02*
X81500000Y-40300000D01*
X82810000Y-31600000D02*
X82810000Y-36290000D01*
X77890000Y-41210000D02*
X77890000Y-42990000D01*
X82810000Y-36290000D02*
X77890000Y-41210000D01*
X75350000Y-41650000D02*
X80270000Y-36730000D01*
X80270000Y-36730000D02*
X80270000Y-31600000D01*
X75350000Y-42990000D02*
X75350000Y-41650000D01*
X72810000Y-41415000D02*
X77730000Y-36495000D01*
X77730000Y-36495000D02*
X77730000Y-31600000D01*
X72810000Y-42990000D02*
X72810000Y-41415000D01*
X67800000Y-36400000D02*
X67800000Y-36800000D01*
X67800000Y-36800000D02*
X64600000Y-40000000D01*
X64600000Y-40000000D02*
X61710000Y-40000000D01*
X60110000Y-41600000D02*
X60110000Y-42990000D01*
X61710000Y-40000000D02*
X60110000Y-41600000D01*
X74000000Y-34100000D02*
X70100000Y-34100000D01*
X70100000Y-34100000D02*
X67800000Y-36400000D01*
X60110000Y-42990000D02*
X60110000Y-41990000D01*
X75190000Y-31600000D02*
X75190000Y-32910000D01*
X75190000Y-32910000D02*
X74000000Y-34100000D01*
X67200000Y-36100000D02*
X67200000Y-36600000D01*
X67200000Y-36600000D02*
X64400000Y-39400000D01*
X64400000Y-39400000D02*
X59700000Y-39400000D01*
X57570000Y-41530000D02*
X57570000Y-42990000D01*
X59700000Y-39400000D02*
X57570000Y-41530000D01*
X72650000Y-31600000D02*
X72650000Y-32750000D01*
X71900000Y-33500000D02*
X69800000Y-33500000D01*
X72650000Y-32750000D02*
X71900000Y-33500000D01*
X67200000Y-36100000D02*
X69800000Y-33500000D01*
X64200000Y-38800000D02*
X57800000Y-38800000D01*
X55030000Y-41570000D02*
X55030000Y-42990000D01*
X57800000Y-38800000D02*
X55030000Y-41570000D01*
X66550000Y-35950000D02*
X66550000Y-36450000D01*
X66550000Y-36450000D02*
X64200000Y-38800000D01*
X70110000Y-31600000D02*
X70110000Y-32390000D01*
X70110000Y-32390000D02*
X66550000Y-35950000D01*
X55030000Y-42270000D02*
X55030000Y-42990000D01*
X70110000Y-31600000D02*
X70110000Y-31831800D01*
X65890000Y-31600000D02*
X65890000Y-36310000D01*
X52490000Y-41510000D02*
X52490000Y-42990000D01*
X55800000Y-38200000D02*
X52490000Y-41510000D01*
X64000000Y-38200000D02*
X55800000Y-38200000D01*
X65890000Y-36310000D02*
X64000000Y-38200000D01*
X58270000Y-31600000D02*
X58270000Y-32930000D01*
X57540400Y-33659600D02*
X51870400Y-33659600D01*
X58270000Y-32930000D02*
X57540400Y-33659600D01*
X50700000Y-34830000D02*
X51870400Y-33659600D01*
X48160000Y-37370000D02*
X48160000Y-38260000D01*
X48800000Y-47400000D02*
X49700000Y-48300000D01*
X48800000Y-38900000D02*
X48800000Y-47400000D01*
X48160000Y-38260000D02*
X48800000Y-38900000D01*
X60110000Y-50610000D02*
X60110000Y-48810000D01*
X59600000Y-48300000D02*
X49700000Y-48300000D01*
X60110000Y-48810000D02*
X59600000Y-48300000D01*
X53190000Y-31600000D02*
X53190000Y-32610000D01*
X53190000Y-32610000D02*
X52700000Y-33100000D01*
X49400000Y-36070000D02*
X50700000Y-37370000D01*
X49400000Y-34400000D02*
X49400000Y-36070000D01*
X50700000Y-33100000D02*
X49400000Y-34400000D01*
X52700000Y-33100000D02*
X50700000Y-33100000D01*
X48110000Y-31600000D02*
X47200000Y-31600000D01*
X43400000Y-37900000D02*
X46200000Y-40700000D01*
X43400000Y-33700000D02*
X43400000Y-37900000D01*
X44100000Y-33000000D02*
X43400000Y-33700000D01*
X45800000Y-33000000D02*
X44100000Y-33000000D01*
X47200000Y-31600000D02*
X45800000Y-33000000D01*
X48110000Y-31600000D02*
X48110000Y-32590000D01*
X70000000Y-53800000D02*
X71500000Y-52300000D01*
X71500000Y-52300000D02*
X71500000Y-47500000D01*
X49200000Y-53800000D02*
X70000000Y-53800000D01*
X46200000Y-40700000D02*
X46200000Y-50800000D01*
X46200000Y-50800000D02*
X49200000Y-53800000D01*
X75140000Y-37060000D02*
X75140000Y-36000000D01*
X71500000Y-47500000D02*
X69000000Y-45000000D01*
X69000000Y-45000000D02*
X69000000Y-41550000D01*
X69000000Y-41550000D02*
X72850000Y-37700000D01*
X72850000Y-37700000D02*
X74500000Y-37700000D01*
X74500000Y-37700000D02*
X75140000Y-37060000D01*
M02*
