G04 #@! TF.FileFunction,Legend,Top*
%FSLAX46Y46*%
G04 Gerber Fmt 4.6, Leading zero omitted, Abs format (unit mm)*
G04 Created by KiCad (PCBNEW 0.201411181401+5290~19~ubuntu14.10.1-product) date Tuesday 02 December 2014 11:12:42 PM IST*
%MOMM*%
G01*
G04 APERTURE LIST*
%ADD10C,0.100000*%
%ADD11C,0.150000*%
%ADD12C,0.300000*%
%ADD13C,0.400000*%
%ADD14C,0.254000*%
%ADD15C,0.152400*%
%ADD16C,0.381000*%
%ADD17C,0.002540*%
%ADD18C,1.778000*%
%ADD19R,1.778000X1.778000*%
%ADD20C,3.048000*%
%ADD21R,4.572000X3.048000*%
%ADD22O,4.572000X3.048000*%
%ADD23O,3.048000X4.572000*%
%ADD24C,1.524000*%
%ADD25R,1.524000X1.524000*%
%ADD26O,1.574800X2.286000*%
%ADD27R,1.574800X2.286000*%
%ADD28C,1.905000*%
%ADD29C,1.501140*%
%ADD30R,1.501140X1.501140*%
G04 APERTURE END LIST*
D10*
X100000000Y-58000000D02*
X100000000Y-32000000D01*
D11*
X46633333Y-49861904D02*
X46585714Y-49909524D01*
X46442857Y-50004762D01*
X46347619Y-50052381D01*
X46204762Y-50100000D01*
X45966667Y-50147619D01*
X45776190Y-50147619D01*
X45538095Y-50100000D01*
X45395238Y-50052381D01*
X45300000Y-50004762D01*
X45157143Y-49909524D01*
X45109524Y-49861904D01*
X45871429Y-49480952D02*
X45871429Y-48719047D01*
X45871429Y-47480952D02*
X45871429Y-46719047D01*
X46252381Y-47099999D02*
X45490476Y-47099999D01*
X46633333Y-46338095D02*
X46585714Y-46290476D01*
X46442857Y-46195238D01*
X46347619Y-46147619D01*
X46204762Y-46100000D01*
X45966667Y-46052381D01*
X45776190Y-46052381D01*
X45538095Y-46100000D01*
X45395238Y-46147619D01*
X45300000Y-46195238D01*
X45157143Y-46290476D01*
X45109524Y-46338095D01*
D10*
X100000000Y-32000000D02*
G75*
G03X98000000Y-30000000I-2000000J0D01*
G01*
X98000000Y-60000000D02*
G75*
G03X100000000Y-58000000I0J2000000D01*
G01*
X32000000Y-30000000D02*
G75*
G03X30000000Y-32000000I0J-2000000D01*
G01*
D12*
X55892857Y-52678571D02*
X56178571Y-53678571D01*
X56464285Y-52964286D01*
X56750000Y-53678571D01*
X57035714Y-52678571D01*
X57464286Y-52678571D02*
X57750000Y-53678571D01*
X58035714Y-52964286D01*
X58321429Y-53678571D01*
X58607143Y-52678571D01*
X59035715Y-52678571D02*
X59321429Y-53678571D01*
X59607143Y-52964286D01*
X59892858Y-53678571D01*
X60178572Y-52678571D01*
X60750001Y-53535714D02*
X60821429Y-53607143D01*
X60750001Y-53678571D01*
X60678572Y-53607143D01*
X60750001Y-53535714D01*
X60750001Y-53678571D01*
X61464287Y-53678571D02*
X61464287Y-52678571D01*
X61464287Y-52821429D02*
X61535715Y-52750000D01*
X61678573Y-52678571D01*
X61892858Y-52678571D01*
X62035715Y-52750000D01*
X62107144Y-52892857D01*
X62107144Y-53678571D01*
X62107144Y-52892857D02*
X62178573Y-52750000D01*
X62321430Y-52678571D01*
X62535715Y-52678571D01*
X62678573Y-52750000D01*
X62750001Y-52892857D01*
X62750001Y-53678571D01*
X64107144Y-53678571D02*
X64107144Y-52892857D01*
X64035715Y-52750000D01*
X63892858Y-52678571D01*
X63607144Y-52678571D01*
X63464287Y-52750000D01*
X64107144Y-53607143D02*
X63964287Y-53678571D01*
X63607144Y-53678571D01*
X63464287Y-53607143D01*
X63392858Y-53464286D01*
X63392858Y-53321429D01*
X63464287Y-53178571D01*
X63607144Y-53107143D01*
X63964287Y-53107143D01*
X64107144Y-53035714D01*
X64821430Y-53678571D02*
X64821430Y-52178571D01*
X64964287Y-53107143D02*
X65392858Y-53678571D01*
X65392858Y-52678571D02*
X64821430Y-53250000D01*
X66607144Y-53607143D02*
X66464287Y-53678571D01*
X66178573Y-53678571D01*
X66035716Y-53607143D01*
X65964287Y-53464286D01*
X65964287Y-52892857D01*
X66035716Y-52750000D01*
X66178573Y-52678571D01*
X66464287Y-52678571D01*
X66607144Y-52750000D01*
X66678573Y-52892857D01*
X66678573Y-53035714D01*
X65964287Y-53178571D01*
X67321430Y-53678571D02*
X67321430Y-52678571D01*
X67321430Y-52964286D02*
X67392858Y-52821429D01*
X67464287Y-52750000D01*
X67607144Y-52678571D01*
X67750001Y-52678571D01*
X68178572Y-53607143D02*
X68321429Y-53678571D01*
X68607144Y-53678571D01*
X68750001Y-53607143D01*
X68821429Y-53464286D01*
X68821429Y-53392857D01*
X68750001Y-53250000D01*
X68607144Y-53178571D01*
X68392858Y-53178571D01*
X68250001Y-53107143D01*
X68178572Y-52964286D01*
X68178572Y-52892857D01*
X68250001Y-52750000D01*
X68392858Y-52678571D01*
X68607144Y-52678571D01*
X68750001Y-52750000D01*
X70107144Y-53678571D02*
X70107144Y-52892857D01*
X70035715Y-52750000D01*
X69892858Y-52678571D01*
X69607144Y-52678571D01*
X69464287Y-52750000D01*
X70107144Y-53607143D02*
X69964287Y-53678571D01*
X69607144Y-53678571D01*
X69464287Y-53607143D01*
X69392858Y-53464286D01*
X69392858Y-53321429D01*
X69464287Y-53178571D01*
X69607144Y-53107143D01*
X69964287Y-53107143D01*
X70107144Y-53035714D01*
X70750001Y-53607143D02*
X70892858Y-53678571D01*
X71178573Y-53678571D01*
X71321430Y-53607143D01*
X71392858Y-53464286D01*
X71392858Y-53392857D01*
X71321430Y-53250000D01*
X71178573Y-53178571D01*
X70964287Y-53178571D01*
X70821430Y-53107143D01*
X70750001Y-52964286D01*
X70750001Y-52892857D01*
X70821430Y-52750000D01*
X70964287Y-52678571D01*
X71178573Y-52678571D01*
X71321430Y-52750000D01*
X71892859Y-52678571D02*
X72250002Y-53678571D01*
X72607144Y-52678571D02*
X72250002Y-53678571D01*
X72107144Y-54035714D01*
X72035716Y-54107143D01*
X71892859Y-54178571D01*
X73392859Y-53678571D02*
X73250001Y-53607143D01*
X73178573Y-53464286D01*
X73178573Y-52178571D01*
X74607144Y-52678571D02*
X74607144Y-53678571D01*
X73964287Y-52678571D02*
X73964287Y-53464286D01*
X74035715Y-53607143D01*
X74178573Y-53678571D01*
X74392858Y-53678571D01*
X74535715Y-53607143D01*
X74607144Y-53535714D01*
X75321430Y-53678571D02*
X75321430Y-52678571D01*
X75321430Y-52821429D02*
X75392858Y-52750000D01*
X75535716Y-52678571D01*
X75750001Y-52678571D01*
X75892858Y-52750000D01*
X75964287Y-52892857D01*
X75964287Y-53678571D01*
X75964287Y-52892857D02*
X76035716Y-52750000D01*
X76178573Y-52678571D01*
X76392858Y-52678571D01*
X76535716Y-52750000D01*
X76607144Y-52892857D01*
X76607144Y-53678571D01*
X77321430Y-53535714D02*
X77392858Y-53607143D01*
X77321430Y-53678571D01*
X77250001Y-53607143D01*
X77321430Y-53535714D01*
X77321430Y-53678571D01*
X78678573Y-53607143D02*
X78535716Y-53678571D01*
X78250002Y-53678571D01*
X78107144Y-53607143D01*
X78035716Y-53535714D01*
X77964287Y-53392857D01*
X77964287Y-52964286D01*
X78035716Y-52821429D01*
X78107144Y-52750000D01*
X78250002Y-52678571D01*
X78535716Y-52678571D01*
X78678573Y-52750000D01*
X79535716Y-53678571D02*
X79392858Y-53607143D01*
X79321430Y-53535714D01*
X79250001Y-53392857D01*
X79250001Y-52964286D01*
X79321430Y-52821429D01*
X79392858Y-52750000D01*
X79535716Y-52678571D01*
X79750001Y-52678571D01*
X79892858Y-52750000D01*
X79964287Y-52821429D01*
X80035716Y-52964286D01*
X80035716Y-53392857D01*
X79964287Y-53535714D01*
X79892858Y-53607143D01*
X79750001Y-53678571D01*
X79535716Y-53678571D01*
X80678573Y-53678571D02*
X80678573Y-52678571D01*
X80678573Y-52821429D02*
X80750001Y-52750000D01*
X80892859Y-52678571D01*
X81107144Y-52678571D01*
X81250001Y-52750000D01*
X81321430Y-52892857D01*
X81321430Y-53678571D01*
X81321430Y-52892857D02*
X81392859Y-52750000D01*
X81535716Y-52678571D01*
X81750001Y-52678571D01*
X81892859Y-52750000D01*
X81964287Y-52892857D01*
X81964287Y-53678571D01*
D13*
X63809523Y-41404762D02*
X63809523Y-39404762D01*
X64476190Y-40833333D01*
X65142857Y-39404762D01*
X65142857Y-41404762D01*
X65999999Y-40833333D02*
X66952380Y-40833333D01*
X65809523Y-41404762D02*
X66476190Y-39404762D01*
X67142857Y-41404762D01*
X67809523Y-41404762D02*
X67809523Y-39404762D01*
X68571428Y-39404762D01*
X68761904Y-39500000D01*
X68857143Y-39595238D01*
X68952381Y-39785714D01*
X68952381Y-40071429D01*
X68857143Y-40261905D01*
X68761904Y-40357143D01*
X68571428Y-40452381D01*
X67809523Y-40452381D01*
X70095238Y-41404762D02*
X69904762Y-41309524D01*
X69809523Y-41214286D01*
X69714285Y-41023810D01*
X69714285Y-40452381D01*
X69809523Y-40261905D01*
X69904762Y-40166667D01*
X70095238Y-40071429D01*
X70380952Y-40071429D01*
X70571428Y-40166667D01*
X70666666Y-40261905D01*
X70761904Y-40452381D01*
X70761904Y-41023810D01*
X70666666Y-41214286D01*
X70571428Y-41309524D01*
X70380952Y-41404762D01*
X70095238Y-41404762D01*
X71619047Y-40071429D02*
X71619047Y-41404762D01*
X71619047Y-40261905D02*
X71714286Y-40166667D01*
X71904762Y-40071429D01*
X72190476Y-40071429D01*
X72380952Y-40166667D01*
X72476190Y-40357143D01*
X72476190Y-41404762D01*
X74190476Y-41309524D02*
X74000000Y-41404762D01*
X73619048Y-41404762D01*
X73428571Y-41309524D01*
X73333333Y-41119048D01*
X73333333Y-40357143D01*
X73428571Y-40166667D01*
X73619048Y-40071429D01*
X74000000Y-40071429D01*
X74190476Y-40166667D01*
X74285714Y-40357143D01*
X74285714Y-40547619D01*
X73333333Y-40738095D01*
D11*
X70157143Y-37552381D02*
X69680952Y-37552381D01*
X69633333Y-38028571D01*
X69680952Y-37980952D01*
X69776190Y-37933333D01*
X70014286Y-37933333D01*
X70109524Y-37980952D01*
X70157143Y-38028571D01*
X70204762Y-38123810D01*
X70204762Y-38361905D01*
X70157143Y-38457143D01*
X70109524Y-38504762D01*
X70014286Y-38552381D01*
X69776190Y-38552381D01*
X69680952Y-38504762D01*
X69633333Y-38457143D01*
X70490476Y-37552381D02*
X70823809Y-38552381D01*
X71157143Y-37552381D01*
X72252381Y-37885714D02*
X71490476Y-38171429D01*
X72252381Y-38457143D01*
X72728571Y-37885714D02*
X73490476Y-38171429D01*
X72728571Y-38457143D01*
X73966666Y-38028571D02*
X74300000Y-38028571D01*
X74442857Y-38552381D02*
X73966666Y-38552381D01*
X73966666Y-37552381D01*
X74442857Y-37552381D01*
X74776190Y-38552381D02*
X75300000Y-37885714D01*
X74776190Y-37885714D02*
X75300000Y-38552381D01*
X75538095Y-37885714D02*
X75919047Y-37885714D01*
X75680952Y-37552381D02*
X75680952Y-38409524D01*
X75728571Y-38504762D01*
X75823809Y-38552381D01*
X75919047Y-38552381D01*
X77157143Y-37552381D02*
X77157143Y-37790476D01*
X76919048Y-37695238D02*
X77157143Y-37790476D01*
X77395239Y-37695238D01*
X77014286Y-37980952D02*
X77157143Y-37790476D01*
X77300001Y-37980952D01*
X78252382Y-37552381D02*
X77776191Y-37552381D01*
X77728572Y-38028571D01*
X77776191Y-37980952D01*
X77871429Y-37933333D01*
X78109525Y-37933333D01*
X78204763Y-37980952D01*
X78252382Y-38028571D01*
X78300001Y-38123810D01*
X78300001Y-38361905D01*
X78252382Y-38457143D01*
X78204763Y-38504762D01*
X78109525Y-38552381D01*
X77871429Y-38552381D01*
X77776191Y-38504762D01*
X77728572Y-38457143D01*
X78585715Y-37552381D02*
X78919048Y-38552381D01*
X79252382Y-37552381D01*
X80347620Y-38552381D02*
X80347620Y-37885714D01*
X80347620Y-37980952D02*
X80395239Y-37933333D01*
X80490477Y-37885714D01*
X80633335Y-37885714D01*
X80728573Y-37933333D01*
X80776192Y-38028571D01*
X80776192Y-38552381D01*
X80776192Y-38028571D02*
X80823811Y-37933333D01*
X80919049Y-37885714D01*
X81061906Y-37885714D01*
X81157144Y-37933333D01*
X81204763Y-38028571D01*
X81204763Y-38552381D01*
X82109525Y-38552381D02*
X82109525Y-38028571D01*
X82061906Y-37933333D01*
X81966668Y-37885714D01*
X81776191Y-37885714D01*
X81680953Y-37933333D01*
X82109525Y-38504762D02*
X82014287Y-38552381D01*
X81776191Y-38552381D01*
X81680953Y-38504762D01*
X81633334Y-38409524D01*
X81633334Y-38314286D01*
X81680953Y-38219048D01*
X81776191Y-38171429D01*
X82014287Y-38171429D01*
X82109525Y-38123810D01*
X82490477Y-38552381D02*
X83014287Y-37885714D01*
X82490477Y-37885714D02*
X83014287Y-38552381D01*
D10*
X30000000Y-60000000D02*
X30000000Y-32000000D01*
X98000000Y-60000000D02*
X30000000Y-60000000D01*
X32000000Y-30000000D02*
X98000000Y-30000000D01*
D14*
X34055000Y-30965000D02*
X34055000Y-30330000D01*
X34055000Y-30330000D02*
X42945000Y-30330000D01*
X42945000Y-30330000D02*
X42945000Y-30965000D01*
X34055000Y-34775000D02*
X34055000Y-30965000D01*
X34055000Y-30965000D02*
X42945000Y-30965000D01*
X42945000Y-30965000D02*
X42945000Y-34775000D01*
X42945000Y-34775000D02*
X34055000Y-34775000D01*
D15*
X91750000Y-30250000D02*
G75*
G03X90000000Y-32000000I0J-1750000D01*
G01*
X90000000Y-36500000D02*
X90000000Y-32000000D01*
X90000000Y-36500000D02*
G75*
G03X91750000Y-38250000I1750000J0D01*
G01*
X98250000Y-38250000D02*
X91750000Y-38250000D01*
X100000000Y-32000000D02*
X100000000Y-36500000D01*
X91750000Y-30250000D02*
X98250000Y-30250000D01*
X100000000Y-32000000D02*
G75*
G03X98250000Y-30250000I-1750000J0D01*
G01*
X98250000Y-38250000D02*
G75*
G03X100000000Y-36500000I0J1750000D01*
G01*
X96816100Y-34250000D02*
G75*
G03X96816100Y-34250000I-1816100J0D01*
G01*
D14*
X38718000Y-56064000D02*
X38718000Y-51568200D01*
X38718000Y-59874000D02*
X38718000Y-56064000D01*
X38286200Y-46412000D02*
X36965400Y-46412000D01*
X30082000Y-46412000D02*
X31834600Y-46412000D01*
X30082000Y-59112000D02*
X30082000Y-59874000D01*
X30082000Y-59874000D02*
X38718000Y-59874000D01*
X30082000Y-59112000D02*
X30082000Y-46412000D01*
D15*
X55654000Y-32997000D02*
X55654000Y-33251000D01*
X55146000Y-32997000D02*
X55146000Y-33251000D01*
X55527000Y-32997000D02*
X55527000Y-33505000D01*
X55273000Y-32997000D02*
X55273000Y-33505000D01*
X55400000Y-33759000D02*
X55400000Y-32997000D01*
X55400000Y-33759000D02*
X55781000Y-32997000D01*
X55781000Y-32997000D02*
X55019000Y-32997000D01*
X55019000Y-32997000D02*
X55400000Y-33759000D01*
X54511000Y-36680000D02*
X54511000Y-36426000D01*
X54384000Y-36680000D02*
X54384000Y-36299000D01*
X54257000Y-36680000D02*
X54257000Y-36172000D01*
X56289000Y-36680000D02*
X56289000Y-36426000D01*
X56416000Y-36680000D02*
X56416000Y-36299000D01*
X56543000Y-36680000D02*
X56543000Y-36172000D01*
X56289000Y-34140000D02*
X56289000Y-34394000D01*
X56416000Y-34140000D02*
X56416000Y-34521000D01*
X56543000Y-34140000D02*
X56543000Y-34648000D01*
X54511000Y-34140000D02*
X54511000Y-34394000D01*
X54384000Y-34140000D02*
X54384000Y-34521000D01*
X54257000Y-34140000D02*
X54257000Y-34648000D01*
X54130000Y-36045000D02*
X54765000Y-36680000D01*
X56035000Y-36680000D02*
X56670000Y-36045000D01*
X54130000Y-36680000D02*
X54765000Y-36680000D01*
X54765000Y-36680000D02*
X56035000Y-36680000D01*
X56035000Y-36680000D02*
X56670000Y-36680000D01*
X54130000Y-36680000D02*
X54130000Y-36045000D01*
X54130000Y-36045000D02*
X54130000Y-34775000D01*
X56035000Y-34140000D02*
X56670000Y-34140000D01*
X56670000Y-34140000D02*
X56670000Y-34775000D01*
X54130000Y-34775000D02*
X54130000Y-34140000D01*
X54130000Y-34140000D02*
X54765000Y-34140000D01*
X50955000Y-39220000D02*
X49685000Y-39220000D01*
X53495000Y-39220000D02*
X52225000Y-39220000D01*
X56035000Y-39220000D02*
X54765000Y-39220000D01*
X56670000Y-34775000D02*
X56670000Y-38585000D01*
X54765000Y-34140000D02*
X56035000Y-34140000D01*
X52225000Y-34140000D02*
X53495000Y-34140000D01*
X49685000Y-34140000D02*
X50955000Y-34140000D01*
X49050000Y-38585000D02*
X49050000Y-34775000D01*
X56035000Y-34140000D02*
X56670000Y-34775000D01*
X53495000Y-34140000D02*
X54130000Y-34775000D01*
X54130000Y-34775000D02*
X54765000Y-34140000D01*
X50955000Y-34140000D02*
X51590000Y-34775000D01*
X51590000Y-34775000D02*
X52225000Y-34140000D01*
X49050000Y-34775000D02*
X49685000Y-34140000D01*
X49685000Y-39220000D02*
X49050000Y-38585000D01*
X52225000Y-39220000D02*
X51590000Y-38585000D01*
X51590000Y-38585000D02*
X50955000Y-39220000D01*
X54765000Y-39220000D02*
X54130000Y-38585000D01*
X54130000Y-38585000D02*
X53495000Y-39220000D01*
X56670000Y-38585000D02*
X56035000Y-39220000D01*
D11*
X64290000Y-30330000D02*
X46510000Y-30330000D01*
X46510000Y-30330000D02*
X46510000Y-32870000D01*
X46510000Y-32870000D02*
X64290000Y-32870000D01*
X66830000Y-30330000D02*
X64290000Y-30330000D01*
X64290000Y-30330000D02*
X64290000Y-32870000D01*
X66830000Y-30330000D02*
X66830000Y-32870000D01*
X66830000Y-32870000D02*
X64290000Y-32870000D01*
X87150000Y-30330000D02*
X69370000Y-30330000D01*
X69370000Y-30330000D02*
X69370000Y-32870000D01*
X69370000Y-32870000D02*
X87150000Y-32870000D01*
X89690000Y-30330000D02*
X87150000Y-30330000D01*
X87150000Y-30330000D02*
X87150000Y-32870000D01*
X89690000Y-30330000D02*
X89690000Y-32870000D01*
X89690000Y-32870000D02*
X87150000Y-32870000D01*
X87150000Y-55730000D02*
X74450000Y-55730000D01*
X74450000Y-55730000D02*
X74450000Y-58270000D01*
X74450000Y-58270000D02*
X87150000Y-58270000D01*
X89690000Y-55730000D02*
X87150000Y-55730000D01*
X87150000Y-55730000D02*
X87150000Y-58270000D01*
X89690000Y-55730000D02*
X89690000Y-58270000D01*
X89690000Y-58270000D02*
X87150000Y-58270000D01*
X69370000Y-55730000D02*
X56670000Y-55730000D01*
X56670000Y-55730000D02*
X56670000Y-58270000D01*
X56670000Y-58270000D02*
X69370000Y-58270000D01*
X71910000Y-55730000D02*
X69370000Y-55730000D01*
X69370000Y-55730000D02*
X69370000Y-58270000D01*
X71910000Y-55730000D02*
X71910000Y-58270000D01*
X71910000Y-58270000D02*
X69370000Y-58270000D01*
D15*
X45865000Y-39220000D02*
X44595000Y-39220000D01*
X45865000Y-31600000D02*
X44595000Y-31600000D01*
X43960000Y-33505000D02*
X43960000Y-32235000D01*
X43960000Y-36045000D02*
X43960000Y-34775000D01*
X43960000Y-38585000D02*
X43960000Y-37315000D01*
X46500000Y-37315000D02*
X46500000Y-38585000D01*
X46500000Y-34775000D02*
X46500000Y-36045000D01*
X46500000Y-32235000D02*
X46500000Y-33505000D01*
X46500000Y-38585000D02*
X45865000Y-39220000D01*
X46500000Y-36045000D02*
X45865000Y-36680000D01*
X45865000Y-36680000D02*
X46500000Y-37315000D01*
X46500000Y-33505000D02*
X45865000Y-34140000D01*
X45865000Y-34140000D02*
X46500000Y-34775000D01*
X45865000Y-31600000D02*
X46500000Y-32235000D01*
X43960000Y-32235000D02*
X44595000Y-31600000D01*
X43960000Y-34775000D02*
X44595000Y-34140000D01*
X44595000Y-34140000D02*
X43960000Y-33505000D01*
X43960000Y-37315000D02*
X44595000Y-36680000D01*
X44595000Y-36680000D02*
X43960000Y-36045000D01*
X44595000Y-39220000D02*
X43960000Y-38585000D01*
D11*
X50430000Y-59328800D02*
X52970000Y-59328800D01*
X52675527Y-56583136D02*
G75*
G03X51700000Y-56230000I-975527J-1170864D01*
G01*
X51699531Y-56231889D02*
G75*
G03X50689080Y-56616080I469J-1522111D01*
G01*
X51700034Y-59276147D02*
G75*
G03X52690600Y-58909700I-34J1522147D01*
G01*
X50724473Y-58924864D02*
G75*
G03X51700000Y-59278000I975527J1170864D01*
G01*
X52587155Y-58993166D02*
G75*
G03X53224000Y-57754000I-887155J1239166D01*
G01*
X53224000Y-57753199D02*
G75*
G03X52614400Y-56534800I-1524000J-801D01*
G01*
X50177794Y-57754442D02*
G75*
G03X50765280Y-58955420I1522206J442D01*
G01*
X50763829Y-56551436D02*
G75*
G03X50176000Y-57754000I936171J-1202564D01*
G01*
X52335000Y-57754000D02*
G75*
G03X51700000Y-57119000I-635000J0D01*
G01*
X52716000Y-57754000D02*
G75*
G03X51700000Y-56738000I-1016000J0D01*
G01*
X51065000Y-57754000D02*
G75*
G03X51700000Y-58389000I635000J0D01*
G01*
X50684000Y-57754000D02*
G75*
G03X51700000Y-58770000I1016000J0D01*
G01*
X53003426Y-59312880D02*
G75*
G03X53732000Y-57754000I-1303426J1558880D01*
G01*
X53729460Y-57753025D02*
G75*
G03X52655040Y-55963300I-2029460J-975D01*
G01*
X49670614Y-57756552D02*
G75*
G03X50389360Y-59303400I2029386J2552D01*
G01*
X50690149Y-55990701D02*
G75*
G03X49668000Y-57754000I1009851J-1763299D01*
G01*
X52663347Y-55964870D02*
G75*
G03X51700000Y-55722000I-963347J-1789130D01*
G01*
X51699900Y-55723077D02*
G75*
G03X50635740Y-56024260I100J-2030923D01*
G01*
X45930000Y-59328800D02*
X48470000Y-59328800D01*
X48175527Y-56583136D02*
G75*
G03X47200000Y-56230000I-975527J-1170864D01*
G01*
X47199531Y-56231889D02*
G75*
G03X46189080Y-56616080I469J-1522111D01*
G01*
X47200034Y-59276147D02*
G75*
G03X48190600Y-58909700I-34J1522147D01*
G01*
X46224473Y-58924864D02*
G75*
G03X47200000Y-59278000I975527J1170864D01*
G01*
X48087155Y-58993166D02*
G75*
G03X48724000Y-57754000I-887155J1239166D01*
G01*
X48724000Y-57753199D02*
G75*
G03X48114400Y-56534800I-1524000J-801D01*
G01*
X45677794Y-57754442D02*
G75*
G03X46265280Y-58955420I1522206J442D01*
G01*
X46263829Y-56551436D02*
G75*
G03X45676000Y-57754000I936171J-1202564D01*
G01*
X47835000Y-57754000D02*
G75*
G03X47200000Y-57119000I-635000J0D01*
G01*
X48216000Y-57754000D02*
G75*
G03X47200000Y-56738000I-1016000J0D01*
G01*
X46565000Y-57754000D02*
G75*
G03X47200000Y-58389000I635000J0D01*
G01*
X46184000Y-57754000D02*
G75*
G03X47200000Y-58770000I1016000J0D01*
G01*
X48503426Y-59312880D02*
G75*
G03X49232000Y-57754000I-1303426J1558880D01*
G01*
X49229460Y-57753025D02*
G75*
G03X48155040Y-55963300I-2029460J-975D01*
G01*
X45170614Y-57756552D02*
G75*
G03X45889360Y-59303400I2029386J2552D01*
G01*
X46190149Y-55990701D02*
G75*
G03X45168000Y-57754000I1009851J-1763299D01*
G01*
X48163347Y-55964870D02*
G75*
G03X47200000Y-55722000I-963347J-1789130D01*
G01*
X47199900Y-55723077D02*
G75*
G03X46135740Y-56024260I100J-2030923D01*
G01*
X95670000Y-46800000D02*
X95670000Y-39180000D01*
X95670000Y-39180000D02*
X44870000Y-39180000D01*
X44870000Y-39180000D02*
X44870000Y-54420000D01*
X44870000Y-54420000D02*
X95670000Y-54420000D01*
X95670000Y-46800000D02*
X95670000Y-54420000D01*
D16*
X88050000Y-49340000D02*
X49950000Y-49340000D01*
X49950000Y-49340000D02*
X49950000Y-44260000D01*
X49950000Y-44260000D02*
X88050000Y-44260000D01*
X88050000Y-44260000D02*
X88050000Y-49340000D01*
X88050000Y-48070000D02*
X86780000Y-48070000D01*
X86780000Y-48070000D02*
X86780000Y-45530000D01*
X86780000Y-45530000D02*
X88050000Y-45530000D01*
D15*
X96793500Y-52461000D02*
X96920500Y-52461000D01*
X96793500Y-52334000D02*
X97047500Y-52334000D01*
X96793500Y-52207000D02*
X97174500Y-52207000D01*
X96793500Y-54239000D02*
X96920500Y-54239000D01*
X96793500Y-54366000D02*
X97047500Y-54366000D01*
X96793500Y-54493000D02*
X97174500Y-54493000D01*
X99206500Y-54239000D02*
X99079500Y-54239000D01*
X99206500Y-54366000D02*
X98952500Y-54366000D01*
X99206500Y-54493000D02*
X98825500Y-54493000D01*
X99206500Y-52461000D02*
X99079500Y-52461000D01*
X99206500Y-52334000D02*
X99016000Y-52334000D01*
X99206500Y-52207000D02*
X98825500Y-52207000D01*
X96730000Y-52715000D02*
X96730000Y-52143500D01*
X96730000Y-52143500D02*
X96730000Y-52080000D01*
X96730000Y-52080000D02*
X97301500Y-52080000D01*
X97365000Y-54620000D02*
X96730000Y-54620000D01*
X96730000Y-54620000D02*
X96730000Y-53985000D01*
X98635000Y-52080000D02*
X99270000Y-52080000D01*
X99270000Y-52080000D02*
X99270000Y-52715000D01*
X98635000Y-54620000D02*
X99270000Y-54620000D01*
X99270000Y-54620000D02*
X99270000Y-53985000D01*
X97365000Y-52080000D02*
X98635000Y-52080000D01*
X97365000Y-54620000D02*
X98635000Y-54620000D01*
X98635000Y-54620000D02*
X99270000Y-53985000D01*
X99270000Y-53985000D02*
X99270000Y-52715000D01*
X99270000Y-52715000D02*
X98635000Y-52080000D01*
X98635000Y-52080000D02*
X99270000Y-51445000D01*
X99270000Y-51445000D02*
X99270000Y-50175000D01*
X99270000Y-50175000D02*
X98635000Y-49540000D01*
X98635000Y-49540000D02*
X99270000Y-48905000D01*
X99270000Y-48905000D02*
X99270000Y-47635000D01*
X99270000Y-47635000D02*
X98635000Y-47000000D01*
X98635000Y-47000000D02*
X99270000Y-46365000D01*
X99270000Y-46365000D02*
X99270000Y-45095000D01*
X99270000Y-45095000D02*
X98635000Y-44460000D01*
X98635000Y-44460000D02*
X99270000Y-43825000D01*
X99270000Y-43825000D02*
X99270000Y-42555000D01*
X99270000Y-42555000D02*
X98635000Y-41920000D01*
X98635000Y-41920000D02*
X99270000Y-41285000D01*
X99270000Y-41285000D02*
X99270000Y-40015000D01*
X99270000Y-40015000D02*
X98635000Y-39380000D01*
X98635000Y-39380000D02*
X97365000Y-39380000D01*
X97365000Y-39380000D02*
X96730000Y-40015000D01*
X96730000Y-40015000D02*
X96730000Y-41285000D01*
X96730000Y-41285000D02*
X97365000Y-41920000D01*
X97365000Y-41920000D02*
X96730000Y-42555000D01*
X96730000Y-42555000D02*
X96730000Y-43825000D01*
X96730000Y-43825000D02*
X97365000Y-44460000D01*
X97365000Y-44460000D02*
X96730000Y-45095000D01*
X96730000Y-45095000D02*
X96730000Y-46365000D01*
X96730000Y-46365000D02*
X97365000Y-47000000D01*
X97365000Y-47000000D02*
X96730000Y-47635000D01*
X96730000Y-47635000D02*
X96730000Y-48905000D01*
X96730000Y-48905000D02*
X97365000Y-49540000D01*
X97365000Y-49540000D02*
X96730000Y-50175000D01*
X96730000Y-50175000D02*
X96730000Y-51445000D01*
X96730000Y-51445000D02*
X97365000Y-52080000D01*
X97365000Y-52080000D02*
X96730000Y-52715000D01*
X96730000Y-52715000D02*
X96730000Y-53985000D01*
X96730000Y-53985000D02*
X97365000Y-54620000D01*
D11*
X60510000Y-38580000D02*
X65510000Y-38580000D01*
X65510000Y-38080000D02*
X60510000Y-38080000D01*
X60510000Y-33580000D02*
X65510000Y-33580000D01*
X65510000Y-34080000D02*
X60510000Y-34080000D01*
X68010000Y-36080000D02*
G75*
G03X65510000Y-33580000I-2500000J0D01*
G01*
X65510000Y-38580000D02*
G75*
G03X68010000Y-36080000I0J2500000D01*
G01*
X60510000Y-33580000D02*
G75*
G03X58010000Y-36080000I0J-2500000D01*
G01*
X58010000Y-36080000D02*
G75*
G03X60510000Y-38580000I2500000J0D01*
G01*
X60510000Y-34080000D02*
G75*
G03X58510000Y-36080000I0J-2000000D01*
G01*
X58510000Y-36080000D02*
G75*
G03X60510000Y-38080000I2000000J0D01*
G01*
X67510000Y-36080000D02*
G75*
G03X65510000Y-34080000I-2000000J0D01*
G01*
X65510000Y-38080000D02*
G75*
G03X67510000Y-36080000I0J2000000D01*
G01*
X44234547Y-43760000D02*
G75*
G03X44234547Y-43760000I-1534547J0D01*
G01*
X41684000Y-42236000D02*
X43716000Y-42236000D01*
X42700000Y-41474000D02*
X43716000Y-42236000D01*
X41684000Y-42236000D02*
X42700000Y-41474000D01*
X41684000Y-41474000D02*
X43716000Y-41474000D01*
D15*
X76990000Y-34775000D02*
X76990000Y-36045000D01*
X69370000Y-34775000D02*
X69370000Y-36045000D01*
X71275000Y-36680000D02*
X70005000Y-36680000D01*
X73815000Y-36680000D02*
X72545000Y-36680000D01*
X76355000Y-36680000D02*
X75085000Y-36680000D01*
X75085000Y-34140000D02*
X76355000Y-34140000D01*
X72545000Y-34140000D02*
X73815000Y-34140000D01*
X70005000Y-34140000D02*
X71275000Y-34140000D01*
X76355000Y-34140000D02*
X76990000Y-34775000D01*
X73815000Y-34140000D02*
X74450000Y-34775000D01*
X74450000Y-34775000D02*
X75085000Y-34140000D01*
X71275000Y-34140000D02*
X71910000Y-34775000D01*
X71910000Y-34775000D02*
X72545000Y-34140000D01*
X69370000Y-34775000D02*
X70005000Y-34140000D01*
X70005000Y-36680000D02*
X69370000Y-36045000D01*
X72545000Y-36680000D02*
X71910000Y-36045000D01*
X71910000Y-36045000D02*
X71275000Y-36680000D01*
X75085000Y-36680000D02*
X74450000Y-36045000D01*
X74450000Y-36045000D02*
X73815000Y-36680000D01*
X76990000Y-36045000D02*
X76355000Y-36680000D01*
D10*
G36*
X95264956Y-42319217D02*
X95319615Y-42320827D01*
X95368527Y-42325398D01*
X95401456Y-42331412D01*
X95484012Y-42358590D01*
X95559183Y-42397635D01*
X95626753Y-42448261D01*
X95686509Y-42510184D01*
X95738235Y-42583118D01*
X95781717Y-42666777D01*
X95816742Y-42760875D01*
X95817396Y-42763466D01*
X95176792Y-42763466D01*
X95151491Y-42765926D01*
X95126656Y-42770268D01*
X95098109Y-42776733D01*
X95069582Y-42785561D01*
X95039378Y-42797613D01*
X95005795Y-42813752D01*
X94967135Y-42834842D01*
X94921698Y-42861746D01*
X94867783Y-42895326D01*
X94819551Y-42926193D01*
X94776327Y-42954076D01*
X94735052Y-42980694D01*
X94697841Y-43004685D01*
X94666804Y-43024686D01*
X94644056Y-43039337D01*
X94634305Y-43045608D01*
X94619191Y-43055324D01*
X94594112Y-43071458D01*
X94560966Y-43092786D01*
X94521654Y-43118086D01*
X94478074Y-43146137D01*
X94432127Y-43175715D01*
X94426167Y-43179552D01*
X94379358Y-43209681D01*
X94334046Y-43238836D01*
X94292268Y-43265707D01*
X94256065Y-43288981D01*
X94227475Y-43307348D01*
X94208537Y-43319496D01*
X94207444Y-43320196D01*
X94175083Y-43340931D01*
X94132522Y-43368230D01*
X94081428Y-43401022D01*
X94023468Y-43438236D01*
X93960309Y-43478801D01*
X93893619Y-43521646D01*
X93825064Y-43565699D01*
X93756311Y-43609890D01*
X93689028Y-43653148D01*
X93624882Y-43694400D01*
X93565539Y-43732577D01*
X93520600Y-43761500D01*
X93467000Y-43795999D01*
X93413367Y-43830504D01*
X93361801Y-43863668D01*
X93314399Y-43894141D01*
X93273262Y-43920573D01*
X93240487Y-43941615D01*
X93224292Y-43952000D01*
X93184744Y-43977395D01*
X93140535Y-44005872D01*
X93097450Y-44033701D01*
X93065653Y-44054306D01*
X93029368Y-44077837D01*
X92990291Y-44103127D01*
X92953667Y-44126783D01*
X92930010Y-44142025D01*
X92898970Y-44162041D01*
X92867169Y-44182632D01*
X92839870Y-44200388D01*
X92831357Y-44205954D01*
X92809638Y-44219883D01*
X92791608Y-44230904D01*
X92781968Y-44236224D01*
X92773344Y-44241276D01*
X92754703Y-44252942D01*
X92727820Y-44270087D01*
X92694468Y-44291572D01*
X92656423Y-44316264D01*
X92630528Y-44333162D01*
X92586587Y-44361858D01*
X92542675Y-44390471D01*
X92501464Y-44417266D01*
X92465626Y-44440505D01*
X92437832Y-44458453D01*
X92429444Y-44463840D01*
X92377070Y-44497407D01*
X92314197Y-44537745D01*
X92242184Y-44583980D01*
X92162392Y-44635237D01*
X92076183Y-44690641D01*
X91984916Y-44749319D01*
X91889953Y-44810395D01*
X91792654Y-44872995D01*
X91694379Y-44936245D01*
X91688611Y-44939958D01*
X91630892Y-44977106D01*
X91564425Y-45019871D01*
X91492338Y-45066241D01*
X91417755Y-45114206D01*
X91343802Y-45161757D01*
X91273605Y-45206883D01*
X91222944Y-45239442D01*
X91156783Y-45281960D01*
X91086031Y-45327430D01*
X91012383Y-45374765D01*
X90937534Y-45422873D01*
X90863180Y-45470667D01*
X90791015Y-45517054D01*
X90722735Y-45560948D01*
X90660035Y-45601256D01*
X90604609Y-45636891D01*
X90558154Y-45666761D01*
X90531500Y-45683903D01*
X90513840Y-45695265D01*
X90486262Y-45713013D01*
X90450709Y-45735897D01*
X90409126Y-45762664D01*
X90363460Y-45792062D01*
X90315654Y-45822838D01*
X90302194Y-45831504D01*
X90226165Y-45880447D01*
X90146382Y-45931795D01*
X90063933Y-45984847D01*
X89979906Y-46038907D01*
X89895388Y-46093273D01*
X89811466Y-46147247D01*
X89729228Y-46200130D01*
X89649761Y-46251223D01*
X89574153Y-46299826D01*
X89503490Y-46345241D01*
X89438861Y-46386769D01*
X89381353Y-46423710D01*
X89332053Y-46455364D01*
X89292048Y-46481034D01*
X89262427Y-46500020D01*
X89254444Y-46505129D01*
X89225755Y-46523478D01*
X89198671Y-46540800D01*
X89177275Y-46554484D01*
X89169778Y-46559278D01*
X89095337Y-46607168D01*
X89032484Y-46648239D01*
X88980667Y-46682867D01*
X88939338Y-46711429D01*
X88907943Y-46734302D01*
X88885934Y-46751864D01*
X88878080Y-46758960D01*
X88828678Y-46814730D01*
X88792482Y-46873991D01*
X88769743Y-46936206D01*
X88760712Y-47000839D01*
X88760555Y-47010696D01*
X88761602Y-47043986D01*
X88765577Y-47072101D01*
X88773737Y-47099885D01*
X88787337Y-47132185D01*
X88797579Y-47153607D01*
X88809099Y-47175497D01*
X88821961Y-47196037D01*
X88837199Y-47216063D01*
X88855850Y-47236409D01*
X88878948Y-47257909D01*
X88907527Y-47281397D01*
X88942624Y-47307709D01*
X88985272Y-47337677D01*
X89036507Y-47372138D01*
X89097364Y-47411924D01*
X89168879Y-47457871D01*
X89198201Y-47476571D01*
X89236733Y-47501168D01*
X89283659Y-47531220D01*
X89335530Y-47564514D01*
X89388898Y-47598833D01*
X89440311Y-47631963D01*
X89460849Y-47645221D01*
X89502764Y-47672272D01*
X89554058Y-47705339D01*
X89612234Y-47742814D01*
X89674795Y-47783092D01*
X89739247Y-47824563D01*
X89803091Y-47865622D01*
X89861420Y-47903111D01*
X89914382Y-47937141D01*
X89966008Y-47970315D01*
X90017380Y-48003330D01*
X90069580Y-48036882D01*
X90123690Y-48071665D01*
X90180793Y-48108377D01*
X90241970Y-48147713D01*
X90308304Y-48190368D01*
X90380876Y-48237039D01*
X90460769Y-48288421D01*
X90549065Y-48345209D01*
X90646845Y-48408101D01*
X90755193Y-48477790D01*
X90778444Y-48492746D01*
X90843514Y-48534600D01*
X90916859Y-48581775D01*
X90994884Y-48631961D01*
X91073996Y-48682845D01*
X91150601Y-48732117D01*
X91221105Y-48777464D01*
X91254694Y-48799068D01*
X91316216Y-48838641D01*
X91381988Y-48880952D01*
X91449215Y-48924204D01*
X91515105Y-48966599D01*
X91576864Y-49006341D01*
X91631698Y-49041632D01*
X91667444Y-49064642D01*
X91714250Y-49094762D01*
X91759560Y-49123897D01*
X91801336Y-49150738D01*
X91837539Y-49173975D01*
X91866129Y-49192300D01*
X91885069Y-49204402D01*
X91886167Y-49205101D01*
X91903072Y-49215907D01*
X91930073Y-49233231D01*
X91965405Y-49255938D01*
X92007306Y-49282894D01*
X92054015Y-49312966D01*
X92103767Y-49345019D01*
X92140167Y-49368484D01*
X92216625Y-49417764D01*
X92302050Y-49472787D01*
X92393527Y-49531679D01*
X92488144Y-49592567D01*
X92582987Y-49653574D01*
X92675145Y-49712829D01*
X92761705Y-49768455D01*
X92806917Y-49797495D01*
X92827361Y-49810649D01*
X92857596Y-49830136D01*
X92895562Y-49854625D01*
X92939198Y-49882789D01*
X92986447Y-49913299D01*
X93035247Y-49944824D01*
X93048238Y-49953219D01*
X93095354Y-49983642D01*
X93139911Y-50012364D01*
X93180181Y-50038277D01*
X93214439Y-50060271D01*
X93240958Y-50077236D01*
X93258011Y-50088063D01*
X93261643Y-50090333D01*
X93280118Y-50101903D01*
X93306221Y-50118437D01*
X93335723Y-50137251D01*
X93351932Y-50147640D01*
X93427945Y-50196475D01*
X93512663Y-50250926D01*
X93602932Y-50308966D01*
X93695598Y-50368566D01*
X93787506Y-50427696D01*
X93875502Y-50484328D01*
X93956431Y-50536433D01*
X93956972Y-50536781D01*
X94005412Y-50567973D01*
X94051050Y-50597355D01*
X94092273Y-50623889D01*
X94127464Y-50646534D01*
X94155010Y-50664253D01*
X94173295Y-50676005D01*
X94179222Y-50679806D01*
X94192348Y-50688238D01*
X94217072Y-50704157D01*
X94253136Y-50727398D01*
X94300282Y-50757793D01*
X94358253Y-50795177D01*
X94426792Y-50839384D01*
X94505639Y-50890248D01*
X94594539Y-50947602D01*
X94627250Y-50968706D01*
X94708119Y-51020776D01*
X94780378Y-51067079D01*
X94843515Y-51107295D01*
X94897020Y-51141100D01*
X94940383Y-51168172D01*
X94973092Y-51188189D01*
X94994637Y-51200828D01*
X94997667Y-51202499D01*
X95056178Y-51229476D01*
X95112971Y-51245189D01*
X95172822Y-51250899D01*
X95181111Y-51250972D01*
X95213643Y-51250271D01*
X95237607Y-51247434D01*
X95258508Y-51241362D01*
X95281849Y-51230955D01*
X95282208Y-51230779D01*
X95308277Y-51216121D01*
X95332622Y-51199370D01*
X95345708Y-51188191D01*
X95368220Y-51160179D01*
X95390328Y-51123194D01*
X95409439Y-51082200D01*
X95422961Y-51042165D01*
X95423918Y-51038360D01*
X95424696Y-51028114D01*
X95425449Y-51004245D01*
X95426176Y-50967241D01*
X95426877Y-50917591D01*
X95427551Y-50855782D01*
X95428199Y-50782303D01*
X95428821Y-50697642D01*
X95429416Y-50602286D01*
X95429985Y-50496725D01*
X95430528Y-50381446D01*
X95431044Y-50256937D01*
X95431533Y-50123687D01*
X95431996Y-49982183D01*
X95432433Y-49832914D01*
X95432842Y-49676368D01*
X95433225Y-49513034D01*
X95433581Y-49343398D01*
X95433911Y-49167950D01*
X95434213Y-48987177D01*
X95434489Y-48801568D01*
X95434737Y-48611611D01*
X95434959Y-48417794D01*
X95435153Y-48220605D01*
X95435320Y-48020532D01*
X95435461Y-47818064D01*
X95435574Y-47613688D01*
X95435659Y-47407893D01*
X95435718Y-47201166D01*
X95435749Y-46993997D01*
X95435753Y-46786873D01*
X95435729Y-46580282D01*
X95435678Y-46374712D01*
X95435599Y-46170653D01*
X95435493Y-45968590D01*
X95435359Y-45769014D01*
X95435197Y-45572412D01*
X95435008Y-45379271D01*
X95434791Y-45190081D01*
X95434546Y-45005330D01*
X95434273Y-44825505D01*
X95433972Y-44651095D01*
X95433644Y-44482587D01*
X95433287Y-44320471D01*
X95432902Y-44165234D01*
X95432489Y-44017364D01*
X95432048Y-43877350D01*
X95431579Y-43745679D01*
X95431082Y-43622840D01*
X95430556Y-43509321D01*
X95430002Y-43405610D01*
X95429420Y-43312195D01*
X95428809Y-43229564D01*
X95428170Y-43158206D01*
X95427502Y-43098609D01*
X95426806Y-43051260D01*
X95426081Y-43016648D01*
X95425327Y-42995261D01*
X95424696Y-42987971D01*
X95404428Y-42922493D01*
X95377080Y-42868953D01*
X95342162Y-42826811D01*
X95299185Y-42795526D01*
X95247660Y-42774558D01*
X95226490Y-42769341D01*
X95199674Y-42764623D01*
X95176792Y-42763466D01*
X95817396Y-42763466D01*
X95843093Y-42865128D01*
X95855085Y-42935464D01*
X95856561Y-42947620D01*
X95857895Y-42962678D01*
X95859094Y-42981339D01*
X95860165Y-43004301D01*
X95861115Y-43032264D01*
X95861950Y-43065927D01*
X95862678Y-43105990D01*
X95863304Y-43153151D01*
X95863836Y-43208110D01*
X95864280Y-43271566D01*
X95864643Y-43344218D01*
X95864932Y-43426766D01*
X95865154Y-43519909D01*
X95865315Y-43624345D01*
X95865421Y-43740774D01*
X95865481Y-43869897D01*
X95865500Y-44012410D01*
X95865500Y-44016728D01*
X95865538Y-44134772D01*
X95865648Y-44248890D01*
X95865827Y-44358291D01*
X95866071Y-44462185D01*
X95866374Y-44559781D01*
X95866732Y-44650290D01*
X95867142Y-44732921D01*
X95867598Y-44806883D01*
X95868098Y-44871386D01*
X95868635Y-44925639D01*
X95869206Y-44968853D01*
X95869807Y-45000237D01*
X95870433Y-45019000D01*
X95871005Y-45024445D01*
X95877419Y-45019325D01*
X95890747Y-45005404D01*
X95909011Y-44984837D01*
X95929214Y-44961007D01*
X95950261Y-44936119D01*
X95968147Y-44915806D01*
X95980927Y-44902220D01*
X95986577Y-44897507D01*
X95993010Y-44903391D01*
X96004965Y-44919889D01*
X96021381Y-44945134D01*
X96041194Y-44977258D01*
X96063342Y-45014396D01*
X96086763Y-45054680D01*
X96110392Y-45096243D01*
X96133169Y-45137219D01*
X96154030Y-45175741D01*
X96171912Y-45209942D01*
X96185752Y-45237956D01*
X96194489Y-45257916D01*
X96197111Y-45267329D01*
X96192438Y-45275547D01*
X96179434Y-45292095D01*
X96159619Y-45315201D01*
X96134516Y-45343092D01*
X96105645Y-45373997D01*
X96104514Y-45375186D01*
X96063525Y-45419307D01*
X96032388Y-45455439D01*
X96010278Y-45484820D01*
X95996373Y-45508691D01*
X95989848Y-45528288D01*
X95989879Y-45544853D01*
X95990338Y-45546912D01*
X96005476Y-45579217D01*
X96032625Y-45605579D01*
X96051920Y-45616844D01*
X96071123Y-45625568D01*
X96083771Y-45628196D01*
X96095911Y-45624985D01*
X96107707Y-45619214D01*
X96122110Y-45610109D01*
X96144510Y-45593927D01*
X96172160Y-45572734D01*
X96202314Y-45548600D01*
X96211233Y-45541264D01*
X96239529Y-45518105D01*
X96264016Y-45498563D01*
X96282639Y-45484239D01*
X96293344Y-45476734D01*
X96294962Y-45476000D01*
X96299587Y-45482367D01*
X96307905Y-45500127D01*
X96319196Y-45527272D01*
X96332737Y-45561792D01*
X96347808Y-45601678D01*
X96363688Y-45644922D01*
X96379654Y-45689513D01*
X96394987Y-45733444D01*
X96408964Y-45774704D01*
X96420865Y-45811285D01*
X96429968Y-45841178D01*
X96435551Y-45862373D01*
X96437000Y-45871659D01*
X96431104Y-45881365D01*
X96413388Y-45898418D01*
X96383807Y-45922857D01*
X96342317Y-45954720D01*
X96324598Y-45967910D01*
X96277421Y-46003608D01*
X96241160Y-46033074D01*
X96214706Y-46057454D01*
X96196946Y-46077894D01*
X96186770Y-46095540D01*
X96183066Y-46111540D01*
X96183000Y-46114006D01*
X96187151Y-46131302D01*
X96197641Y-46153792D01*
X96211529Y-46176045D01*
X96225323Y-46192139D01*
X96244234Y-46202655D01*
X96271577Y-46205937D01*
X96273699Y-46205928D01*
X96288898Y-46204754D01*
X96304744Y-46200790D01*
X96323861Y-46192905D01*
X96348874Y-46179967D01*
X96382407Y-46160849D01*
X96393576Y-46154295D01*
X96431452Y-46132014D01*
X96458909Y-46116169D01*
X96477711Y-46106080D01*
X96489624Y-46101066D01*
X96496412Y-46100446D01*
X96499840Y-46103539D01*
X96501673Y-46109663D01*
X96502255Y-46112355D01*
X96514338Y-46169658D01*
X96525863Y-46228032D01*
X96536552Y-46285713D01*
X96546128Y-46340937D01*
X96554312Y-46391939D01*
X96560827Y-46436953D01*
X96565395Y-46474216D01*
X96567739Y-46501963D01*
X96567581Y-46518430D01*
X96566666Y-46521617D01*
X96559527Y-46526416D01*
X96541803Y-46536342D01*
X96515570Y-46550288D01*
X96482904Y-46567151D01*
X96448959Y-46584287D01*
X96399624Y-46609243D01*
X96361486Y-46629394D01*
X96332922Y-46645830D01*
X96312308Y-46659643D01*
X96298021Y-46671921D01*
X96288437Y-46683756D01*
X96281933Y-46696238D01*
X96281804Y-46696547D01*
X96277405Y-46724057D01*
X96283568Y-46753854D01*
X96298245Y-46781890D01*
X96319390Y-46804117D01*
X96342091Y-46815761D01*
X96354239Y-46817788D01*
X96369078Y-46817057D01*
X96388636Y-46813035D01*
X96414941Y-46805191D01*
X96450022Y-46792990D01*
X96495906Y-46775902D01*
X96500500Y-46774157D01*
X96525704Y-46764169D01*
X96545630Y-46756377D01*
X96560905Y-46752036D01*
X96572157Y-46752404D01*
X96580013Y-46758735D01*
X96585102Y-46772287D01*
X96588050Y-46794316D01*
X96589486Y-46826078D01*
X96590038Y-46868829D01*
X96590333Y-46923826D01*
X96590562Y-46954412D01*
X96590989Y-47017540D01*
X96590967Y-47067830D01*
X96590453Y-47106551D01*
X96589407Y-47134972D01*
X96587787Y-47154359D01*
X96585552Y-47165982D01*
X96583507Y-47170293D01*
X96572715Y-47177493D01*
X96552330Y-47186486D01*
X96526415Y-47195521D01*
X96521667Y-47196960D01*
X96493723Y-47205359D01*
X96469009Y-47213007D01*
X96452379Y-47218397D01*
X96451111Y-47218837D01*
X96435801Y-47223775D01*
X96411780Y-47231043D01*
X96383926Y-47239168D01*
X96380555Y-47240132D01*
X96351599Y-47249237D01*
X96325071Y-47259037D01*
X96306384Y-47267519D01*
X96305415Y-47268066D01*
X96291999Y-47274525D01*
X96277595Y-47277562D01*
X96257929Y-47277544D01*
X96228727Y-47274838D01*
X96227804Y-47274736D01*
X96145593Y-47265643D01*
X96073292Y-47257803D01*
X96011607Y-47251288D01*
X95961246Y-47246170D01*
X95922917Y-47242522D01*
X95897327Y-47240416D01*
X95886516Y-47239889D01*
X95874869Y-47240458D01*
X95868591Y-47244386D01*
X95866022Y-47255004D01*
X95865503Y-47275644D01*
X95865500Y-47282088D01*
X95865652Y-47302491D01*
X95867767Y-47315923D01*
X95874329Y-47324146D01*
X95887822Y-47328925D01*
X95910733Y-47332023D01*
X95939583Y-47334663D01*
X95966523Y-47337255D01*
X96001270Y-47340828D01*
X96037611Y-47344737D01*
X96048944Y-47345997D01*
X96111157Y-47352945D01*
X96160333Y-47358359D01*
X96197451Y-47362342D01*
X96223490Y-47364998D01*
X96239429Y-47366431D01*
X96245252Y-47366764D01*
X96254843Y-47371758D01*
X96269557Y-47384467D01*
X96280530Y-47395899D01*
X96298112Y-47413479D01*
X96314763Y-47426772D01*
X96322350Y-47431003D01*
X96337528Y-47432454D01*
X96366102Y-47430382D01*
X96407810Y-47424814D01*
X96447498Y-47418368D01*
X96485161Y-47412274D01*
X96517873Y-47407665D01*
X96543144Y-47404838D01*
X96558485Y-47404089D01*
X96561865Y-47404736D01*
X96563017Y-47413733D01*
X96561820Y-47434431D01*
X96558578Y-47464671D01*
X96553595Y-47502295D01*
X96547173Y-47545143D01*
X96539616Y-47591058D01*
X96531228Y-47637880D01*
X96523559Y-47677333D01*
X96516413Y-47713103D01*
X96510052Y-47745829D01*
X96505154Y-47771954D01*
X96502400Y-47787923D01*
X96502357Y-47788211D01*
X96497279Y-47806460D01*
X96489745Y-47818587D01*
X96489708Y-47818618D01*
X96479910Y-47821921D01*
X96458561Y-47826254D01*
X96428145Y-47831206D01*
X96391150Y-47836365D01*
X96358159Y-47840403D01*
X96305099Y-47846681D01*
X96264107Y-47852094D01*
X96233203Y-47857135D01*
X96210411Y-47862294D01*
X96193751Y-47868064D01*
X96181245Y-47874937D01*
X96170916Y-47883403D01*
X96166223Y-47888100D01*
X96148022Y-47916352D01*
X96142194Y-47948200D01*
X96148513Y-47980892D01*
X96166751Y-48011674D01*
X96177350Y-48022851D01*
X96184044Y-48028158D01*
X96192467Y-48031969D01*
X96204889Y-48034528D01*
X96223584Y-48036081D01*
X96250822Y-48036872D01*
X96288875Y-48037147D01*
X96310154Y-48037167D01*
X96349421Y-48037380D01*
X96383567Y-48037971D01*
X96410178Y-48038865D01*
X96426840Y-48039987D01*
X96431325Y-48040899D01*
X96430242Y-48048330D01*
X96425176Y-48066854D01*
X96416842Y-48094258D01*
X96405956Y-48128329D01*
X96393232Y-48166853D01*
X96379387Y-48207618D01*
X96365136Y-48248410D01*
X96356126Y-48273528D01*
X96344771Y-48303726D01*
X96331446Y-48337485D01*
X96317338Y-48371992D01*
X96303634Y-48404437D01*
X96291521Y-48432005D01*
X96282184Y-48451887D01*
X96276978Y-48461080D01*
X96268759Y-48467296D01*
X96255640Y-48469316D01*
X96233645Y-48467589D01*
X96227075Y-48466731D01*
X96205725Y-48464676D01*
X96173855Y-48462677D01*
X96135058Y-48460912D01*
X96092923Y-48459557D01*
X96072058Y-48459096D01*
X95957588Y-48456972D01*
X95934474Y-48480039D01*
X95921194Y-48494790D01*
X95914266Y-48508620D01*
X95911674Y-48527165D01*
X95911361Y-48544734D01*
X95912479Y-48570779D01*
X95916836Y-48588050D01*
X95925932Y-48601776D01*
X95928577Y-48604689D01*
X95947821Y-48619419D01*
X95970379Y-48629545D01*
X95970911Y-48629690D01*
X95990128Y-48634211D01*
X96017635Y-48639953D01*
X96050003Y-48646283D01*
X96083803Y-48652571D01*
X96115608Y-48658186D01*
X96141989Y-48662497D01*
X96159517Y-48664874D01*
X96163597Y-48665144D01*
X96174050Y-48669350D01*
X96175944Y-48674131D01*
X96172507Y-48684190D01*
X96162911Y-48704062D01*
X96148232Y-48731914D01*
X96129544Y-48765913D01*
X96107921Y-48804225D01*
X96084437Y-48845017D01*
X96060169Y-48886456D01*
X96036189Y-48926707D01*
X96013572Y-48963938D01*
X95993394Y-48996316D01*
X95976728Y-49022006D01*
X95964649Y-49039176D01*
X95958232Y-49045992D01*
X95957975Y-49046035D01*
X95949297Y-49044100D01*
X95931805Y-49039236D01*
X95919059Y-49035452D01*
X95897273Y-49029375D01*
X95880293Y-49025581D01*
X95874962Y-49024945D01*
X95873616Y-49026843D01*
X95872399Y-49032959D01*
X95871304Y-49043921D01*
X95870327Y-49060360D01*
X95869460Y-49082905D01*
X95868697Y-49112185D01*
X95868034Y-49148831D01*
X95867463Y-49193473D01*
X95866978Y-49246740D01*
X95866575Y-49309261D01*
X95866245Y-49381667D01*
X95865985Y-49464587D01*
X95865787Y-49558651D01*
X95865646Y-49664488D01*
X95865555Y-49782729D01*
X95865509Y-49914003D01*
X95865500Y-50015740D01*
X95865491Y-50156712D01*
X95865452Y-50284334D01*
X95865368Y-50399367D01*
X95865221Y-50502570D01*
X95864995Y-50594706D01*
X95864673Y-50676534D01*
X95864239Y-50748816D01*
X95863676Y-50812311D01*
X95862968Y-50867782D01*
X95862098Y-50915988D01*
X95861049Y-50957690D01*
X95859804Y-50993649D01*
X95858348Y-51024626D01*
X95856664Y-51051382D01*
X95854735Y-51074677D01*
X95852544Y-51095272D01*
X95850075Y-51113928D01*
X95847311Y-51131405D01*
X95844236Y-51148465D01*
X95840833Y-51165868D01*
X95840373Y-51168159D01*
X95816585Y-51260430D01*
X95783884Y-51347085D01*
X95743203Y-51426468D01*
X95695475Y-51496924D01*
X95641635Y-51556796D01*
X95602259Y-51590430D01*
X95529028Y-51637335D01*
X95450260Y-51671353D01*
X95366208Y-51692468D01*
X95277130Y-51700660D01*
X95183280Y-51695910D01*
X95084914Y-51678201D01*
X94982287Y-51647512D01*
X94955482Y-51637614D01*
X94927643Y-51626618D01*
X94900776Y-51615172D01*
X94873588Y-51602537D01*
X94844787Y-51587971D01*
X94813078Y-51570732D01*
X94777170Y-51550080D01*
X94735768Y-51525272D01*
X94687582Y-51495569D01*
X94631316Y-51460228D01*
X94565679Y-51418508D01*
X94500250Y-51376643D01*
X94472121Y-51358654D01*
X94434804Y-51334861D01*
X94391037Y-51307004D01*
X94343556Y-51276824D01*
X94295098Y-51246064D01*
X94263889Y-51226275D01*
X94213382Y-51194238D01*
X94159378Y-51159930D01*
X94105302Y-51125533D01*
X94054581Y-51093226D01*
X94010643Y-51065189D01*
X93992250Y-51053430D01*
X93953008Y-51028354D01*
X93905270Y-50997907D01*
X93852461Y-50964269D01*
X93798004Y-50929621D01*
X93745325Y-50896143D01*
X93720611Y-50880454D01*
X93673091Y-50850273D01*
X93624811Y-50819558D01*
X93578487Y-50790043D01*
X93536839Y-50763459D01*
X93502584Y-50741541D01*
X93485221Y-50730392D01*
X93408581Y-50681064D01*
X93354693Y-50686564D01*
X93315760Y-50690725D01*
X93288008Y-50692899D01*
X93268513Y-50691553D01*
X93254352Y-50685156D01*
X93242601Y-50672175D01*
X93230337Y-50651078D01*
X93214637Y-50620334D01*
X93209611Y-50610532D01*
X93166750Y-50527481D01*
X93084251Y-50474779D01*
X93053626Y-50455889D01*
X93026714Y-50440545D01*
X93005948Y-50430043D01*
X92993766Y-50425680D01*
X92992156Y-50425760D01*
X92979888Y-50436169D01*
X92968227Y-50454712D01*
X92960293Y-50475635D01*
X92958611Y-50487642D01*
X92960942Y-50501069D01*
X92967280Y-50524356D01*
X92976640Y-50554163D01*
X92987383Y-50585331D01*
X93003805Y-50631392D01*
X93015710Y-50665741D01*
X93023581Y-50689860D01*
X93027905Y-50705232D01*
X93029167Y-50713121D01*
X93022399Y-50714486D01*
X93003245Y-50715691D01*
X92973430Y-50716695D01*
X92934678Y-50717458D01*
X92888715Y-50717940D01*
X92837264Y-50718100D01*
X92817540Y-50718071D01*
X92756925Y-50717847D01*
X92708911Y-50717480D01*
X92671991Y-50716883D01*
X92644654Y-50715970D01*
X92625392Y-50714653D01*
X92612695Y-50712846D01*
X92605054Y-50710462D01*
X92600961Y-50707414D01*
X92599735Y-50705542D01*
X92595797Y-50695154D01*
X92588645Y-50673631D01*
X92579045Y-50643379D01*
X92567759Y-50606803D01*
X92556689Y-50570111D01*
X92544178Y-50529211D01*
X92532196Y-50491852D01*
X92521616Y-50460621D01*
X92513311Y-50438105D01*
X92508603Y-50427600D01*
X92504523Y-50419431D01*
X92502006Y-50409840D01*
X92501073Y-50396473D01*
X92501744Y-50376979D01*
X92504040Y-50349006D01*
X92507980Y-50310200D01*
X92509760Y-50293544D01*
X92514233Y-50252383D01*
X92518485Y-50213998D01*
X92522163Y-50181538D01*
X92524910Y-50158155D01*
X92525928Y-50150063D01*
X92527445Y-50134108D01*
X92525022Y-50123384D01*
X92516147Y-50114004D01*
X92498307Y-50102078D01*
X92492654Y-50098555D01*
X92471838Y-50086907D01*
X92455066Y-50079841D01*
X92447076Y-50078777D01*
X92442152Y-50087423D01*
X92437834Y-50108026D01*
X92434562Y-50138433D01*
X92434384Y-50140868D01*
X92431700Y-50174006D01*
X92428098Y-50211959D01*
X92423890Y-50252101D01*
X92419388Y-50291803D01*
X92414903Y-50328439D01*
X92410746Y-50359380D01*
X92407230Y-50381999D01*
X92404665Y-50393669D01*
X92404329Y-50394403D01*
X92394533Y-50400314D01*
X92390581Y-50400778D01*
X92378531Y-50406734D01*
X92365069Y-50421622D01*
X92353204Y-50440976D01*
X92345947Y-50460327D01*
X92344984Y-50468472D01*
X92346233Y-50482788D01*
X92349515Y-50507797D01*
X92354370Y-50540305D01*
X92360338Y-50577117D01*
X92362144Y-50587750D01*
X92367898Y-50623460D01*
X92372127Y-50654095D01*
X92374523Y-50677036D01*
X92374778Y-50689664D01*
X92374285Y-50691183D01*
X92365765Y-50691840D01*
X92345652Y-50690240D01*
X92316223Y-50686728D01*
X92279754Y-50681645D01*
X92238522Y-50675336D01*
X92194804Y-50668145D01*
X92150877Y-50660414D01*
X92109016Y-50652488D01*
X92083722Y-50647337D01*
X92050530Y-50640478D01*
X92020186Y-50634447D01*
X91996781Y-50630046D01*
X91986955Y-50628398D01*
X91969315Y-50623744D01*
X91958276Y-50617142D01*
X91958159Y-50616993D01*
X91954947Y-50607017D01*
X91950964Y-50586227D01*
X91946760Y-50557859D01*
X91943547Y-50531306D01*
X91936762Y-50470739D01*
X91930971Y-50422592D01*
X91925902Y-50385228D01*
X91921283Y-50357013D01*
X91916842Y-50336311D01*
X91912307Y-50321487D01*
X91907406Y-50310906D01*
X91906682Y-50309681D01*
X91885028Y-50285844D01*
X91857463Y-50272147D01*
X91827177Y-50268307D01*
X91797356Y-50274040D01*
X91771188Y-50289066D01*
X91751861Y-50313099D01*
X91747218Y-50323828D01*
X91743803Y-50340978D01*
X91741074Y-50369554D01*
X91739213Y-50406879D01*
X91738405Y-50450277D01*
X91738398Y-50451931D01*
X91737921Y-50494795D01*
X91736779Y-50525083D01*
X91734838Y-50544316D01*
X91731963Y-50554019D01*
X91729180Y-50555959D01*
X91717249Y-50553625D01*
X91694366Y-50547172D01*
X91662824Y-50537348D01*
X91624918Y-50524899D01*
X91582942Y-50510573D01*
X91539188Y-50495116D01*
X91512222Y-50485310D01*
X91475124Y-50471557D01*
X91445579Y-50460261D01*
X91418958Y-50449534D01*
X91390628Y-50437487D01*
X91355959Y-50422233D01*
X91339137Y-50414748D01*
X91307162Y-50400495D01*
X91310977Y-50367123D01*
X91315161Y-50325372D01*
X91318676Y-50280369D01*
X91321415Y-50234821D01*
X91323272Y-50191434D01*
X91324141Y-50152917D01*
X91323916Y-50121975D01*
X91322491Y-50101317D01*
X91321586Y-50096629D01*
X91306731Y-50066036D01*
X91282160Y-50045572D01*
X91248461Y-50035726D01*
X91248195Y-50035695D01*
X91211801Y-50036605D01*
X91182956Y-50047827D01*
X91163276Y-50068698D01*
X91162019Y-50071009D01*
X91157815Y-50083293D01*
X91151777Y-50106137D01*
X91144620Y-50136222D01*
X91137057Y-50170230D01*
X91129804Y-50204843D01*
X91123575Y-50236740D01*
X91119084Y-50262603D01*
X91117045Y-50279113D01*
X91117003Y-50280159D01*
X91113586Y-50289115D01*
X91110652Y-50294221D01*
X91104800Y-50297036D01*
X91093010Y-50295060D01*
X91074333Y-50287823D01*
X91047821Y-50274855D01*
X91012523Y-50255684D01*
X90967491Y-50229839D01*
X90911775Y-50196851D01*
X90899414Y-50189443D01*
X90851351Y-50160521D01*
X90814072Y-50137889D01*
X90786209Y-50120660D01*
X90766397Y-50107948D01*
X90753267Y-50098869D01*
X90745453Y-50092535D01*
X90741587Y-50088063D01*
X90740906Y-50086755D01*
X90741635Y-50078027D01*
X90745437Y-50057823D01*
X90751836Y-50028321D01*
X90760355Y-49991701D01*
X90770518Y-49950143D01*
X90772533Y-49942116D01*
X90784300Y-49895092D01*
X90792858Y-49859534D01*
X90798533Y-49833248D01*
X90801652Y-49814039D01*
X90802543Y-49799711D01*
X90801533Y-49788072D01*
X90798950Y-49776926D01*
X90797774Y-49772868D01*
X90782157Y-49743551D01*
X90756363Y-49722444D01*
X90722626Y-49711043D01*
X90703140Y-49709450D01*
X90679106Y-49712908D01*
X90658885Y-49724531D01*
X90641084Y-49745875D01*
X90624313Y-49778497D01*
X90611196Y-49812367D01*
X90594288Y-49859937D01*
X90581414Y-49895749D01*
X90571981Y-49921376D01*
X90565396Y-49938391D01*
X90561068Y-49948368D01*
X90558403Y-49952880D01*
X90558208Y-49953088D01*
X90551269Y-49950533D01*
X90535288Y-49939887D01*
X90511799Y-49922405D01*
X90482334Y-49899341D01*
X90448426Y-49871949D01*
X90411607Y-49841483D01*
X90373409Y-49809197D01*
X90335366Y-49776345D01*
X90299010Y-49744182D01*
X90265873Y-49713962D01*
X90264879Y-49713038D01*
X90226341Y-49677167D01*
X90240470Y-49645625D01*
X90249028Y-49626235D01*
X90261357Y-49597939D01*
X90275689Y-49564808D01*
X90287875Y-49536472D01*
X90301932Y-49503908D01*
X90314906Y-49474247D01*
X90325265Y-49450969D01*
X90331075Y-49438374D01*
X90341313Y-49403272D01*
X90338948Y-49369874D01*
X90325475Y-49340541D01*
X90302387Y-49317634D01*
X90271178Y-49303514D01*
X90243603Y-49300111D01*
X90227611Y-49301469D01*
X90213381Y-49306593D01*
X90199441Y-49317058D01*
X90184322Y-49334439D01*
X90166553Y-49360311D01*
X90144665Y-49396248D01*
X90129496Y-49422335D01*
X90110714Y-49453884D01*
X90093790Y-49480319D01*
X90080162Y-49499541D01*
X90071272Y-49509449D01*
X90069209Y-49510312D01*
X90061196Y-49504131D01*
X90045829Y-49488606D01*
X90024537Y-49465437D01*
X89998746Y-49436324D01*
X89969885Y-49402968D01*
X89939382Y-49367069D01*
X89908666Y-49330327D01*
X89879164Y-49294444D01*
X89852304Y-49261120D01*
X89829514Y-49232055D01*
X89812223Y-49208949D01*
X89801859Y-49193504D01*
X89799870Y-49189596D01*
X89802604Y-49181379D01*
X89812142Y-49163531D01*
X89827295Y-49138054D01*
X89846876Y-49106948D01*
X89868528Y-49073959D01*
X89898697Y-49028397D01*
X89921602Y-48992523D01*
X89938182Y-48964540D01*
X89949372Y-48942651D01*
X89956108Y-48925058D01*
X89959327Y-48909964D01*
X89960000Y-48898417D01*
X89953987Y-48876103D01*
X89938292Y-48852874D01*
X89916430Y-48832810D01*
X89892595Y-48820209D01*
X89874141Y-48815338D01*
X89857839Y-48814809D01*
X89841821Y-48819798D01*
X89824221Y-48831480D01*
X89803172Y-48851031D01*
X89776806Y-48879625D01*
X89751058Y-48909304D01*
X89725478Y-48938586D01*
X89702768Y-48963451D01*
X89684597Y-48982162D01*
X89672635Y-48992978D01*
X89668863Y-48994927D01*
X89662058Y-48987804D01*
X89649692Y-48970148D01*
X89632857Y-48943871D01*
X89612649Y-48910884D01*
X89590161Y-48873096D01*
X89566485Y-48832420D01*
X89542716Y-48790766D01*
X89519948Y-48750045D01*
X89499274Y-48712168D01*
X89481788Y-48679045D01*
X89468583Y-48652588D01*
X89460753Y-48634708D01*
X89459055Y-48628331D01*
X89463861Y-48617614D01*
X89475888Y-48602810D01*
X89481085Y-48597640D01*
X89493362Y-48585420D01*
X89513000Y-48565095D01*
X89537819Y-48538955D01*
X89565636Y-48509291D01*
X89583390Y-48490180D01*
X89663667Y-48403443D01*
X89663667Y-48365179D01*
X89662606Y-48341268D01*
X89657765Y-48325048D01*
X89646655Y-48310158D01*
X89639076Y-48302325D01*
X89610846Y-48281423D01*
X89580962Y-48272158D01*
X89552336Y-48275398D01*
X89550704Y-48276016D01*
X89539194Y-48282930D01*
X89519425Y-48297241D01*
X89493805Y-48317109D01*
X89464746Y-48340698D01*
X89452493Y-48350936D01*
X89423895Y-48374966D01*
X89399061Y-48395696D01*
X89380016Y-48411448D01*
X89368781Y-48420542D01*
X89366785Y-48422033D01*
X89362254Y-48417157D01*
X89353970Y-48400836D01*
X89342653Y-48375008D01*
X89329024Y-48341612D01*
X89313802Y-48302586D01*
X89297707Y-48259869D01*
X89281459Y-48215399D01*
X89265778Y-48171114D01*
X89251384Y-48128954D01*
X89238997Y-48090856D01*
X89229336Y-48058759D01*
X89223451Y-48036086D01*
X89219175Y-48027033D01*
X89209149Y-48016131D01*
X89191808Y-48002136D01*
X89165591Y-47983807D01*
X89128935Y-47959901D01*
X89122190Y-47955598D01*
X89087294Y-47933381D01*
X89054695Y-47912612D01*
X89027093Y-47895011D01*
X89007190Y-47882303D01*
X89000444Y-47877984D01*
X88922887Y-47828123D01*
X88856138Y-47784939D01*
X88799062Y-47747599D01*
X88750522Y-47715268D01*
X88709382Y-47687111D01*
X88674507Y-47662294D01*
X88644758Y-47639982D01*
X88619002Y-47619340D01*
X88596100Y-47599535D01*
X88574917Y-47579731D01*
X88554317Y-47559093D01*
X88533164Y-47536788D01*
X88527257Y-47530423D01*
X88476522Y-47469847D01*
X88429446Y-47402651D01*
X88387994Y-47332230D01*
X88354130Y-47261981D01*
X88329821Y-47195300D01*
X88326480Y-47183445D01*
X88319532Y-47148061D01*
X88314391Y-47103059D01*
X88311155Y-47052401D01*
X88309923Y-47000052D01*
X88310793Y-46949974D01*
X88313863Y-46906130D01*
X88318816Y-46874257D01*
X88346711Y-46778000D01*
X88385590Y-46687542D01*
X88436169Y-46601728D01*
X88499162Y-46519403D01*
X88575284Y-46439412D01*
X88604728Y-46412141D01*
X88634467Y-46387423D01*
X88675637Y-46356335D01*
X88727391Y-46319461D01*
X88788880Y-46277383D01*
X88859256Y-46230683D01*
X88937671Y-46179945D01*
X89003972Y-46137876D01*
X89045733Y-46111511D01*
X89090281Y-46083255D01*
X89133382Y-46055803D01*
X89170802Y-46031848D01*
X89185574Y-46022337D01*
X89215426Y-46003148D01*
X89241866Y-45986310D01*
X89262159Y-45973554D01*
X89273569Y-45966612D01*
X89274013Y-45966361D01*
X89293834Y-45954732D01*
X89318718Y-45939281D01*
X89346084Y-45921722D01*
X89373352Y-45903766D01*
X89397943Y-45887126D01*
X89417276Y-45873513D01*
X89428772Y-45864639D01*
X89430833Y-45862302D01*
X89424191Y-45860427D01*
X89405920Y-45858844D01*
X89378499Y-45857680D01*
X89344409Y-45857064D01*
X89328528Y-45857000D01*
X89292357Y-45856612D01*
X89261802Y-45855543D01*
X89239344Y-45853939D01*
X89227462Y-45851946D01*
X89226222Y-45851017D01*
X89228515Y-45840649D01*
X89234858Y-45819388D01*
X89244448Y-45789589D01*
X89256484Y-45753610D01*
X89270161Y-45713807D01*
X89284679Y-45672536D01*
X89299234Y-45632155D01*
X89313023Y-45595020D01*
X89316700Y-45585361D01*
X89335919Y-45535592D01*
X89351002Y-45497558D01*
X89362640Y-45469734D01*
X89371522Y-45450595D01*
X89378336Y-45438617D01*
X89383773Y-45432273D01*
X89386673Y-45430532D01*
X89396619Y-45429758D01*
X89417773Y-45430030D01*
X89447279Y-45431252D01*
X89482280Y-45433330D01*
X89492018Y-45434005D01*
X89549286Y-45437927D01*
X89594343Y-45440528D01*
X89629030Y-45441788D01*
X89655189Y-45441683D01*
X89674660Y-45440188D01*
X89689284Y-45437282D01*
X89700901Y-45432942D01*
X89704117Y-45431335D01*
X89729568Y-45410620D01*
X89743927Y-45381438D01*
X89746915Y-45344386D01*
X89746566Y-45340148D01*
X89743907Y-45321055D01*
X89738983Y-45305442D01*
X89730300Y-45292595D01*
X89716361Y-45281801D01*
X89695671Y-45272349D01*
X89666737Y-45263525D01*
X89628063Y-45254616D01*
X89578154Y-45244910D01*
X89527847Y-45235865D01*
X89504123Y-45231214D01*
X89487062Y-45226986D01*
X89480232Y-45224070D01*
X89480222Y-45223997D01*
X89483732Y-45213804D01*
X89493548Y-45193471D01*
X89508601Y-45164887D01*
X89527821Y-45129941D01*
X89550140Y-45090524D01*
X89574486Y-45048524D01*
X89599792Y-45005832D01*
X89624987Y-44964336D01*
X89648377Y-44926909D01*
X89694699Y-44854068D01*
X89719752Y-44858720D01*
X89734986Y-44861941D01*
X89760999Y-44867857D01*
X89794869Y-44875786D01*
X89833676Y-44885048D01*
X89860593Y-44891564D01*
X89914381Y-44903975D01*
X89956627Y-44911760D01*
X89989194Y-44914699D01*
X90013944Y-44912573D01*
X90032740Y-44905165D01*
X90047445Y-44892256D01*
X90059922Y-44873627D01*
X90063028Y-44867826D01*
X90073230Y-44834598D01*
X90070385Y-44802461D01*
X90055503Y-44773748D01*
X90029592Y-44750794D01*
X90007889Y-44740278D01*
X89988176Y-44733041D01*
X89959725Y-44722608D01*
X89927048Y-44710632D01*
X89907083Y-44703318D01*
X89877569Y-44692234D01*
X89853054Y-44682511D01*
X89836551Y-44675377D01*
X89831233Y-44672453D01*
X89833565Y-44665425D01*
X89843939Y-44649475D01*
X89861015Y-44626220D01*
X89883451Y-44597277D01*
X89909907Y-44564262D01*
X89939042Y-44528794D01*
X89969514Y-44492488D01*
X89999983Y-44456963D01*
X90029108Y-44423835D01*
X90055548Y-44394720D01*
X90077963Y-44371237D01*
X90093026Y-44356752D01*
X90109838Y-44341698D01*
X90156627Y-44362499D01*
X90183378Y-44374412D01*
X90207972Y-44385401D01*
X90224583Y-44392861D01*
X90279309Y-44417216D01*
X90322342Y-44435525D01*
X90354567Y-44448143D01*
X90376869Y-44455422D01*
X90385712Y-44457353D01*
X90415129Y-44455166D01*
X90441922Y-44441355D01*
X90463636Y-44418411D01*
X90477815Y-44388819D01*
X90482111Y-44359680D01*
X90480225Y-44343079D01*
X90473582Y-44327586D01*
X90460707Y-44311825D01*
X90440125Y-44294415D01*
X90410359Y-44273980D01*
X90369933Y-44249141D01*
X90353168Y-44239254D01*
X90263031Y-44186486D01*
X90314362Y-44138856D01*
X90335228Y-44120151D01*
X90362826Y-44096360D01*
X90395169Y-44069101D01*
X90430266Y-44039992D01*
X90466131Y-44010651D01*
X90500774Y-43982697D01*
X90532208Y-43957748D01*
X90558443Y-43937420D01*
X90577493Y-43923333D01*
X90586169Y-43917672D01*
X90592590Y-43916251D01*
X90602128Y-43918332D01*
X90616376Y-43924770D01*
X90636931Y-43936419D01*
X90665384Y-43954135D01*
X90703332Y-43978774D01*
X90717542Y-43988128D01*
X90763979Y-44018265D01*
X90800864Y-44040833D01*
X90830007Y-44056631D01*
X90853220Y-44066458D01*
X90872313Y-44071112D01*
X90889097Y-44071392D01*
X90901324Y-44069196D01*
X90922925Y-44057852D01*
X90943593Y-44037145D01*
X90959255Y-44011473D01*
X90962453Y-44003206D01*
X90966799Y-43984566D01*
X90965910Y-43967314D01*
X90958623Y-43949685D01*
X90943777Y-43929910D01*
X90920209Y-43906224D01*
X90886755Y-43876858D01*
X90870254Y-43863049D01*
X90841365Y-43838422D01*
X90816947Y-43816334D01*
X90798842Y-43798555D01*
X90788894Y-43786855D01*
X90787566Y-43783649D01*
X90794077Y-43776265D01*
X90811056Y-43763308D01*
X90836593Y-43745980D01*
X90868777Y-43725482D01*
X90905698Y-43703013D01*
X90945445Y-43679776D01*
X90986108Y-43656970D01*
X91007750Y-43645270D01*
X91039626Y-43628187D01*
X91071426Y-43610976D01*
X91098120Y-43596365D01*
X91107386Y-43591220D01*
X91128028Y-43580294D01*
X91144034Y-43572953D01*
X91150510Y-43571000D01*
X91157564Y-43575637D01*
X91173134Y-43588564D01*
X91195548Y-43608306D01*
X91223137Y-43633386D01*
X91254230Y-43662330D01*
X91259012Y-43666838D01*
X91291859Y-43697203D01*
X91322890Y-43724705D01*
X91350064Y-43747625D01*
X91371342Y-43764247D01*
X91384683Y-43772851D01*
X91385222Y-43773089D01*
X91417425Y-43780176D01*
X91447308Y-43773351D01*
X91474750Y-43752644D01*
X91474785Y-43752607D01*
X91498334Y-43723299D01*
X91509058Y-43696985D01*
X91507024Y-43671045D01*
X91492300Y-43642853D01*
X91478083Y-43624567D01*
X91440627Y-43580037D01*
X91411749Y-43544990D01*
X91390648Y-43518365D01*
X91376523Y-43499104D01*
X91368573Y-43486146D01*
X91365997Y-43478432D01*
X91366256Y-43476664D01*
X91374088Y-43470723D01*
X91393251Y-43461112D01*
X91421683Y-43448596D01*
X91457321Y-43433940D01*
X91498099Y-43417910D01*
X91541955Y-43401272D01*
X91586825Y-43384789D01*
X91630645Y-43369229D01*
X91671352Y-43355355D01*
X91706882Y-43343934D01*
X91735171Y-43335732D01*
X91754156Y-43331512D01*
X91758704Y-43331111D01*
X91764904Y-43336531D01*
X91778032Y-43351653D01*
X91796712Y-43374766D01*
X91819569Y-43404161D01*
X91845229Y-43438130D01*
X91850369Y-43445044D01*
X91877386Y-43480807D01*
X91902870Y-43513314D01*
X91925189Y-43540578D01*
X91942711Y-43560609D01*
X91953802Y-43571421D01*
X91954613Y-43571997D01*
X91983938Y-43583682D01*
X92014716Y-43582003D01*
X92045342Y-43567374D01*
X92073054Y-43541592D01*
X92085123Y-43522588D01*
X92089534Y-43501671D01*
X92085926Y-43476734D01*
X92073937Y-43445670D01*
X92053205Y-43406373D01*
X92048445Y-43398139D01*
X92025716Y-43359160D01*
X92009163Y-43330510D01*
X91997812Y-43310355D01*
X91990690Y-43296858D01*
X91986820Y-43288185D01*
X91985231Y-43282498D01*
X91984944Y-43278480D01*
X91991743Y-43270746D01*
X92011115Y-43263696D01*
X92021986Y-43261238D01*
X92064169Y-43253058D01*
X92112021Y-43244126D01*
X92161088Y-43235244D01*
X92206915Y-43227213D01*
X92245048Y-43220835D01*
X92256583Y-43219014D01*
X92291478Y-43213628D01*
X92329855Y-43207690D01*
X92354423Y-43203880D01*
X92378712Y-43200427D01*
X92396714Y-43198472D01*
X92404710Y-43198413D01*
X92404783Y-43198469D01*
X92408371Y-43205133D01*
X92417277Y-43222507D01*
X92430530Y-43248667D01*
X92447155Y-43281693D01*
X92466181Y-43319663D01*
X92470507Y-43328318D01*
X92496632Y-43379726D01*
X92518192Y-43419574D01*
X92536343Y-43449198D01*
X92552244Y-43469936D01*
X92567051Y-43483125D01*
X92581922Y-43490104D01*
X92598014Y-43492210D01*
X92611606Y-43491393D01*
X92648085Y-43481343D01*
X92676085Y-43460093D01*
X92692669Y-43435094D01*
X92698185Y-43423087D01*
X92700964Y-43412257D01*
X92700550Y-43399789D01*
X92696488Y-43382864D01*
X92688321Y-43358666D01*
X92675595Y-43324376D01*
X92674146Y-43320528D01*
X92657308Y-43275658D01*
X92644996Y-43242183D01*
X92636703Y-43218316D01*
X92631921Y-43202269D01*
X92630145Y-43192257D01*
X92630865Y-43186490D01*
X92633575Y-43183181D01*
X92634904Y-43182271D01*
X92644458Y-43180589D01*
X92665854Y-43179192D01*
X92696826Y-43178084D01*
X92735107Y-43177268D01*
X92778431Y-43176748D01*
X92824532Y-43176529D01*
X92871144Y-43176613D01*
X92916000Y-43177006D01*
X92956833Y-43177710D01*
X92991379Y-43178731D01*
X93017370Y-43180071D01*
X93031766Y-43181587D01*
X93040897Y-43182979D01*
X93047908Y-43184565D01*
X93053621Y-43188079D01*
X93058861Y-43195258D01*
X93064452Y-43207835D01*
X93071217Y-43227545D01*
X93079980Y-43256125D01*
X93091564Y-43295308D01*
X93101086Y-43327583D01*
X93117461Y-43381553D01*
X93131015Y-43422961D01*
X93142223Y-43452966D01*
X93151557Y-43472727D01*
X93159490Y-43483404D01*
X93165790Y-43486204D01*
X93174789Y-43482487D01*
X93192564Y-43472579D01*
X93216185Y-43458173D01*
X93232980Y-43447399D01*
X93258461Y-43431072D01*
X93279578Y-43418153D01*
X93293551Y-43410310D01*
X93297489Y-43408722D01*
X93303463Y-43405475D01*
X93306233Y-43394722D01*
X93305752Y-43374948D01*
X93301974Y-43344637D01*
X93294852Y-43302272D01*
X93294101Y-43298122D01*
X93288157Y-43264227D01*
X93283561Y-43235692D01*
X93280712Y-43215190D01*
X93280010Y-43205391D01*
X93280147Y-43204966D01*
X93287819Y-43204786D01*
X93306627Y-43206515D01*
X93333785Y-43209761D01*
X93366506Y-43214134D01*
X93402004Y-43219245D01*
X93437493Y-43224703D01*
X93470185Y-43230117D01*
X93497295Y-43235099D01*
X93501615Y-43235971D01*
X93517353Y-43239342D01*
X93529933Y-43241552D01*
X93541245Y-43241813D01*
X93553179Y-43239342D01*
X93567625Y-43233351D01*
X93586472Y-43223057D01*
X93611609Y-43207673D01*
X93644928Y-43186414D01*
X93688318Y-43158495D01*
X93688861Y-43158146D01*
X93723327Y-43136057D01*
X93767189Y-43108026D01*
X93817920Y-43075661D01*
X93872997Y-43040573D01*
X93929893Y-43004369D01*
X93986084Y-42968659D01*
X94009889Y-42953547D01*
X94061682Y-42920663D01*
X94112395Y-42888439D01*
X94160107Y-42858095D01*
X94202897Y-42830855D01*
X94238846Y-42807940D01*
X94266033Y-42790572D01*
X94278000Y-42782900D01*
X94381178Y-42716684D01*
X94473478Y-42657772D01*
X94555793Y-42605680D01*
X94629013Y-42559926D01*
X94694030Y-42520026D01*
X94751736Y-42485498D01*
X94803022Y-42455858D01*
X94848780Y-42430626D01*
X94889901Y-42409316D01*
X94927277Y-42391448D01*
X94961799Y-42376537D01*
X94994359Y-42364102D01*
X95025848Y-42353659D01*
X95057158Y-42344725D01*
X95089180Y-42336819D01*
X95110555Y-42332054D01*
X95156019Y-42324840D01*
X95208955Y-42320558D01*
X95264956Y-42319217D01*
X95264956Y-42319217D01*
X95264956Y-42319217D01*
G37*
X95264956Y-42319217D02*
X95319615Y-42320827D01*
X95368527Y-42325398D01*
X95401456Y-42331412D01*
X95484012Y-42358590D01*
X95559183Y-42397635D01*
X95626753Y-42448261D01*
X95686509Y-42510184D01*
X95738235Y-42583118D01*
X95781717Y-42666777D01*
X95816742Y-42760875D01*
X95817396Y-42763466D01*
X95176792Y-42763466D01*
X95151491Y-42765926D01*
X95126656Y-42770268D01*
X95098109Y-42776733D01*
X95069582Y-42785561D01*
X95039378Y-42797613D01*
X95005795Y-42813752D01*
X94967135Y-42834842D01*
X94921698Y-42861746D01*
X94867783Y-42895326D01*
X94819551Y-42926193D01*
X94776327Y-42954076D01*
X94735052Y-42980694D01*
X94697841Y-43004685D01*
X94666804Y-43024686D01*
X94644056Y-43039337D01*
X94634305Y-43045608D01*
X94619191Y-43055324D01*
X94594112Y-43071458D01*
X94560966Y-43092786D01*
X94521654Y-43118086D01*
X94478074Y-43146137D01*
X94432127Y-43175715D01*
X94426167Y-43179552D01*
X94379358Y-43209681D01*
X94334046Y-43238836D01*
X94292268Y-43265707D01*
X94256065Y-43288981D01*
X94227475Y-43307348D01*
X94208537Y-43319496D01*
X94207444Y-43320196D01*
X94175083Y-43340931D01*
X94132522Y-43368230D01*
X94081428Y-43401022D01*
X94023468Y-43438236D01*
X93960309Y-43478801D01*
X93893619Y-43521646D01*
X93825064Y-43565699D01*
X93756311Y-43609890D01*
X93689028Y-43653148D01*
X93624882Y-43694400D01*
X93565539Y-43732577D01*
X93520600Y-43761500D01*
X93467000Y-43795999D01*
X93413367Y-43830504D01*
X93361801Y-43863668D01*
X93314399Y-43894141D01*
X93273262Y-43920573D01*
X93240487Y-43941615D01*
X93224292Y-43952000D01*
X93184744Y-43977395D01*
X93140535Y-44005872D01*
X93097450Y-44033701D01*
X93065653Y-44054306D01*
X93029368Y-44077837D01*
X92990291Y-44103127D01*
X92953667Y-44126783D01*
X92930010Y-44142025D01*
X92898970Y-44162041D01*
X92867169Y-44182632D01*
X92839870Y-44200388D01*
X92831357Y-44205954D01*
X92809638Y-44219883D01*
X92791608Y-44230904D01*
X92781968Y-44236224D01*
X92773344Y-44241276D01*
X92754703Y-44252942D01*
X92727820Y-44270087D01*
X92694468Y-44291572D01*
X92656423Y-44316264D01*
X92630528Y-44333162D01*
X92586587Y-44361858D01*
X92542675Y-44390471D01*
X92501464Y-44417266D01*
X92465626Y-44440505D01*
X92437832Y-44458453D01*
X92429444Y-44463840D01*
X92377070Y-44497407D01*
X92314197Y-44537745D01*
X92242184Y-44583980D01*
X92162392Y-44635237D01*
X92076183Y-44690641D01*
X91984916Y-44749319D01*
X91889953Y-44810395D01*
X91792654Y-44872995D01*
X91694379Y-44936245D01*
X91688611Y-44939958D01*
X91630892Y-44977106D01*
X91564425Y-45019871D01*
X91492338Y-45066241D01*
X91417755Y-45114206D01*
X91343802Y-45161757D01*
X91273605Y-45206883D01*
X91222944Y-45239442D01*
X91156783Y-45281960D01*
X91086031Y-45327430D01*
X91012383Y-45374765D01*
X90937534Y-45422873D01*
X90863180Y-45470667D01*
X90791015Y-45517054D01*
X90722735Y-45560948D01*
X90660035Y-45601256D01*
X90604609Y-45636891D01*
X90558154Y-45666761D01*
X90531500Y-45683903D01*
X90513840Y-45695265D01*
X90486262Y-45713013D01*
X90450709Y-45735897D01*
X90409126Y-45762664D01*
X90363460Y-45792062D01*
X90315654Y-45822838D01*
X90302194Y-45831504D01*
X90226165Y-45880447D01*
X90146382Y-45931795D01*
X90063933Y-45984847D01*
X89979906Y-46038907D01*
X89895388Y-46093273D01*
X89811466Y-46147247D01*
X89729228Y-46200130D01*
X89649761Y-46251223D01*
X89574153Y-46299826D01*
X89503490Y-46345241D01*
X89438861Y-46386769D01*
X89381353Y-46423710D01*
X89332053Y-46455364D01*
X89292048Y-46481034D01*
X89262427Y-46500020D01*
X89254444Y-46505129D01*
X89225755Y-46523478D01*
X89198671Y-46540800D01*
X89177275Y-46554484D01*
X89169778Y-46559278D01*
X89095337Y-46607168D01*
X89032484Y-46648239D01*
X88980667Y-46682867D01*
X88939338Y-46711429D01*
X88907943Y-46734302D01*
X88885934Y-46751864D01*
X88878080Y-46758960D01*
X88828678Y-46814730D01*
X88792482Y-46873991D01*
X88769743Y-46936206D01*
X88760712Y-47000839D01*
X88760555Y-47010696D01*
X88761602Y-47043986D01*
X88765577Y-47072101D01*
X88773737Y-47099885D01*
X88787337Y-47132185D01*
X88797579Y-47153607D01*
X88809099Y-47175497D01*
X88821961Y-47196037D01*
X88837199Y-47216063D01*
X88855850Y-47236409D01*
X88878948Y-47257909D01*
X88907527Y-47281397D01*
X88942624Y-47307709D01*
X88985272Y-47337677D01*
X89036507Y-47372138D01*
X89097364Y-47411924D01*
X89168879Y-47457871D01*
X89198201Y-47476571D01*
X89236733Y-47501168D01*
X89283659Y-47531220D01*
X89335530Y-47564514D01*
X89388898Y-47598833D01*
X89440311Y-47631963D01*
X89460849Y-47645221D01*
X89502764Y-47672272D01*
X89554058Y-47705339D01*
X89612234Y-47742814D01*
X89674795Y-47783092D01*
X89739247Y-47824563D01*
X89803091Y-47865622D01*
X89861420Y-47903111D01*
X89914382Y-47937141D01*
X89966008Y-47970315D01*
X90017380Y-48003330D01*
X90069580Y-48036882D01*
X90123690Y-48071665D01*
X90180793Y-48108377D01*
X90241970Y-48147713D01*
X90308304Y-48190368D01*
X90380876Y-48237039D01*
X90460769Y-48288421D01*
X90549065Y-48345209D01*
X90646845Y-48408101D01*
X90755193Y-48477790D01*
X90778444Y-48492746D01*
X90843514Y-48534600D01*
X90916859Y-48581775D01*
X90994884Y-48631961D01*
X91073996Y-48682845D01*
X91150601Y-48732117D01*
X91221105Y-48777464D01*
X91254694Y-48799068D01*
X91316216Y-48838641D01*
X91381988Y-48880952D01*
X91449215Y-48924204D01*
X91515105Y-48966599D01*
X91576864Y-49006341D01*
X91631698Y-49041632D01*
X91667444Y-49064642D01*
X91714250Y-49094762D01*
X91759560Y-49123897D01*
X91801336Y-49150738D01*
X91837539Y-49173975D01*
X91866129Y-49192300D01*
X91885069Y-49204402D01*
X91886167Y-49205101D01*
X91903072Y-49215907D01*
X91930073Y-49233231D01*
X91965405Y-49255938D01*
X92007306Y-49282894D01*
X92054015Y-49312966D01*
X92103767Y-49345019D01*
X92140167Y-49368484D01*
X92216625Y-49417764D01*
X92302050Y-49472787D01*
X92393527Y-49531679D01*
X92488144Y-49592567D01*
X92582987Y-49653574D01*
X92675145Y-49712829D01*
X92761705Y-49768455D01*
X92806917Y-49797495D01*
X92827361Y-49810649D01*
X92857596Y-49830136D01*
X92895562Y-49854625D01*
X92939198Y-49882789D01*
X92986447Y-49913299D01*
X93035247Y-49944824D01*
X93048238Y-49953219D01*
X93095354Y-49983642D01*
X93139911Y-50012364D01*
X93180181Y-50038277D01*
X93214439Y-50060271D01*
X93240958Y-50077236D01*
X93258011Y-50088063D01*
X93261643Y-50090333D01*
X93280118Y-50101903D01*
X93306221Y-50118437D01*
X93335723Y-50137251D01*
X93351932Y-50147640D01*
X93427945Y-50196475D01*
X93512663Y-50250926D01*
X93602932Y-50308966D01*
X93695598Y-50368566D01*
X93787506Y-50427696D01*
X93875502Y-50484328D01*
X93956431Y-50536433D01*
X93956972Y-50536781D01*
X94005412Y-50567973D01*
X94051050Y-50597355D01*
X94092273Y-50623889D01*
X94127464Y-50646534D01*
X94155010Y-50664253D01*
X94173295Y-50676005D01*
X94179222Y-50679806D01*
X94192348Y-50688238D01*
X94217072Y-50704157D01*
X94253136Y-50727398D01*
X94300282Y-50757793D01*
X94358253Y-50795177D01*
X94426792Y-50839384D01*
X94505639Y-50890248D01*
X94594539Y-50947602D01*
X94627250Y-50968706D01*
X94708119Y-51020776D01*
X94780378Y-51067079D01*
X94843515Y-51107295D01*
X94897020Y-51141100D01*
X94940383Y-51168172D01*
X94973092Y-51188189D01*
X94994637Y-51200828D01*
X94997667Y-51202499D01*
X95056178Y-51229476D01*
X95112971Y-51245189D01*
X95172822Y-51250899D01*
X95181111Y-51250972D01*
X95213643Y-51250271D01*
X95237607Y-51247434D01*
X95258508Y-51241362D01*
X95281849Y-51230955D01*
X95282208Y-51230779D01*
X95308277Y-51216121D01*
X95332622Y-51199370D01*
X95345708Y-51188191D01*
X95368220Y-51160179D01*
X95390328Y-51123194D01*
X95409439Y-51082200D01*
X95422961Y-51042165D01*
X95423918Y-51038360D01*
X95424696Y-51028114D01*
X95425449Y-51004245D01*
X95426176Y-50967241D01*
X95426877Y-50917591D01*
X95427551Y-50855782D01*
X95428199Y-50782303D01*
X95428821Y-50697642D01*
X95429416Y-50602286D01*
X95429985Y-50496725D01*
X95430528Y-50381446D01*
X95431044Y-50256937D01*
X95431533Y-50123687D01*
X95431996Y-49982183D01*
X95432433Y-49832914D01*
X95432842Y-49676368D01*
X95433225Y-49513034D01*
X95433581Y-49343398D01*
X95433911Y-49167950D01*
X95434213Y-48987177D01*
X95434489Y-48801568D01*
X95434737Y-48611611D01*
X95434959Y-48417794D01*
X95435153Y-48220605D01*
X95435320Y-48020532D01*
X95435461Y-47818064D01*
X95435574Y-47613688D01*
X95435659Y-47407893D01*
X95435718Y-47201166D01*
X95435749Y-46993997D01*
X95435753Y-46786873D01*
X95435729Y-46580282D01*
X95435678Y-46374712D01*
X95435599Y-46170653D01*
X95435493Y-45968590D01*
X95435359Y-45769014D01*
X95435197Y-45572412D01*
X95435008Y-45379271D01*
X95434791Y-45190081D01*
X95434546Y-45005330D01*
X95434273Y-44825505D01*
X95433972Y-44651095D01*
X95433644Y-44482587D01*
X95433287Y-44320471D01*
X95432902Y-44165234D01*
X95432489Y-44017364D01*
X95432048Y-43877350D01*
X95431579Y-43745679D01*
X95431082Y-43622840D01*
X95430556Y-43509321D01*
X95430002Y-43405610D01*
X95429420Y-43312195D01*
X95428809Y-43229564D01*
X95428170Y-43158206D01*
X95427502Y-43098609D01*
X95426806Y-43051260D01*
X95426081Y-43016648D01*
X95425327Y-42995261D01*
X95424696Y-42987971D01*
X95404428Y-42922493D01*
X95377080Y-42868953D01*
X95342162Y-42826811D01*
X95299185Y-42795526D01*
X95247660Y-42774558D01*
X95226490Y-42769341D01*
X95199674Y-42764623D01*
X95176792Y-42763466D01*
X95817396Y-42763466D01*
X95843093Y-42865128D01*
X95855085Y-42935464D01*
X95856561Y-42947620D01*
X95857895Y-42962678D01*
X95859094Y-42981339D01*
X95860165Y-43004301D01*
X95861115Y-43032264D01*
X95861950Y-43065927D01*
X95862678Y-43105990D01*
X95863304Y-43153151D01*
X95863836Y-43208110D01*
X95864280Y-43271566D01*
X95864643Y-43344218D01*
X95864932Y-43426766D01*
X95865154Y-43519909D01*
X95865315Y-43624345D01*
X95865421Y-43740774D01*
X95865481Y-43869897D01*
X95865500Y-44012410D01*
X95865500Y-44016728D01*
X95865538Y-44134772D01*
X95865648Y-44248890D01*
X95865827Y-44358291D01*
X95866071Y-44462185D01*
X95866374Y-44559781D01*
X95866732Y-44650290D01*
X95867142Y-44732921D01*
X95867598Y-44806883D01*
X95868098Y-44871386D01*
X95868635Y-44925639D01*
X95869206Y-44968853D01*
X95869807Y-45000237D01*
X95870433Y-45019000D01*
X95871005Y-45024445D01*
X95877419Y-45019325D01*
X95890747Y-45005404D01*
X95909011Y-44984837D01*
X95929214Y-44961007D01*
X95950261Y-44936119D01*
X95968147Y-44915806D01*
X95980927Y-44902220D01*
X95986577Y-44897507D01*
X95993010Y-44903391D01*
X96004965Y-44919889D01*
X96021381Y-44945134D01*
X96041194Y-44977258D01*
X96063342Y-45014396D01*
X96086763Y-45054680D01*
X96110392Y-45096243D01*
X96133169Y-45137219D01*
X96154030Y-45175741D01*
X96171912Y-45209942D01*
X96185752Y-45237956D01*
X96194489Y-45257916D01*
X96197111Y-45267329D01*
X96192438Y-45275547D01*
X96179434Y-45292095D01*
X96159619Y-45315201D01*
X96134516Y-45343092D01*
X96105645Y-45373997D01*
X96104514Y-45375186D01*
X96063525Y-45419307D01*
X96032388Y-45455439D01*
X96010278Y-45484820D01*
X95996373Y-45508691D01*
X95989848Y-45528288D01*
X95989879Y-45544853D01*
X95990338Y-45546912D01*
X96005476Y-45579217D01*
X96032625Y-45605579D01*
X96051920Y-45616844D01*
X96071123Y-45625568D01*
X96083771Y-45628196D01*
X96095911Y-45624985D01*
X96107707Y-45619214D01*
X96122110Y-45610109D01*
X96144510Y-45593927D01*
X96172160Y-45572734D01*
X96202314Y-45548600D01*
X96211233Y-45541264D01*
X96239529Y-45518105D01*
X96264016Y-45498563D01*
X96282639Y-45484239D01*
X96293344Y-45476734D01*
X96294962Y-45476000D01*
X96299587Y-45482367D01*
X96307905Y-45500127D01*
X96319196Y-45527272D01*
X96332737Y-45561792D01*
X96347808Y-45601678D01*
X96363688Y-45644922D01*
X96379654Y-45689513D01*
X96394987Y-45733444D01*
X96408964Y-45774704D01*
X96420865Y-45811285D01*
X96429968Y-45841178D01*
X96435551Y-45862373D01*
X96437000Y-45871659D01*
X96431104Y-45881365D01*
X96413388Y-45898418D01*
X96383807Y-45922857D01*
X96342317Y-45954720D01*
X96324598Y-45967910D01*
X96277421Y-46003608D01*
X96241160Y-46033074D01*
X96214706Y-46057454D01*
X96196946Y-46077894D01*
X96186770Y-46095540D01*
X96183066Y-46111540D01*
X96183000Y-46114006D01*
X96187151Y-46131302D01*
X96197641Y-46153792D01*
X96211529Y-46176045D01*
X96225323Y-46192139D01*
X96244234Y-46202655D01*
X96271577Y-46205937D01*
X96273699Y-46205928D01*
X96288898Y-46204754D01*
X96304744Y-46200790D01*
X96323861Y-46192905D01*
X96348874Y-46179967D01*
X96382407Y-46160849D01*
X96393576Y-46154295D01*
X96431452Y-46132014D01*
X96458909Y-46116169D01*
X96477711Y-46106080D01*
X96489624Y-46101066D01*
X96496412Y-46100446D01*
X96499840Y-46103539D01*
X96501673Y-46109663D01*
X96502255Y-46112355D01*
X96514338Y-46169658D01*
X96525863Y-46228032D01*
X96536552Y-46285713D01*
X96546128Y-46340937D01*
X96554312Y-46391939D01*
X96560827Y-46436953D01*
X96565395Y-46474216D01*
X96567739Y-46501963D01*
X96567581Y-46518430D01*
X96566666Y-46521617D01*
X96559527Y-46526416D01*
X96541803Y-46536342D01*
X96515570Y-46550288D01*
X96482904Y-46567151D01*
X96448959Y-46584287D01*
X96399624Y-46609243D01*
X96361486Y-46629394D01*
X96332922Y-46645830D01*
X96312308Y-46659643D01*
X96298021Y-46671921D01*
X96288437Y-46683756D01*
X96281933Y-46696238D01*
X96281804Y-46696547D01*
X96277405Y-46724057D01*
X96283568Y-46753854D01*
X96298245Y-46781890D01*
X96319390Y-46804117D01*
X96342091Y-46815761D01*
X96354239Y-46817788D01*
X96369078Y-46817057D01*
X96388636Y-46813035D01*
X96414941Y-46805191D01*
X96450022Y-46792990D01*
X96495906Y-46775902D01*
X96500500Y-46774157D01*
X96525704Y-46764169D01*
X96545630Y-46756377D01*
X96560905Y-46752036D01*
X96572157Y-46752404D01*
X96580013Y-46758735D01*
X96585102Y-46772287D01*
X96588050Y-46794316D01*
X96589486Y-46826078D01*
X96590038Y-46868829D01*
X96590333Y-46923826D01*
X96590562Y-46954412D01*
X96590989Y-47017540D01*
X96590967Y-47067830D01*
X96590453Y-47106551D01*
X96589407Y-47134972D01*
X96587787Y-47154359D01*
X96585552Y-47165982D01*
X96583507Y-47170293D01*
X96572715Y-47177493D01*
X96552330Y-47186486D01*
X96526415Y-47195521D01*
X96521667Y-47196960D01*
X96493723Y-47205359D01*
X96469009Y-47213007D01*
X96452379Y-47218397D01*
X96451111Y-47218837D01*
X96435801Y-47223775D01*
X96411780Y-47231043D01*
X96383926Y-47239168D01*
X96380555Y-47240132D01*
X96351599Y-47249237D01*
X96325071Y-47259037D01*
X96306384Y-47267519D01*
X96305415Y-47268066D01*
X96291999Y-47274525D01*
X96277595Y-47277562D01*
X96257929Y-47277544D01*
X96228727Y-47274838D01*
X96227804Y-47274736D01*
X96145593Y-47265643D01*
X96073292Y-47257803D01*
X96011607Y-47251288D01*
X95961246Y-47246170D01*
X95922917Y-47242522D01*
X95897327Y-47240416D01*
X95886516Y-47239889D01*
X95874869Y-47240458D01*
X95868591Y-47244386D01*
X95866022Y-47255004D01*
X95865503Y-47275644D01*
X95865500Y-47282088D01*
X95865652Y-47302491D01*
X95867767Y-47315923D01*
X95874329Y-47324146D01*
X95887822Y-47328925D01*
X95910733Y-47332023D01*
X95939583Y-47334663D01*
X95966523Y-47337255D01*
X96001270Y-47340828D01*
X96037611Y-47344737D01*
X96048944Y-47345997D01*
X96111157Y-47352945D01*
X96160333Y-47358359D01*
X96197451Y-47362342D01*
X96223490Y-47364998D01*
X96239429Y-47366431D01*
X96245252Y-47366764D01*
X96254843Y-47371758D01*
X96269557Y-47384467D01*
X96280530Y-47395899D01*
X96298112Y-47413479D01*
X96314763Y-47426772D01*
X96322350Y-47431003D01*
X96337528Y-47432454D01*
X96366102Y-47430382D01*
X96407810Y-47424814D01*
X96447498Y-47418368D01*
X96485161Y-47412274D01*
X96517873Y-47407665D01*
X96543144Y-47404838D01*
X96558485Y-47404089D01*
X96561865Y-47404736D01*
X96563017Y-47413733D01*
X96561820Y-47434431D01*
X96558578Y-47464671D01*
X96553595Y-47502295D01*
X96547173Y-47545143D01*
X96539616Y-47591058D01*
X96531228Y-47637880D01*
X96523559Y-47677333D01*
X96516413Y-47713103D01*
X96510052Y-47745829D01*
X96505154Y-47771954D01*
X96502400Y-47787923D01*
X96502357Y-47788211D01*
X96497279Y-47806460D01*
X96489745Y-47818587D01*
X96489708Y-47818618D01*
X96479910Y-47821921D01*
X96458561Y-47826254D01*
X96428145Y-47831206D01*
X96391150Y-47836365D01*
X96358159Y-47840403D01*
X96305099Y-47846681D01*
X96264107Y-47852094D01*
X96233203Y-47857135D01*
X96210411Y-47862294D01*
X96193751Y-47868064D01*
X96181245Y-47874937D01*
X96170916Y-47883403D01*
X96166223Y-47888100D01*
X96148022Y-47916352D01*
X96142194Y-47948200D01*
X96148513Y-47980892D01*
X96166751Y-48011674D01*
X96177350Y-48022851D01*
X96184044Y-48028158D01*
X96192467Y-48031969D01*
X96204889Y-48034528D01*
X96223584Y-48036081D01*
X96250822Y-48036872D01*
X96288875Y-48037147D01*
X96310154Y-48037167D01*
X96349421Y-48037380D01*
X96383567Y-48037971D01*
X96410178Y-48038865D01*
X96426840Y-48039987D01*
X96431325Y-48040899D01*
X96430242Y-48048330D01*
X96425176Y-48066854D01*
X96416842Y-48094258D01*
X96405956Y-48128329D01*
X96393232Y-48166853D01*
X96379387Y-48207618D01*
X96365136Y-48248410D01*
X96356126Y-48273528D01*
X96344771Y-48303726D01*
X96331446Y-48337485D01*
X96317338Y-48371992D01*
X96303634Y-48404437D01*
X96291521Y-48432005D01*
X96282184Y-48451887D01*
X96276978Y-48461080D01*
X96268759Y-48467296D01*
X96255640Y-48469316D01*
X96233645Y-48467589D01*
X96227075Y-48466731D01*
X96205725Y-48464676D01*
X96173855Y-48462677D01*
X96135058Y-48460912D01*
X96092923Y-48459557D01*
X96072058Y-48459096D01*
X95957588Y-48456972D01*
X95934474Y-48480039D01*
X95921194Y-48494790D01*
X95914266Y-48508620D01*
X95911674Y-48527165D01*
X95911361Y-48544734D01*
X95912479Y-48570779D01*
X95916836Y-48588050D01*
X95925932Y-48601776D01*
X95928577Y-48604689D01*
X95947821Y-48619419D01*
X95970379Y-48629545D01*
X95970911Y-48629690D01*
X95990128Y-48634211D01*
X96017635Y-48639953D01*
X96050003Y-48646283D01*
X96083803Y-48652571D01*
X96115608Y-48658186D01*
X96141989Y-48662497D01*
X96159517Y-48664874D01*
X96163597Y-48665144D01*
X96174050Y-48669350D01*
X96175944Y-48674131D01*
X96172507Y-48684190D01*
X96162911Y-48704062D01*
X96148232Y-48731914D01*
X96129544Y-48765913D01*
X96107921Y-48804225D01*
X96084437Y-48845017D01*
X96060169Y-48886456D01*
X96036189Y-48926707D01*
X96013572Y-48963938D01*
X95993394Y-48996316D01*
X95976728Y-49022006D01*
X95964649Y-49039176D01*
X95958232Y-49045992D01*
X95957975Y-49046035D01*
X95949297Y-49044100D01*
X95931805Y-49039236D01*
X95919059Y-49035452D01*
X95897273Y-49029375D01*
X95880293Y-49025581D01*
X95874962Y-49024945D01*
X95873616Y-49026843D01*
X95872399Y-49032959D01*
X95871304Y-49043921D01*
X95870327Y-49060360D01*
X95869460Y-49082905D01*
X95868697Y-49112185D01*
X95868034Y-49148831D01*
X95867463Y-49193473D01*
X95866978Y-49246740D01*
X95866575Y-49309261D01*
X95866245Y-49381667D01*
X95865985Y-49464587D01*
X95865787Y-49558651D01*
X95865646Y-49664488D01*
X95865555Y-49782729D01*
X95865509Y-49914003D01*
X95865500Y-50015740D01*
X95865491Y-50156712D01*
X95865452Y-50284334D01*
X95865368Y-50399367D01*
X95865221Y-50502570D01*
X95864995Y-50594706D01*
X95864673Y-50676534D01*
X95864239Y-50748816D01*
X95863676Y-50812311D01*
X95862968Y-50867782D01*
X95862098Y-50915988D01*
X95861049Y-50957690D01*
X95859804Y-50993649D01*
X95858348Y-51024626D01*
X95856664Y-51051382D01*
X95854735Y-51074677D01*
X95852544Y-51095272D01*
X95850075Y-51113928D01*
X95847311Y-51131405D01*
X95844236Y-51148465D01*
X95840833Y-51165868D01*
X95840373Y-51168159D01*
X95816585Y-51260430D01*
X95783884Y-51347085D01*
X95743203Y-51426468D01*
X95695475Y-51496924D01*
X95641635Y-51556796D01*
X95602259Y-51590430D01*
X95529028Y-51637335D01*
X95450260Y-51671353D01*
X95366208Y-51692468D01*
X95277130Y-51700660D01*
X95183280Y-51695910D01*
X95084914Y-51678201D01*
X94982287Y-51647512D01*
X94955482Y-51637614D01*
X94927643Y-51626618D01*
X94900776Y-51615172D01*
X94873588Y-51602537D01*
X94844787Y-51587971D01*
X94813078Y-51570732D01*
X94777170Y-51550080D01*
X94735768Y-51525272D01*
X94687582Y-51495569D01*
X94631316Y-51460228D01*
X94565679Y-51418508D01*
X94500250Y-51376643D01*
X94472121Y-51358654D01*
X94434804Y-51334861D01*
X94391037Y-51307004D01*
X94343556Y-51276824D01*
X94295098Y-51246064D01*
X94263889Y-51226275D01*
X94213382Y-51194238D01*
X94159378Y-51159930D01*
X94105302Y-51125533D01*
X94054581Y-51093226D01*
X94010643Y-51065189D01*
X93992250Y-51053430D01*
X93953008Y-51028354D01*
X93905270Y-50997907D01*
X93852461Y-50964269D01*
X93798004Y-50929621D01*
X93745325Y-50896143D01*
X93720611Y-50880454D01*
X93673091Y-50850273D01*
X93624811Y-50819558D01*
X93578487Y-50790043D01*
X93536839Y-50763459D01*
X93502584Y-50741541D01*
X93485221Y-50730392D01*
X93408581Y-50681064D01*
X93354693Y-50686564D01*
X93315760Y-50690725D01*
X93288008Y-50692899D01*
X93268513Y-50691553D01*
X93254352Y-50685156D01*
X93242601Y-50672175D01*
X93230337Y-50651078D01*
X93214637Y-50620334D01*
X93209611Y-50610532D01*
X93166750Y-50527481D01*
X93084251Y-50474779D01*
X93053626Y-50455889D01*
X93026714Y-50440545D01*
X93005948Y-50430043D01*
X92993766Y-50425680D01*
X92992156Y-50425760D01*
X92979888Y-50436169D01*
X92968227Y-50454712D01*
X92960293Y-50475635D01*
X92958611Y-50487642D01*
X92960942Y-50501069D01*
X92967280Y-50524356D01*
X92976640Y-50554163D01*
X92987383Y-50585331D01*
X93003805Y-50631392D01*
X93015710Y-50665741D01*
X93023581Y-50689860D01*
X93027905Y-50705232D01*
X93029167Y-50713121D01*
X93022399Y-50714486D01*
X93003245Y-50715691D01*
X92973430Y-50716695D01*
X92934678Y-50717458D01*
X92888715Y-50717940D01*
X92837264Y-50718100D01*
X92817540Y-50718071D01*
X92756925Y-50717847D01*
X92708911Y-50717480D01*
X92671991Y-50716883D01*
X92644654Y-50715970D01*
X92625392Y-50714653D01*
X92612695Y-50712846D01*
X92605054Y-50710462D01*
X92600961Y-50707414D01*
X92599735Y-50705542D01*
X92595797Y-50695154D01*
X92588645Y-50673631D01*
X92579045Y-50643379D01*
X92567759Y-50606803D01*
X92556689Y-50570111D01*
X92544178Y-50529211D01*
X92532196Y-50491852D01*
X92521616Y-50460621D01*
X92513311Y-50438105D01*
X92508603Y-50427600D01*
X92504523Y-50419431D01*
X92502006Y-50409840D01*
X92501073Y-50396473D01*
X92501744Y-50376979D01*
X92504040Y-50349006D01*
X92507980Y-50310200D01*
X92509760Y-50293544D01*
X92514233Y-50252383D01*
X92518485Y-50213998D01*
X92522163Y-50181538D01*
X92524910Y-50158155D01*
X92525928Y-50150063D01*
X92527445Y-50134108D01*
X92525022Y-50123384D01*
X92516147Y-50114004D01*
X92498307Y-50102078D01*
X92492654Y-50098555D01*
X92471838Y-50086907D01*
X92455066Y-50079841D01*
X92447076Y-50078777D01*
X92442152Y-50087423D01*
X92437834Y-50108026D01*
X92434562Y-50138433D01*
X92434384Y-50140868D01*
X92431700Y-50174006D01*
X92428098Y-50211959D01*
X92423890Y-50252101D01*
X92419388Y-50291803D01*
X92414903Y-50328439D01*
X92410746Y-50359380D01*
X92407230Y-50381999D01*
X92404665Y-50393669D01*
X92404329Y-50394403D01*
X92394533Y-50400314D01*
X92390581Y-50400778D01*
X92378531Y-50406734D01*
X92365069Y-50421622D01*
X92353204Y-50440976D01*
X92345947Y-50460327D01*
X92344984Y-50468472D01*
X92346233Y-50482788D01*
X92349515Y-50507797D01*
X92354370Y-50540305D01*
X92360338Y-50577117D01*
X92362144Y-50587750D01*
X92367898Y-50623460D01*
X92372127Y-50654095D01*
X92374523Y-50677036D01*
X92374778Y-50689664D01*
X92374285Y-50691183D01*
X92365765Y-50691840D01*
X92345652Y-50690240D01*
X92316223Y-50686728D01*
X92279754Y-50681645D01*
X92238522Y-50675336D01*
X92194804Y-50668145D01*
X92150877Y-50660414D01*
X92109016Y-50652488D01*
X92083722Y-50647337D01*
X92050530Y-50640478D01*
X92020186Y-50634447D01*
X91996781Y-50630046D01*
X91986955Y-50628398D01*
X91969315Y-50623744D01*
X91958276Y-50617142D01*
X91958159Y-50616993D01*
X91954947Y-50607017D01*
X91950964Y-50586227D01*
X91946760Y-50557859D01*
X91943547Y-50531306D01*
X91936762Y-50470739D01*
X91930971Y-50422592D01*
X91925902Y-50385228D01*
X91921283Y-50357013D01*
X91916842Y-50336311D01*
X91912307Y-50321487D01*
X91907406Y-50310906D01*
X91906682Y-50309681D01*
X91885028Y-50285844D01*
X91857463Y-50272147D01*
X91827177Y-50268307D01*
X91797356Y-50274040D01*
X91771188Y-50289066D01*
X91751861Y-50313099D01*
X91747218Y-50323828D01*
X91743803Y-50340978D01*
X91741074Y-50369554D01*
X91739213Y-50406879D01*
X91738405Y-50450277D01*
X91738398Y-50451931D01*
X91737921Y-50494795D01*
X91736779Y-50525083D01*
X91734838Y-50544316D01*
X91731963Y-50554019D01*
X91729180Y-50555959D01*
X91717249Y-50553625D01*
X91694366Y-50547172D01*
X91662824Y-50537348D01*
X91624918Y-50524899D01*
X91582942Y-50510573D01*
X91539188Y-50495116D01*
X91512222Y-50485310D01*
X91475124Y-50471557D01*
X91445579Y-50460261D01*
X91418958Y-50449534D01*
X91390628Y-50437487D01*
X91355959Y-50422233D01*
X91339137Y-50414748D01*
X91307162Y-50400495D01*
X91310977Y-50367123D01*
X91315161Y-50325372D01*
X91318676Y-50280369D01*
X91321415Y-50234821D01*
X91323272Y-50191434D01*
X91324141Y-50152917D01*
X91323916Y-50121975D01*
X91322491Y-50101317D01*
X91321586Y-50096629D01*
X91306731Y-50066036D01*
X91282160Y-50045572D01*
X91248461Y-50035726D01*
X91248195Y-50035695D01*
X91211801Y-50036605D01*
X91182956Y-50047827D01*
X91163276Y-50068698D01*
X91162019Y-50071009D01*
X91157815Y-50083293D01*
X91151777Y-50106137D01*
X91144620Y-50136222D01*
X91137057Y-50170230D01*
X91129804Y-50204843D01*
X91123575Y-50236740D01*
X91119084Y-50262603D01*
X91117045Y-50279113D01*
X91117003Y-50280159D01*
X91113586Y-50289115D01*
X91110652Y-50294221D01*
X91104800Y-50297036D01*
X91093010Y-50295060D01*
X91074333Y-50287823D01*
X91047821Y-50274855D01*
X91012523Y-50255684D01*
X90967491Y-50229839D01*
X90911775Y-50196851D01*
X90899414Y-50189443D01*
X90851351Y-50160521D01*
X90814072Y-50137889D01*
X90786209Y-50120660D01*
X90766397Y-50107948D01*
X90753267Y-50098869D01*
X90745453Y-50092535D01*
X90741587Y-50088063D01*
X90740906Y-50086755D01*
X90741635Y-50078027D01*
X90745437Y-50057823D01*
X90751836Y-50028321D01*
X90760355Y-49991701D01*
X90770518Y-49950143D01*
X90772533Y-49942116D01*
X90784300Y-49895092D01*
X90792858Y-49859534D01*
X90798533Y-49833248D01*
X90801652Y-49814039D01*
X90802543Y-49799711D01*
X90801533Y-49788072D01*
X90798950Y-49776926D01*
X90797774Y-49772868D01*
X90782157Y-49743551D01*
X90756363Y-49722444D01*
X90722626Y-49711043D01*
X90703140Y-49709450D01*
X90679106Y-49712908D01*
X90658885Y-49724531D01*
X90641084Y-49745875D01*
X90624313Y-49778497D01*
X90611196Y-49812367D01*
X90594288Y-49859937D01*
X90581414Y-49895749D01*
X90571981Y-49921376D01*
X90565396Y-49938391D01*
X90561068Y-49948368D01*
X90558403Y-49952880D01*
X90558208Y-49953088D01*
X90551269Y-49950533D01*
X90535288Y-49939887D01*
X90511799Y-49922405D01*
X90482334Y-49899341D01*
X90448426Y-49871949D01*
X90411607Y-49841483D01*
X90373409Y-49809197D01*
X90335366Y-49776345D01*
X90299010Y-49744182D01*
X90265873Y-49713962D01*
X90264879Y-49713038D01*
X90226341Y-49677167D01*
X90240470Y-49645625D01*
X90249028Y-49626235D01*
X90261357Y-49597939D01*
X90275689Y-49564808D01*
X90287875Y-49536472D01*
X90301932Y-49503908D01*
X90314906Y-49474247D01*
X90325265Y-49450969D01*
X90331075Y-49438374D01*
X90341313Y-49403272D01*
X90338948Y-49369874D01*
X90325475Y-49340541D01*
X90302387Y-49317634D01*
X90271178Y-49303514D01*
X90243603Y-49300111D01*
X90227611Y-49301469D01*
X90213381Y-49306593D01*
X90199441Y-49317058D01*
X90184322Y-49334439D01*
X90166553Y-49360311D01*
X90144665Y-49396248D01*
X90129496Y-49422335D01*
X90110714Y-49453884D01*
X90093790Y-49480319D01*
X90080162Y-49499541D01*
X90071272Y-49509449D01*
X90069209Y-49510312D01*
X90061196Y-49504131D01*
X90045829Y-49488606D01*
X90024537Y-49465437D01*
X89998746Y-49436324D01*
X89969885Y-49402968D01*
X89939382Y-49367069D01*
X89908666Y-49330327D01*
X89879164Y-49294444D01*
X89852304Y-49261120D01*
X89829514Y-49232055D01*
X89812223Y-49208949D01*
X89801859Y-49193504D01*
X89799870Y-49189596D01*
X89802604Y-49181379D01*
X89812142Y-49163531D01*
X89827295Y-49138054D01*
X89846876Y-49106948D01*
X89868528Y-49073959D01*
X89898697Y-49028397D01*
X89921602Y-48992523D01*
X89938182Y-48964540D01*
X89949372Y-48942651D01*
X89956108Y-48925058D01*
X89959327Y-48909964D01*
X89960000Y-48898417D01*
X89953987Y-48876103D01*
X89938292Y-48852874D01*
X89916430Y-48832810D01*
X89892595Y-48820209D01*
X89874141Y-48815338D01*
X89857839Y-48814809D01*
X89841821Y-48819798D01*
X89824221Y-48831480D01*
X89803172Y-48851031D01*
X89776806Y-48879625D01*
X89751058Y-48909304D01*
X89725478Y-48938586D01*
X89702768Y-48963451D01*
X89684597Y-48982162D01*
X89672635Y-48992978D01*
X89668863Y-48994927D01*
X89662058Y-48987804D01*
X89649692Y-48970148D01*
X89632857Y-48943871D01*
X89612649Y-48910884D01*
X89590161Y-48873096D01*
X89566485Y-48832420D01*
X89542716Y-48790766D01*
X89519948Y-48750045D01*
X89499274Y-48712168D01*
X89481788Y-48679045D01*
X89468583Y-48652588D01*
X89460753Y-48634708D01*
X89459055Y-48628331D01*
X89463861Y-48617614D01*
X89475888Y-48602810D01*
X89481085Y-48597640D01*
X89493362Y-48585420D01*
X89513000Y-48565095D01*
X89537819Y-48538955D01*
X89565636Y-48509291D01*
X89583390Y-48490180D01*
X89663667Y-48403443D01*
X89663667Y-48365179D01*
X89662606Y-48341268D01*
X89657765Y-48325048D01*
X89646655Y-48310158D01*
X89639076Y-48302325D01*
X89610846Y-48281423D01*
X89580962Y-48272158D01*
X89552336Y-48275398D01*
X89550704Y-48276016D01*
X89539194Y-48282930D01*
X89519425Y-48297241D01*
X89493805Y-48317109D01*
X89464746Y-48340698D01*
X89452493Y-48350936D01*
X89423895Y-48374966D01*
X89399061Y-48395696D01*
X89380016Y-48411448D01*
X89368781Y-48420542D01*
X89366785Y-48422033D01*
X89362254Y-48417157D01*
X89353970Y-48400836D01*
X89342653Y-48375008D01*
X89329024Y-48341612D01*
X89313802Y-48302586D01*
X89297707Y-48259869D01*
X89281459Y-48215399D01*
X89265778Y-48171114D01*
X89251384Y-48128954D01*
X89238997Y-48090856D01*
X89229336Y-48058759D01*
X89223451Y-48036086D01*
X89219175Y-48027033D01*
X89209149Y-48016131D01*
X89191808Y-48002136D01*
X89165591Y-47983807D01*
X89128935Y-47959901D01*
X89122190Y-47955598D01*
X89087294Y-47933381D01*
X89054695Y-47912612D01*
X89027093Y-47895011D01*
X89007190Y-47882303D01*
X89000444Y-47877984D01*
X88922887Y-47828123D01*
X88856138Y-47784939D01*
X88799062Y-47747599D01*
X88750522Y-47715268D01*
X88709382Y-47687111D01*
X88674507Y-47662294D01*
X88644758Y-47639982D01*
X88619002Y-47619340D01*
X88596100Y-47599535D01*
X88574917Y-47579731D01*
X88554317Y-47559093D01*
X88533164Y-47536788D01*
X88527257Y-47530423D01*
X88476522Y-47469847D01*
X88429446Y-47402651D01*
X88387994Y-47332230D01*
X88354130Y-47261981D01*
X88329821Y-47195300D01*
X88326480Y-47183445D01*
X88319532Y-47148061D01*
X88314391Y-47103059D01*
X88311155Y-47052401D01*
X88309923Y-47000052D01*
X88310793Y-46949974D01*
X88313863Y-46906130D01*
X88318816Y-46874257D01*
X88346711Y-46778000D01*
X88385590Y-46687542D01*
X88436169Y-46601728D01*
X88499162Y-46519403D01*
X88575284Y-46439412D01*
X88604728Y-46412141D01*
X88634467Y-46387423D01*
X88675637Y-46356335D01*
X88727391Y-46319461D01*
X88788880Y-46277383D01*
X88859256Y-46230683D01*
X88937671Y-46179945D01*
X89003972Y-46137876D01*
X89045733Y-46111511D01*
X89090281Y-46083255D01*
X89133382Y-46055803D01*
X89170802Y-46031848D01*
X89185574Y-46022337D01*
X89215426Y-46003148D01*
X89241866Y-45986310D01*
X89262159Y-45973554D01*
X89273569Y-45966612D01*
X89274013Y-45966361D01*
X89293834Y-45954732D01*
X89318718Y-45939281D01*
X89346084Y-45921722D01*
X89373352Y-45903766D01*
X89397943Y-45887126D01*
X89417276Y-45873513D01*
X89428772Y-45864639D01*
X89430833Y-45862302D01*
X89424191Y-45860427D01*
X89405920Y-45858844D01*
X89378499Y-45857680D01*
X89344409Y-45857064D01*
X89328528Y-45857000D01*
X89292357Y-45856612D01*
X89261802Y-45855543D01*
X89239344Y-45853939D01*
X89227462Y-45851946D01*
X89226222Y-45851017D01*
X89228515Y-45840649D01*
X89234858Y-45819388D01*
X89244448Y-45789589D01*
X89256484Y-45753610D01*
X89270161Y-45713807D01*
X89284679Y-45672536D01*
X89299234Y-45632155D01*
X89313023Y-45595020D01*
X89316700Y-45585361D01*
X89335919Y-45535592D01*
X89351002Y-45497558D01*
X89362640Y-45469734D01*
X89371522Y-45450595D01*
X89378336Y-45438617D01*
X89383773Y-45432273D01*
X89386673Y-45430532D01*
X89396619Y-45429758D01*
X89417773Y-45430030D01*
X89447279Y-45431252D01*
X89482280Y-45433330D01*
X89492018Y-45434005D01*
X89549286Y-45437927D01*
X89594343Y-45440528D01*
X89629030Y-45441788D01*
X89655189Y-45441683D01*
X89674660Y-45440188D01*
X89689284Y-45437282D01*
X89700901Y-45432942D01*
X89704117Y-45431335D01*
X89729568Y-45410620D01*
X89743927Y-45381438D01*
X89746915Y-45344386D01*
X89746566Y-45340148D01*
X89743907Y-45321055D01*
X89738983Y-45305442D01*
X89730300Y-45292595D01*
X89716361Y-45281801D01*
X89695671Y-45272349D01*
X89666737Y-45263525D01*
X89628063Y-45254616D01*
X89578154Y-45244910D01*
X89527847Y-45235865D01*
X89504123Y-45231214D01*
X89487062Y-45226986D01*
X89480232Y-45224070D01*
X89480222Y-45223997D01*
X89483732Y-45213804D01*
X89493548Y-45193471D01*
X89508601Y-45164887D01*
X89527821Y-45129941D01*
X89550140Y-45090524D01*
X89574486Y-45048524D01*
X89599792Y-45005832D01*
X89624987Y-44964336D01*
X89648377Y-44926909D01*
X89694699Y-44854068D01*
X89719752Y-44858720D01*
X89734986Y-44861941D01*
X89760999Y-44867857D01*
X89794869Y-44875786D01*
X89833676Y-44885048D01*
X89860593Y-44891564D01*
X89914381Y-44903975D01*
X89956627Y-44911760D01*
X89989194Y-44914699D01*
X90013944Y-44912573D01*
X90032740Y-44905165D01*
X90047445Y-44892256D01*
X90059922Y-44873627D01*
X90063028Y-44867826D01*
X90073230Y-44834598D01*
X90070385Y-44802461D01*
X90055503Y-44773748D01*
X90029592Y-44750794D01*
X90007889Y-44740278D01*
X89988176Y-44733041D01*
X89959725Y-44722608D01*
X89927048Y-44710632D01*
X89907083Y-44703318D01*
X89877569Y-44692234D01*
X89853054Y-44682511D01*
X89836551Y-44675377D01*
X89831233Y-44672453D01*
X89833565Y-44665425D01*
X89843939Y-44649475D01*
X89861015Y-44626220D01*
X89883451Y-44597277D01*
X89909907Y-44564262D01*
X89939042Y-44528794D01*
X89969514Y-44492488D01*
X89999983Y-44456963D01*
X90029108Y-44423835D01*
X90055548Y-44394720D01*
X90077963Y-44371237D01*
X90093026Y-44356752D01*
X90109838Y-44341698D01*
X90156627Y-44362499D01*
X90183378Y-44374412D01*
X90207972Y-44385401D01*
X90224583Y-44392861D01*
X90279309Y-44417216D01*
X90322342Y-44435525D01*
X90354567Y-44448143D01*
X90376869Y-44455422D01*
X90385712Y-44457353D01*
X90415129Y-44455166D01*
X90441922Y-44441355D01*
X90463636Y-44418411D01*
X90477815Y-44388819D01*
X90482111Y-44359680D01*
X90480225Y-44343079D01*
X90473582Y-44327586D01*
X90460707Y-44311825D01*
X90440125Y-44294415D01*
X90410359Y-44273980D01*
X90369933Y-44249141D01*
X90353168Y-44239254D01*
X90263031Y-44186486D01*
X90314362Y-44138856D01*
X90335228Y-44120151D01*
X90362826Y-44096360D01*
X90395169Y-44069101D01*
X90430266Y-44039992D01*
X90466131Y-44010651D01*
X90500774Y-43982697D01*
X90532208Y-43957748D01*
X90558443Y-43937420D01*
X90577493Y-43923333D01*
X90586169Y-43917672D01*
X90592590Y-43916251D01*
X90602128Y-43918332D01*
X90616376Y-43924770D01*
X90636931Y-43936419D01*
X90665384Y-43954135D01*
X90703332Y-43978774D01*
X90717542Y-43988128D01*
X90763979Y-44018265D01*
X90800864Y-44040833D01*
X90830007Y-44056631D01*
X90853220Y-44066458D01*
X90872313Y-44071112D01*
X90889097Y-44071392D01*
X90901324Y-44069196D01*
X90922925Y-44057852D01*
X90943593Y-44037145D01*
X90959255Y-44011473D01*
X90962453Y-44003206D01*
X90966799Y-43984566D01*
X90965910Y-43967314D01*
X90958623Y-43949685D01*
X90943777Y-43929910D01*
X90920209Y-43906224D01*
X90886755Y-43876858D01*
X90870254Y-43863049D01*
X90841365Y-43838422D01*
X90816947Y-43816334D01*
X90798842Y-43798555D01*
X90788894Y-43786855D01*
X90787566Y-43783649D01*
X90794077Y-43776265D01*
X90811056Y-43763308D01*
X90836593Y-43745980D01*
X90868777Y-43725482D01*
X90905698Y-43703013D01*
X90945445Y-43679776D01*
X90986108Y-43656970D01*
X91007750Y-43645270D01*
X91039626Y-43628187D01*
X91071426Y-43610976D01*
X91098120Y-43596365D01*
X91107386Y-43591220D01*
X91128028Y-43580294D01*
X91144034Y-43572953D01*
X91150510Y-43571000D01*
X91157564Y-43575637D01*
X91173134Y-43588564D01*
X91195548Y-43608306D01*
X91223137Y-43633386D01*
X91254230Y-43662330D01*
X91259012Y-43666838D01*
X91291859Y-43697203D01*
X91322890Y-43724705D01*
X91350064Y-43747625D01*
X91371342Y-43764247D01*
X91384683Y-43772851D01*
X91385222Y-43773089D01*
X91417425Y-43780176D01*
X91447308Y-43773351D01*
X91474750Y-43752644D01*
X91474785Y-43752607D01*
X91498334Y-43723299D01*
X91509058Y-43696985D01*
X91507024Y-43671045D01*
X91492300Y-43642853D01*
X91478083Y-43624567D01*
X91440627Y-43580037D01*
X91411749Y-43544990D01*
X91390648Y-43518365D01*
X91376523Y-43499104D01*
X91368573Y-43486146D01*
X91365997Y-43478432D01*
X91366256Y-43476664D01*
X91374088Y-43470723D01*
X91393251Y-43461112D01*
X91421683Y-43448596D01*
X91457321Y-43433940D01*
X91498099Y-43417910D01*
X91541955Y-43401272D01*
X91586825Y-43384789D01*
X91630645Y-43369229D01*
X91671352Y-43355355D01*
X91706882Y-43343934D01*
X91735171Y-43335732D01*
X91754156Y-43331512D01*
X91758704Y-43331111D01*
X91764904Y-43336531D01*
X91778032Y-43351653D01*
X91796712Y-43374766D01*
X91819569Y-43404161D01*
X91845229Y-43438130D01*
X91850369Y-43445044D01*
X91877386Y-43480807D01*
X91902870Y-43513314D01*
X91925189Y-43540578D01*
X91942711Y-43560609D01*
X91953802Y-43571421D01*
X91954613Y-43571997D01*
X91983938Y-43583682D01*
X92014716Y-43582003D01*
X92045342Y-43567374D01*
X92073054Y-43541592D01*
X92085123Y-43522588D01*
X92089534Y-43501671D01*
X92085926Y-43476734D01*
X92073937Y-43445670D01*
X92053205Y-43406373D01*
X92048445Y-43398139D01*
X92025716Y-43359160D01*
X92009163Y-43330510D01*
X91997812Y-43310355D01*
X91990690Y-43296858D01*
X91986820Y-43288185D01*
X91985231Y-43282498D01*
X91984944Y-43278480D01*
X91991743Y-43270746D01*
X92011115Y-43263696D01*
X92021986Y-43261238D01*
X92064169Y-43253058D01*
X92112021Y-43244126D01*
X92161088Y-43235244D01*
X92206915Y-43227213D01*
X92245048Y-43220835D01*
X92256583Y-43219014D01*
X92291478Y-43213628D01*
X92329855Y-43207690D01*
X92354423Y-43203880D01*
X92378712Y-43200427D01*
X92396714Y-43198472D01*
X92404710Y-43198413D01*
X92404783Y-43198469D01*
X92408371Y-43205133D01*
X92417277Y-43222507D01*
X92430530Y-43248667D01*
X92447155Y-43281693D01*
X92466181Y-43319663D01*
X92470507Y-43328318D01*
X92496632Y-43379726D01*
X92518192Y-43419574D01*
X92536343Y-43449198D01*
X92552244Y-43469936D01*
X92567051Y-43483125D01*
X92581922Y-43490104D01*
X92598014Y-43492210D01*
X92611606Y-43491393D01*
X92648085Y-43481343D01*
X92676085Y-43460093D01*
X92692669Y-43435094D01*
X92698185Y-43423087D01*
X92700964Y-43412257D01*
X92700550Y-43399789D01*
X92696488Y-43382864D01*
X92688321Y-43358666D01*
X92675595Y-43324376D01*
X92674146Y-43320528D01*
X92657308Y-43275658D01*
X92644996Y-43242183D01*
X92636703Y-43218316D01*
X92631921Y-43202269D01*
X92630145Y-43192257D01*
X92630865Y-43186490D01*
X92633575Y-43183181D01*
X92634904Y-43182271D01*
X92644458Y-43180589D01*
X92665854Y-43179192D01*
X92696826Y-43178084D01*
X92735107Y-43177268D01*
X92778431Y-43176748D01*
X92824532Y-43176529D01*
X92871144Y-43176613D01*
X92916000Y-43177006D01*
X92956833Y-43177710D01*
X92991379Y-43178731D01*
X93017370Y-43180071D01*
X93031766Y-43181587D01*
X93040897Y-43182979D01*
X93047908Y-43184565D01*
X93053621Y-43188079D01*
X93058861Y-43195258D01*
X93064452Y-43207835D01*
X93071217Y-43227545D01*
X93079980Y-43256125D01*
X93091564Y-43295308D01*
X93101086Y-43327583D01*
X93117461Y-43381553D01*
X93131015Y-43422961D01*
X93142223Y-43452966D01*
X93151557Y-43472727D01*
X93159490Y-43483404D01*
X93165790Y-43486204D01*
X93174789Y-43482487D01*
X93192564Y-43472579D01*
X93216185Y-43458173D01*
X93232980Y-43447399D01*
X93258461Y-43431072D01*
X93279578Y-43418153D01*
X93293551Y-43410310D01*
X93297489Y-43408722D01*
X93303463Y-43405475D01*
X93306233Y-43394722D01*
X93305752Y-43374948D01*
X93301974Y-43344637D01*
X93294852Y-43302272D01*
X93294101Y-43298122D01*
X93288157Y-43264227D01*
X93283561Y-43235692D01*
X93280712Y-43215190D01*
X93280010Y-43205391D01*
X93280147Y-43204966D01*
X93287819Y-43204786D01*
X93306627Y-43206515D01*
X93333785Y-43209761D01*
X93366506Y-43214134D01*
X93402004Y-43219245D01*
X93437493Y-43224703D01*
X93470185Y-43230117D01*
X93497295Y-43235099D01*
X93501615Y-43235971D01*
X93517353Y-43239342D01*
X93529933Y-43241552D01*
X93541245Y-43241813D01*
X93553179Y-43239342D01*
X93567625Y-43233351D01*
X93586472Y-43223057D01*
X93611609Y-43207673D01*
X93644928Y-43186414D01*
X93688318Y-43158495D01*
X93688861Y-43158146D01*
X93723327Y-43136057D01*
X93767189Y-43108026D01*
X93817920Y-43075661D01*
X93872997Y-43040573D01*
X93929893Y-43004369D01*
X93986084Y-42968659D01*
X94009889Y-42953547D01*
X94061682Y-42920663D01*
X94112395Y-42888439D01*
X94160107Y-42858095D01*
X94202897Y-42830855D01*
X94238846Y-42807940D01*
X94266033Y-42790572D01*
X94278000Y-42782900D01*
X94381178Y-42716684D01*
X94473478Y-42657772D01*
X94555793Y-42605680D01*
X94629013Y-42559926D01*
X94694030Y-42520026D01*
X94751736Y-42485498D01*
X94803022Y-42455858D01*
X94848780Y-42430626D01*
X94889901Y-42409316D01*
X94927277Y-42391448D01*
X94961799Y-42376537D01*
X94994359Y-42364102D01*
X95025848Y-42353659D01*
X95057158Y-42344725D01*
X95089180Y-42336819D01*
X95110555Y-42332054D01*
X95156019Y-42324840D01*
X95208955Y-42320558D01*
X95264956Y-42319217D01*
X95264956Y-42319217D01*
G36*
X93512652Y-47900491D02*
X93523360Y-47902410D01*
X93539733Y-47911415D01*
X93548454Y-47917782D01*
X93574686Y-47935599D01*
X93598643Y-47943337D01*
X93626263Y-47942393D01*
X93641111Y-47939585D01*
X93658049Y-47937227D01*
X93686501Y-47934752D01*
X93723874Y-47932322D01*
X93767575Y-47930097D01*
X93815009Y-47928238D01*
X93833500Y-47927661D01*
X93910748Y-47925418D01*
X93976645Y-47923486D01*
X94033944Y-47921779D01*
X94085400Y-47920209D01*
X94133766Y-47918687D01*
X94181797Y-47917127D01*
X94232247Y-47915441D01*
X94287868Y-47913541D01*
X94351417Y-47911339D01*
X94403558Y-47909520D01*
X94471863Y-47907190D01*
X94527719Y-47905525D01*
X94572776Y-47904648D01*
X94608686Y-47904680D01*
X94637100Y-47905741D01*
X94659669Y-47907952D01*
X94678044Y-47911436D01*
X94693877Y-47916313D01*
X94708818Y-47922703D01*
X94724519Y-47930729D01*
X94729555Y-47933437D01*
X94767779Y-47958455D01*
X94793520Y-47986671D01*
X94808396Y-48020773D01*
X94814027Y-48063445D01*
X94814186Y-48073858D01*
X94813118Y-48104937D01*
X94809235Y-48127246D01*
X94801438Y-48146024D01*
X94797691Y-48152551D01*
X94772583Y-48182314D01*
X94736982Y-48208272D01*
X94694437Y-48227989D01*
X94681809Y-48232046D01*
X94669265Y-48235056D01*
X94654169Y-48237257D01*
X94635203Y-48238623D01*
X94611050Y-48239123D01*
X94580391Y-48238729D01*
X94541909Y-48237412D01*
X94494286Y-48235142D01*
X94436203Y-48231892D01*
X94366344Y-48227632D01*
X94306222Y-48223808D01*
X94286426Y-48222575D01*
X94254645Y-48220647D01*
X94212985Y-48218149D01*
X94163547Y-48215206D01*
X94108436Y-48211944D01*
X94049754Y-48208488D01*
X94009889Y-48206150D01*
X93923666Y-48200976D01*
X93850069Y-48196269D01*
X93787622Y-48191910D01*
X93734851Y-48187782D01*
X93690282Y-48183768D01*
X93652441Y-48179749D01*
X93619854Y-48175608D01*
X93609999Y-48174194D01*
X93590344Y-48172791D01*
X93574009Y-48176672D01*
X93554797Y-48187609D01*
X93548756Y-48191697D01*
X93525811Y-48206493D01*
X93510306Y-48212353D01*
X93499983Y-48208075D01*
X93492583Y-48192458D01*
X93485847Y-48164302D01*
X93484473Y-48157522D01*
X93476617Y-48118306D01*
X92619656Y-48116401D01*
X92491116Y-48116127D01*
X92375933Y-48115912D01*
X92273353Y-48115765D01*
X92182621Y-48115694D01*
X92102983Y-48115708D01*
X92033685Y-48115814D01*
X91973973Y-48116021D01*
X91923092Y-48116338D01*
X91880289Y-48116773D01*
X91844808Y-48117334D01*
X91815897Y-48118029D01*
X91792800Y-48118867D01*
X91774763Y-48119856D01*
X91761032Y-48121005D01*
X91750854Y-48122322D01*
X91743473Y-48123814D01*
X91738135Y-48125492D01*
X91736515Y-48126166D01*
X91724405Y-48130891D01*
X91711782Y-48133712D01*
X91696196Y-48134541D01*
X91675199Y-48133291D01*
X91646341Y-48129874D01*
X91607174Y-48124203D01*
X91584542Y-48120740D01*
X91533389Y-48112842D01*
X91533389Y-48078949D01*
X91534397Y-48058508D01*
X91536960Y-48044788D01*
X91538680Y-48041919D01*
X91547367Y-48039748D01*
X91567099Y-48036161D01*
X91594940Y-48031656D01*
X91627741Y-48026764D01*
X91664045Y-48021757D01*
X91689675Y-48018982D01*
X91707888Y-48018416D01*
X91721940Y-48020038D01*
X91735087Y-48023824D01*
X91740940Y-48025984D01*
X91746403Y-48027676D01*
X91753944Y-48029185D01*
X91764316Y-48030520D01*
X91778273Y-48031689D01*
X91796570Y-48032699D01*
X91819960Y-48033559D01*
X91849198Y-48034277D01*
X91885036Y-48034862D01*
X91928229Y-48035320D01*
X91979532Y-48035660D01*
X92039697Y-48035891D01*
X92109479Y-48036020D01*
X92189631Y-48036055D01*
X92280908Y-48036005D01*
X92384063Y-48035877D01*
X92499851Y-48035679D01*
X92623774Y-48035431D01*
X93477177Y-48033639D01*
X93482611Y-47987778D01*
X93489508Y-47945670D01*
X93498589Y-47916993D01*
X93509774Y-47901989D01*
X93512652Y-47900491D01*
X93512652Y-47900491D01*
X93512652Y-47900491D01*
G37*
X93512652Y-47900491D02*
X93523360Y-47902410D01*
X93539733Y-47911415D01*
X93548454Y-47917782D01*
X93574686Y-47935599D01*
X93598643Y-47943337D01*
X93626263Y-47942393D01*
X93641111Y-47939585D01*
X93658049Y-47937227D01*
X93686501Y-47934752D01*
X93723874Y-47932322D01*
X93767575Y-47930097D01*
X93815009Y-47928238D01*
X93833500Y-47927661D01*
X93910748Y-47925418D01*
X93976645Y-47923486D01*
X94033944Y-47921779D01*
X94085400Y-47920209D01*
X94133766Y-47918687D01*
X94181797Y-47917127D01*
X94232247Y-47915441D01*
X94287868Y-47913541D01*
X94351417Y-47911339D01*
X94403558Y-47909520D01*
X94471863Y-47907190D01*
X94527719Y-47905525D01*
X94572776Y-47904648D01*
X94608686Y-47904680D01*
X94637100Y-47905741D01*
X94659669Y-47907952D01*
X94678044Y-47911436D01*
X94693877Y-47916313D01*
X94708818Y-47922703D01*
X94724519Y-47930729D01*
X94729555Y-47933437D01*
X94767779Y-47958455D01*
X94793520Y-47986671D01*
X94808396Y-48020773D01*
X94814027Y-48063445D01*
X94814186Y-48073858D01*
X94813118Y-48104937D01*
X94809235Y-48127246D01*
X94801438Y-48146024D01*
X94797691Y-48152551D01*
X94772583Y-48182314D01*
X94736982Y-48208272D01*
X94694437Y-48227989D01*
X94681809Y-48232046D01*
X94669265Y-48235056D01*
X94654169Y-48237257D01*
X94635203Y-48238623D01*
X94611050Y-48239123D01*
X94580391Y-48238729D01*
X94541909Y-48237412D01*
X94494286Y-48235142D01*
X94436203Y-48231892D01*
X94366344Y-48227632D01*
X94306222Y-48223808D01*
X94286426Y-48222575D01*
X94254645Y-48220647D01*
X94212985Y-48218149D01*
X94163547Y-48215206D01*
X94108436Y-48211944D01*
X94049754Y-48208488D01*
X94009889Y-48206150D01*
X93923666Y-48200976D01*
X93850069Y-48196269D01*
X93787622Y-48191910D01*
X93734851Y-48187782D01*
X93690282Y-48183768D01*
X93652441Y-48179749D01*
X93619854Y-48175608D01*
X93609999Y-48174194D01*
X93590344Y-48172791D01*
X93574009Y-48176672D01*
X93554797Y-48187609D01*
X93548756Y-48191697D01*
X93525811Y-48206493D01*
X93510306Y-48212353D01*
X93499983Y-48208075D01*
X93492583Y-48192458D01*
X93485847Y-48164302D01*
X93484473Y-48157522D01*
X93476617Y-48118306D01*
X92619656Y-48116401D01*
X92491116Y-48116127D01*
X92375933Y-48115912D01*
X92273353Y-48115765D01*
X92182621Y-48115694D01*
X92102983Y-48115708D01*
X92033685Y-48115814D01*
X91973973Y-48116021D01*
X91923092Y-48116338D01*
X91880289Y-48116773D01*
X91844808Y-48117334D01*
X91815897Y-48118029D01*
X91792800Y-48118867D01*
X91774763Y-48119856D01*
X91761032Y-48121005D01*
X91750854Y-48122322D01*
X91743473Y-48123814D01*
X91738135Y-48125492D01*
X91736515Y-48126166D01*
X91724405Y-48130891D01*
X91711782Y-48133712D01*
X91696196Y-48134541D01*
X91675199Y-48133291D01*
X91646341Y-48129874D01*
X91607174Y-48124203D01*
X91584542Y-48120740D01*
X91533389Y-48112842D01*
X91533389Y-48078949D01*
X91534397Y-48058508D01*
X91536960Y-48044788D01*
X91538680Y-48041919D01*
X91547367Y-48039748D01*
X91567099Y-48036161D01*
X91594940Y-48031656D01*
X91627741Y-48026764D01*
X91664045Y-48021757D01*
X91689675Y-48018982D01*
X91707888Y-48018416D01*
X91721940Y-48020038D01*
X91735087Y-48023824D01*
X91740940Y-48025984D01*
X91746403Y-48027676D01*
X91753944Y-48029185D01*
X91764316Y-48030520D01*
X91778273Y-48031689D01*
X91796570Y-48032699D01*
X91819960Y-48033559D01*
X91849198Y-48034277D01*
X91885036Y-48034862D01*
X91928229Y-48035320D01*
X91979532Y-48035660D01*
X92039697Y-48035891D01*
X92109479Y-48036020D01*
X92189631Y-48036055D01*
X92280908Y-48036005D01*
X92384063Y-48035877D01*
X92499851Y-48035679D01*
X92623774Y-48035431D01*
X93477177Y-48033639D01*
X93482611Y-47987778D01*
X93489508Y-47945670D01*
X93498589Y-47916993D01*
X93509774Y-47901989D01*
X93512652Y-47900491D01*
X93512652Y-47900491D01*
G36*
X94462718Y-45668661D02*
X94529805Y-45678143D01*
X94597619Y-45701453D01*
X94608689Y-45706550D01*
X94643129Y-45725594D01*
X94675315Y-45748129D01*
X94702918Y-45772023D01*
X94723613Y-45795145D01*
X94735072Y-45815364D01*
X94736611Y-45823711D01*
X94736611Y-45842540D01*
X94622418Y-45844478D01*
X94508225Y-45846417D01*
X94435684Y-45938139D01*
X94411421Y-45969327D01*
X94390576Y-45997093D01*
X94384800Y-46005167D01*
X93394847Y-46005167D01*
X93280675Y-46005181D01*
X93179782Y-46005234D01*
X93091335Y-46005339D01*
X93014503Y-46005510D01*
X92948452Y-46005760D01*
X92892351Y-46006105D01*
X92845367Y-46006557D01*
X92806667Y-46007131D01*
X92775420Y-46007841D01*
X92750793Y-46008700D01*
X92731954Y-46009723D01*
X92718071Y-46010923D01*
X92708311Y-46012314D01*
X92701841Y-46013910D01*
X92697830Y-46015726D01*
X92696347Y-46016844D01*
X92685624Y-46033542D01*
X92684754Y-46051747D01*
X92693660Y-46066182D01*
X92697092Y-46068419D01*
X92706753Y-46069834D01*
X92730185Y-46071097D01*
X92767426Y-46072206D01*
X92818515Y-46073163D01*
X92883490Y-46073967D01*
X92962390Y-46074620D01*
X93055253Y-46075121D01*
X93162117Y-46075471D01*
X93283021Y-46075671D01*
X93394022Y-46075722D01*
X93508527Y-46075704D01*
X93609747Y-46075640D01*
X93698511Y-46075517D01*
X93775644Y-46075322D01*
X93841973Y-46075043D01*
X93898326Y-46074666D01*
X93945530Y-46074178D01*
X93984410Y-46073567D01*
X94015794Y-46072819D01*
X94040510Y-46071921D01*
X94059383Y-46070861D01*
X94073241Y-46069625D01*
X94082911Y-46068201D01*
X94089219Y-46066575D01*
X94092985Y-46064739D01*
X94106388Y-46050343D01*
X94106035Y-46034764D01*
X94094555Y-46019278D01*
X94091980Y-46016940D01*
X94088653Y-46014876D01*
X94083730Y-46013069D01*
X94076368Y-46011501D01*
X94065722Y-46010155D01*
X94050950Y-46009015D01*
X94031208Y-46008063D01*
X94005651Y-46007283D01*
X93973437Y-46006657D01*
X93933723Y-46006168D01*
X93885663Y-46005800D01*
X93828415Y-46005535D01*
X93761135Y-46005357D01*
X93682980Y-46005248D01*
X93593105Y-46005191D01*
X93490668Y-46005170D01*
X93394847Y-46005167D01*
X94384800Y-46005167D01*
X94374623Y-46019394D01*
X94365037Y-46034188D01*
X94362904Y-46038975D01*
X94366994Y-46046835D01*
X94378209Y-46063298D01*
X94394749Y-46086036D01*
X94414817Y-46112721D01*
X94436613Y-46141024D01*
X94458337Y-46168618D01*
X94478191Y-46193174D01*
X94494376Y-46212365D01*
X94505092Y-46223862D01*
X94507084Y-46225545D01*
X94516330Y-46227327D01*
X94537095Y-46228858D01*
X94566785Y-46230024D01*
X94602809Y-46230707D01*
X94625486Y-46230837D01*
X94736611Y-46230945D01*
X94736611Y-46251403D01*
X94733915Y-46265175D01*
X94724479Y-46280212D01*
X94706281Y-46299403D01*
X94696821Y-46308228D01*
X94643872Y-46349482D01*
X94588114Y-46378181D01*
X94527185Y-46395220D01*
X94458719Y-46401490D01*
X94449845Y-46401561D01*
X94378162Y-46394972D01*
X94311240Y-46375678D01*
X94250367Y-46344390D01*
X94196828Y-46301816D01*
X94151910Y-46248667D01*
X94140272Y-46230707D01*
X94114700Y-46188611D01*
X93325170Y-46188611D01*
X92535640Y-46188611D01*
X92525169Y-46208860D01*
X92504996Y-46236796D01*
X92474421Y-46265405D01*
X92436803Y-46292248D01*
X92395501Y-46314885D01*
X92359600Y-46329126D01*
X92327962Y-46335255D01*
X92288271Y-46337320D01*
X92245914Y-46335549D01*
X92206281Y-46330168D01*
X92174760Y-46321404D01*
X92174621Y-46321347D01*
X92114841Y-46290110D01*
X92064903Y-46249607D01*
X92025562Y-46201105D01*
X91997578Y-46145870D01*
X91981706Y-46085171D01*
X91978704Y-46020272D01*
X91980794Y-45997124D01*
X91984440Y-45971537D01*
X91988874Y-45955195D01*
X91995638Y-45948293D01*
X92006273Y-45951029D01*
X92022321Y-45963600D01*
X92045325Y-45986203D01*
X92066347Y-46008053D01*
X92090800Y-46034458D01*
X92111232Y-46058042D01*
X92125830Y-46076597D01*
X92132780Y-46087912D01*
X92133111Y-46089396D01*
X92137875Y-46099259D01*
X92150597Y-46115810D01*
X92168921Y-46136105D01*
X92177398Y-46144718D01*
X92221685Y-46188611D01*
X92282643Y-46188611D01*
X92310347Y-46187909D01*
X92332059Y-46186034D01*
X92344398Y-46183334D01*
X92345954Y-46182097D01*
X92351752Y-46173781D01*
X92364360Y-46158923D01*
X92377196Y-46144875D01*
X92399186Y-46120067D01*
X92412647Y-46099497D01*
X92419621Y-46078060D01*
X92422151Y-46050646D01*
X92422389Y-46031868D01*
X92422389Y-45980031D01*
X92380284Y-45938365D01*
X92359379Y-45918893D01*
X92340866Y-45903801D01*
X92327933Y-45895626D01*
X92325604Y-45894899D01*
X92313866Y-45888754D01*
X92298166Y-45875154D01*
X92289854Y-45866230D01*
X92259520Y-45830245D01*
X92234673Y-45799130D01*
X92216289Y-45774219D01*
X92205346Y-45756844D01*
X92202818Y-45748340D01*
X92203217Y-45747917D01*
X92218493Y-45743195D01*
X92243300Y-45740281D01*
X92273156Y-45739335D01*
X92303575Y-45740519D01*
X92327329Y-45743465D01*
X92389549Y-45761866D01*
X92446012Y-45792861D01*
X92495074Y-45835547D01*
X92495455Y-45835958D01*
X92534533Y-45878167D01*
X93327007Y-45878167D01*
X94119481Y-45878167D01*
X94142234Y-45840126D01*
X94180132Y-45789878D01*
X94228814Y-45746185D01*
X94285855Y-45710637D01*
X94348830Y-45684826D01*
X94396890Y-45673092D01*
X94462718Y-45668661D01*
X94462718Y-45668661D01*
X94462718Y-45668661D01*
G37*
X94462718Y-45668661D02*
X94529805Y-45678143D01*
X94597619Y-45701453D01*
X94608689Y-45706550D01*
X94643129Y-45725594D01*
X94675315Y-45748129D01*
X94702918Y-45772023D01*
X94723613Y-45795145D01*
X94735072Y-45815364D01*
X94736611Y-45823711D01*
X94736611Y-45842540D01*
X94622418Y-45844478D01*
X94508225Y-45846417D01*
X94435684Y-45938139D01*
X94411421Y-45969327D01*
X94390576Y-45997093D01*
X94384800Y-46005167D01*
X93394847Y-46005167D01*
X93280675Y-46005181D01*
X93179782Y-46005234D01*
X93091335Y-46005339D01*
X93014503Y-46005510D01*
X92948452Y-46005760D01*
X92892351Y-46006105D01*
X92845367Y-46006557D01*
X92806667Y-46007131D01*
X92775420Y-46007841D01*
X92750793Y-46008700D01*
X92731954Y-46009723D01*
X92718071Y-46010923D01*
X92708311Y-46012314D01*
X92701841Y-46013910D01*
X92697830Y-46015726D01*
X92696347Y-46016844D01*
X92685624Y-46033542D01*
X92684754Y-46051747D01*
X92693660Y-46066182D01*
X92697092Y-46068419D01*
X92706753Y-46069834D01*
X92730185Y-46071097D01*
X92767426Y-46072206D01*
X92818515Y-46073163D01*
X92883490Y-46073967D01*
X92962390Y-46074620D01*
X93055253Y-46075121D01*
X93162117Y-46075471D01*
X93283021Y-46075671D01*
X93394022Y-46075722D01*
X93508527Y-46075704D01*
X93609747Y-46075640D01*
X93698511Y-46075517D01*
X93775644Y-46075322D01*
X93841973Y-46075043D01*
X93898326Y-46074666D01*
X93945530Y-46074178D01*
X93984410Y-46073567D01*
X94015794Y-46072819D01*
X94040510Y-46071921D01*
X94059383Y-46070861D01*
X94073241Y-46069625D01*
X94082911Y-46068201D01*
X94089219Y-46066575D01*
X94092985Y-46064739D01*
X94106388Y-46050343D01*
X94106035Y-46034764D01*
X94094555Y-46019278D01*
X94091980Y-46016940D01*
X94088653Y-46014876D01*
X94083730Y-46013069D01*
X94076368Y-46011501D01*
X94065722Y-46010155D01*
X94050950Y-46009015D01*
X94031208Y-46008063D01*
X94005651Y-46007283D01*
X93973437Y-46006657D01*
X93933723Y-46006168D01*
X93885663Y-46005800D01*
X93828415Y-46005535D01*
X93761135Y-46005357D01*
X93682980Y-46005248D01*
X93593105Y-46005191D01*
X93490668Y-46005170D01*
X93394847Y-46005167D01*
X94384800Y-46005167D01*
X94374623Y-46019394D01*
X94365037Y-46034188D01*
X94362904Y-46038975D01*
X94366994Y-46046835D01*
X94378209Y-46063298D01*
X94394749Y-46086036D01*
X94414817Y-46112721D01*
X94436613Y-46141024D01*
X94458337Y-46168618D01*
X94478191Y-46193174D01*
X94494376Y-46212365D01*
X94505092Y-46223862D01*
X94507084Y-46225545D01*
X94516330Y-46227327D01*
X94537095Y-46228858D01*
X94566785Y-46230024D01*
X94602809Y-46230707D01*
X94625486Y-46230837D01*
X94736611Y-46230945D01*
X94736611Y-46251403D01*
X94733915Y-46265175D01*
X94724479Y-46280212D01*
X94706281Y-46299403D01*
X94696821Y-46308228D01*
X94643872Y-46349482D01*
X94588114Y-46378181D01*
X94527185Y-46395220D01*
X94458719Y-46401490D01*
X94449845Y-46401561D01*
X94378162Y-46394972D01*
X94311240Y-46375678D01*
X94250367Y-46344390D01*
X94196828Y-46301816D01*
X94151910Y-46248667D01*
X94140272Y-46230707D01*
X94114700Y-46188611D01*
X93325170Y-46188611D01*
X92535640Y-46188611D01*
X92525169Y-46208860D01*
X92504996Y-46236796D01*
X92474421Y-46265405D01*
X92436803Y-46292248D01*
X92395501Y-46314885D01*
X92359600Y-46329126D01*
X92327962Y-46335255D01*
X92288271Y-46337320D01*
X92245914Y-46335549D01*
X92206281Y-46330168D01*
X92174760Y-46321404D01*
X92174621Y-46321347D01*
X92114841Y-46290110D01*
X92064903Y-46249607D01*
X92025562Y-46201105D01*
X91997578Y-46145870D01*
X91981706Y-46085171D01*
X91978704Y-46020272D01*
X91980794Y-45997124D01*
X91984440Y-45971537D01*
X91988874Y-45955195D01*
X91995638Y-45948293D01*
X92006273Y-45951029D01*
X92022321Y-45963600D01*
X92045325Y-45986203D01*
X92066347Y-46008053D01*
X92090800Y-46034458D01*
X92111232Y-46058042D01*
X92125830Y-46076597D01*
X92132780Y-46087912D01*
X92133111Y-46089396D01*
X92137875Y-46099259D01*
X92150597Y-46115810D01*
X92168921Y-46136105D01*
X92177398Y-46144718D01*
X92221685Y-46188611D01*
X92282643Y-46188611D01*
X92310347Y-46187909D01*
X92332059Y-46186034D01*
X92344398Y-46183334D01*
X92345954Y-46182097D01*
X92351752Y-46173781D01*
X92364360Y-46158923D01*
X92377196Y-46144875D01*
X92399186Y-46120067D01*
X92412647Y-46099497D01*
X92419621Y-46078060D01*
X92422151Y-46050646D01*
X92422389Y-46031868D01*
X92422389Y-45980031D01*
X92380284Y-45938365D01*
X92359379Y-45918893D01*
X92340866Y-45903801D01*
X92327933Y-45895626D01*
X92325604Y-45894899D01*
X92313866Y-45888754D01*
X92298166Y-45875154D01*
X92289854Y-45866230D01*
X92259520Y-45830245D01*
X92234673Y-45799130D01*
X92216289Y-45774219D01*
X92205346Y-45756844D01*
X92202818Y-45748340D01*
X92203217Y-45747917D01*
X92218493Y-45743195D01*
X92243300Y-45740281D01*
X92273156Y-45739335D01*
X92303575Y-45740519D01*
X92327329Y-45743465D01*
X92389549Y-45761866D01*
X92446012Y-45792861D01*
X92495074Y-45835547D01*
X92495455Y-45835958D01*
X92534533Y-45878167D01*
X93327007Y-45878167D01*
X94119481Y-45878167D01*
X94142234Y-45840126D01*
X94180132Y-45789878D01*
X94228814Y-45746185D01*
X94285855Y-45710637D01*
X94348830Y-45684826D01*
X94396890Y-45673092D01*
X94462718Y-45668661D01*
X94462718Y-45668661D01*
G36*
X93403127Y-46569611D02*
X93428002Y-46570488D01*
X93442598Y-46573816D01*
X93450677Y-46580639D01*
X93452252Y-46583259D01*
X93457248Y-46595017D01*
X93457854Y-46606336D01*
X93452939Y-46619485D01*
X93441375Y-46636736D01*
X93422031Y-46660360D01*
X93403111Y-46682070D01*
X93381296Y-46707236D01*
X93363401Y-46728678D01*
X93351250Y-46744154D01*
X93346668Y-46751421D01*
X93346667Y-46751467D01*
X93351968Y-46765649D01*
X93365566Y-46783873D01*
X93383998Y-46802380D01*
X93403802Y-46817408D01*
X93411163Y-46821521D01*
X93438016Y-46833964D01*
X93458603Y-46840416D01*
X93475976Y-46840014D01*
X93493186Y-46831895D01*
X93513284Y-46815197D01*
X93539321Y-46789055D01*
X93544321Y-46783856D01*
X93570847Y-46756744D01*
X93589714Y-46739714D01*
X93602783Y-46732435D01*
X93611913Y-46734571D01*
X93618967Y-46745789D01*
X93625803Y-46765755D01*
X93626800Y-46769065D01*
X93634149Y-46807516D01*
X93635160Y-46848459D01*
X93630042Y-46886450D01*
X93621352Y-46911713D01*
X93600569Y-46943865D01*
X93571679Y-46976259D01*
X93539567Y-47003631D01*
X93530111Y-47010028D01*
X93500494Y-47024841D01*
X93462378Y-47038404D01*
X93421365Y-47048914D01*
X93396055Y-47053221D01*
X93373111Y-47056413D01*
X93354016Y-47059437D01*
X93349703Y-47060232D01*
X93342857Y-47063893D01*
X93331370Y-47073434D01*
X93314624Y-47089505D01*
X93292006Y-47112756D01*
X93262901Y-47143839D01*
X93226694Y-47183404D01*
X93182769Y-47232101D01*
X93130512Y-47290582D01*
X93106570Y-47317500D01*
X93083359Y-47343614D01*
X93063182Y-47366296D01*
X93048092Y-47383239D01*
X93040141Y-47392137D01*
X93039855Y-47392454D01*
X93022627Y-47411718D01*
X92997092Y-47440549D01*
X92964199Y-47477863D01*
X92924901Y-47522577D01*
X92880147Y-47573608D01*
X92830889Y-47629873D01*
X92778076Y-47690290D01*
X92722661Y-47753774D01*
X92721640Y-47754945D01*
X92540088Y-47963083D01*
X92392358Y-47966611D01*
X92348191Y-47967430D01*
X92308993Y-47967705D01*
X92276886Y-47967461D01*
X92253991Y-47966718D01*
X92242432Y-47965499D01*
X92241486Y-47965035D01*
X92244849Y-47958283D01*
X92256251Y-47943297D01*
X92274039Y-47922097D01*
X92296560Y-47896706D01*
X92303908Y-47888666D01*
X92332888Y-47857005D01*
X92363005Y-47823830D01*
X92390654Y-47793127D01*
X92411805Y-47769365D01*
X92428163Y-47750838D01*
X92452090Y-47723786D01*
X92481792Y-47690236D01*
X92515472Y-47652216D01*
X92551333Y-47611754D01*
X92581600Y-47577622D01*
X92667636Y-47480124D01*
X92748374Y-47387628D01*
X92823282Y-47300771D01*
X92891827Y-47220193D01*
X92953475Y-47146531D01*
X93007693Y-47080425D01*
X93053948Y-47022512D01*
X93091707Y-46973431D01*
X93120437Y-46933821D01*
X93125847Y-46925917D01*
X93139497Y-46904879D01*
X93148162Y-46887885D01*
X93153229Y-46870285D01*
X93156088Y-46847426D01*
X93157923Y-46818453D01*
X93163897Y-46765916D01*
X93176720Y-46722618D01*
X93198199Y-46684618D01*
X93230145Y-46647975D01*
X93240858Y-46637748D01*
X93287844Y-46601792D01*
X93336956Y-46579385D01*
X93389474Y-46569990D01*
X93403127Y-46569611D01*
X93403127Y-46569611D01*
X93403127Y-46569611D01*
G37*
X93403127Y-46569611D02*
X93428002Y-46570488D01*
X93442598Y-46573816D01*
X93450677Y-46580639D01*
X93452252Y-46583259D01*
X93457248Y-46595017D01*
X93457854Y-46606336D01*
X93452939Y-46619485D01*
X93441375Y-46636736D01*
X93422031Y-46660360D01*
X93403111Y-46682070D01*
X93381296Y-46707236D01*
X93363401Y-46728678D01*
X93351250Y-46744154D01*
X93346668Y-46751421D01*
X93346667Y-46751467D01*
X93351968Y-46765649D01*
X93365566Y-46783873D01*
X93383998Y-46802380D01*
X93403802Y-46817408D01*
X93411163Y-46821521D01*
X93438016Y-46833964D01*
X93458603Y-46840416D01*
X93475976Y-46840014D01*
X93493186Y-46831895D01*
X93513284Y-46815197D01*
X93539321Y-46789055D01*
X93544321Y-46783856D01*
X93570847Y-46756744D01*
X93589714Y-46739714D01*
X93602783Y-46732435D01*
X93611913Y-46734571D01*
X93618967Y-46745789D01*
X93625803Y-46765755D01*
X93626800Y-46769065D01*
X93634149Y-46807516D01*
X93635160Y-46848459D01*
X93630042Y-46886450D01*
X93621352Y-46911713D01*
X93600569Y-46943865D01*
X93571679Y-46976259D01*
X93539567Y-47003631D01*
X93530111Y-47010028D01*
X93500494Y-47024841D01*
X93462378Y-47038404D01*
X93421365Y-47048914D01*
X93396055Y-47053221D01*
X93373111Y-47056413D01*
X93354016Y-47059437D01*
X93349703Y-47060232D01*
X93342857Y-47063893D01*
X93331370Y-47073434D01*
X93314624Y-47089505D01*
X93292006Y-47112756D01*
X93262901Y-47143839D01*
X93226694Y-47183404D01*
X93182769Y-47232101D01*
X93130512Y-47290582D01*
X93106570Y-47317500D01*
X93083359Y-47343614D01*
X93063182Y-47366296D01*
X93048092Y-47383239D01*
X93040141Y-47392137D01*
X93039855Y-47392454D01*
X93022627Y-47411718D01*
X92997092Y-47440549D01*
X92964199Y-47477863D01*
X92924901Y-47522577D01*
X92880147Y-47573608D01*
X92830889Y-47629873D01*
X92778076Y-47690290D01*
X92722661Y-47753774D01*
X92721640Y-47754945D01*
X92540088Y-47963083D01*
X92392358Y-47966611D01*
X92348191Y-47967430D01*
X92308993Y-47967705D01*
X92276886Y-47967461D01*
X92253991Y-47966718D01*
X92242432Y-47965499D01*
X92241486Y-47965035D01*
X92244849Y-47958283D01*
X92256251Y-47943297D01*
X92274039Y-47922097D01*
X92296560Y-47896706D01*
X92303908Y-47888666D01*
X92332888Y-47857005D01*
X92363005Y-47823830D01*
X92390654Y-47793127D01*
X92411805Y-47769365D01*
X92428163Y-47750838D01*
X92452090Y-47723786D01*
X92481792Y-47690236D01*
X92515472Y-47652216D01*
X92551333Y-47611754D01*
X92581600Y-47577622D01*
X92667636Y-47480124D01*
X92748374Y-47387628D01*
X92823282Y-47300771D01*
X92891827Y-47220193D01*
X92953475Y-47146531D01*
X93007693Y-47080425D01*
X93053948Y-47022512D01*
X93091707Y-46973431D01*
X93120437Y-46933821D01*
X93125847Y-46925917D01*
X93139497Y-46904879D01*
X93148162Y-46887885D01*
X93153229Y-46870285D01*
X93156088Y-46847426D01*
X93157923Y-46818453D01*
X93163897Y-46765916D01*
X93176720Y-46722618D01*
X93198199Y-46684618D01*
X93230145Y-46647975D01*
X93240858Y-46637748D01*
X93287844Y-46601792D01*
X93336956Y-46579385D01*
X93389474Y-46569990D01*
X93403127Y-46569611D01*
X93403127Y-46569611D01*
G36*
X93379814Y-47116616D02*
X93427441Y-47167383D01*
X93452804Y-47192686D01*
X93479697Y-47216726D01*
X93503639Y-47235584D01*
X93511409Y-47240812D01*
X93541446Y-47261133D01*
X93559034Y-47278349D01*
X93564665Y-47294986D01*
X93558828Y-47313569D01*
X93542016Y-47336622D01*
X93532213Y-47347789D01*
X93486842Y-47397228D01*
X93449214Y-47436284D01*
X93418389Y-47465700D01*
X93393428Y-47486217D01*
X93373394Y-47498580D01*
X93357347Y-47503529D01*
X93344349Y-47501807D01*
X93340189Y-47499668D01*
X93332145Y-47489328D01*
X93322006Y-47468574D01*
X93311277Y-47440639D01*
X93307650Y-47429729D01*
X93283342Y-47369343D01*
X93257281Y-47326883D01*
X93242366Y-47306451D01*
X93231523Y-47290658D01*
X93226888Y-47282627D01*
X93226848Y-47282361D01*
X93231484Y-47276241D01*
X93244204Y-47261725D01*
X93263360Y-47240636D01*
X93287306Y-47214795D01*
X93303394Y-47197655D01*
X93379814Y-47116616D01*
X93379814Y-47116616D01*
X93379814Y-47116616D01*
G37*
X93379814Y-47116616D02*
X93427441Y-47167383D01*
X93452804Y-47192686D01*
X93479697Y-47216726D01*
X93503639Y-47235584D01*
X93511409Y-47240812D01*
X93541446Y-47261133D01*
X93559034Y-47278349D01*
X93564665Y-47294986D01*
X93558828Y-47313569D01*
X93542016Y-47336622D01*
X93532213Y-47347789D01*
X93486842Y-47397228D01*
X93449214Y-47436284D01*
X93418389Y-47465700D01*
X93393428Y-47486217D01*
X93373394Y-47498580D01*
X93357347Y-47503529D01*
X93344349Y-47501807D01*
X93340189Y-47499668D01*
X93332145Y-47489328D01*
X93322006Y-47468574D01*
X93311277Y-47440639D01*
X93307650Y-47429729D01*
X93283342Y-47369343D01*
X93257281Y-47326883D01*
X93242366Y-47306451D01*
X93231523Y-47290658D01*
X93226888Y-47282627D01*
X93226848Y-47282361D01*
X93231484Y-47276241D01*
X93244204Y-47261725D01*
X93263360Y-47240636D01*
X93287306Y-47214795D01*
X93303394Y-47197655D01*
X93379814Y-47116616D01*
X93379814Y-47116616D01*
G36*
X92550523Y-46235895D02*
X92660284Y-46350236D01*
X92694784Y-46385765D01*
X92728644Y-46419890D01*
X92759767Y-46450552D01*
X92786054Y-46475693D01*
X92805410Y-46493255D01*
X92809647Y-46496816D01*
X92824907Y-46510437D01*
X92846585Y-46531425D01*
X92873204Y-46558199D01*
X92903289Y-46589180D01*
X92935364Y-46622787D01*
X92967955Y-46657438D01*
X92999584Y-46691555D01*
X93028778Y-46723555D01*
X93054060Y-46751859D01*
X93073955Y-46774887D01*
X93086986Y-46791057D01*
X93091680Y-46798789D01*
X93091673Y-46798901D01*
X93090289Y-46809587D01*
X93087873Y-46828911D01*
X93086352Y-46841254D01*
X93079369Y-46870504D01*
X93067432Y-46896976D01*
X93064668Y-46901226D01*
X93045836Y-46927209D01*
X93025776Y-46953569D01*
X93006467Y-46977863D01*
X92989890Y-46997649D01*
X92978023Y-47010485D01*
X92973189Y-47014111D01*
X92965521Y-47008892D01*
X92950273Y-46994247D01*
X92928768Y-46971697D01*
X92902332Y-46942761D01*
X92872289Y-46908962D01*
X92839964Y-46871817D01*
X92806682Y-46832849D01*
X92773768Y-46793577D01*
X92742546Y-46755521D01*
X92714342Y-46720202D01*
X92693440Y-46693083D01*
X92641486Y-46624279D01*
X92597186Y-46565882D01*
X92559810Y-46516948D01*
X92528628Y-46476533D01*
X92502912Y-46443693D01*
X92481931Y-46417484D01*
X92464957Y-46396961D01*
X92461779Y-46393222D01*
X92443985Y-46371850D01*
X92430385Y-46354466D01*
X92423131Y-46343865D01*
X92422486Y-46342213D01*
X92428144Y-46336256D01*
X92442605Y-46327013D01*
X92451799Y-46322061D01*
X92472439Y-46308846D01*
X92496610Y-46289532D01*
X92515866Y-46271476D01*
X92550523Y-46235895D01*
X92550523Y-46235895D01*
X92550523Y-46235895D01*
G37*
X92550523Y-46235895D02*
X92660284Y-46350236D01*
X92694784Y-46385765D01*
X92728644Y-46419890D01*
X92759767Y-46450552D01*
X92786054Y-46475693D01*
X92805410Y-46493255D01*
X92809647Y-46496816D01*
X92824907Y-46510437D01*
X92846585Y-46531425D01*
X92873204Y-46558199D01*
X92903289Y-46589180D01*
X92935364Y-46622787D01*
X92967955Y-46657438D01*
X92999584Y-46691555D01*
X93028778Y-46723555D01*
X93054060Y-46751859D01*
X93073955Y-46774887D01*
X93086986Y-46791057D01*
X93091680Y-46798789D01*
X93091673Y-46798901D01*
X93090289Y-46809587D01*
X93087873Y-46828911D01*
X93086352Y-46841254D01*
X93079369Y-46870504D01*
X93067432Y-46896976D01*
X93064668Y-46901226D01*
X93045836Y-46927209D01*
X93025776Y-46953569D01*
X93006467Y-46977863D01*
X92989890Y-46997649D01*
X92978023Y-47010485D01*
X92973189Y-47014111D01*
X92965521Y-47008892D01*
X92950273Y-46994247D01*
X92928768Y-46971697D01*
X92902332Y-46942761D01*
X92872289Y-46908962D01*
X92839964Y-46871817D01*
X92806682Y-46832849D01*
X92773768Y-46793577D01*
X92742546Y-46755521D01*
X92714342Y-46720202D01*
X92693440Y-46693083D01*
X92641486Y-46624279D01*
X92597186Y-46565882D01*
X92559810Y-46516948D01*
X92528628Y-46476533D01*
X92502912Y-46443693D01*
X92481931Y-46417484D01*
X92464957Y-46396961D01*
X92461779Y-46393222D01*
X92443985Y-46371850D01*
X92430385Y-46354466D01*
X92423131Y-46343865D01*
X92422486Y-46342213D01*
X92428144Y-46336256D01*
X92442605Y-46327013D01*
X92451799Y-46322061D01*
X92472439Y-46308846D01*
X92496610Y-46289532D01*
X92515866Y-46271476D01*
X92550523Y-46235895D01*
X92550523Y-46235895D01*
G36*
X92393888Y-45257278D02*
X92405913Y-45263289D01*
X92413601Y-45277922D01*
X92415914Y-45296079D01*
X92411813Y-45312663D01*
X92406514Y-45319211D01*
X92395744Y-45325426D01*
X92376130Y-45334678D01*
X92352858Y-45344576D01*
X92270902Y-45383855D01*
X92200756Y-45430605D01*
X92167976Y-45458749D01*
X92145141Y-45479029D01*
X92124143Y-45495637D01*
X92108383Y-45505954D01*
X92104311Y-45507733D01*
X92081322Y-45518998D01*
X92066405Y-45534792D01*
X92062555Y-45547884D01*
X92065637Y-45561468D01*
X92073531Y-45581849D01*
X92079979Y-45595520D01*
X92091131Y-45621015D01*
X92102610Y-45652739D01*
X92110604Y-45679125D01*
X92117424Y-45701590D01*
X92125815Y-45721415D01*
X92137667Y-45741804D01*
X92154871Y-45765957D01*
X92179319Y-45797075D01*
X92182881Y-45801493D01*
X92207939Y-45832285D01*
X92232730Y-45862346D01*
X92254427Y-45888269D01*
X92270199Y-45906646D01*
X92270437Y-45906916D01*
X92307538Y-45949283D01*
X92335659Y-45982155D01*
X92355459Y-46006345D01*
X92367596Y-46022665D01*
X92372728Y-46031926D01*
X92373000Y-46033432D01*
X92368592Y-46042079D01*
X92356839Y-46058170D01*
X92339951Y-46078763D01*
X92332941Y-46086821D01*
X92312814Y-46109010D01*
X92298401Y-46122486D01*
X92286411Y-46129398D01*
X92273550Y-46131894D01*
X92263450Y-46132167D01*
X92251770Y-46131744D01*
X92241734Y-46129425D01*
X92231349Y-46123636D01*
X92218624Y-46112803D01*
X92201568Y-46095352D01*
X92178188Y-46069708D01*
X92163031Y-46052792D01*
X92132151Y-46018896D01*
X92099114Y-45983725D01*
X92065452Y-45948798D01*
X92032698Y-45915633D01*
X92002386Y-45885748D01*
X91976047Y-45860663D01*
X91955215Y-45841895D01*
X91941422Y-45830963D01*
X91936918Y-45828778D01*
X91927891Y-45824072D01*
X91913434Y-45812066D01*
X91904297Y-45803158D01*
X91889366Y-45788856D01*
X91876559Y-45781311D01*
X91860407Y-45778533D01*
X91836564Y-45778506D01*
X91795909Y-45783680D01*
X91760770Y-45796365D01*
X91734517Y-45815180D01*
X91727969Y-45823074D01*
X91719126Y-45839256D01*
X91709549Y-45861905D01*
X91705926Y-45872088D01*
X91698386Y-45890707D01*
X91688025Y-45905623D01*
X91671633Y-45920449D01*
X91647630Y-45937686D01*
X91623585Y-45952895D01*
X91602287Y-45964234D01*
X91587608Y-45969693D01*
X91585585Y-45969905D01*
X91562114Y-45963506D01*
X91537932Y-45946300D01*
X91515619Y-45921204D01*
X91497751Y-45891134D01*
X91486908Y-45859006D01*
X91486731Y-45858107D01*
X91485312Y-45846068D01*
X91487529Y-45835501D01*
X91495125Y-45823425D01*
X91509844Y-45806859D01*
X91526985Y-45789315D01*
X91548118Y-45769179D01*
X91566646Y-45753659D01*
X91579685Y-45745085D01*
X91582952Y-45744111D01*
X91595052Y-45741102D01*
X91614713Y-45733325D01*
X91631569Y-45725449D01*
X91661312Y-45705667D01*
X91679659Y-45682393D01*
X91685491Y-45657308D01*
X91683937Y-45646625D01*
X91685318Y-45625914D01*
X91697750Y-45600244D01*
X91719780Y-45571192D01*
X91749956Y-45540339D01*
X91786824Y-45509264D01*
X91828933Y-45479546D01*
X91849101Y-45467097D01*
X91873153Y-45453362D01*
X91902665Y-45437208D01*
X91935080Y-45419951D01*
X91967844Y-45402903D01*
X91998401Y-45387381D01*
X92024196Y-45374699D01*
X92042673Y-45366171D01*
X92051228Y-45363111D01*
X92059256Y-45360438D01*
X92076036Y-45353523D01*
X92092332Y-45346363D01*
X92121713Y-45334337D01*
X92158788Y-45320932D01*
X92200760Y-45306974D01*
X92244829Y-45293290D01*
X92288195Y-45280707D01*
X92328061Y-45270053D01*
X92361626Y-45262153D01*
X92386092Y-45257836D01*
X92393888Y-45257278D01*
X92393888Y-45257278D01*
X92393888Y-45257278D01*
G37*
X92393888Y-45257278D02*
X92405913Y-45263289D01*
X92413601Y-45277922D01*
X92415914Y-45296079D01*
X92411813Y-45312663D01*
X92406514Y-45319211D01*
X92395744Y-45325426D01*
X92376130Y-45334678D01*
X92352858Y-45344576D01*
X92270902Y-45383855D01*
X92200756Y-45430605D01*
X92167976Y-45458749D01*
X92145141Y-45479029D01*
X92124143Y-45495637D01*
X92108383Y-45505954D01*
X92104311Y-45507733D01*
X92081322Y-45518998D01*
X92066405Y-45534792D01*
X92062555Y-45547884D01*
X92065637Y-45561468D01*
X92073531Y-45581849D01*
X92079979Y-45595520D01*
X92091131Y-45621015D01*
X92102610Y-45652739D01*
X92110604Y-45679125D01*
X92117424Y-45701590D01*
X92125815Y-45721415D01*
X92137667Y-45741804D01*
X92154871Y-45765957D01*
X92179319Y-45797075D01*
X92182881Y-45801493D01*
X92207939Y-45832285D01*
X92232730Y-45862346D01*
X92254427Y-45888269D01*
X92270199Y-45906646D01*
X92270437Y-45906916D01*
X92307538Y-45949283D01*
X92335659Y-45982155D01*
X92355459Y-46006345D01*
X92367596Y-46022665D01*
X92372728Y-46031926D01*
X92373000Y-46033432D01*
X92368592Y-46042079D01*
X92356839Y-46058170D01*
X92339951Y-46078763D01*
X92332941Y-46086821D01*
X92312814Y-46109010D01*
X92298401Y-46122486D01*
X92286411Y-46129398D01*
X92273550Y-46131894D01*
X92263450Y-46132167D01*
X92251770Y-46131744D01*
X92241734Y-46129425D01*
X92231349Y-46123636D01*
X92218624Y-46112803D01*
X92201568Y-46095352D01*
X92178188Y-46069708D01*
X92163031Y-46052792D01*
X92132151Y-46018896D01*
X92099114Y-45983725D01*
X92065452Y-45948798D01*
X92032698Y-45915633D01*
X92002386Y-45885748D01*
X91976047Y-45860663D01*
X91955215Y-45841895D01*
X91941422Y-45830963D01*
X91936918Y-45828778D01*
X91927891Y-45824072D01*
X91913434Y-45812066D01*
X91904297Y-45803158D01*
X91889366Y-45788856D01*
X91876559Y-45781311D01*
X91860407Y-45778533D01*
X91836564Y-45778506D01*
X91795909Y-45783680D01*
X91760770Y-45796365D01*
X91734517Y-45815180D01*
X91727969Y-45823074D01*
X91719126Y-45839256D01*
X91709549Y-45861905D01*
X91705926Y-45872088D01*
X91698386Y-45890707D01*
X91688025Y-45905623D01*
X91671633Y-45920449D01*
X91647630Y-45937686D01*
X91623585Y-45952895D01*
X91602287Y-45964234D01*
X91587608Y-45969693D01*
X91585585Y-45969905D01*
X91562114Y-45963506D01*
X91537932Y-45946300D01*
X91515619Y-45921204D01*
X91497751Y-45891134D01*
X91486908Y-45859006D01*
X91486731Y-45858107D01*
X91485312Y-45846068D01*
X91487529Y-45835501D01*
X91495125Y-45823425D01*
X91509844Y-45806859D01*
X91526985Y-45789315D01*
X91548118Y-45769179D01*
X91566646Y-45753659D01*
X91579685Y-45745085D01*
X91582952Y-45744111D01*
X91595052Y-45741102D01*
X91614713Y-45733325D01*
X91631569Y-45725449D01*
X91661312Y-45705667D01*
X91679659Y-45682393D01*
X91685491Y-45657308D01*
X91683937Y-45646625D01*
X91685318Y-45625914D01*
X91697750Y-45600244D01*
X91719780Y-45571192D01*
X91749956Y-45540339D01*
X91786824Y-45509264D01*
X91828933Y-45479546D01*
X91849101Y-45467097D01*
X91873153Y-45453362D01*
X91902665Y-45437208D01*
X91935080Y-45419951D01*
X91967844Y-45402903D01*
X91998401Y-45387381D01*
X92024196Y-45374699D01*
X92042673Y-45366171D01*
X92051228Y-45363111D01*
X92059256Y-45360438D01*
X92076036Y-45353523D01*
X92092332Y-45346363D01*
X92121713Y-45334337D01*
X92158788Y-45320932D01*
X92200760Y-45306974D01*
X92244829Y-45293290D01*
X92288195Y-45280707D01*
X92328061Y-45270053D01*
X92361626Y-45262153D01*
X92386092Y-45257836D01*
X92393888Y-45257278D01*
X92393888Y-45257278D01*
G36*
X92191957Y-48178278D02*
X92243237Y-48178412D01*
X92282012Y-48178885D01*
X92309887Y-48179801D01*
X92328465Y-48181266D01*
X92339352Y-48183384D01*
X92344151Y-48186260D01*
X92344778Y-48188273D01*
X92341592Y-48198822D01*
X92339445Y-48200621D01*
X92333189Y-48206621D01*
X92319613Y-48221511D01*
X92300402Y-48243316D01*
X92277240Y-48270061D01*
X92251813Y-48299772D01*
X92225805Y-48330472D01*
X92200901Y-48360188D01*
X92178785Y-48386945D01*
X92161143Y-48408767D01*
X92153208Y-48418929D01*
X92139803Y-48437322D01*
X92132892Y-48451355D01*
X92131047Y-48466677D01*
X92132842Y-48488936D01*
X92133686Y-48496199D01*
X92135445Y-48546274D01*
X92129597Y-48594776D01*
X92116822Y-48636428D01*
X92115072Y-48640264D01*
X92097229Y-48667309D01*
X92070330Y-48695783D01*
X92038524Y-48722135D01*
X92005958Y-48742813D01*
X91984341Y-48752203D01*
X91940805Y-48764443D01*
X91908215Y-48769017D01*
X91885510Y-48765675D01*
X91871629Y-48754163D01*
X91865511Y-48734231D01*
X91865000Y-48723871D01*
X91866669Y-48709757D01*
X91872854Y-48695160D01*
X91885322Y-48677074D01*
X91905840Y-48652496D01*
X91909314Y-48648528D01*
X91934700Y-48619681D01*
X91952027Y-48599349D01*
X91962307Y-48585240D01*
X91966551Y-48575059D01*
X91965773Y-48566513D01*
X91960983Y-48557310D01*
X91954216Y-48546785D01*
X91928389Y-48518434D01*
X91894633Y-48501042D01*
X91859266Y-48495778D01*
X91846847Y-48496417D01*
X91836040Y-48499482D01*
X91824504Y-48506694D01*
X91809897Y-48519776D01*
X91789877Y-48540450D01*
X91771305Y-48560451D01*
X91711640Y-48625124D01*
X91698362Y-48604877D01*
X91690631Y-48588060D01*
X91685682Y-48563944D01*
X91682903Y-48529369D01*
X91682665Y-48523852D01*
X91681929Y-48492364D01*
X91683340Y-48469527D01*
X91687837Y-48449934D01*
X91696356Y-48428178D01*
X91701086Y-48417690D01*
X91725350Y-48371390D01*
X91752042Y-48335163D01*
X91783449Y-48307435D01*
X91821857Y-48286629D01*
X91869553Y-48271172D01*
X91928824Y-48259487D01*
X91931333Y-48259097D01*
X91950996Y-48253176D01*
X91971888Y-48240213D01*
X91997424Y-48218060D01*
X91998999Y-48216563D01*
X92039137Y-48178278D01*
X92191957Y-48178278D01*
X92191957Y-48178278D01*
X92191957Y-48178278D01*
G37*
X92191957Y-48178278D02*
X92243237Y-48178412D01*
X92282012Y-48178885D01*
X92309887Y-48179801D01*
X92328465Y-48181266D01*
X92339352Y-48183384D01*
X92344151Y-48186260D01*
X92344778Y-48188273D01*
X92341592Y-48198822D01*
X92339445Y-48200621D01*
X92333189Y-48206621D01*
X92319613Y-48221511D01*
X92300402Y-48243316D01*
X92277240Y-48270061D01*
X92251813Y-48299772D01*
X92225805Y-48330472D01*
X92200901Y-48360188D01*
X92178785Y-48386945D01*
X92161143Y-48408767D01*
X92153208Y-48418929D01*
X92139803Y-48437322D01*
X92132892Y-48451355D01*
X92131047Y-48466677D01*
X92132842Y-48488936D01*
X92133686Y-48496199D01*
X92135445Y-48546274D01*
X92129597Y-48594776D01*
X92116822Y-48636428D01*
X92115072Y-48640264D01*
X92097229Y-48667309D01*
X92070330Y-48695783D01*
X92038524Y-48722135D01*
X92005958Y-48742813D01*
X91984341Y-48752203D01*
X91940805Y-48764443D01*
X91908215Y-48769017D01*
X91885510Y-48765675D01*
X91871629Y-48754163D01*
X91865511Y-48734231D01*
X91865000Y-48723871D01*
X91866669Y-48709757D01*
X91872854Y-48695160D01*
X91885322Y-48677074D01*
X91905840Y-48652496D01*
X91909314Y-48648528D01*
X91934700Y-48619681D01*
X91952027Y-48599349D01*
X91962307Y-48585240D01*
X91966551Y-48575059D01*
X91965773Y-48566513D01*
X91960983Y-48557310D01*
X91954216Y-48546785D01*
X91928389Y-48518434D01*
X91894633Y-48501042D01*
X91859266Y-48495778D01*
X91846847Y-48496417D01*
X91836040Y-48499482D01*
X91824504Y-48506694D01*
X91809897Y-48519776D01*
X91789877Y-48540450D01*
X91771305Y-48560451D01*
X91711640Y-48625124D01*
X91698362Y-48604877D01*
X91690631Y-48588060D01*
X91685682Y-48563944D01*
X91682903Y-48529369D01*
X91682665Y-48523852D01*
X91681929Y-48492364D01*
X91683340Y-48469527D01*
X91687837Y-48449934D01*
X91696356Y-48428178D01*
X91701086Y-48417690D01*
X91725350Y-48371390D01*
X91752042Y-48335163D01*
X91783449Y-48307435D01*
X91821857Y-48286629D01*
X91869553Y-48271172D01*
X91928824Y-48259487D01*
X91931333Y-48259097D01*
X91950996Y-48253176D01*
X91971888Y-48240213D01*
X91997424Y-48218060D01*
X91998999Y-48216563D01*
X92039137Y-48178278D01*
X92191957Y-48178278D01*
X92191957Y-48178278D01*
D11*
X39329600Y-39970000D02*
G75*
G03X39329600Y-39970000I-3149600J0D01*
G01*
D17*
G36*
X50999740Y-44774380D02*
X50979420Y-44738820D01*
X50931160Y-44660080D01*
X50857500Y-44548320D01*
X50771140Y-44416240D01*
X50679700Y-44284160D01*
X50608580Y-44174940D01*
X50557780Y-44098740D01*
X50540000Y-44068260D01*
X50547620Y-44050480D01*
X50578100Y-43986980D01*
X50623820Y-43898080D01*
X50651760Y-43844740D01*
X50687320Y-43760920D01*
X50694940Y-43717740D01*
X50684780Y-43712660D01*
X50621280Y-43682180D01*
X50512060Y-43633920D01*
X50367280Y-43570420D01*
X50197100Y-43496760D01*
X50014220Y-43420560D01*
X49828800Y-43341820D01*
X49651000Y-43268160D01*
X49490980Y-43204660D01*
X49358900Y-43151320D01*
X49270000Y-43115760D01*
X49231900Y-43103060D01*
X49221740Y-43108140D01*
X49181100Y-43148780D01*
X49127760Y-43222440D01*
X48998220Y-43379920D01*
X48805180Y-43537400D01*
X48584200Y-43631380D01*
X48337820Y-43664400D01*
X48109220Y-43636460D01*
X47890780Y-43547560D01*
X47695200Y-43395160D01*
X47547880Y-43209740D01*
X47456440Y-42993840D01*
X47425960Y-42750000D01*
X47451360Y-42518860D01*
X47540260Y-42295340D01*
X47690120Y-42097220D01*
X47786640Y-42013400D01*
X47984760Y-41899100D01*
X48198120Y-41835600D01*
X48254000Y-41827980D01*
X48487680Y-41838140D01*
X48711200Y-41906720D01*
X48911860Y-42031180D01*
X49076960Y-42201360D01*
X49092200Y-42224220D01*
X49153160Y-42302960D01*
X49193800Y-42356300D01*
X49226820Y-42399480D01*
X49945640Y-42099760D01*
X50059940Y-42051500D01*
X50258060Y-41970220D01*
X50425700Y-41899100D01*
X50560320Y-41840680D01*
X50651760Y-41800040D01*
X50687320Y-41782260D01*
X50689860Y-41782260D01*
X50694940Y-41754320D01*
X50674620Y-41700980D01*
X50626360Y-41599380D01*
X50590800Y-41533340D01*
X50555240Y-41457140D01*
X50540000Y-41421580D01*
X50557780Y-41393640D01*
X50603500Y-41319980D01*
X50674620Y-41213300D01*
X50763520Y-41083760D01*
X50847340Y-40961840D01*
X50921000Y-40850080D01*
X50974340Y-40768800D01*
X50994660Y-40728160D01*
X50994660Y-40723080D01*
X50974340Y-40687520D01*
X50921000Y-40621480D01*
X50829560Y-40524960D01*
X50692400Y-40385260D01*
X50669540Y-40364940D01*
X50555240Y-40250640D01*
X50458720Y-40159200D01*
X50387600Y-40095700D01*
X50357120Y-40072840D01*
X50357120Y-40072840D01*
X50319020Y-40093160D01*
X50235200Y-40146500D01*
X50120900Y-40220160D01*
X49988820Y-40311600D01*
X49643380Y-40550360D01*
X49315720Y-40418280D01*
X49216660Y-40377640D01*
X49094740Y-40326840D01*
X49008380Y-40288740D01*
X48970280Y-40270960D01*
X48957580Y-40235400D01*
X48937260Y-40146500D01*
X48909320Y-40016960D01*
X48881380Y-39862020D01*
X48853440Y-39714700D01*
X48828040Y-39582620D01*
X48810260Y-39486100D01*
X48802640Y-39442920D01*
X48795020Y-39432760D01*
X48774700Y-39422600D01*
X48728980Y-39417520D01*
X48647700Y-39414980D01*
X48520700Y-39412440D01*
X48337820Y-39412440D01*
X48317500Y-39412440D01*
X48142240Y-39414980D01*
X48002540Y-39417520D01*
X47911100Y-39422600D01*
X47875540Y-39427680D01*
X47875540Y-39427680D01*
X47865380Y-39470860D01*
X47845060Y-39564840D01*
X47819660Y-39696920D01*
X47789180Y-39854400D01*
X47786640Y-39864560D01*
X47756160Y-40022040D01*
X47728220Y-40156660D01*
X47707900Y-40248100D01*
X47695200Y-40286200D01*
X47685040Y-40296360D01*
X47621540Y-40326840D01*
X47525020Y-40372560D01*
X47405640Y-40425900D01*
X47281180Y-40476700D01*
X47169420Y-40519880D01*
X47085600Y-40550360D01*
X47047500Y-40560520D01*
X47047500Y-40560520D01*
X47009400Y-40535120D01*
X46928120Y-40481780D01*
X46813820Y-40405580D01*
X46679200Y-40311600D01*
X46669040Y-40306520D01*
X46536960Y-40215080D01*
X46422660Y-40141420D01*
X46341380Y-40093160D01*
X46305820Y-40072840D01*
X46303280Y-40075380D01*
X46265180Y-40103320D01*
X46188980Y-40171900D01*
X46087380Y-40268420D01*
X45968000Y-40385260D01*
X45932440Y-40423360D01*
X45805440Y-40552900D01*
X45721620Y-40644340D01*
X45678440Y-40700220D01*
X45668280Y-40725620D01*
X45668280Y-40728160D01*
X45693680Y-40768800D01*
X45749560Y-40852620D01*
X45825760Y-40966920D01*
X45917200Y-41101540D01*
X45924820Y-41111700D01*
X46016260Y-41243780D01*
X46089920Y-41355540D01*
X46143260Y-41434280D01*
X46163580Y-41469840D01*
X46163580Y-41474920D01*
X46148340Y-41530800D01*
X46115320Y-41624780D01*
X46069600Y-41741620D01*
X46018800Y-41866080D01*
X45973080Y-41977840D01*
X45934980Y-42061660D01*
X45912120Y-42099760D01*
X45909580Y-42102300D01*
X45861320Y-42115000D01*
X45762260Y-42137860D01*
X45625100Y-42168340D01*
X45460000Y-42198820D01*
X45434600Y-42203900D01*
X45274580Y-42234380D01*
X45145040Y-42259780D01*
X45053600Y-42277560D01*
X45015500Y-42287720D01*
X45010420Y-42310580D01*
X45005340Y-42386780D01*
X45002800Y-42506160D01*
X45000260Y-42648400D01*
X45000260Y-42800800D01*
X45005340Y-42948120D01*
X45007880Y-43072580D01*
X45015500Y-43164020D01*
X45023120Y-43202120D01*
X45025660Y-43202120D01*
X45073920Y-43217360D01*
X45172980Y-43237680D01*
X45312680Y-43265620D01*
X45475240Y-43298640D01*
X45505720Y-43303720D01*
X45663200Y-43334200D01*
X45792740Y-43359600D01*
X45884180Y-43379920D01*
X45919740Y-43390080D01*
X45927360Y-43402780D01*
X45955300Y-43468820D01*
X45998480Y-43575500D01*
X46051820Y-43707580D01*
X46176280Y-44012380D01*
X45919740Y-44388300D01*
X45896880Y-44421320D01*
X45802900Y-44555940D01*
X45729240Y-44667700D01*
X45680980Y-44743900D01*
X45663200Y-44776920D01*
X45663200Y-44779460D01*
X45696220Y-44817560D01*
X45764800Y-44891220D01*
X45863860Y-44992820D01*
X45983240Y-45109660D01*
X46069600Y-45198560D01*
X46173740Y-45300160D01*
X46244860Y-45366200D01*
X46290580Y-45401760D01*
X46318520Y-45414460D01*
X46336300Y-45411920D01*
X46374400Y-45386520D01*
X46458220Y-45333180D01*
X46569980Y-45254440D01*
X46704600Y-45163000D01*
X46813820Y-45089340D01*
X46940820Y-45008060D01*
X47029720Y-44954720D01*
X47072900Y-44936940D01*
X47093220Y-44942020D01*
X47164340Y-44967420D01*
X47276100Y-45010600D01*
X47408180Y-45069020D01*
X47705360Y-45198560D01*
X47743460Y-45391600D01*
X47763780Y-45510980D01*
X47796800Y-45676080D01*
X47827280Y-45833560D01*
X47875540Y-46079940D01*
X48779780Y-46087560D01*
X48795020Y-46049460D01*
X48805180Y-46013900D01*
X48825500Y-45922460D01*
X48850900Y-45792920D01*
X48878840Y-45637980D01*
X48904240Y-45508440D01*
X48929640Y-45376360D01*
X48947420Y-45279840D01*
X48957580Y-45239200D01*
X48970280Y-45229040D01*
X49033780Y-45196020D01*
X49135380Y-45147760D01*
X49257300Y-45096960D01*
X49384300Y-45043620D01*
X49501140Y-44997900D01*
X49590040Y-44964880D01*
X49638300Y-44952180D01*
X49671320Y-44969960D01*
X49750060Y-45020760D01*
X49859280Y-45091880D01*
X49991360Y-45183320D01*
X50120900Y-45272220D01*
X50235200Y-45348420D01*
X50313940Y-45399220D01*
X50352040Y-45422080D01*
X50377440Y-45411920D01*
X50440940Y-45358580D01*
X50542540Y-45259520D01*
X50687320Y-45112200D01*
X50710180Y-45089340D01*
X50824480Y-44972500D01*
X50915920Y-44873440D01*
X50976880Y-44804860D01*
X50999740Y-44774380D01*
X50999740Y-44774380D01*
G37*
X50999740Y-44774380D02*
X50979420Y-44738820D01*
X50931160Y-44660080D01*
X50857500Y-44548320D01*
X50771140Y-44416240D01*
X50679700Y-44284160D01*
X50608580Y-44174940D01*
X50557780Y-44098740D01*
X50540000Y-44068260D01*
X50547620Y-44050480D01*
X50578100Y-43986980D01*
X50623820Y-43898080D01*
X50651760Y-43844740D01*
X50687320Y-43760920D01*
X50694940Y-43717740D01*
X50684780Y-43712660D01*
X50621280Y-43682180D01*
X50512060Y-43633920D01*
X50367280Y-43570420D01*
X50197100Y-43496760D01*
X50014220Y-43420560D01*
X49828800Y-43341820D01*
X49651000Y-43268160D01*
X49490980Y-43204660D01*
X49358900Y-43151320D01*
X49270000Y-43115760D01*
X49231900Y-43103060D01*
X49221740Y-43108140D01*
X49181100Y-43148780D01*
X49127760Y-43222440D01*
X48998220Y-43379920D01*
X48805180Y-43537400D01*
X48584200Y-43631380D01*
X48337820Y-43664400D01*
X48109220Y-43636460D01*
X47890780Y-43547560D01*
X47695200Y-43395160D01*
X47547880Y-43209740D01*
X47456440Y-42993840D01*
X47425960Y-42750000D01*
X47451360Y-42518860D01*
X47540260Y-42295340D01*
X47690120Y-42097220D01*
X47786640Y-42013400D01*
X47984760Y-41899100D01*
X48198120Y-41835600D01*
X48254000Y-41827980D01*
X48487680Y-41838140D01*
X48711200Y-41906720D01*
X48911860Y-42031180D01*
X49076960Y-42201360D01*
X49092200Y-42224220D01*
X49153160Y-42302960D01*
X49193800Y-42356300D01*
X49226820Y-42399480D01*
X49945640Y-42099760D01*
X50059940Y-42051500D01*
X50258060Y-41970220D01*
X50425700Y-41899100D01*
X50560320Y-41840680D01*
X50651760Y-41800040D01*
X50687320Y-41782260D01*
X50689860Y-41782260D01*
X50694940Y-41754320D01*
X50674620Y-41700980D01*
X50626360Y-41599380D01*
X50590800Y-41533340D01*
X50555240Y-41457140D01*
X50540000Y-41421580D01*
X50557780Y-41393640D01*
X50603500Y-41319980D01*
X50674620Y-41213300D01*
X50763520Y-41083760D01*
X50847340Y-40961840D01*
X50921000Y-40850080D01*
X50974340Y-40768800D01*
X50994660Y-40728160D01*
X50994660Y-40723080D01*
X50974340Y-40687520D01*
X50921000Y-40621480D01*
X50829560Y-40524960D01*
X50692400Y-40385260D01*
X50669540Y-40364940D01*
X50555240Y-40250640D01*
X50458720Y-40159200D01*
X50387600Y-40095700D01*
X50357120Y-40072840D01*
X50357120Y-40072840D01*
X50319020Y-40093160D01*
X50235200Y-40146500D01*
X50120900Y-40220160D01*
X49988820Y-40311600D01*
X49643380Y-40550360D01*
X49315720Y-40418280D01*
X49216660Y-40377640D01*
X49094740Y-40326840D01*
X49008380Y-40288740D01*
X48970280Y-40270960D01*
X48957580Y-40235400D01*
X48937260Y-40146500D01*
X48909320Y-40016960D01*
X48881380Y-39862020D01*
X48853440Y-39714700D01*
X48828040Y-39582620D01*
X48810260Y-39486100D01*
X48802640Y-39442920D01*
X48795020Y-39432760D01*
X48774700Y-39422600D01*
X48728980Y-39417520D01*
X48647700Y-39414980D01*
X48520700Y-39412440D01*
X48337820Y-39412440D01*
X48317500Y-39412440D01*
X48142240Y-39414980D01*
X48002540Y-39417520D01*
X47911100Y-39422600D01*
X47875540Y-39427680D01*
X47875540Y-39427680D01*
X47865380Y-39470860D01*
X47845060Y-39564840D01*
X47819660Y-39696920D01*
X47789180Y-39854400D01*
X47786640Y-39864560D01*
X47756160Y-40022040D01*
X47728220Y-40156660D01*
X47707900Y-40248100D01*
X47695200Y-40286200D01*
X47685040Y-40296360D01*
X47621540Y-40326840D01*
X47525020Y-40372560D01*
X47405640Y-40425900D01*
X47281180Y-40476700D01*
X47169420Y-40519880D01*
X47085600Y-40550360D01*
X47047500Y-40560520D01*
X47047500Y-40560520D01*
X47009400Y-40535120D01*
X46928120Y-40481780D01*
X46813820Y-40405580D01*
X46679200Y-40311600D01*
X46669040Y-40306520D01*
X46536960Y-40215080D01*
X46422660Y-40141420D01*
X46341380Y-40093160D01*
X46305820Y-40072840D01*
X46303280Y-40075380D01*
X46265180Y-40103320D01*
X46188980Y-40171900D01*
X46087380Y-40268420D01*
X45968000Y-40385260D01*
X45932440Y-40423360D01*
X45805440Y-40552900D01*
X45721620Y-40644340D01*
X45678440Y-40700220D01*
X45668280Y-40725620D01*
X45668280Y-40728160D01*
X45693680Y-40768800D01*
X45749560Y-40852620D01*
X45825760Y-40966920D01*
X45917200Y-41101540D01*
X45924820Y-41111700D01*
X46016260Y-41243780D01*
X46089920Y-41355540D01*
X46143260Y-41434280D01*
X46163580Y-41469840D01*
X46163580Y-41474920D01*
X46148340Y-41530800D01*
X46115320Y-41624780D01*
X46069600Y-41741620D01*
X46018800Y-41866080D01*
X45973080Y-41977840D01*
X45934980Y-42061660D01*
X45912120Y-42099760D01*
X45909580Y-42102300D01*
X45861320Y-42115000D01*
X45762260Y-42137860D01*
X45625100Y-42168340D01*
X45460000Y-42198820D01*
X45434600Y-42203900D01*
X45274580Y-42234380D01*
X45145040Y-42259780D01*
X45053600Y-42277560D01*
X45015500Y-42287720D01*
X45010420Y-42310580D01*
X45005340Y-42386780D01*
X45002800Y-42506160D01*
X45000260Y-42648400D01*
X45000260Y-42800800D01*
X45005340Y-42948120D01*
X45007880Y-43072580D01*
X45015500Y-43164020D01*
X45023120Y-43202120D01*
X45025660Y-43202120D01*
X45073920Y-43217360D01*
X45172980Y-43237680D01*
X45312680Y-43265620D01*
X45475240Y-43298640D01*
X45505720Y-43303720D01*
X45663200Y-43334200D01*
X45792740Y-43359600D01*
X45884180Y-43379920D01*
X45919740Y-43390080D01*
X45927360Y-43402780D01*
X45955300Y-43468820D01*
X45998480Y-43575500D01*
X46051820Y-43707580D01*
X46176280Y-44012380D01*
X45919740Y-44388300D01*
X45896880Y-44421320D01*
X45802900Y-44555940D01*
X45729240Y-44667700D01*
X45680980Y-44743900D01*
X45663200Y-44776920D01*
X45663200Y-44779460D01*
X45696220Y-44817560D01*
X45764800Y-44891220D01*
X45863860Y-44992820D01*
X45983240Y-45109660D01*
X46069600Y-45198560D01*
X46173740Y-45300160D01*
X46244860Y-45366200D01*
X46290580Y-45401760D01*
X46318520Y-45414460D01*
X46336300Y-45411920D01*
X46374400Y-45386520D01*
X46458220Y-45333180D01*
X46569980Y-45254440D01*
X46704600Y-45163000D01*
X46813820Y-45089340D01*
X46940820Y-45008060D01*
X47029720Y-44954720D01*
X47072900Y-44936940D01*
X47093220Y-44942020D01*
X47164340Y-44967420D01*
X47276100Y-45010600D01*
X47408180Y-45069020D01*
X47705360Y-45198560D01*
X47743460Y-45391600D01*
X47763780Y-45510980D01*
X47796800Y-45676080D01*
X47827280Y-45833560D01*
X47875540Y-46079940D01*
X48779780Y-46087560D01*
X48795020Y-46049460D01*
X48805180Y-46013900D01*
X48825500Y-45922460D01*
X48850900Y-45792920D01*
X48878840Y-45637980D01*
X48904240Y-45508440D01*
X48929640Y-45376360D01*
X48947420Y-45279840D01*
X48957580Y-45239200D01*
X48970280Y-45229040D01*
X49033780Y-45196020D01*
X49135380Y-45147760D01*
X49257300Y-45096960D01*
X49384300Y-45043620D01*
X49501140Y-44997900D01*
X49590040Y-44964880D01*
X49638300Y-44952180D01*
X49671320Y-44969960D01*
X49750060Y-45020760D01*
X49859280Y-45091880D01*
X49991360Y-45183320D01*
X50120900Y-45272220D01*
X50235200Y-45348420D01*
X50313940Y-45399220D01*
X50352040Y-45422080D01*
X50377440Y-45411920D01*
X50440940Y-45358580D01*
X50542540Y-45259520D01*
X50687320Y-45112200D01*
X50710180Y-45089340D01*
X50824480Y-44972500D01*
X50915920Y-44873440D01*
X50976880Y-44804860D01*
X50999740Y-44774380D01*
D11*
X41430000Y-48110000D02*
X43970000Y-48110000D01*
X41430000Y-50650000D02*
X43970000Y-50650000D01*
X43970000Y-50650000D02*
X43970000Y-48110000D01*
X43970000Y-48110000D02*
X43970000Y-45570000D01*
X43970000Y-45570000D02*
X41430000Y-45570000D01*
X41430000Y-45570000D02*
X41430000Y-50650000D01*
D10*
X34190476Y-35331905D02*
X34190476Y-35979524D01*
X34228571Y-36055714D01*
X34266667Y-36093810D01*
X34342857Y-36131905D01*
X34495238Y-36131905D01*
X34571429Y-36093810D01*
X34609524Y-36055714D01*
X34647619Y-35979524D01*
X34647619Y-35331905D01*
X35447619Y-36131905D02*
X34990476Y-36131905D01*
X35219047Y-36131905D02*
X35219047Y-35331905D01*
X35142857Y-35446190D01*
X35066666Y-35522381D01*
X34990476Y-35560476D01*
X36690476Y-35331905D02*
X37223809Y-35331905D01*
X36880952Y-36131905D01*
X37642857Y-35674762D02*
X37566666Y-35636667D01*
X37528571Y-35598571D01*
X37490476Y-35522381D01*
X37490476Y-35484286D01*
X37528571Y-35408095D01*
X37566666Y-35370000D01*
X37642857Y-35331905D01*
X37795238Y-35331905D01*
X37871428Y-35370000D01*
X37909524Y-35408095D01*
X37947619Y-35484286D01*
X37947619Y-35522381D01*
X37909524Y-35598571D01*
X37871428Y-35636667D01*
X37795238Y-35674762D01*
X37642857Y-35674762D01*
X37566666Y-35712857D01*
X37528571Y-35750952D01*
X37490476Y-35827143D01*
X37490476Y-35979524D01*
X37528571Y-36055714D01*
X37566666Y-36093810D01*
X37642857Y-36131905D01*
X37795238Y-36131905D01*
X37871428Y-36093810D01*
X37909524Y-36055714D01*
X37947619Y-35979524D01*
X37947619Y-35827143D01*
X37909524Y-35750952D01*
X37871428Y-35712857D01*
X37795238Y-35674762D01*
X38442857Y-35331905D02*
X38519048Y-35331905D01*
X38595238Y-35370000D01*
X38633333Y-35408095D01*
X38671429Y-35484286D01*
X38709524Y-35636667D01*
X38709524Y-35827143D01*
X38671429Y-35979524D01*
X38633333Y-36055714D01*
X38595238Y-36093810D01*
X38519048Y-36131905D01*
X38442857Y-36131905D01*
X38366667Y-36093810D01*
X38328571Y-36055714D01*
X38290476Y-35979524D01*
X38252381Y-35827143D01*
X38252381Y-35636667D01*
X38290476Y-35484286D01*
X38328571Y-35408095D01*
X38366667Y-35370000D01*
X38442857Y-35331905D01*
X39433334Y-35331905D02*
X39052381Y-35331905D01*
X39014286Y-35712857D01*
X39052381Y-35674762D01*
X39128572Y-35636667D01*
X39319048Y-35636667D01*
X39395238Y-35674762D01*
X39433334Y-35712857D01*
X39471429Y-35789048D01*
X39471429Y-35979524D01*
X39433334Y-36055714D01*
X39395238Y-36093810D01*
X39319048Y-36131905D01*
X39128572Y-36131905D01*
X39052381Y-36093810D01*
X39014286Y-36055714D01*
X93933333Y-37673810D02*
X94047619Y-37711905D01*
X94238095Y-37711905D01*
X94314285Y-37673810D01*
X94352381Y-37635714D01*
X94390476Y-37559524D01*
X94390476Y-37483333D01*
X94352381Y-37407143D01*
X94314285Y-37369048D01*
X94238095Y-37330952D01*
X94085714Y-37292857D01*
X94009523Y-37254762D01*
X93971428Y-37216667D01*
X93933333Y-37140476D01*
X93933333Y-37064286D01*
X93971428Y-36988095D01*
X94009523Y-36950000D01*
X94085714Y-36911905D01*
X94276190Y-36911905D01*
X94390476Y-36950000D01*
X94657143Y-36911905D02*
X94847619Y-37711905D01*
X95000000Y-37140476D01*
X95152381Y-37711905D01*
X95342857Y-36911905D01*
X96066667Y-37711905D02*
X95609524Y-37711905D01*
X95838095Y-37711905D02*
X95838095Y-36911905D01*
X95761905Y-37026190D01*
X95685714Y-37102381D01*
X95609524Y-37140476D01*
X88061905Y-38011905D02*
X87795238Y-37630952D01*
X87604762Y-38011905D02*
X87604762Y-37211905D01*
X87909524Y-37211905D01*
X87985715Y-37250000D01*
X88023810Y-37288095D01*
X88061905Y-37364286D01*
X88061905Y-37478571D01*
X88023810Y-37554762D01*
X87985715Y-37592857D01*
X87909524Y-37630952D01*
X87604762Y-37630952D01*
X88366667Y-37973810D02*
X88480953Y-38011905D01*
X88671429Y-38011905D01*
X88747619Y-37973810D01*
X88785715Y-37935714D01*
X88823810Y-37859524D01*
X88823810Y-37783333D01*
X88785715Y-37707143D01*
X88747619Y-37669048D01*
X88671429Y-37630952D01*
X88519048Y-37592857D01*
X88442857Y-37554762D01*
X88404762Y-37516667D01*
X88366667Y-37440476D01*
X88366667Y-37364286D01*
X88404762Y-37288095D01*
X88442857Y-37250000D01*
X88519048Y-37211905D01*
X88709524Y-37211905D01*
X88823810Y-37250000D01*
X89052381Y-37211905D02*
X89509524Y-37211905D01*
X89280953Y-38011905D02*
X89280953Y-37211905D01*
X39633334Y-58761905D02*
X39633334Y-59333333D01*
X39595238Y-59447619D01*
X39519048Y-59523810D01*
X39404762Y-59561905D01*
X39328572Y-59561905D01*
X40433334Y-59561905D02*
X39976191Y-59561905D01*
X40204762Y-59561905D02*
X40204762Y-58761905D01*
X40128572Y-58876190D01*
X40052381Y-58952381D01*
X39976191Y-58990476D01*
X31042857Y-55323809D02*
X31080952Y-55209523D01*
X31119048Y-55171428D01*
X31195238Y-55133333D01*
X31309524Y-55133333D01*
X31385714Y-55171428D01*
X31423810Y-55209523D01*
X31461905Y-55285714D01*
X31461905Y-55590476D01*
X30661905Y-55590476D01*
X30661905Y-55323809D01*
X30700000Y-55247619D01*
X30738095Y-55209523D01*
X30814286Y-55171428D01*
X30890476Y-55171428D01*
X30966667Y-55209523D01*
X31004762Y-55247619D01*
X31042857Y-55323809D01*
X31042857Y-55590476D01*
X31233333Y-54828571D02*
X31233333Y-54447619D01*
X31461905Y-54904762D02*
X30661905Y-54638095D01*
X31461905Y-54371428D01*
X31461905Y-53647619D02*
X31080952Y-53914286D01*
X31461905Y-54104762D02*
X30661905Y-54104762D01*
X30661905Y-53800000D01*
X30700000Y-53723809D01*
X30738095Y-53685714D01*
X30814286Y-53647619D01*
X30928571Y-53647619D01*
X31004762Y-53685714D01*
X31042857Y-53723809D01*
X31080952Y-53800000D01*
X31080952Y-54104762D01*
X31461905Y-52847619D02*
X31080952Y-53114286D01*
X31461905Y-53304762D02*
X30661905Y-53304762D01*
X30661905Y-53000000D01*
X30700000Y-52923809D01*
X30738095Y-52885714D01*
X30814286Y-52847619D01*
X30928571Y-52847619D01*
X31004762Y-52885714D01*
X31042857Y-52923809D01*
X31080952Y-53000000D01*
X31080952Y-53304762D01*
X31042857Y-52504762D02*
X31042857Y-52238095D01*
X31461905Y-52123809D02*
X31461905Y-52504762D01*
X30661905Y-52504762D01*
X30661905Y-52123809D01*
X31461905Y-51399999D02*
X31461905Y-51780952D01*
X30661905Y-51780952D01*
X31538095Y-51323809D02*
X31538095Y-50714285D01*
X30661905Y-50295237D02*
X31233333Y-50295237D01*
X31347619Y-50333333D01*
X31423810Y-50409523D01*
X31461905Y-50523809D01*
X31461905Y-50599999D01*
X31233333Y-49952380D02*
X31233333Y-49571428D01*
X31461905Y-50028571D02*
X30661905Y-49761904D01*
X31461905Y-49495237D01*
X31385714Y-48771428D02*
X31423810Y-48809523D01*
X31461905Y-48923809D01*
X31461905Y-48999999D01*
X31423810Y-49114285D01*
X31347619Y-49190476D01*
X31271429Y-49228571D01*
X31119048Y-49266666D01*
X31004762Y-49266666D01*
X30852381Y-49228571D01*
X30776190Y-49190476D01*
X30700000Y-49114285D01*
X30661905Y-48999999D01*
X30661905Y-48923809D01*
X30700000Y-48809523D01*
X30738095Y-48771428D01*
X31461905Y-48428571D02*
X30661905Y-48428571D01*
X31461905Y-47971428D02*
X31004762Y-48314285D01*
X30661905Y-47971428D02*
X31119048Y-48428571D01*
X56990476Y-38761905D02*
X56990476Y-37961905D01*
X56990476Y-38342857D02*
X57447619Y-38342857D01*
X57447619Y-38761905D02*
X57447619Y-37961905D01*
X57866666Y-38761905D02*
X58019047Y-38761905D01*
X58095238Y-38723810D01*
X58133333Y-38685714D01*
X58209524Y-38571429D01*
X58247619Y-38419048D01*
X58247619Y-38114286D01*
X58209524Y-38038095D01*
X58171428Y-38000000D01*
X58095238Y-37961905D01*
X57942857Y-37961905D01*
X57866666Y-38000000D01*
X57828571Y-38038095D01*
X57790476Y-38114286D01*
X57790476Y-38304762D01*
X57828571Y-38380952D01*
X57866666Y-38419048D01*
X57942857Y-38457143D01*
X58095238Y-38457143D01*
X58171428Y-38419048D01*
X58209524Y-38380952D01*
X58247619Y-38304762D01*
X56919048Y-34161905D02*
X56919048Y-33361905D01*
X57261905Y-34123810D02*
X57376191Y-34161905D01*
X57566667Y-34161905D01*
X57642857Y-34123810D01*
X57680953Y-34085714D01*
X57719048Y-34009524D01*
X57719048Y-33933333D01*
X57680953Y-33857143D01*
X57642857Y-33819048D01*
X57566667Y-33780952D01*
X57414286Y-33742857D01*
X57338095Y-33704762D01*
X57300000Y-33666667D01*
X57261905Y-33590476D01*
X57261905Y-33514286D01*
X57300000Y-33438095D01*
X57338095Y-33400000D01*
X57414286Y-33361905D01*
X57604762Y-33361905D01*
X57719048Y-33400000D01*
X58061905Y-34161905D02*
X58061905Y-33361905D01*
X58366667Y-33361905D01*
X58442858Y-33400000D01*
X58480953Y-33438095D01*
X58519048Y-33514286D01*
X58519048Y-33628571D01*
X58480953Y-33704762D01*
X58442858Y-33742857D01*
X58366667Y-33780952D01*
X58061905Y-33780952D01*
X49796667Y-33191905D02*
X49415714Y-33191905D01*
X49377619Y-33572857D01*
X49415714Y-33534762D01*
X49491905Y-33496667D01*
X49682381Y-33496667D01*
X49758571Y-33534762D01*
X49796667Y-33572857D01*
X49834762Y-33649048D01*
X49834762Y-33839524D01*
X49796667Y-33915714D01*
X49758571Y-33953810D01*
X49682381Y-33991905D01*
X49491905Y-33991905D01*
X49415714Y-33953810D01*
X49377619Y-33915714D01*
X50063333Y-33191905D02*
X50330000Y-33991905D01*
X50596667Y-33191905D01*
X51015714Y-33191905D02*
X51091905Y-33191905D01*
X51168095Y-33230000D01*
X51206190Y-33268095D01*
X51244286Y-33344286D01*
X51282381Y-33496667D01*
X51282381Y-33687143D01*
X51244286Y-33839524D01*
X51206190Y-33915714D01*
X51168095Y-33953810D01*
X51091905Y-33991905D01*
X51015714Y-33991905D01*
X50939524Y-33953810D01*
X50901428Y-33915714D01*
X50863333Y-33839524D01*
X50825238Y-33687143D01*
X50825238Y-33496667D01*
X50863333Y-33344286D01*
X50901428Y-33268095D01*
X50939524Y-33230000D01*
X51015714Y-33191905D01*
X67090476Y-31061905D02*
X67090476Y-30261905D01*
X67090476Y-30642857D02*
X67547619Y-30642857D01*
X67547619Y-31061905D02*
X67547619Y-30261905D01*
X67852381Y-30261905D02*
X68385714Y-30261905D01*
X68042857Y-31061905D01*
X67890476Y-32761905D02*
X67890476Y-31961905D01*
X67890476Y-32342857D02*
X68347619Y-32342857D01*
X68347619Y-32761905D02*
X68347619Y-31961905D01*
X69071428Y-31961905D02*
X68919047Y-31961905D01*
X68842857Y-32000000D01*
X68804762Y-32038095D01*
X68728571Y-32152381D01*
X68690476Y-32304762D01*
X68690476Y-32609524D01*
X68728571Y-32685714D01*
X68766666Y-32723810D01*
X68842857Y-32761905D01*
X68995238Y-32761905D01*
X69071428Y-32723810D01*
X69109524Y-32685714D01*
X69147619Y-32609524D01*
X69147619Y-32419048D01*
X69109524Y-32342857D01*
X69071428Y-32304762D01*
X68995238Y-32266667D01*
X68842857Y-32266667D01*
X68766666Y-32304762D01*
X68728571Y-32342857D01*
X68690476Y-32419048D01*
X72890476Y-58261905D02*
X72890476Y-57461905D01*
X72890476Y-57842857D02*
X73347619Y-57842857D01*
X73347619Y-58261905D02*
X73347619Y-57461905D01*
X74071428Y-57728571D02*
X74071428Y-58261905D01*
X73880952Y-57423810D02*
X73690476Y-57995238D01*
X74185714Y-57995238D01*
X72190476Y-56561905D02*
X72190476Y-55761905D01*
X72190476Y-56142857D02*
X72647619Y-56142857D01*
X72647619Y-56561905D02*
X72647619Y-55761905D01*
X72990476Y-55838095D02*
X73028571Y-55800000D01*
X73104762Y-55761905D01*
X73295238Y-55761905D01*
X73371428Y-55800000D01*
X73409524Y-55838095D01*
X73447619Y-55914286D01*
X73447619Y-55990476D01*
X73409524Y-56104762D01*
X72952381Y-56561905D01*
X73447619Y-56561905D01*
X42590476Y-36261905D02*
X42590476Y-35461905D01*
X42590476Y-35842857D02*
X43047619Y-35842857D01*
X43047619Y-36261905D02*
X43047619Y-35461905D01*
X43847619Y-36261905D02*
X43390476Y-36261905D01*
X43619047Y-36261905D02*
X43619047Y-35461905D01*
X43542857Y-35576190D01*
X43466666Y-35652381D01*
X43390476Y-35690476D01*
X46761905Y-37138096D02*
X47561905Y-36871429D01*
X46761905Y-36604762D01*
X47638095Y-36528572D02*
X47638095Y-35919048D01*
X47523810Y-35766667D02*
X47561905Y-35652381D01*
X47561905Y-35461905D01*
X47523810Y-35385715D01*
X47485714Y-35347619D01*
X47409524Y-35309524D01*
X47333333Y-35309524D01*
X47257143Y-35347619D01*
X47219048Y-35385715D01*
X47180952Y-35461905D01*
X47142857Y-35614286D01*
X47104762Y-35690477D01*
X47066667Y-35728572D01*
X46990476Y-35766667D01*
X46914286Y-35766667D01*
X46838095Y-35728572D01*
X46800000Y-35690477D01*
X46761905Y-35614286D01*
X46761905Y-35423810D01*
X46800000Y-35309524D01*
X47142857Y-34966667D02*
X47142857Y-34700000D01*
X47561905Y-34585714D02*
X47561905Y-34966667D01*
X46761905Y-34966667D01*
X46761905Y-34585714D01*
X47561905Y-33861904D02*
X47561905Y-34242857D01*
X46761905Y-34242857D01*
X54209524Y-58161905D02*
X54209524Y-57361905D01*
X54400000Y-57361905D01*
X54514286Y-57400000D01*
X54590477Y-57476190D01*
X54628572Y-57552381D01*
X54666667Y-57704762D01*
X54666667Y-57819048D01*
X54628572Y-57971429D01*
X54590477Y-58047619D01*
X54514286Y-58123810D01*
X54400000Y-58161905D01*
X54209524Y-58161905D01*
X54933334Y-57361905D02*
X55428572Y-57361905D01*
X55161905Y-57666667D01*
X55276191Y-57666667D01*
X55352381Y-57704762D01*
X55390477Y-57742857D01*
X55428572Y-57819048D01*
X55428572Y-58009524D01*
X55390477Y-58085714D01*
X55352381Y-58123810D01*
X55276191Y-58161905D01*
X55047619Y-58161905D01*
X54971429Y-58123810D01*
X54933334Y-58085714D01*
X54671429Y-59142857D02*
X54785715Y-59180952D01*
X54823810Y-59219048D01*
X54861905Y-59295238D01*
X54861905Y-59409524D01*
X54823810Y-59485714D01*
X54785715Y-59523810D01*
X54709524Y-59561905D01*
X54404762Y-59561905D01*
X54404762Y-58761905D01*
X54671429Y-58761905D01*
X54747619Y-58800000D01*
X54785715Y-58838095D01*
X54823810Y-58914286D01*
X54823810Y-58990476D01*
X54785715Y-59066667D01*
X54747619Y-59104762D01*
X54671429Y-59142857D01*
X54404762Y-59142857D01*
X55319048Y-59561905D02*
X55242857Y-59523810D01*
X55204762Y-59447619D01*
X55204762Y-58761905D01*
X55623810Y-59561905D02*
X55623810Y-59028571D01*
X55623810Y-58761905D02*
X55585715Y-58800000D01*
X55623810Y-58838095D01*
X55661905Y-58800000D01*
X55623810Y-58761905D01*
X55623810Y-58838095D01*
X56004762Y-59028571D02*
X56004762Y-59561905D01*
X56004762Y-59104762D02*
X56042857Y-59066667D01*
X56119048Y-59028571D01*
X56233334Y-59028571D01*
X56309524Y-59066667D01*
X56347619Y-59142857D01*
X56347619Y-59561905D01*
X56728572Y-59561905D02*
X56728572Y-58761905D01*
X56804763Y-59257143D02*
X57033334Y-59561905D01*
X57033334Y-59028571D02*
X56728572Y-59333333D01*
X42609524Y-58161905D02*
X42609524Y-57361905D01*
X42800000Y-57361905D01*
X42914286Y-57400000D01*
X42990477Y-57476190D01*
X43028572Y-57552381D01*
X43066667Y-57704762D01*
X43066667Y-57819048D01*
X43028572Y-57971429D01*
X42990477Y-58047619D01*
X42914286Y-58123810D01*
X42800000Y-58161905D01*
X42609524Y-58161905D01*
X43371429Y-57438095D02*
X43409524Y-57400000D01*
X43485715Y-57361905D01*
X43676191Y-57361905D01*
X43752381Y-57400000D01*
X43790477Y-57438095D01*
X43828572Y-57514286D01*
X43828572Y-57590476D01*
X43790477Y-57704762D01*
X43333334Y-58161905D01*
X43828572Y-58161905D01*
X42733333Y-59561905D02*
X42733333Y-58761905D01*
X43038095Y-58761905D01*
X43114286Y-58800000D01*
X43152381Y-58838095D01*
X43190476Y-58914286D01*
X43190476Y-59028571D01*
X43152381Y-59104762D01*
X43114286Y-59142857D01*
X43038095Y-59180952D01*
X42733333Y-59180952D01*
X43457143Y-58761905D02*
X43647619Y-59561905D01*
X43800000Y-58990476D01*
X43952381Y-59561905D01*
X44142857Y-58761905D01*
X44904762Y-59561905D02*
X44638095Y-59180952D01*
X44447619Y-59561905D02*
X44447619Y-58761905D01*
X44752381Y-58761905D01*
X44828572Y-58800000D01*
X44866667Y-58838095D01*
X44904762Y-58914286D01*
X44904762Y-59028571D01*
X44866667Y-59104762D01*
X44828572Y-59142857D01*
X44752381Y-59180952D01*
X44447619Y-59180952D01*
X87057476Y-42497705D02*
X87057476Y-43145324D01*
X87095571Y-43221514D01*
X87133667Y-43259610D01*
X87209857Y-43297705D01*
X87362238Y-43297705D01*
X87438429Y-43259610D01*
X87476524Y-43221514D01*
X87514619Y-43145324D01*
X87514619Y-42497705D01*
X87857476Y-42573895D02*
X87895571Y-42535800D01*
X87971762Y-42497705D01*
X88162238Y-42497705D01*
X88238428Y-42535800D01*
X88276524Y-42573895D01*
X88314619Y-42650086D01*
X88314619Y-42726276D01*
X88276524Y-42840562D01*
X87819381Y-43297705D01*
X88314619Y-43297705D01*
X57919762Y-46933333D02*
X58300714Y-46933333D01*
X57843571Y-47161905D02*
X58110238Y-46361905D01*
X58376905Y-47161905D01*
X58529285Y-46361905D02*
X58986428Y-46361905D01*
X58757857Y-47161905D02*
X58757857Y-46361905D01*
X59253095Y-47161905D02*
X59253095Y-46361905D01*
X59519762Y-46933333D01*
X59786429Y-46361905D01*
X59786429Y-47161905D01*
X60167381Y-46742857D02*
X60434048Y-46742857D01*
X60548334Y-47161905D02*
X60167381Y-47161905D01*
X60167381Y-46361905D01*
X60548334Y-46361905D01*
X61310239Y-46400000D02*
X61234048Y-46361905D01*
X61119763Y-46361905D01*
X61005477Y-46400000D01*
X60929286Y-46476190D01*
X60891191Y-46552381D01*
X60853096Y-46704762D01*
X60853096Y-46819048D01*
X60891191Y-46971429D01*
X60929286Y-47047619D01*
X61005477Y-47123810D01*
X61119763Y-47161905D01*
X61195953Y-47161905D01*
X61310239Y-47123810D01*
X61348334Y-47085714D01*
X61348334Y-46819048D01*
X61195953Y-46819048D01*
X61653096Y-46933333D02*
X62034048Y-46933333D01*
X61576905Y-47161905D02*
X61843572Y-46361905D01*
X62110239Y-47161905D01*
X62300715Y-46361905D02*
X62795953Y-46361905D01*
X62529286Y-46666667D01*
X62643572Y-46666667D01*
X62719762Y-46704762D01*
X62757858Y-46742857D01*
X62795953Y-46819048D01*
X62795953Y-47009524D01*
X62757858Y-47085714D01*
X62719762Y-47123810D01*
X62643572Y-47161905D01*
X62415000Y-47161905D01*
X62338810Y-47123810D01*
X62300715Y-47085714D01*
X63100715Y-46438095D02*
X63138810Y-46400000D01*
X63215001Y-46361905D01*
X63405477Y-46361905D01*
X63481667Y-46400000D01*
X63519763Y-46438095D01*
X63557858Y-46514286D01*
X63557858Y-46590476D01*
X63519763Y-46704762D01*
X63062620Y-47161905D01*
X63557858Y-47161905D01*
X64015001Y-46704762D02*
X63938810Y-46666667D01*
X63900715Y-46628571D01*
X63862620Y-46552381D01*
X63862620Y-46514286D01*
X63900715Y-46438095D01*
X63938810Y-46400000D01*
X64015001Y-46361905D01*
X64167382Y-46361905D01*
X64243572Y-46400000D01*
X64281668Y-46438095D01*
X64319763Y-46514286D01*
X64319763Y-46552381D01*
X64281668Y-46628571D01*
X64243572Y-46666667D01*
X64167382Y-46704762D01*
X64015001Y-46704762D01*
X63938810Y-46742857D01*
X63900715Y-46780952D01*
X63862620Y-46857143D01*
X63862620Y-47009524D01*
X63900715Y-47085714D01*
X63938810Y-47123810D01*
X64015001Y-47161905D01*
X64167382Y-47161905D01*
X64243572Y-47123810D01*
X64281668Y-47085714D01*
X64319763Y-47009524D01*
X64319763Y-46857143D01*
X64281668Y-46780952D01*
X64243572Y-46742857D01*
X64167382Y-46704762D01*
X64662620Y-46857143D02*
X65272144Y-46857143D01*
X65653096Y-47161905D02*
X65653096Y-46361905D01*
X65957858Y-46361905D01*
X66034049Y-46400000D01*
X66072144Y-46438095D01*
X66110239Y-46514286D01*
X66110239Y-46628571D01*
X66072144Y-46704762D01*
X66034049Y-46742857D01*
X65957858Y-46780952D01*
X65653096Y-46780952D01*
X94290476Y-55861905D02*
X94290476Y-55061905D01*
X94290476Y-55442857D02*
X94747619Y-55442857D01*
X94747619Y-55861905D02*
X94747619Y-55061905D01*
X95242857Y-55404762D02*
X95166666Y-55366667D01*
X95128571Y-55328571D01*
X95090476Y-55252381D01*
X95090476Y-55214286D01*
X95128571Y-55138095D01*
X95166666Y-55100000D01*
X95242857Y-55061905D01*
X95395238Y-55061905D01*
X95471428Y-55100000D01*
X95509524Y-55138095D01*
X95547619Y-55214286D01*
X95547619Y-55252381D01*
X95509524Y-55328571D01*
X95471428Y-55366667D01*
X95395238Y-55404762D01*
X95242857Y-55404762D01*
X95166666Y-55442857D01*
X95128571Y-55480952D01*
X95090476Y-55557143D01*
X95090476Y-55709524D01*
X95128571Y-55785714D01*
X95166666Y-55823810D01*
X95242857Y-55861905D01*
X95395238Y-55861905D01*
X95471428Y-55823810D01*
X95509524Y-55785714D01*
X95547619Y-55709524D01*
X95547619Y-55557143D01*
X95509524Y-55480952D01*
X95471428Y-55442857D01*
X95395238Y-55404762D01*
X93519048Y-56942857D02*
X93252381Y-56942857D01*
X93252381Y-57361905D02*
X93252381Y-56561905D01*
X93633334Y-56561905D01*
X93823809Y-56561905D02*
X94280952Y-56561905D01*
X94052381Y-57361905D02*
X94052381Y-56561905D01*
X94547619Y-57361905D02*
X94547619Y-56561905D01*
X94738095Y-56561905D01*
X94852381Y-56600000D01*
X94928572Y-56676190D01*
X94966667Y-56752381D01*
X95004762Y-56904762D01*
X95004762Y-57019048D01*
X94966667Y-57171429D01*
X94928572Y-57247619D01*
X94852381Y-57323810D01*
X94738095Y-57361905D01*
X94547619Y-57361905D01*
X95347619Y-57361905D02*
X95347619Y-56561905D01*
D11*
X97238096Y-38400000D02*
X97142858Y-38352381D01*
X97000001Y-38352381D01*
X96857143Y-38400000D01*
X96761905Y-38495238D01*
X96714286Y-38590476D01*
X96666667Y-38780952D01*
X96666667Y-38923810D01*
X96714286Y-39114286D01*
X96761905Y-39209524D01*
X96857143Y-39304762D01*
X97000001Y-39352381D01*
X97095239Y-39352381D01*
X97238096Y-39304762D01*
X97285715Y-39257143D01*
X97285715Y-38923810D01*
X97095239Y-38923810D01*
X98285715Y-39352381D02*
X97952381Y-38876190D01*
X97714286Y-39352381D02*
X97714286Y-38352381D01*
X98095239Y-38352381D01*
X98190477Y-38400000D01*
X98238096Y-38447619D01*
X98285715Y-38542857D01*
X98285715Y-38685714D01*
X98238096Y-38780952D01*
X98190477Y-38828571D01*
X98095239Y-38876190D01*
X97714286Y-38876190D01*
X98714286Y-39352381D02*
X98714286Y-38352381D01*
X99285715Y-39352381D01*
X99285715Y-38352381D01*
X97166667Y-55428571D02*
X97309524Y-55476190D01*
X97357143Y-55523810D01*
X97404762Y-55619048D01*
X97404762Y-55761905D01*
X97357143Y-55857143D01*
X97309524Y-55904762D01*
X97214286Y-55952381D01*
X96833333Y-55952381D01*
X96833333Y-54952381D01*
X97166667Y-54952381D01*
X97261905Y-55000000D01*
X97309524Y-55047619D01*
X97357143Y-55142857D01*
X97357143Y-55238095D01*
X97309524Y-55333333D01*
X97261905Y-55380952D01*
X97166667Y-55428571D01*
X96833333Y-55428571D01*
X98309524Y-55952381D02*
X97833333Y-55952381D01*
X97833333Y-54952381D01*
X98642857Y-55952381D02*
X98642857Y-54952381D01*
X99214286Y-55952381D02*
X98785714Y-55380952D01*
X99214286Y-54952381D02*
X98642857Y-55523810D01*
D10*
X67752381Y-33661905D02*
X68285714Y-34461905D01*
X68285714Y-33661905D02*
X67752381Y-34461905D01*
X69009524Y-34461905D02*
X68552381Y-34461905D01*
X68780952Y-34461905D02*
X68780952Y-33661905D01*
X68704762Y-33776190D01*
X68628571Y-33852381D01*
X68552381Y-33890476D01*
X39659524Y-44111905D02*
X39659524Y-43311905D01*
X39850000Y-43311905D01*
X39964286Y-43350000D01*
X40040477Y-43426190D01*
X40078572Y-43502381D01*
X40116667Y-43654762D01*
X40116667Y-43769048D01*
X40078572Y-43921429D01*
X40040477Y-43997619D01*
X39964286Y-44073810D01*
X39850000Y-44111905D01*
X39659524Y-44111905D01*
X40878572Y-44111905D02*
X40421429Y-44111905D01*
X40650000Y-44111905D02*
X40650000Y-43311905D01*
X40573810Y-43426190D01*
X40497619Y-43502381D01*
X40421429Y-43540476D01*
X77470476Y-35771905D02*
X77470476Y-34971905D01*
X77470476Y-35352857D02*
X77927619Y-35352857D01*
X77927619Y-35771905D02*
X77927619Y-34971905D01*
X78689524Y-34971905D02*
X78308571Y-34971905D01*
X78270476Y-35352857D01*
X78308571Y-35314762D01*
X78384762Y-35276667D01*
X78575238Y-35276667D01*
X78651428Y-35314762D01*
X78689524Y-35352857D01*
X78727619Y-35429048D01*
X78727619Y-35619524D01*
X78689524Y-35695714D01*
X78651428Y-35733810D01*
X78575238Y-35771905D01*
X78384762Y-35771905D01*
X78308571Y-35733810D01*
X78270476Y-35695714D01*
X80084762Y-35543333D02*
X80465714Y-35543333D01*
X80008571Y-35771905D02*
X80275238Y-34971905D01*
X80541905Y-35771905D01*
X81265714Y-35771905D02*
X80999047Y-35390952D01*
X80808571Y-35771905D02*
X80808571Y-34971905D01*
X81113333Y-34971905D01*
X81189524Y-35010000D01*
X81227619Y-35048095D01*
X81265714Y-35124286D01*
X81265714Y-35238571D01*
X81227619Y-35314762D01*
X81189524Y-35352857D01*
X81113333Y-35390952D01*
X80808571Y-35390952D01*
X81608571Y-35352857D02*
X81875238Y-35352857D01*
X81989524Y-35771905D02*
X81608571Y-35771905D01*
X81608571Y-34971905D01*
X81989524Y-34971905D01*
X82599048Y-35352857D02*
X82332381Y-35352857D01*
X82332381Y-35771905D02*
X82332381Y-34971905D01*
X82713334Y-34971905D01*
X31766667Y-40285714D02*
X31728572Y-40323810D01*
X31614286Y-40361905D01*
X31538096Y-40361905D01*
X31423810Y-40323810D01*
X31347619Y-40247619D01*
X31309524Y-40171429D01*
X31271429Y-40019048D01*
X31271429Y-39904762D01*
X31309524Y-39752381D01*
X31347619Y-39676190D01*
X31423810Y-39600000D01*
X31538096Y-39561905D01*
X31614286Y-39561905D01*
X31728572Y-39600000D01*
X31766667Y-39638095D01*
X32071429Y-39638095D02*
X32109524Y-39600000D01*
X32185715Y-39561905D01*
X32376191Y-39561905D01*
X32452381Y-39600000D01*
X32490477Y-39638095D01*
X32528572Y-39714286D01*
X32528572Y-39790476D01*
X32490477Y-39904762D01*
X32033334Y-40361905D01*
X32528572Y-40361905D01*
X35304762Y-38581905D02*
X34847619Y-38581905D01*
X35076190Y-38581905D02*
X35076190Y-37781905D01*
X35000000Y-37896190D01*
X34923809Y-37972381D01*
X34847619Y-38010476D01*
X35800000Y-37781905D02*
X35876191Y-37781905D01*
X35952381Y-37820000D01*
X35990476Y-37858095D01*
X36028572Y-37934286D01*
X36066667Y-38086667D01*
X36066667Y-38277143D01*
X36028572Y-38429524D01*
X35990476Y-38505714D01*
X35952381Y-38543810D01*
X35876191Y-38581905D01*
X35800000Y-38581905D01*
X35723810Y-38543810D01*
X35685714Y-38505714D01*
X35647619Y-38429524D01*
X35609524Y-38277143D01*
X35609524Y-38086667D01*
X35647619Y-37934286D01*
X35685714Y-37858095D01*
X35723810Y-37820000D01*
X35800000Y-37781905D01*
X36561905Y-37781905D02*
X36638096Y-37781905D01*
X36714286Y-37820000D01*
X36752381Y-37858095D01*
X36790477Y-37934286D01*
X36828572Y-38086667D01*
X36828572Y-38277143D01*
X36790477Y-38429524D01*
X36752381Y-38505714D01*
X36714286Y-38543810D01*
X36638096Y-38581905D01*
X36561905Y-38581905D01*
X36485715Y-38543810D01*
X36447619Y-38505714D01*
X36409524Y-38429524D01*
X36371429Y-38277143D01*
X36371429Y-38086667D01*
X36409524Y-37934286D01*
X36447619Y-37858095D01*
X36485715Y-37820000D01*
X36561905Y-37781905D01*
X37514286Y-38048571D02*
X37514286Y-38581905D01*
X37171429Y-38048571D02*
X37171429Y-38467619D01*
X37209524Y-38543810D01*
X37285715Y-38581905D01*
X37400001Y-38581905D01*
X37476191Y-38543810D01*
X37514286Y-38505714D01*
D11*
X39519048Y-39971429D02*
X40280953Y-39971429D01*
X39900001Y-40352381D02*
X39900001Y-39590476D01*
D10*
X42090476Y-51971905D02*
X42090476Y-51171905D01*
X42090476Y-51552857D02*
X42547619Y-51552857D01*
X42547619Y-51971905D02*
X42547619Y-51171905D01*
X42852381Y-51171905D02*
X43347619Y-51171905D01*
X43080952Y-51476667D01*
X43195238Y-51476667D01*
X43271428Y-51514762D01*
X43309524Y-51552857D01*
X43347619Y-51629048D01*
X43347619Y-51819524D01*
X43309524Y-51895714D01*
X43271428Y-51933810D01*
X43195238Y-51971905D01*
X42966666Y-51971905D01*
X42890476Y-51933810D01*
X42852381Y-51895714D01*
X47661905Y-51214285D02*
X47661905Y-51595238D01*
X46861905Y-51595238D01*
X47661905Y-50947619D02*
X47128571Y-50947619D01*
X46861905Y-50947619D02*
X46900000Y-50985714D01*
X46938095Y-50947619D01*
X46900000Y-50909524D01*
X46861905Y-50947619D01*
X46938095Y-50947619D01*
X47661905Y-50566667D02*
X46861905Y-50566667D01*
X46861905Y-50261905D01*
X46900000Y-50185714D01*
X46938095Y-50147619D01*
X47014286Y-50109524D01*
X47128571Y-50109524D01*
X47204762Y-50147619D01*
X47242857Y-50185714D01*
X47280952Y-50261905D01*
X47280952Y-50566667D01*
X47661905Y-49652381D02*
X47623810Y-49728572D01*
X47585714Y-49766667D01*
X47509524Y-49804762D01*
X47280952Y-49804762D01*
X47204762Y-49766667D01*
X47166667Y-49728572D01*
X47128571Y-49652381D01*
X47128571Y-49538095D01*
X47166667Y-49461905D01*
X47204762Y-49423810D01*
X47280952Y-49385714D01*
X47509524Y-49385714D01*
X47585714Y-49423810D01*
X47623810Y-49461905D01*
X47661905Y-49538095D01*
X47661905Y-49652381D01*
X47738095Y-49233333D02*
X47738095Y-48623809D01*
X46861905Y-48509523D02*
X46861905Y-47976190D01*
X47661905Y-48319047D01*
X46861905Y-47785714D02*
X47661905Y-47519047D01*
X46861905Y-47252380D01*
X46938095Y-47023809D02*
X46900000Y-46985714D01*
X46861905Y-46909523D01*
X46861905Y-46719047D01*
X46900000Y-46642857D01*
X46938095Y-46604761D01*
X47014286Y-46566666D01*
X47090476Y-46566666D01*
X47204762Y-46604761D01*
X47661905Y-47061904D01*
X47661905Y-46566666D01*
%LPC*%
D18*
X35960000Y-32870000D03*
D19*
X38500000Y-32870000D03*
D18*
X41040000Y-32870000D03*
D19*
X98250000Y-32000000D03*
D18*
X91750000Y-36500000D03*
X98250000Y-36500000D03*
D19*
X91750000Y-32000000D03*
D20*
X98000000Y-58000000D03*
X42500000Y-55000000D03*
D21*
X34400000Y-52000000D03*
D22*
X34400000Y-45904000D03*
D23*
X39480000Y-48825000D03*
D24*
X50320000Y-37950000D03*
X50320000Y-35410000D03*
X52860000Y-37950000D03*
X52860000Y-35410000D03*
X55400000Y-37950000D03*
D25*
X55400000Y-35410000D03*
D24*
X65560000Y-31600000D03*
X63020000Y-31600000D03*
X60480000Y-31600000D03*
X57940000Y-31600000D03*
X55400000Y-31600000D03*
X52860000Y-31600000D03*
D25*
X50320000Y-31600000D03*
D24*
X47780000Y-31600000D03*
X88420000Y-31600000D03*
X85880000Y-31600000D03*
X83340000Y-31600000D03*
X80800000Y-31600000D03*
X78260000Y-31600000D03*
X75720000Y-31600000D03*
X73180000Y-31600000D03*
X70640000Y-31600000D03*
X88420000Y-57000000D03*
X85880000Y-57000000D03*
X83340000Y-57000000D03*
X80800000Y-57000000D03*
X78260000Y-57000000D03*
X75720000Y-57000000D03*
X70640000Y-57000000D03*
D25*
X68100000Y-57000000D03*
X65560000Y-57000000D03*
D24*
X63020000Y-57000000D03*
X60480000Y-57000000D03*
X57940000Y-57000000D03*
X45230000Y-32870000D03*
X45230000Y-35410000D03*
X45230000Y-37950000D03*
X51700000Y-56230000D03*
D25*
X51700000Y-58770000D03*
D24*
X47200000Y-56230000D03*
D25*
X47200000Y-58770000D03*
D26*
X82970000Y-42990000D03*
X80430000Y-42990000D03*
X77890000Y-42990000D03*
X75350000Y-42990000D03*
X72810000Y-42990000D03*
X70270000Y-42990000D03*
D27*
X67730000Y-42990000D03*
D26*
X65190000Y-42990000D03*
X62650000Y-42990000D03*
X60110000Y-42990000D03*
X57570000Y-42990000D03*
X55030000Y-42990000D03*
X52490000Y-42990000D03*
X85510000Y-42990000D03*
X52490000Y-50610000D03*
X55030000Y-50610000D03*
X57570000Y-50610000D03*
X60110000Y-50610000D03*
X62650000Y-50610000D03*
X65190000Y-50610000D03*
X67730000Y-50610000D03*
D27*
X70270000Y-50610000D03*
D26*
X72810000Y-50610000D03*
X75350000Y-50610000D03*
X77890000Y-50610000D03*
X80430000Y-50610000D03*
X82970000Y-50610000D03*
X85510000Y-50610000D03*
D25*
X98000000Y-53350000D03*
X98000000Y-50810000D03*
D24*
X98000000Y-48270000D03*
X98000000Y-45730000D03*
X98000000Y-43190000D03*
X98000000Y-40650000D03*
D28*
X37702000Y-58467000D03*
X31098000Y-58467000D03*
D29*
X65450940Y-36080000D03*
X60569060Y-36080000D03*
D30*
X63010000Y-36080000D03*
D18*
X42700000Y-43760000D03*
D19*
X42700000Y-39950000D03*
D20*
X32000000Y-32000000D03*
X87500000Y-35000000D03*
D24*
X70640000Y-35410000D03*
X73180000Y-35410000D03*
X75720000Y-35410000D03*
D30*
X34910000Y-39970000D03*
D29*
X37450000Y-39970000D03*
D25*
X42700000Y-49380000D03*
D24*
X42700000Y-46840000D03*
M02*
