M48
INCH,TZ
T1C0.032
T2C0.040
T3C0.045
T4C0.046
T5C0.050
T6C0.100
%
G90
G05
T1
X1.3744Y-1.5736
X1.4744Y-1.5736
X1.8583Y-2.2138
X1.8583Y-2.3138
X2.0354Y-2.2138
X2.0354Y-2.3138
X2.0665Y-1.6925
X2.0665Y-1.9925
X2.1665Y-1.6925
X2.1665Y-1.9925
X2.2665Y-1.6925
X2.2665Y-1.9925
X2.3665Y-1.6925
X2.3665Y-1.9925
X2.3846Y-1.4205
X2.4665Y-1.6925
X2.4665Y-1.9925
X2.4807Y-1.4205
X2.5665Y-1.6925
X2.5665Y-1.9925
X2.5768Y-1.4205
X2.6665Y-1.6925
X2.6665Y-1.9925
X2.7665Y-1.6925
X2.7665Y-1.9925
X2.8665Y-1.6925
X2.8665Y-1.9925
X2.9665Y-1.6925
X2.9665Y-1.9925
X3.0665Y-1.6925
X3.0665Y-1.9925
X3.1665Y-1.6925
X3.1665Y-1.9925
X3.2665Y-1.6925
X3.2665Y-1.9925
X3.3665Y-1.6925
X3.3665Y-1.9925
T2
X1.6811Y-1.8441
X1.6811Y-1.9441
X1.7807Y-1.2941
X1.7807Y-1.3941
X1.7807Y-1.4941
X1.8811Y-1.2441
X1.9811Y-1.2441
X1.9811Y-1.3941
X1.9811Y-1.4941
X2.0811Y-1.2441
X2.0811Y-1.3941
X2.0811Y-1.4941
X2.1811Y-1.2441
X2.1811Y-1.3941
X2.1811Y-1.4941
X2.2811Y-1.2441
X2.2811Y-2.2441
X2.3811Y-1.2441
X2.3811Y-2.2441
X2.4811Y-1.2441
X2.4811Y-2.2441
X2.5811Y-1.2441
X2.5811Y-2.2441
X2.6811Y-2.2441
X2.7811Y-1.2441
X2.7811Y-1.3941
X2.7811Y-2.2441
X2.8811Y-1.2441
X2.8811Y-1.3941
X2.9811Y-1.2441
X2.9811Y-1.3941
X2.9811Y-2.2441
X3.0811Y-1.2441
X3.0811Y-2.2441
X3.1811Y-1.2441
X3.1811Y-2.2441
X3.2811Y-1.2441
X3.2811Y-2.2441
X3.3811Y-1.2441
X3.3811Y-2.2441
X3.4811Y-1.2441
X3.4811Y-2.2441
X3.6122Y-1.2598
X3.6122Y-1.437
X3.8583Y-1.6004
X3.8583Y-1.7004
X3.8583Y-1.8004
X3.8583Y-1.9004
X3.8583Y-2.0004
X3.8583Y-2.1004
X3.8681Y-1.2598
X3.8681Y-1.437
T3
X1.4157Y-1.2941
X1.5157Y-1.2941
X1.6157Y-1.2941
X1.6811Y-1.5728
X1.6811Y-1.7228
T5
X1.2243Y-2.3019
X1.4843Y-2.3019
T6
X1.2598Y-1.2598
X1.6732Y-2.1654
X3.4449Y-1.378
X3.8583Y-2.2835
T4
X1.2973Y-1.8072G85X1.4113Y-1.8072
G05
X1.3073Y-2.0472G85X1.4013Y-2.0472
G05
X1.5543Y-1.9692G85X1.5543Y-1.8752
G05
T0
M30
