G04 #@! TF.FileFunction,Copper,L2,Bot,Signal*
%FSLAX46Y46*%
G04 Gerber Fmt 4.6, Leading zero omitted, Abs format (unit mm)*
G04 Created by KiCad (PCBNEW (2014-11-14 BZR 5284)-product) date Mon Dec  1 17:56:24 2014*
%MOMM*%
G01*
G04 APERTURE LIST*
%ADD10C,0.100000*%
%ADD11C,1.778000*%
%ADD12R,1.778000X1.778000*%
%ADD13R,1.500000X1.300000*%
%ADD14C,3.048000*%
%ADD15R,4.572000X3.048000*%
%ADD16O,4.572000X3.048000*%
%ADD17O,3.048000X4.572000*%
%ADD18C,1.524000*%
%ADD19R,1.524000X1.524000*%
%ADD20O,1.727200X2.032000*%
%ADD21R,1.727200X2.032000*%
%ADD22C,1.676400*%
%ADD23R,1.676400X1.676400*%
%ADD24R,1.500000X1.250000*%
%ADD25R,1.250000X1.500000*%
%ADD26O,1.574800X2.286000*%
%ADD27R,1.574800X2.286000*%
%ADD28R,0.406400X1.371600*%
%ADD29R,1.600200X1.422400*%
%ADD30R,1.905000X1.905000*%
%ADD31C,1.905000*%
%ADD32C,1.501140*%
%ADD33R,1.501140X1.501140*%
%ADD34C,1.998980*%
%ADD35R,1.998980X1.998980*%
%ADD36C,0.900000*%
%ADD37C,0.500000*%
%ADD38C,0.254000*%
%ADD39C,0.250000*%
G04 APERTURE END LIST*
D10*
X110000000Y-46000000D02*
X110000000Y-58000000D01*
X100000000Y-46000000D02*
X110000000Y-46000000D01*
X100000000Y-58000000D02*
X100000000Y-46000000D01*
X110000000Y-44000000D02*
X110000000Y-32000000D01*
X100000000Y-44000000D02*
X110000000Y-44000000D01*
X100000000Y-32000000D02*
X100000000Y-44000000D01*
X123000000Y-30000000D02*
X112000000Y-30000000D01*
X125000000Y-58000000D02*
X125000000Y-32000000D01*
X112000000Y-60000000D02*
X123000000Y-60000000D01*
X123000000Y-60000000D02*
G75*
G03X125000000Y-58000000I0J2000000D01*
G01*
X110000000Y-58000000D02*
G75*
G03X112000000Y-60000000I2000000J0D01*
G01*
X125000000Y-32000000D02*
G75*
G03X123000000Y-30000000I-2000000J0D01*
G01*
X112000000Y-30000000D02*
G75*
G03X110000000Y-32000000I0J-2000000D01*
G01*
X100000000Y-32000000D02*
G75*
G03X98000000Y-30000000I-2000000J0D01*
G01*
X98000000Y-60000000D02*
G75*
G03X100000000Y-58000000I0J2000000D01*
G01*
X32000000Y-30000000D02*
G75*
G03X30000000Y-32000000I0J-2000000D01*
G01*
X30000000Y-60000000D02*
X30000000Y-32000000D01*
X98000000Y-60000000D02*
X30000000Y-60000000D01*
X32000000Y-30000000D02*
X98000000Y-30000000D01*
D11*
X35960000Y-33000000D03*
D12*
X38500000Y-33000000D03*
D11*
X41040000Y-33000000D03*
D12*
X98250000Y-32000000D03*
D11*
X91750000Y-36500000D03*
X98250000Y-36500000D03*
D12*
X91750000Y-32000000D03*
D13*
X54350000Y-53700000D03*
X51650000Y-53700000D03*
X45850000Y-53700000D03*
X48550000Y-53700000D03*
X81750000Y-46000000D03*
X84450000Y-46000000D03*
D14*
X98000000Y-58000000D03*
X42500000Y-55000000D03*
D15*
X34400000Y-52000000D03*
D16*
X34400000Y-45904000D03*
D17*
X39480000Y-48825000D03*
D18*
X48160000Y-37370000D03*
X48160000Y-34830000D03*
X50700000Y-37370000D03*
X50700000Y-34830000D03*
X53240000Y-37370000D03*
D19*
X53240000Y-34830000D03*
D20*
X65890000Y-31600000D03*
X63350000Y-31600000D03*
X60810000Y-31600000D03*
X58270000Y-31600000D03*
X55730000Y-31600000D03*
X53190000Y-31600000D03*
D21*
X50650000Y-31600000D03*
D20*
X48110000Y-31600000D03*
X88790000Y-31600000D03*
X86250000Y-31600000D03*
X83710000Y-31600000D03*
X81170000Y-31600000D03*
X78630000Y-31600000D03*
X76090000Y-31600000D03*
X73550000Y-31600000D03*
X71010000Y-31600000D03*
X76090000Y-57000000D03*
X78630000Y-57000000D03*
X81170000Y-57000000D03*
X83710000Y-57000000D03*
X86250000Y-57000000D03*
X88790000Y-57000000D03*
X58310000Y-57000000D03*
X60850000Y-57000000D03*
X63390000Y-57000000D03*
D21*
X65930000Y-57000000D03*
X68470000Y-57000000D03*
D20*
X71010000Y-57000000D03*
D18*
X45000000Y-31710000D03*
X45000000Y-34250000D03*
X45000000Y-36790000D03*
D22*
X51700000Y-56230000D03*
D23*
X51700000Y-58770000D03*
D22*
X47200000Y-56230000D03*
D23*
X47200000Y-58770000D03*
D24*
X60550000Y-46800000D03*
X58050000Y-46800000D03*
X64250000Y-46800000D03*
X66750000Y-46800000D03*
X88050000Y-46000000D03*
X90550000Y-46000000D03*
X70750000Y-46800000D03*
X73250000Y-46800000D03*
D25*
X39000000Y-38500000D03*
X39000000Y-36000000D03*
X36000000Y-36000000D03*
X36000000Y-38500000D03*
D24*
X64250000Y-53700000D03*
X66750000Y-53700000D03*
D26*
X82970000Y-42990000D03*
X80430000Y-42990000D03*
X77890000Y-42990000D03*
X75350000Y-42990000D03*
X72810000Y-42990000D03*
X70270000Y-42990000D03*
D27*
X67730000Y-42990000D03*
D26*
X65190000Y-42990000D03*
X62650000Y-42990000D03*
X60110000Y-42990000D03*
X57570000Y-42990000D03*
X55030000Y-42990000D03*
X52490000Y-42990000D03*
X85510000Y-42990000D03*
X52490000Y-50610000D03*
X55030000Y-50610000D03*
X57570000Y-50610000D03*
X60110000Y-50610000D03*
X62650000Y-50610000D03*
X65190000Y-50610000D03*
X67730000Y-50610000D03*
D27*
X70270000Y-50610000D03*
D26*
X72810000Y-50610000D03*
X75350000Y-50610000D03*
X77890000Y-50610000D03*
X80430000Y-50610000D03*
X82970000Y-50610000D03*
X85510000Y-50610000D03*
D19*
X98000000Y-53350000D03*
X98000000Y-50810000D03*
D18*
X98000000Y-48270000D03*
X98000000Y-45730000D03*
X98000000Y-43190000D03*
X98000000Y-40650000D03*
D28*
X34400000Y-55800000D03*
X33749760Y-55800000D03*
X33099520Y-55800000D03*
X35050240Y-55800000D03*
X35700480Y-55800000D03*
D29*
X37575000Y-56054000D03*
X31225000Y-56054000D03*
D30*
X35606500Y-58467000D03*
X33193500Y-58467000D03*
D31*
X37702000Y-58467000D03*
X31098000Y-58467000D03*
D32*
X64240940Y-36100000D03*
X59359060Y-36100000D03*
D33*
X61800000Y-36100000D03*
D34*
X41500000Y-44750000D03*
D35*
X41500000Y-40940000D03*
D14*
X32000000Y-32000000D03*
X87500000Y-35000000D03*
D18*
X70060000Y-36000000D03*
X72600000Y-36000000D03*
X75140000Y-36000000D03*
D33*
X33800000Y-38760000D03*
D32*
X33800000Y-41300000D03*
D22*
X117500000Y-37730000D03*
X117500000Y-40270000D03*
D19*
X111150000Y-54000000D03*
X113690000Y-54000000D03*
D18*
X116230000Y-54000000D03*
X118770000Y-54000000D03*
X121310000Y-54000000D03*
X123850000Y-54000000D03*
D31*
X120802000Y-31583000D03*
X114198000Y-31583000D03*
D14*
X123000000Y-58000000D03*
X112000000Y-58000000D03*
D19*
X43000000Y-50520000D03*
D18*
X43000000Y-47980000D03*
D36*
X123000000Y-37750000D03*
X121000000Y-42250000D03*
X119000000Y-42250000D03*
X116500000Y-42250000D03*
D37*
X43000000Y-46500000D02*
X44000000Y-45500000D01*
X43000000Y-47980000D02*
X43000000Y-46500000D01*
X45000000Y-34250000D02*
X45288800Y-34250000D01*
X64250000Y-53196800D02*
X64250000Y-53700000D01*
X81750000Y-46000000D02*
X81750000Y-46376000D01*
X70270000Y-42990000D02*
X70270000Y-36210000D01*
X70270000Y-36210000D02*
X70060000Y-36000000D01*
X70270000Y-42990000D02*
X70270000Y-45092150D01*
X70270000Y-45092150D02*
X76892150Y-45092150D01*
X65190000Y-49210000D02*
X65190000Y-50610000D01*
X65800000Y-48600000D02*
X65190000Y-49210000D01*
X67700000Y-48600000D02*
X65800000Y-48600000D01*
X68700000Y-47600000D02*
X67700000Y-48600000D01*
X69692150Y-45092150D02*
X70270000Y-45092150D01*
X69692150Y-45092150D02*
X68700000Y-46084300D01*
X68700000Y-46084300D02*
X68700000Y-47600000D01*
X64250000Y-52950000D02*
X65190000Y-52010000D01*
X65190000Y-52010000D02*
X65190000Y-50610000D01*
X64250000Y-53700000D02*
X64250000Y-52950000D01*
X46830000Y-34830000D02*
X48160000Y-34830000D01*
X46250000Y-34250000D02*
X46830000Y-34830000D01*
X45000000Y-34250000D02*
X46250000Y-34250000D01*
X46830000Y-38730000D02*
X46830000Y-34830000D01*
X81750000Y-47150000D02*
X82400000Y-47800000D01*
X82400000Y-47800000D02*
X95700000Y-47800000D01*
X95700000Y-47800000D02*
X96170000Y-48270000D01*
X96170000Y-48270000D02*
X98000000Y-48270000D01*
X81750000Y-46000000D02*
X81750000Y-47150000D01*
X77800000Y-46000000D02*
X76892150Y-45092150D01*
X81750000Y-46000000D02*
X77800000Y-46000000D01*
X48550000Y-40450000D02*
X46830000Y-38730000D01*
X48550000Y-53700000D02*
X48550000Y-40450000D01*
X43250000Y-38500000D02*
X39000000Y-38500000D01*
X43750000Y-34250000D02*
X43250000Y-34750000D01*
X43250000Y-34750000D02*
X43250000Y-38500000D01*
X45000000Y-34250000D02*
X43750000Y-34250000D01*
X44000000Y-45500000D02*
X44000000Y-39250000D01*
X44000000Y-39250000D02*
X43250000Y-38500000D01*
X64250000Y-54750000D02*
X63390000Y-55610000D01*
X63390000Y-55610000D02*
X63390000Y-57000000D01*
X64250000Y-53700000D02*
X64250000Y-54750000D01*
X70270000Y-50610000D02*
X70270000Y-52930000D01*
X70270000Y-52930000D02*
X69500000Y-53700000D01*
X67250000Y-57000000D02*
X68470000Y-57000000D01*
X65930000Y-57000000D02*
X67250000Y-57000000D01*
X66750000Y-53700000D02*
X67315700Y-53700000D01*
D38*
X33099500Y-56054000D02*
X33099500Y-55800000D01*
D37*
X98000000Y-50810000D02*
X98000000Y-53350000D01*
X66750000Y-46800000D02*
X66750000Y-45793700D01*
X67730000Y-42990000D02*
X67730000Y-44813700D01*
X67730000Y-44813700D02*
X66750000Y-45793700D01*
D38*
X33099500Y-56333500D02*
X33099500Y-56054000D01*
D37*
X37575000Y-57870200D02*
X37537100Y-57870200D01*
X37702000Y-57997200D02*
X37575000Y-57870200D01*
X69500000Y-53700000D02*
X66750000Y-53700000D01*
X61800000Y-34900000D02*
X62300000Y-34400000D01*
X62300000Y-34400000D02*
X66600000Y-34400000D01*
X66600000Y-34400000D02*
X67730000Y-35530000D01*
X67730000Y-35530000D02*
X67730000Y-42990000D01*
X61800000Y-36100000D02*
X61800000Y-34900000D01*
X31700000Y-52000000D02*
X34400000Y-52000000D01*
X31100000Y-51400000D02*
X31700000Y-52000000D01*
X31100000Y-40200000D02*
X31100000Y-51400000D01*
X32540000Y-38760000D02*
X31100000Y-40200000D01*
X33800000Y-38760000D02*
X32540000Y-38760000D01*
X38500000Y-34100000D02*
X39000000Y-34600000D01*
X39000000Y-34600000D02*
X39000000Y-36000000D01*
X38500000Y-33000000D02*
X38500000Y-34100000D01*
X55330000Y-34830000D02*
X56300000Y-35800000D01*
X53240000Y-34830000D02*
X55330000Y-34830000D01*
X31098000Y-56181000D02*
X31225000Y-56054000D01*
X31098000Y-58467000D02*
X31098000Y-56181000D01*
X31098000Y-58467000D02*
X33193500Y-58467000D01*
X37702000Y-58467000D02*
X35606500Y-58467000D01*
X35606500Y-58467000D02*
X33193500Y-58467000D01*
X37702000Y-56181000D02*
X37575000Y-56054000D01*
X37702000Y-58467000D02*
X37702000Y-56181000D01*
X33193500Y-57193500D02*
X33099520Y-57099520D01*
D38*
X33099520Y-57099520D02*
X33099520Y-55800000D01*
D37*
X33193500Y-58467000D02*
X33193500Y-57193500D01*
X34400000Y-53500000D02*
X34400000Y-52000000D01*
X33099520Y-54800480D02*
X34400000Y-53500000D01*
D38*
X33099520Y-55800000D02*
X33099520Y-54800480D01*
D37*
X92710000Y-50810000D02*
X90600000Y-48700000D01*
X73250000Y-48700000D02*
X70900000Y-48700000D01*
X90600000Y-48700000D02*
X73250000Y-48700000D01*
X70900000Y-48700000D02*
X70270000Y-49330000D01*
X70270000Y-49330000D02*
X70270000Y-50610000D01*
X98000000Y-50810000D02*
X92710000Y-50810000D01*
X73250000Y-46800000D02*
X73250000Y-48700000D01*
X55600000Y-46800000D02*
X54900000Y-46100000D01*
X54900000Y-46100000D02*
X51800000Y-46100000D01*
X51800000Y-46100000D02*
X50900000Y-45200000D01*
X50900000Y-45200000D02*
X50900000Y-41600000D01*
X50900000Y-41600000D02*
X51900000Y-40600000D01*
X51900000Y-40600000D02*
X55400000Y-40600000D01*
X55400000Y-40600000D02*
X56300000Y-39700000D01*
X56300000Y-39700000D02*
X56300000Y-35800000D01*
X58050000Y-46800000D02*
X55600000Y-46800000D01*
X45759200Y-30359200D02*
X46500000Y-31100000D01*
X46500000Y-31100000D02*
X46500000Y-32900000D01*
X46500000Y-32900000D02*
X47000000Y-33400000D01*
X47000000Y-33400000D02*
X48850000Y-33400000D01*
X48850000Y-33400000D02*
X50650000Y-31600000D01*
X38500000Y-30359200D02*
X45759200Y-30359200D01*
X38500000Y-33000000D02*
X38500000Y-30359200D01*
X36000000Y-36000000D02*
X34200000Y-36000000D01*
X34200000Y-31200000D02*
X35040800Y-30359200D01*
X35040800Y-30359200D02*
X38500000Y-30359200D01*
X34200000Y-31200000D02*
X34200000Y-36000000D01*
X33800000Y-36400000D02*
X34200000Y-36000000D01*
X33800000Y-38760000D02*
X33800000Y-36400000D01*
X98250000Y-32000000D02*
X91750000Y-32000000D01*
X51700000Y-58770000D02*
X47200000Y-58770000D01*
X42270000Y-58770000D02*
X41967000Y-58467000D01*
X41967000Y-58467000D02*
X37702000Y-58467000D01*
X47200000Y-58770000D02*
X42270000Y-58770000D01*
X40500000Y-52000000D02*
X34400000Y-52000000D01*
X41980000Y-50520000D02*
X40500000Y-52000000D01*
X43000000Y-50520000D02*
X41980000Y-50520000D01*
X66750000Y-54812000D02*
X67250000Y-55312000D01*
X67250000Y-55312000D02*
X67250000Y-57000000D01*
X66750000Y-53700000D02*
X66750000Y-54812000D01*
X65930000Y-58070000D02*
X65230000Y-58770000D01*
X65230000Y-58770000D02*
X51700000Y-58770000D01*
X65930000Y-57000000D02*
X65930000Y-58070000D01*
X36000000Y-40900000D02*
X35600000Y-41300000D01*
X35600000Y-41300000D02*
X33800000Y-41300000D01*
X36000000Y-38500000D02*
X36000000Y-40900000D01*
D39*
X86200000Y-46000000D02*
X88050000Y-46000000D01*
X84450000Y-46000000D02*
X86200000Y-46000000D01*
X86200000Y-44900000D02*
X86200000Y-46000000D01*
X85510000Y-44210000D02*
X86200000Y-44900000D01*
X85510000Y-42990000D02*
X85510000Y-44210000D01*
X90510000Y-42990000D02*
X85510000Y-42990000D01*
X91500000Y-42000000D02*
X90510000Y-42990000D01*
X91750000Y-36500000D02*
X91500000Y-42000000D01*
X98250000Y-36500000D02*
X91750000Y-36500000D01*
X95350000Y-40650000D02*
X94600000Y-41400000D01*
X94600000Y-41400000D02*
X94600000Y-45100000D01*
X98000000Y-40650000D02*
X95350000Y-40650000D01*
X93700000Y-46000000D02*
X94600000Y-45100000D01*
X90550000Y-46000000D02*
X93700000Y-46000000D01*
X47200000Y-56230000D02*
X45850000Y-54880000D01*
X45850000Y-54880000D02*
X45850000Y-53700000D01*
X51700000Y-56230000D02*
X51650000Y-56180000D01*
X51650000Y-56180000D02*
X51650000Y-53700000D01*
D37*
X45000000Y-36790000D02*
X45000000Y-38400000D01*
X41250000Y-52750000D02*
X39900000Y-54100000D01*
X46900000Y-52100000D02*
X46000000Y-52100000D01*
X47500000Y-51500000D02*
X46900000Y-52100000D01*
X47500000Y-40900000D02*
X47500000Y-51500000D01*
X45000000Y-38400000D02*
X47500000Y-40900000D01*
X35700480Y-54699520D02*
X36300000Y-54100000D01*
X36300000Y-54100000D02*
X39900000Y-54100000D01*
D38*
X35700480Y-55800000D02*
X35700480Y-54699520D01*
D37*
X44900000Y-52100000D02*
X44250000Y-52750000D01*
X44250000Y-52750000D02*
X41250000Y-52750000D01*
X46000000Y-52100000D02*
X44900000Y-52100000D01*
D39*
X70750000Y-46800000D02*
X70750000Y-47303100D01*
X67730000Y-49470000D02*
X68900000Y-48300000D01*
X68900000Y-48300000D02*
X70100000Y-48300000D01*
X70100000Y-48300000D02*
X70750000Y-47650000D01*
X70750000Y-47650000D02*
X70750000Y-46800000D01*
X67730000Y-50610000D02*
X67730000Y-49470000D01*
X88790000Y-32590000D02*
X88790000Y-31600000D01*
X82970000Y-42990000D02*
X82970000Y-41620000D01*
X89200000Y-40570000D02*
X89200000Y-37370000D01*
X88770000Y-41000000D02*
X89200000Y-40570000D01*
X83590000Y-41000000D02*
X88770000Y-41000000D01*
X82970000Y-41620000D02*
X83590000Y-41000000D01*
X88790000Y-32860000D02*
X89990000Y-34060000D01*
X89990000Y-34060000D02*
X89990000Y-36580000D01*
X89990000Y-36580000D02*
X89200000Y-37370000D01*
X88790000Y-31600000D02*
X88790000Y-32860000D01*
X77890000Y-41910000D02*
X77890000Y-42990000D01*
X61500000Y-33700000D02*
X60643200Y-34556800D01*
X60643200Y-34556800D02*
X60643200Y-37143200D01*
X60643200Y-37143200D02*
X63900000Y-40400000D01*
X63900000Y-40400000D02*
X63900000Y-44500000D01*
X63900000Y-44500000D02*
X62700000Y-45700000D01*
X62700000Y-45700000D02*
X62700000Y-48070500D01*
X62700000Y-48070500D02*
X63900000Y-49270500D01*
X62500000Y-52400000D02*
X60167000Y-54733000D01*
X60167000Y-54733000D02*
X53439100Y-54733000D01*
X53439100Y-54733000D02*
X52950800Y-54244700D01*
X52950800Y-54244700D02*
X52950800Y-52595100D01*
X52950800Y-52595100D02*
X52490000Y-52134300D01*
X52490000Y-50610000D02*
X52490000Y-52134300D01*
X63350000Y-32850000D02*
X62500000Y-33700000D01*
X62500000Y-33700000D02*
X61500000Y-33700000D01*
X63350000Y-31600000D02*
X63350000Y-32850000D01*
X63900000Y-52100000D02*
X63600000Y-52400000D01*
X63600000Y-52400000D02*
X62500000Y-52400000D01*
X63900000Y-49270500D02*
X63900000Y-52100000D01*
X58550000Y-34750000D02*
X58100000Y-35200000D01*
X58100000Y-35200000D02*
X58100000Y-36850000D01*
X58100000Y-36850000D02*
X58840000Y-37590000D01*
X58840000Y-37590000D02*
X58840000Y-44818500D01*
X58840000Y-44818500D02*
X59201800Y-45180300D01*
X59201800Y-45180300D02*
X59201800Y-49333600D01*
X59201800Y-49333600D02*
X58840000Y-49695400D01*
X56100000Y-52600000D02*
X58300000Y-52600000D01*
X58300000Y-52600000D02*
X58840000Y-52060000D01*
X58840000Y-52060000D02*
X58840000Y-49695400D01*
X55030000Y-51530000D02*
X56100000Y-52600000D01*
X55030000Y-50610000D02*
X55030000Y-51530000D01*
X60810000Y-33290000D02*
X59350000Y-34750000D01*
X59350000Y-34750000D02*
X58550000Y-34750000D01*
X60810000Y-31600000D02*
X60810000Y-33290000D01*
X57570000Y-50610000D02*
X54260000Y-47300000D01*
X51970000Y-36100000D02*
X50700000Y-34830000D01*
X51970000Y-38930000D02*
X50100000Y-40800000D01*
X50100000Y-40800000D02*
X50100000Y-45700000D01*
X50100000Y-45700000D02*
X51700000Y-47300000D01*
X51700000Y-47300000D02*
X54260000Y-47300000D01*
X51970000Y-36100000D02*
X51970000Y-38930000D01*
X49430000Y-34438400D02*
X50355200Y-33513200D01*
X49430000Y-36100000D02*
X49430000Y-34438400D01*
X48160000Y-37370000D02*
X49430000Y-36100000D01*
X55286800Y-33513200D02*
X55730000Y-33070000D01*
X55730000Y-33070000D02*
X55730000Y-31600000D01*
X50355200Y-33513200D02*
X55286800Y-33513200D01*
X62650000Y-51350000D02*
X62650000Y-50610000D01*
X60300000Y-53700000D02*
X62650000Y-51350000D01*
X54350000Y-53700000D02*
X60300000Y-53700000D01*
X53800000Y-51900000D02*
X54350000Y-52450000D01*
X54350000Y-52450000D02*
X54350000Y-53700000D01*
X53800000Y-48700000D02*
X53800000Y-51900000D01*
X50700000Y-38800000D02*
X49500000Y-40000000D01*
X49500000Y-40000000D02*
X49500000Y-45950000D01*
X49500000Y-45950000D02*
X51450000Y-47900000D01*
X51450000Y-47900000D02*
X53000000Y-47900000D01*
X53000000Y-47900000D02*
X53800000Y-48700000D01*
X50700000Y-37370000D02*
X50700000Y-38800000D01*
X64240940Y-36100000D02*
X64240940Y-39240940D01*
X64240940Y-39240940D02*
X65190000Y-40190000D01*
X65190000Y-40190000D02*
X65190000Y-42990000D01*
X64250000Y-46800000D02*
X64250000Y-45454300D01*
X64250000Y-45454300D02*
X65190000Y-44514300D01*
X65190000Y-42990000D02*
X65190000Y-44514300D01*
X62650000Y-42990000D02*
X62204500Y-42990000D01*
X62650000Y-44450000D02*
X62000000Y-45100000D01*
X62000000Y-45100000D02*
X61000000Y-45100000D01*
X61000000Y-45100000D02*
X60550000Y-45550000D01*
X60550000Y-45550000D02*
X60550000Y-46800000D01*
X62650000Y-42990000D02*
X62650000Y-44450000D01*
X62650000Y-40350000D02*
X59359060Y-37059060D01*
X59359060Y-37059060D02*
X59359060Y-36100000D01*
X62650000Y-42990000D02*
X62650000Y-40350000D01*
X123000000Y-43000000D02*
X116230000Y-49770000D01*
X116230000Y-49770000D02*
X116230000Y-54000000D01*
X123000000Y-37750000D02*
X123000000Y-43000000D01*
X121000000Y-38750000D02*
X119980000Y-37730000D01*
X119980000Y-37730000D02*
X117500000Y-37730000D01*
X121000000Y-42250000D02*
X121000000Y-38750000D01*
X119000000Y-42250000D02*
X116500000Y-42250000D01*
D38*
G36*
X31291747Y-58481142D02*
X31112142Y-58660747D01*
X31098000Y-58646605D01*
X31083857Y-58660747D01*
X30904252Y-58481142D01*
X30918395Y-58467000D01*
X30904252Y-58452857D01*
X31083857Y-58273252D01*
X31098000Y-58287395D01*
X31112142Y-58273252D01*
X31291747Y-58452857D01*
X31277605Y-58467000D01*
X31291747Y-58481142D01*
X31291747Y-58481142D01*
G37*
X31291747Y-58481142D02*
X31112142Y-58660747D01*
X31098000Y-58646605D01*
X31083857Y-58660747D01*
X30904252Y-58481142D01*
X30918395Y-58467000D01*
X30904252Y-58452857D01*
X31083857Y-58273252D01*
X31098000Y-58287395D01*
X31112142Y-58273252D01*
X31291747Y-58452857D01*
X31277605Y-58467000D01*
X31291747Y-58481142D01*
G36*
X35753500Y-58594000D02*
X35733500Y-58594000D01*
X35733500Y-58614000D01*
X35479500Y-58614000D01*
X35479500Y-58594000D01*
X34622250Y-58594000D01*
X34177750Y-58594000D01*
X33320500Y-58594000D01*
X33320500Y-58614000D01*
X33066500Y-58614000D01*
X33066500Y-58594000D01*
X33046500Y-58594000D01*
X33046500Y-58340000D01*
X33066500Y-58340000D01*
X33066500Y-58320000D01*
X33320500Y-58320000D01*
X33320500Y-58340000D01*
X34177750Y-58340000D01*
X34622250Y-58340000D01*
X35479500Y-58340000D01*
X35479500Y-58320000D01*
X35733500Y-58320000D01*
X35733500Y-58340000D01*
X35753500Y-58340000D01*
X35753500Y-58594000D01*
X35753500Y-58594000D01*
G37*
X35753500Y-58594000D02*
X35733500Y-58594000D01*
X35733500Y-58614000D01*
X35479500Y-58614000D01*
X35479500Y-58594000D01*
X34622250Y-58594000D01*
X34177750Y-58594000D01*
X33320500Y-58594000D01*
X33320500Y-58614000D01*
X33066500Y-58614000D01*
X33066500Y-58594000D01*
X33046500Y-58594000D01*
X33046500Y-58340000D01*
X33066500Y-58340000D01*
X33066500Y-58320000D01*
X33320500Y-58320000D01*
X33320500Y-58340000D01*
X34177750Y-58340000D01*
X34622250Y-58340000D01*
X35479500Y-58340000D01*
X35479500Y-58320000D01*
X35733500Y-58320000D01*
X35733500Y-58340000D01*
X35753500Y-58340000D01*
X35753500Y-58594000D01*
G36*
X46615000Y-51133420D02*
X46533420Y-51215000D01*
X46000000Y-51215000D01*
X44900005Y-51215000D01*
X44900000Y-51214999D01*
X44617515Y-51271189D01*
X44561325Y-51282367D01*
X44397000Y-51392164D01*
X44397000Y-50805750D01*
X44238250Y-50647000D01*
X43127000Y-50647000D01*
X43127000Y-50667000D01*
X42873000Y-50667000D01*
X42873000Y-50647000D01*
X41761750Y-50647000D01*
X41603000Y-50805750D01*
X41603000Y-51408309D01*
X41699673Y-51641698D01*
X41878301Y-51820327D01*
X41986151Y-51865000D01*
X41250000Y-51865000D01*
X40911325Y-51932367D01*
X40624210Y-52124210D01*
X40624207Y-52124213D01*
X39533420Y-53215000D01*
X37321000Y-53215000D01*
X37321000Y-52285750D01*
X37321000Y-51714250D01*
X37321000Y-50349691D01*
X37224327Y-50116302D01*
X37045699Y-49937673D01*
X36812310Y-49841000D01*
X36559691Y-49841000D01*
X34685750Y-49841000D01*
X34527000Y-49999750D01*
X34527000Y-51873000D01*
X37162250Y-51873000D01*
X37321000Y-51714250D01*
X37321000Y-52285750D01*
X37162250Y-52127000D01*
X34527000Y-52127000D01*
X34527000Y-54000250D01*
X34685750Y-54159000D01*
X35017714Y-54159000D01*
X34882847Y-54360846D01*
X34859304Y-54479200D01*
X34729510Y-54479200D01*
X34720731Y-54479200D01*
X34476891Y-54479200D01*
X34273000Y-54479200D01*
X34273000Y-54000250D01*
X34273000Y-52127000D01*
X34273000Y-51873000D01*
X34273000Y-49999750D01*
X34114250Y-49841000D01*
X32240309Y-49841000D01*
X31987690Y-49841000D01*
X31754301Y-49937673D01*
X31575673Y-50116302D01*
X31479000Y-50349691D01*
X31479000Y-51714250D01*
X31637750Y-51873000D01*
X34273000Y-51873000D01*
X34273000Y-52127000D01*
X31637750Y-52127000D01*
X31479000Y-52285750D01*
X31479000Y-53650309D01*
X31575673Y-53883698D01*
X31754301Y-54062327D01*
X31987690Y-54159000D01*
X32240309Y-54159000D01*
X34114250Y-54159000D01*
X34273000Y-54000250D01*
X34273000Y-54479200D01*
X34079270Y-54479200D01*
X34070491Y-54479200D01*
X33826651Y-54479200D01*
X33429030Y-54479200D01*
X33420251Y-54479200D01*
X33359870Y-54479200D01*
X33317174Y-54521895D01*
X33186862Y-54575873D01*
X33008233Y-54754501D01*
X32997920Y-54779398D01*
X32997920Y-54637950D01*
X32839170Y-54479200D01*
X32770010Y-54479200D01*
X32536621Y-54575873D01*
X32357993Y-54754502D01*
X32344251Y-54787677D01*
X32151410Y-54707800D01*
X31898791Y-54707800D01*
X31510750Y-54707800D01*
X31352000Y-54866550D01*
X31352000Y-55927000D01*
X31372000Y-55927000D01*
X31372000Y-56181000D01*
X31352000Y-56181000D01*
X31352000Y-56201000D01*
X31098000Y-56201000D01*
X31098000Y-56181000D01*
X31078000Y-56181000D01*
X31078000Y-55927000D01*
X31098000Y-55927000D01*
X31098000Y-54866550D01*
X30939250Y-54707800D01*
X30685000Y-54707800D01*
X30685000Y-33738657D01*
X30775428Y-33829244D01*
X31568664Y-34158624D01*
X32427567Y-34159374D01*
X33221377Y-33831378D01*
X33829244Y-33224572D01*
X34158624Y-32431336D01*
X34159374Y-31572433D01*
X33831378Y-30778623D01*
X33737918Y-30685000D01*
X44049407Y-30685000D01*
X43816371Y-30917630D01*
X43603243Y-31430900D01*
X43602758Y-31986661D01*
X43814990Y-32500303D01*
X44207630Y-32893629D01*
X44415512Y-32979949D01*
X44209697Y-33064990D01*
X43909162Y-33365000D01*
X43750005Y-33365000D01*
X43750000Y-33364999D01*
X43467515Y-33421189D01*
X43411325Y-33432367D01*
X43124210Y-33624210D01*
X43124207Y-33624213D01*
X42624210Y-34124210D01*
X42564264Y-34213926D01*
X42564264Y-32698188D01*
X42332738Y-32137851D01*
X41904404Y-31708769D01*
X41344472Y-31476265D01*
X40738188Y-31475736D01*
X40177851Y-31707262D01*
X39987707Y-31897073D01*
X39927327Y-31751302D01*
X39748699Y-31572673D01*
X39515310Y-31476000D01*
X39262691Y-31476000D01*
X38785750Y-31476000D01*
X38627000Y-31634750D01*
X38627000Y-32873000D01*
X38647000Y-32873000D01*
X38647000Y-33127000D01*
X38627000Y-33127000D01*
X38627000Y-34365250D01*
X38785750Y-34524000D01*
X39262691Y-34524000D01*
X39515310Y-34524000D01*
X39748699Y-34427327D01*
X39927327Y-34248698D01*
X39987681Y-34102988D01*
X40175596Y-34291231D01*
X40735528Y-34523735D01*
X41341812Y-34524264D01*
X41902149Y-34292738D01*
X42331231Y-33864404D01*
X42563735Y-33304472D01*
X42564264Y-32698188D01*
X42564264Y-34213926D01*
X42432367Y-34411325D01*
X42421189Y-34467515D01*
X42364999Y-34750000D01*
X42365000Y-34750005D01*
X42365000Y-37615000D01*
X40256400Y-37615000D01*
X40163327Y-37390302D01*
X40023025Y-37250000D01*
X40163327Y-37109698D01*
X40260000Y-36876309D01*
X40260000Y-36285750D01*
X40260000Y-35714250D01*
X40260000Y-35123691D01*
X40163327Y-34890302D01*
X39984699Y-34711673D01*
X39751310Y-34615000D01*
X39498691Y-34615000D01*
X39285750Y-34615000D01*
X39127000Y-34773750D01*
X39127000Y-35873000D01*
X40101250Y-35873000D01*
X40260000Y-35714250D01*
X40260000Y-36285750D01*
X40101250Y-36127000D01*
X39127000Y-36127000D01*
X39127000Y-36147000D01*
X38873000Y-36147000D01*
X38873000Y-36127000D01*
X38873000Y-35873000D01*
X38873000Y-34773750D01*
X38714250Y-34615000D01*
X38501309Y-34615000D01*
X38373000Y-34615000D01*
X38373000Y-34365250D01*
X38373000Y-33127000D01*
X38353000Y-33127000D01*
X38353000Y-32873000D01*
X38373000Y-32873000D01*
X38373000Y-31634750D01*
X38214250Y-31476000D01*
X37737309Y-31476000D01*
X37484690Y-31476000D01*
X37251301Y-31572673D01*
X37072673Y-31751302D01*
X37012318Y-31897011D01*
X36824404Y-31708769D01*
X36264472Y-31476265D01*
X35658188Y-31475736D01*
X35097851Y-31707262D01*
X34668769Y-32135596D01*
X34436265Y-32695528D01*
X34435736Y-33301812D01*
X34667262Y-33862149D01*
X35095596Y-34291231D01*
X35655528Y-34523735D01*
X36261812Y-34524264D01*
X36822149Y-34292738D01*
X37012292Y-34102926D01*
X37072673Y-34248698D01*
X37251301Y-34427327D01*
X37484690Y-34524000D01*
X37737309Y-34524000D01*
X38214250Y-34524000D01*
X38373000Y-34365250D01*
X38373000Y-34615000D01*
X38248690Y-34615000D01*
X38015301Y-34711673D01*
X37836673Y-34890302D01*
X37740000Y-35123691D01*
X37740000Y-35714250D01*
X37898750Y-35873000D01*
X38873000Y-35873000D01*
X38873000Y-36127000D01*
X37898750Y-36127000D01*
X37740000Y-36285750D01*
X37740000Y-36876309D01*
X37836673Y-37109698D01*
X37976974Y-37250000D01*
X37836673Y-37390301D01*
X37740000Y-37623690D01*
X37740000Y-37876309D01*
X37740000Y-39376309D01*
X37836673Y-39609698D01*
X38015301Y-39788327D01*
X38248690Y-39885000D01*
X38501309Y-39885000D01*
X39751309Y-39885000D01*
X39865510Y-39837696D01*
X39865510Y-40066819D01*
X39865510Y-42065799D01*
X39962183Y-42299188D01*
X40140811Y-42477817D01*
X40374200Y-42574490D01*
X40626819Y-42574490D01*
X42625799Y-42574490D01*
X42859188Y-42477817D01*
X43037817Y-42299189D01*
X43115000Y-42112852D01*
X43115000Y-44378449D01*
X42886462Y-43825345D01*
X42427073Y-43365154D01*
X41826547Y-43115794D01*
X41176306Y-43115226D01*
X40575345Y-43363538D01*
X40115154Y-43822927D01*
X39865794Y-44423453D01*
X39865226Y-45073694D01*
X40113538Y-45674655D01*
X40572927Y-46134846D01*
X41173453Y-46384206D01*
X41823694Y-46384774D01*
X42166058Y-46243311D01*
X42114999Y-46500000D01*
X42115000Y-46500005D01*
X42115000Y-46889521D01*
X41816371Y-47187630D01*
X41603243Y-47700900D01*
X41603134Y-47825464D01*
X41474656Y-47179560D01*
X41006644Y-46479130D01*
X40306214Y-46011118D01*
X39480000Y-45846774D01*
X38653786Y-46011118D01*
X37953356Y-46479130D01*
X37485344Y-47179560D01*
X37378226Y-47718079D01*
X37378226Y-45904000D01*
X37260000Y-45309637D01*
X37260000Y-39376310D01*
X37260000Y-39123691D01*
X37260000Y-37623691D01*
X37163327Y-37390302D01*
X37023025Y-37250000D01*
X37163327Y-37109698D01*
X37260000Y-36876309D01*
X37260000Y-36285750D01*
X37260000Y-35714250D01*
X37260000Y-35123691D01*
X37163327Y-34890302D01*
X36984699Y-34711673D01*
X36751310Y-34615000D01*
X36498691Y-34615000D01*
X36285750Y-34615000D01*
X36127000Y-34773750D01*
X36127000Y-35873000D01*
X37101250Y-35873000D01*
X37260000Y-35714250D01*
X37260000Y-36285750D01*
X37101250Y-36127000D01*
X36127000Y-36127000D01*
X36127000Y-36147000D01*
X35873000Y-36147000D01*
X35873000Y-36127000D01*
X35873000Y-35873000D01*
X35873000Y-34773750D01*
X35714250Y-34615000D01*
X35501309Y-34615000D01*
X35248690Y-34615000D01*
X35015301Y-34711673D01*
X34836673Y-34890302D01*
X34740000Y-35123691D01*
X34740000Y-35714250D01*
X34898750Y-35873000D01*
X35873000Y-35873000D01*
X35873000Y-36127000D01*
X34898750Y-36127000D01*
X34740000Y-36285750D01*
X34740000Y-36876309D01*
X34836673Y-37109698D01*
X34976974Y-37250000D01*
X34836673Y-37390301D01*
X34818883Y-37433249D01*
X34676880Y-37374430D01*
X34424261Y-37374430D01*
X34085750Y-37374430D01*
X33927000Y-37533180D01*
X33927000Y-38633000D01*
X33947000Y-38633000D01*
X33947000Y-38887000D01*
X33927000Y-38887000D01*
X33927000Y-38907000D01*
X33673000Y-38907000D01*
X33673000Y-38887000D01*
X33673000Y-38633000D01*
X33673000Y-37533180D01*
X33514250Y-37374430D01*
X33175739Y-37374430D01*
X32923120Y-37374430D01*
X32689731Y-37471103D01*
X32511103Y-37649732D01*
X32414430Y-37883121D01*
X32414430Y-38474250D01*
X32573180Y-38633000D01*
X33673000Y-38633000D01*
X33673000Y-38887000D01*
X32573180Y-38887000D01*
X32414430Y-39045750D01*
X32414430Y-39636879D01*
X32511103Y-39870268D01*
X32689731Y-40048897D01*
X32923120Y-40145570D01*
X32995242Y-40145570D01*
X32626056Y-40514113D01*
X32414671Y-41023184D01*
X32414190Y-41574398D01*
X32624686Y-42083837D01*
X33014113Y-42473944D01*
X33523184Y-42685329D01*
X34074398Y-42685810D01*
X34583837Y-42475314D01*
X34874657Y-42185000D01*
X35599994Y-42185000D01*
X35600000Y-42185001D01*
X35600000Y-42185000D01*
X35882484Y-42128810D01*
X35938674Y-42117633D01*
X35938675Y-42117633D01*
X36225790Y-41925790D01*
X36625786Y-41525792D01*
X36625789Y-41525790D01*
X36625790Y-41525790D01*
X36817633Y-41238675D01*
X36885000Y-40900000D01*
X36885000Y-39829623D01*
X36984698Y-39788327D01*
X37163327Y-39609699D01*
X37260000Y-39376310D01*
X37260000Y-45309637D01*
X37213882Y-45077786D01*
X36745870Y-44377356D01*
X36045440Y-43909344D01*
X35219226Y-43745000D01*
X33580774Y-43745000D01*
X32754560Y-43909344D01*
X32054130Y-44377356D01*
X31586118Y-45077786D01*
X31421774Y-45904000D01*
X31586118Y-46730214D01*
X32054130Y-47430644D01*
X32754560Y-47898656D01*
X33580774Y-48063000D01*
X35219226Y-48063000D01*
X36045440Y-47898656D01*
X36745870Y-47430644D01*
X37213882Y-46730214D01*
X37378226Y-45904000D01*
X37378226Y-47718079D01*
X37321000Y-48005774D01*
X37321000Y-49644226D01*
X37485344Y-50470440D01*
X37953356Y-51170870D01*
X38653786Y-51638882D01*
X39480000Y-51803226D01*
X40306214Y-51638882D01*
X41006644Y-51170870D01*
X41474656Y-50470440D01*
X41603000Y-49825210D01*
X41603000Y-50234250D01*
X41761750Y-50393000D01*
X42873000Y-50393000D01*
X42873000Y-50373000D01*
X43127000Y-50373000D01*
X43127000Y-50393000D01*
X44238250Y-50393000D01*
X44397000Y-50234250D01*
X44397000Y-49631691D01*
X44300327Y-49398302D01*
X44121699Y-49219673D01*
X43888310Y-49123000D01*
X43832386Y-49123000D01*
X44183629Y-48772370D01*
X44396757Y-48259100D01*
X44397242Y-47703339D01*
X44185010Y-47189697D01*
X43885000Y-46889162D01*
X43885000Y-46866579D01*
X44625786Y-46125792D01*
X44625790Y-46125790D01*
X44625790Y-46125789D01*
X44753975Y-45933946D01*
X44817633Y-45838675D01*
X44817634Y-45838674D01*
X44885000Y-45500000D01*
X44885001Y-45500000D01*
X44885000Y-45499994D01*
X44885000Y-39536579D01*
X46615000Y-41266579D01*
X46615000Y-51133420D01*
X46615000Y-51133420D01*
G37*
X46615000Y-51133420D02*
X46533420Y-51215000D01*
X46000000Y-51215000D01*
X44900005Y-51215000D01*
X44900000Y-51214999D01*
X44617515Y-51271189D01*
X44561325Y-51282367D01*
X44397000Y-51392164D01*
X44397000Y-50805750D01*
X44238250Y-50647000D01*
X43127000Y-50647000D01*
X43127000Y-50667000D01*
X42873000Y-50667000D01*
X42873000Y-50647000D01*
X41761750Y-50647000D01*
X41603000Y-50805750D01*
X41603000Y-51408309D01*
X41699673Y-51641698D01*
X41878301Y-51820327D01*
X41986151Y-51865000D01*
X41250000Y-51865000D01*
X40911325Y-51932367D01*
X40624210Y-52124210D01*
X40624207Y-52124213D01*
X39533420Y-53215000D01*
X37321000Y-53215000D01*
X37321000Y-52285750D01*
X37321000Y-51714250D01*
X37321000Y-50349691D01*
X37224327Y-50116302D01*
X37045699Y-49937673D01*
X36812310Y-49841000D01*
X36559691Y-49841000D01*
X34685750Y-49841000D01*
X34527000Y-49999750D01*
X34527000Y-51873000D01*
X37162250Y-51873000D01*
X37321000Y-51714250D01*
X37321000Y-52285750D01*
X37162250Y-52127000D01*
X34527000Y-52127000D01*
X34527000Y-54000250D01*
X34685750Y-54159000D01*
X35017714Y-54159000D01*
X34882847Y-54360846D01*
X34859304Y-54479200D01*
X34729510Y-54479200D01*
X34720731Y-54479200D01*
X34476891Y-54479200D01*
X34273000Y-54479200D01*
X34273000Y-54000250D01*
X34273000Y-52127000D01*
X34273000Y-51873000D01*
X34273000Y-49999750D01*
X34114250Y-49841000D01*
X32240309Y-49841000D01*
X31987690Y-49841000D01*
X31754301Y-49937673D01*
X31575673Y-50116302D01*
X31479000Y-50349691D01*
X31479000Y-51714250D01*
X31637750Y-51873000D01*
X34273000Y-51873000D01*
X34273000Y-52127000D01*
X31637750Y-52127000D01*
X31479000Y-52285750D01*
X31479000Y-53650309D01*
X31575673Y-53883698D01*
X31754301Y-54062327D01*
X31987690Y-54159000D01*
X32240309Y-54159000D01*
X34114250Y-54159000D01*
X34273000Y-54000250D01*
X34273000Y-54479200D01*
X34079270Y-54479200D01*
X34070491Y-54479200D01*
X33826651Y-54479200D01*
X33429030Y-54479200D01*
X33420251Y-54479200D01*
X33359870Y-54479200D01*
X33317174Y-54521895D01*
X33186862Y-54575873D01*
X33008233Y-54754501D01*
X32997920Y-54779398D01*
X32997920Y-54637950D01*
X32839170Y-54479200D01*
X32770010Y-54479200D01*
X32536621Y-54575873D01*
X32357993Y-54754502D01*
X32344251Y-54787677D01*
X32151410Y-54707800D01*
X31898791Y-54707800D01*
X31510750Y-54707800D01*
X31352000Y-54866550D01*
X31352000Y-55927000D01*
X31372000Y-55927000D01*
X31372000Y-56181000D01*
X31352000Y-56181000D01*
X31352000Y-56201000D01*
X31098000Y-56201000D01*
X31098000Y-56181000D01*
X31078000Y-56181000D01*
X31078000Y-55927000D01*
X31098000Y-55927000D01*
X31098000Y-54866550D01*
X30939250Y-54707800D01*
X30685000Y-54707800D01*
X30685000Y-33738657D01*
X30775428Y-33829244D01*
X31568664Y-34158624D01*
X32427567Y-34159374D01*
X33221377Y-33831378D01*
X33829244Y-33224572D01*
X34158624Y-32431336D01*
X34159374Y-31572433D01*
X33831378Y-30778623D01*
X33737918Y-30685000D01*
X44049407Y-30685000D01*
X43816371Y-30917630D01*
X43603243Y-31430900D01*
X43602758Y-31986661D01*
X43814990Y-32500303D01*
X44207630Y-32893629D01*
X44415512Y-32979949D01*
X44209697Y-33064990D01*
X43909162Y-33365000D01*
X43750005Y-33365000D01*
X43750000Y-33364999D01*
X43467515Y-33421189D01*
X43411325Y-33432367D01*
X43124210Y-33624210D01*
X43124207Y-33624213D01*
X42624210Y-34124210D01*
X42564264Y-34213926D01*
X42564264Y-32698188D01*
X42332738Y-32137851D01*
X41904404Y-31708769D01*
X41344472Y-31476265D01*
X40738188Y-31475736D01*
X40177851Y-31707262D01*
X39987707Y-31897073D01*
X39927327Y-31751302D01*
X39748699Y-31572673D01*
X39515310Y-31476000D01*
X39262691Y-31476000D01*
X38785750Y-31476000D01*
X38627000Y-31634750D01*
X38627000Y-32873000D01*
X38647000Y-32873000D01*
X38647000Y-33127000D01*
X38627000Y-33127000D01*
X38627000Y-34365250D01*
X38785750Y-34524000D01*
X39262691Y-34524000D01*
X39515310Y-34524000D01*
X39748699Y-34427327D01*
X39927327Y-34248698D01*
X39987681Y-34102988D01*
X40175596Y-34291231D01*
X40735528Y-34523735D01*
X41341812Y-34524264D01*
X41902149Y-34292738D01*
X42331231Y-33864404D01*
X42563735Y-33304472D01*
X42564264Y-32698188D01*
X42564264Y-34213926D01*
X42432367Y-34411325D01*
X42421189Y-34467515D01*
X42364999Y-34750000D01*
X42365000Y-34750005D01*
X42365000Y-37615000D01*
X40256400Y-37615000D01*
X40163327Y-37390302D01*
X40023025Y-37250000D01*
X40163327Y-37109698D01*
X40260000Y-36876309D01*
X40260000Y-36285750D01*
X40260000Y-35714250D01*
X40260000Y-35123691D01*
X40163327Y-34890302D01*
X39984699Y-34711673D01*
X39751310Y-34615000D01*
X39498691Y-34615000D01*
X39285750Y-34615000D01*
X39127000Y-34773750D01*
X39127000Y-35873000D01*
X40101250Y-35873000D01*
X40260000Y-35714250D01*
X40260000Y-36285750D01*
X40101250Y-36127000D01*
X39127000Y-36127000D01*
X39127000Y-36147000D01*
X38873000Y-36147000D01*
X38873000Y-36127000D01*
X38873000Y-35873000D01*
X38873000Y-34773750D01*
X38714250Y-34615000D01*
X38501309Y-34615000D01*
X38373000Y-34615000D01*
X38373000Y-34365250D01*
X38373000Y-33127000D01*
X38353000Y-33127000D01*
X38353000Y-32873000D01*
X38373000Y-32873000D01*
X38373000Y-31634750D01*
X38214250Y-31476000D01*
X37737309Y-31476000D01*
X37484690Y-31476000D01*
X37251301Y-31572673D01*
X37072673Y-31751302D01*
X37012318Y-31897011D01*
X36824404Y-31708769D01*
X36264472Y-31476265D01*
X35658188Y-31475736D01*
X35097851Y-31707262D01*
X34668769Y-32135596D01*
X34436265Y-32695528D01*
X34435736Y-33301812D01*
X34667262Y-33862149D01*
X35095596Y-34291231D01*
X35655528Y-34523735D01*
X36261812Y-34524264D01*
X36822149Y-34292738D01*
X37012292Y-34102926D01*
X37072673Y-34248698D01*
X37251301Y-34427327D01*
X37484690Y-34524000D01*
X37737309Y-34524000D01*
X38214250Y-34524000D01*
X38373000Y-34365250D01*
X38373000Y-34615000D01*
X38248690Y-34615000D01*
X38015301Y-34711673D01*
X37836673Y-34890302D01*
X37740000Y-35123691D01*
X37740000Y-35714250D01*
X37898750Y-35873000D01*
X38873000Y-35873000D01*
X38873000Y-36127000D01*
X37898750Y-36127000D01*
X37740000Y-36285750D01*
X37740000Y-36876309D01*
X37836673Y-37109698D01*
X37976974Y-37250000D01*
X37836673Y-37390301D01*
X37740000Y-37623690D01*
X37740000Y-37876309D01*
X37740000Y-39376309D01*
X37836673Y-39609698D01*
X38015301Y-39788327D01*
X38248690Y-39885000D01*
X38501309Y-39885000D01*
X39751309Y-39885000D01*
X39865510Y-39837696D01*
X39865510Y-40066819D01*
X39865510Y-42065799D01*
X39962183Y-42299188D01*
X40140811Y-42477817D01*
X40374200Y-42574490D01*
X40626819Y-42574490D01*
X42625799Y-42574490D01*
X42859188Y-42477817D01*
X43037817Y-42299189D01*
X43115000Y-42112852D01*
X43115000Y-44378449D01*
X42886462Y-43825345D01*
X42427073Y-43365154D01*
X41826547Y-43115794D01*
X41176306Y-43115226D01*
X40575345Y-43363538D01*
X40115154Y-43822927D01*
X39865794Y-44423453D01*
X39865226Y-45073694D01*
X40113538Y-45674655D01*
X40572927Y-46134846D01*
X41173453Y-46384206D01*
X41823694Y-46384774D01*
X42166058Y-46243311D01*
X42114999Y-46500000D01*
X42115000Y-46500005D01*
X42115000Y-46889521D01*
X41816371Y-47187630D01*
X41603243Y-47700900D01*
X41603134Y-47825464D01*
X41474656Y-47179560D01*
X41006644Y-46479130D01*
X40306214Y-46011118D01*
X39480000Y-45846774D01*
X38653786Y-46011118D01*
X37953356Y-46479130D01*
X37485344Y-47179560D01*
X37378226Y-47718079D01*
X37378226Y-45904000D01*
X37260000Y-45309637D01*
X37260000Y-39376310D01*
X37260000Y-39123691D01*
X37260000Y-37623691D01*
X37163327Y-37390302D01*
X37023025Y-37250000D01*
X37163327Y-37109698D01*
X37260000Y-36876309D01*
X37260000Y-36285750D01*
X37260000Y-35714250D01*
X37260000Y-35123691D01*
X37163327Y-34890302D01*
X36984699Y-34711673D01*
X36751310Y-34615000D01*
X36498691Y-34615000D01*
X36285750Y-34615000D01*
X36127000Y-34773750D01*
X36127000Y-35873000D01*
X37101250Y-35873000D01*
X37260000Y-35714250D01*
X37260000Y-36285750D01*
X37101250Y-36127000D01*
X36127000Y-36127000D01*
X36127000Y-36147000D01*
X35873000Y-36147000D01*
X35873000Y-36127000D01*
X35873000Y-35873000D01*
X35873000Y-34773750D01*
X35714250Y-34615000D01*
X35501309Y-34615000D01*
X35248690Y-34615000D01*
X35015301Y-34711673D01*
X34836673Y-34890302D01*
X34740000Y-35123691D01*
X34740000Y-35714250D01*
X34898750Y-35873000D01*
X35873000Y-35873000D01*
X35873000Y-36127000D01*
X34898750Y-36127000D01*
X34740000Y-36285750D01*
X34740000Y-36876309D01*
X34836673Y-37109698D01*
X34976974Y-37250000D01*
X34836673Y-37390301D01*
X34818883Y-37433249D01*
X34676880Y-37374430D01*
X34424261Y-37374430D01*
X34085750Y-37374430D01*
X33927000Y-37533180D01*
X33927000Y-38633000D01*
X33947000Y-38633000D01*
X33947000Y-38887000D01*
X33927000Y-38887000D01*
X33927000Y-38907000D01*
X33673000Y-38907000D01*
X33673000Y-38887000D01*
X33673000Y-38633000D01*
X33673000Y-37533180D01*
X33514250Y-37374430D01*
X33175739Y-37374430D01*
X32923120Y-37374430D01*
X32689731Y-37471103D01*
X32511103Y-37649732D01*
X32414430Y-37883121D01*
X32414430Y-38474250D01*
X32573180Y-38633000D01*
X33673000Y-38633000D01*
X33673000Y-38887000D01*
X32573180Y-38887000D01*
X32414430Y-39045750D01*
X32414430Y-39636879D01*
X32511103Y-39870268D01*
X32689731Y-40048897D01*
X32923120Y-40145570D01*
X32995242Y-40145570D01*
X32626056Y-40514113D01*
X32414671Y-41023184D01*
X32414190Y-41574398D01*
X32624686Y-42083837D01*
X33014113Y-42473944D01*
X33523184Y-42685329D01*
X34074398Y-42685810D01*
X34583837Y-42475314D01*
X34874657Y-42185000D01*
X35599994Y-42185000D01*
X35600000Y-42185001D01*
X35600000Y-42185000D01*
X35882484Y-42128810D01*
X35938674Y-42117633D01*
X35938675Y-42117633D01*
X36225790Y-41925790D01*
X36625786Y-41525792D01*
X36625789Y-41525790D01*
X36625790Y-41525790D01*
X36817633Y-41238675D01*
X36885000Y-40900000D01*
X36885000Y-39829623D01*
X36984698Y-39788327D01*
X37163327Y-39609699D01*
X37260000Y-39376310D01*
X37260000Y-45309637D01*
X37213882Y-45077786D01*
X36745870Y-44377356D01*
X36045440Y-43909344D01*
X35219226Y-43745000D01*
X33580774Y-43745000D01*
X32754560Y-43909344D01*
X32054130Y-44377356D01*
X31586118Y-45077786D01*
X31421774Y-45904000D01*
X31586118Y-46730214D01*
X32054130Y-47430644D01*
X32754560Y-47898656D01*
X33580774Y-48063000D01*
X35219226Y-48063000D01*
X36045440Y-47898656D01*
X36745870Y-47430644D01*
X37213882Y-46730214D01*
X37378226Y-45904000D01*
X37378226Y-47718079D01*
X37321000Y-48005774D01*
X37321000Y-49644226D01*
X37485344Y-50470440D01*
X37953356Y-51170870D01*
X38653786Y-51638882D01*
X39480000Y-51803226D01*
X40306214Y-51638882D01*
X41006644Y-51170870D01*
X41474656Y-50470440D01*
X41603000Y-49825210D01*
X41603000Y-50234250D01*
X41761750Y-50393000D01*
X42873000Y-50393000D01*
X42873000Y-50373000D01*
X43127000Y-50373000D01*
X43127000Y-50393000D01*
X44238250Y-50393000D01*
X44397000Y-50234250D01*
X44397000Y-49631691D01*
X44300327Y-49398302D01*
X44121699Y-49219673D01*
X43888310Y-49123000D01*
X43832386Y-49123000D01*
X44183629Y-48772370D01*
X44396757Y-48259100D01*
X44397242Y-47703339D01*
X44185010Y-47189697D01*
X43885000Y-46889162D01*
X43885000Y-46866579D01*
X44625786Y-46125792D01*
X44625790Y-46125790D01*
X44625790Y-46125789D01*
X44753975Y-45933946D01*
X44817633Y-45838675D01*
X44817634Y-45838674D01*
X44885000Y-45500000D01*
X44885001Y-45500000D01*
X44885000Y-45499994D01*
X44885000Y-39536579D01*
X46615000Y-41266579D01*
X46615000Y-51133420D01*
G36*
X49577010Y-33216587D02*
X49049713Y-33743884D01*
X48952370Y-33646371D01*
X48439100Y-33433243D01*
X47883339Y-33432758D01*
X47369697Y-33644990D01*
X47132926Y-33881347D01*
X46875790Y-33624210D01*
X46588675Y-33432367D01*
X46532484Y-33421189D01*
X46250000Y-33364999D01*
X46249994Y-33365000D01*
X46090478Y-33365000D01*
X45792370Y-33066371D01*
X45584487Y-32980050D01*
X45790303Y-32895010D01*
X46183629Y-32502370D01*
X46396757Y-31989100D01*
X46397242Y-31433339D01*
X46185010Y-30919697D01*
X45950722Y-30685000D01*
X46830221Y-30685000D01*
X46725474Y-30841766D01*
X46611400Y-31415255D01*
X46611400Y-31784745D01*
X46725474Y-32358234D01*
X47050330Y-32844415D01*
X47536511Y-33169271D01*
X48110000Y-33283345D01*
X48683489Y-33169271D01*
X49169670Y-32844415D01*
X49184499Y-32822220D01*
X49248073Y-32975699D01*
X49426702Y-33154327D01*
X49577010Y-33216587D01*
X49577010Y-33216587D01*
G37*
X49577010Y-33216587D02*
X49049713Y-33743884D01*
X48952370Y-33646371D01*
X48439100Y-33433243D01*
X47883339Y-33432758D01*
X47369697Y-33644990D01*
X47132926Y-33881347D01*
X46875790Y-33624210D01*
X46588675Y-33432367D01*
X46532484Y-33421189D01*
X46250000Y-33364999D01*
X46249994Y-33365000D01*
X46090478Y-33365000D01*
X45792370Y-33066371D01*
X45584487Y-32980050D01*
X45790303Y-32895010D01*
X46183629Y-32502370D01*
X46396757Y-31989100D01*
X46397242Y-31433339D01*
X46185010Y-30919697D01*
X45950722Y-30685000D01*
X46830221Y-30685000D01*
X46725474Y-30841766D01*
X46611400Y-31415255D01*
X46611400Y-31784745D01*
X46725474Y-32358234D01*
X47050330Y-32844415D01*
X47536511Y-33169271D01*
X48110000Y-33283345D01*
X48683489Y-33169271D01*
X49169670Y-32844415D01*
X49184499Y-32822220D01*
X49248073Y-32975699D01*
X49426702Y-33154327D01*
X49577010Y-33216587D01*
G36*
X50797000Y-31727000D02*
X50777000Y-31727000D01*
X50777000Y-31747000D01*
X50523000Y-31747000D01*
X50523000Y-31727000D01*
X50503000Y-31727000D01*
X50503000Y-31473000D01*
X50523000Y-31473000D01*
X50523000Y-31453000D01*
X50777000Y-31453000D01*
X50777000Y-31473000D01*
X50797000Y-31473000D01*
X50797000Y-31727000D01*
X50797000Y-31727000D01*
G37*
X50797000Y-31727000D02*
X50777000Y-31727000D01*
X50777000Y-31747000D01*
X50523000Y-31747000D01*
X50523000Y-31727000D01*
X50503000Y-31727000D01*
X50503000Y-31473000D01*
X50523000Y-31473000D01*
X50523000Y-31453000D01*
X50777000Y-31453000D01*
X50777000Y-31473000D01*
X50797000Y-31473000D01*
X50797000Y-31727000D01*
G36*
X60008367Y-33016830D02*
X59035198Y-33990000D01*
X58550000Y-33990000D01*
X58259161Y-34047852D01*
X58012599Y-34212599D01*
X57562599Y-34662599D01*
X57397852Y-34909161D01*
X57340000Y-35200000D01*
X57340000Y-36850000D01*
X57397852Y-37140839D01*
X57562599Y-37387401D01*
X58080000Y-37904802D01*
X58080000Y-41278612D01*
X57570000Y-41177167D01*
X57025671Y-41285441D01*
X56564211Y-41593778D01*
X56300000Y-41989198D01*
X56035789Y-41593778D01*
X55574329Y-41285441D01*
X55030000Y-41177167D01*
X54485671Y-41285441D01*
X54024211Y-41593778D01*
X53760000Y-41989198D01*
X53495789Y-41593778D01*
X53034329Y-41285441D01*
X52490000Y-41177167D01*
X51945671Y-41285441D01*
X51484211Y-41593778D01*
X51175874Y-42055238D01*
X51067600Y-42599567D01*
X51067600Y-43380433D01*
X51175874Y-43924762D01*
X51484211Y-44386222D01*
X51945671Y-44694559D01*
X52490000Y-44802833D01*
X53034329Y-44694559D01*
X53495789Y-44386222D01*
X53760000Y-43990801D01*
X54024211Y-44386222D01*
X54485671Y-44694559D01*
X55030000Y-44802833D01*
X55574329Y-44694559D01*
X56035789Y-44386222D01*
X56300000Y-43990801D01*
X56564211Y-44386222D01*
X57025671Y-44694559D01*
X57570000Y-44802833D01*
X58080000Y-44701387D01*
X58080000Y-44818500D01*
X58137852Y-45109339D01*
X58302599Y-45355901D01*
X58441800Y-45495102D01*
X58441800Y-45540000D01*
X58335750Y-45540000D01*
X58177000Y-45698750D01*
X58177000Y-46673000D01*
X58197000Y-46673000D01*
X58197000Y-46927000D01*
X58177000Y-46927000D01*
X58177000Y-47901250D01*
X58335750Y-48060000D01*
X58441800Y-48060000D01*
X58441800Y-49018798D01*
X58378586Y-49082011D01*
X58114329Y-48905441D01*
X57923000Y-48867383D01*
X57923000Y-47901250D01*
X57923000Y-46927000D01*
X57923000Y-46673000D01*
X57923000Y-45698750D01*
X57764250Y-45540000D01*
X57173691Y-45540000D01*
X56940302Y-45636673D01*
X56761673Y-45815301D01*
X56665000Y-46048690D01*
X56665000Y-46301309D01*
X56665000Y-46514250D01*
X56823750Y-46673000D01*
X57923000Y-46673000D01*
X57923000Y-46927000D01*
X56823750Y-46927000D01*
X56665000Y-47085750D01*
X56665000Y-47298691D01*
X56665000Y-47551310D01*
X56761673Y-47784699D01*
X56940302Y-47963327D01*
X57173691Y-48060000D01*
X57764250Y-48060000D01*
X57923000Y-47901250D01*
X57923000Y-48867383D01*
X57570000Y-48797167D01*
X57025671Y-48905441D01*
X56974460Y-48939658D01*
X54797401Y-46762599D01*
X54550839Y-46597852D01*
X54260000Y-46540000D01*
X52014802Y-46540000D01*
X50860000Y-45385198D01*
X50860000Y-41114802D01*
X52507401Y-39467401D01*
X52672148Y-39220840D01*
X52672148Y-39220839D01*
X52730000Y-38930000D01*
X52730000Y-38670879D01*
X52960900Y-38766757D01*
X53516661Y-38767242D01*
X54030303Y-38555010D01*
X54423629Y-38162370D01*
X54636757Y-37649100D01*
X54637242Y-37093339D01*
X54425010Y-36579697D01*
X54072928Y-36227000D01*
X54128309Y-36227000D01*
X54361698Y-36130327D01*
X54540327Y-35951699D01*
X54637000Y-35718310D01*
X54637000Y-35465691D01*
X54637000Y-35115750D01*
X54478250Y-34957000D01*
X53367000Y-34957000D01*
X53367000Y-34977000D01*
X53113000Y-34977000D01*
X53113000Y-34957000D01*
X53093000Y-34957000D01*
X53093000Y-34703000D01*
X53113000Y-34703000D01*
X53113000Y-34683000D01*
X53367000Y-34683000D01*
X53367000Y-34703000D01*
X54478250Y-34703000D01*
X54637000Y-34544250D01*
X54637000Y-34273200D01*
X55286800Y-34273200D01*
X55577639Y-34215348D01*
X55824201Y-34050601D01*
X56267401Y-33607401D01*
X56432148Y-33360840D01*
X56432148Y-33360839D01*
X56441746Y-33312586D01*
X56489999Y-33070000D01*
X56490000Y-33070000D01*
X56490000Y-33044648D01*
X56789670Y-32844415D01*
X57000000Y-32529634D01*
X57210330Y-32844415D01*
X57696511Y-33169271D01*
X58270000Y-33283345D01*
X58843489Y-33169271D01*
X59329670Y-32844415D01*
X59540000Y-32529634D01*
X59750330Y-32844415D01*
X60008367Y-33016830D01*
X60008367Y-33016830D01*
G37*
X60008367Y-33016830D02*
X59035198Y-33990000D01*
X58550000Y-33990000D01*
X58259161Y-34047852D01*
X58012599Y-34212599D01*
X57562599Y-34662599D01*
X57397852Y-34909161D01*
X57340000Y-35200000D01*
X57340000Y-36850000D01*
X57397852Y-37140839D01*
X57562599Y-37387401D01*
X58080000Y-37904802D01*
X58080000Y-41278612D01*
X57570000Y-41177167D01*
X57025671Y-41285441D01*
X56564211Y-41593778D01*
X56300000Y-41989198D01*
X56035789Y-41593778D01*
X55574329Y-41285441D01*
X55030000Y-41177167D01*
X54485671Y-41285441D01*
X54024211Y-41593778D01*
X53760000Y-41989198D01*
X53495789Y-41593778D01*
X53034329Y-41285441D01*
X52490000Y-41177167D01*
X51945671Y-41285441D01*
X51484211Y-41593778D01*
X51175874Y-42055238D01*
X51067600Y-42599567D01*
X51067600Y-43380433D01*
X51175874Y-43924762D01*
X51484211Y-44386222D01*
X51945671Y-44694559D01*
X52490000Y-44802833D01*
X53034329Y-44694559D01*
X53495789Y-44386222D01*
X53760000Y-43990801D01*
X54024211Y-44386222D01*
X54485671Y-44694559D01*
X55030000Y-44802833D01*
X55574329Y-44694559D01*
X56035789Y-44386222D01*
X56300000Y-43990801D01*
X56564211Y-44386222D01*
X57025671Y-44694559D01*
X57570000Y-44802833D01*
X58080000Y-44701387D01*
X58080000Y-44818500D01*
X58137852Y-45109339D01*
X58302599Y-45355901D01*
X58441800Y-45495102D01*
X58441800Y-45540000D01*
X58335750Y-45540000D01*
X58177000Y-45698750D01*
X58177000Y-46673000D01*
X58197000Y-46673000D01*
X58197000Y-46927000D01*
X58177000Y-46927000D01*
X58177000Y-47901250D01*
X58335750Y-48060000D01*
X58441800Y-48060000D01*
X58441800Y-49018798D01*
X58378586Y-49082011D01*
X58114329Y-48905441D01*
X57923000Y-48867383D01*
X57923000Y-47901250D01*
X57923000Y-46927000D01*
X57923000Y-46673000D01*
X57923000Y-45698750D01*
X57764250Y-45540000D01*
X57173691Y-45540000D01*
X56940302Y-45636673D01*
X56761673Y-45815301D01*
X56665000Y-46048690D01*
X56665000Y-46301309D01*
X56665000Y-46514250D01*
X56823750Y-46673000D01*
X57923000Y-46673000D01*
X57923000Y-46927000D01*
X56823750Y-46927000D01*
X56665000Y-47085750D01*
X56665000Y-47298691D01*
X56665000Y-47551310D01*
X56761673Y-47784699D01*
X56940302Y-47963327D01*
X57173691Y-48060000D01*
X57764250Y-48060000D01*
X57923000Y-47901250D01*
X57923000Y-48867383D01*
X57570000Y-48797167D01*
X57025671Y-48905441D01*
X56974460Y-48939658D01*
X54797401Y-46762599D01*
X54550839Y-46597852D01*
X54260000Y-46540000D01*
X52014802Y-46540000D01*
X50860000Y-45385198D01*
X50860000Y-41114802D01*
X52507401Y-39467401D01*
X52672148Y-39220840D01*
X52672148Y-39220839D01*
X52730000Y-38930000D01*
X52730000Y-38670879D01*
X52960900Y-38766757D01*
X53516661Y-38767242D01*
X54030303Y-38555010D01*
X54423629Y-38162370D01*
X54636757Y-37649100D01*
X54637242Y-37093339D01*
X54425010Y-36579697D01*
X54072928Y-36227000D01*
X54128309Y-36227000D01*
X54361698Y-36130327D01*
X54540327Y-35951699D01*
X54637000Y-35718310D01*
X54637000Y-35465691D01*
X54637000Y-35115750D01*
X54478250Y-34957000D01*
X53367000Y-34957000D01*
X53367000Y-34977000D01*
X53113000Y-34977000D01*
X53113000Y-34957000D01*
X53093000Y-34957000D01*
X53093000Y-34703000D01*
X53113000Y-34703000D01*
X53113000Y-34683000D01*
X53367000Y-34683000D01*
X53367000Y-34703000D01*
X54478250Y-34703000D01*
X54637000Y-34544250D01*
X54637000Y-34273200D01*
X55286800Y-34273200D01*
X55577639Y-34215348D01*
X55824201Y-34050601D01*
X56267401Y-33607401D01*
X56432148Y-33360840D01*
X56432148Y-33360839D01*
X56441746Y-33312586D01*
X56489999Y-33070000D01*
X56490000Y-33070000D01*
X56490000Y-33044648D01*
X56789670Y-32844415D01*
X57000000Y-32529634D01*
X57210330Y-32844415D01*
X57696511Y-33169271D01*
X58270000Y-33283345D01*
X58843489Y-33169271D01*
X59329670Y-32844415D01*
X59540000Y-32529634D01*
X59750330Y-32844415D01*
X60008367Y-33016830D01*
G36*
X88641309Y-36864461D02*
X88497852Y-37079161D01*
X88440000Y-37370000D01*
X88440000Y-40240000D01*
X83590000Y-40240000D01*
X83347413Y-40288253D01*
X83299160Y-40297852D01*
X83052599Y-40462599D01*
X82432599Y-41082599D01*
X82267852Y-41329161D01*
X82253690Y-41400354D01*
X81964211Y-41593778D01*
X81700000Y-41989198D01*
X81435789Y-41593778D01*
X80974329Y-41285441D01*
X80430000Y-41177167D01*
X79885671Y-41285441D01*
X79424211Y-41593778D01*
X79160000Y-41989198D01*
X78895789Y-41593778D01*
X78434329Y-41285441D01*
X78238730Y-41246534D01*
X78180839Y-41207852D01*
X77890000Y-41150000D01*
X77599161Y-41207852D01*
X77541269Y-41246534D01*
X77345671Y-41285441D01*
X76884211Y-41593778D01*
X76620000Y-41989198D01*
X76355789Y-41593778D01*
X75894329Y-41285441D01*
X75350000Y-41177167D01*
X74805671Y-41285441D01*
X74344211Y-41593778D01*
X74080000Y-41989198D01*
X73815789Y-41593778D01*
X73354329Y-41285441D01*
X72810000Y-41177167D01*
X72265671Y-41285441D01*
X71804211Y-41593778D01*
X71540000Y-41989198D01*
X71275789Y-41593778D01*
X71155000Y-41513069D01*
X71155000Y-36880844D01*
X71243629Y-36792370D01*
X71329949Y-36584487D01*
X71414990Y-36790303D01*
X71807630Y-37183629D01*
X72320900Y-37396757D01*
X72876661Y-37397242D01*
X73390303Y-37185010D01*
X73783629Y-36792370D01*
X73869949Y-36584487D01*
X73954990Y-36790303D01*
X74347630Y-37183629D01*
X74860900Y-37396757D01*
X75416661Y-37397242D01*
X75930303Y-37185010D01*
X76323629Y-36792370D01*
X76536757Y-36279100D01*
X76537242Y-35723339D01*
X76325010Y-35209697D01*
X75932370Y-34816371D01*
X75419100Y-34603243D01*
X74863339Y-34602758D01*
X74349697Y-34814990D01*
X73956371Y-35207630D01*
X73870050Y-35415512D01*
X73785010Y-35209697D01*
X73392370Y-34816371D01*
X72879100Y-34603243D01*
X72323339Y-34602758D01*
X71809697Y-34814990D01*
X71416371Y-35207630D01*
X71330050Y-35415512D01*
X71245010Y-35209697D01*
X70852370Y-34816371D01*
X70339100Y-34603243D01*
X69783339Y-34602758D01*
X69269697Y-34814990D01*
X68876371Y-35207630D01*
X68663243Y-35720900D01*
X68662758Y-36276661D01*
X68874990Y-36790303D01*
X69267630Y-37183629D01*
X69385000Y-37232365D01*
X69385000Y-41513069D01*
X69264211Y-41593778D01*
X69152400Y-41761115D01*
X69152400Y-41720690D01*
X69055727Y-41487301D01*
X68877098Y-41308673D01*
X68643709Y-41212000D01*
X68015750Y-41212000D01*
X67857000Y-41370750D01*
X67857000Y-42863000D01*
X67877000Y-42863000D01*
X67877000Y-43117000D01*
X67857000Y-43117000D01*
X67857000Y-44609250D01*
X68015750Y-44768000D01*
X68643709Y-44768000D01*
X68850289Y-44682431D01*
X68074210Y-45458510D01*
X67916927Y-45693901D01*
X67859698Y-45636673D01*
X67626309Y-45540000D01*
X67035750Y-45540000D01*
X66877000Y-45698750D01*
X66877000Y-46673000D01*
X66897000Y-46673000D01*
X66897000Y-46927000D01*
X66877000Y-46927000D01*
X66877000Y-46947000D01*
X66623000Y-46947000D01*
X66623000Y-46927000D01*
X66603000Y-46927000D01*
X66603000Y-46673000D01*
X66623000Y-46673000D01*
X66623000Y-45698750D01*
X66464250Y-45540000D01*
X65873691Y-45540000D01*
X65640302Y-45636673D01*
X65499999Y-45776974D01*
X65359699Y-45636673D01*
X65206065Y-45573036D01*
X65727401Y-45051701D01*
X65892148Y-44805139D01*
X65941706Y-44555994D01*
X66195789Y-44386222D01*
X66307600Y-44218884D01*
X66307600Y-44259310D01*
X66404273Y-44492699D01*
X66582902Y-44671327D01*
X66816291Y-44768000D01*
X67444250Y-44768000D01*
X67603000Y-44609250D01*
X67603000Y-43117000D01*
X67583000Y-43117000D01*
X67583000Y-42863000D01*
X67603000Y-42863000D01*
X67603000Y-41370750D01*
X67444250Y-41212000D01*
X66816291Y-41212000D01*
X66582902Y-41308673D01*
X66404273Y-41487301D01*
X66307600Y-41720690D01*
X66307600Y-41761115D01*
X66195789Y-41593778D01*
X65950000Y-41429547D01*
X65950000Y-40190000D01*
X65892148Y-39899161D01*
X65727401Y-39652599D01*
X65000940Y-38926138D01*
X65000940Y-37285163D01*
X65024777Y-37275314D01*
X65414884Y-36885887D01*
X65626269Y-36376816D01*
X65626750Y-35825602D01*
X65416254Y-35316163D01*
X65026827Y-34926056D01*
X64517756Y-34714671D01*
X63966542Y-34714190D01*
X63457103Y-34924686D01*
X63177548Y-35203753D01*
X63088897Y-34989731D01*
X62910268Y-34811103D01*
X62676879Y-34714430D01*
X62085750Y-34714430D01*
X61927000Y-34873180D01*
X61927000Y-35973000D01*
X61947000Y-35973000D01*
X61947000Y-36227000D01*
X61927000Y-36227000D01*
X61927000Y-36247000D01*
X61673000Y-36247000D01*
X61673000Y-36227000D01*
X61653000Y-36227000D01*
X61653000Y-35973000D01*
X61673000Y-35973000D01*
X61673000Y-34873180D01*
X61537311Y-34737491D01*
X61814802Y-34460000D01*
X62500000Y-34460000D01*
X62790839Y-34402148D01*
X63037401Y-34237401D01*
X63887401Y-33387401D01*
X64052148Y-33140839D01*
X64065346Y-33074484D01*
X64409670Y-32844415D01*
X64620000Y-32529634D01*
X64830330Y-32844415D01*
X65316511Y-33169271D01*
X65890000Y-33283345D01*
X66463489Y-33169271D01*
X66949670Y-32844415D01*
X67274526Y-32358234D01*
X67388600Y-31784745D01*
X67388600Y-31415255D01*
X67274526Y-30841766D01*
X67169778Y-30685000D01*
X69730221Y-30685000D01*
X69625474Y-30841766D01*
X69511400Y-31415255D01*
X69511400Y-31784745D01*
X69625474Y-32358234D01*
X69950330Y-32844415D01*
X70436511Y-33169271D01*
X71010000Y-33283345D01*
X71583489Y-33169271D01*
X72069670Y-32844415D01*
X72280000Y-32529634D01*
X72490330Y-32844415D01*
X72976511Y-33169271D01*
X73550000Y-33283345D01*
X74123489Y-33169271D01*
X74609670Y-32844415D01*
X74820000Y-32529634D01*
X75030330Y-32844415D01*
X75516511Y-33169271D01*
X76090000Y-33283345D01*
X76663489Y-33169271D01*
X77149670Y-32844415D01*
X77360000Y-32529634D01*
X77570330Y-32844415D01*
X78056511Y-33169271D01*
X78630000Y-33283345D01*
X79203489Y-33169271D01*
X79689670Y-32844415D01*
X79900000Y-32529634D01*
X80110330Y-32844415D01*
X80596511Y-33169271D01*
X81170000Y-33283345D01*
X81743489Y-33169271D01*
X82229670Y-32844415D01*
X82440000Y-32529634D01*
X82650330Y-32844415D01*
X83136511Y-33169271D01*
X83710000Y-33283345D01*
X84283489Y-33169271D01*
X84769670Y-32844415D01*
X84980000Y-32529634D01*
X85190330Y-32844415D01*
X85676511Y-33169271D01*
X86178038Y-33269030D01*
X85670756Y-33775428D01*
X85341376Y-34568664D01*
X85340626Y-35427567D01*
X85668622Y-36221377D01*
X86275428Y-36829244D01*
X87068664Y-37158624D01*
X87927567Y-37159374D01*
X88641309Y-36864461D01*
X88641309Y-36864461D01*
G37*
X88641309Y-36864461D02*
X88497852Y-37079161D01*
X88440000Y-37370000D01*
X88440000Y-40240000D01*
X83590000Y-40240000D01*
X83347413Y-40288253D01*
X83299160Y-40297852D01*
X83052599Y-40462599D01*
X82432599Y-41082599D01*
X82267852Y-41329161D01*
X82253690Y-41400354D01*
X81964211Y-41593778D01*
X81700000Y-41989198D01*
X81435789Y-41593778D01*
X80974329Y-41285441D01*
X80430000Y-41177167D01*
X79885671Y-41285441D01*
X79424211Y-41593778D01*
X79160000Y-41989198D01*
X78895789Y-41593778D01*
X78434329Y-41285441D01*
X78238730Y-41246534D01*
X78180839Y-41207852D01*
X77890000Y-41150000D01*
X77599161Y-41207852D01*
X77541269Y-41246534D01*
X77345671Y-41285441D01*
X76884211Y-41593778D01*
X76620000Y-41989198D01*
X76355789Y-41593778D01*
X75894329Y-41285441D01*
X75350000Y-41177167D01*
X74805671Y-41285441D01*
X74344211Y-41593778D01*
X74080000Y-41989198D01*
X73815789Y-41593778D01*
X73354329Y-41285441D01*
X72810000Y-41177167D01*
X72265671Y-41285441D01*
X71804211Y-41593778D01*
X71540000Y-41989198D01*
X71275789Y-41593778D01*
X71155000Y-41513069D01*
X71155000Y-36880844D01*
X71243629Y-36792370D01*
X71329949Y-36584487D01*
X71414990Y-36790303D01*
X71807630Y-37183629D01*
X72320900Y-37396757D01*
X72876661Y-37397242D01*
X73390303Y-37185010D01*
X73783629Y-36792370D01*
X73869949Y-36584487D01*
X73954990Y-36790303D01*
X74347630Y-37183629D01*
X74860900Y-37396757D01*
X75416661Y-37397242D01*
X75930303Y-37185010D01*
X76323629Y-36792370D01*
X76536757Y-36279100D01*
X76537242Y-35723339D01*
X76325010Y-35209697D01*
X75932370Y-34816371D01*
X75419100Y-34603243D01*
X74863339Y-34602758D01*
X74349697Y-34814990D01*
X73956371Y-35207630D01*
X73870050Y-35415512D01*
X73785010Y-35209697D01*
X73392370Y-34816371D01*
X72879100Y-34603243D01*
X72323339Y-34602758D01*
X71809697Y-34814990D01*
X71416371Y-35207630D01*
X71330050Y-35415512D01*
X71245010Y-35209697D01*
X70852370Y-34816371D01*
X70339100Y-34603243D01*
X69783339Y-34602758D01*
X69269697Y-34814990D01*
X68876371Y-35207630D01*
X68663243Y-35720900D01*
X68662758Y-36276661D01*
X68874990Y-36790303D01*
X69267630Y-37183629D01*
X69385000Y-37232365D01*
X69385000Y-41513069D01*
X69264211Y-41593778D01*
X69152400Y-41761115D01*
X69152400Y-41720690D01*
X69055727Y-41487301D01*
X68877098Y-41308673D01*
X68643709Y-41212000D01*
X68015750Y-41212000D01*
X67857000Y-41370750D01*
X67857000Y-42863000D01*
X67877000Y-42863000D01*
X67877000Y-43117000D01*
X67857000Y-43117000D01*
X67857000Y-44609250D01*
X68015750Y-44768000D01*
X68643709Y-44768000D01*
X68850289Y-44682431D01*
X68074210Y-45458510D01*
X67916927Y-45693901D01*
X67859698Y-45636673D01*
X67626309Y-45540000D01*
X67035750Y-45540000D01*
X66877000Y-45698750D01*
X66877000Y-46673000D01*
X66897000Y-46673000D01*
X66897000Y-46927000D01*
X66877000Y-46927000D01*
X66877000Y-46947000D01*
X66623000Y-46947000D01*
X66623000Y-46927000D01*
X66603000Y-46927000D01*
X66603000Y-46673000D01*
X66623000Y-46673000D01*
X66623000Y-45698750D01*
X66464250Y-45540000D01*
X65873691Y-45540000D01*
X65640302Y-45636673D01*
X65499999Y-45776974D01*
X65359699Y-45636673D01*
X65206065Y-45573036D01*
X65727401Y-45051701D01*
X65892148Y-44805139D01*
X65941706Y-44555994D01*
X66195789Y-44386222D01*
X66307600Y-44218884D01*
X66307600Y-44259310D01*
X66404273Y-44492699D01*
X66582902Y-44671327D01*
X66816291Y-44768000D01*
X67444250Y-44768000D01*
X67603000Y-44609250D01*
X67603000Y-43117000D01*
X67583000Y-43117000D01*
X67583000Y-42863000D01*
X67603000Y-42863000D01*
X67603000Y-41370750D01*
X67444250Y-41212000D01*
X66816291Y-41212000D01*
X66582902Y-41308673D01*
X66404273Y-41487301D01*
X66307600Y-41720690D01*
X66307600Y-41761115D01*
X66195789Y-41593778D01*
X65950000Y-41429547D01*
X65950000Y-40190000D01*
X65892148Y-39899161D01*
X65727401Y-39652599D01*
X65000940Y-38926138D01*
X65000940Y-37285163D01*
X65024777Y-37275314D01*
X65414884Y-36885887D01*
X65626269Y-36376816D01*
X65626750Y-35825602D01*
X65416254Y-35316163D01*
X65026827Y-34926056D01*
X64517756Y-34714671D01*
X63966542Y-34714190D01*
X63457103Y-34924686D01*
X63177548Y-35203753D01*
X63088897Y-34989731D01*
X62910268Y-34811103D01*
X62676879Y-34714430D01*
X62085750Y-34714430D01*
X61927000Y-34873180D01*
X61927000Y-35973000D01*
X61947000Y-35973000D01*
X61947000Y-36227000D01*
X61927000Y-36227000D01*
X61927000Y-36247000D01*
X61673000Y-36247000D01*
X61673000Y-36227000D01*
X61653000Y-36227000D01*
X61653000Y-35973000D01*
X61673000Y-35973000D01*
X61673000Y-34873180D01*
X61537311Y-34737491D01*
X61814802Y-34460000D01*
X62500000Y-34460000D01*
X62790839Y-34402148D01*
X63037401Y-34237401D01*
X63887401Y-33387401D01*
X64052148Y-33140839D01*
X64065346Y-33074484D01*
X64409670Y-32844415D01*
X64620000Y-32529634D01*
X64830330Y-32844415D01*
X65316511Y-33169271D01*
X65890000Y-33283345D01*
X66463489Y-33169271D01*
X66949670Y-32844415D01*
X67274526Y-32358234D01*
X67388600Y-31784745D01*
X67388600Y-31415255D01*
X67274526Y-30841766D01*
X67169778Y-30685000D01*
X69730221Y-30685000D01*
X69625474Y-30841766D01*
X69511400Y-31415255D01*
X69511400Y-31784745D01*
X69625474Y-32358234D01*
X69950330Y-32844415D01*
X70436511Y-33169271D01*
X71010000Y-33283345D01*
X71583489Y-33169271D01*
X72069670Y-32844415D01*
X72280000Y-32529634D01*
X72490330Y-32844415D01*
X72976511Y-33169271D01*
X73550000Y-33283345D01*
X74123489Y-33169271D01*
X74609670Y-32844415D01*
X74820000Y-32529634D01*
X75030330Y-32844415D01*
X75516511Y-33169271D01*
X76090000Y-33283345D01*
X76663489Y-33169271D01*
X77149670Y-32844415D01*
X77360000Y-32529634D01*
X77570330Y-32844415D01*
X78056511Y-33169271D01*
X78630000Y-33283345D01*
X79203489Y-33169271D01*
X79689670Y-32844415D01*
X79900000Y-32529634D01*
X80110330Y-32844415D01*
X80596511Y-33169271D01*
X81170000Y-33283345D01*
X81743489Y-33169271D01*
X82229670Y-32844415D01*
X82440000Y-32529634D01*
X82650330Y-32844415D01*
X83136511Y-33169271D01*
X83710000Y-33283345D01*
X84283489Y-33169271D01*
X84769670Y-32844415D01*
X84980000Y-32529634D01*
X85190330Y-32844415D01*
X85676511Y-33169271D01*
X86178038Y-33269030D01*
X85670756Y-33775428D01*
X85341376Y-34568664D01*
X85340626Y-35427567D01*
X85668622Y-36221377D01*
X86275428Y-36829244D01*
X87068664Y-37158624D01*
X87927567Y-37159374D01*
X88641309Y-36864461D01*
G36*
X99315000Y-35409715D02*
X99114404Y-35208769D01*
X98554472Y-34976265D01*
X98123000Y-34975888D01*
X98123000Y-33365250D01*
X98123000Y-32127000D01*
X96884750Y-32127000D01*
X96726000Y-32285750D01*
X96726000Y-33015309D01*
X96822673Y-33248698D01*
X97001301Y-33427327D01*
X97234690Y-33524000D01*
X97487309Y-33524000D01*
X97964250Y-33524000D01*
X98123000Y-33365250D01*
X98123000Y-34975888D01*
X97948188Y-34975736D01*
X97387851Y-35207262D01*
X96958769Y-35635596D01*
X96915416Y-35740000D01*
X93274000Y-35740000D01*
X93274000Y-33015309D01*
X93274000Y-32285750D01*
X93115250Y-32127000D01*
X91877000Y-32127000D01*
X91877000Y-33365250D01*
X92035750Y-33524000D01*
X92512691Y-33524000D01*
X92765310Y-33524000D01*
X92998699Y-33427327D01*
X93177327Y-33248698D01*
X93274000Y-33015309D01*
X93274000Y-35740000D01*
X93084945Y-35740000D01*
X93042738Y-35637851D01*
X92614404Y-35208769D01*
X92054472Y-34976265D01*
X91623000Y-34975888D01*
X91448188Y-34975736D01*
X90887851Y-35207262D01*
X90750000Y-35344872D01*
X90750000Y-34060000D01*
X90692148Y-33769161D01*
X90692148Y-33769160D01*
X90527401Y-33522599D01*
X89849398Y-32844596D01*
X89849670Y-32844415D01*
X90174526Y-32358234D01*
X90226000Y-32099456D01*
X90226000Y-32127002D01*
X90384748Y-32127002D01*
X90226000Y-32285750D01*
X90226000Y-33015309D01*
X90322673Y-33248698D01*
X90501301Y-33427327D01*
X90734690Y-33524000D01*
X90987309Y-33524000D01*
X91464250Y-33524000D01*
X91623000Y-33365250D01*
X91623000Y-32127000D01*
X91603000Y-32127000D01*
X91603000Y-31873000D01*
X91623000Y-31873000D01*
X91623000Y-31853000D01*
X91877000Y-31853000D01*
X91877000Y-31873000D01*
X93115250Y-31873000D01*
X93274000Y-31714250D01*
X93274000Y-30984691D01*
X93177327Y-30751302D01*
X93111025Y-30685000D01*
X96888974Y-30685000D01*
X96822673Y-30751302D01*
X96726000Y-30984691D01*
X96726000Y-31714250D01*
X96884750Y-31873000D01*
X98123000Y-31873000D01*
X98123000Y-31853000D01*
X98377000Y-31853000D01*
X98377000Y-31873000D01*
X98397000Y-31873000D01*
X98397000Y-32127000D01*
X98377000Y-32127000D01*
X98377000Y-33365250D01*
X98535750Y-33524000D01*
X99012691Y-33524000D01*
X99265310Y-33524000D01*
X99315000Y-33503417D01*
X99315000Y-35409715D01*
X99315000Y-35409715D01*
G37*
X99315000Y-35409715D02*
X99114404Y-35208769D01*
X98554472Y-34976265D01*
X98123000Y-34975888D01*
X98123000Y-33365250D01*
X98123000Y-32127000D01*
X96884750Y-32127000D01*
X96726000Y-32285750D01*
X96726000Y-33015309D01*
X96822673Y-33248698D01*
X97001301Y-33427327D01*
X97234690Y-33524000D01*
X97487309Y-33524000D01*
X97964250Y-33524000D01*
X98123000Y-33365250D01*
X98123000Y-34975888D01*
X97948188Y-34975736D01*
X97387851Y-35207262D01*
X96958769Y-35635596D01*
X96915416Y-35740000D01*
X93274000Y-35740000D01*
X93274000Y-33015309D01*
X93274000Y-32285750D01*
X93115250Y-32127000D01*
X91877000Y-32127000D01*
X91877000Y-33365250D01*
X92035750Y-33524000D01*
X92512691Y-33524000D01*
X92765310Y-33524000D01*
X92998699Y-33427327D01*
X93177327Y-33248698D01*
X93274000Y-33015309D01*
X93274000Y-35740000D01*
X93084945Y-35740000D01*
X93042738Y-35637851D01*
X92614404Y-35208769D01*
X92054472Y-34976265D01*
X91623000Y-34975888D01*
X91448188Y-34975736D01*
X90887851Y-35207262D01*
X90750000Y-35344872D01*
X90750000Y-34060000D01*
X90692148Y-33769161D01*
X90692148Y-33769160D01*
X90527401Y-33522599D01*
X89849398Y-32844596D01*
X89849670Y-32844415D01*
X90174526Y-32358234D01*
X90226000Y-32099456D01*
X90226000Y-32127002D01*
X90384748Y-32127002D01*
X90226000Y-32285750D01*
X90226000Y-33015309D01*
X90322673Y-33248698D01*
X90501301Y-33427327D01*
X90734690Y-33524000D01*
X90987309Y-33524000D01*
X91464250Y-33524000D01*
X91623000Y-33365250D01*
X91623000Y-32127000D01*
X91603000Y-32127000D01*
X91603000Y-31873000D01*
X91623000Y-31873000D01*
X91623000Y-31853000D01*
X91877000Y-31853000D01*
X91877000Y-31873000D01*
X93115250Y-31873000D01*
X93274000Y-31714250D01*
X93274000Y-30984691D01*
X93177327Y-30751302D01*
X93111025Y-30685000D01*
X96888974Y-30685000D01*
X96822673Y-30751302D01*
X96726000Y-30984691D01*
X96726000Y-31714250D01*
X96884750Y-31873000D01*
X98123000Y-31873000D01*
X98123000Y-31853000D01*
X98377000Y-31853000D01*
X98377000Y-31873000D01*
X98397000Y-31873000D01*
X98397000Y-32127000D01*
X98377000Y-32127000D01*
X98377000Y-33365250D01*
X98535750Y-33524000D01*
X99012691Y-33524000D01*
X99265310Y-33524000D01*
X99315000Y-33503417D01*
X99315000Y-35409715D01*
G36*
X99315000Y-56261342D02*
X99224572Y-56170756D01*
X98431336Y-55841376D01*
X97873000Y-55840888D01*
X97873000Y-54588250D01*
X97873000Y-53477000D01*
X97873000Y-53223000D01*
X97873000Y-52111750D01*
X97841250Y-52080000D01*
X97873000Y-52048250D01*
X97873000Y-50937000D01*
X96761750Y-50937000D01*
X96603000Y-51095750D01*
X96603000Y-51698309D01*
X96699673Y-51931698D01*
X96847974Y-52080000D01*
X96699673Y-52228302D01*
X96603000Y-52461691D01*
X96603000Y-53064250D01*
X96761750Y-53223000D01*
X97873000Y-53223000D01*
X97873000Y-53477000D01*
X96761750Y-53477000D01*
X96603000Y-53635750D01*
X96603000Y-54238309D01*
X96699673Y-54471698D01*
X96878301Y-54650327D01*
X97111690Y-54747000D01*
X97364309Y-54747000D01*
X97714250Y-54747000D01*
X97873000Y-54588250D01*
X97873000Y-55840888D01*
X97572433Y-55840626D01*
X96778623Y-56168622D01*
X96170756Y-56775428D01*
X95841376Y-57568664D01*
X95840626Y-58427567D01*
X96168622Y-59221377D01*
X96262081Y-59315000D01*
X90288600Y-59315000D01*
X90288600Y-57184745D01*
X90288600Y-56815255D01*
X90174526Y-56241766D01*
X89849670Y-55755585D01*
X89363489Y-55430729D01*
X88790000Y-55316655D01*
X88216511Y-55430729D01*
X87730330Y-55755585D01*
X87520000Y-56070365D01*
X87309670Y-55755585D01*
X86823489Y-55430729D01*
X86250000Y-55316655D01*
X85676511Y-55430729D01*
X85190330Y-55755585D01*
X84980000Y-56070365D01*
X84769670Y-55755585D01*
X84283489Y-55430729D01*
X83710000Y-55316655D01*
X83136511Y-55430729D01*
X82650330Y-55755585D01*
X82440000Y-56070365D01*
X82229670Y-55755585D01*
X81743489Y-55430729D01*
X81170000Y-55316655D01*
X80596511Y-55430729D01*
X80110330Y-55755585D01*
X79900000Y-56070365D01*
X79689670Y-55755585D01*
X79203489Y-55430729D01*
X78630000Y-55316655D01*
X78056511Y-55430729D01*
X77570330Y-55755585D01*
X77360000Y-56070365D01*
X77149670Y-55755585D01*
X76663489Y-55430729D01*
X76090000Y-55316655D01*
X75516511Y-55430729D01*
X75030330Y-55755585D01*
X74705474Y-56241766D01*
X74591400Y-56815255D01*
X74591400Y-57184745D01*
X74705474Y-57758234D01*
X75030330Y-58244415D01*
X75516511Y-58569271D01*
X76090000Y-58683345D01*
X76663489Y-58569271D01*
X77149670Y-58244415D01*
X77360000Y-57929634D01*
X77570330Y-58244415D01*
X78056511Y-58569271D01*
X78630000Y-58683345D01*
X79203489Y-58569271D01*
X79689670Y-58244415D01*
X79900000Y-57929634D01*
X80110330Y-58244415D01*
X80596511Y-58569271D01*
X81170000Y-58683345D01*
X81743489Y-58569271D01*
X82229670Y-58244415D01*
X82440000Y-57929634D01*
X82650330Y-58244415D01*
X83136511Y-58569271D01*
X83710000Y-58683345D01*
X84283489Y-58569271D01*
X84769670Y-58244415D01*
X84980000Y-57929634D01*
X85190330Y-58244415D01*
X85676511Y-58569271D01*
X86250000Y-58683345D01*
X86823489Y-58569271D01*
X87309670Y-58244415D01*
X87520000Y-57929634D01*
X87730330Y-58244415D01*
X88216511Y-58569271D01*
X88790000Y-58683345D01*
X89363489Y-58569271D01*
X89849670Y-58244415D01*
X90174526Y-57758234D01*
X90288600Y-57184745D01*
X90288600Y-59315000D01*
X72508600Y-59315000D01*
X72508600Y-57184745D01*
X72508600Y-56815255D01*
X72394526Y-56241766D01*
X72069670Y-55755585D01*
X71583489Y-55430729D01*
X71010000Y-55316655D01*
X70436511Y-55430729D01*
X69950330Y-55755585D01*
X69935500Y-55777779D01*
X69871927Y-55624301D01*
X69693298Y-55445673D01*
X69459909Y-55349000D01*
X68755750Y-55349000D01*
X68597000Y-55507750D01*
X68597000Y-56873000D01*
X68617000Y-56873000D01*
X68617000Y-57127000D01*
X68597000Y-57127000D01*
X68597000Y-58492250D01*
X68755750Y-58651000D01*
X69459909Y-58651000D01*
X69693298Y-58554327D01*
X69871927Y-58375699D01*
X69935500Y-58222220D01*
X69950330Y-58244415D01*
X70436511Y-58569271D01*
X71010000Y-58683345D01*
X71583489Y-58569271D01*
X72069670Y-58244415D01*
X72394526Y-57758234D01*
X72508600Y-57184745D01*
X72508600Y-59315000D01*
X68343000Y-59315000D01*
X68343000Y-58492250D01*
X68343000Y-57127000D01*
X68343000Y-56873000D01*
X68343000Y-55507750D01*
X68184250Y-55349000D01*
X68135000Y-55349000D01*
X68135000Y-54451310D01*
X68135000Y-54198691D01*
X68135000Y-53985750D01*
X68135000Y-53414250D01*
X68135000Y-53201309D01*
X68135000Y-52948690D01*
X68038327Y-52715301D01*
X67859698Y-52536673D01*
X67626309Y-52440000D01*
X67035750Y-52440000D01*
X66877000Y-52598750D01*
X66877000Y-53573000D01*
X67976250Y-53573000D01*
X68135000Y-53414250D01*
X68135000Y-53985750D01*
X67976250Y-53827000D01*
X66877000Y-53827000D01*
X66877000Y-54801250D01*
X67035750Y-54960000D01*
X67626309Y-54960000D01*
X67859698Y-54863327D01*
X68038327Y-54684699D01*
X68135000Y-54451310D01*
X68135000Y-55349000D01*
X67480091Y-55349000D01*
X67246702Y-55445673D01*
X67200000Y-55492374D01*
X67153298Y-55445673D01*
X66919909Y-55349000D01*
X66215750Y-55349000D01*
X66057000Y-55507750D01*
X66057000Y-56873000D01*
X67130150Y-56873000D01*
X67269850Y-56873000D01*
X68343000Y-56873000D01*
X68343000Y-57127000D01*
X67269850Y-57127000D01*
X67130150Y-57127000D01*
X66057000Y-57127000D01*
X66057000Y-58492250D01*
X66215750Y-58651000D01*
X66919909Y-58651000D01*
X67153298Y-58554327D01*
X67200000Y-58507625D01*
X67246702Y-58554327D01*
X67480091Y-58651000D01*
X68184250Y-58651000D01*
X68343000Y-58492250D01*
X68343000Y-59315000D01*
X53173200Y-59315000D01*
X53173200Y-59055750D01*
X53014450Y-58897000D01*
X51827000Y-58897000D01*
X51827000Y-58917000D01*
X51573000Y-58917000D01*
X51573000Y-58897000D01*
X50385550Y-58897000D01*
X50226800Y-59055750D01*
X50226800Y-59315000D01*
X48673200Y-59315000D01*
X48673200Y-59055750D01*
X48514450Y-58897000D01*
X47327000Y-58897000D01*
X47327000Y-58917000D01*
X47073000Y-58917000D01*
X47073000Y-58897000D01*
X45885550Y-58897000D01*
X45726800Y-59055750D01*
X45726800Y-59315000D01*
X39075633Y-59315000D01*
X39082088Y-59312712D01*
X39300675Y-58720199D01*
X39275878Y-58089139D01*
X39082088Y-57621288D01*
X38820159Y-57528446D01*
X37881605Y-58467000D01*
X37895747Y-58481142D01*
X37716142Y-58660747D01*
X37702000Y-58646605D01*
X37687857Y-58660747D01*
X37508252Y-58481142D01*
X37522395Y-58467000D01*
X37508252Y-58452857D01*
X37687857Y-58273252D01*
X37702000Y-58287395D01*
X38640554Y-57348841D01*
X38638614Y-57343368D01*
X38734799Y-57303527D01*
X38913427Y-57124898D01*
X39010100Y-56891509D01*
X39010100Y-56339750D01*
X38851350Y-56181000D01*
X37702000Y-56181000D01*
X37702000Y-56201000D01*
X37448000Y-56201000D01*
X37448000Y-56181000D01*
X37428000Y-56181000D01*
X37428000Y-55927000D01*
X37448000Y-55927000D01*
X37448000Y-55907000D01*
X37702000Y-55907000D01*
X37702000Y-55927000D01*
X38851350Y-55927000D01*
X39010100Y-55768250D01*
X39010100Y-55216491D01*
X38914213Y-54985000D01*
X39899994Y-54985000D01*
X39900000Y-54985001D01*
X39900000Y-54985000D01*
X40182484Y-54928810D01*
X40238674Y-54917633D01*
X40238675Y-54917633D01*
X40341131Y-54849174D01*
X40340626Y-55427567D01*
X40668622Y-56221377D01*
X41275428Y-56829244D01*
X42068664Y-57158624D01*
X42927567Y-57159374D01*
X43721377Y-56831378D01*
X44329244Y-56224572D01*
X44658624Y-55431336D01*
X44659169Y-54807194D01*
X44740301Y-54888327D01*
X44973690Y-54985000D01*
X45110885Y-54985000D01*
X45147852Y-55170839D01*
X45312599Y-55417401D01*
X45757516Y-55862318D01*
X45727056Y-55935677D01*
X45726545Y-56521752D01*
X45950353Y-57063411D01*
X46198592Y-57312083D01*
X46002101Y-57393473D01*
X45823473Y-57572102D01*
X45726800Y-57805491D01*
X45726800Y-58484250D01*
X45885550Y-58643000D01*
X47073000Y-58643000D01*
X47073000Y-58623000D01*
X47327000Y-58623000D01*
X47327000Y-58643000D01*
X48514450Y-58643000D01*
X48673200Y-58484250D01*
X48673200Y-57805491D01*
X48576527Y-57572102D01*
X48397899Y-57393473D01*
X48201308Y-57312042D01*
X48448190Y-57065591D01*
X48672944Y-56524323D01*
X48673455Y-55938248D01*
X48449647Y-55396589D01*
X48038775Y-54985000D01*
X49426309Y-54985000D01*
X49659698Y-54888327D01*
X49838327Y-54709699D01*
X49935000Y-54476310D01*
X49935000Y-54223691D01*
X49935000Y-52923691D01*
X49838327Y-52690302D01*
X49659699Y-52511673D01*
X49435000Y-52418599D01*
X49435000Y-46959802D01*
X50912599Y-48437401D01*
X51159160Y-48602148D01*
X51159161Y-48602148D01*
X51207413Y-48611746D01*
X51450000Y-48660000D01*
X52685198Y-48660000D01*
X52904892Y-48879694D01*
X52490000Y-48797167D01*
X51945671Y-48905441D01*
X51484211Y-49213778D01*
X51175874Y-49675238D01*
X51067600Y-50219567D01*
X51067600Y-51000433D01*
X51175874Y-51544762D01*
X51484211Y-52006222D01*
X51738293Y-52175994D01*
X51785835Y-52415000D01*
X50773691Y-52415000D01*
X50540302Y-52511673D01*
X50361673Y-52690301D01*
X50265000Y-52923690D01*
X50265000Y-53176309D01*
X50265000Y-54476309D01*
X50361673Y-54709698D01*
X50540301Y-54888327D01*
X50773690Y-54985000D01*
X50861933Y-54985000D01*
X50451810Y-55394409D01*
X50227056Y-55935677D01*
X50226545Y-56521752D01*
X50450353Y-57063411D01*
X50698592Y-57312083D01*
X50502101Y-57393473D01*
X50323473Y-57572102D01*
X50226800Y-57805491D01*
X50226800Y-58484250D01*
X50385550Y-58643000D01*
X51573000Y-58643000D01*
X51573000Y-58623000D01*
X51827000Y-58623000D01*
X51827000Y-58643000D01*
X53014450Y-58643000D01*
X53173200Y-58484250D01*
X53173200Y-57805491D01*
X53076527Y-57572102D01*
X52897899Y-57393473D01*
X52701308Y-57312042D01*
X52948190Y-57065591D01*
X53172944Y-56524323D01*
X53173455Y-55938248D01*
X52949647Y-55396589D01*
X52535591Y-54981810D01*
X52534801Y-54981482D01*
X52589940Y-54958642D01*
X52901699Y-55270401D01*
X53148260Y-55435148D01*
X53148261Y-55435148D01*
X53196513Y-55444746D01*
X53439100Y-55493000D01*
X57643315Y-55493000D01*
X57250330Y-55755585D01*
X56925474Y-56241766D01*
X56811400Y-56815255D01*
X56811400Y-57184745D01*
X56925474Y-57758234D01*
X57250330Y-58244415D01*
X57736511Y-58569271D01*
X58310000Y-58683345D01*
X58883489Y-58569271D01*
X59369670Y-58244415D01*
X59580000Y-57929634D01*
X59790330Y-58244415D01*
X60276511Y-58569271D01*
X60850000Y-58683345D01*
X61423489Y-58569271D01*
X61909670Y-58244415D01*
X62120000Y-57929634D01*
X62330330Y-58244415D01*
X62816511Y-58569271D01*
X63390000Y-58683345D01*
X63963489Y-58569271D01*
X64449670Y-58244415D01*
X64464499Y-58222220D01*
X64528073Y-58375699D01*
X64706702Y-58554327D01*
X64940091Y-58651000D01*
X65644250Y-58651000D01*
X65803000Y-58492250D01*
X65803000Y-57127000D01*
X65783000Y-57127000D01*
X65783000Y-56873000D01*
X65803000Y-56873000D01*
X65803000Y-55507750D01*
X65644250Y-55349000D01*
X64940091Y-55349000D01*
X64875933Y-55375574D01*
X65067633Y-55088675D01*
X65067633Y-55088674D01*
X65078810Y-55032484D01*
X65093228Y-54960000D01*
X65126309Y-54960000D01*
X65359698Y-54863327D01*
X65500000Y-54723025D01*
X65640302Y-54863327D01*
X65873691Y-54960000D01*
X66464250Y-54960000D01*
X66623000Y-54801250D01*
X66623000Y-53827000D01*
X66603000Y-53827000D01*
X66603000Y-53573000D01*
X66623000Y-53573000D01*
X66623000Y-52598750D01*
X66464250Y-52440000D01*
X65946611Y-52440000D01*
X66007633Y-52348675D01*
X66007633Y-52348674D01*
X66018810Y-52292484D01*
X66057352Y-52098721D01*
X66195789Y-52006222D01*
X66460000Y-51610801D01*
X66724211Y-52006222D01*
X67185671Y-52314559D01*
X67730000Y-52422833D01*
X68274329Y-52314559D01*
X68735789Y-52006222D01*
X68847600Y-51838884D01*
X68847600Y-51879310D01*
X68944273Y-52112699D01*
X69122902Y-52291327D01*
X69356291Y-52388000D01*
X69984250Y-52388000D01*
X70143000Y-52229250D01*
X70143000Y-50737000D01*
X70123000Y-50737000D01*
X70123000Y-50483000D01*
X70143000Y-50483000D01*
X70143000Y-50463000D01*
X70397000Y-50463000D01*
X70397000Y-50483000D01*
X70417000Y-50483000D01*
X70417000Y-50737000D01*
X70397000Y-50737000D01*
X70397000Y-52229250D01*
X70555750Y-52388000D01*
X71183709Y-52388000D01*
X71417098Y-52291327D01*
X71595727Y-52112699D01*
X71692400Y-51879310D01*
X71692400Y-51838884D01*
X71804211Y-52006222D01*
X72265671Y-52314559D01*
X72810000Y-52422833D01*
X73354329Y-52314559D01*
X73815789Y-52006222D01*
X74080000Y-51610801D01*
X74344211Y-52006222D01*
X74805671Y-52314559D01*
X75350000Y-52422833D01*
X75894329Y-52314559D01*
X76355789Y-52006222D01*
X76620000Y-51610801D01*
X76884211Y-52006222D01*
X77345671Y-52314559D01*
X77890000Y-52422833D01*
X78434329Y-52314559D01*
X78895789Y-52006222D01*
X79160000Y-51610801D01*
X79424211Y-52006222D01*
X79885671Y-52314559D01*
X80430000Y-52422833D01*
X80974329Y-52314559D01*
X81435789Y-52006222D01*
X81700000Y-51610801D01*
X81964211Y-52006222D01*
X82425671Y-52314559D01*
X82970000Y-52422833D01*
X83514329Y-52314559D01*
X83975789Y-52006222D01*
X84240000Y-51610801D01*
X84504211Y-52006222D01*
X84965671Y-52314559D01*
X85510000Y-52422833D01*
X86054329Y-52314559D01*
X86515789Y-52006222D01*
X86824126Y-51544762D01*
X86932400Y-51000433D01*
X86932400Y-50219567D01*
X86824126Y-49675238D01*
X86515789Y-49213778D01*
X86054329Y-48905441D01*
X85510000Y-48797167D01*
X84965671Y-48905441D01*
X84504211Y-49213778D01*
X84240000Y-49609198D01*
X83975789Y-49213778D01*
X83514329Y-48905441D01*
X82970000Y-48797167D01*
X82425671Y-48905441D01*
X81964211Y-49213778D01*
X81700000Y-49609198D01*
X81435789Y-49213778D01*
X80974329Y-48905441D01*
X80430000Y-48797167D01*
X79885671Y-48905441D01*
X79424211Y-49213778D01*
X79160000Y-49609198D01*
X78895789Y-49213778D01*
X78434329Y-48905441D01*
X77890000Y-48797167D01*
X77345671Y-48905441D01*
X76884211Y-49213778D01*
X76620000Y-49609198D01*
X76355789Y-49213778D01*
X75894329Y-48905441D01*
X75350000Y-48797167D01*
X74805671Y-48905441D01*
X74635000Y-49019479D01*
X74635000Y-47551310D01*
X74635000Y-47298691D01*
X74635000Y-47085750D01*
X74476250Y-46927000D01*
X73377000Y-46927000D01*
X73377000Y-47901250D01*
X73535750Y-48060000D01*
X74126309Y-48060000D01*
X74359698Y-47963327D01*
X74538327Y-47784699D01*
X74635000Y-47551310D01*
X74635000Y-49019479D01*
X74344211Y-49213778D01*
X74080000Y-49609198D01*
X73815789Y-49213778D01*
X73354329Y-48905441D01*
X72810000Y-48797167D01*
X72265671Y-48905441D01*
X71804211Y-49213778D01*
X71692400Y-49381115D01*
X71692400Y-49340690D01*
X71595727Y-49107301D01*
X71417098Y-48928673D01*
X71183709Y-48832000D01*
X70642802Y-48832000D01*
X71287401Y-48187401D01*
X71372527Y-48060000D01*
X71626309Y-48060000D01*
X71859698Y-47963327D01*
X72000000Y-47823025D01*
X72140302Y-47963327D01*
X72373691Y-48060000D01*
X72964250Y-48060000D01*
X73123000Y-47901250D01*
X73123000Y-46927000D01*
X73103000Y-46927000D01*
X73103000Y-46673000D01*
X73123000Y-46673000D01*
X73123000Y-46653000D01*
X73377000Y-46653000D01*
X73377000Y-46673000D01*
X74476250Y-46673000D01*
X74635000Y-46514250D01*
X74635000Y-46301309D01*
X74635000Y-46048690D01*
X74605367Y-45977150D01*
X76525570Y-45977150D01*
X77174207Y-46625786D01*
X77174210Y-46625790D01*
X77174211Y-46625790D01*
X77461325Y-46817633D01*
X77461326Y-46817633D01*
X77517515Y-46828810D01*
X77800000Y-46885001D01*
X77800000Y-46885000D01*
X77800005Y-46885000D01*
X80410021Y-46885000D01*
X80461673Y-47009698D01*
X80640301Y-47188327D01*
X80873690Y-47285000D01*
X80891852Y-47285000D01*
X80921189Y-47432484D01*
X80932367Y-47488675D01*
X81124210Y-47775790D01*
X81774207Y-48425786D01*
X81774210Y-48425790D01*
X81774211Y-48425790D01*
X82061325Y-48617633D01*
X82061326Y-48617633D01*
X82117515Y-48628810D01*
X82400000Y-48685001D01*
X82400000Y-48685000D01*
X82400005Y-48685000D01*
X95333420Y-48685000D01*
X95544207Y-48895786D01*
X95544210Y-48895790D01*
X95831325Y-49087633D01*
X96170000Y-49155000D01*
X96909521Y-49155000D01*
X97167071Y-49413000D01*
X97111690Y-49413000D01*
X96878301Y-49509673D01*
X96699673Y-49688302D01*
X96603000Y-49921691D01*
X96603000Y-50524250D01*
X96761750Y-50683000D01*
X97873000Y-50683000D01*
X97873000Y-50663000D01*
X98127000Y-50663000D01*
X98127000Y-50683000D01*
X98147000Y-50683000D01*
X98147000Y-50937000D01*
X98127000Y-50937000D01*
X98127000Y-52048250D01*
X98158750Y-52080000D01*
X98127000Y-52111750D01*
X98127000Y-53223000D01*
X98147000Y-53223000D01*
X98147000Y-53477000D01*
X98127000Y-53477000D01*
X98127000Y-54588250D01*
X98285750Y-54747000D01*
X98635691Y-54747000D01*
X98888310Y-54747000D01*
X99121699Y-54650327D01*
X99300327Y-54471698D01*
X99315000Y-54436274D01*
X99315000Y-56261342D01*
X99315000Y-56261342D01*
G37*
X99315000Y-56261342D02*
X99224572Y-56170756D01*
X98431336Y-55841376D01*
X97873000Y-55840888D01*
X97873000Y-54588250D01*
X97873000Y-53477000D01*
X97873000Y-53223000D01*
X97873000Y-52111750D01*
X97841250Y-52080000D01*
X97873000Y-52048250D01*
X97873000Y-50937000D01*
X96761750Y-50937000D01*
X96603000Y-51095750D01*
X96603000Y-51698309D01*
X96699673Y-51931698D01*
X96847974Y-52080000D01*
X96699673Y-52228302D01*
X96603000Y-52461691D01*
X96603000Y-53064250D01*
X96761750Y-53223000D01*
X97873000Y-53223000D01*
X97873000Y-53477000D01*
X96761750Y-53477000D01*
X96603000Y-53635750D01*
X96603000Y-54238309D01*
X96699673Y-54471698D01*
X96878301Y-54650327D01*
X97111690Y-54747000D01*
X97364309Y-54747000D01*
X97714250Y-54747000D01*
X97873000Y-54588250D01*
X97873000Y-55840888D01*
X97572433Y-55840626D01*
X96778623Y-56168622D01*
X96170756Y-56775428D01*
X95841376Y-57568664D01*
X95840626Y-58427567D01*
X96168622Y-59221377D01*
X96262081Y-59315000D01*
X90288600Y-59315000D01*
X90288600Y-57184745D01*
X90288600Y-56815255D01*
X90174526Y-56241766D01*
X89849670Y-55755585D01*
X89363489Y-55430729D01*
X88790000Y-55316655D01*
X88216511Y-55430729D01*
X87730330Y-55755585D01*
X87520000Y-56070365D01*
X87309670Y-55755585D01*
X86823489Y-55430729D01*
X86250000Y-55316655D01*
X85676511Y-55430729D01*
X85190330Y-55755585D01*
X84980000Y-56070365D01*
X84769670Y-55755585D01*
X84283489Y-55430729D01*
X83710000Y-55316655D01*
X83136511Y-55430729D01*
X82650330Y-55755585D01*
X82440000Y-56070365D01*
X82229670Y-55755585D01*
X81743489Y-55430729D01*
X81170000Y-55316655D01*
X80596511Y-55430729D01*
X80110330Y-55755585D01*
X79900000Y-56070365D01*
X79689670Y-55755585D01*
X79203489Y-55430729D01*
X78630000Y-55316655D01*
X78056511Y-55430729D01*
X77570330Y-55755585D01*
X77360000Y-56070365D01*
X77149670Y-55755585D01*
X76663489Y-55430729D01*
X76090000Y-55316655D01*
X75516511Y-55430729D01*
X75030330Y-55755585D01*
X74705474Y-56241766D01*
X74591400Y-56815255D01*
X74591400Y-57184745D01*
X74705474Y-57758234D01*
X75030330Y-58244415D01*
X75516511Y-58569271D01*
X76090000Y-58683345D01*
X76663489Y-58569271D01*
X77149670Y-58244415D01*
X77360000Y-57929634D01*
X77570330Y-58244415D01*
X78056511Y-58569271D01*
X78630000Y-58683345D01*
X79203489Y-58569271D01*
X79689670Y-58244415D01*
X79900000Y-57929634D01*
X80110330Y-58244415D01*
X80596511Y-58569271D01*
X81170000Y-58683345D01*
X81743489Y-58569271D01*
X82229670Y-58244415D01*
X82440000Y-57929634D01*
X82650330Y-58244415D01*
X83136511Y-58569271D01*
X83710000Y-58683345D01*
X84283489Y-58569271D01*
X84769670Y-58244415D01*
X84980000Y-57929634D01*
X85190330Y-58244415D01*
X85676511Y-58569271D01*
X86250000Y-58683345D01*
X86823489Y-58569271D01*
X87309670Y-58244415D01*
X87520000Y-57929634D01*
X87730330Y-58244415D01*
X88216511Y-58569271D01*
X88790000Y-58683345D01*
X89363489Y-58569271D01*
X89849670Y-58244415D01*
X90174526Y-57758234D01*
X90288600Y-57184745D01*
X90288600Y-59315000D01*
X72508600Y-59315000D01*
X72508600Y-57184745D01*
X72508600Y-56815255D01*
X72394526Y-56241766D01*
X72069670Y-55755585D01*
X71583489Y-55430729D01*
X71010000Y-55316655D01*
X70436511Y-55430729D01*
X69950330Y-55755585D01*
X69935500Y-55777779D01*
X69871927Y-55624301D01*
X69693298Y-55445673D01*
X69459909Y-55349000D01*
X68755750Y-55349000D01*
X68597000Y-55507750D01*
X68597000Y-56873000D01*
X68617000Y-56873000D01*
X68617000Y-57127000D01*
X68597000Y-57127000D01*
X68597000Y-58492250D01*
X68755750Y-58651000D01*
X69459909Y-58651000D01*
X69693298Y-58554327D01*
X69871927Y-58375699D01*
X69935500Y-58222220D01*
X69950330Y-58244415D01*
X70436511Y-58569271D01*
X71010000Y-58683345D01*
X71583489Y-58569271D01*
X72069670Y-58244415D01*
X72394526Y-57758234D01*
X72508600Y-57184745D01*
X72508600Y-59315000D01*
X68343000Y-59315000D01*
X68343000Y-58492250D01*
X68343000Y-57127000D01*
X68343000Y-56873000D01*
X68343000Y-55507750D01*
X68184250Y-55349000D01*
X68135000Y-55349000D01*
X68135000Y-54451310D01*
X68135000Y-54198691D01*
X68135000Y-53985750D01*
X68135000Y-53414250D01*
X68135000Y-53201309D01*
X68135000Y-52948690D01*
X68038327Y-52715301D01*
X67859698Y-52536673D01*
X67626309Y-52440000D01*
X67035750Y-52440000D01*
X66877000Y-52598750D01*
X66877000Y-53573000D01*
X67976250Y-53573000D01*
X68135000Y-53414250D01*
X68135000Y-53985750D01*
X67976250Y-53827000D01*
X66877000Y-53827000D01*
X66877000Y-54801250D01*
X67035750Y-54960000D01*
X67626309Y-54960000D01*
X67859698Y-54863327D01*
X68038327Y-54684699D01*
X68135000Y-54451310D01*
X68135000Y-55349000D01*
X67480091Y-55349000D01*
X67246702Y-55445673D01*
X67200000Y-55492374D01*
X67153298Y-55445673D01*
X66919909Y-55349000D01*
X66215750Y-55349000D01*
X66057000Y-55507750D01*
X66057000Y-56873000D01*
X67130150Y-56873000D01*
X67269850Y-56873000D01*
X68343000Y-56873000D01*
X68343000Y-57127000D01*
X67269850Y-57127000D01*
X67130150Y-57127000D01*
X66057000Y-57127000D01*
X66057000Y-58492250D01*
X66215750Y-58651000D01*
X66919909Y-58651000D01*
X67153298Y-58554327D01*
X67200000Y-58507625D01*
X67246702Y-58554327D01*
X67480091Y-58651000D01*
X68184250Y-58651000D01*
X68343000Y-58492250D01*
X68343000Y-59315000D01*
X53173200Y-59315000D01*
X53173200Y-59055750D01*
X53014450Y-58897000D01*
X51827000Y-58897000D01*
X51827000Y-58917000D01*
X51573000Y-58917000D01*
X51573000Y-58897000D01*
X50385550Y-58897000D01*
X50226800Y-59055750D01*
X50226800Y-59315000D01*
X48673200Y-59315000D01*
X48673200Y-59055750D01*
X48514450Y-58897000D01*
X47327000Y-58897000D01*
X47327000Y-58917000D01*
X47073000Y-58917000D01*
X47073000Y-58897000D01*
X45885550Y-58897000D01*
X45726800Y-59055750D01*
X45726800Y-59315000D01*
X39075633Y-59315000D01*
X39082088Y-59312712D01*
X39300675Y-58720199D01*
X39275878Y-58089139D01*
X39082088Y-57621288D01*
X38820159Y-57528446D01*
X37881605Y-58467000D01*
X37895747Y-58481142D01*
X37716142Y-58660747D01*
X37702000Y-58646605D01*
X37687857Y-58660747D01*
X37508252Y-58481142D01*
X37522395Y-58467000D01*
X37508252Y-58452857D01*
X37687857Y-58273252D01*
X37702000Y-58287395D01*
X38640554Y-57348841D01*
X38638614Y-57343368D01*
X38734799Y-57303527D01*
X38913427Y-57124898D01*
X39010100Y-56891509D01*
X39010100Y-56339750D01*
X38851350Y-56181000D01*
X37702000Y-56181000D01*
X37702000Y-56201000D01*
X37448000Y-56201000D01*
X37448000Y-56181000D01*
X37428000Y-56181000D01*
X37428000Y-55927000D01*
X37448000Y-55927000D01*
X37448000Y-55907000D01*
X37702000Y-55907000D01*
X37702000Y-55927000D01*
X38851350Y-55927000D01*
X39010100Y-55768250D01*
X39010100Y-55216491D01*
X38914213Y-54985000D01*
X39899994Y-54985000D01*
X39900000Y-54985001D01*
X39900000Y-54985000D01*
X40182484Y-54928810D01*
X40238674Y-54917633D01*
X40238675Y-54917633D01*
X40341131Y-54849174D01*
X40340626Y-55427567D01*
X40668622Y-56221377D01*
X41275428Y-56829244D01*
X42068664Y-57158624D01*
X42927567Y-57159374D01*
X43721377Y-56831378D01*
X44329244Y-56224572D01*
X44658624Y-55431336D01*
X44659169Y-54807194D01*
X44740301Y-54888327D01*
X44973690Y-54985000D01*
X45110885Y-54985000D01*
X45147852Y-55170839D01*
X45312599Y-55417401D01*
X45757516Y-55862318D01*
X45727056Y-55935677D01*
X45726545Y-56521752D01*
X45950353Y-57063411D01*
X46198592Y-57312083D01*
X46002101Y-57393473D01*
X45823473Y-57572102D01*
X45726800Y-57805491D01*
X45726800Y-58484250D01*
X45885550Y-58643000D01*
X47073000Y-58643000D01*
X47073000Y-58623000D01*
X47327000Y-58623000D01*
X47327000Y-58643000D01*
X48514450Y-58643000D01*
X48673200Y-58484250D01*
X48673200Y-57805491D01*
X48576527Y-57572102D01*
X48397899Y-57393473D01*
X48201308Y-57312042D01*
X48448190Y-57065591D01*
X48672944Y-56524323D01*
X48673455Y-55938248D01*
X48449647Y-55396589D01*
X48038775Y-54985000D01*
X49426309Y-54985000D01*
X49659698Y-54888327D01*
X49838327Y-54709699D01*
X49935000Y-54476310D01*
X49935000Y-54223691D01*
X49935000Y-52923691D01*
X49838327Y-52690302D01*
X49659699Y-52511673D01*
X49435000Y-52418599D01*
X49435000Y-46959802D01*
X50912599Y-48437401D01*
X51159160Y-48602148D01*
X51159161Y-48602148D01*
X51207413Y-48611746D01*
X51450000Y-48660000D01*
X52685198Y-48660000D01*
X52904892Y-48879694D01*
X52490000Y-48797167D01*
X51945671Y-48905441D01*
X51484211Y-49213778D01*
X51175874Y-49675238D01*
X51067600Y-50219567D01*
X51067600Y-51000433D01*
X51175874Y-51544762D01*
X51484211Y-52006222D01*
X51738293Y-52175994D01*
X51785835Y-52415000D01*
X50773691Y-52415000D01*
X50540302Y-52511673D01*
X50361673Y-52690301D01*
X50265000Y-52923690D01*
X50265000Y-53176309D01*
X50265000Y-54476309D01*
X50361673Y-54709698D01*
X50540301Y-54888327D01*
X50773690Y-54985000D01*
X50861933Y-54985000D01*
X50451810Y-55394409D01*
X50227056Y-55935677D01*
X50226545Y-56521752D01*
X50450353Y-57063411D01*
X50698592Y-57312083D01*
X50502101Y-57393473D01*
X50323473Y-57572102D01*
X50226800Y-57805491D01*
X50226800Y-58484250D01*
X50385550Y-58643000D01*
X51573000Y-58643000D01*
X51573000Y-58623000D01*
X51827000Y-58623000D01*
X51827000Y-58643000D01*
X53014450Y-58643000D01*
X53173200Y-58484250D01*
X53173200Y-57805491D01*
X53076527Y-57572102D01*
X52897899Y-57393473D01*
X52701308Y-57312042D01*
X52948190Y-57065591D01*
X53172944Y-56524323D01*
X53173455Y-55938248D01*
X52949647Y-55396589D01*
X52535591Y-54981810D01*
X52534801Y-54981482D01*
X52589940Y-54958642D01*
X52901699Y-55270401D01*
X53148260Y-55435148D01*
X53148261Y-55435148D01*
X53196513Y-55444746D01*
X53439100Y-55493000D01*
X57643315Y-55493000D01*
X57250330Y-55755585D01*
X56925474Y-56241766D01*
X56811400Y-56815255D01*
X56811400Y-57184745D01*
X56925474Y-57758234D01*
X57250330Y-58244415D01*
X57736511Y-58569271D01*
X58310000Y-58683345D01*
X58883489Y-58569271D01*
X59369670Y-58244415D01*
X59580000Y-57929634D01*
X59790330Y-58244415D01*
X60276511Y-58569271D01*
X60850000Y-58683345D01*
X61423489Y-58569271D01*
X61909670Y-58244415D01*
X62120000Y-57929634D01*
X62330330Y-58244415D01*
X62816511Y-58569271D01*
X63390000Y-58683345D01*
X63963489Y-58569271D01*
X64449670Y-58244415D01*
X64464499Y-58222220D01*
X64528073Y-58375699D01*
X64706702Y-58554327D01*
X64940091Y-58651000D01*
X65644250Y-58651000D01*
X65803000Y-58492250D01*
X65803000Y-57127000D01*
X65783000Y-57127000D01*
X65783000Y-56873000D01*
X65803000Y-56873000D01*
X65803000Y-55507750D01*
X65644250Y-55349000D01*
X64940091Y-55349000D01*
X64875933Y-55375574D01*
X65067633Y-55088675D01*
X65067633Y-55088674D01*
X65078810Y-55032484D01*
X65093228Y-54960000D01*
X65126309Y-54960000D01*
X65359698Y-54863327D01*
X65500000Y-54723025D01*
X65640302Y-54863327D01*
X65873691Y-54960000D01*
X66464250Y-54960000D01*
X66623000Y-54801250D01*
X66623000Y-53827000D01*
X66603000Y-53827000D01*
X66603000Y-53573000D01*
X66623000Y-53573000D01*
X66623000Y-52598750D01*
X66464250Y-52440000D01*
X65946611Y-52440000D01*
X66007633Y-52348675D01*
X66007633Y-52348674D01*
X66018810Y-52292484D01*
X66057352Y-52098721D01*
X66195789Y-52006222D01*
X66460000Y-51610801D01*
X66724211Y-52006222D01*
X67185671Y-52314559D01*
X67730000Y-52422833D01*
X68274329Y-52314559D01*
X68735789Y-52006222D01*
X68847600Y-51838884D01*
X68847600Y-51879310D01*
X68944273Y-52112699D01*
X69122902Y-52291327D01*
X69356291Y-52388000D01*
X69984250Y-52388000D01*
X70143000Y-52229250D01*
X70143000Y-50737000D01*
X70123000Y-50737000D01*
X70123000Y-50483000D01*
X70143000Y-50483000D01*
X70143000Y-50463000D01*
X70397000Y-50463000D01*
X70397000Y-50483000D01*
X70417000Y-50483000D01*
X70417000Y-50737000D01*
X70397000Y-50737000D01*
X70397000Y-52229250D01*
X70555750Y-52388000D01*
X71183709Y-52388000D01*
X71417098Y-52291327D01*
X71595727Y-52112699D01*
X71692400Y-51879310D01*
X71692400Y-51838884D01*
X71804211Y-52006222D01*
X72265671Y-52314559D01*
X72810000Y-52422833D01*
X73354329Y-52314559D01*
X73815789Y-52006222D01*
X74080000Y-51610801D01*
X74344211Y-52006222D01*
X74805671Y-52314559D01*
X75350000Y-52422833D01*
X75894329Y-52314559D01*
X76355789Y-52006222D01*
X76620000Y-51610801D01*
X76884211Y-52006222D01*
X77345671Y-52314559D01*
X77890000Y-52422833D01*
X78434329Y-52314559D01*
X78895789Y-52006222D01*
X79160000Y-51610801D01*
X79424211Y-52006222D01*
X79885671Y-52314559D01*
X80430000Y-52422833D01*
X80974329Y-52314559D01*
X81435789Y-52006222D01*
X81700000Y-51610801D01*
X81964211Y-52006222D01*
X82425671Y-52314559D01*
X82970000Y-52422833D01*
X83514329Y-52314559D01*
X83975789Y-52006222D01*
X84240000Y-51610801D01*
X84504211Y-52006222D01*
X84965671Y-52314559D01*
X85510000Y-52422833D01*
X86054329Y-52314559D01*
X86515789Y-52006222D01*
X86824126Y-51544762D01*
X86932400Y-51000433D01*
X86932400Y-50219567D01*
X86824126Y-49675238D01*
X86515789Y-49213778D01*
X86054329Y-48905441D01*
X85510000Y-48797167D01*
X84965671Y-48905441D01*
X84504211Y-49213778D01*
X84240000Y-49609198D01*
X83975789Y-49213778D01*
X83514329Y-48905441D01*
X82970000Y-48797167D01*
X82425671Y-48905441D01*
X81964211Y-49213778D01*
X81700000Y-49609198D01*
X81435789Y-49213778D01*
X80974329Y-48905441D01*
X80430000Y-48797167D01*
X79885671Y-48905441D01*
X79424211Y-49213778D01*
X79160000Y-49609198D01*
X78895789Y-49213778D01*
X78434329Y-48905441D01*
X77890000Y-48797167D01*
X77345671Y-48905441D01*
X76884211Y-49213778D01*
X76620000Y-49609198D01*
X76355789Y-49213778D01*
X75894329Y-48905441D01*
X75350000Y-48797167D01*
X74805671Y-48905441D01*
X74635000Y-49019479D01*
X74635000Y-47551310D01*
X74635000Y-47298691D01*
X74635000Y-47085750D01*
X74476250Y-46927000D01*
X73377000Y-46927000D01*
X73377000Y-47901250D01*
X73535750Y-48060000D01*
X74126309Y-48060000D01*
X74359698Y-47963327D01*
X74538327Y-47784699D01*
X74635000Y-47551310D01*
X74635000Y-49019479D01*
X74344211Y-49213778D01*
X74080000Y-49609198D01*
X73815789Y-49213778D01*
X73354329Y-48905441D01*
X72810000Y-48797167D01*
X72265671Y-48905441D01*
X71804211Y-49213778D01*
X71692400Y-49381115D01*
X71692400Y-49340690D01*
X71595727Y-49107301D01*
X71417098Y-48928673D01*
X71183709Y-48832000D01*
X70642802Y-48832000D01*
X71287401Y-48187401D01*
X71372527Y-48060000D01*
X71626309Y-48060000D01*
X71859698Y-47963327D01*
X72000000Y-47823025D01*
X72140302Y-47963327D01*
X72373691Y-48060000D01*
X72964250Y-48060000D01*
X73123000Y-47901250D01*
X73123000Y-46927000D01*
X73103000Y-46927000D01*
X73103000Y-46673000D01*
X73123000Y-46673000D01*
X73123000Y-46653000D01*
X73377000Y-46653000D01*
X73377000Y-46673000D01*
X74476250Y-46673000D01*
X74635000Y-46514250D01*
X74635000Y-46301309D01*
X74635000Y-46048690D01*
X74605367Y-45977150D01*
X76525570Y-45977150D01*
X77174207Y-46625786D01*
X77174210Y-46625790D01*
X77174211Y-46625790D01*
X77461325Y-46817633D01*
X77461326Y-46817633D01*
X77517515Y-46828810D01*
X77800000Y-46885001D01*
X77800000Y-46885000D01*
X77800005Y-46885000D01*
X80410021Y-46885000D01*
X80461673Y-47009698D01*
X80640301Y-47188327D01*
X80873690Y-47285000D01*
X80891852Y-47285000D01*
X80921189Y-47432484D01*
X80932367Y-47488675D01*
X81124210Y-47775790D01*
X81774207Y-48425786D01*
X81774210Y-48425790D01*
X81774211Y-48425790D01*
X82061325Y-48617633D01*
X82061326Y-48617633D01*
X82117515Y-48628810D01*
X82400000Y-48685001D01*
X82400000Y-48685000D01*
X82400005Y-48685000D01*
X95333420Y-48685000D01*
X95544207Y-48895786D01*
X95544210Y-48895790D01*
X95831325Y-49087633D01*
X96170000Y-49155000D01*
X96909521Y-49155000D01*
X97167071Y-49413000D01*
X97111690Y-49413000D01*
X96878301Y-49509673D01*
X96699673Y-49688302D01*
X96603000Y-49921691D01*
X96603000Y-50524250D01*
X96761750Y-50683000D01*
X97873000Y-50683000D01*
X97873000Y-50663000D01*
X98127000Y-50663000D01*
X98127000Y-50683000D01*
X98147000Y-50683000D01*
X98147000Y-50937000D01*
X98127000Y-50937000D01*
X98127000Y-52048250D01*
X98158750Y-52080000D01*
X98127000Y-52111750D01*
X98127000Y-53223000D01*
X98147000Y-53223000D01*
X98147000Y-53477000D01*
X98127000Y-53477000D01*
X98127000Y-54588250D01*
X98285750Y-54747000D01*
X98635691Y-54747000D01*
X98888310Y-54747000D01*
X99121699Y-54650327D01*
X99300327Y-54471698D01*
X99315000Y-54436274D01*
X99315000Y-56261342D01*
G36*
X124315000Y-56261342D02*
X124224572Y-56170756D01*
X123431336Y-55841376D01*
X122572433Y-55840626D01*
X121778623Y-56168622D01*
X121170756Y-56775428D01*
X120841376Y-57568664D01*
X120840626Y-58427567D01*
X121168622Y-59221377D01*
X121262081Y-59315000D01*
X113738657Y-59315000D01*
X113829244Y-59224572D01*
X114158624Y-58431336D01*
X114159374Y-57572433D01*
X113831378Y-56778623D01*
X113563000Y-56509775D01*
X113563000Y-55238250D01*
X113563000Y-54127000D01*
X113563000Y-53873000D01*
X113563000Y-52761750D01*
X113404250Y-52603000D01*
X112801691Y-52603000D01*
X112568302Y-52699673D01*
X112420000Y-52847974D01*
X112271698Y-52699673D01*
X112038309Y-52603000D01*
X111435750Y-52603000D01*
X111277000Y-52761750D01*
X111277000Y-53873000D01*
X112388250Y-53873000D01*
X112420000Y-53841250D01*
X112451750Y-53873000D01*
X113563000Y-53873000D01*
X113563000Y-54127000D01*
X112451750Y-54127000D01*
X112420000Y-54158750D01*
X112388250Y-54127000D01*
X111277000Y-54127000D01*
X111277000Y-55238250D01*
X111435750Y-55397000D01*
X112038309Y-55397000D01*
X112271698Y-55300327D01*
X112420000Y-55152025D01*
X112568302Y-55300327D01*
X112801691Y-55397000D01*
X113404250Y-55397000D01*
X113563000Y-55238250D01*
X113563000Y-56509775D01*
X113224572Y-56170756D01*
X112431336Y-55841376D01*
X111572433Y-55840626D01*
X110778623Y-56168622D01*
X110685000Y-56262081D01*
X110685000Y-55397000D01*
X110864250Y-55397000D01*
X111023000Y-55238250D01*
X111023000Y-54127000D01*
X111003000Y-54127000D01*
X111003000Y-53873000D01*
X111023000Y-53873000D01*
X111023000Y-52761750D01*
X110864250Y-52603000D01*
X110685000Y-52603000D01*
X110685000Y-46000000D01*
X110632857Y-45737862D01*
X110484368Y-45515632D01*
X110262138Y-45367143D01*
X110127000Y-45340262D01*
X110127000Y-44659737D01*
X110262138Y-44632857D01*
X110484368Y-44484368D01*
X110632857Y-44262138D01*
X110685000Y-44000000D01*
X110685000Y-32067467D01*
X110797497Y-31501906D01*
X111079643Y-31079643D01*
X111501906Y-30797497D01*
X112067466Y-30685000D01*
X112965428Y-30685000D01*
X112817912Y-30737288D01*
X112599325Y-31329801D01*
X112624122Y-31960861D01*
X112817912Y-32428712D01*
X113079841Y-32521554D01*
X114018395Y-31583000D01*
X114004252Y-31568857D01*
X114183857Y-31389252D01*
X114198000Y-31403395D01*
X114212142Y-31389252D01*
X114391747Y-31568857D01*
X114377605Y-31583000D01*
X115316159Y-32521554D01*
X115578088Y-32428712D01*
X115796675Y-31836199D01*
X115771878Y-31205139D01*
X115578088Y-30737288D01*
X115430571Y-30685000D01*
X119569428Y-30685000D01*
X119421912Y-30737288D01*
X119203325Y-31329801D01*
X119228122Y-31960861D01*
X119421912Y-32428712D01*
X119683841Y-32521554D01*
X120622395Y-31583000D01*
X120608252Y-31568857D01*
X120787857Y-31389252D01*
X120802000Y-31403395D01*
X120816142Y-31389252D01*
X120995747Y-31568857D01*
X120981605Y-31583000D01*
X121920159Y-32521554D01*
X122182088Y-32428712D01*
X122400675Y-31836199D01*
X122375878Y-31205139D01*
X122182088Y-30737288D01*
X122034571Y-30685000D01*
X122932532Y-30685000D01*
X123498093Y-30797497D01*
X123920356Y-31079643D01*
X124202502Y-31501906D01*
X124315000Y-32067466D01*
X124315000Y-52680435D01*
X124129100Y-52603243D01*
X123573339Y-52602758D01*
X123059697Y-52814990D01*
X122666371Y-53207630D01*
X122580050Y-53415512D01*
X122495010Y-53209697D01*
X122102370Y-52816371D01*
X121589100Y-52603243D01*
X121033339Y-52602758D01*
X120519697Y-52814990D01*
X120126371Y-53207630D01*
X120040050Y-53415512D01*
X119955010Y-53209697D01*
X119562370Y-52816371D01*
X119049100Y-52603243D01*
X118493339Y-52602758D01*
X117979697Y-52814990D01*
X117586371Y-53207630D01*
X117500050Y-53415512D01*
X117415010Y-53209697D01*
X117022370Y-52816371D01*
X116990000Y-52802929D01*
X116990000Y-50084802D01*
X123537401Y-43537401D01*
X123702148Y-43290839D01*
X123760000Y-43000000D01*
X123760000Y-38524409D01*
X123919282Y-38365405D01*
X124084811Y-37966767D01*
X124085188Y-37535127D01*
X123920354Y-37136200D01*
X123615405Y-36830718D01*
X123216767Y-36665189D01*
X122785127Y-36664812D01*
X122386200Y-36829646D01*
X122080718Y-37134595D01*
X121915189Y-37533233D01*
X121914812Y-37964873D01*
X122079646Y-38363800D01*
X122240000Y-38524434D01*
X122240000Y-42685198D01*
X122085188Y-42840010D01*
X122085188Y-42035127D01*
X121920354Y-41636200D01*
X121760000Y-41475565D01*
X121760000Y-38750000D01*
X121740554Y-38652239D01*
X121740554Y-32701159D01*
X120802000Y-31762605D01*
X119863446Y-32701159D01*
X119956288Y-32963088D01*
X120548801Y-33181675D01*
X121179861Y-33156878D01*
X121647712Y-32963088D01*
X121740554Y-32701159D01*
X121740554Y-38652239D01*
X121702148Y-38459161D01*
X121537401Y-38212599D01*
X120517401Y-37192599D01*
X120270839Y-37027852D01*
X119980000Y-36970000D01*
X118779979Y-36970000D01*
X118749647Y-36896589D01*
X118335591Y-36481810D01*
X117794323Y-36257056D01*
X117208248Y-36256545D01*
X116666589Y-36480353D01*
X116251810Y-36894409D01*
X116027056Y-37435677D01*
X116026545Y-38021752D01*
X116250353Y-38563411D01*
X116664409Y-38978190D01*
X116717995Y-39000441D01*
X116644192Y-39234587D01*
X117500000Y-40090395D01*
X118355808Y-39234587D01*
X118282129Y-39000836D01*
X118333411Y-38979647D01*
X118748190Y-38565591D01*
X118779578Y-38490000D01*
X119665198Y-38490000D01*
X120240000Y-39064802D01*
X120240000Y-41475590D01*
X120080718Y-41634595D01*
X120000005Y-41828971D01*
X119920354Y-41636200D01*
X119615405Y-41330718D01*
X119216767Y-41165189D01*
X118984977Y-41164986D01*
X118785127Y-41164812D01*
X118636027Y-41226419D01*
X118535415Y-41125807D01*
X118785490Y-41046983D01*
X118984977Y-40495903D01*
X118958389Y-39910431D01*
X118785490Y-39493017D01*
X118535413Y-39414192D01*
X117679605Y-40270000D01*
X117693747Y-40284142D01*
X117514142Y-40463747D01*
X117500000Y-40449605D01*
X117485857Y-40463747D01*
X117320395Y-40298285D01*
X117306252Y-40284142D01*
X117320395Y-40270000D01*
X116464587Y-39414192D01*
X116214510Y-39493017D01*
X116015023Y-40044097D01*
X116041611Y-40629569D01*
X116214510Y-41046983D01*
X116464584Y-41125807D01*
X116425457Y-41164934D01*
X116285127Y-41164812D01*
X115886200Y-41329646D01*
X115580718Y-41634595D01*
X115415189Y-42033233D01*
X115414812Y-42464873D01*
X115579646Y-42863800D01*
X115884595Y-43169282D01*
X116283233Y-43334811D01*
X116714873Y-43335188D01*
X117113800Y-43170354D01*
X117274434Y-43010000D01*
X118225590Y-43010000D01*
X118384595Y-43169282D01*
X118783233Y-43334811D01*
X119214873Y-43335188D01*
X119613800Y-43170354D01*
X119919282Y-42865405D01*
X119999994Y-42671028D01*
X120079646Y-42863800D01*
X120384595Y-43169282D01*
X120783233Y-43334811D01*
X121214873Y-43335188D01*
X121613800Y-43170354D01*
X121919282Y-42865405D01*
X122084811Y-42466767D01*
X122085188Y-42035127D01*
X122085188Y-42840010D01*
X115692599Y-49232599D01*
X115527852Y-49479161D01*
X115470000Y-49770000D01*
X115470000Y-52802469D01*
X115439697Y-52814990D01*
X115136554Y-53117603D01*
X115136554Y-32701159D01*
X114198000Y-31762605D01*
X113259446Y-32701159D01*
X113352288Y-32963088D01*
X113944801Y-33181675D01*
X114575861Y-33156878D01*
X115043712Y-32963088D01*
X115136554Y-32701159D01*
X115136554Y-53117603D01*
X115087000Y-53167071D01*
X115087000Y-53111690D01*
X114990327Y-52878301D01*
X114811698Y-52699673D01*
X114578309Y-52603000D01*
X113975750Y-52603000D01*
X113817000Y-52761750D01*
X113817000Y-53873000D01*
X113837000Y-53873000D01*
X113837000Y-54127000D01*
X113817000Y-54127000D01*
X113817000Y-55238250D01*
X113975750Y-55397000D01*
X114578309Y-55397000D01*
X114811698Y-55300327D01*
X114990327Y-55121699D01*
X115087000Y-54888310D01*
X115087000Y-54832386D01*
X115437630Y-55183629D01*
X115950900Y-55396757D01*
X116506661Y-55397242D01*
X117020303Y-55185010D01*
X117413629Y-54792370D01*
X117499949Y-54584487D01*
X117584990Y-54790303D01*
X117977630Y-55183629D01*
X118490900Y-55396757D01*
X119046661Y-55397242D01*
X119560303Y-55185010D01*
X119953629Y-54792370D01*
X120039949Y-54584487D01*
X120124990Y-54790303D01*
X120517630Y-55183629D01*
X121030900Y-55396757D01*
X121586661Y-55397242D01*
X122100303Y-55185010D01*
X122493629Y-54792370D01*
X122579949Y-54584487D01*
X122664990Y-54790303D01*
X123057630Y-55183629D01*
X123570900Y-55396757D01*
X124126661Y-55397242D01*
X124315000Y-55319422D01*
X124315000Y-56261342D01*
X124315000Y-56261342D01*
G37*
X124315000Y-56261342D02*
X124224572Y-56170756D01*
X123431336Y-55841376D01*
X122572433Y-55840626D01*
X121778623Y-56168622D01*
X121170756Y-56775428D01*
X120841376Y-57568664D01*
X120840626Y-58427567D01*
X121168622Y-59221377D01*
X121262081Y-59315000D01*
X113738657Y-59315000D01*
X113829244Y-59224572D01*
X114158624Y-58431336D01*
X114159374Y-57572433D01*
X113831378Y-56778623D01*
X113563000Y-56509775D01*
X113563000Y-55238250D01*
X113563000Y-54127000D01*
X113563000Y-53873000D01*
X113563000Y-52761750D01*
X113404250Y-52603000D01*
X112801691Y-52603000D01*
X112568302Y-52699673D01*
X112420000Y-52847974D01*
X112271698Y-52699673D01*
X112038309Y-52603000D01*
X111435750Y-52603000D01*
X111277000Y-52761750D01*
X111277000Y-53873000D01*
X112388250Y-53873000D01*
X112420000Y-53841250D01*
X112451750Y-53873000D01*
X113563000Y-53873000D01*
X113563000Y-54127000D01*
X112451750Y-54127000D01*
X112420000Y-54158750D01*
X112388250Y-54127000D01*
X111277000Y-54127000D01*
X111277000Y-55238250D01*
X111435750Y-55397000D01*
X112038309Y-55397000D01*
X112271698Y-55300327D01*
X112420000Y-55152025D01*
X112568302Y-55300327D01*
X112801691Y-55397000D01*
X113404250Y-55397000D01*
X113563000Y-55238250D01*
X113563000Y-56509775D01*
X113224572Y-56170756D01*
X112431336Y-55841376D01*
X111572433Y-55840626D01*
X110778623Y-56168622D01*
X110685000Y-56262081D01*
X110685000Y-55397000D01*
X110864250Y-55397000D01*
X111023000Y-55238250D01*
X111023000Y-54127000D01*
X111003000Y-54127000D01*
X111003000Y-53873000D01*
X111023000Y-53873000D01*
X111023000Y-52761750D01*
X110864250Y-52603000D01*
X110685000Y-52603000D01*
X110685000Y-46000000D01*
X110632857Y-45737862D01*
X110484368Y-45515632D01*
X110262138Y-45367143D01*
X110127000Y-45340262D01*
X110127000Y-44659737D01*
X110262138Y-44632857D01*
X110484368Y-44484368D01*
X110632857Y-44262138D01*
X110685000Y-44000000D01*
X110685000Y-32067467D01*
X110797497Y-31501906D01*
X111079643Y-31079643D01*
X111501906Y-30797497D01*
X112067466Y-30685000D01*
X112965428Y-30685000D01*
X112817912Y-30737288D01*
X112599325Y-31329801D01*
X112624122Y-31960861D01*
X112817912Y-32428712D01*
X113079841Y-32521554D01*
X114018395Y-31583000D01*
X114004252Y-31568857D01*
X114183857Y-31389252D01*
X114198000Y-31403395D01*
X114212142Y-31389252D01*
X114391747Y-31568857D01*
X114377605Y-31583000D01*
X115316159Y-32521554D01*
X115578088Y-32428712D01*
X115796675Y-31836199D01*
X115771878Y-31205139D01*
X115578088Y-30737288D01*
X115430571Y-30685000D01*
X119569428Y-30685000D01*
X119421912Y-30737288D01*
X119203325Y-31329801D01*
X119228122Y-31960861D01*
X119421912Y-32428712D01*
X119683841Y-32521554D01*
X120622395Y-31583000D01*
X120608252Y-31568857D01*
X120787857Y-31389252D01*
X120802000Y-31403395D01*
X120816142Y-31389252D01*
X120995747Y-31568857D01*
X120981605Y-31583000D01*
X121920159Y-32521554D01*
X122182088Y-32428712D01*
X122400675Y-31836199D01*
X122375878Y-31205139D01*
X122182088Y-30737288D01*
X122034571Y-30685000D01*
X122932532Y-30685000D01*
X123498093Y-30797497D01*
X123920356Y-31079643D01*
X124202502Y-31501906D01*
X124315000Y-32067466D01*
X124315000Y-52680435D01*
X124129100Y-52603243D01*
X123573339Y-52602758D01*
X123059697Y-52814990D01*
X122666371Y-53207630D01*
X122580050Y-53415512D01*
X122495010Y-53209697D01*
X122102370Y-52816371D01*
X121589100Y-52603243D01*
X121033339Y-52602758D01*
X120519697Y-52814990D01*
X120126371Y-53207630D01*
X120040050Y-53415512D01*
X119955010Y-53209697D01*
X119562370Y-52816371D01*
X119049100Y-52603243D01*
X118493339Y-52602758D01*
X117979697Y-52814990D01*
X117586371Y-53207630D01*
X117500050Y-53415512D01*
X117415010Y-53209697D01*
X117022370Y-52816371D01*
X116990000Y-52802929D01*
X116990000Y-50084802D01*
X123537401Y-43537401D01*
X123702148Y-43290839D01*
X123760000Y-43000000D01*
X123760000Y-38524409D01*
X123919282Y-38365405D01*
X124084811Y-37966767D01*
X124085188Y-37535127D01*
X123920354Y-37136200D01*
X123615405Y-36830718D01*
X123216767Y-36665189D01*
X122785127Y-36664812D01*
X122386200Y-36829646D01*
X122080718Y-37134595D01*
X121915189Y-37533233D01*
X121914812Y-37964873D01*
X122079646Y-38363800D01*
X122240000Y-38524434D01*
X122240000Y-42685198D01*
X122085188Y-42840010D01*
X122085188Y-42035127D01*
X121920354Y-41636200D01*
X121760000Y-41475565D01*
X121760000Y-38750000D01*
X121740554Y-38652239D01*
X121740554Y-32701159D01*
X120802000Y-31762605D01*
X119863446Y-32701159D01*
X119956288Y-32963088D01*
X120548801Y-33181675D01*
X121179861Y-33156878D01*
X121647712Y-32963088D01*
X121740554Y-32701159D01*
X121740554Y-38652239D01*
X121702148Y-38459161D01*
X121537401Y-38212599D01*
X120517401Y-37192599D01*
X120270839Y-37027852D01*
X119980000Y-36970000D01*
X118779979Y-36970000D01*
X118749647Y-36896589D01*
X118335591Y-36481810D01*
X117794323Y-36257056D01*
X117208248Y-36256545D01*
X116666589Y-36480353D01*
X116251810Y-36894409D01*
X116027056Y-37435677D01*
X116026545Y-38021752D01*
X116250353Y-38563411D01*
X116664409Y-38978190D01*
X116717995Y-39000441D01*
X116644192Y-39234587D01*
X117500000Y-40090395D01*
X118355808Y-39234587D01*
X118282129Y-39000836D01*
X118333411Y-38979647D01*
X118748190Y-38565591D01*
X118779578Y-38490000D01*
X119665198Y-38490000D01*
X120240000Y-39064802D01*
X120240000Y-41475590D01*
X120080718Y-41634595D01*
X120000005Y-41828971D01*
X119920354Y-41636200D01*
X119615405Y-41330718D01*
X119216767Y-41165189D01*
X118984977Y-41164986D01*
X118785127Y-41164812D01*
X118636027Y-41226419D01*
X118535415Y-41125807D01*
X118785490Y-41046983D01*
X118984977Y-40495903D01*
X118958389Y-39910431D01*
X118785490Y-39493017D01*
X118535413Y-39414192D01*
X117679605Y-40270000D01*
X117693747Y-40284142D01*
X117514142Y-40463747D01*
X117500000Y-40449605D01*
X117485857Y-40463747D01*
X117320395Y-40298285D01*
X117306252Y-40284142D01*
X117320395Y-40270000D01*
X116464587Y-39414192D01*
X116214510Y-39493017D01*
X116015023Y-40044097D01*
X116041611Y-40629569D01*
X116214510Y-41046983D01*
X116464584Y-41125807D01*
X116425457Y-41164934D01*
X116285127Y-41164812D01*
X115886200Y-41329646D01*
X115580718Y-41634595D01*
X115415189Y-42033233D01*
X115414812Y-42464873D01*
X115579646Y-42863800D01*
X115884595Y-43169282D01*
X116283233Y-43334811D01*
X116714873Y-43335188D01*
X117113800Y-43170354D01*
X117274434Y-43010000D01*
X118225590Y-43010000D01*
X118384595Y-43169282D01*
X118783233Y-43334811D01*
X119214873Y-43335188D01*
X119613800Y-43170354D01*
X119919282Y-42865405D01*
X119999994Y-42671028D01*
X120079646Y-42863800D01*
X120384595Y-43169282D01*
X120783233Y-43334811D01*
X121214873Y-43335188D01*
X121613800Y-43170354D01*
X121919282Y-42865405D01*
X122084811Y-42466767D01*
X122085188Y-42035127D01*
X122085188Y-42840010D01*
X115692599Y-49232599D01*
X115527852Y-49479161D01*
X115470000Y-49770000D01*
X115470000Y-52802469D01*
X115439697Y-52814990D01*
X115136554Y-53117603D01*
X115136554Y-32701159D01*
X114198000Y-31762605D01*
X113259446Y-32701159D01*
X113352288Y-32963088D01*
X113944801Y-33181675D01*
X114575861Y-33156878D01*
X115043712Y-32963088D01*
X115136554Y-32701159D01*
X115136554Y-53117603D01*
X115087000Y-53167071D01*
X115087000Y-53111690D01*
X114990327Y-52878301D01*
X114811698Y-52699673D01*
X114578309Y-52603000D01*
X113975750Y-52603000D01*
X113817000Y-52761750D01*
X113817000Y-53873000D01*
X113837000Y-53873000D01*
X113837000Y-54127000D01*
X113817000Y-54127000D01*
X113817000Y-55238250D01*
X113975750Y-55397000D01*
X114578309Y-55397000D01*
X114811698Y-55300327D01*
X114990327Y-55121699D01*
X115087000Y-54888310D01*
X115087000Y-54832386D01*
X115437630Y-55183629D01*
X115950900Y-55396757D01*
X116506661Y-55397242D01*
X117020303Y-55185010D01*
X117413629Y-54792370D01*
X117499949Y-54584487D01*
X117584990Y-54790303D01*
X117977630Y-55183629D01*
X118490900Y-55396757D01*
X119046661Y-55397242D01*
X119560303Y-55185010D01*
X119953629Y-54792370D01*
X120039949Y-54584487D01*
X120124990Y-54790303D01*
X120517630Y-55183629D01*
X121030900Y-55396757D01*
X121586661Y-55397242D01*
X122100303Y-55185010D01*
X122493629Y-54792370D01*
X122579949Y-54584487D01*
X122664990Y-54790303D01*
X123057630Y-55183629D01*
X123570900Y-55396757D01*
X124126661Y-55397242D01*
X124315000Y-55319422D01*
X124315000Y-56261342D01*
M02*
