G04 #@! TF.FileFunction,Drawing*
%FSLAX46Y46*%
G04 Gerber Fmt 4.6, Leading zero omitted, Abs format (unit mm)*
G04 Created by KiCad (PCBNEW (2014-11-14 BZR 5284)-product) date Mon Dec  1 17:56:24 2014*
%MOMM*%
G01*
G04 APERTURE LIST*
%ADD10C,0.100000*%
%ADD11C,0.300000*%
%ADD12C,0.200000*%
G04 APERTURE END LIST*
D10*
X110000000Y-46000000D02*
X110000000Y-58000000D01*
X100000000Y-46000000D02*
X110000000Y-46000000D01*
X100000000Y-58000000D02*
X100000000Y-46000000D01*
X110000000Y-44000000D02*
X110000000Y-32000000D01*
X100000000Y-44000000D02*
X110000000Y-44000000D01*
X100000000Y-32000000D02*
X100000000Y-44000000D01*
D11*
X131171429Y-41785715D02*
X131171429Y-42714286D01*
X130600000Y-42214286D01*
X130600000Y-42428572D01*
X130528571Y-42571429D01*
X130457143Y-42642858D01*
X130314286Y-42714286D01*
X129957143Y-42714286D01*
X129814286Y-42642858D01*
X129742857Y-42571429D01*
X129671429Y-42428572D01*
X129671429Y-42000000D01*
X129742857Y-41857143D01*
X129814286Y-41785715D01*
X131171429Y-43642857D02*
X131171429Y-43785714D01*
X131100000Y-43928571D01*
X131028571Y-44000000D01*
X130885714Y-44071429D01*
X130600000Y-44142857D01*
X130242857Y-44142857D01*
X129957143Y-44071429D01*
X129814286Y-44000000D01*
X129742857Y-43928571D01*
X129671429Y-43785714D01*
X129671429Y-43642857D01*
X129742857Y-43500000D01*
X129814286Y-43428571D01*
X129957143Y-43357143D01*
X130242857Y-43285714D01*
X130600000Y-43285714D01*
X130885714Y-43357143D01*
X131028571Y-43428571D01*
X131100000Y-43500000D01*
X131171429Y-43642857D01*
X129671429Y-44785714D02*
X130671429Y-44785714D01*
X130528571Y-44785714D02*
X130600000Y-44857142D01*
X130671429Y-45000000D01*
X130671429Y-45214285D01*
X130600000Y-45357142D01*
X130457143Y-45428571D01*
X129671429Y-45428571D01*
X130457143Y-45428571D02*
X130600000Y-45500000D01*
X130671429Y-45642857D01*
X130671429Y-45857142D01*
X130600000Y-46000000D01*
X130457143Y-46071428D01*
X129671429Y-46071428D01*
X129671429Y-46785714D02*
X130671429Y-46785714D01*
X130528571Y-46785714D02*
X130600000Y-46857142D01*
X130671429Y-47000000D01*
X130671429Y-47214285D01*
X130600000Y-47357142D01*
X130457143Y-47428571D01*
X129671429Y-47428571D01*
X130457143Y-47428571D02*
X130600000Y-47500000D01*
X130671429Y-47642857D01*
X130671429Y-47857142D01*
X130600000Y-48000000D01*
X130457143Y-48071428D01*
X129671429Y-48071428D01*
X129000000Y-30000000D02*
X129000000Y-60000000D01*
X126000000Y-30000000D02*
X131700000Y-30000000D01*
X126000000Y-60000000D02*
X131700000Y-60000000D01*
X129000000Y-60000000D02*
X128413579Y-58873496D01*
X129000000Y-60000000D02*
X129586421Y-58873496D01*
X129000000Y-30000000D02*
X128413579Y-31126504D01*
X129000000Y-30000000D02*
X129586421Y-31126504D01*
X115214286Y-24328571D02*
X114357143Y-24328571D01*
X114785715Y-24328571D02*
X114785715Y-22828571D01*
X114642858Y-23042857D01*
X114500000Y-23185714D01*
X114357143Y-23257143D01*
X116571429Y-22828571D02*
X115857143Y-22828571D01*
X115785714Y-23542857D01*
X115857143Y-23471429D01*
X116000000Y-23400000D01*
X116357143Y-23400000D01*
X116500000Y-23471429D01*
X116571429Y-23542857D01*
X116642857Y-23685714D01*
X116642857Y-24042857D01*
X116571429Y-24185714D01*
X116500000Y-24257143D01*
X116357143Y-24328571D01*
X116000000Y-24328571D01*
X115857143Y-24257143D01*
X115785714Y-24185714D01*
X117285714Y-24328571D02*
X117285714Y-23328571D01*
X117285714Y-23471429D02*
X117357142Y-23400000D01*
X117500000Y-23328571D01*
X117714285Y-23328571D01*
X117857142Y-23400000D01*
X117928571Y-23542857D01*
X117928571Y-24328571D01*
X117928571Y-23542857D02*
X118000000Y-23400000D01*
X118142857Y-23328571D01*
X118357142Y-23328571D01*
X118500000Y-23400000D01*
X118571428Y-23542857D01*
X118571428Y-24328571D01*
X119285714Y-24328571D02*
X119285714Y-23328571D01*
X119285714Y-23471429D02*
X119357142Y-23400000D01*
X119500000Y-23328571D01*
X119714285Y-23328571D01*
X119857142Y-23400000D01*
X119928571Y-23542857D01*
X119928571Y-24328571D01*
X119928571Y-23542857D02*
X120000000Y-23400000D01*
X120142857Y-23328571D01*
X120357142Y-23328571D01*
X120500000Y-23400000D01*
X120571428Y-23542857D01*
X120571428Y-24328571D01*
X110000000Y-25000000D02*
X125000000Y-25000000D01*
X110000000Y-29000000D02*
X110000000Y-22300000D01*
X125000000Y-29000000D02*
X125000000Y-22300000D01*
X125000000Y-25000000D02*
X123873496Y-25586421D01*
X125000000Y-25000000D02*
X123873496Y-24413579D01*
X110000000Y-25000000D02*
X111126504Y-25586421D01*
X110000000Y-25000000D02*
X111126504Y-24413579D01*
D10*
X123000000Y-30000000D02*
X112000000Y-30000000D01*
X125000000Y-58000000D02*
X125000000Y-32000000D01*
X112000000Y-60000000D02*
X123000000Y-60000000D01*
X123000000Y-60000000D02*
G75*
G03X125000000Y-58000000I0J2000000D01*
G01*
X110000000Y-58000000D02*
G75*
G03X112000000Y-60000000I2000000J0D01*
G01*
X125000000Y-32000000D02*
G75*
G03X123000000Y-30000000I-2000000J0D01*
G01*
X112000000Y-30000000D02*
G75*
G03X110000000Y-32000000I0J-2000000D01*
G01*
X100000000Y-32000000D02*
G75*
G03X98000000Y-30000000I-2000000J0D01*
G01*
X98000000Y-60000000D02*
G75*
G03X100000000Y-58000000I0J2000000D01*
G01*
X32000000Y-30000000D02*
G75*
G03X30000000Y-32000000I0J-2000000D01*
G01*
D11*
X30112143Y-82648571D02*
X30112143Y-81148571D01*
X30969286Y-82648571D01*
X30969286Y-81148571D01*
X31969286Y-81148571D02*
X32255000Y-81148571D01*
X32397858Y-81220000D01*
X32540715Y-81362857D01*
X32612143Y-81648571D01*
X32612143Y-82148571D01*
X32540715Y-82434286D01*
X32397858Y-82577143D01*
X32255000Y-82648571D01*
X31969286Y-82648571D01*
X31826429Y-82577143D01*
X31683572Y-82434286D01*
X31612143Y-82148571D01*
X31612143Y-81648571D01*
X31683572Y-81362857D01*
X31826429Y-81220000D01*
X31969286Y-81148571D01*
X33040715Y-81148571D02*
X33897858Y-81148571D01*
X33469287Y-82648571D02*
X33469287Y-81148571D01*
X34397858Y-81862857D02*
X34897858Y-81862857D01*
X35112144Y-82648571D02*
X34397858Y-82648571D01*
X34397858Y-81148571D01*
X35112144Y-81148571D01*
X35683572Y-82577143D02*
X35897858Y-82648571D01*
X36255001Y-82648571D01*
X36397858Y-82577143D01*
X36469287Y-82505714D01*
X36540715Y-82362857D01*
X36540715Y-82220000D01*
X36469287Y-82077143D01*
X36397858Y-82005714D01*
X36255001Y-81934286D01*
X35969287Y-81862857D01*
X35826429Y-81791429D01*
X35755001Y-81720000D01*
X35683572Y-81577143D01*
X35683572Y-81434286D01*
X35755001Y-81291429D01*
X35826429Y-81220000D01*
X35969287Y-81148571D01*
X36326429Y-81148571D01*
X36540715Y-81220000D01*
X38326429Y-82505714D02*
X38397857Y-82577143D01*
X38326429Y-82648571D01*
X38255000Y-82577143D01*
X38326429Y-82505714D01*
X38326429Y-82648571D01*
X38326429Y-81720000D02*
X38397857Y-81791429D01*
X38326429Y-81862857D01*
X38255000Y-81791429D01*
X38326429Y-81720000D01*
X38326429Y-81862857D01*
X30897857Y-85048571D02*
X30040714Y-85048571D01*
X30469286Y-85048571D02*
X30469286Y-83548571D01*
X30326429Y-83762857D01*
X30183571Y-83905714D01*
X30040714Y-83977143D01*
X31540714Y-84905714D02*
X31612142Y-84977143D01*
X31540714Y-85048571D01*
X31469285Y-84977143D01*
X31540714Y-84905714D01*
X31540714Y-85048571D01*
X33326428Y-84620000D02*
X34040714Y-84620000D01*
X33183571Y-85048571D02*
X33683571Y-83548571D01*
X34183571Y-85048571D01*
X34683571Y-85048571D02*
X34683571Y-84048571D01*
X34683571Y-84334286D02*
X34754999Y-84191429D01*
X34826428Y-84120000D01*
X34969285Y-84048571D01*
X35112142Y-84048571D01*
X36254999Y-85048571D02*
X36254999Y-83548571D01*
X36254999Y-84977143D02*
X36112142Y-85048571D01*
X35826428Y-85048571D01*
X35683570Y-84977143D01*
X35612142Y-84905714D01*
X35540713Y-84762857D01*
X35540713Y-84334286D01*
X35612142Y-84191429D01*
X35683570Y-84120000D01*
X35826428Y-84048571D01*
X36112142Y-84048571D01*
X36254999Y-84120000D01*
X37612142Y-84048571D02*
X37612142Y-85048571D01*
X36969285Y-84048571D02*
X36969285Y-84834286D01*
X37040713Y-84977143D01*
X37183571Y-85048571D01*
X37397856Y-85048571D01*
X37540713Y-84977143D01*
X37612142Y-84905714D01*
X38326428Y-85048571D02*
X38326428Y-84048571D01*
X38326428Y-83548571D02*
X38254999Y-83620000D01*
X38326428Y-83691429D01*
X38397856Y-83620000D01*
X38326428Y-83548571D01*
X38326428Y-83691429D01*
X39040714Y-84048571D02*
X39040714Y-85048571D01*
X39040714Y-84191429D02*
X39112142Y-84120000D01*
X39255000Y-84048571D01*
X39469285Y-84048571D01*
X39612142Y-84120000D01*
X39683571Y-84262857D01*
X39683571Y-85048571D01*
X40612143Y-85048571D02*
X40469285Y-84977143D01*
X40397857Y-84905714D01*
X40326428Y-84762857D01*
X40326428Y-84334286D01*
X40397857Y-84191429D01*
X40469285Y-84120000D01*
X40612143Y-84048571D01*
X40826428Y-84048571D01*
X40969285Y-84120000D01*
X41040714Y-84191429D01*
X41112143Y-84334286D01*
X41112143Y-84762857D01*
X41040714Y-84905714D01*
X40969285Y-84977143D01*
X40826428Y-85048571D01*
X40612143Y-85048571D01*
X42897857Y-85048571D02*
X42897857Y-83548571D01*
X43540714Y-85048571D02*
X43540714Y-84262857D01*
X43469285Y-84120000D01*
X43326428Y-84048571D01*
X43112143Y-84048571D01*
X42969285Y-84120000D01*
X42897857Y-84191429D01*
X44826428Y-84977143D02*
X44683571Y-85048571D01*
X44397857Y-85048571D01*
X44255000Y-84977143D01*
X44183571Y-84834286D01*
X44183571Y-84262857D01*
X44255000Y-84120000D01*
X44397857Y-84048571D01*
X44683571Y-84048571D01*
X44826428Y-84120000D01*
X44897857Y-84262857D01*
X44897857Y-84405714D01*
X44183571Y-84548571D01*
X46183571Y-85048571D02*
X46183571Y-84262857D01*
X46112142Y-84120000D01*
X45969285Y-84048571D01*
X45683571Y-84048571D01*
X45540714Y-84120000D01*
X46183571Y-84977143D02*
X46040714Y-85048571D01*
X45683571Y-85048571D01*
X45540714Y-84977143D01*
X45469285Y-84834286D01*
X45469285Y-84691429D01*
X45540714Y-84548571D01*
X45683571Y-84477143D01*
X46040714Y-84477143D01*
X46183571Y-84405714D01*
X47540714Y-85048571D02*
X47540714Y-83548571D01*
X47540714Y-84977143D02*
X47397857Y-85048571D01*
X47112143Y-85048571D01*
X46969285Y-84977143D01*
X46897857Y-84905714D01*
X46826428Y-84762857D01*
X46826428Y-84334286D01*
X46897857Y-84191429D01*
X46969285Y-84120000D01*
X47112143Y-84048571D01*
X47397857Y-84048571D01*
X47540714Y-84120000D01*
X48826428Y-84977143D02*
X48683571Y-85048571D01*
X48397857Y-85048571D01*
X48255000Y-84977143D01*
X48183571Y-84834286D01*
X48183571Y-84262857D01*
X48255000Y-84120000D01*
X48397857Y-84048571D01*
X48683571Y-84048571D01*
X48826428Y-84120000D01*
X48897857Y-84262857D01*
X48897857Y-84405714D01*
X48183571Y-84548571D01*
X49540714Y-85048571D02*
X49540714Y-84048571D01*
X49540714Y-84334286D02*
X49612142Y-84191429D01*
X49683571Y-84120000D01*
X49826428Y-84048571D01*
X49969285Y-84048571D01*
X50397856Y-84977143D02*
X50540713Y-85048571D01*
X50826428Y-85048571D01*
X50969285Y-84977143D01*
X51040713Y-84834286D01*
X51040713Y-84762857D01*
X50969285Y-84620000D01*
X50826428Y-84548571D01*
X50612142Y-84548571D01*
X50469285Y-84477143D01*
X50397856Y-84334286D01*
X50397856Y-84262857D01*
X50469285Y-84120000D01*
X50612142Y-84048571D01*
X50826428Y-84048571D01*
X50969285Y-84120000D01*
X53469285Y-85048571D02*
X53469285Y-84262857D01*
X53397856Y-84120000D01*
X53254999Y-84048571D01*
X52969285Y-84048571D01*
X52826428Y-84120000D01*
X53469285Y-84977143D02*
X53326428Y-85048571D01*
X52969285Y-85048571D01*
X52826428Y-84977143D01*
X52754999Y-84834286D01*
X52754999Y-84691429D01*
X52826428Y-84548571D01*
X52969285Y-84477143D01*
X53326428Y-84477143D01*
X53469285Y-84405714D01*
X54183571Y-85048571D02*
X54183571Y-84048571D01*
X54183571Y-84334286D02*
X54254999Y-84191429D01*
X54326428Y-84120000D01*
X54469285Y-84048571D01*
X54612142Y-84048571D01*
X55683570Y-84977143D02*
X55540713Y-85048571D01*
X55254999Y-85048571D01*
X55112142Y-84977143D01*
X55040713Y-84834286D01*
X55040713Y-84262857D01*
X55112142Y-84120000D01*
X55254999Y-84048571D01*
X55540713Y-84048571D01*
X55683570Y-84120000D01*
X55754999Y-84262857D01*
X55754999Y-84405714D01*
X55040713Y-84548571D01*
X58183570Y-85048571D02*
X58183570Y-84262857D01*
X58112141Y-84120000D01*
X57969284Y-84048571D01*
X57683570Y-84048571D01*
X57540713Y-84120000D01*
X58183570Y-84977143D02*
X58040713Y-85048571D01*
X57683570Y-85048571D01*
X57540713Y-84977143D01*
X57469284Y-84834286D01*
X57469284Y-84691429D01*
X57540713Y-84548571D01*
X57683570Y-84477143D01*
X58040713Y-84477143D01*
X58183570Y-84405714D01*
X58897856Y-85048571D02*
X58897856Y-84048571D01*
X58897856Y-84334286D02*
X58969284Y-84191429D01*
X59040713Y-84120000D01*
X59183570Y-84048571D01*
X59326427Y-84048571D01*
X59826427Y-85048571D02*
X59826427Y-84048571D01*
X59826427Y-84334286D02*
X59897855Y-84191429D01*
X59969284Y-84120000D01*
X60112141Y-84048571D01*
X60254998Y-84048571D01*
X61397855Y-85048571D02*
X61397855Y-84262857D01*
X61326426Y-84120000D01*
X61183569Y-84048571D01*
X60897855Y-84048571D01*
X60754998Y-84120000D01*
X61397855Y-84977143D02*
X61254998Y-85048571D01*
X60897855Y-85048571D01*
X60754998Y-84977143D01*
X60683569Y-84834286D01*
X60683569Y-84691429D01*
X60754998Y-84548571D01*
X60897855Y-84477143D01*
X61254998Y-84477143D01*
X61397855Y-84405714D01*
X62112141Y-84048571D02*
X62112141Y-85048571D01*
X62112141Y-84191429D02*
X62183569Y-84120000D01*
X62326427Y-84048571D01*
X62540712Y-84048571D01*
X62683569Y-84120000D01*
X62754998Y-84262857D01*
X62754998Y-85048571D01*
X64112141Y-84048571D02*
X64112141Y-85262857D01*
X64040712Y-85405714D01*
X63969284Y-85477143D01*
X63826427Y-85548571D01*
X63612141Y-85548571D01*
X63469284Y-85477143D01*
X64112141Y-84977143D02*
X63969284Y-85048571D01*
X63683570Y-85048571D01*
X63540712Y-84977143D01*
X63469284Y-84905714D01*
X63397855Y-84762857D01*
X63397855Y-84334286D01*
X63469284Y-84191429D01*
X63540712Y-84120000D01*
X63683570Y-84048571D01*
X63969284Y-84048571D01*
X64112141Y-84120000D01*
X65397855Y-84977143D02*
X65254998Y-85048571D01*
X64969284Y-85048571D01*
X64826427Y-84977143D01*
X64754998Y-84834286D01*
X64754998Y-84262857D01*
X64826427Y-84120000D01*
X64969284Y-84048571D01*
X65254998Y-84048571D01*
X65397855Y-84120000D01*
X65469284Y-84262857D01*
X65469284Y-84405714D01*
X64754998Y-84548571D01*
X66754998Y-85048571D02*
X66754998Y-83548571D01*
X66754998Y-84977143D02*
X66612141Y-85048571D01*
X66326427Y-85048571D01*
X66183569Y-84977143D01*
X66112141Y-84905714D01*
X66040712Y-84762857D01*
X66040712Y-84334286D01*
X66112141Y-84191429D01*
X66183569Y-84120000D01*
X66326427Y-84048571D01*
X66612141Y-84048571D01*
X66754998Y-84120000D01*
X68612141Y-85048571D02*
X68612141Y-84048571D01*
X68612141Y-83548571D02*
X68540712Y-83620000D01*
X68612141Y-83691429D01*
X68683569Y-83620000D01*
X68612141Y-83548571D01*
X68612141Y-83691429D01*
X69326427Y-84048571D02*
X69326427Y-85048571D01*
X69326427Y-84191429D02*
X69397855Y-84120000D01*
X69540713Y-84048571D01*
X69754998Y-84048571D01*
X69897855Y-84120000D01*
X69969284Y-84262857D01*
X69969284Y-85048571D01*
X71754998Y-84977143D02*
X71897855Y-85048571D01*
X72183570Y-85048571D01*
X72326427Y-84977143D01*
X72397855Y-84834286D01*
X72397855Y-84762857D01*
X72326427Y-84620000D01*
X72183570Y-84548571D01*
X71969284Y-84548571D01*
X71826427Y-84477143D01*
X71754998Y-84334286D01*
X71754998Y-84262857D01*
X71826427Y-84120000D01*
X71969284Y-84048571D01*
X72183570Y-84048571D01*
X72326427Y-84120000D01*
X73683570Y-85048571D02*
X73683570Y-84262857D01*
X73612141Y-84120000D01*
X73469284Y-84048571D01*
X73183570Y-84048571D01*
X73040713Y-84120000D01*
X73683570Y-84977143D02*
X73540713Y-85048571D01*
X73183570Y-85048571D01*
X73040713Y-84977143D01*
X72969284Y-84834286D01*
X72969284Y-84691429D01*
X73040713Y-84548571D01*
X73183570Y-84477143D01*
X73540713Y-84477143D01*
X73683570Y-84405714D01*
X74397856Y-85048571D02*
X74397856Y-84048571D01*
X74397856Y-84191429D02*
X74469284Y-84120000D01*
X74612142Y-84048571D01*
X74826427Y-84048571D01*
X74969284Y-84120000D01*
X75040713Y-84262857D01*
X75040713Y-85048571D01*
X75040713Y-84262857D02*
X75112142Y-84120000D01*
X75254999Y-84048571D01*
X75469284Y-84048571D01*
X75612142Y-84120000D01*
X75683570Y-84262857D01*
X75683570Y-85048571D01*
X76969284Y-84977143D02*
X76826427Y-85048571D01*
X76540713Y-85048571D01*
X76397856Y-84977143D01*
X76326427Y-84834286D01*
X76326427Y-84262857D01*
X76397856Y-84120000D01*
X76540713Y-84048571D01*
X76826427Y-84048571D01*
X76969284Y-84120000D01*
X77040713Y-84262857D01*
X77040713Y-84405714D01*
X76326427Y-84548571D01*
X78754998Y-84977143D02*
X78897855Y-85048571D01*
X79183570Y-85048571D01*
X79326427Y-84977143D01*
X79397855Y-84834286D01*
X79397855Y-84762857D01*
X79326427Y-84620000D01*
X79183570Y-84548571D01*
X78969284Y-84548571D01*
X78826427Y-84477143D01*
X78754998Y-84334286D01*
X78754998Y-84262857D01*
X78826427Y-84120000D01*
X78969284Y-84048571D01*
X79183570Y-84048571D01*
X79326427Y-84120000D01*
X80612141Y-84977143D02*
X80469284Y-85048571D01*
X80183570Y-85048571D01*
X80040713Y-84977143D01*
X79969284Y-84834286D01*
X79969284Y-84262857D01*
X80040713Y-84120000D01*
X80183570Y-84048571D01*
X80469284Y-84048571D01*
X80612141Y-84120000D01*
X80683570Y-84262857D01*
X80683570Y-84405714D01*
X79969284Y-84548571D01*
X81969284Y-84048571D02*
X81969284Y-85548571D01*
X81969284Y-84977143D02*
X81826427Y-85048571D01*
X81540713Y-85048571D01*
X81397855Y-84977143D01*
X81326427Y-84905714D01*
X81254998Y-84762857D01*
X81254998Y-84334286D01*
X81326427Y-84191429D01*
X81397855Y-84120000D01*
X81540713Y-84048571D01*
X81826427Y-84048571D01*
X81969284Y-84120000D01*
X83326427Y-84048571D02*
X83326427Y-85048571D01*
X82683570Y-84048571D02*
X82683570Y-84834286D01*
X82754998Y-84977143D01*
X82897856Y-85048571D01*
X83112141Y-85048571D01*
X83254998Y-84977143D01*
X83326427Y-84905714D01*
X84612141Y-84977143D02*
X84469284Y-85048571D01*
X84183570Y-85048571D01*
X84040713Y-84977143D01*
X83969284Y-84834286D01*
X83969284Y-84262857D01*
X84040713Y-84120000D01*
X84183570Y-84048571D01*
X84469284Y-84048571D01*
X84612141Y-84120000D01*
X84683570Y-84262857D01*
X84683570Y-84405714D01*
X83969284Y-84548571D01*
X85326427Y-84048571D02*
X85326427Y-85048571D01*
X85326427Y-84191429D02*
X85397855Y-84120000D01*
X85540713Y-84048571D01*
X85754998Y-84048571D01*
X85897855Y-84120000D01*
X85969284Y-84262857D01*
X85969284Y-85048571D01*
X87326427Y-84977143D02*
X87183570Y-85048571D01*
X86897856Y-85048571D01*
X86754998Y-84977143D01*
X86683570Y-84905714D01*
X86612141Y-84762857D01*
X86612141Y-84334286D01*
X86683570Y-84191429D01*
X86754998Y-84120000D01*
X86897856Y-84048571D01*
X87183570Y-84048571D01*
X87326427Y-84120000D01*
X88540712Y-84977143D02*
X88397855Y-85048571D01*
X88112141Y-85048571D01*
X87969284Y-84977143D01*
X87897855Y-84834286D01*
X87897855Y-84262857D01*
X87969284Y-84120000D01*
X88112141Y-84048571D01*
X88397855Y-84048571D01*
X88540712Y-84120000D01*
X88612141Y-84262857D01*
X88612141Y-84405714D01*
X87897855Y-84548571D01*
X91040712Y-85048571D02*
X91040712Y-84262857D01*
X90969283Y-84120000D01*
X90826426Y-84048571D01*
X90540712Y-84048571D01*
X90397855Y-84120000D01*
X91040712Y-84977143D02*
X90897855Y-85048571D01*
X90540712Y-85048571D01*
X90397855Y-84977143D01*
X90326426Y-84834286D01*
X90326426Y-84691429D01*
X90397855Y-84548571D01*
X90540712Y-84477143D01*
X90897855Y-84477143D01*
X91040712Y-84405714D01*
X91683569Y-84977143D02*
X91826426Y-85048571D01*
X92112141Y-85048571D01*
X92254998Y-84977143D01*
X92326426Y-84834286D01*
X92326426Y-84762857D01*
X92254998Y-84620000D01*
X92112141Y-84548571D01*
X91897855Y-84548571D01*
X91754998Y-84477143D01*
X91683569Y-84334286D01*
X91683569Y-84262857D01*
X91754998Y-84120000D01*
X91897855Y-84048571D01*
X92112141Y-84048571D01*
X92254998Y-84120000D01*
X94112141Y-85048571D02*
X94112141Y-83548571D01*
X94469284Y-83548571D01*
X94683569Y-83620000D01*
X94826427Y-83762857D01*
X94897855Y-83905714D01*
X94969284Y-84191429D01*
X94969284Y-84405714D01*
X94897855Y-84691429D01*
X94826427Y-84834286D01*
X94683569Y-84977143D01*
X94469284Y-85048571D01*
X94112141Y-85048571D01*
X96254998Y-84048571D02*
X96254998Y-85048571D01*
X95612141Y-84048571D02*
X95612141Y-84834286D01*
X95683569Y-84977143D01*
X95826427Y-85048571D01*
X96040712Y-85048571D01*
X96183569Y-84977143D01*
X96254998Y-84905714D01*
X97540712Y-84977143D02*
X97397855Y-85048571D01*
X97112141Y-85048571D01*
X96969284Y-84977143D01*
X96897855Y-84834286D01*
X96897855Y-84262857D01*
X96969284Y-84120000D01*
X97112141Y-84048571D01*
X97397855Y-84048571D01*
X97540712Y-84120000D01*
X97612141Y-84262857D01*
X97612141Y-84405714D01*
X96897855Y-84548571D01*
X98254998Y-85048571D02*
X98254998Y-84048571D01*
X98254998Y-84191429D02*
X98326426Y-84120000D01*
X98469284Y-84048571D01*
X98683569Y-84048571D01*
X98826426Y-84120000D01*
X98897855Y-84262857D01*
X98897855Y-85048571D01*
X98897855Y-84262857D02*
X98969284Y-84120000D01*
X99112141Y-84048571D01*
X99326426Y-84048571D01*
X99469284Y-84120000D01*
X99540712Y-84262857D01*
X99540712Y-85048571D01*
X100254998Y-85048571D02*
X100254998Y-84048571D01*
X100254998Y-83548571D02*
X100183569Y-83620000D01*
X100254998Y-83691429D01*
X100326426Y-83620000D01*
X100254998Y-83548571D01*
X100254998Y-83691429D01*
X101183570Y-85048571D02*
X101040712Y-84977143D01*
X100969284Y-84834286D01*
X100969284Y-83548571D01*
X102326426Y-84977143D02*
X102183569Y-85048571D01*
X101897855Y-85048571D01*
X101754998Y-84977143D01*
X101683569Y-84834286D01*
X101683569Y-84262857D01*
X101754998Y-84120000D01*
X101897855Y-84048571D01*
X102183569Y-84048571D01*
X102326426Y-84120000D01*
X102397855Y-84262857D01*
X102397855Y-84405714D01*
X101683569Y-84548571D01*
X103040712Y-84048571D02*
X103040712Y-85048571D01*
X103040712Y-84191429D02*
X103112140Y-84120000D01*
X103254998Y-84048571D01*
X103469283Y-84048571D01*
X103612140Y-84120000D01*
X103683569Y-84262857D01*
X103683569Y-85048571D01*
X104612141Y-85048571D02*
X104469283Y-84977143D01*
X104397855Y-84905714D01*
X104326426Y-84762857D01*
X104326426Y-84334286D01*
X104397855Y-84191429D01*
X104469283Y-84120000D01*
X104612141Y-84048571D01*
X104826426Y-84048571D01*
X104969283Y-84120000D01*
X105040712Y-84191429D01*
X105112141Y-84334286D01*
X105112141Y-84762857D01*
X105040712Y-84905714D01*
X104969283Y-84977143D01*
X104826426Y-85048571D01*
X104612141Y-85048571D01*
X105612141Y-84048571D02*
X105969284Y-85048571D01*
X106326426Y-84048571D01*
X107540712Y-85048571D02*
X107540712Y-84262857D01*
X107469283Y-84120000D01*
X107326426Y-84048571D01*
X107040712Y-84048571D01*
X106897855Y-84120000D01*
X107540712Y-84977143D02*
X107397855Y-85048571D01*
X107040712Y-85048571D01*
X106897855Y-84977143D01*
X106826426Y-84834286D01*
X106826426Y-84691429D01*
X106897855Y-84548571D01*
X107040712Y-84477143D01*
X107397855Y-84477143D01*
X107540712Y-84405714D01*
X30040714Y-86091429D02*
X30112143Y-86020000D01*
X30255000Y-85948571D01*
X30612143Y-85948571D01*
X30755000Y-86020000D01*
X30826429Y-86091429D01*
X30897857Y-86234286D01*
X30897857Y-86377143D01*
X30826429Y-86591429D01*
X29969286Y-87448571D01*
X30897857Y-87448571D01*
X31540714Y-87305714D02*
X31612142Y-87377143D01*
X31540714Y-87448571D01*
X31469285Y-87377143D01*
X31540714Y-87305714D01*
X31540714Y-87448571D01*
X34183571Y-86020000D02*
X34040714Y-85948571D01*
X33826428Y-85948571D01*
X33612143Y-86020000D01*
X33469285Y-86162857D01*
X33397857Y-86305714D01*
X33326428Y-86591429D01*
X33326428Y-86805714D01*
X33397857Y-87091429D01*
X33469285Y-87234286D01*
X33612143Y-87377143D01*
X33826428Y-87448571D01*
X33969285Y-87448571D01*
X34183571Y-87377143D01*
X34255000Y-87305714D01*
X34255000Y-86805714D01*
X33969285Y-86805714D01*
X35540714Y-87448571D02*
X35540714Y-86662857D01*
X35469285Y-86520000D01*
X35326428Y-86448571D01*
X35040714Y-86448571D01*
X34897857Y-86520000D01*
X35540714Y-87377143D02*
X35397857Y-87448571D01*
X35040714Y-87448571D01*
X34897857Y-87377143D01*
X34826428Y-87234286D01*
X34826428Y-87091429D01*
X34897857Y-86948571D01*
X35040714Y-86877143D01*
X35397857Y-86877143D01*
X35540714Y-86805714D01*
X36255000Y-86448571D02*
X36255000Y-87948571D01*
X36255000Y-86520000D02*
X36397857Y-86448571D01*
X36683571Y-86448571D01*
X36826428Y-86520000D01*
X36897857Y-86591429D01*
X36969286Y-86734286D01*
X36969286Y-87162857D01*
X36897857Y-87305714D01*
X36826428Y-87377143D01*
X36683571Y-87448571D01*
X36397857Y-87448571D01*
X36255000Y-87377143D01*
X38755000Y-87448571D02*
X38755000Y-85948571D01*
X38755000Y-86520000D02*
X38897857Y-86448571D01*
X39183571Y-86448571D01*
X39326428Y-86520000D01*
X39397857Y-86591429D01*
X39469286Y-86734286D01*
X39469286Y-87162857D01*
X39397857Y-87305714D01*
X39326428Y-87377143D01*
X39183571Y-87448571D01*
X38897857Y-87448571D01*
X38755000Y-87377143D01*
X40683571Y-87377143D02*
X40540714Y-87448571D01*
X40255000Y-87448571D01*
X40112143Y-87377143D01*
X40040714Y-87234286D01*
X40040714Y-86662857D01*
X40112143Y-86520000D01*
X40255000Y-86448571D01*
X40540714Y-86448571D01*
X40683571Y-86520000D01*
X40755000Y-86662857D01*
X40755000Y-86805714D01*
X40040714Y-86948571D01*
X41183571Y-86448571D02*
X41755000Y-86448571D01*
X41397857Y-85948571D02*
X41397857Y-87234286D01*
X41469285Y-87377143D01*
X41612143Y-87448571D01*
X41755000Y-87448571D01*
X42112143Y-86448571D02*
X42397857Y-87448571D01*
X42683571Y-86734286D01*
X42969286Y-87448571D01*
X43255000Y-86448571D01*
X44397857Y-87377143D02*
X44255000Y-87448571D01*
X43969286Y-87448571D01*
X43826429Y-87377143D01*
X43755000Y-87234286D01*
X43755000Y-86662857D01*
X43826429Y-86520000D01*
X43969286Y-86448571D01*
X44255000Y-86448571D01*
X44397857Y-86520000D01*
X44469286Y-86662857D01*
X44469286Y-86805714D01*
X43755000Y-86948571D01*
X45683571Y-87377143D02*
X45540714Y-87448571D01*
X45255000Y-87448571D01*
X45112143Y-87377143D01*
X45040714Y-87234286D01*
X45040714Y-86662857D01*
X45112143Y-86520000D01*
X45255000Y-86448571D01*
X45540714Y-86448571D01*
X45683571Y-86520000D01*
X45755000Y-86662857D01*
X45755000Y-86805714D01*
X45040714Y-86948571D01*
X46397857Y-86448571D02*
X46397857Y-87448571D01*
X46397857Y-86591429D02*
X46469285Y-86520000D01*
X46612143Y-86448571D01*
X46826428Y-86448571D01*
X46969285Y-86520000D01*
X47040714Y-86662857D01*
X47040714Y-87448571D01*
X48897857Y-87448571D02*
X48897857Y-85948571D01*
X49540714Y-87448571D02*
X49540714Y-86662857D01*
X49469285Y-86520000D01*
X49326428Y-86448571D01*
X49112143Y-86448571D01*
X48969285Y-86520000D01*
X48897857Y-86591429D01*
X50826428Y-87377143D02*
X50683571Y-87448571D01*
X50397857Y-87448571D01*
X50255000Y-87377143D01*
X50183571Y-87234286D01*
X50183571Y-86662857D01*
X50255000Y-86520000D01*
X50397857Y-86448571D01*
X50683571Y-86448571D01*
X50826428Y-86520000D01*
X50897857Y-86662857D01*
X50897857Y-86805714D01*
X50183571Y-86948571D01*
X52183571Y-87448571D02*
X52183571Y-86662857D01*
X52112142Y-86520000D01*
X51969285Y-86448571D01*
X51683571Y-86448571D01*
X51540714Y-86520000D01*
X52183571Y-87377143D02*
X52040714Y-87448571D01*
X51683571Y-87448571D01*
X51540714Y-87377143D01*
X51469285Y-87234286D01*
X51469285Y-87091429D01*
X51540714Y-86948571D01*
X51683571Y-86877143D01*
X52040714Y-86877143D01*
X52183571Y-86805714D01*
X53540714Y-87448571D02*
X53540714Y-85948571D01*
X53540714Y-87377143D02*
X53397857Y-87448571D01*
X53112143Y-87448571D01*
X52969285Y-87377143D01*
X52897857Y-87305714D01*
X52826428Y-87162857D01*
X52826428Y-86734286D01*
X52897857Y-86591429D01*
X52969285Y-86520000D01*
X53112143Y-86448571D01*
X53397857Y-86448571D01*
X53540714Y-86520000D01*
X54826428Y-87377143D02*
X54683571Y-87448571D01*
X54397857Y-87448571D01*
X54255000Y-87377143D01*
X54183571Y-87234286D01*
X54183571Y-86662857D01*
X54255000Y-86520000D01*
X54397857Y-86448571D01*
X54683571Y-86448571D01*
X54826428Y-86520000D01*
X54897857Y-86662857D01*
X54897857Y-86805714D01*
X54183571Y-86948571D01*
X55540714Y-87448571D02*
X55540714Y-86448571D01*
X55540714Y-86734286D02*
X55612142Y-86591429D01*
X55683571Y-86520000D01*
X55826428Y-86448571D01*
X55969285Y-86448571D01*
X56397856Y-87377143D02*
X56540713Y-87448571D01*
X56826428Y-87448571D01*
X56969285Y-87377143D01*
X57040713Y-87234286D01*
X57040713Y-87162857D01*
X56969285Y-87020000D01*
X56826428Y-86948571D01*
X56612142Y-86948571D01*
X56469285Y-86877143D01*
X56397856Y-86734286D01*
X56397856Y-86662857D01*
X56469285Y-86520000D01*
X56612142Y-86448571D01*
X56826428Y-86448571D01*
X56969285Y-86520000D01*
X58826428Y-87448571D02*
X58826428Y-86448571D01*
X58826428Y-85948571D02*
X58754999Y-86020000D01*
X58826428Y-86091429D01*
X58897856Y-86020000D01*
X58826428Y-85948571D01*
X58826428Y-86091429D01*
X59469285Y-87377143D02*
X59612142Y-87448571D01*
X59897857Y-87448571D01*
X60040714Y-87377143D01*
X60112142Y-87234286D01*
X60112142Y-87162857D01*
X60040714Y-87020000D01*
X59897857Y-86948571D01*
X59683571Y-86948571D01*
X59540714Y-86877143D01*
X59469285Y-86734286D01*
X59469285Y-86662857D01*
X59540714Y-86520000D01*
X59683571Y-86448571D01*
X59897857Y-86448571D01*
X60040714Y-86520000D01*
X61826428Y-86091429D02*
X61897857Y-86020000D01*
X62040714Y-85948571D01*
X62397857Y-85948571D01*
X62540714Y-86020000D01*
X62612143Y-86091429D01*
X62683571Y-86234286D01*
X62683571Y-86377143D01*
X62612143Y-86591429D01*
X61755000Y-87448571D01*
X62683571Y-87448571D01*
X64040714Y-85948571D02*
X63326428Y-85948571D01*
X63254999Y-86662857D01*
X63326428Y-86591429D01*
X63469285Y-86520000D01*
X63826428Y-86520000D01*
X63969285Y-86591429D01*
X64040714Y-86662857D01*
X64112142Y-86805714D01*
X64112142Y-87162857D01*
X64040714Y-87305714D01*
X63969285Y-87377143D01*
X63826428Y-87448571D01*
X63469285Y-87448571D01*
X63326428Y-87377143D01*
X63254999Y-87305714D01*
X64754999Y-87305714D02*
X64826427Y-87377143D01*
X64754999Y-87448571D01*
X64683570Y-87377143D01*
X64754999Y-87305714D01*
X64754999Y-87448571D01*
X66112142Y-86448571D02*
X66112142Y-87448571D01*
X65754999Y-85877143D02*
X65397856Y-86948571D01*
X66326428Y-86948571D01*
X66897856Y-87448571D02*
X66897856Y-86448571D01*
X66897856Y-86591429D02*
X66969284Y-86520000D01*
X67112142Y-86448571D01*
X67326427Y-86448571D01*
X67469284Y-86520000D01*
X67540713Y-86662857D01*
X67540713Y-87448571D01*
X67540713Y-86662857D02*
X67612142Y-86520000D01*
X67754999Y-86448571D01*
X67969284Y-86448571D01*
X68112142Y-86520000D01*
X68183570Y-86662857D01*
X68183570Y-87448571D01*
X68897856Y-87448571D02*
X68897856Y-86448571D01*
X68897856Y-86591429D02*
X68969284Y-86520000D01*
X69112142Y-86448571D01*
X69326427Y-86448571D01*
X69469284Y-86520000D01*
X69540713Y-86662857D01*
X69540713Y-87448571D01*
X69540713Y-86662857D02*
X69612142Y-86520000D01*
X69754999Y-86448571D01*
X69969284Y-86448571D01*
X70112142Y-86520000D01*
X70183570Y-86662857D01*
X70183570Y-87448571D01*
X72469284Y-88020000D02*
X72397856Y-87948571D01*
X72254999Y-87734286D01*
X72183570Y-87591429D01*
X72112141Y-87377143D01*
X72040713Y-87020000D01*
X72040713Y-86734286D01*
X72112141Y-86377143D01*
X72183570Y-86162857D01*
X72254999Y-86020000D01*
X72397856Y-85805714D01*
X72469284Y-85734286D01*
X73826427Y-87448571D02*
X72969284Y-87448571D01*
X73397856Y-87448571D02*
X73397856Y-85948571D01*
X73254999Y-86162857D01*
X73112141Y-86305714D01*
X72969284Y-86377143D01*
X74469284Y-87305714D02*
X74540712Y-87377143D01*
X74469284Y-87448571D01*
X74397855Y-87377143D01*
X74469284Y-87305714D01*
X74469284Y-87448571D01*
X75469284Y-85948571D02*
X75612141Y-85948571D01*
X75754998Y-86020000D01*
X75826427Y-86091429D01*
X75897856Y-86234286D01*
X75969284Y-86520000D01*
X75969284Y-86877143D01*
X75897856Y-87162857D01*
X75826427Y-87305714D01*
X75754998Y-87377143D01*
X75612141Y-87448571D01*
X75469284Y-87448571D01*
X75326427Y-87377143D01*
X75254998Y-87305714D01*
X75183570Y-87162857D01*
X75112141Y-86877143D01*
X75112141Y-86520000D01*
X75183570Y-86234286D01*
X75254998Y-86091429D01*
X75326427Y-86020000D01*
X75469284Y-85948571D01*
X76540712Y-85948571D02*
X76540712Y-86234286D01*
X77112141Y-85948571D02*
X77112141Y-86234286D01*
X77612141Y-88020000D02*
X77683569Y-87948571D01*
X77826426Y-87734286D01*
X77897855Y-87591429D01*
X77969284Y-87377143D01*
X78040712Y-87020000D01*
X78040712Y-86734286D01*
X77969284Y-86377143D01*
X77897855Y-86162857D01*
X77826426Y-86020000D01*
X77683569Y-85805714D01*
X77612141Y-85734286D01*
X80540712Y-87448571D02*
X80540712Y-86662857D01*
X80469283Y-86520000D01*
X80326426Y-86448571D01*
X80040712Y-86448571D01*
X79897855Y-86520000D01*
X80540712Y-87377143D02*
X80397855Y-87448571D01*
X80040712Y-87448571D01*
X79897855Y-87377143D01*
X79826426Y-87234286D01*
X79826426Y-87091429D01*
X79897855Y-86948571D01*
X80040712Y-86877143D01*
X80397855Y-86877143D01*
X80540712Y-86805714D01*
X81897855Y-86448571D02*
X81897855Y-87662857D01*
X81826426Y-87805714D01*
X81754998Y-87877143D01*
X81612141Y-87948571D01*
X81397855Y-87948571D01*
X81254998Y-87877143D01*
X81897855Y-87377143D02*
X81754998Y-87448571D01*
X81469284Y-87448571D01*
X81326426Y-87377143D01*
X81254998Y-87305714D01*
X81183569Y-87162857D01*
X81183569Y-86734286D01*
X81254998Y-86591429D01*
X81326426Y-86520000D01*
X81469284Y-86448571D01*
X81754998Y-86448571D01*
X81897855Y-86520000D01*
X83254998Y-87448571D02*
X83254998Y-86662857D01*
X83183569Y-86520000D01*
X83040712Y-86448571D01*
X82754998Y-86448571D01*
X82612141Y-86520000D01*
X83254998Y-87377143D02*
X83112141Y-87448571D01*
X82754998Y-87448571D01*
X82612141Y-87377143D01*
X82540712Y-87234286D01*
X82540712Y-87091429D01*
X82612141Y-86948571D01*
X82754998Y-86877143D01*
X83112141Y-86877143D01*
X83254998Y-86805714D01*
X83969284Y-87448571D02*
X83969284Y-86448571D01*
X83969284Y-85948571D02*
X83897855Y-86020000D01*
X83969284Y-86091429D01*
X84040712Y-86020000D01*
X83969284Y-85948571D01*
X83969284Y-86091429D01*
X84683570Y-86448571D02*
X84683570Y-87448571D01*
X84683570Y-86591429D02*
X84754998Y-86520000D01*
X84897856Y-86448571D01*
X85112141Y-86448571D01*
X85254998Y-86520000D01*
X85326427Y-86662857D01*
X85326427Y-87448571D01*
X85969284Y-87377143D02*
X86112141Y-87448571D01*
X86397856Y-87448571D01*
X86540713Y-87377143D01*
X86612141Y-87234286D01*
X86612141Y-87162857D01*
X86540713Y-87020000D01*
X86397856Y-86948571D01*
X86183570Y-86948571D01*
X86040713Y-86877143D01*
X85969284Y-86734286D01*
X85969284Y-86662857D01*
X86040713Y-86520000D01*
X86183570Y-86448571D01*
X86397856Y-86448571D01*
X86540713Y-86520000D01*
X87040713Y-86448571D02*
X87612142Y-86448571D01*
X87254999Y-85948571D02*
X87254999Y-87234286D01*
X87326427Y-87377143D01*
X87469285Y-87448571D01*
X87612142Y-87448571D01*
X89897856Y-86448571D02*
X89897856Y-87448571D01*
X89540713Y-85877143D02*
X89183570Y-86948571D01*
X90112142Y-86948571D01*
X90897856Y-86591429D02*
X90754998Y-86520000D01*
X90683570Y-86448571D01*
X90612141Y-86305714D01*
X90612141Y-86234286D01*
X90683570Y-86091429D01*
X90754998Y-86020000D01*
X90897856Y-85948571D01*
X91183570Y-85948571D01*
X91326427Y-86020000D01*
X91397856Y-86091429D01*
X91469284Y-86234286D01*
X91469284Y-86305714D01*
X91397856Y-86448571D01*
X91326427Y-86520000D01*
X91183570Y-86591429D01*
X90897856Y-86591429D01*
X90754998Y-86662857D01*
X90683570Y-86734286D01*
X90612141Y-86877143D01*
X90612141Y-87162857D01*
X90683570Y-87305714D01*
X90754998Y-87377143D01*
X90897856Y-87448571D01*
X91183570Y-87448571D01*
X91326427Y-87377143D01*
X91397856Y-87305714D01*
X91469284Y-87162857D01*
X91469284Y-86877143D01*
X91397856Y-86734286D01*
X91326427Y-86662857D01*
X91183570Y-86591429D01*
X92112141Y-87305714D02*
X92183569Y-87377143D01*
X92112141Y-87448571D01*
X92040712Y-87377143D01*
X92112141Y-87305714D01*
X92112141Y-87448571D01*
X92754998Y-86091429D02*
X92826427Y-86020000D01*
X92969284Y-85948571D01*
X93326427Y-85948571D01*
X93469284Y-86020000D01*
X93540713Y-86091429D01*
X93612141Y-86234286D01*
X93612141Y-86377143D01*
X93540713Y-86591429D01*
X92683570Y-87448571D01*
X93612141Y-87448571D01*
X94897855Y-85948571D02*
X94612141Y-85948571D01*
X94469284Y-86020000D01*
X94397855Y-86091429D01*
X94254998Y-86305714D01*
X94183569Y-86591429D01*
X94183569Y-87162857D01*
X94254998Y-87305714D01*
X94326426Y-87377143D01*
X94469284Y-87448571D01*
X94754998Y-87448571D01*
X94897855Y-87377143D01*
X94969284Y-87305714D01*
X95040712Y-87162857D01*
X95040712Y-86805714D01*
X94969284Y-86662857D01*
X94897855Y-86591429D01*
X94754998Y-86520000D01*
X94469284Y-86520000D01*
X94326426Y-86591429D01*
X94254998Y-86662857D01*
X94183569Y-86805714D01*
X95683569Y-87448571D02*
X95683569Y-86448571D01*
X95683569Y-86591429D02*
X95754997Y-86520000D01*
X95897855Y-86448571D01*
X96112140Y-86448571D01*
X96254997Y-86520000D01*
X96326426Y-86662857D01*
X96326426Y-87448571D01*
X96326426Y-86662857D02*
X96397855Y-86520000D01*
X96540712Y-86448571D01*
X96754997Y-86448571D01*
X96897855Y-86520000D01*
X96969283Y-86662857D01*
X96969283Y-87448571D01*
X97683569Y-87448571D02*
X97683569Y-86448571D01*
X97683569Y-86591429D02*
X97754997Y-86520000D01*
X97897855Y-86448571D01*
X98112140Y-86448571D01*
X98254997Y-86520000D01*
X98326426Y-86662857D01*
X98326426Y-87448571D01*
X98326426Y-86662857D02*
X98397855Y-86520000D01*
X98540712Y-86448571D01*
X98754997Y-86448571D01*
X98897855Y-86520000D01*
X98969283Y-86662857D01*
X98969283Y-87448571D01*
X101254997Y-88020000D02*
X101183569Y-87948571D01*
X101040712Y-87734286D01*
X100969283Y-87591429D01*
X100897854Y-87377143D01*
X100826426Y-87020000D01*
X100826426Y-86734286D01*
X100897854Y-86377143D01*
X100969283Y-86162857D01*
X101040712Y-86020000D01*
X101183569Y-85805714D01*
X101254997Y-85734286D01*
X102612140Y-87448571D02*
X101754997Y-87448571D01*
X102183569Y-87448571D02*
X102183569Y-85948571D01*
X102040712Y-86162857D01*
X101897854Y-86305714D01*
X101754997Y-86377143D01*
X103254997Y-87305714D02*
X103326425Y-87377143D01*
X103254997Y-87448571D01*
X103183568Y-87377143D01*
X103254997Y-87305714D01*
X103254997Y-87448571D01*
X104040711Y-87448571D02*
X104326426Y-87448571D01*
X104469283Y-87377143D01*
X104540711Y-87305714D01*
X104683569Y-87091429D01*
X104754997Y-86805714D01*
X104754997Y-86234286D01*
X104683569Y-86091429D01*
X104612140Y-86020000D01*
X104469283Y-85948571D01*
X104183569Y-85948571D01*
X104040711Y-86020000D01*
X103969283Y-86091429D01*
X103897854Y-86234286D01*
X103897854Y-86591429D01*
X103969283Y-86734286D01*
X104040711Y-86805714D01*
X104183569Y-86877143D01*
X104469283Y-86877143D01*
X104612140Y-86805714D01*
X104683569Y-86734286D01*
X104754997Y-86591429D01*
X105326425Y-85948571D02*
X105326425Y-86234286D01*
X105897854Y-85948571D02*
X105897854Y-86234286D01*
X106397854Y-88020000D02*
X106469282Y-87948571D01*
X106612139Y-87734286D01*
X106683568Y-87591429D01*
X106754997Y-87377143D01*
X106826425Y-87020000D01*
X106826425Y-86734286D01*
X106754997Y-86377143D01*
X106683568Y-86162857D01*
X106612139Y-86020000D01*
X106469282Y-85805714D01*
X106397854Y-85734286D01*
X108897854Y-87448571D02*
X108754996Y-87377143D01*
X108683568Y-87305714D01*
X108612139Y-87162857D01*
X108612139Y-86734286D01*
X108683568Y-86591429D01*
X108754996Y-86520000D01*
X108897854Y-86448571D01*
X109112139Y-86448571D01*
X109254996Y-86520000D01*
X109326425Y-86591429D01*
X109397854Y-86734286D01*
X109397854Y-87162857D01*
X109326425Y-87305714D01*
X109254996Y-87377143D01*
X109112139Y-87448571D01*
X108897854Y-87448571D01*
X110040711Y-86448571D02*
X110040711Y-87448571D01*
X110040711Y-86591429D02*
X110112139Y-86520000D01*
X110254997Y-86448571D01*
X110469282Y-86448571D01*
X110612139Y-86520000D01*
X110683568Y-86662857D01*
X110683568Y-87448571D01*
X112540711Y-87448571D02*
X112540711Y-85948571D01*
X112897854Y-85948571D01*
X113112139Y-86020000D01*
X113254997Y-86162857D01*
X113326425Y-86305714D01*
X113397854Y-86591429D01*
X113397854Y-86805714D01*
X113326425Y-87091429D01*
X113254997Y-87234286D01*
X113112139Y-87377143D01*
X112897854Y-87448571D01*
X112540711Y-87448571D01*
X114683568Y-86448571D02*
X114683568Y-87448571D01*
X114040711Y-86448571D02*
X114040711Y-87234286D01*
X114112139Y-87377143D01*
X114254997Y-87448571D01*
X114469282Y-87448571D01*
X114612139Y-87377143D01*
X114683568Y-87305714D01*
X115969282Y-87377143D02*
X115826425Y-87448571D01*
X115540711Y-87448571D01*
X115397854Y-87377143D01*
X115326425Y-87234286D01*
X115326425Y-86662857D01*
X115397854Y-86520000D01*
X115540711Y-86448571D01*
X115826425Y-86448571D01*
X115969282Y-86520000D01*
X116040711Y-86662857D01*
X116040711Y-86805714D01*
X115326425Y-86948571D01*
X116683568Y-87448571D02*
X116683568Y-86448571D01*
X116683568Y-86591429D02*
X116754996Y-86520000D01*
X116897854Y-86448571D01*
X117112139Y-86448571D01*
X117254996Y-86520000D01*
X117326425Y-86662857D01*
X117326425Y-87448571D01*
X117326425Y-86662857D02*
X117397854Y-86520000D01*
X117540711Y-86448571D01*
X117754996Y-86448571D01*
X117897854Y-86520000D01*
X117969282Y-86662857D01*
X117969282Y-87448571D01*
X118683568Y-87448571D02*
X118683568Y-86448571D01*
X118683568Y-85948571D02*
X118612139Y-86020000D01*
X118683568Y-86091429D01*
X118754996Y-86020000D01*
X118683568Y-85948571D01*
X118683568Y-86091429D01*
X119612140Y-87448571D02*
X119469282Y-87377143D01*
X119397854Y-87234286D01*
X119397854Y-85948571D01*
X120754996Y-87377143D02*
X120612139Y-87448571D01*
X120326425Y-87448571D01*
X120183568Y-87377143D01*
X120112139Y-87234286D01*
X120112139Y-86662857D01*
X120183568Y-86520000D01*
X120326425Y-86448571D01*
X120612139Y-86448571D01*
X120754996Y-86520000D01*
X120826425Y-86662857D01*
X120826425Y-86805714D01*
X120112139Y-86948571D01*
X121469282Y-86448571D02*
X121469282Y-87448571D01*
X121469282Y-86591429D02*
X121540710Y-86520000D01*
X121683568Y-86448571D01*
X121897853Y-86448571D01*
X122040710Y-86520000D01*
X122112139Y-86662857D01*
X122112139Y-87448571D01*
X123040711Y-87448571D02*
X122897853Y-87377143D01*
X122826425Y-87305714D01*
X122754996Y-87162857D01*
X122754996Y-86734286D01*
X122826425Y-86591429D01*
X122897853Y-86520000D01*
X123040711Y-86448571D01*
X123254996Y-86448571D01*
X123397853Y-86520000D01*
X123469282Y-86591429D01*
X123540711Y-86734286D01*
X123540711Y-87162857D01*
X123469282Y-87305714D01*
X123397853Y-87377143D01*
X123254996Y-87448571D01*
X123040711Y-87448571D01*
X124040711Y-86448571D02*
X124397854Y-87448571D01*
X124754996Y-86448571D01*
X125969282Y-87448571D02*
X125969282Y-86662857D01*
X125897853Y-86520000D01*
X125754996Y-86448571D01*
X125469282Y-86448571D01*
X125326425Y-86520000D01*
X125969282Y-87377143D02*
X125826425Y-87448571D01*
X125469282Y-87448571D01*
X125326425Y-87377143D01*
X125254996Y-87234286D01*
X125254996Y-87091429D01*
X125326425Y-86948571D01*
X125469282Y-86877143D01*
X125826425Y-86877143D01*
X125969282Y-86805714D01*
X126683568Y-87305714D02*
X126754996Y-87377143D01*
X126683568Y-87448571D01*
X126612139Y-87377143D01*
X126683568Y-87305714D01*
X126683568Y-87448571D01*
X29969286Y-88348571D02*
X30897857Y-88348571D01*
X30397857Y-88920000D01*
X30612143Y-88920000D01*
X30755000Y-88991429D01*
X30826429Y-89062857D01*
X30897857Y-89205714D01*
X30897857Y-89562857D01*
X30826429Y-89705714D01*
X30755000Y-89777143D01*
X30612143Y-89848571D01*
X30183571Y-89848571D01*
X30040714Y-89777143D01*
X29969286Y-89705714D01*
X31540714Y-89705714D02*
X31612142Y-89777143D01*
X31540714Y-89848571D01*
X31469285Y-89777143D01*
X31540714Y-89705714D01*
X31540714Y-89848571D01*
X33897857Y-89062857D02*
X33397857Y-89062857D01*
X33397857Y-89848571D02*
X33397857Y-88348571D01*
X34112143Y-88348571D01*
X34897857Y-89848571D02*
X34754999Y-89777143D01*
X34683571Y-89705714D01*
X34612142Y-89562857D01*
X34612142Y-89134286D01*
X34683571Y-88991429D01*
X34754999Y-88920000D01*
X34897857Y-88848571D01*
X35112142Y-88848571D01*
X35254999Y-88920000D01*
X35326428Y-88991429D01*
X35397857Y-89134286D01*
X35397857Y-89562857D01*
X35326428Y-89705714D01*
X35254999Y-89777143D01*
X35112142Y-89848571D01*
X34897857Y-89848571D01*
X36683571Y-88848571D02*
X36683571Y-89848571D01*
X36040714Y-88848571D02*
X36040714Y-89634286D01*
X36112142Y-89777143D01*
X36255000Y-89848571D01*
X36469285Y-89848571D01*
X36612142Y-89777143D01*
X36683571Y-89705714D01*
X37397857Y-89848571D02*
X37397857Y-88848571D01*
X37397857Y-89134286D02*
X37469285Y-88991429D01*
X37540714Y-88920000D01*
X37683571Y-88848571D01*
X37826428Y-88848571D01*
X39469285Y-89848571D02*
X39469285Y-88848571D01*
X39469285Y-88991429D02*
X39540713Y-88920000D01*
X39683571Y-88848571D01*
X39897856Y-88848571D01*
X40040713Y-88920000D01*
X40112142Y-89062857D01*
X40112142Y-89848571D01*
X40112142Y-89062857D02*
X40183571Y-88920000D01*
X40326428Y-88848571D01*
X40540713Y-88848571D01*
X40683571Y-88920000D01*
X40754999Y-89062857D01*
X40754999Y-89848571D01*
X41683571Y-89848571D02*
X41540713Y-89777143D01*
X41469285Y-89705714D01*
X41397856Y-89562857D01*
X41397856Y-89134286D01*
X41469285Y-88991429D01*
X41540713Y-88920000D01*
X41683571Y-88848571D01*
X41897856Y-88848571D01*
X42040713Y-88920000D01*
X42112142Y-88991429D01*
X42183571Y-89134286D01*
X42183571Y-89562857D01*
X42112142Y-89705714D01*
X42040713Y-89777143D01*
X41897856Y-89848571D01*
X41683571Y-89848571D01*
X43469285Y-88848571D02*
X43469285Y-89848571D01*
X42826428Y-88848571D02*
X42826428Y-89634286D01*
X42897856Y-89777143D01*
X43040714Y-89848571D01*
X43254999Y-89848571D01*
X43397856Y-89777143D01*
X43469285Y-89705714D01*
X44183571Y-88848571D02*
X44183571Y-89848571D01*
X44183571Y-88991429D02*
X44254999Y-88920000D01*
X44397857Y-88848571D01*
X44612142Y-88848571D01*
X44754999Y-88920000D01*
X44826428Y-89062857D01*
X44826428Y-89848571D01*
X45326428Y-88848571D02*
X45897857Y-88848571D01*
X45540714Y-88348571D02*
X45540714Y-89634286D01*
X45612142Y-89777143D01*
X45755000Y-89848571D01*
X45897857Y-89848571D01*
X46397857Y-89848571D02*
X46397857Y-88848571D01*
X46397857Y-88348571D02*
X46326428Y-88420000D01*
X46397857Y-88491429D01*
X46469285Y-88420000D01*
X46397857Y-88348571D01*
X46397857Y-88491429D01*
X47112143Y-88848571D02*
X47112143Y-89848571D01*
X47112143Y-88991429D02*
X47183571Y-88920000D01*
X47326429Y-88848571D01*
X47540714Y-88848571D01*
X47683571Y-88920000D01*
X47755000Y-89062857D01*
X47755000Y-89848571D01*
X49112143Y-88848571D02*
X49112143Y-90062857D01*
X49040714Y-90205714D01*
X48969286Y-90277143D01*
X48826429Y-90348571D01*
X48612143Y-90348571D01*
X48469286Y-90277143D01*
X49112143Y-89777143D02*
X48969286Y-89848571D01*
X48683572Y-89848571D01*
X48540714Y-89777143D01*
X48469286Y-89705714D01*
X48397857Y-89562857D01*
X48397857Y-89134286D01*
X48469286Y-88991429D01*
X48540714Y-88920000D01*
X48683572Y-88848571D01*
X48969286Y-88848571D01*
X49112143Y-88920000D01*
X50969286Y-89848571D02*
X50969286Y-88348571D01*
X51612143Y-89848571D02*
X51612143Y-89062857D01*
X51540714Y-88920000D01*
X51397857Y-88848571D01*
X51183572Y-88848571D01*
X51040714Y-88920000D01*
X50969286Y-88991429D01*
X52540715Y-89848571D02*
X52397857Y-89777143D01*
X52326429Y-89705714D01*
X52255000Y-89562857D01*
X52255000Y-89134286D01*
X52326429Y-88991429D01*
X52397857Y-88920000D01*
X52540715Y-88848571D01*
X52755000Y-88848571D01*
X52897857Y-88920000D01*
X52969286Y-88991429D01*
X53040715Y-89134286D01*
X53040715Y-89562857D01*
X52969286Y-89705714D01*
X52897857Y-89777143D01*
X52755000Y-89848571D01*
X52540715Y-89848571D01*
X53897858Y-89848571D02*
X53755000Y-89777143D01*
X53683572Y-89634286D01*
X53683572Y-88348571D01*
X55040714Y-89777143D02*
X54897857Y-89848571D01*
X54612143Y-89848571D01*
X54469286Y-89777143D01*
X54397857Y-89634286D01*
X54397857Y-89062857D01*
X54469286Y-88920000D01*
X54612143Y-88848571D01*
X54897857Y-88848571D01*
X55040714Y-88920000D01*
X55112143Y-89062857D01*
X55112143Y-89205714D01*
X54397857Y-89348571D01*
X55683571Y-89777143D02*
X55826428Y-89848571D01*
X56112143Y-89848571D01*
X56255000Y-89777143D01*
X56326428Y-89634286D01*
X56326428Y-89562857D01*
X56255000Y-89420000D01*
X56112143Y-89348571D01*
X55897857Y-89348571D01*
X55755000Y-89277143D01*
X55683571Y-89134286D01*
X55683571Y-89062857D01*
X55755000Y-88920000D01*
X55897857Y-88848571D01*
X56112143Y-88848571D01*
X56255000Y-88920000D01*
X57040714Y-89777143D02*
X57040714Y-89848571D01*
X56969286Y-89991429D01*
X56897857Y-90062857D01*
X59469286Y-89848571D02*
X59469286Y-88348571D01*
X59469286Y-89777143D02*
X59326429Y-89848571D01*
X59040715Y-89848571D01*
X58897857Y-89777143D01*
X58826429Y-89705714D01*
X58755000Y-89562857D01*
X58755000Y-89134286D01*
X58826429Y-88991429D01*
X58897857Y-88920000D01*
X59040715Y-88848571D01*
X59326429Y-88848571D01*
X59469286Y-88920000D01*
X60183572Y-89848571D02*
X60183572Y-88848571D01*
X60183572Y-89134286D02*
X60255000Y-88991429D01*
X60326429Y-88920000D01*
X60469286Y-88848571D01*
X60612143Y-88848571D01*
X61112143Y-89848571D02*
X61112143Y-88848571D01*
X61112143Y-88348571D02*
X61040714Y-88420000D01*
X61112143Y-88491429D01*
X61183571Y-88420000D01*
X61112143Y-88348571D01*
X61112143Y-88491429D01*
X62040715Y-89848571D02*
X61897857Y-89777143D01*
X61826429Y-89634286D01*
X61826429Y-88348571D01*
X62826429Y-89848571D02*
X62683571Y-89777143D01*
X62612143Y-89634286D01*
X62612143Y-88348571D01*
X63969285Y-89777143D02*
X63826428Y-89848571D01*
X63540714Y-89848571D01*
X63397857Y-89777143D01*
X63326428Y-89634286D01*
X63326428Y-89062857D01*
X63397857Y-88920000D01*
X63540714Y-88848571D01*
X63826428Y-88848571D01*
X63969285Y-88920000D01*
X64040714Y-89062857D01*
X64040714Y-89205714D01*
X63326428Y-89348571D01*
X65326428Y-89848571D02*
X65326428Y-88348571D01*
X65326428Y-89777143D02*
X65183571Y-89848571D01*
X64897857Y-89848571D01*
X64754999Y-89777143D01*
X64683571Y-89705714D01*
X64612142Y-89562857D01*
X64612142Y-89134286D01*
X64683571Y-88991429D01*
X64754999Y-88920000D01*
X64897857Y-88848571D01*
X65183571Y-88848571D01*
X65326428Y-88920000D01*
X66969285Y-88848571D02*
X67540714Y-88848571D01*
X67183571Y-88348571D02*
X67183571Y-89634286D01*
X67254999Y-89777143D01*
X67397857Y-89848571D01*
X67540714Y-89848571D01*
X68255000Y-89848571D02*
X68112142Y-89777143D01*
X68040714Y-89705714D01*
X67969285Y-89562857D01*
X67969285Y-89134286D01*
X68040714Y-88991429D01*
X68112142Y-88920000D01*
X68255000Y-88848571D01*
X68469285Y-88848571D01*
X68612142Y-88920000D01*
X68683571Y-88991429D01*
X68755000Y-89134286D01*
X68755000Y-89562857D01*
X68683571Y-89705714D01*
X68612142Y-89777143D01*
X68469285Y-89848571D01*
X68255000Y-89848571D01*
X70397857Y-88348571D02*
X71326428Y-88348571D01*
X70826428Y-88920000D01*
X71040714Y-88920000D01*
X71183571Y-88991429D01*
X71255000Y-89062857D01*
X71326428Y-89205714D01*
X71326428Y-89562857D01*
X71255000Y-89705714D01*
X71183571Y-89777143D01*
X71040714Y-89848571D01*
X70612142Y-89848571D01*
X70469285Y-89777143D01*
X70397857Y-89705714D01*
X71969285Y-89705714D02*
X72040713Y-89777143D01*
X71969285Y-89848571D01*
X71897856Y-89777143D01*
X71969285Y-89705714D01*
X71969285Y-89848571D01*
X73469285Y-89848571D02*
X72612142Y-89848571D01*
X73040714Y-89848571D02*
X73040714Y-88348571D01*
X72897857Y-88562857D01*
X72754999Y-88705714D01*
X72612142Y-88777143D01*
X74040713Y-88491429D02*
X74112142Y-88420000D01*
X74254999Y-88348571D01*
X74612142Y-88348571D01*
X74754999Y-88420000D01*
X74826428Y-88491429D01*
X74897856Y-88634286D01*
X74897856Y-88777143D01*
X74826428Y-88991429D01*
X73969285Y-89848571D01*
X74897856Y-89848571D01*
X76254999Y-88348571D02*
X75540713Y-88348571D01*
X75469284Y-89062857D01*
X75540713Y-88991429D01*
X75683570Y-88920000D01*
X76040713Y-88920000D01*
X76183570Y-88991429D01*
X76254999Y-89062857D01*
X76326427Y-89205714D01*
X76326427Y-89562857D01*
X76254999Y-89705714D01*
X76183570Y-89777143D01*
X76040713Y-89848571D01*
X75683570Y-89848571D01*
X75540713Y-89777143D01*
X75469284Y-89705714D01*
X76969284Y-89848571D02*
X76969284Y-88848571D01*
X76969284Y-88991429D02*
X77040712Y-88920000D01*
X77183570Y-88848571D01*
X77397855Y-88848571D01*
X77540712Y-88920000D01*
X77612141Y-89062857D01*
X77612141Y-89848571D01*
X77612141Y-89062857D02*
X77683570Y-88920000D01*
X77826427Y-88848571D01*
X78040712Y-88848571D01*
X78183570Y-88920000D01*
X78254998Y-89062857D01*
X78254998Y-89848571D01*
X78969284Y-89848571D02*
X78969284Y-88848571D01*
X78969284Y-88991429D02*
X79040712Y-88920000D01*
X79183570Y-88848571D01*
X79397855Y-88848571D01*
X79540712Y-88920000D01*
X79612141Y-89062857D01*
X79612141Y-89848571D01*
X79612141Y-89062857D02*
X79683570Y-88920000D01*
X79826427Y-88848571D01*
X80040712Y-88848571D01*
X80183570Y-88920000D01*
X80254998Y-89062857D01*
X80254998Y-89848571D01*
X80969284Y-89705714D02*
X81040712Y-89777143D01*
X80969284Y-89848571D01*
X80897855Y-89777143D01*
X80969284Y-89705714D01*
X80969284Y-89848571D01*
X30755000Y-91248571D02*
X30755000Y-92248571D01*
X30397857Y-90677143D02*
X30040714Y-91748571D01*
X30969286Y-91748571D01*
X31540714Y-92105714D02*
X31612142Y-92177143D01*
X31540714Y-92248571D01*
X31469285Y-92177143D01*
X31540714Y-92105714D01*
X31540714Y-92248571D01*
X33326428Y-91820000D02*
X34040714Y-91820000D01*
X33183571Y-92248571D02*
X33683571Y-90748571D01*
X34183571Y-92248571D01*
X34897857Y-92248571D02*
X34754999Y-92177143D01*
X34683571Y-92034286D01*
X34683571Y-90748571D01*
X35683571Y-92248571D02*
X35540713Y-92177143D01*
X35469285Y-92034286D01*
X35469285Y-90748571D01*
X37326427Y-92177143D02*
X37540713Y-92248571D01*
X37897856Y-92248571D01*
X38040713Y-92177143D01*
X38112142Y-92105714D01*
X38183570Y-91962857D01*
X38183570Y-91820000D01*
X38112142Y-91677143D01*
X38040713Y-91605714D01*
X37897856Y-91534286D01*
X37612142Y-91462857D01*
X37469284Y-91391429D01*
X37397856Y-91320000D01*
X37326427Y-91177143D01*
X37326427Y-91034286D01*
X37397856Y-90891429D01*
X37469284Y-90820000D01*
X37612142Y-90748571D01*
X37969284Y-90748571D01*
X38183570Y-90820000D01*
X38826427Y-92248571D02*
X38826427Y-90748571D01*
X39326427Y-91820000D01*
X39826427Y-90748571D01*
X39826427Y-92248571D01*
X40540713Y-92248571D02*
X40540713Y-90748571D01*
X40897856Y-90748571D01*
X41112141Y-90820000D01*
X41254999Y-90962857D01*
X41326427Y-91105714D01*
X41397856Y-91391429D01*
X41397856Y-91605714D01*
X41326427Y-91891429D01*
X41254999Y-92034286D01*
X41112141Y-92177143D01*
X40897856Y-92248571D01*
X40540713Y-92248571D01*
X43183570Y-91248571D02*
X43183570Y-92748571D01*
X43183570Y-91320000D02*
X43326427Y-91248571D01*
X43612141Y-91248571D01*
X43754998Y-91320000D01*
X43826427Y-91391429D01*
X43897856Y-91534286D01*
X43897856Y-91962857D01*
X43826427Y-92105714D01*
X43754998Y-92177143D01*
X43612141Y-92248571D01*
X43326427Y-92248571D01*
X43183570Y-92177143D01*
X45183570Y-92248571D02*
X45183570Y-91462857D01*
X45112141Y-91320000D01*
X44969284Y-91248571D01*
X44683570Y-91248571D01*
X44540713Y-91320000D01*
X45183570Y-92177143D02*
X45040713Y-92248571D01*
X44683570Y-92248571D01*
X44540713Y-92177143D01*
X44469284Y-92034286D01*
X44469284Y-91891429D01*
X44540713Y-91748571D01*
X44683570Y-91677143D01*
X45040713Y-91677143D01*
X45183570Y-91605714D01*
X45897856Y-92248571D02*
X45897856Y-91248571D01*
X45897856Y-91534286D02*
X45969284Y-91391429D01*
X46040713Y-91320000D01*
X46183570Y-91248571D01*
X46326427Y-91248571D01*
X46612141Y-91248571D02*
X47183570Y-91248571D01*
X46826427Y-90748571D02*
X46826427Y-92034286D01*
X46897855Y-92177143D01*
X47040713Y-92248571D01*
X47183570Y-92248571D01*
X47612141Y-92177143D02*
X47754998Y-92248571D01*
X48040713Y-92248571D01*
X48183570Y-92177143D01*
X48254998Y-92034286D01*
X48254998Y-91962857D01*
X48183570Y-91820000D01*
X48040713Y-91748571D01*
X47826427Y-91748571D01*
X47683570Y-91677143D01*
X47612141Y-91534286D01*
X47612141Y-91462857D01*
X47683570Y-91320000D01*
X47826427Y-91248571D01*
X48040713Y-91248571D01*
X48183570Y-91320000D01*
X50683570Y-92248571D02*
X50683570Y-91462857D01*
X50612141Y-91320000D01*
X50469284Y-91248571D01*
X50183570Y-91248571D01*
X50040713Y-91320000D01*
X50683570Y-92177143D02*
X50540713Y-92248571D01*
X50183570Y-92248571D01*
X50040713Y-92177143D01*
X49969284Y-92034286D01*
X49969284Y-91891429D01*
X50040713Y-91748571D01*
X50183570Y-91677143D01*
X50540713Y-91677143D01*
X50683570Y-91605714D01*
X51397856Y-92248571D02*
X51397856Y-91248571D01*
X51397856Y-91534286D02*
X51469284Y-91391429D01*
X51540713Y-91320000D01*
X51683570Y-91248571D01*
X51826427Y-91248571D01*
X52897855Y-92177143D02*
X52754998Y-92248571D01*
X52469284Y-92248571D01*
X52326427Y-92177143D01*
X52254998Y-92034286D01*
X52254998Y-91462857D01*
X52326427Y-91320000D01*
X52469284Y-91248571D01*
X52754998Y-91248571D01*
X52897855Y-91320000D01*
X52969284Y-91462857D01*
X52969284Y-91605714D01*
X52254998Y-91748571D01*
X54969284Y-92248571D02*
X54826426Y-92177143D01*
X54754998Y-92105714D01*
X54683569Y-91962857D01*
X54683569Y-91534286D01*
X54754998Y-91391429D01*
X54826426Y-91320000D01*
X54969284Y-91248571D01*
X55183569Y-91248571D01*
X55326426Y-91320000D01*
X55397855Y-91391429D01*
X55469284Y-91534286D01*
X55469284Y-91962857D01*
X55397855Y-92105714D01*
X55326426Y-92177143D01*
X55183569Y-92248571D01*
X54969284Y-92248571D01*
X56112141Y-91248571D02*
X56112141Y-92248571D01*
X56112141Y-91391429D02*
X56183569Y-91320000D01*
X56326427Y-91248571D01*
X56540712Y-91248571D01*
X56683569Y-91320000D01*
X56754998Y-91462857D01*
X56754998Y-92248571D01*
X58612141Y-92248571D02*
X58612141Y-90748571D01*
X58612141Y-91320000D02*
X58754998Y-91248571D01*
X59040712Y-91248571D01*
X59183569Y-91320000D01*
X59254998Y-91391429D01*
X59326427Y-91534286D01*
X59326427Y-91962857D01*
X59254998Y-92105714D01*
X59183569Y-92177143D01*
X59040712Y-92248571D01*
X58754998Y-92248571D01*
X58612141Y-92177143D01*
X60183570Y-92248571D02*
X60040712Y-92177143D01*
X59969284Y-92105714D01*
X59897855Y-91962857D01*
X59897855Y-91534286D01*
X59969284Y-91391429D01*
X60040712Y-91320000D01*
X60183570Y-91248571D01*
X60397855Y-91248571D01*
X60540712Y-91320000D01*
X60612141Y-91391429D01*
X60683570Y-91534286D01*
X60683570Y-91962857D01*
X60612141Y-92105714D01*
X60540712Y-92177143D01*
X60397855Y-92248571D01*
X60183570Y-92248571D01*
X61112141Y-91248571D02*
X61683570Y-91248571D01*
X61326427Y-90748571D02*
X61326427Y-92034286D01*
X61397855Y-92177143D01*
X61540713Y-92248571D01*
X61683570Y-92248571D01*
X61969284Y-91248571D02*
X62540713Y-91248571D01*
X62183570Y-90748571D02*
X62183570Y-92034286D01*
X62254998Y-92177143D01*
X62397856Y-92248571D01*
X62540713Y-92248571D01*
X63254999Y-92248571D02*
X63112141Y-92177143D01*
X63040713Y-92105714D01*
X62969284Y-91962857D01*
X62969284Y-91534286D01*
X63040713Y-91391429D01*
X63112141Y-91320000D01*
X63254999Y-91248571D01*
X63469284Y-91248571D01*
X63612141Y-91320000D01*
X63683570Y-91391429D01*
X63754999Y-91534286D01*
X63754999Y-91962857D01*
X63683570Y-92105714D01*
X63612141Y-92177143D01*
X63469284Y-92248571D01*
X63254999Y-92248571D01*
X64397856Y-92248571D02*
X64397856Y-91248571D01*
X64397856Y-91391429D02*
X64469284Y-91320000D01*
X64612142Y-91248571D01*
X64826427Y-91248571D01*
X64969284Y-91320000D01*
X65040713Y-91462857D01*
X65040713Y-92248571D01*
X65040713Y-91462857D02*
X65112142Y-91320000D01*
X65254999Y-91248571D01*
X65469284Y-91248571D01*
X65612142Y-91320000D01*
X65683570Y-91462857D01*
X65683570Y-92248571D01*
X67754999Y-92248571D02*
X67612141Y-92177143D01*
X67540713Y-92034286D01*
X67540713Y-90748571D01*
X68969284Y-92248571D02*
X68969284Y-91462857D01*
X68897855Y-91320000D01*
X68754998Y-91248571D01*
X68469284Y-91248571D01*
X68326427Y-91320000D01*
X68969284Y-92177143D02*
X68826427Y-92248571D01*
X68469284Y-92248571D01*
X68326427Y-92177143D01*
X68254998Y-92034286D01*
X68254998Y-91891429D01*
X68326427Y-91748571D01*
X68469284Y-91677143D01*
X68826427Y-91677143D01*
X68969284Y-91605714D01*
X69540713Y-91248571D02*
X69897856Y-92248571D01*
X70254998Y-91248571D02*
X69897856Y-92248571D01*
X69754998Y-92605714D01*
X69683570Y-92677143D01*
X69540713Y-92748571D01*
X71397855Y-92177143D02*
X71254998Y-92248571D01*
X70969284Y-92248571D01*
X70826427Y-92177143D01*
X70754998Y-92034286D01*
X70754998Y-91462857D01*
X70826427Y-91320000D01*
X70969284Y-91248571D01*
X71254998Y-91248571D01*
X71397855Y-91320000D01*
X71469284Y-91462857D01*
X71469284Y-91605714D01*
X70754998Y-91748571D01*
X72112141Y-92248571D02*
X72112141Y-91248571D01*
X72112141Y-91534286D02*
X72183569Y-91391429D01*
X72254998Y-91320000D01*
X72397855Y-91248571D01*
X72540712Y-91248571D01*
X73040712Y-92105714D02*
X73112140Y-92177143D01*
X73040712Y-92248571D01*
X72969283Y-92177143D01*
X73040712Y-92105714D01*
X73040712Y-92248571D01*
X30826429Y-93148571D02*
X30112143Y-93148571D01*
X30040714Y-93862857D01*
X30112143Y-93791429D01*
X30255000Y-93720000D01*
X30612143Y-93720000D01*
X30755000Y-93791429D01*
X30826429Y-93862857D01*
X30897857Y-94005714D01*
X30897857Y-94362857D01*
X30826429Y-94505714D01*
X30755000Y-94577143D01*
X30612143Y-94648571D01*
X30255000Y-94648571D01*
X30112143Y-94577143D01*
X30040714Y-94505714D01*
X31540714Y-94505714D02*
X31612142Y-94577143D01*
X31540714Y-94648571D01*
X31469285Y-94577143D01*
X31540714Y-94505714D01*
X31540714Y-94648571D01*
X33897857Y-93862857D02*
X33397857Y-93862857D01*
X33397857Y-94648571D02*
X33397857Y-93148571D01*
X34112143Y-93148571D01*
X34897857Y-94648571D02*
X34754999Y-94577143D01*
X34683571Y-94505714D01*
X34612142Y-94362857D01*
X34612142Y-93934286D01*
X34683571Y-93791429D01*
X34754999Y-93720000D01*
X34897857Y-93648571D01*
X35112142Y-93648571D01*
X35254999Y-93720000D01*
X35326428Y-93791429D01*
X35397857Y-93934286D01*
X35397857Y-94362857D01*
X35326428Y-94505714D01*
X35254999Y-94577143D01*
X35112142Y-94648571D01*
X34897857Y-94648571D01*
X36040714Y-94648571D02*
X36040714Y-93648571D01*
X36040714Y-93934286D02*
X36112142Y-93791429D01*
X36183571Y-93720000D01*
X36326428Y-93648571D01*
X36469285Y-93648571D01*
X38112142Y-93148571D02*
X38112142Y-94362857D01*
X38183570Y-94505714D01*
X38254999Y-94577143D01*
X38397856Y-94648571D01*
X38683570Y-94648571D01*
X38826428Y-94577143D01*
X38897856Y-94505714D01*
X38969285Y-94362857D01*
X38969285Y-93148571D01*
X39612142Y-93291429D02*
X39683571Y-93220000D01*
X39826428Y-93148571D01*
X40183571Y-93148571D01*
X40326428Y-93220000D01*
X40397857Y-93291429D01*
X40469285Y-93434286D01*
X40469285Y-93577143D01*
X40397857Y-93791429D01*
X39540714Y-94648571D01*
X40469285Y-94648571D01*
X41183570Y-94577143D02*
X41183570Y-94648571D01*
X41112142Y-94791429D01*
X41040713Y-94862857D01*
X42897856Y-94220000D02*
X43612142Y-94220000D01*
X42754999Y-94648571D02*
X43254999Y-93148571D01*
X43754999Y-94648571D01*
X44040713Y-93148571D02*
X44897856Y-93148571D01*
X44469285Y-94648571D02*
X44469285Y-93148571D01*
X45397856Y-94648571D02*
X45397856Y-93148571D01*
X45897856Y-94220000D01*
X46397856Y-93148571D01*
X46397856Y-94648571D01*
X47683570Y-94577143D02*
X47540713Y-94648571D01*
X47254999Y-94648571D01*
X47112142Y-94577143D01*
X47040713Y-94434286D01*
X47040713Y-93862857D01*
X47112142Y-93720000D01*
X47254999Y-93648571D01*
X47540713Y-93648571D01*
X47683570Y-93720000D01*
X47754999Y-93862857D01*
X47754999Y-94005714D01*
X47040713Y-94148571D01*
X49040713Y-93648571D02*
X49040713Y-94862857D01*
X48969284Y-95005714D01*
X48897856Y-95077143D01*
X48754999Y-95148571D01*
X48540713Y-95148571D01*
X48397856Y-95077143D01*
X49040713Y-94577143D02*
X48897856Y-94648571D01*
X48612142Y-94648571D01*
X48469284Y-94577143D01*
X48397856Y-94505714D01*
X48326427Y-94362857D01*
X48326427Y-93934286D01*
X48397856Y-93791429D01*
X48469284Y-93720000D01*
X48612142Y-93648571D01*
X48897856Y-93648571D01*
X49040713Y-93720000D01*
X50397856Y-94648571D02*
X50397856Y-93862857D01*
X50326427Y-93720000D01*
X50183570Y-93648571D01*
X49897856Y-93648571D01*
X49754999Y-93720000D01*
X50397856Y-94577143D02*
X50254999Y-94648571D01*
X49897856Y-94648571D01*
X49754999Y-94577143D01*
X49683570Y-94434286D01*
X49683570Y-94291429D01*
X49754999Y-94148571D01*
X49897856Y-94077143D01*
X50254999Y-94077143D01*
X50397856Y-94005714D01*
X51112142Y-94077143D02*
X52254999Y-94077143D01*
X52826428Y-93148571D02*
X53754999Y-93148571D01*
X53254999Y-93720000D01*
X53469285Y-93720000D01*
X53612142Y-93791429D01*
X53683571Y-93862857D01*
X53754999Y-94005714D01*
X53754999Y-94362857D01*
X53683571Y-94505714D01*
X53612142Y-94577143D01*
X53469285Y-94648571D01*
X53040713Y-94648571D01*
X52897856Y-94577143D01*
X52826428Y-94505714D01*
X54326427Y-93291429D02*
X54397856Y-93220000D01*
X54540713Y-93148571D01*
X54897856Y-93148571D01*
X55040713Y-93220000D01*
X55112142Y-93291429D01*
X55183570Y-93434286D01*
X55183570Y-93577143D01*
X55112142Y-93791429D01*
X54254999Y-94648571D01*
X55183570Y-94648571D01*
X56040713Y-93791429D02*
X55897855Y-93720000D01*
X55826427Y-93648571D01*
X55754998Y-93505714D01*
X55754998Y-93434286D01*
X55826427Y-93291429D01*
X55897855Y-93220000D01*
X56040713Y-93148571D01*
X56326427Y-93148571D01*
X56469284Y-93220000D01*
X56540713Y-93291429D01*
X56612141Y-93434286D01*
X56612141Y-93505714D01*
X56540713Y-93648571D01*
X56469284Y-93720000D01*
X56326427Y-93791429D01*
X56040713Y-93791429D01*
X55897855Y-93862857D01*
X55826427Y-93934286D01*
X55754998Y-94077143D01*
X55754998Y-94362857D01*
X55826427Y-94505714D01*
X55897855Y-94577143D01*
X56040713Y-94648571D01*
X56326427Y-94648571D01*
X56469284Y-94577143D01*
X56540713Y-94505714D01*
X56612141Y-94362857D01*
X56612141Y-94077143D01*
X56540713Y-93934286D01*
X56469284Y-93862857D01*
X56326427Y-93791429D01*
X57254998Y-94648571D02*
X57254998Y-93148571D01*
X57826426Y-93148571D01*
X57969284Y-93220000D01*
X58040712Y-93291429D01*
X58112141Y-93434286D01*
X58112141Y-93648571D01*
X58040712Y-93791429D01*
X57969284Y-93862857D01*
X57826426Y-93934286D01*
X57254998Y-93934286D01*
X58826426Y-94577143D02*
X58826426Y-94648571D01*
X58754998Y-94791429D01*
X58683569Y-94862857D01*
X61254998Y-93648571D02*
X61254998Y-94648571D01*
X60612141Y-93648571D02*
X60612141Y-94434286D01*
X60683569Y-94577143D01*
X60826427Y-94648571D01*
X61040712Y-94648571D01*
X61183569Y-94577143D01*
X61254998Y-94505714D01*
X61897855Y-94577143D02*
X62040712Y-94648571D01*
X62326427Y-94648571D01*
X62469284Y-94577143D01*
X62540712Y-94434286D01*
X62540712Y-94362857D01*
X62469284Y-94220000D01*
X62326427Y-94148571D01*
X62112141Y-94148571D01*
X61969284Y-94077143D01*
X61897855Y-93934286D01*
X61897855Y-93862857D01*
X61969284Y-93720000D01*
X62112141Y-93648571D01*
X62326427Y-93648571D01*
X62469284Y-93720000D01*
X63754998Y-94577143D02*
X63612141Y-94648571D01*
X63326427Y-94648571D01*
X63183570Y-94577143D01*
X63112141Y-94434286D01*
X63112141Y-93862857D01*
X63183570Y-93720000D01*
X63326427Y-93648571D01*
X63612141Y-93648571D01*
X63754998Y-93720000D01*
X63826427Y-93862857D01*
X63826427Y-94005714D01*
X63112141Y-94148571D01*
X66183569Y-94577143D02*
X66040712Y-94648571D01*
X65754998Y-94648571D01*
X65612141Y-94577143D01*
X65540712Y-94434286D01*
X65540712Y-93862857D01*
X65612141Y-93720000D01*
X65754998Y-93648571D01*
X66040712Y-93648571D01*
X66183569Y-93720000D01*
X66254998Y-93862857D01*
X66254998Y-94005714D01*
X65540712Y-94148571D01*
X66897855Y-94648571D02*
X66897855Y-93648571D01*
X66897855Y-93148571D02*
X66826426Y-93220000D01*
X66897855Y-93291429D01*
X66969283Y-93220000D01*
X66897855Y-93148571D01*
X66897855Y-93291429D01*
X67397855Y-93648571D02*
X67969284Y-93648571D01*
X67612141Y-93148571D02*
X67612141Y-94434286D01*
X67683569Y-94577143D01*
X67826427Y-94648571D01*
X67969284Y-94648571D01*
X68469284Y-94648571D02*
X68469284Y-93148571D01*
X69112141Y-94648571D02*
X69112141Y-93862857D01*
X69040712Y-93720000D01*
X68897855Y-93648571D01*
X68683570Y-93648571D01*
X68540712Y-93720000D01*
X68469284Y-93791429D01*
X70397855Y-94577143D02*
X70254998Y-94648571D01*
X69969284Y-94648571D01*
X69826427Y-94577143D01*
X69754998Y-94434286D01*
X69754998Y-93862857D01*
X69826427Y-93720000D01*
X69969284Y-93648571D01*
X70254998Y-93648571D01*
X70397855Y-93720000D01*
X70469284Y-93862857D01*
X70469284Y-94005714D01*
X69754998Y-94148571D01*
X71112141Y-94648571D02*
X71112141Y-93648571D01*
X71112141Y-93934286D02*
X71183569Y-93791429D01*
X71254998Y-93720000D01*
X71397855Y-93648571D01*
X71540712Y-93648571D01*
X73183569Y-94648571D02*
X73183569Y-93648571D01*
X73183569Y-93934286D02*
X73254997Y-93791429D01*
X73326426Y-93720000D01*
X73469283Y-93648571D01*
X73612140Y-93648571D01*
X74683568Y-94577143D02*
X74540711Y-94648571D01*
X74254997Y-94648571D01*
X74112140Y-94577143D01*
X74040711Y-94434286D01*
X74040711Y-93862857D01*
X74112140Y-93720000D01*
X74254997Y-93648571D01*
X74540711Y-93648571D01*
X74683568Y-93720000D01*
X74754997Y-93862857D01*
X74754997Y-94005714D01*
X74040711Y-94148571D01*
X76040711Y-93648571D02*
X76040711Y-94862857D01*
X75969282Y-95005714D01*
X75897854Y-95077143D01*
X75754997Y-95148571D01*
X75540711Y-95148571D01*
X75397854Y-95077143D01*
X76040711Y-94577143D02*
X75897854Y-94648571D01*
X75612140Y-94648571D01*
X75469282Y-94577143D01*
X75397854Y-94505714D01*
X75326425Y-94362857D01*
X75326425Y-93934286D01*
X75397854Y-93791429D01*
X75469282Y-93720000D01*
X75612140Y-93648571D01*
X75897854Y-93648571D01*
X76040711Y-93720000D01*
X77397854Y-93648571D02*
X77397854Y-94648571D01*
X76754997Y-93648571D02*
X76754997Y-94434286D01*
X76826425Y-94577143D01*
X76969283Y-94648571D01*
X77183568Y-94648571D01*
X77326425Y-94577143D01*
X77397854Y-94505714D01*
X78326426Y-94648571D02*
X78183568Y-94577143D01*
X78112140Y-94434286D01*
X78112140Y-93148571D01*
X79540711Y-94648571D02*
X79540711Y-93862857D01*
X79469282Y-93720000D01*
X79326425Y-93648571D01*
X79040711Y-93648571D01*
X78897854Y-93720000D01*
X79540711Y-94577143D02*
X79397854Y-94648571D01*
X79040711Y-94648571D01*
X78897854Y-94577143D01*
X78826425Y-94434286D01*
X78826425Y-94291429D01*
X78897854Y-94148571D01*
X79040711Y-94077143D01*
X79397854Y-94077143D01*
X79540711Y-94005714D01*
X80254997Y-94648571D02*
X80254997Y-93648571D01*
X80254997Y-93934286D02*
X80326425Y-93791429D01*
X80397854Y-93720000D01*
X80540711Y-93648571D01*
X80683568Y-93648571D01*
X82326425Y-94648571D02*
X82326425Y-93148571D01*
X82683568Y-93148571D01*
X82897853Y-93220000D01*
X83040711Y-93362857D01*
X83112139Y-93505714D01*
X83183568Y-93791429D01*
X83183568Y-94005714D01*
X83112139Y-94291429D01*
X83040711Y-94434286D01*
X82897853Y-94577143D01*
X82683568Y-94648571D01*
X82326425Y-94648571D01*
X83826425Y-94648571D02*
X83826425Y-93148571D01*
X84540711Y-94648571D02*
X84540711Y-93148571D01*
X85112139Y-93148571D01*
X85254997Y-93220000D01*
X85326425Y-93291429D01*
X85397854Y-93434286D01*
X85397854Y-93648571D01*
X85326425Y-93791429D01*
X85254997Y-93862857D01*
X85112139Y-93934286D01*
X84540711Y-93934286D01*
X87112139Y-94577143D02*
X87254996Y-94648571D01*
X87540711Y-94648571D01*
X87683568Y-94577143D01*
X87754996Y-94434286D01*
X87754996Y-94362857D01*
X87683568Y-94220000D01*
X87540711Y-94148571D01*
X87326425Y-94148571D01*
X87183568Y-94077143D01*
X87112139Y-93934286D01*
X87112139Y-93862857D01*
X87183568Y-93720000D01*
X87326425Y-93648571D01*
X87540711Y-93648571D01*
X87683568Y-93720000D01*
X88612140Y-94648571D02*
X88469282Y-94577143D01*
X88397854Y-94505714D01*
X88326425Y-94362857D01*
X88326425Y-93934286D01*
X88397854Y-93791429D01*
X88469282Y-93720000D01*
X88612140Y-93648571D01*
X88826425Y-93648571D01*
X88969282Y-93720000D01*
X89040711Y-93791429D01*
X89112140Y-93934286D01*
X89112140Y-94362857D01*
X89040711Y-94505714D01*
X88969282Y-94577143D01*
X88826425Y-94648571D01*
X88612140Y-94648571D01*
X90397854Y-94577143D02*
X90254997Y-94648571D01*
X89969283Y-94648571D01*
X89826425Y-94577143D01*
X89754997Y-94505714D01*
X89683568Y-94362857D01*
X89683568Y-93934286D01*
X89754997Y-93791429D01*
X89826425Y-93720000D01*
X89969283Y-93648571D01*
X90254997Y-93648571D01*
X90397854Y-93720000D01*
X91040711Y-94648571D02*
X91040711Y-93148571D01*
X91183568Y-94077143D02*
X91612139Y-94648571D01*
X91612139Y-93648571D02*
X91040711Y-94220000D01*
X92826425Y-94577143D02*
X92683568Y-94648571D01*
X92397854Y-94648571D01*
X92254997Y-94577143D01*
X92183568Y-94434286D01*
X92183568Y-93862857D01*
X92254997Y-93720000D01*
X92397854Y-93648571D01*
X92683568Y-93648571D01*
X92826425Y-93720000D01*
X92897854Y-93862857D01*
X92897854Y-94005714D01*
X92183568Y-94148571D01*
X93326425Y-93648571D02*
X93897854Y-93648571D01*
X93540711Y-93148571D02*
X93540711Y-94434286D01*
X93612139Y-94577143D01*
X93754997Y-94648571D01*
X93897854Y-94648571D01*
X94469282Y-94577143D02*
X94469282Y-94648571D01*
X94397854Y-94791429D01*
X94326425Y-94862857D01*
X96469283Y-94648571D02*
X96326425Y-94577143D01*
X96254997Y-94505714D01*
X96183568Y-94362857D01*
X96183568Y-93934286D01*
X96254997Y-93791429D01*
X96326425Y-93720000D01*
X96469283Y-93648571D01*
X96683568Y-93648571D01*
X96826425Y-93720000D01*
X96897854Y-93791429D01*
X96969283Y-93934286D01*
X96969283Y-94362857D01*
X96897854Y-94505714D01*
X96826425Y-94577143D01*
X96683568Y-94648571D01*
X96469283Y-94648571D01*
X97612140Y-94648571D02*
X97612140Y-93648571D01*
X97612140Y-93934286D02*
X97683568Y-93791429D01*
X97754997Y-93720000D01*
X97897854Y-93648571D01*
X98040711Y-93648571D01*
X99540711Y-93148571D02*
X100540711Y-93148571D01*
X99540711Y-94648571D01*
X100540711Y-94648571D01*
X101112139Y-94648571D02*
X101112139Y-93148571D01*
X102326425Y-93862857D02*
X101826425Y-93862857D01*
X101826425Y-94648571D02*
X101826425Y-93148571D01*
X102540711Y-93148571D01*
X104183567Y-94577143D02*
X104326424Y-94648571D01*
X104612139Y-94648571D01*
X104754996Y-94577143D01*
X104826424Y-94434286D01*
X104826424Y-94362857D01*
X104754996Y-94220000D01*
X104612139Y-94148571D01*
X104397853Y-94148571D01*
X104254996Y-94077143D01*
X104183567Y-93934286D01*
X104183567Y-93862857D01*
X104254996Y-93720000D01*
X104397853Y-93648571D01*
X104612139Y-93648571D01*
X104754996Y-93720000D01*
X105683568Y-94648571D02*
X105540710Y-94577143D01*
X105469282Y-94505714D01*
X105397853Y-94362857D01*
X105397853Y-93934286D01*
X105469282Y-93791429D01*
X105540710Y-93720000D01*
X105683568Y-93648571D01*
X105897853Y-93648571D01*
X106040710Y-93720000D01*
X106112139Y-93791429D01*
X106183568Y-93934286D01*
X106183568Y-94362857D01*
X106112139Y-94505714D01*
X106040710Y-94577143D01*
X105897853Y-94648571D01*
X105683568Y-94648571D01*
X107469282Y-94577143D02*
X107326425Y-94648571D01*
X107040711Y-94648571D01*
X106897853Y-94577143D01*
X106826425Y-94505714D01*
X106754996Y-94362857D01*
X106754996Y-93934286D01*
X106826425Y-93791429D01*
X106897853Y-93720000D01*
X107040711Y-93648571D01*
X107326425Y-93648571D01*
X107469282Y-93720000D01*
X108112139Y-94648571D02*
X108112139Y-93148571D01*
X108254996Y-94077143D02*
X108683567Y-94648571D01*
X108683567Y-93648571D02*
X108112139Y-94220000D01*
X109897853Y-94577143D02*
X109754996Y-94648571D01*
X109469282Y-94648571D01*
X109326425Y-94577143D01*
X109254996Y-94434286D01*
X109254996Y-93862857D01*
X109326425Y-93720000D01*
X109469282Y-93648571D01*
X109754996Y-93648571D01*
X109897853Y-93720000D01*
X109969282Y-93862857D01*
X109969282Y-94005714D01*
X109254996Y-94148571D01*
X110397853Y-93648571D02*
X110969282Y-93648571D01*
X110612139Y-93148571D02*
X110612139Y-94434286D01*
X110683567Y-94577143D01*
X110826425Y-94648571D01*
X110969282Y-94648571D01*
X111469282Y-94505714D02*
X111540710Y-94577143D01*
X111469282Y-94648571D01*
X111397853Y-94577143D01*
X111469282Y-94505714D01*
X111469282Y-94648571D01*
D12*
X57196400Y-55737400D02*
X72411000Y-55737400D01*
X57196400Y-58252000D02*
X57196400Y-55737400D01*
X72411000Y-58252000D02*
X57196400Y-58252000D01*
X72411000Y-55737400D02*
X72411000Y-58252000D01*
X74874800Y-55737400D02*
X90114800Y-55737400D01*
X74874800Y-58252000D02*
X74874800Y-55737400D01*
X90114800Y-58252000D02*
X74874800Y-58252000D01*
X90114800Y-55737400D02*
X90114800Y-58252000D01*
X46849200Y-30337400D02*
X67143800Y-30337400D01*
X46849200Y-32877400D02*
X46849200Y-30337400D01*
X67143800Y-32877400D02*
X46849200Y-32877400D01*
X67143800Y-30337400D02*
X67143800Y-32877400D01*
X69845600Y-30337400D02*
X90165600Y-30337400D01*
X69845600Y-32852000D02*
X69845600Y-30337400D01*
X90165600Y-32852000D02*
X69845600Y-32852000D01*
X90165600Y-30337400D02*
X90165600Y-32852000D01*
D11*
X39535715Y-73671429D02*
X39607144Y-73600000D01*
X39750001Y-73528571D01*
X40107144Y-73528571D01*
X40250001Y-73600000D01*
X40321430Y-73671429D01*
X40392858Y-73814286D01*
X40392858Y-73957143D01*
X40321430Y-74171429D01*
X39464287Y-75028571D01*
X40392858Y-75028571D01*
X40892858Y-73528571D02*
X41892858Y-73528571D01*
X41250001Y-75028571D01*
X42464286Y-74885714D02*
X42535714Y-74957143D01*
X42464286Y-75028571D01*
X42392857Y-74957143D01*
X42464286Y-74885714D01*
X42464286Y-75028571D01*
X43892858Y-73528571D02*
X43178572Y-73528571D01*
X43107143Y-74242857D01*
X43178572Y-74171429D01*
X43321429Y-74100000D01*
X43678572Y-74100000D01*
X43821429Y-74171429D01*
X43892858Y-74242857D01*
X43964286Y-74385714D01*
X43964286Y-74742857D01*
X43892858Y-74885714D01*
X43821429Y-74957143D01*
X43678572Y-75028571D01*
X43321429Y-75028571D01*
X43178572Y-74957143D01*
X43107143Y-74885714D01*
X44607143Y-75028571D02*
X44607143Y-74028571D01*
X44607143Y-74171429D02*
X44678571Y-74100000D01*
X44821429Y-74028571D01*
X45035714Y-74028571D01*
X45178571Y-74100000D01*
X45250000Y-74242857D01*
X45250000Y-75028571D01*
X45250000Y-74242857D02*
X45321429Y-74100000D01*
X45464286Y-74028571D01*
X45678571Y-74028571D01*
X45821429Y-74100000D01*
X45892857Y-74242857D01*
X45892857Y-75028571D01*
X46607143Y-75028571D02*
X46607143Y-74028571D01*
X46607143Y-74171429D02*
X46678571Y-74100000D01*
X46821429Y-74028571D01*
X47035714Y-74028571D01*
X47178571Y-74100000D01*
X47250000Y-74242857D01*
X47250000Y-75028571D01*
X47250000Y-74242857D02*
X47321429Y-74100000D01*
X47464286Y-74028571D01*
X47678571Y-74028571D01*
X47821429Y-74100000D01*
X47892857Y-74242857D01*
X47892857Y-75028571D01*
X30000000Y-73000000D02*
X57500000Y-73000000D01*
X30000000Y-60000000D02*
X30000000Y-75700000D01*
X57500000Y-60000000D02*
X57500000Y-75700000D01*
X57500000Y-73000000D02*
X56373496Y-73586421D01*
X57500000Y-73000000D02*
X56373496Y-72413579D01*
X30000000Y-73000000D02*
X31126504Y-73586421D01*
X30000000Y-73000000D02*
X31126504Y-72413579D01*
X107462229Y-56031401D02*
X107462229Y-56959972D01*
X106890800Y-56459972D01*
X106890800Y-56674258D01*
X106819371Y-56817115D01*
X106747943Y-56888544D01*
X106605086Y-56959972D01*
X106247943Y-56959972D01*
X106105086Y-56888544D01*
X106033657Y-56817115D01*
X105962229Y-56674258D01*
X105962229Y-56245686D01*
X106033657Y-56102829D01*
X106105086Y-56031401D01*
X105962229Y-57602829D02*
X106962229Y-57602829D01*
X106819371Y-57602829D02*
X106890800Y-57674257D01*
X106962229Y-57817115D01*
X106962229Y-58031400D01*
X106890800Y-58174257D01*
X106747943Y-58245686D01*
X105962229Y-58245686D01*
X106747943Y-58245686D02*
X106890800Y-58317115D01*
X106962229Y-58459972D01*
X106962229Y-58674257D01*
X106890800Y-58817115D01*
X106747943Y-58888543D01*
X105962229Y-58888543D01*
X105962229Y-59602829D02*
X106962229Y-59602829D01*
X106819371Y-59602829D02*
X106890800Y-59674257D01*
X106962229Y-59817115D01*
X106962229Y-60031400D01*
X106890800Y-60174257D01*
X106747943Y-60245686D01*
X105962229Y-60245686D01*
X106747943Y-60245686D02*
X106890800Y-60317115D01*
X106962229Y-60459972D01*
X106962229Y-60674257D01*
X106890800Y-60817115D01*
X106747943Y-60888543D01*
X105962229Y-60888543D01*
X102551400Y-57007400D02*
X102551400Y-60004600D01*
X100011400Y-57007400D02*
X105251400Y-57007400D01*
X100011400Y-60004600D02*
X105251400Y-60004600D01*
X102551400Y-60004600D02*
X101964979Y-58878096D01*
X102551400Y-60004600D02*
X103137821Y-58878096D01*
X102551400Y-57007400D02*
X101964979Y-58133904D01*
X102551400Y-57007400D02*
X103137821Y-58133904D01*
X104579971Y-40093115D02*
X104651400Y-40164544D01*
X104722829Y-40307401D01*
X104722829Y-40664544D01*
X104651400Y-40807401D01*
X104579971Y-40878830D01*
X104437114Y-40950258D01*
X104294257Y-40950258D01*
X104079971Y-40878830D01*
X103222829Y-40021687D01*
X103222829Y-40950258D01*
X104722829Y-42307401D02*
X104722829Y-41593115D01*
X104008543Y-41521686D01*
X104079971Y-41593115D01*
X104151400Y-41735972D01*
X104151400Y-42093115D01*
X104079971Y-42235972D01*
X104008543Y-42307401D01*
X103865686Y-42378829D01*
X103508543Y-42378829D01*
X103365686Y-42307401D01*
X103294257Y-42235972D01*
X103222829Y-42093115D01*
X103222829Y-41735972D01*
X103294257Y-41593115D01*
X103365686Y-41521686D01*
X103365686Y-43021686D02*
X103294257Y-43093114D01*
X103222829Y-43021686D01*
X103294257Y-42950257D01*
X103365686Y-43021686D01*
X103222829Y-43021686D01*
X104222829Y-44378829D02*
X103222829Y-44378829D01*
X104794257Y-44021686D02*
X103722829Y-43664543D01*
X103722829Y-44593115D01*
X103222829Y-45164543D02*
X104222829Y-45164543D01*
X104079971Y-45164543D02*
X104151400Y-45235971D01*
X104222829Y-45378829D01*
X104222829Y-45593114D01*
X104151400Y-45735971D01*
X104008543Y-45807400D01*
X103222829Y-45807400D01*
X104008543Y-45807400D02*
X104151400Y-45878829D01*
X104222829Y-46021686D01*
X104222829Y-46235971D01*
X104151400Y-46378829D01*
X104008543Y-46450257D01*
X103222829Y-46450257D01*
X103222829Y-47164543D02*
X104222829Y-47164543D01*
X104079971Y-47164543D02*
X104151400Y-47235971D01*
X104222829Y-47378829D01*
X104222829Y-47593114D01*
X104151400Y-47735971D01*
X104008543Y-47807400D01*
X103222829Y-47807400D01*
X104008543Y-47807400D02*
X104151400Y-47878829D01*
X104222829Y-48021686D01*
X104222829Y-48235971D01*
X104151400Y-48378829D01*
X104008543Y-48450257D01*
X103222829Y-48450257D01*
X102551400Y-31607400D02*
X102551400Y-57007400D01*
X87895600Y-31607400D02*
X105251400Y-31607400D01*
X87895600Y-57007400D02*
X105251400Y-57007400D01*
X102551400Y-57007400D02*
X101964979Y-55880896D01*
X102551400Y-57007400D02*
X103137821Y-55880896D01*
X102551400Y-31607400D02*
X101964979Y-32733904D01*
X102551400Y-31607400D02*
X103137821Y-32733904D01*
D12*
X30500000Y-32000000D02*
X33500000Y-32000000D01*
X32000000Y-30500000D02*
X32000000Y-33500000D01*
X44000000Y-55000000D02*
X41000000Y-55000000D01*
X42500000Y-53500000D02*
X42500000Y-56500000D01*
X98000000Y-56500000D02*
X98000000Y-59500000D01*
X96500000Y-58000000D02*
X99500000Y-58000000D01*
X86000000Y-35000000D02*
X89000000Y-35000000D01*
X87500000Y-33500000D02*
X87500000Y-36500000D01*
X89000000Y-35000000D02*
G75*
G03X89000000Y-35000000I-1500000J0D01*
G01*
X33500000Y-32000000D02*
G75*
G03X33500000Y-32000000I-1500000J0D01*
G01*
X44000000Y-55000000D02*
G75*
G03X44000000Y-55000000I-1500000J0D01*
G01*
X99500000Y-58000000D02*
G75*
G03X99500000Y-58000000I-1500000J0D01*
G01*
D11*
X100571429Y-65321429D02*
X100642858Y-65250000D01*
X100785715Y-65178571D01*
X101142858Y-65178571D01*
X101285715Y-65250000D01*
X101357144Y-65321429D01*
X101428572Y-65464286D01*
X101428572Y-65607143D01*
X101357144Y-65821429D01*
X100500001Y-66678571D01*
X101428572Y-66678571D01*
X102071429Y-66678571D02*
X102071429Y-65678571D01*
X102071429Y-65821429D02*
X102142857Y-65750000D01*
X102285715Y-65678571D01*
X102500000Y-65678571D01*
X102642857Y-65750000D01*
X102714286Y-65892857D01*
X102714286Y-66678571D01*
X102714286Y-65892857D02*
X102785715Y-65750000D01*
X102928572Y-65678571D01*
X103142857Y-65678571D01*
X103285715Y-65750000D01*
X103357143Y-65892857D01*
X103357143Y-66678571D01*
X104071429Y-66678571D02*
X104071429Y-65678571D01*
X104071429Y-65821429D02*
X104142857Y-65750000D01*
X104285715Y-65678571D01*
X104500000Y-65678571D01*
X104642857Y-65750000D01*
X104714286Y-65892857D01*
X104714286Y-66678571D01*
X104714286Y-65892857D02*
X104785715Y-65750000D01*
X104928572Y-65678571D01*
X105142857Y-65678571D01*
X105285715Y-65750000D01*
X105357143Y-65892857D01*
X105357143Y-66678571D01*
X98000000Y-66000000D02*
X100000000Y-66000000D01*
X98000000Y-60000000D02*
X98000000Y-68700000D01*
X100000000Y-60000000D02*
X100000000Y-68700000D01*
X100000000Y-66000000D02*
X98873496Y-66586421D01*
X100000000Y-66000000D02*
X98873496Y-65413579D01*
X98000000Y-66000000D02*
X99126504Y-66586421D01*
X98000000Y-66000000D02*
X99126504Y-65413579D01*
X20178571Y-56571429D02*
X20250000Y-56642858D01*
X20321429Y-56785715D01*
X20321429Y-57142858D01*
X20250000Y-57285715D01*
X20178571Y-57357144D01*
X20035714Y-57428572D01*
X19892857Y-57428572D01*
X19678571Y-57357144D01*
X18821429Y-56500001D01*
X18821429Y-57428572D01*
X18821429Y-58071429D02*
X19821429Y-58071429D01*
X19678571Y-58071429D02*
X19750000Y-58142857D01*
X19821429Y-58285715D01*
X19821429Y-58500000D01*
X19750000Y-58642857D01*
X19607143Y-58714286D01*
X18821429Y-58714286D01*
X19607143Y-58714286D02*
X19750000Y-58785715D01*
X19821429Y-58928572D01*
X19821429Y-59142857D01*
X19750000Y-59285715D01*
X19607143Y-59357143D01*
X18821429Y-59357143D01*
X18821429Y-60071429D02*
X19821429Y-60071429D01*
X19678571Y-60071429D02*
X19750000Y-60142857D01*
X19821429Y-60285715D01*
X19821429Y-60500000D01*
X19750000Y-60642857D01*
X19607143Y-60714286D01*
X18821429Y-60714286D01*
X19607143Y-60714286D02*
X19750000Y-60785715D01*
X19821429Y-60928572D01*
X19821429Y-61142857D01*
X19750000Y-61285715D01*
X19607143Y-61357143D01*
X18821429Y-61357143D01*
X26000000Y-58000000D02*
X26000000Y-60000000D01*
X30000000Y-58000000D02*
X23300000Y-58000000D01*
X30000000Y-60000000D02*
X23300000Y-60000000D01*
X26000000Y-60000000D02*
X25413579Y-58873496D01*
X26000000Y-60000000D02*
X26586421Y-58873496D01*
X26000000Y-58000000D02*
X25413579Y-59126504D01*
X26000000Y-58000000D02*
X26586421Y-59126504D01*
X22821429Y-54000001D02*
X22821429Y-54928572D01*
X22250000Y-54428572D01*
X22250000Y-54642858D01*
X22178571Y-54785715D01*
X22107143Y-54857144D01*
X21964286Y-54928572D01*
X21607143Y-54928572D01*
X21464286Y-54857144D01*
X21392857Y-54785715D01*
X21321429Y-54642858D01*
X21321429Y-54214286D01*
X21392857Y-54071429D01*
X21464286Y-54000001D01*
X21321429Y-55571429D02*
X22321429Y-55571429D01*
X22178571Y-55571429D02*
X22250000Y-55642857D01*
X22321429Y-55785715D01*
X22321429Y-56000000D01*
X22250000Y-56142857D01*
X22107143Y-56214286D01*
X21321429Y-56214286D01*
X22107143Y-56214286D02*
X22250000Y-56285715D01*
X22321429Y-56428572D01*
X22321429Y-56642857D01*
X22250000Y-56785715D01*
X22107143Y-56857143D01*
X21321429Y-56857143D01*
X21321429Y-57571429D02*
X22321429Y-57571429D01*
X22178571Y-57571429D02*
X22250000Y-57642857D01*
X22321429Y-57785715D01*
X22321429Y-58000000D01*
X22250000Y-58142857D01*
X22107143Y-58214286D01*
X21321429Y-58214286D01*
X22107143Y-58214286D02*
X22250000Y-58285715D01*
X22321429Y-58428572D01*
X22321429Y-58642857D01*
X22250000Y-58785715D01*
X22107143Y-58857143D01*
X21321429Y-58857143D01*
X26000000Y-55000000D02*
X26000000Y-58000000D01*
X98000000Y-55000000D02*
X23300000Y-55000000D01*
X98000000Y-58000000D02*
X23300000Y-58000000D01*
X26000000Y-58000000D02*
X25413579Y-56873496D01*
X26000000Y-58000000D02*
X26586421Y-56873496D01*
X26000000Y-55000000D02*
X25413579Y-56126504D01*
X26000000Y-55000000D02*
X26586421Y-56126504D01*
X25328572Y-41857143D02*
X25400001Y-41928572D01*
X25471430Y-42071429D01*
X25471430Y-42428572D01*
X25400001Y-42571429D01*
X25328572Y-42642858D01*
X25185715Y-42714286D01*
X25042858Y-42714286D01*
X24828572Y-42642858D01*
X23971430Y-41785715D01*
X23971430Y-42714286D01*
X25471430Y-43642857D02*
X25471430Y-43785714D01*
X25400001Y-43928571D01*
X25328572Y-44000000D01*
X25185715Y-44071429D01*
X24900001Y-44142857D01*
X24542858Y-44142857D01*
X24257144Y-44071429D01*
X24114287Y-44000000D01*
X24042858Y-43928571D01*
X23971430Y-43785714D01*
X23971430Y-43642857D01*
X24042858Y-43500000D01*
X24114287Y-43428571D01*
X24257144Y-43357143D01*
X24542858Y-43285714D01*
X24900001Y-43285714D01*
X25185715Y-43357143D01*
X25328572Y-43428571D01*
X25400001Y-43500000D01*
X25471430Y-43642857D01*
X23971430Y-44785714D02*
X24971430Y-44785714D01*
X24828572Y-44785714D02*
X24900001Y-44857142D01*
X24971430Y-45000000D01*
X24971430Y-45214285D01*
X24900001Y-45357142D01*
X24757144Y-45428571D01*
X23971430Y-45428571D01*
X24757144Y-45428571D02*
X24900001Y-45500000D01*
X24971430Y-45642857D01*
X24971430Y-45857142D01*
X24900001Y-46000000D01*
X24757144Y-46071428D01*
X23971430Y-46071428D01*
X23971430Y-46785714D02*
X24971430Y-46785714D01*
X24828572Y-46785714D02*
X24900001Y-46857142D01*
X24971430Y-47000000D01*
X24971430Y-47214285D01*
X24900001Y-47357142D01*
X24757144Y-47428571D01*
X23971430Y-47428571D01*
X24757144Y-47428571D02*
X24900001Y-47500000D01*
X24971430Y-47642857D01*
X24971430Y-47857142D01*
X24900001Y-48000000D01*
X24757144Y-48071428D01*
X23971430Y-48071428D01*
X26000001Y-35000000D02*
X26000001Y-55000000D01*
X42500000Y-35000000D02*
X23300001Y-35000000D01*
X42500000Y-55000000D02*
X23300001Y-55000000D01*
X26000001Y-55000000D02*
X25413580Y-53873496D01*
X26000001Y-55000000D02*
X26586422Y-53873496D01*
X26000001Y-35000000D02*
X25413580Y-36126504D01*
X26000001Y-35000000D02*
X26586422Y-36126504D01*
X19821429Y-31000001D02*
X19821429Y-31928572D01*
X19250000Y-31428572D01*
X19250000Y-31642858D01*
X19178571Y-31785715D01*
X19107143Y-31857144D01*
X18964286Y-31928572D01*
X18607143Y-31928572D01*
X18464286Y-31857144D01*
X18392857Y-31785715D01*
X18321429Y-31642858D01*
X18321429Y-31214286D01*
X18392857Y-31071429D01*
X18464286Y-31000001D01*
X18321429Y-32571429D02*
X19321429Y-32571429D01*
X19178571Y-32571429D02*
X19250000Y-32642857D01*
X19321429Y-32785715D01*
X19321429Y-33000000D01*
X19250000Y-33142857D01*
X19107143Y-33214286D01*
X18321429Y-33214286D01*
X19107143Y-33214286D02*
X19250000Y-33285715D01*
X19321429Y-33428572D01*
X19321429Y-33642857D01*
X19250000Y-33785715D01*
X19107143Y-33857143D01*
X18321429Y-33857143D01*
X18321429Y-34571429D02*
X19321429Y-34571429D01*
X19178571Y-34571429D02*
X19250000Y-34642857D01*
X19321429Y-34785715D01*
X19321429Y-35000000D01*
X19250000Y-35142857D01*
X19107143Y-35214286D01*
X18321429Y-35214286D01*
X19107143Y-35214286D02*
X19250000Y-35285715D01*
X19321429Y-35428572D01*
X19321429Y-35642857D01*
X19250000Y-35785715D01*
X19107143Y-35857143D01*
X18321429Y-35857143D01*
X26000000Y-32000000D02*
X26000000Y-35000000D01*
X87500000Y-32000000D02*
X23300000Y-32000000D01*
X87500000Y-35000000D02*
X23300000Y-35000000D01*
X26000000Y-35000000D02*
X25413579Y-33873496D01*
X26000000Y-35000000D02*
X26586421Y-33873496D01*
X26000000Y-32000000D02*
X25413579Y-33126504D01*
X26000000Y-32000000D02*
X26586421Y-33126504D01*
X22178571Y-28071429D02*
X22250000Y-28142858D01*
X22321429Y-28285715D01*
X22321429Y-28642858D01*
X22250000Y-28785715D01*
X22178571Y-28857144D01*
X22035714Y-28928572D01*
X21892857Y-28928572D01*
X21678571Y-28857144D01*
X20821429Y-28000001D01*
X20821429Y-28928572D01*
X20821429Y-29571429D02*
X21821429Y-29571429D01*
X21678571Y-29571429D02*
X21750000Y-29642857D01*
X21821429Y-29785715D01*
X21821429Y-30000000D01*
X21750000Y-30142857D01*
X21607143Y-30214286D01*
X20821429Y-30214286D01*
X21607143Y-30214286D02*
X21750000Y-30285715D01*
X21821429Y-30428572D01*
X21821429Y-30642857D01*
X21750000Y-30785715D01*
X21607143Y-30857143D01*
X20821429Y-30857143D01*
X20821429Y-31571429D02*
X21821429Y-31571429D01*
X21678571Y-31571429D02*
X21750000Y-31642857D01*
X21821429Y-31785715D01*
X21821429Y-32000000D01*
X21750000Y-32142857D01*
X21607143Y-32214286D01*
X20821429Y-32214286D01*
X21607143Y-32214286D02*
X21750000Y-32285715D01*
X21821429Y-32428572D01*
X21821429Y-32642857D01*
X21750000Y-32785715D01*
X21607143Y-32857143D01*
X20821429Y-32857143D01*
X26000000Y-30000000D02*
X26000000Y-32000000D01*
X32000000Y-30000000D02*
X23300000Y-30000000D01*
X32000000Y-32000000D02*
X23300000Y-32000000D01*
X26000000Y-32000000D02*
X25413579Y-30873496D01*
X26000000Y-32000000D02*
X26586421Y-30873496D01*
X26000000Y-30000000D02*
X25413579Y-31126504D01*
X26000000Y-30000000D02*
X26586421Y-31126504D01*
X89642858Y-64678571D02*
X88785715Y-64678571D01*
X89214287Y-64678571D02*
X89214287Y-63178571D01*
X89071430Y-63392857D01*
X88928572Y-63535714D01*
X88785715Y-63607143D01*
X90571429Y-63178571D02*
X90714286Y-63178571D01*
X90857143Y-63250000D01*
X90928572Y-63321429D01*
X91000001Y-63464286D01*
X91071429Y-63750000D01*
X91071429Y-64107143D01*
X91000001Y-64392857D01*
X90928572Y-64535714D01*
X90857143Y-64607143D01*
X90714286Y-64678571D01*
X90571429Y-64678571D01*
X90428572Y-64607143D01*
X90357143Y-64535714D01*
X90285715Y-64392857D01*
X90214286Y-64107143D01*
X90214286Y-63750000D01*
X90285715Y-63464286D01*
X90357143Y-63321429D01*
X90428572Y-63250000D01*
X90571429Y-63178571D01*
X91714286Y-64535714D02*
X91785714Y-64607143D01*
X91714286Y-64678571D01*
X91642857Y-64607143D01*
X91714286Y-64535714D01*
X91714286Y-64678571D01*
X93142858Y-63178571D02*
X92428572Y-63178571D01*
X92357143Y-63892857D01*
X92428572Y-63821429D01*
X92571429Y-63750000D01*
X92928572Y-63750000D01*
X93071429Y-63821429D01*
X93142858Y-63892857D01*
X93214286Y-64035714D01*
X93214286Y-64392857D01*
X93142858Y-64535714D01*
X93071429Y-64607143D01*
X92928572Y-64678571D01*
X92571429Y-64678571D01*
X92428572Y-64607143D01*
X92357143Y-64535714D01*
X93857143Y-64678571D02*
X93857143Y-63678571D01*
X93857143Y-63821429D02*
X93928571Y-63750000D01*
X94071429Y-63678571D01*
X94285714Y-63678571D01*
X94428571Y-63750000D01*
X94500000Y-63892857D01*
X94500000Y-64678571D01*
X94500000Y-63892857D02*
X94571429Y-63750000D01*
X94714286Y-63678571D01*
X94928571Y-63678571D01*
X95071429Y-63750000D01*
X95142857Y-63892857D01*
X95142857Y-64678571D01*
X95857143Y-64678571D02*
X95857143Y-63678571D01*
X95857143Y-63821429D02*
X95928571Y-63750000D01*
X96071429Y-63678571D01*
X96285714Y-63678571D01*
X96428571Y-63750000D01*
X96500000Y-63892857D01*
X96500000Y-64678571D01*
X96500000Y-63892857D02*
X96571429Y-63750000D01*
X96714286Y-63678571D01*
X96928571Y-63678571D01*
X97071429Y-63750000D01*
X97142857Y-63892857D01*
X97142857Y-64678571D01*
X87500000Y-66000000D02*
X98000000Y-66000000D01*
X87500000Y-58000000D02*
X87500000Y-68700000D01*
X98000000Y-58000000D02*
X98000000Y-68700000D01*
X98000000Y-66000000D02*
X96873496Y-66586421D01*
X98000000Y-66000000D02*
X96873496Y-65413579D01*
X87500000Y-66000000D02*
X88626504Y-66586421D01*
X87500000Y-66000000D02*
X88626504Y-65413579D01*
X62571429Y-63678571D02*
X62571429Y-64678571D01*
X62214286Y-63107143D02*
X61857143Y-64178571D01*
X62785715Y-64178571D01*
X64071429Y-63178571D02*
X63357143Y-63178571D01*
X63285714Y-63892857D01*
X63357143Y-63821429D01*
X63500000Y-63750000D01*
X63857143Y-63750000D01*
X64000000Y-63821429D01*
X64071429Y-63892857D01*
X64142857Y-64035714D01*
X64142857Y-64392857D01*
X64071429Y-64535714D01*
X64000000Y-64607143D01*
X63857143Y-64678571D01*
X63500000Y-64678571D01*
X63357143Y-64607143D01*
X63285714Y-64535714D01*
X64785714Y-64678571D02*
X64785714Y-63678571D01*
X64785714Y-63821429D02*
X64857142Y-63750000D01*
X65000000Y-63678571D01*
X65214285Y-63678571D01*
X65357142Y-63750000D01*
X65428571Y-63892857D01*
X65428571Y-64678571D01*
X65428571Y-63892857D02*
X65500000Y-63750000D01*
X65642857Y-63678571D01*
X65857142Y-63678571D01*
X66000000Y-63750000D01*
X66071428Y-63892857D01*
X66071428Y-64678571D01*
X66785714Y-64678571D02*
X66785714Y-63678571D01*
X66785714Y-63821429D02*
X66857142Y-63750000D01*
X67000000Y-63678571D01*
X67214285Y-63678571D01*
X67357142Y-63750000D01*
X67428571Y-63892857D01*
X67428571Y-64678571D01*
X67428571Y-63892857D02*
X67500000Y-63750000D01*
X67642857Y-63678571D01*
X67857142Y-63678571D01*
X68000000Y-63750000D01*
X68071428Y-63892857D01*
X68071428Y-64678571D01*
X42500000Y-65999999D02*
X87500000Y-65999999D01*
X42500000Y-35000000D02*
X42500000Y-68699999D01*
X87500000Y-35000000D02*
X87500000Y-68699999D01*
X87500000Y-65999999D02*
X86373496Y-66586420D01*
X87500000Y-65999999D02*
X86373496Y-65413578D01*
X42500000Y-65999999D02*
X43626504Y-66586420D01*
X42500000Y-65999999D02*
X43626504Y-65413578D01*
X33642858Y-64678571D02*
X32785715Y-64678571D01*
X33214287Y-64678571D02*
X33214287Y-63178571D01*
X33071430Y-63392857D01*
X32928572Y-63535714D01*
X32785715Y-63607143D01*
X34571429Y-63178571D02*
X34714286Y-63178571D01*
X34857143Y-63250000D01*
X34928572Y-63321429D01*
X35000001Y-63464286D01*
X35071429Y-63750000D01*
X35071429Y-64107143D01*
X35000001Y-64392857D01*
X34928572Y-64535714D01*
X34857143Y-64607143D01*
X34714286Y-64678571D01*
X34571429Y-64678571D01*
X34428572Y-64607143D01*
X34357143Y-64535714D01*
X34285715Y-64392857D01*
X34214286Y-64107143D01*
X34214286Y-63750000D01*
X34285715Y-63464286D01*
X34357143Y-63321429D01*
X34428572Y-63250000D01*
X34571429Y-63178571D01*
X35714286Y-64535714D02*
X35785714Y-64607143D01*
X35714286Y-64678571D01*
X35642857Y-64607143D01*
X35714286Y-64535714D01*
X35714286Y-64678571D01*
X37142858Y-63178571D02*
X36428572Y-63178571D01*
X36357143Y-63892857D01*
X36428572Y-63821429D01*
X36571429Y-63750000D01*
X36928572Y-63750000D01*
X37071429Y-63821429D01*
X37142858Y-63892857D01*
X37214286Y-64035714D01*
X37214286Y-64392857D01*
X37142858Y-64535714D01*
X37071429Y-64607143D01*
X36928572Y-64678571D01*
X36571429Y-64678571D01*
X36428572Y-64607143D01*
X36357143Y-64535714D01*
X37857143Y-64678571D02*
X37857143Y-63678571D01*
X37857143Y-63821429D02*
X37928571Y-63750000D01*
X38071429Y-63678571D01*
X38285714Y-63678571D01*
X38428571Y-63750000D01*
X38500000Y-63892857D01*
X38500000Y-64678571D01*
X38500000Y-63892857D02*
X38571429Y-63750000D01*
X38714286Y-63678571D01*
X38928571Y-63678571D01*
X39071429Y-63750000D01*
X39142857Y-63892857D01*
X39142857Y-64678571D01*
X39857143Y-64678571D02*
X39857143Y-63678571D01*
X39857143Y-63821429D02*
X39928571Y-63750000D01*
X40071429Y-63678571D01*
X40285714Y-63678571D01*
X40428571Y-63750000D01*
X40500000Y-63892857D01*
X40500000Y-64678571D01*
X40500000Y-63892857D02*
X40571429Y-63750000D01*
X40714286Y-63678571D01*
X40928571Y-63678571D01*
X41071429Y-63750000D01*
X41142857Y-63892857D01*
X41142857Y-64678571D01*
X32000000Y-66000000D02*
X42500000Y-66000000D01*
X32000000Y-55000000D02*
X32000000Y-68700000D01*
X42500000Y-55000000D02*
X42500000Y-68700000D01*
X42500000Y-66000000D02*
X41373496Y-66586421D01*
X42500000Y-66000000D02*
X41373496Y-65413579D01*
X32000000Y-66000000D02*
X33126504Y-66586421D01*
X32000000Y-66000000D02*
X33126504Y-65413579D01*
X24571429Y-65321429D02*
X24642858Y-65250000D01*
X24785715Y-65178571D01*
X25142858Y-65178571D01*
X25285715Y-65250000D01*
X25357144Y-65321429D01*
X25428572Y-65464286D01*
X25428572Y-65607143D01*
X25357144Y-65821429D01*
X24500001Y-66678571D01*
X25428572Y-66678571D01*
X26071429Y-66678571D02*
X26071429Y-65678571D01*
X26071429Y-65821429D02*
X26142857Y-65750000D01*
X26285715Y-65678571D01*
X26500000Y-65678571D01*
X26642857Y-65750000D01*
X26714286Y-65892857D01*
X26714286Y-66678571D01*
X26714286Y-65892857D02*
X26785715Y-65750000D01*
X26928572Y-65678571D01*
X27142857Y-65678571D01*
X27285715Y-65750000D01*
X27357143Y-65892857D01*
X27357143Y-66678571D01*
X28071429Y-66678571D02*
X28071429Y-65678571D01*
X28071429Y-65821429D02*
X28142857Y-65750000D01*
X28285715Y-65678571D01*
X28500000Y-65678571D01*
X28642857Y-65750000D01*
X28714286Y-65892857D01*
X28714286Y-66678571D01*
X28714286Y-65892857D02*
X28785715Y-65750000D01*
X28928572Y-65678571D01*
X29142857Y-65678571D01*
X29285715Y-65750000D01*
X29357143Y-65892857D01*
X29357143Y-66678571D01*
X30000000Y-66000000D02*
X32000000Y-66000000D01*
X30000000Y-32000000D02*
X30000000Y-68700000D01*
X32000000Y-32000000D02*
X32000000Y-68700000D01*
X32000000Y-66000000D02*
X30873496Y-66586421D01*
X32000000Y-66000000D02*
X30873496Y-65413579D01*
X30000000Y-66000000D02*
X31126504Y-66586421D01*
X30000000Y-66000000D02*
X31126504Y-65413579D01*
X61785715Y-21828571D02*
X62785715Y-21828571D01*
X62142858Y-23328571D01*
X63642857Y-21828571D02*
X63785714Y-21828571D01*
X63928571Y-21900000D01*
X64000000Y-21971429D01*
X64071429Y-22114286D01*
X64142857Y-22400000D01*
X64142857Y-22757143D01*
X64071429Y-23042857D01*
X64000000Y-23185714D01*
X63928571Y-23257143D01*
X63785714Y-23328571D01*
X63642857Y-23328571D01*
X63500000Y-23257143D01*
X63428571Y-23185714D01*
X63357143Y-23042857D01*
X63285714Y-22757143D01*
X63285714Y-22400000D01*
X63357143Y-22114286D01*
X63428571Y-21971429D01*
X63500000Y-21900000D01*
X63642857Y-21828571D01*
X64785714Y-23328571D02*
X64785714Y-22328571D01*
X64785714Y-22471429D02*
X64857142Y-22400000D01*
X65000000Y-22328571D01*
X65214285Y-22328571D01*
X65357142Y-22400000D01*
X65428571Y-22542857D01*
X65428571Y-23328571D01*
X65428571Y-22542857D02*
X65500000Y-22400000D01*
X65642857Y-22328571D01*
X65857142Y-22328571D01*
X66000000Y-22400000D01*
X66071428Y-22542857D01*
X66071428Y-23328571D01*
X66785714Y-23328571D02*
X66785714Y-22328571D01*
X66785714Y-22471429D02*
X66857142Y-22400000D01*
X67000000Y-22328571D01*
X67214285Y-22328571D01*
X67357142Y-22400000D01*
X67428571Y-22542857D01*
X67428571Y-23328571D01*
X67428571Y-22542857D02*
X67500000Y-22400000D01*
X67642857Y-22328571D01*
X67857142Y-22328571D01*
X68000000Y-22400000D01*
X68071428Y-22542857D01*
X68071428Y-23328571D01*
X30000000Y-24000000D02*
X100000000Y-24000000D01*
X30000000Y-29000000D02*
X30000000Y-21300000D01*
X100000000Y-29000000D02*
X100000000Y-21300000D01*
X100000000Y-24000000D02*
X98873496Y-24586421D01*
X100000000Y-24000000D02*
X98873496Y-23413579D01*
X30000000Y-24000000D02*
X31126504Y-24586421D01*
X30000000Y-24000000D02*
X31126504Y-23413579D01*
D10*
X30000000Y-60000000D02*
X30000000Y-32000000D01*
X98000000Y-60000000D02*
X30000000Y-60000000D01*
X32000000Y-30000000D02*
X98000000Y-30000000D01*
M02*
