G04 #@! TF.FileFunction,Soldermask,Bot*
%FSLAX46Y46*%
G04 Gerber Fmt 4.6, Leading zero omitted, Abs format (unit mm)*
G04 Created by KiCad (PCBNEW 0.201411181401+5290~19~ubuntu14.10.1-product) date Monday 01 December 2014 11:46:39 PM IST*
%MOMM*%
G01*
G04 APERTURE LIST*
%ADD10C,0.100000*%
%ADD11C,1.778000*%
%ADD12R,1.778000X1.778000*%
%ADD13R,1.500000X1.300000*%
%ADD14C,3.048000*%
%ADD15R,4.572000X3.048000*%
%ADD16O,4.572000X3.048000*%
%ADD17O,3.048000X4.572000*%
%ADD18C,1.524000*%
%ADD19R,1.524000X1.524000*%
%ADD20O,1.727200X2.032000*%
%ADD21R,1.727200X2.032000*%
%ADD22C,1.676400*%
%ADD23R,1.676400X1.676400*%
%ADD24R,1.500000X1.250000*%
%ADD25R,1.250000X1.500000*%
%ADD26O,1.574800X2.286000*%
%ADD27R,1.574800X2.286000*%
%ADD28R,0.406400X1.371600*%
%ADD29R,1.600200X1.422400*%
%ADD30R,1.905000X1.905000*%
%ADD31C,1.905000*%
%ADD32C,1.501140*%
%ADD33R,1.501140X1.501140*%
%ADD34C,1.998980*%
%ADD35R,1.998980X1.998980*%
G04 APERTURE END LIST*
D10*
X110000000Y-46000000D02*
X110000000Y-58000000D01*
X100000000Y-46000000D02*
X110000000Y-46000000D01*
X100000000Y-58000000D02*
X100000000Y-46000000D01*
X110000000Y-44000000D02*
X110000000Y-32000000D01*
X100000000Y-44000000D02*
X110000000Y-44000000D01*
X100000000Y-32000000D02*
X100000000Y-44000000D01*
X123000000Y-30000000D02*
X112000000Y-30000000D01*
X125000000Y-58000000D02*
X125000000Y-32000000D01*
X112000000Y-60000000D02*
X123000000Y-60000000D01*
X123000000Y-60000000D02*
G75*
G03X125000000Y-58000000I0J2000000D01*
G01*
X110000000Y-58000000D02*
G75*
G03X112000000Y-60000000I2000000J0D01*
G01*
X125000000Y-32000000D02*
G75*
G03X123000000Y-30000000I-2000000J0D01*
G01*
X112000000Y-30000000D02*
G75*
G03X110000000Y-32000000I0J-2000000D01*
G01*
X100000000Y-32000000D02*
G75*
G03X98000000Y-30000000I-2000000J0D01*
G01*
X98000000Y-60000000D02*
G75*
G03X100000000Y-58000000I0J2000000D01*
G01*
X32000000Y-30000000D02*
G75*
G03X30000000Y-32000000I0J-2000000D01*
G01*
X30000000Y-60000000D02*
X30000000Y-32000000D01*
X98000000Y-60000000D02*
X30000000Y-60000000D01*
X32000000Y-30000000D02*
X98000000Y-30000000D01*
D11*
X35960000Y-33000000D03*
D12*
X38500000Y-33000000D03*
D11*
X41040000Y-33000000D03*
D12*
X98250000Y-32000000D03*
D11*
X91750000Y-36500000D03*
X98250000Y-36500000D03*
D12*
X91750000Y-32000000D03*
D13*
X54350000Y-53700000D03*
X51650000Y-53700000D03*
X45850000Y-53700000D03*
X48550000Y-53700000D03*
X81750000Y-46000000D03*
X84450000Y-46000000D03*
D14*
X98000000Y-58000000D03*
X42500000Y-55000000D03*
D15*
X34400000Y-52000000D03*
D16*
X34400000Y-45904000D03*
D17*
X39480000Y-48825000D03*
D18*
X47780000Y-37950000D03*
X47780000Y-35410000D03*
X50320000Y-37950000D03*
X50320000Y-35410000D03*
X52860000Y-37950000D03*
D19*
X52860000Y-35410000D03*
D20*
X65560000Y-31600000D03*
X63020000Y-31600000D03*
X60480000Y-31600000D03*
X57940000Y-31600000D03*
X55400000Y-31600000D03*
X52860000Y-31600000D03*
D21*
X50320000Y-31600000D03*
D20*
X47780000Y-31600000D03*
X88420000Y-31600000D03*
X85880000Y-31600000D03*
X83340000Y-31600000D03*
X80800000Y-31600000D03*
X78260000Y-31600000D03*
X75720000Y-31600000D03*
X73180000Y-31600000D03*
X70640000Y-31600000D03*
X88420000Y-57000000D03*
X85880000Y-57000000D03*
X83340000Y-57000000D03*
X80800000Y-57000000D03*
X78260000Y-57000000D03*
X75720000Y-57000000D03*
X70640000Y-57000000D03*
X68100000Y-57000000D03*
X65560000Y-57000000D03*
D21*
X63020000Y-57000000D03*
X60480000Y-57000000D03*
D20*
X57940000Y-57000000D03*
D18*
X45240000Y-31600000D03*
X45240000Y-34140000D03*
X45240000Y-36680000D03*
D22*
X51700000Y-56230000D03*
D23*
X51700000Y-58770000D03*
D22*
X47200000Y-56230000D03*
D23*
X47200000Y-58770000D03*
D24*
X60550000Y-46800000D03*
X58050000Y-46800000D03*
X64250000Y-46800000D03*
X66750000Y-46800000D03*
X88050000Y-46000000D03*
X90550000Y-46000000D03*
X70750000Y-46800000D03*
X73250000Y-46800000D03*
D25*
X39000000Y-38500000D03*
X39000000Y-36000000D03*
X36000000Y-36000000D03*
X36000000Y-38500000D03*
D24*
X64250000Y-53700000D03*
X66750000Y-53700000D03*
D26*
X82970000Y-42990000D03*
X80430000Y-42990000D03*
X77890000Y-42990000D03*
X75350000Y-42990000D03*
X72810000Y-42990000D03*
X70270000Y-42990000D03*
D27*
X67730000Y-42990000D03*
D26*
X65190000Y-42990000D03*
X62650000Y-42990000D03*
X60110000Y-42990000D03*
X57570000Y-42990000D03*
X55030000Y-42990000D03*
X52490000Y-42990000D03*
X85510000Y-42990000D03*
X52490000Y-50610000D03*
X55030000Y-50610000D03*
X57570000Y-50610000D03*
X60110000Y-50610000D03*
X62650000Y-50610000D03*
X65190000Y-50610000D03*
X67730000Y-50610000D03*
D27*
X70270000Y-50610000D03*
D26*
X72810000Y-50610000D03*
X75350000Y-50610000D03*
X77890000Y-50610000D03*
X80430000Y-50610000D03*
X82970000Y-50610000D03*
X85510000Y-50610000D03*
D19*
X98000000Y-53350000D03*
X98000000Y-50810000D03*
D18*
X98000000Y-48270000D03*
X98000000Y-45730000D03*
X98000000Y-43190000D03*
X98000000Y-40650000D03*
D28*
X34400000Y-55800000D03*
X33749760Y-55800000D03*
X33099520Y-55800000D03*
X35050240Y-55800000D03*
X35700480Y-55800000D03*
D29*
X37575000Y-56054000D03*
X31225000Y-56054000D03*
D30*
X35606500Y-58467000D03*
X33193500Y-58467000D03*
D31*
X37702000Y-58467000D03*
X31098000Y-58467000D03*
D32*
X64240940Y-36100000D03*
X59359060Y-36100000D03*
D33*
X61800000Y-36100000D03*
D34*
X41500000Y-44750000D03*
D35*
X41500000Y-40940000D03*
D14*
X32000000Y-32000000D03*
X87500000Y-35000000D03*
D18*
X70060000Y-36000000D03*
X72600000Y-36000000D03*
X75140000Y-36000000D03*
D33*
X33800000Y-38760000D03*
D32*
X33800000Y-41300000D03*
D22*
X117500000Y-37730000D03*
X117500000Y-40270000D03*
D19*
X111150000Y-54000000D03*
X113690000Y-54000000D03*
D18*
X116230000Y-54000000D03*
X118770000Y-54000000D03*
X121310000Y-54000000D03*
X123850000Y-54000000D03*
D31*
X120802000Y-31583000D03*
X114198000Y-31583000D03*
D14*
X123000000Y-58000000D03*
X112000000Y-58000000D03*
D19*
X43000000Y-50520000D03*
D18*
X43000000Y-47980000D03*
M02*
