%FSLAX45Y45*%
G04 Gerber Fmt 4.5, Leading zero omitted, Abs format (unit mm)*
G04 Created by KiCad (PCBNEW (2014-11-14 BZR 5284)-product) date Mon Dec  1 17:56:27 2014*
%MOMM*%
G01*
G04 APERTURE LIST*
%ADD10C,0.127000*%
%ADD11C,0.100000*%
%ADD12C,0.200000*%
%ADD13C,0.300000*%
G04 APERTURE END LIST*
D10*
D11*
X11000000Y-4600000D02*
X11000000Y-5800000D01*
X10000000Y-4600000D02*
X11000000Y-4600000D01*
X10000000Y-5800000D02*
X10000000Y-4600000D01*
X11000000Y-4400000D02*
X11000000Y-3200000D01*
X10000000Y-4400000D02*
X11000000Y-4400000D01*
X10000000Y-3200000D02*
X10000000Y-4400000D01*
X12300000Y-3000000D02*
X11200000Y-3000000D01*
X12500000Y-5800000D02*
X12500000Y-3200000D01*
X11200000Y-6000000D02*
X12300000Y-6000000D01*
X12300000Y-6000000D02*
G75*
G03X12500000Y-5800000I0J200000D01*
G01*
X11000000Y-5800000D02*
G75*
G03X11200000Y-6000000I200000J0D01*
G01*
X12500000Y-3200000D02*
G75*
G03X12300000Y-3000000I-200000J0D01*
G01*
X11200000Y-3000000D02*
G75*
G03X11000000Y-3200000I0J-200000D01*
G01*
X10000000Y-3200000D02*
G75*
G03X9800000Y-3000000I-200000J0D01*
G01*
X9800000Y-6000000D02*
G75*
G03X10000000Y-5800000I0J200000D01*
G01*
X3200000Y-3000000D02*
G75*
G03X3000000Y-3200000I0J-200000D01*
G01*
X3000000Y-6000000D02*
X3000000Y-3200000D01*
X9800000Y-6000000D02*
X3000000Y-6000000D01*
X3200000Y-3000000D02*
X9800000Y-3000000D01*
D12*
X11618250Y-4193250D02*
X11681750Y-4256750D01*
X11681750Y-4193250D02*
X11618250Y-4256750D01*
X11868250Y-4193250D02*
X11931750Y-4256750D01*
X11931750Y-4193250D02*
X11868250Y-4256750D01*
X12068250Y-4193250D02*
X12131750Y-4256750D01*
X12131750Y-4193250D02*
X12068250Y-4256750D01*
X12268250Y-3743250D02*
X12331750Y-3806750D01*
X12331750Y-3743250D02*
X12268250Y-3806750D01*
X3420640Y-3876000D02*
G75*
G03X3420640Y-3876000I-40640J0D01*
G01*
X3420640Y-4130000D02*
G75*
G03X3420640Y-4130000I-40640J0D01*
G01*
X4760640Y-5623000D02*
G75*
G03X4760640Y-5623000I-40640J0D01*
G01*
X4760640Y-5877000D02*
G75*
G03X4760640Y-5877000I-40640J0D01*
G01*
X5210640Y-5623000D02*
G75*
G03X5210640Y-5623000I-40640J0D01*
G01*
X5210640Y-5877000D02*
G75*
G03X5210640Y-5877000I-40640J0D01*
G01*
X5289640Y-4299000D02*
G75*
G03X5289640Y-4299000I-40640J0D01*
G01*
X5289640Y-5061000D02*
G75*
G03X5289640Y-5061000I-40640J0D01*
G01*
X5543640Y-4299000D02*
G75*
G03X5543640Y-4299000I-40640J0D01*
G01*
X5543640Y-5061000D02*
G75*
G03X5543640Y-5061000I-40640J0D01*
G01*
X5797640Y-4299000D02*
G75*
G03X5797640Y-4299000I-40640J0D01*
G01*
X5797640Y-5061000D02*
G75*
G03X5797640Y-5061000I-40640J0D01*
G01*
X5976546Y-3610000D02*
G75*
G03X5976546Y-3610000I-40640J0D01*
G01*
X6051640Y-4299000D02*
G75*
G03X6051640Y-4299000I-40640J0D01*
G01*
X6051640Y-5061000D02*
G75*
G03X6051640Y-5061000I-40640J0D01*
G01*
X6220640Y-3610000D02*
G75*
G03X6220640Y-3610000I-40640J0D01*
G01*
X6305640Y-4299000D02*
G75*
G03X6305640Y-4299000I-40640J0D01*
G01*
X6305640Y-5061000D02*
G75*
G03X6305640Y-5061000I-40640J0D01*
G01*
X6464734Y-3610000D02*
G75*
G03X6464734Y-3610000I-40640J0D01*
G01*
X6559640Y-4299000D02*
G75*
G03X6559640Y-4299000I-40640J0D01*
G01*
X6559640Y-5061000D02*
G75*
G03X6559640Y-5061000I-40640J0D01*
G01*
X6813640Y-4299000D02*
G75*
G03X6813640Y-4299000I-40640J0D01*
G01*
X6813640Y-5061000D02*
G75*
G03X6813640Y-5061000I-40640J0D01*
G01*
X7067640Y-4299000D02*
G75*
G03X7067640Y-4299000I-40640J0D01*
G01*
X7067640Y-5061000D02*
G75*
G03X7067640Y-5061000I-40640J0D01*
G01*
X7321640Y-4299000D02*
G75*
G03X7321640Y-4299000I-40640J0D01*
G01*
X7321640Y-5061000D02*
G75*
G03X7321640Y-5061000I-40640J0D01*
G01*
X7575640Y-4299000D02*
G75*
G03X7575640Y-4299000I-40640J0D01*
G01*
X7575640Y-5061000D02*
G75*
G03X7575640Y-5061000I-40640J0D01*
G01*
X7829640Y-4299000D02*
G75*
G03X7829640Y-4299000I-40640J0D01*
G01*
X7829640Y-5061000D02*
G75*
G03X7829640Y-5061000I-40640J0D01*
G01*
X8083640Y-4299000D02*
G75*
G03X8083640Y-4299000I-40640J0D01*
G01*
X8083640Y-5061000D02*
G75*
G03X8083640Y-5061000I-40640J0D01*
G01*
X8337640Y-4299000D02*
G75*
G03X8337640Y-4299000I-40640J0D01*
G01*
X8337640Y-5061000D02*
G75*
G03X8337640Y-5061000I-40640J0D01*
G01*
X8591640Y-4299000D02*
G75*
G03X8591640Y-4299000I-40640J0D01*
G01*
X8591640Y-5061000D02*
G75*
G03X8591640Y-5061000I-40640J0D01*
G01*
X11790640Y-3773000D02*
G75*
G03X11790640Y-3773000I-40640J0D01*
G01*
X11790640Y-4027000D02*
G75*
G03X11790640Y-4027000I-40640J0D01*
G01*
X4300000Y-4747200D02*
X4300000Y-4848800D01*
X4249200Y-4798000D02*
X4350800Y-4798000D01*
X4300000Y-5001200D02*
X4300000Y-5102800D01*
X4249200Y-5052000D02*
X4350800Y-5052000D01*
X4500000Y-3120200D02*
X4500000Y-3221800D01*
X4449200Y-3171000D02*
X4550800Y-3171000D01*
X4500000Y-3374200D02*
X4500000Y-3475800D01*
X4449200Y-3425000D02*
X4550800Y-3425000D01*
X4500000Y-3628200D02*
X4500000Y-3729800D01*
X4449200Y-3679000D02*
X4550800Y-3679000D01*
X4811000Y-3109200D02*
X4811000Y-3210800D01*
X4760200Y-3160000D02*
X4861800Y-3160000D01*
X4816000Y-3432200D02*
X4816000Y-3533800D01*
X4765200Y-3483000D02*
X4866800Y-3483000D01*
X4816000Y-3686200D02*
X4816000Y-3787800D01*
X4765200Y-3737000D02*
X4866800Y-3737000D01*
X5065000Y-3109200D02*
X5065000Y-3210800D01*
X5014200Y-3160000D02*
X5115800Y-3160000D01*
X5070000Y-3432200D02*
X5070000Y-3533800D01*
X5019200Y-3483000D02*
X5120800Y-3483000D01*
X5070000Y-3686200D02*
X5070000Y-3787800D01*
X5019200Y-3737000D02*
X5120800Y-3737000D01*
X5319000Y-3109200D02*
X5319000Y-3210800D01*
X5268200Y-3160000D02*
X5369800Y-3160000D01*
X5324000Y-3432200D02*
X5324000Y-3533800D01*
X5273200Y-3483000D02*
X5374800Y-3483000D01*
X5324000Y-3686200D02*
X5324000Y-3787800D01*
X5273200Y-3737000D02*
X5374800Y-3737000D01*
X5573000Y-3109200D02*
X5573000Y-3210800D01*
X5522200Y-3160000D02*
X5623800Y-3160000D01*
X5827000Y-3109200D02*
X5827000Y-3210800D01*
X5776200Y-3160000D02*
X5877800Y-3160000D01*
X5831000Y-5649200D02*
X5831000Y-5750800D01*
X5780200Y-5700000D02*
X5881800Y-5700000D01*
X6081000Y-3109200D02*
X6081000Y-3210800D01*
X6030200Y-3160000D02*
X6131800Y-3160000D01*
X6085000Y-5649200D02*
X6085000Y-5750800D01*
X6034200Y-5700000D02*
X6135800Y-5700000D01*
X6335000Y-3109200D02*
X6335000Y-3210800D01*
X6284200Y-3160000D02*
X6385800Y-3160000D01*
X6339000Y-5649200D02*
X6339000Y-5750800D01*
X6288200Y-5700000D02*
X6389800Y-5700000D01*
X6589000Y-3109200D02*
X6589000Y-3210800D01*
X6538200Y-3160000D02*
X6639800Y-3160000D01*
X6593000Y-5649200D02*
X6593000Y-5750800D01*
X6542200Y-5700000D02*
X6643800Y-5700000D01*
X6847000Y-5649200D02*
X6847000Y-5750800D01*
X6796200Y-5700000D02*
X6897800Y-5700000D01*
X7006000Y-3549200D02*
X7006000Y-3650800D01*
X6955200Y-3600000D02*
X7056800Y-3600000D01*
X7101000Y-3109200D02*
X7101000Y-3210800D01*
X7050200Y-3160000D02*
X7151800Y-3160000D01*
X7101000Y-5649200D02*
X7101000Y-5750800D01*
X7050200Y-5700000D02*
X7151800Y-5700000D01*
X7260000Y-3549200D02*
X7260000Y-3650800D01*
X7209200Y-3600000D02*
X7310800Y-3600000D01*
X7355000Y-3109200D02*
X7355000Y-3210800D01*
X7304200Y-3160000D02*
X7405800Y-3160000D01*
X7514000Y-3549200D02*
X7514000Y-3650800D01*
X7463200Y-3600000D02*
X7564800Y-3600000D01*
X7609000Y-3109200D02*
X7609000Y-3210800D01*
X7558200Y-3160000D02*
X7659800Y-3160000D01*
X7609000Y-5649200D02*
X7609000Y-5750800D01*
X7558200Y-5700000D02*
X7659800Y-5700000D01*
X7863000Y-3109200D02*
X7863000Y-3210800D01*
X7812200Y-3160000D02*
X7913800Y-3160000D01*
X7863000Y-5649200D02*
X7863000Y-5750800D01*
X7812200Y-5700000D02*
X7913800Y-5700000D01*
X8117000Y-3109200D02*
X8117000Y-3210800D01*
X8066200Y-3160000D02*
X8167800Y-3160000D01*
X8117000Y-5649200D02*
X8117000Y-5750800D01*
X8066200Y-5700000D02*
X8167800Y-5700000D01*
X8371000Y-3109200D02*
X8371000Y-3210800D01*
X8320200Y-3160000D02*
X8421800Y-3160000D01*
X8371000Y-5649200D02*
X8371000Y-5750800D01*
X8320200Y-5700000D02*
X8421800Y-5700000D01*
X8625000Y-3109200D02*
X8625000Y-3210800D01*
X8574200Y-3160000D02*
X8675800Y-3160000D01*
X8625000Y-5649200D02*
X8625000Y-5750800D01*
X8574200Y-5700000D02*
X8675800Y-5700000D01*
X8879000Y-3109200D02*
X8879000Y-3210800D01*
X8828200Y-3160000D02*
X8929800Y-3160000D01*
X8879000Y-5649200D02*
X8879000Y-5750800D01*
X8828200Y-5700000D02*
X8929800Y-5700000D01*
X9175000Y-3149200D02*
X9175000Y-3250800D01*
X9124200Y-3200000D02*
X9225800Y-3200000D01*
X9175000Y-3599200D02*
X9175000Y-3700800D01*
X9124200Y-3650000D02*
X9225800Y-3650000D01*
X9800000Y-4014200D02*
X9800000Y-4115800D01*
X9749200Y-4065000D02*
X9850800Y-4065000D01*
X9800000Y-4268200D02*
X9800000Y-4369800D01*
X9749200Y-4319000D02*
X9850800Y-4319000D01*
X9800000Y-4522200D02*
X9800000Y-4623800D01*
X9749200Y-4573000D02*
X9850800Y-4573000D01*
X9800000Y-4776200D02*
X9800000Y-4877800D01*
X9749200Y-4827000D02*
X9850800Y-4827000D01*
X9800000Y-5030200D02*
X9800000Y-5131800D01*
X9749200Y-5081000D02*
X9850800Y-5081000D01*
X9800000Y-5284200D02*
X9800000Y-5385800D01*
X9749200Y-5335000D02*
X9850800Y-5335000D01*
X9825000Y-3149200D02*
X9825000Y-3250800D01*
X9774200Y-3200000D02*
X9875800Y-3200000D01*
X9825000Y-3599200D02*
X9825000Y-3700800D01*
X9774200Y-3650000D02*
X9875800Y-3650000D01*
X11115000Y-5349200D02*
X11115000Y-5450800D01*
X11064200Y-5400000D02*
X11165800Y-5400000D01*
X11369000Y-5349200D02*
X11369000Y-5450800D01*
X11318200Y-5400000D02*
X11419800Y-5400000D01*
X11623000Y-5349200D02*
X11623000Y-5450800D01*
X11572200Y-5400000D02*
X11673800Y-5400000D01*
X11877000Y-5349200D02*
X11877000Y-5450800D01*
X11826200Y-5400000D02*
X11927800Y-5400000D01*
X12131000Y-5349200D02*
X12131000Y-5450800D01*
X12080200Y-5400000D02*
X12181800Y-5400000D01*
X12385000Y-5349200D02*
X12385000Y-5450800D01*
X12334200Y-5400000D02*
X12435800Y-5400000D01*
X3636411Y-3340411D02*
X3636411Y-3259588D01*
X3555588Y-3259588D01*
X3555588Y-3340411D01*
X3636411Y-3340411D01*
X3890411Y-3340411D02*
X3890411Y-3259588D01*
X3809588Y-3259588D01*
X3809588Y-3340411D01*
X3890411Y-3340411D01*
X4144411Y-3340411D02*
X4144411Y-3259588D01*
X4063588Y-3259588D01*
X4063588Y-3340411D01*
X4144411Y-3340411D01*
X3440000Y-4648820D02*
X3498420Y-4590400D01*
X3440000Y-4531980D01*
X3381580Y-4590400D01*
X3440000Y-4648820D01*
X3295220Y-4638820D02*
X3584780Y-4638820D01*
X3295220Y-4541980D02*
X3584780Y-4541980D01*
X3584780Y-4638820D02*
G75*
G03X3584780Y-4541980I0J48420D01*
G01*
X3295220Y-4541980D02*
G75*
G03X3295220Y-4638820I0J-48420D01*
G01*
X3440000Y-5258420D02*
X3498420Y-5200000D01*
X3440000Y-5141580D01*
X3381580Y-5200000D01*
X3440000Y-5258420D01*
X3320620Y-5248420D02*
X3559380Y-5248420D01*
X3320620Y-5151580D02*
X3559380Y-5151580D01*
X3559380Y-5248420D02*
G75*
G03X3559380Y-5151580I0J48420D01*
G01*
X3320620Y-5151580D02*
G75*
G03X3320620Y-5248420I0J-48420D01*
G01*
X3948000Y-4940920D02*
X4006420Y-4882500D01*
X3948000Y-4824080D01*
X3889580Y-4882500D01*
X3948000Y-4940920D01*
X3996420Y-5001880D02*
X3996420Y-4763120D01*
X3899580Y-5001880D02*
X3899580Y-4763120D01*
X3996420Y-4763120D02*
G75*
G03X3899580Y-4763120I-48420J0D01*
G01*
X3899580Y-5001880D02*
G75*
G03X3996420Y-5001880I48420J0D01*
G01*
X3046300Y-5783200D02*
X3173300Y-5910200D01*
X3173300Y-5783200D02*
X3046300Y-5910200D01*
X3173300Y-5846700D02*
G75*
G03X3173300Y-5846700I-63500J0D01*
G01*
X3706700Y-5783200D02*
X3833700Y-5910200D01*
X3833700Y-5783200D02*
X3706700Y-5910200D01*
X3833700Y-5846700D02*
G75*
G03X3833700Y-5846700I-63500J0D01*
G01*
X4086500Y-4030500D02*
X4213500Y-4157500D01*
X4213500Y-4030500D02*
X4086500Y-4157500D01*
X4213500Y-4094000D02*
G75*
G03X4213500Y-4094000I-63500J0D01*
G01*
X4086500Y-4411500D02*
X4213500Y-4538500D01*
X4213500Y-4411500D02*
X4086500Y-4538500D01*
X4213500Y-4475000D02*
G75*
G03X4213500Y-4475000I-63500J0D01*
G01*
X11356300Y-3094800D02*
X11483300Y-3221800D01*
X11483300Y-3094800D02*
X11356300Y-3221800D01*
X11483300Y-3158300D02*
G75*
G03X11483300Y-3158300I-63500J0D01*
G01*
X12016700Y-3094800D02*
X12143700Y-3221800D01*
X12143700Y-3094800D02*
X12016700Y-3221800D01*
X12143700Y-3158300D02*
G75*
G03X12143700Y-3158300I-63500J0D01*
G01*
X3073000Y-3073000D02*
X3327000Y-3327000D01*
X3327000Y-3073000D02*
X3073000Y-3327000D01*
X3200000Y-3073000D02*
X3200000Y-3327000D01*
X3073000Y-3200000D02*
X3327000Y-3200000D01*
X4123000Y-5373000D02*
X4377000Y-5627000D01*
X4377000Y-5373000D02*
X4123000Y-5627000D01*
X4250000Y-5373000D02*
X4250000Y-5627000D01*
X4123000Y-5500000D02*
X4377000Y-5500000D01*
X8623000Y-3373000D02*
X8877000Y-3627000D01*
X8877000Y-3373000D02*
X8623000Y-3627000D01*
X8750000Y-3373000D02*
X8750000Y-3627000D01*
X8623000Y-3500000D02*
X8877000Y-3500000D01*
X9673000Y-5673000D02*
X9927000Y-5927000D01*
X9927000Y-5673000D02*
X9673000Y-5927000D01*
X9800000Y-5673000D02*
X9800000Y-5927000D01*
X9673000Y-5800000D02*
X9927000Y-5800000D01*
X11073000Y-5673000D02*
X11327000Y-5927000D01*
X11327000Y-5673000D02*
X11073000Y-5927000D01*
X11200000Y-5673000D02*
X11200000Y-5927000D01*
X11073000Y-5800000D02*
X11327000Y-5800000D01*
X12173000Y-5673000D02*
X12427000Y-5927000D01*
X12427000Y-5673000D02*
X12173000Y-5927000D01*
X12300000Y-5673000D02*
X12300000Y-5927000D01*
X12173000Y-5800000D02*
X12427000Y-5800000D01*
D13*
X3266428Y-6470714D02*
X3266428Y-6170714D01*
X3337857Y-6170714D01*
X3380714Y-6185000D01*
X3409286Y-6213571D01*
X3423571Y-6242143D01*
X3437857Y-6299286D01*
X3437857Y-6342143D01*
X3423571Y-6399286D01*
X3409286Y-6427857D01*
X3380714Y-6456429D01*
X3337857Y-6470714D01*
X3266428Y-6470714D01*
X3566428Y-6470714D02*
X3566428Y-6270714D01*
X3566428Y-6327857D02*
X3580714Y-6299286D01*
X3595000Y-6285000D01*
X3623571Y-6270714D01*
X3652143Y-6270714D01*
X3752143Y-6470714D02*
X3752143Y-6270714D01*
X3752143Y-6170714D02*
X3737857Y-6185000D01*
X3752143Y-6199286D01*
X3766428Y-6185000D01*
X3752143Y-6170714D01*
X3752143Y-6199286D01*
X3937857Y-6470714D02*
X3909286Y-6456429D01*
X3895000Y-6427857D01*
X3895000Y-6170714D01*
X4095000Y-6470714D02*
X4066428Y-6456429D01*
X4052143Y-6427857D01*
X4052143Y-6170714D01*
X4437857Y-6470714D02*
X4437857Y-6170714D01*
X4537857Y-6385000D01*
X4637857Y-6170714D01*
X4637857Y-6470714D01*
X4909286Y-6470714D02*
X4909286Y-6313571D01*
X4895000Y-6285000D01*
X4866429Y-6270714D01*
X4809286Y-6270714D01*
X4780714Y-6285000D01*
X4909286Y-6456429D02*
X4880714Y-6470714D01*
X4809286Y-6470714D01*
X4780714Y-6456429D01*
X4766429Y-6427857D01*
X4766429Y-6399286D01*
X4780714Y-6370714D01*
X4809286Y-6356429D01*
X4880714Y-6356429D01*
X4909286Y-6342143D01*
X5052143Y-6270714D02*
X5052143Y-6570714D01*
X5052143Y-6285000D02*
X5080714Y-6270714D01*
X5137857Y-6270714D01*
X5166429Y-6285000D01*
X5180714Y-6299286D01*
X5195000Y-6327857D01*
X5195000Y-6413571D01*
X5180714Y-6442143D01*
X5166429Y-6456429D01*
X5137857Y-6470714D01*
X5080714Y-6470714D01*
X5052143Y-6456429D01*
X5323571Y-6442143D02*
X5337857Y-6456429D01*
X5323571Y-6470714D01*
X5309286Y-6456429D01*
X5323571Y-6442143D01*
X5323571Y-6470714D01*
X5323571Y-6285000D02*
X5337857Y-6299286D01*
X5323571Y-6313571D01*
X5309286Y-6299286D01*
X5323571Y-6285000D01*
X5323571Y-6313571D01*
X2931500Y-6933250D02*
X2995000Y-6996750D01*
X2995000Y-6933250D02*
X2931500Y-6996750D01*
X3323571Y-6800714D02*
X3352143Y-6800714D01*
X3380714Y-6815000D01*
X3395000Y-6829286D01*
X3409286Y-6857857D01*
X3423571Y-6915000D01*
X3423571Y-6986429D01*
X3409286Y-7043571D01*
X3395000Y-7072143D01*
X3380714Y-7086429D01*
X3352143Y-7100714D01*
X3323571Y-7100714D01*
X3295000Y-7086429D01*
X3280714Y-7072143D01*
X3266428Y-7043571D01*
X3252143Y-6986429D01*
X3252143Y-6915000D01*
X3266428Y-6857857D01*
X3280714Y-6829286D01*
X3295000Y-6815000D01*
X3323571Y-6800714D01*
X3552143Y-7072143D02*
X3566428Y-7086429D01*
X3552143Y-7100714D01*
X3537857Y-7086429D01*
X3552143Y-7072143D01*
X3552143Y-7100714D01*
X3823571Y-6800714D02*
X3766428Y-6800714D01*
X3737857Y-6815000D01*
X3723571Y-6829286D01*
X3695000Y-6872143D01*
X3680714Y-6929286D01*
X3680714Y-7043571D01*
X3695000Y-7072143D01*
X3709286Y-7086429D01*
X3737857Y-7100714D01*
X3795000Y-7100714D01*
X3823571Y-7086429D01*
X3837857Y-7072143D01*
X3852143Y-7043571D01*
X3852143Y-6972143D01*
X3837857Y-6943571D01*
X3823571Y-6929286D01*
X3795000Y-6915000D01*
X3737857Y-6915000D01*
X3709286Y-6929286D01*
X3695000Y-6943571D01*
X3680714Y-6972143D01*
X4109286Y-6900714D02*
X4109286Y-7100714D01*
X4037857Y-6786429D02*
X3966428Y-7000714D01*
X4152143Y-7000714D01*
X4266429Y-7100714D02*
X4266429Y-6900714D01*
X4266429Y-6929286D02*
X4280714Y-6915000D01*
X4309286Y-6900714D01*
X4352143Y-6900714D01*
X4380714Y-6915000D01*
X4395000Y-6943571D01*
X4395000Y-7100714D01*
X4395000Y-6943571D02*
X4409286Y-6915000D01*
X4437857Y-6900714D01*
X4480714Y-6900714D01*
X4509286Y-6915000D01*
X4523571Y-6943571D01*
X4523571Y-7100714D01*
X4666429Y-7100714D02*
X4666429Y-6900714D01*
X4666429Y-6929286D02*
X4680714Y-6915000D01*
X4709286Y-6900714D01*
X4752143Y-6900714D01*
X4780714Y-6915000D01*
X4795000Y-6943571D01*
X4795000Y-7100714D01*
X4795000Y-6943571D02*
X4809286Y-6915000D01*
X4837857Y-6900714D01*
X4880714Y-6900714D01*
X4909286Y-6915000D01*
X4923571Y-6943571D01*
X4923571Y-7100714D01*
X5509286Y-6786429D02*
X5252143Y-7172143D01*
X5895000Y-6800714D02*
X5923571Y-6800714D01*
X5952143Y-6815000D01*
X5966428Y-6829286D01*
X5980714Y-6857857D01*
X5995000Y-6915000D01*
X5995000Y-6986429D01*
X5980714Y-7043571D01*
X5966428Y-7072143D01*
X5952143Y-7086429D01*
X5923571Y-7100714D01*
X5895000Y-7100714D01*
X5866428Y-7086429D01*
X5852143Y-7072143D01*
X5837857Y-7043571D01*
X5823571Y-6986429D01*
X5823571Y-6915000D01*
X5837857Y-6857857D01*
X5852143Y-6829286D01*
X5866428Y-6815000D01*
X5895000Y-6800714D01*
X6123571Y-7072143D02*
X6137857Y-7086429D01*
X6123571Y-7100714D01*
X6109286Y-7086429D01*
X6123571Y-7072143D01*
X6123571Y-7100714D01*
X6323571Y-6800714D02*
X6352143Y-6800714D01*
X6380714Y-6815000D01*
X6395000Y-6829286D01*
X6409285Y-6857857D01*
X6423571Y-6915000D01*
X6423571Y-6986429D01*
X6409285Y-7043571D01*
X6395000Y-7072143D01*
X6380714Y-7086429D01*
X6352143Y-7100714D01*
X6323571Y-7100714D01*
X6295000Y-7086429D01*
X6280714Y-7072143D01*
X6266428Y-7043571D01*
X6252143Y-6986429D01*
X6252143Y-6915000D01*
X6266428Y-6857857D01*
X6280714Y-6829286D01*
X6295000Y-6815000D01*
X6323571Y-6800714D01*
X6537857Y-6829286D02*
X6552143Y-6815000D01*
X6580714Y-6800714D01*
X6652143Y-6800714D01*
X6680714Y-6815000D01*
X6695000Y-6829286D01*
X6709285Y-6857857D01*
X6709285Y-6886429D01*
X6695000Y-6929286D01*
X6523571Y-7100714D01*
X6709285Y-7100714D01*
X6980714Y-6800714D02*
X6837857Y-6800714D01*
X6823571Y-6943571D01*
X6837857Y-6929286D01*
X6866428Y-6915000D01*
X6937857Y-6915000D01*
X6966428Y-6929286D01*
X6980714Y-6943571D01*
X6995000Y-6972143D01*
X6995000Y-7043571D01*
X6980714Y-7072143D01*
X6966428Y-7086429D01*
X6937857Y-7100714D01*
X6866428Y-7100714D01*
X6837857Y-7086429D01*
X6823571Y-7072143D01*
X7109286Y-6800714D02*
X7109286Y-6857857D01*
X7223571Y-6800714D02*
X7223571Y-6857857D01*
X7666428Y-7215000D02*
X7652143Y-7200714D01*
X7623571Y-7157857D01*
X7609285Y-7129286D01*
X7595000Y-7086429D01*
X7580714Y-7015000D01*
X7580714Y-6957857D01*
X7595000Y-6886429D01*
X7609285Y-6843571D01*
X7623571Y-6815000D01*
X7652143Y-6772143D01*
X7666428Y-6757857D01*
X7909285Y-6900714D02*
X7909285Y-7100714D01*
X7837857Y-6786429D02*
X7766428Y-7000714D01*
X7952143Y-7000714D01*
X8295000Y-7100714D02*
X8295000Y-6800714D01*
X8423571Y-7100714D02*
X8423571Y-6943571D01*
X8409286Y-6915000D01*
X8380714Y-6900714D01*
X8337857Y-6900714D01*
X8309285Y-6915000D01*
X8295000Y-6929286D01*
X8609286Y-7100714D02*
X8580714Y-7086429D01*
X8566428Y-7072143D01*
X8552143Y-7043571D01*
X8552143Y-6957857D01*
X8566428Y-6929286D01*
X8580714Y-6915000D01*
X8609286Y-6900714D01*
X8652143Y-6900714D01*
X8680714Y-6915000D01*
X8695000Y-6929286D01*
X8709286Y-6957857D01*
X8709286Y-7043571D01*
X8695000Y-7072143D01*
X8680714Y-7086429D01*
X8652143Y-7100714D01*
X8609286Y-7100714D01*
X8880714Y-7100714D02*
X8852143Y-7086429D01*
X8837857Y-7057857D01*
X8837857Y-6800714D01*
X9109286Y-7086429D02*
X9080714Y-7100714D01*
X9023571Y-7100714D01*
X8995000Y-7086429D01*
X8980714Y-7057857D01*
X8980714Y-6943571D01*
X8995000Y-6915000D01*
X9023571Y-6900714D01*
X9080714Y-6900714D01*
X9109286Y-6915000D01*
X9123571Y-6943571D01*
X9123571Y-6972143D01*
X8980714Y-7000714D01*
X9237857Y-7086429D02*
X9266429Y-7100714D01*
X9323571Y-7100714D01*
X9352143Y-7086429D01*
X9366429Y-7057857D01*
X9366429Y-7043571D01*
X9352143Y-7015000D01*
X9323571Y-7000714D01*
X9280714Y-7000714D01*
X9252143Y-6986429D01*
X9237857Y-6957857D01*
X9237857Y-6943571D01*
X9252143Y-6915000D01*
X9280714Y-6900714D01*
X9323571Y-6900714D01*
X9352143Y-6915000D01*
X9466428Y-7215000D02*
X9480714Y-7200714D01*
X9509286Y-7157857D01*
X9523571Y-7129286D01*
X9537857Y-7086429D01*
X9552143Y-7015000D01*
X9552143Y-6957857D01*
X9537857Y-6886429D01*
X9523571Y-6843571D01*
X9509286Y-6815000D01*
X9480714Y-6772143D01*
X9466428Y-6757857D01*
X2995000Y-7361000D02*
G75*
G03X2995000Y-7361000I-40640J0D01*
G01*
X3323571Y-7196714D02*
X3352143Y-7196714D01*
X3380714Y-7211000D01*
X3395000Y-7225286D01*
X3409286Y-7253857D01*
X3423571Y-7311000D01*
X3423571Y-7382429D01*
X3409286Y-7439571D01*
X3395000Y-7468143D01*
X3380714Y-7482429D01*
X3352143Y-7496714D01*
X3323571Y-7496714D01*
X3295000Y-7482429D01*
X3280714Y-7468143D01*
X3266428Y-7439571D01*
X3252143Y-7382429D01*
X3252143Y-7311000D01*
X3266428Y-7253857D01*
X3280714Y-7225286D01*
X3295000Y-7211000D01*
X3323571Y-7196714D01*
X3552143Y-7468143D02*
X3566428Y-7482429D01*
X3552143Y-7496714D01*
X3537857Y-7482429D01*
X3552143Y-7468143D01*
X3552143Y-7496714D01*
X3737857Y-7325286D02*
X3709286Y-7311000D01*
X3695000Y-7296714D01*
X3680714Y-7268143D01*
X3680714Y-7253857D01*
X3695000Y-7225286D01*
X3709286Y-7211000D01*
X3737857Y-7196714D01*
X3795000Y-7196714D01*
X3823571Y-7211000D01*
X3837857Y-7225286D01*
X3852143Y-7253857D01*
X3852143Y-7268143D01*
X3837857Y-7296714D01*
X3823571Y-7311000D01*
X3795000Y-7325286D01*
X3737857Y-7325286D01*
X3709286Y-7339571D01*
X3695000Y-7353857D01*
X3680714Y-7382429D01*
X3680714Y-7439571D01*
X3695000Y-7468143D01*
X3709286Y-7482429D01*
X3737857Y-7496714D01*
X3795000Y-7496714D01*
X3823571Y-7482429D01*
X3837857Y-7468143D01*
X3852143Y-7439571D01*
X3852143Y-7382429D01*
X3837857Y-7353857D01*
X3823571Y-7339571D01*
X3795000Y-7325286D01*
X4137857Y-7496714D02*
X3966428Y-7496714D01*
X4052143Y-7496714D02*
X4052143Y-7196714D01*
X4023571Y-7239571D01*
X3995000Y-7268143D01*
X3966428Y-7282429D01*
X4266429Y-7496714D02*
X4266429Y-7296714D01*
X4266429Y-7325286D02*
X4280714Y-7311000D01*
X4309286Y-7296714D01*
X4352143Y-7296714D01*
X4380714Y-7311000D01*
X4395000Y-7339571D01*
X4395000Y-7496714D01*
X4395000Y-7339571D02*
X4409286Y-7311000D01*
X4437857Y-7296714D01*
X4480714Y-7296714D01*
X4509286Y-7311000D01*
X4523571Y-7339571D01*
X4523571Y-7496714D01*
X4666429Y-7496714D02*
X4666429Y-7296714D01*
X4666429Y-7325286D02*
X4680714Y-7311000D01*
X4709286Y-7296714D01*
X4752143Y-7296714D01*
X4780714Y-7311000D01*
X4795000Y-7339571D01*
X4795000Y-7496714D01*
X4795000Y-7339571D02*
X4809286Y-7311000D01*
X4837857Y-7296714D01*
X4880714Y-7296714D01*
X4909286Y-7311000D01*
X4923571Y-7339571D01*
X4923571Y-7496714D01*
X5509286Y-7182429D02*
X5252143Y-7568143D01*
X5895000Y-7196714D02*
X5923571Y-7196714D01*
X5952143Y-7211000D01*
X5966428Y-7225286D01*
X5980714Y-7253857D01*
X5995000Y-7311000D01*
X5995000Y-7382429D01*
X5980714Y-7439571D01*
X5966428Y-7468143D01*
X5952143Y-7482429D01*
X5923571Y-7496714D01*
X5895000Y-7496714D01*
X5866428Y-7482429D01*
X5852143Y-7468143D01*
X5837857Y-7439571D01*
X5823571Y-7382429D01*
X5823571Y-7311000D01*
X5837857Y-7253857D01*
X5852143Y-7225286D01*
X5866428Y-7211000D01*
X5895000Y-7196714D01*
X6123571Y-7468143D02*
X6137857Y-7482429D01*
X6123571Y-7496714D01*
X6109286Y-7482429D01*
X6123571Y-7468143D01*
X6123571Y-7496714D01*
X6323571Y-7196714D02*
X6352143Y-7196714D01*
X6380714Y-7211000D01*
X6395000Y-7225286D01*
X6409285Y-7253857D01*
X6423571Y-7311000D01*
X6423571Y-7382429D01*
X6409285Y-7439571D01*
X6395000Y-7468143D01*
X6380714Y-7482429D01*
X6352143Y-7496714D01*
X6323571Y-7496714D01*
X6295000Y-7482429D01*
X6280714Y-7468143D01*
X6266428Y-7439571D01*
X6252143Y-7382429D01*
X6252143Y-7311000D01*
X6266428Y-7253857D01*
X6280714Y-7225286D01*
X6295000Y-7211000D01*
X6323571Y-7196714D01*
X6523571Y-7196714D02*
X6709285Y-7196714D01*
X6609285Y-7311000D01*
X6652143Y-7311000D01*
X6680714Y-7325286D01*
X6695000Y-7339571D01*
X6709285Y-7368143D01*
X6709285Y-7439571D01*
X6695000Y-7468143D01*
X6680714Y-7482429D01*
X6652143Y-7496714D01*
X6566428Y-7496714D01*
X6537857Y-7482429D01*
X6523571Y-7468143D01*
X6823571Y-7225286D02*
X6837857Y-7211000D01*
X6866428Y-7196714D01*
X6937857Y-7196714D01*
X6966428Y-7211000D01*
X6980714Y-7225286D01*
X6995000Y-7253857D01*
X6995000Y-7282429D01*
X6980714Y-7325286D01*
X6809285Y-7496714D01*
X6995000Y-7496714D01*
X7109286Y-7196714D02*
X7109286Y-7253857D01*
X7223571Y-7196714D02*
X7223571Y-7253857D01*
X7666428Y-7611000D02*
X7652143Y-7596714D01*
X7623571Y-7553857D01*
X7609285Y-7525286D01*
X7595000Y-7482429D01*
X7580714Y-7411000D01*
X7580714Y-7353857D01*
X7595000Y-7282429D01*
X7609285Y-7239571D01*
X7623571Y-7211000D01*
X7652143Y-7168143D01*
X7666428Y-7153857D01*
X7752143Y-7196714D02*
X7937857Y-7196714D01*
X7837857Y-7311000D01*
X7880714Y-7311000D01*
X7909285Y-7325286D01*
X7923571Y-7339571D01*
X7937857Y-7368143D01*
X7937857Y-7439571D01*
X7923571Y-7468143D01*
X7909285Y-7482429D01*
X7880714Y-7496714D01*
X7795000Y-7496714D01*
X7766428Y-7482429D01*
X7752143Y-7468143D01*
X8080714Y-7496714D02*
X8137857Y-7496714D01*
X8166428Y-7482429D01*
X8180714Y-7468143D01*
X8209285Y-7425286D01*
X8223571Y-7368143D01*
X8223571Y-7253857D01*
X8209285Y-7225286D01*
X8195000Y-7211000D01*
X8166428Y-7196714D01*
X8109285Y-7196714D01*
X8080714Y-7211000D01*
X8066428Y-7225286D01*
X8052143Y-7253857D01*
X8052143Y-7325286D01*
X8066428Y-7353857D01*
X8080714Y-7368143D01*
X8109285Y-7382429D01*
X8166428Y-7382429D01*
X8195000Y-7368143D01*
X8209285Y-7353857D01*
X8223571Y-7325286D01*
X8580714Y-7496714D02*
X8580714Y-7196714D01*
X8709286Y-7496714D02*
X8709286Y-7339571D01*
X8695000Y-7311000D01*
X8666428Y-7296714D01*
X8623571Y-7296714D01*
X8595000Y-7311000D01*
X8580714Y-7325286D01*
X8895000Y-7496714D02*
X8866428Y-7482429D01*
X8852143Y-7468143D01*
X8837857Y-7439571D01*
X8837857Y-7353857D01*
X8852143Y-7325286D01*
X8866428Y-7311000D01*
X8895000Y-7296714D01*
X8937857Y-7296714D01*
X8966428Y-7311000D01*
X8980714Y-7325286D01*
X8995000Y-7353857D01*
X8995000Y-7439571D01*
X8980714Y-7468143D01*
X8966428Y-7482429D01*
X8937857Y-7496714D01*
X8895000Y-7496714D01*
X9166428Y-7496714D02*
X9137857Y-7482429D01*
X9123571Y-7453857D01*
X9123571Y-7196714D01*
X9395000Y-7482429D02*
X9366429Y-7496714D01*
X9309286Y-7496714D01*
X9280714Y-7482429D01*
X9266429Y-7453857D01*
X9266429Y-7339571D01*
X9280714Y-7311000D01*
X9309286Y-7296714D01*
X9366429Y-7296714D01*
X9395000Y-7311000D01*
X9409286Y-7339571D01*
X9409286Y-7368143D01*
X9266429Y-7396714D01*
X9523571Y-7482429D02*
X9552143Y-7496714D01*
X9609286Y-7496714D01*
X9637857Y-7482429D01*
X9652143Y-7453857D01*
X9652143Y-7439571D01*
X9637857Y-7411000D01*
X9609286Y-7396714D01*
X9566429Y-7396714D01*
X9537857Y-7382429D01*
X9523571Y-7353857D01*
X9523571Y-7339571D01*
X9537857Y-7311000D01*
X9566429Y-7296714D01*
X9609286Y-7296714D01*
X9637857Y-7311000D01*
X9752143Y-7611000D02*
X9766429Y-7596714D01*
X9795000Y-7553857D01*
X9809286Y-7525286D01*
X9823571Y-7482429D01*
X9837857Y-7411000D01*
X9837857Y-7353857D01*
X9823571Y-7282429D01*
X9809286Y-7239571D01*
X9795000Y-7211000D01*
X9766429Y-7168143D01*
X9752143Y-7153857D01*
X2944200Y-7706200D02*
X2944200Y-7807800D01*
X2893400Y-7757000D02*
X2995000Y-7757000D01*
X3423571Y-7892714D02*
X3252143Y-7892714D01*
X3337857Y-7892714D02*
X3337857Y-7592714D01*
X3309286Y-7635571D01*
X3280714Y-7664143D01*
X3252143Y-7678429D01*
X3552143Y-7864143D02*
X3566428Y-7878429D01*
X3552143Y-7892714D01*
X3537857Y-7878429D01*
X3552143Y-7864143D01*
X3552143Y-7892714D01*
X3752143Y-7592714D02*
X3780714Y-7592714D01*
X3809286Y-7607000D01*
X3823571Y-7621286D01*
X3837857Y-7649857D01*
X3852143Y-7707000D01*
X3852143Y-7778429D01*
X3837857Y-7835571D01*
X3823571Y-7864143D01*
X3809286Y-7878429D01*
X3780714Y-7892714D01*
X3752143Y-7892714D01*
X3723571Y-7878429D01*
X3709286Y-7864143D01*
X3695000Y-7835571D01*
X3680714Y-7778429D01*
X3680714Y-7707000D01*
X3695000Y-7649857D01*
X3709286Y-7621286D01*
X3723571Y-7607000D01*
X3752143Y-7592714D01*
X3966428Y-7621286D02*
X3980714Y-7607000D01*
X4009286Y-7592714D01*
X4080714Y-7592714D01*
X4109286Y-7607000D01*
X4123571Y-7621286D01*
X4137857Y-7649857D01*
X4137857Y-7678429D01*
X4123571Y-7721286D01*
X3952143Y-7892714D01*
X4137857Y-7892714D01*
X4266429Y-7892714D02*
X4266429Y-7692714D01*
X4266429Y-7721286D02*
X4280714Y-7707000D01*
X4309286Y-7692714D01*
X4352143Y-7692714D01*
X4380714Y-7707000D01*
X4395000Y-7735571D01*
X4395000Y-7892714D01*
X4395000Y-7735571D02*
X4409286Y-7707000D01*
X4437857Y-7692714D01*
X4480714Y-7692714D01*
X4509286Y-7707000D01*
X4523571Y-7735571D01*
X4523571Y-7892714D01*
X4666429Y-7892714D02*
X4666429Y-7692714D01*
X4666429Y-7721286D02*
X4680714Y-7707000D01*
X4709286Y-7692714D01*
X4752143Y-7692714D01*
X4780714Y-7707000D01*
X4795000Y-7735571D01*
X4795000Y-7892714D01*
X4795000Y-7735571D02*
X4809286Y-7707000D01*
X4837857Y-7692714D01*
X4880714Y-7692714D01*
X4909286Y-7707000D01*
X4923571Y-7735571D01*
X4923571Y-7892714D01*
X5509286Y-7578429D02*
X5252143Y-7964143D01*
X5895000Y-7592714D02*
X5923571Y-7592714D01*
X5952143Y-7607000D01*
X5966428Y-7621286D01*
X5980714Y-7649857D01*
X5995000Y-7707000D01*
X5995000Y-7778429D01*
X5980714Y-7835571D01*
X5966428Y-7864143D01*
X5952143Y-7878429D01*
X5923571Y-7892714D01*
X5895000Y-7892714D01*
X5866428Y-7878429D01*
X5852143Y-7864143D01*
X5837857Y-7835571D01*
X5823571Y-7778429D01*
X5823571Y-7707000D01*
X5837857Y-7649857D01*
X5852143Y-7621286D01*
X5866428Y-7607000D01*
X5895000Y-7592714D01*
X6123571Y-7864143D02*
X6137857Y-7878429D01*
X6123571Y-7892714D01*
X6109286Y-7878429D01*
X6123571Y-7864143D01*
X6123571Y-7892714D01*
X6323571Y-7592714D02*
X6352143Y-7592714D01*
X6380714Y-7607000D01*
X6395000Y-7621286D01*
X6409285Y-7649857D01*
X6423571Y-7707000D01*
X6423571Y-7778429D01*
X6409285Y-7835571D01*
X6395000Y-7864143D01*
X6380714Y-7878429D01*
X6352143Y-7892714D01*
X6323571Y-7892714D01*
X6295000Y-7878429D01*
X6280714Y-7864143D01*
X6266428Y-7835571D01*
X6252143Y-7778429D01*
X6252143Y-7707000D01*
X6266428Y-7649857D01*
X6280714Y-7621286D01*
X6295000Y-7607000D01*
X6323571Y-7592714D01*
X6680714Y-7692714D02*
X6680714Y-7892714D01*
X6609285Y-7578429D02*
X6537857Y-7792714D01*
X6723571Y-7792714D01*
X6895000Y-7592714D02*
X6923571Y-7592714D01*
X6952143Y-7607000D01*
X6966428Y-7621286D01*
X6980714Y-7649857D01*
X6995000Y-7707000D01*
X6995000Y-7778429D01*
X6980714Y-7835571D01*
X6966428Y-7864143D01*
X6952143Y-7878429D01*
X6923571Y-7892714D01*
X6895000Y-7892714D01*
X6866428Y-7878429D01*
X6852143Y-7864143D01*
X6837857Y-7835571D01*
X6823571Y-7778429D01*
X6823571Y-7707000D01*
X6837857Y-7649857D01*
X6852143Y-7621286D01*
X6866428Y-7607000D01*
X6895000Y-7592714D01*
X7109286Y-7592714D02*
X7109286Y-7649857D01*
X7223571Y-7592714D02*
X7223571Y-7649857D01*
X7666428Y-8007000D02*
X7652143Y-7992714D01*
X7623571Y-7949857D01*
X7609285Y-7921286D01*
X7595000Y-7878429D01*
X7580714Y-7807000D01*
X7580714Y-7749857D01*
X7595000Y-7678429D01*
X7609285Y-7635571D01*
X7623571Y-7607000D01*
X7652143Y-7564143D01*
X7666428Y-7549857D01*
X7923571Y-7592714D02*
X7780714Y-7592714D01*
X7766428Y-7735571D01*
X7780714Y-7721286D01*
X7809285Y-7707000D01*
X7880714Y-7707000D01*
X7909285Y-7721286D01*
X7923571Y-7735571D01*
X7937857Y-7764143D01*
X7937857Y-7835571D01*
X7923571Y-7864143D01*
X7909285Y-7878429D01*
X7880714Y-7892714D01*
X7809285Y-7892714D01*
X7780714Y-7878429D01*
X7766428Y-7864143D01*
X8109285Y-7721286D02*
X8080714Y-7707000D01*
X8066428Y-7692714D01*
X8052143Y-7664143D01*
X8052143Y-7649857D01*
X8066428Y-7621286D01*
X8080714Y-7607000D01*
X8109285Y-7592714D01*
X8166428Y-7592714D01*
X8195000Y-7607000D01*
X8209285Y-7621286D01*
X8223571Y-7649857D01*
X8223571Y-7664143D01*
X8209285Y-7692714D01*
X8195000Y-7707000D01*
X8166428Y-7721286D01*
X8109285Y-7721286D01*
X8080714Y-7735571D01*
X8066428Y-7749857D01*
X8052143Y-7778429D01*
X8052143Y-7835571D01*
X8066428Y-7864143D01*
X8080714Y-7878429D01*
X8109285Y-7892714D01*
X8166428Y-7892714D01*
X8195000Y-7878429D01*
X8209285Y-7864143D01*
X8223571Y-7835571D01*
X8223571Y-7778429D01*
X8209285Y-7749857D01*
X8195000Y-7735571D01*
X8166428Y-7721286D01*
X8580714Y-7892714D02*
X8580714Y-7592714D01*
X8709286Y-7892714D02*
X8709286Y-7735571D01*
X8695000Y-7707000D01*
X8666428Y-7692714D01*
X8623571Y-7692714D01*
X8595000Y-7707000D01*
X8580714Y-7721286D01*
X8895000Y-7892714D02*
X8866428Y-7878429D01*
X8852143Y-7864143D01*
X8837857Y-7835571D01*
X8837857Y-7749857D01*
X8852143Y-7721286D01*
X8866428Y-7707000D01*
X8895000Y-7692714D01*
X8937857Y-7692714D01*
X8966428Y-7707000D01*
X8980714Y-7721286D01*
X8995000Y-7749857D01*
X8995000Y-7835571D01*
X8980714Y-7864143D01*
X8966428Y-7878429D01*
X8937857Y-7892714D01*
X8895000Y-7892714D01*
X9166428Y-7892714D02*
X9137857Y-7878429D01*
X9123571Y-7849857D01*
X9123571Y-7592714D01*
X9395000Y-7878429D02*
X9366429Y-7892714D01*
X9309286Y-7892714D01*
X9280714Y-7878429D01*
X9266429Y-7849857D01*
X9266429Y-7735571D01*
X9280714Y-7707000D01*
X9309286Y-7692714D01*
X9366429Y-7692714D01*
X9395000Y-7707000D01*
X9409286Y-7735571D01*
X9409286Y-7764143D01*
X9266429Y-7792714D01*
X9523571Y-7878429D02*
X9552143Y-7892714D01*
X9609286Y-7892714D01*
X9637857Y-7878429D01*
X9652143Y-7849857D01*
X9652143Y-7835571D01*
X9637857Y-7807000D01*
X9609286Y-7792714D01*
X9566429Y-7792714D01*
X9537857Y-7778429D01*
X9523571Y-7749857D01*
X9523571Y-7735571D01*
X9537857Y-7707000D01*
X9566429Y-7692714D01*
X9609286Y-7692714D01*
X9637857Y-7707000D01*
X9752143Y-8007000D02*
X9766429Y-7992714D01*
X9795000Y-7949857D01*
X9809286Y-7921286D01*
X9823571Y-7878429D01*
X9837857Y-7807000D01*
X9837857Y-7749857D01*
X9823571Y-7678429D01*
X9809286Y-7635571D01*
X9795000Y-7607000D01*
X9766429Y-7564143D01*
X9752143Y-7549857D01*
X2978261Y-8193412D02*
X2978261Y-8112589D01*
X2897438Y-8112589D01*
X2897438Y-8193412D01*
X2978261Y-8193412D01*
X3423571Y-8288714D02*
X3252143Y-8288714D01*
X3337857Y-8288714D02*
X3337857Y-7988714D01*
X3309286Y-8031571D01*
X3280714Y-8060143D01*
X3252143Y-8074429D01*
X3552143Y-8260143D02*
X3566428Y-8274429D01*
X3552143Y-8288714D01*
X3537857Y-8274429D01*
X3552143Y-8260143D01*
X3552143Y-8288714D01*
X3852143Y-8288714D02*
X3680714Y-8288714D01*
X3766428Y-8288714D02*
X3766428Y-7988714D01*
X3737857Y-8031571D01*
X3709286Y-8060143D01*
X3680714Y-8074429D01*
X4109286Y-8088714D02*
X4109286Y-8288714D01*
X4037857Y-7974429D02*
X3966428Y-8188714D01*
X4152143Y-8188714D01*
X4266429Y-8288714D02*
X4266429Y-8088714D01*
X4266429Y-8117286D02*
X4280714Y-8103000D01*
X4309286Y-8088714D01*
X4352143Y-8088714D01*
X4380714Y-8103000D01*
X4395000Y-8131571D01*
X4395000Y-8288714D01*
X4395000Y-8131571D02*
X4409286Y-8103000D01*
X4437857Y-8088714D01*
X4480714Y-8088714D01*
X4509286Y-8103000D01*
X4523571Y-8131571D01*
X4523571Y-8288714D01*
X4666429Y-8288714D02*
X4666429Y-8088714D01*
X4666429Y-8117286D02*
X4680714Y-8103000D01*
X4709286Y-8088714D01*
X4752143Y-8088714D01*
X4780714Y-8103000D01*
X4795000Y-8131571D01*
X4795000Y-8288714D01*
X4795000Y-8131571D02*
X4809286Y-8103000D01*
X4837857Y-8088714D01*
X4880714Y-8088714D01*
X4909286Y-8103000D01*
X4923571Y-8131571D01*
X4923571Y-8288714D01*
X5509286Y-7974429D02*
X5252143Y-8360143D01*
X5895000Y-7988714D02*
X5923571Y-7988714D01*
X5952143Y-8003000D01*
X5966428Y-8017286D01*
X5980714Y-8045857D01*
X5995000Y-8103000D01*
X5995000Y-8174429D01*
X5980714Y-8231571D01*
X5966428Y-8260143D01*
X5952143Y-8274429D01*
X5923571Y-8288714D01*
X5895000Y-8288714D01*
X5866428Y-8274429D01*
X5852143Y-8260143D01*
X5837857Y-8231571D01*
X5823571Y-8174429D01*
X5823571Y-8103000D01*
X5837857Y-8045857D01*
X5852143Y-8017286D01*
X5866428Y-8003000D01*
X5895000Y-7988714D01*
X6123571Y-8260143D02*
X6137857Y-8274429D01*
X6123571Y-8288714D01*
X6109286Y-8274429D01*
X6123571Y-8260143D01*
X6123571Y-8288714D01*
X6323571Y-7988714D02*
X6352143Y-7988714D01*
X6380714Y-8003000D01*
X6395000Y-8017286D01*
X6409285Y-8045857D01*
X6423571Y-8103000D01*
X6423571Y-8174429D01*
X6409285Y-8231571D01*
X6395000Y-8260143D01*
X6380714Y-8274429D01*
X6352143Y-8288714D01*
X6323571Y-8288714D01*
X6295000Y-8274429D01*
X6280714Y-8260143D01*
X6266428Y-8231571D01*
X6252143Y-8174429D01*
X6252143Y-8103000D01*
X6266428Y-8045857D01*
X6280714Y-8017286D01*
X6295000Y-8003000D01*
X6323571Y-7988714D01*
X6680714Y-8088714D02*
X6680714Y-8288714D01*
X6609285Y-7974429D02*
X6537857Y-8188714D01*
X6723571Y-8188714D01*
X6980714Y-7988714D02*
X6837857Y-7988714D01*
X6823571Y-8131571D01*
X6837857Y-8117286D01*
X6866428Y-8103000D01*
X6937857Y-8103000D01*
X6966428Y-8117286D01*
X6980714Y-8131571D01*
X6995000Y-8160143D01*
X6995000Y-8231571D01*
X6980714Y-8260143D01*
X6966428Y-8274429D01*
X6937857Y-8288714D01*
X6866428Y-8288714D01*
X6837857Y-8274429D01*
X6823571Y-8260143D01*
X7109286Y-7988714D02*
X7109286Y-8045857D01*
X7223571Y-7988714D02*
X7223571Y-8045857D01*
X7666428Y-8403000D02*
X7652143Y-8388714D01*
X7623571Y-8345857D01*
X7609285Y-8317286D01*
X7595000Y-8274429D01*
X7580714Y-8203000D01*
X7580714Y-8145857D01*
X7595000Y-8074429D01*
X7609285Y-8031571D01*
X7623571Y-8003000D01*
X7652143Y-7960143D01*
X7666428Y-7945857D01*
X7752143Y-7988714D02*
X7937857Y-7988714D01*
X7837857Y-8103000D01*
X7880714Y-8103000D01*
X7909285Y-8117286D01*
X7923571Y-8131571D01*
X7937857Y-8160143D01*
X7937857Y-8231571D01*
X7923571Y-8260143D01*
X7909285Y-8274429D01*
X7880714Y-8288714D01*
X7795000Y-8288714D01*
X7766428Y-8274429D01*
X7752143Y-8260143D01*
X8295000Y-8288714D02*
X8295000Y-7988714D01*
X8423571Y-8288714D02*
X8423571Y-8131571D01*
X8409286Y-8103000D01*
X8380714Y-8088714D01*
X8337857Y-8088714D01*
X8309285Y-8103000D01*
X8295000Y-8117286D01*
X8609286Y-8288714D02*
X8580714Y-8274429D01*
X8566428Y-8260143D01*
X8552143Y-8231571D01*
X8552143Y-8145857D01*
X8566428Y-8117286D01*
X8580714Y-8103000D01*
X8609286Y-8088714D01*
X8652143Y-8088714D01*
X8680714Y-8103000D01*
X8695000Y-8117286D01*
X8709286Y-8145857D01*
X8709286Y-8231571D01*
X8695000Y-8260143D01*
X8680714Y-8274429D01*
X8652143Y-8288714D01*
X8609286Y-8288714D01*
X8880714Y-8288714D02*
X8852143Y-8274429D01*
X8837857Y-8245857D01*
X8837857Y-7988714D01*
X9109286Y-8274429D02*
X9080714Y-8288714D01*
X9023571Y-8288714D01*
X8995000Y-8274429D01*
X8980714Y-8245857D01*
X8980714Y-8131571D01*
X8995000Y-8103000D01*
X9023571Y-8088714D01*
X9080714Y-8088714D01*
X9109286Y-8103000D01*
X9123571Y-8131571D01*
X9123571Y-8160143D01*
X8980714Y-8188714D01*
X9237857Y-8274429D02*
X9266429Y-8288714D01*
X9323571Y-8288714D01*
X9352143Y-8274429D01*
X9366429Y-8245857D01*
X9366429Y-8231571D01*
X9352143Y-8203000D01*
X9323571Y-8188714D01*
X9280714Y-8188714D01*
X9252143Y-8174429D01*
X9237857Y-8145857D01*
X9237857Y-8131571D01*
X9252143Y-8103000D01*
X9280714Y-8088714D01*
X9323571Y-8088714D01*
X9352143Y-8103000D01*
X9466428Y-8403000D02*
X9480714Y-8388714D01*
X9509286Y-8345857D01*
X9523571Y-8317286D01*
X9537857Y-8274429D01*
X9552143Y-8203000D01*
X9552143Y-8145857D01*
X9537857Y-8074429D01*
X9523571Y-8031571D01*
X9509286Y-8003000D01*
X9480714Y-7960143D01*
X9466428Y-7945857D01*
X2936580Y-8607420D02*
X2995000Y-8549000D01*
X2936580Y-8490580D01*
X2878160Y-8549000D01*
X2936580Y-8607420D01*
X3423571Y-8684714D02*
X3252143Y-8684714D01*
X3337857Y-8684714D02*
X3337857Y-8384714D01*
X3309286Y-8427572D01*
X3280714Y-8456143D01*
X3252143Y-8470429D01*
X3552143Y-8656143D02*
X3566428Y-8670429D01*
X3552143Y-8684714D01*
X3537857Y-8670429D01*
X3552143Y-8656143D01*
X3552143Y-8684714D01*
X3852143Y-8684714D02*
X3680714Y-8684714D01*
X3766428Y-8684714D02*
X3766428Y-8384714D01*
X3737857Y-8427572D01*
X3709286Y-8456143D01*
X3680714Y-8470429D01*
X3952143Y-8384714D02*
X4152143Y-8384714D01*
X4023571Y-8684714D01*
X4266429Y-8684714D02*
X4266429Y-8484714D01*
X4266429Y-8513286D02*
X4280714Y-8499000D01*
X4309286Y-8484714D01*
X4352143Y-8484714D01*
X4380714Y-8499000D01*
X4395000Y-8527572D01*
X4395000Y-8684714D01*
X4395000Y-8527572D02*
X4409286Y-8499000D01*
X4437857Y-8484714D01*
X4480714Y-8484714D01*
X4509286Y-8499000D01*
X4523571Y-8527572D01*
X4523571Y-8684714D01*
X4666429Y-8684714D02*
X4666429Y-8484714D01*
X4666429Y-8513286D02*
X4680714Y-8499000D01*
X4709286Y-8484714D01*
X4752143Y-8484714D01*
X4780714Y-8499000D01*
X4795000Y-8527572D01*
X4795000Y-8684714D01*
X4795000Y-8527572D02*
X4809286Y-8499000D01*
X4837857Y-8484714D01*
X4880714Y-8484714D01*
X4909286Y-8499000D01*
X4923571Y-8527572D01*
X4923571Y-8684714D01*
X5509286Y-8370429D02*
X5252143Y-8756143D01*
X5895000Y-8384714D02*
X5923571Y-8384714D01*
X5952143Y-8399000D01*
X5966428Y-8413286D01*
X5980714Y-8441857D01*
X5995000Y-8499000D01*
X5995000Y-8570429D01*
X5980714Y-8627572D01*
X5966428Y-8656143D01*
X5952143Y-8670429D01*
X5923571Y-8684714D01*
X5895000Y-8684714D01*
X5866428Y-8670429D01*
X5852143Y-8656143D01*
X5837857Y-8627572D01*
X5823571Y-8570429D01*
X5823571Y-8499000D01*
X5837857Y-8441857D01*
X5852143Y-8413286D01*
X5866428Y-8399000D01*
X5895000Y-8384714D01*
X6123571Y-8656143D02*
X6137857Y-8670429D01*
X6123571Y-8684714D01*
X6109286Y-8670429D01*
X6123571Y-8656143D01*
X6123571Y-8684714D01*
X6323571Y-8384714D02*
X6352143Y-8384714D01*
X6380714Y-8399000D01*
X6395000Y-8413286D01*
X6409285Y-8441857D01*
X6423571Y-8499000D01*
X6423571Y-8570429D01*
X6409285Y-8627572D01*
X6395000Y-8656143D01*
X6380714Y-8670429D01*
X6352143Y-8684714D01*
X6323571Y-8684714D01*
X6295000Y-8670429D01*
X6280714Y-8656143D01*
X6266428Y-8627572D01*
X6252143Y-8570429D01*
X6252143Y-8499000D01*
X6266428Y-8441857D01*
X6280714Y-8413286D01*
X6295000Y-8399000D01*
X6323571Y-8384714D01*
X6680714Y-8484714D02*
X6680714Y-8684714D01*
X6609285Y-8370429D02*
X6537857Y-8584714D01*
X6723571Y-8584714D01*
X6966428Y-8384714D02*
X6909285Y-8384714D01*
X6880714Y-8399000D01*
X6866428Y-8413286D01*
X6837857Y-8456143D01*
X6823571Y-8513286D01*
X6823571Y-8627572D01*
X6837857Y-8656143D01*
X6852143Y-8670429D01*
X6880714Y-8684714D01*
X6937857Y-8684714D01*
X6966428Y-8670429D01*
X6980714Y-8656143D01*
X6995000Y-8627572D01*
X6995000Y-8556143D01*
X6980714Y-8527572D01*
X6966428Y-8513286D01*
X6937857Y-8499000D01*
X6880714Y-8499000D01*
X6852143Y-8513286D01*
X6837857Y-8527572D01*
X6823571Y-8556143D01*
X7109286Y-8384714D02*
X7109286Y-8441857D01*
X7223571Y-8384714D02*
X7223571Y-8441857D01*
X7666428Y-8799000D02*
X7652143Y-8784714D01*
X7623571Y-8741857D01*
X7609285Y-8713286D01*
X7595000Y-8670429D01*
X7580714Y-8599000D01*
X7580714Y-8541857D01*
X7595000Y-8470429D01*
X7609285Y-8427572D01*
X7623571Y-8399000D01*
X7652143Y-8356143D01*
X7666428Y-8341857D01*
X7837857Y-8384714D02*
X7866428Y-8384714D01*
X7895000Y-8399000D01*
X7909285Y-8413286D01*
X7923571Y-8441857D01*
X7937857Y-8499000D01*
X7937857Y-8570429D01*
X7923571Y-8627572D01*
X7909285Y-8656143D01*
X7895000Y-8670429D01*
X7866428Y-8684714D01*
X7837857Y-8684714D01*
X7809285Y-8670429D01*
X7795000Y-8656143D01*
X7780714Y-8627572D01*
X7766428Y-8570429D01*
X7766428Y-8499000D01*
X7780714Y-8441857D01*
X7795000Y-8413286D01*
X7809285Y-8399000D01*
X7837857Y-8384714D01*
X8295000Y-8684714D02*
X8295000Y-8384714D01*
X8423571Y-8684714D02*
X8423571Y-8527572D01*
X8409286Y-8499000D01*
X8380714Y-8484714D01*
X8337857Y-8484714D01*
X8309285Y-8499000D01*
X8295000Y-8513286D01*
X8609286Y-8684714D02*
X8580714Y-8670429D01*
X8566428Y-8656143D01*
X8552143Y-8627572D01*
X8552143Y-8541857D01*
X8566428Y-8513286D01*
X8580714Y-8499000D01*
X8609286Y-8484714D01*
X8652143Y-8484714D01*
X8680714Y-8499000D01*
X8695000Y-8513286D01*
X8709286Y-8541857D01*
X8709286Y-8627572D01*
X8695000Y-8656143D01*
X8680714Y-8670429D01*
X8652143Y-8684714D01*
X8609286Y-8684714D01*
X8880714Y-8684714D02*
X8852143Y-8670429D01*
X8837857Y-8641857D01*
X8837857Y-8384714D01*
X9109286Y-8670429D02*
X9080714Y-8684714D01*
X9023571Y-8684714D01*
X8995000Y-8670429D01*
X8980714Y-8641857D01*
X8980714Y-8527572D01*
X8995000Y-8499000D01*
X9023571Y-8484714D01*
X9080714Y-8484714D01*
X9109286Y-8499000D01*
X9123571Y-8527572D01*
X9123571Y-8556143D01*
X8980714Y-8584714D01*
X9237857Y-8670429D02*
X9266429Y-8684714D01*
X9323571Y-8684714D01*
X9352143Y-8670429D01*
X9366429Y-8641857D01*
X9366429Y-8627572D01*
X9352143Y-8599000D01*
X9323571Y-8584714D01*
X9280714Y-8584714D01*
X9252143Y-8570429D01*
X9237857Y-8541857D01*
X9237857Y-8527572D01*
X9252143Y-8499000D01*
X9280714Y-8484714D01*
X9323571Y-8484714D01*
X9352143Y-8499000D01*
X9723571Y-8570429D02*
X9952143Y-8570429D01*
X9837857Y-8684714D02*
X9837857Y-8456143D01*
X10295000Y-8384714D02*
X10480714Y-8384714D01*
X10380714Y-8499000D01*
X10423571Y-8499000D01*
X10452143Y-8513286D01*
X10466428Y-8527572D01*
X10480714Y-8556143D01*
X10480714Y-8627572D01*
X10466428Y-8656143D01*
X10452143Y-8670429D01*
X10423571Y-8684714D01*
X10337857Y-8684714D01*
X10309286Y-8670429D01*
X10295000Y-8656143D01*
X10823571Y-8670429D02*
X10852143Y-8684714D01*
X10909286Y-8684714D01*
X10937857Y-8670429D01*
X10952143Y-8641857D01*
X10952143Y-8627572D01*
X10937857Y-8599000D01*
X10909286Y-8584714D01*
X10866428Y-8584714D01*
X10837857Y-8570429D01*
X10823571Y-8541857D01*
X10823571Y-8527572D01*
X10837857Y-8499000D01*
X10866428Y-8484714D01*
X10909286Y-8484714D01*
X10937857Y-8499000D01*
X11123571Y-8684714D02*
X11095000Y-8670429D01*
X11080714Y-8641857D01*
X11080714Y-8384714D01*
X11280714Y-8684714D02*
X11252143Y-8670429D01*
X11237857Y-8656143D01*
X11223571Y-8627572D01*
X11223571Y-8541857D01*
X11237857Y-8513286D01*
X11252143Y-8499000D01*
X11280714Y-8484714D01*
X11323571Y-8484714D01*
X11352143Y-8499000D01*
X11366428Y-8513286D01*
X11380714Y-8541857D01*
X11380714Y-8627572D01*
X11366428Y-8656143D01*
X11352143Y-8670429D01*
X11323571Y-8684714D01*
X11280714Y-8684714D01*
X11466428Y-8484714D02*
X11580714Y-8484714D01*
X11509286Y-8384714D02*
X11509286Y-8641857D01*
X11523571Y-8670429D01*
X11552143Y-8684714D01*
X11580714Y-8684714D01*
X11666428Y-8670429D02*
X11695000Y-8684714D01*
X11752143Y-8684714D01*
X11780714Y-8670429D01*
X11795000Y-8641857D01*
X11795000Y-8627572D01*
X11780714Y-8599000D01*
X11752143Y-8584714D01*
X11709286Y-8584714D01*
X11680714Y-8570429D01*
X11666428Y-8541857D01*
X11666428Y-8527572D01*
X11680714Y-8499000D01*
X11709286Y-8484714D01*
X11752143Y-8484714D01*
X11780714Y-8499000D01*
X11895000Y-8799000D02*
X11909286Y-8784714D01*
X11937857Y-8741857D01*
X11952143Y-8713286D01*
X11966428Y-8670429D01*
X11980714Y-8599000D01*
X11980714Y-8541857D01*
X11966428Y-8470429D01*
X11952143Y-8427572D01*
X11937857Y-8399000D01*
X11909286Y-8356143D01*
X11895000Y-8341857D01*
X2868000Y-8881500D02*
X2995000Y-9008500D01*
X2995000Y-8881500D02*
X2868000Y-9008500D01*
X2995000Y-8945000D02*
G75*
G03X2995000Y-8945000I-63500J0D01*
G01*
X3423571Y-9080714D02*
X3252143Y-9080714D01*
X3337857Y-9080714D02*
X3337857Y-8780714D01*
X3309286Y-8823572D01*
X3280714Y-8852143D01*
X3252143Y-8866429D01*
X3552143Y-9052143D02*
X3566428Y-9066429D01*
X3552143Y-9080714D01*
X3537857Y-9066429D01*
X3552143Y-9052143D01*
X3552143Y-9080714D01*
X3680714Y-8809286D02*
X3695000Y-8795000D01*
X3723571Y-8780714D01*
X3795000Y-8780714D01*
X3823571Y-8795000D01*
X3837857Y-8809286D01*
X3852143Y-8837857D01*
X3852143Y-8866429D01*
X3837857Y-8909286D01*
X3666428Y-9080714D01*
X3852143Y-9080714D01*
X3952143Y-8780714D02*
X4152143Y-8780714D01*
X4023571Y-9080714D01*
X4266429Y-9080714D02*
X4266429Y-8880714D01*
X4266429Y-8909286D02*
X4280714Y-8895000D01*
X4309286Y-8880714D01*
X4352143Y-8880714D01*
X4380714Y-8895000D01*
X4395000Y-8923572D01*
X4395000Y-9080714D01*
X4395000Y-8923572D02*
X4409286Y-8895000D01*
X4437857Y-8880714D01*
X4480714Y-8880714D01*
X4509286Y-8895000D01*
X4523571Y-8923572D01*
X4523571Y-9080714D01*
X4666429Y-9080714D02*
X4666429Y-8880714D01*
X4666429Y-8909286D02*
X4680714Y-8895000D01*
X4709286Y-8880714D01*
X4752143Y-8880714D01*
X4780714Y-8895000D01*
X4795000Y-8923572D01*
X4795000Y-9080714D01*
X4795000Y-8923572D02*
X4809286Y-8895000D01*
X4837857Y-8880714D01*
X4880714Y-8880714D01*
X4909286Y-8895000D01*
X4923571Y-8923572D01*
X4923571Y-9080714D01*
X5509286Y-8766429D02*
X5252143Y-9152143D01*
X5895000Y-8780714D02*
X5923571Y-8780714D01*
X5952143Y-8795000D01*
X5966428Y-8809286D01*
X5980714Y-8837857D01*
X5995000Y-8895000D01*
X5995000Y-8966429D01*
X5980714Y-9023572D01*
X5966428Y-9052143D01*
X5952143Y-9066429D01*
X5923571Y-9080714D01*
X5895000Y-9080714D01*
X5866428Y-9066429D01*
X5852143Y-9052143D01*
X5837857Y-9023572D01*
X5823571Y-8966429D01*
X5823571Y-8895000D01*
X5837857Y-8837857D01*
X5852143Y-8809286D01*
X5866428Y-8795000D01*
X5895000Y-8780714D01*
X6123571Y-9052143D02*
X6137857Y-9066429D01*
X6123571Y-9080714D01*
X6109286Y-9066429D01*
X6123571Y-9052143D01*
X6123571Y-9080714D01*
X6323571Y-8780714D02*
X6352143Y-8780714D01*
X6380714Y-8795000D01*
X6395000Y-8809286D01*
X6409285Y-8837857D01*
X6423571Y-8895000D01*
X6423571Y-8966429D01*
X6409285Y-9023572D01*
X6395000Y-9052143D01*
X6380714Y-9066429D01*
X6352143Y-9080714D01*
X6323571Y-9080714D01*
X6295000Y-9066429D01*
X6280714Y-9052143D01*
X6266428Y-9023572D01*
X6252143Y-8966429D01*
X6252143Y-8895000D01*
X6266428Y-8837857D01*
X6280714Y-8809286D01*
X6295000Y-8795000D01*
X6323571Y-8780714D01*
X6695000Y-8780714D02*
X6552143Y-8780714D01*
X6537857Y-8923572D01*
X6552143Y-8909286D01*
X6580714Y-8895000D01*
X6652143Y-8895000D01*
X6680714Y-8909286D01*
X6695000Y-8923572D01*
X6709285Y-8952143D01*
X6709285Y-9023572D01*
X6695000Y-9052143D01*
X6680714Y-9066429D01*
X6652143Y-9080714D01*
X6580714Y-9080714D01*
X6552143Y-9066429D01*
X6537857Y-9052143D01*
X6895000Y-8780714D02*
X6923571Y-8780714D01*
X6952143Y-8795000D01*
X6966428Y-8809286D01*
X6980714Y-8837857D01*
X6995000Y-8895000D01*
X6995000Y-8966429D01*
X6980714Y-9023572D01*
X6966428Y-9052143D01*
X6952143Y-9066429D01*
X6923571Y-9080714D01*
X6895000Y-9080714D01*
X6866428Y-9066429D01*
X6852143Y-9052143D01*
X6837857Y-9023572D01*
X6823571Y-8966429D01*
X6823571Y-8895000D01*
X6837857Y-8837857D01*
X6852143Y-8809286D01*
X6866428Y-8795000D01*
X6895000Y-8780714D01*
X7109286Y-8780714D02*
X7109286Y-8837857D01*
X7223571Y-8780714D02*
X7223571Y-8837857D01*
X7666428Y-9195000D02*
X7652143Y-9180714D01*
X7623571Y-9137857D01*
X7609285Y-9109286D01*
X7595000Y-9066429D01*
X7580714Y-8995000D01*
X7580714Y-8937857D01*
X7595000Y-8866429D01*
X7609285Y-8823572D01*
X7623571Y-8795000D01*
X7652143Y-8752143D01*
X7666428Y-8737857D01*
X7909285Y-8780714D02*
X7852143Y-8780714D01*
X7823571Y-8795000D01*
X7809285Y-8809286D01*
X7780714Y-8852143D01*
X7766428Y-8909286D01*
X7766428Y-9023572D01*
X7780714Y-9052143D01*
X7795000Y-9066429D01*
X7823571Y-9080714D01*
X7880714Y-9080714D01*
X7909285Y-9066429D01*
X7923571Y-9052143D01*
X7937857Y-9023572D01*
X7937857Y-8952143D01*
X7923571Y-8923572D01*
X7909285Y-8909286D01*
X7880714Y-8895000D01*
X7823571Y-8895000D01*
X7795000Y-8909286D01*
X7780714Y-8923572D01*
X7766428Y-8952143D01*
X8295000Y-9080714D02*
X8295000Y-8780714D01*
X8423571Y-9080714D02*
X8423571Y-8923572D01*
X8409286Y-8895000D01*
X8380714Y-8880714D01*
X8337857Y-8880714D01*
X8309285Y-8895000D01*
X8295000Y-8909286D01*
X8609286Y-9080714D02*
X8580714Y-9066429D01*
X8566428Y-9052143D01*
X8552143Y-9023572D01*
X8552143Y-8937857D01*
X8566428Y-8909286D01*
X8580714Y-8895000D01*
X8609286Y-8880714D01*
X8652143Y-8880714D01*
X8680714Y-8895000D01*
X8695000Y-8909286D01*
X8709286Y-8937857D01*
X8709286Y-9023572D01*
X8695000Y-9052143D01*
X8680714Y-9066429D01*
X8652143Y-9080714D01*
X8609286Y-9080714D01*
X8880714Y-9080714D02*
X8852143Y-9066429D01*
X8837857Y-9037857D01*
X8837857Y-8780714D01*
X9109286Y-9066429D02*
X9080714Y-9080714D01*
X9023571Y-9080714D01*
X8995000Y-9066429D01*
X8980714Y-9037857D01*
X8980714Y-8923572D01*
X8995000Y-8895000D01*
X9023571Y-8880714D01*
X9080714Y-8880714D01*
X9109286Y-8895000D01*
X9123571Y-8923572D01*
X9123571Y-8952143D01*
X8980714Y-8980714D01*
X9237857Y-9066429D02*
X9266429Y-9080714D01*
X9323571Y-9080714D01*
X9352143Y-9066429D01*
X9366429Y-9037857D01*
X9366429Y-9023572D01*
X9352143Y-8995000D01*
X9323571Y-8980714D01*
X9280714Y-8980714D01*
X9252143Y-8966429D01*
X9237857Y-8937857D01*
X9237857Y-8923572D01*
X9252143Y-8895000D01*
X9280714Y-8880714D01*
X9323571Y-8880714D01*
X9352143Y-8895000D01*
X9466428Y-9195000D02*
X9480714Y-9180714D01*
X9509286Y-9137857D01*
X9523571Y-9109286D01*
X9537857Y-9066429D01*
X9552143Y-8995000D01*
X9552143Y-8937857D01*
X9537857Y-8866429D01*
X9523571Y-8823572D01*
X9509286Y-8795000D01*
X9480714Y-8752143D01*
X9466428Y-8737857D01*
X2741000Y-9214000D02*
X2995000Y-9468000D01*
X2995000Y-9214000D02*
X2741000Y-9468000D01*
X2868000Y-9214000D02*
X2868000Y-9468000D01*
X2741000Y-9341000D02*
X2995000Y-9341000D01*
X3252143Y-9205286D02*
X3266428Y-9191000D01*
X3295000Y-9176714D01*
X3366428Y-9176714D01*
X3395000Y-9191000D01*
X3409286Y-9205286D01*
X3423571Y-9233857D01*
X3423571Y-9262429D01*
X3409286Y-9305286D01*
X3237857Y-9476714D01*
X3423571Y-9476714D01*
X3552143Y-9448143D02*
X3566428Y-9462429D01*
X3552143Y-9476714D01*
X3537857Y-9462429D01*
X3552143Y-9448143D01*
X3552143Y-9476714D01*
X3837857Y-9176714D02*
X3695000Y-9176714D01*
X3680714Y-9319572D01*
X3695000Y-9305286D01*
X3723571Y-9291000D01*
X3795000Y-9291000D01*
X3823571Y-9305286D01*
X3837857Y-9319572D01*
X3852143Y-9348143D01*
X3852143Y-9419572D01*
X3837857Y-9448143D01*
X3823571Y-9462429D01*
X3795000Y-9476714D01*
X3723571Y-9476714D01*
X3695000Y-9462429D01*
X3680714Y-9448143D01*
X4109286Y-9276714D02*
X4109286Y-9476714D01*
X4037857Y-9162429D02*
X3966428Y-9376714D01*
X4152143Y-9376714D01*
X4266429Y-9476714D02*
X4266429Y-9276714D01*
X4266429Y-9305286D02*
X4280714Y-9291000D01*
X4309286Y-9276714D01*
X4352143Y-9276714D01*
X4380714Y-9291000D01*
X4395000Y-9319572D01*
X4395000Y-9476714D01*
X4395000Y-9319572D02*
X4409286Y-9291000D01*
X4437857Y-9276714D01*
X4480714Y-9276714D01*
X4509286Y-9291000D01*
X4523571Y-9319572D01*
X4523571Y-9476714D01*
X4666429Y-9476714D02*
X4666429Y-9276714D01*
X4666429Y-9305286D02*
X4680714Y-9291000D01*
X4709286Y-9276714D01*
X4752143Y-9276714D01*
X4780714Y-9291000D01*
X4795000Y-9319572D01*
X4795000Y-9476714D01*
X4795000Y-9319572D02*
X4809286Y-9291000D01*
X4837857Y-9276714D01*
X4880714Y-9276714D01*
X4909286Y-9291000D01*
X4923571Y-9319572D01*
X4923571Y-9476714D01*
X5509286Y-9162429D02*
X5252143Y-9548143D01*
X5895000Y-9176714D02*
X5923571Y-9176714D01*
X5952143Y-9191000D01*
X5966428Y-9205286D01*
X5980714Y-9233857D01*
X5995000Y-9291000D01*
X5995000Y-9362429D01*
X5980714Y-9419572D01*
X5966428Y-9448143D01*
X5952143Y-9462429D01*
X5923571Y-9476714D01*
X5895000Y-9476714D01*
X5866428Y-9462429D01*
X5852143Y-9448143D01*
X5837857Y-9419572D01*
X5823571Y-9362429D01*
X5823571Y-9291000D01*
X5837857Y-9233857D01*
X5852143Y-9205286D01*
X5866428Y-9191000D01*
X5895000Y-9176714D01*
X6123571Y-9448143D02*
X6137857Y-9462429D01*
X6123571Y-9476714D01*
X6109286Y-9462429D01*
X6123571Y-9448143D01*
X6123571Y-9476714D01*
X6423571Y-9476714D02*
X6252143Y-9476714D01*
X6337857Y-9476714D02*
X6337857Y-9176714D01*
X6309285Y-9219572D01*
X6280714Y-9248143D01*
X6252143Y-9262429D01*
X6609285Y-9176714D02*
X6637857Y-9176714D01*
X6666428Y-9191000D01*
X6680714Y-9205286D01*
X6695000Y-9233857D01*
X6709285Y-9291000D01*
X6709285Y-9362429D01*
X6695000Y-9419572D01*
X6680714Y-9448143D01*
X6666428Y-9462429D01*
X6637857Y-9476714D01*
X6609285Y-9476714D01*
X6580714Y-9462429D01*
X6566428Y-9448143D01*
X6552143Y-9419572D01*
X6537857Y-9362429D01*
X6537857Y-9291000D01*
X6552143Y-9233857D01*
X6566428Y-9205286D01*
X6580714Y-9191000D01*
X6609285Y-9176714D01*
X6895000Y-9176714D02*
X6923571Y-9176714D01*
X6952143Y-9191000D01*
X6966428Y-9205286D01*
X6980714Y-9233857D01*
X6995000Y-9291000D01*
X6995000Y-9362429D01*
X6980714Y-9419572D01*
X6966428Y-9448143D01*
X6952143Y-9462429D01*
X6923571Y-9476714D01*
X6895000Y-9476714D01*
X6866428Y-9462429D01*
X6852143Y-9448143D01*
X6837857Y-9419572D01*
X6823571Y-9362429D01*
X6823571Y-9291000D01*
X6837857Y-9233857D01*
X6852143Y-9205286D01*
X6866428Y-9191000D01*
X6895000Y-9176714D01*
X7109286Y-9176714D02*
X7109286Y-9233857D01*
X7223571Y-9176714D02*
X7223571Y-9233857D01*
X7666428Y-9591000D02*
X7652143Y-9576714D01*
X7623571Y-9533857D01*
X7609285Y-9505286D01*
X7595000Y-9462429D01*
X7580714Y-9391000D01*
X7580714Y-9333857D01*
X7595000Y-9262429D01*
X7609285Y-9219572D01*
X7623571Y-9191000D01*
X7652143Y-9148143D01*
X7666428Y-9133857D01*
X7909285Y-9176714D02*
X7852143Y-9176714D01*
X7823571Y-9191000D01*
X7809285Y-9205286D01*
X7780714Y-9248143D01*
X7766428Y-9305286D01*
X7766428Y-9419572D01*
X7780714Y-9448143D01*
X7795000Y-9462429D01*
X7823571Y-9476714D01*
X7880714Y-9476714D01*
X7909285Y-9462429D01*
X7923571Y-9448143D01*
X7937857Y-9419572D01*
X7937857Y-9348143D01*
X7923571Y-9319572D01*
X7909285Y-9305286D01*
X7880714Y-9291000D01*
X7823571Y-9291000D01*
X7795000Y-9305286D01*
X7780714Y-9319572D01*
X7766428Y-9348143D01*
X8295000Y-9476714D02*
X8295000Y-9176714D01*
X8423571Y-9476714D02*
X8423571Y-9319572D01*
X8409286Y-9291000D01*
X8380714Y-9276714D01*
X8337857Y-9276714D01*
X8309285Y-9291000D01*
X8295000Y-9305286D01*
X8609286Y-9476714D02*
X8580714Y-9462429D01*
X8566428Y-9448143D01*
X8552143Y-9419572D01*
X8552143Y-9333857D01*
X8566428Y-9305286D01*
X8580714Y-9291000D01*
X8609286Y-9276714D01*
X8652143Y-9276714D01*
X8680714Y-9291000D01*
X8695000Y-9305286D01*
X8709286Y-9333857D01*
X8709286Y-9419572D01*
X8695000Y-9448143D01*
X8680714Y-9462429D01*
X8652143Y-9476714D01*
X8609286Y-9476714D01*
X8880714Y-9476714D02*
X8852143Y-9462429D01*
X8837857Y-9433857D01*
X8837857Y-9176714D01*
X9109286Y-9462429D02*
X9080714Y-9476714D01*
X9023571Y-9476714D01*
X8995000Y-9462429D01*
X8980714Y-9433857D01*
X8980714Y-9319572D01*
X8995000Y-9291000D01*
X9023571Y-9276714D01*
X9080714Y-9276714D01*
X9109286Y-9291000D01*
X9123571Y-9319572D01*
X9123571Y-9348143D01*
X8980714Y-9376714D01*
X9237857Y-9462429D02*
X9266429Y-9476714D01*
X9323571Y-9476714D01*
X9352143Y-9462429D01*
X9366429Y-9433857D01*
X9366429Y-9419572D01*
X9352143Y-9391000D01*
X9323571Y-9376714D01*
X9280714Y-9376714D01*
X9252143Y-9362429D01*
X9237857Y-9333857D01*
X9237857Y-9319572D01*
X9252143Y-9291000D01*
X9280714Y-9276714D01*
X9323571Y-9276714D01*
X9352143Y-9291000D01*
X9466428Y-9591000D02*
X9480714Y-9576714D01*
X9509286Y-9533857D01*
X9523571Y-9505286D01*
X9537857Y-9462429D01*
X9552143Y-9391000D01*
X9552143Y-9333857D01*
X9537857Y-9262429D01*
X9523571Y-9219572D01*
X9509286Y-9191000D01*
X9480714Y-9148143D01*
X9466428Y-9133857D01*
M02*
