G04 #@! TF.FileFunction,Copper,L1,Top,Signal*
%FSLAX46Y46*%
G04 Gerber Fmt 4.6, Leading zero omitted, Abs format (unit mm)*
G04 Created by KiCad (PCBNEW (2014-11-14 BZR 5284)-product) date Mon Dec  1 17:56:24 2014*
%MOMM*%
G01*
G04 APERTURE LIST*
%ADD10C,0.100000*%
%ADD11C,1.778000*%
%ADD12R,1.778000X1.778000*%
%ADD13C,3.048000*%
%ADD14R,4.572000X3.048000*%
%ADD15O,4.572000X3.048000*%
%ADD16O,3.048000X4.572000*%
%ADD17C,1.524000*%
%ADD18R,1.524000X1.524000*%
%ADD19O,1.727200X2.032000*%
%ADD20R,1.727200X2.032000*%
%ADD21C,1.676400*%
%ADD22R,1.676400X1.676400*%
%ADD23O,1.574800X2.286000*%
%ADD24R,1.574800X2.286000*%
%ADD25C,1.905000*%
%ADD26C,1.501140*%
%ADD27R,1.501140X1.501140*%
%ADD28C,1.998980*%
%ADD29R,1.998980X1.998980*%
%ADD30R,1.250000X1.500000*%
%ADD31R,0.406400X1.371600*%
%ADD32R,1.600200X1.422400*%
%ADD33R,1.905000X1.905000*%
%ADD34R,1.300000X1.500000*%
%ADD35R,0.350520X0.800100*%
%ADD36R,0.800100X0.350520*%
%ADD37R,1.899920X1.899920*%
%ADD38C,0.900000*%
%ADD39C,0.500000*%
%ADD40C,0.400000*%
%ADD41C,0.250000*%
G04 APERTURE END LIST*
D10*
X110000000Y-46000000D02*
X110000000Y-58000000D01*
X100000000Y-46000000D02*
X110000000Y-46000000D01*
X100000000Y-58000000D02*
X100000000Y-46000000D01*
X110000000Y-44000000D02*
X110000000Y-32000000D01*
X100000000Y-44000000D02*
X110000000Y-44000000D01*
X100000000Y-32000000D02*
X100000000Y-44000000D01*
X123000000Y-30000000D02*
X112000000Y-30000000D01*
X125000000Y-58000000D02*
X125000000Y-32000000D01*
X112000000Y-60000000D02*
X123000000Y-60000000D01*
X123000000Y-60000000D02*
G75*
G03X125000000Y-58000000I0J2000000D01*
G01*
X110000000Y-58000000D02*
G75*
G03X112000000Y-60000000I2000000J0D01*
G01*
X125000000Y-32000000D02*
G75*
G03X123000000Y-30000000I-2000000J0D01*
G01*
X112000000Y-30000000D02*
G75*
G03X110000000Y-32000000I0J-2000000D01*
G01*
X100000000Y-32000000D02*
G75*
G03X98000000Y-30000000I-2000000J0D01*
G01*
X98000000Y-60000000D02*
G75*
G03X100000000Y-58000000I0J2000000D01*
G01*
X32000000Y-30000000D02*
G75*
G03X30000000Y-32000000I0J-2000000D01*
G01*
X30000000Y-60000000D02*
X30000000Y-32000000D01*
X98000000Y-60000000D02*
X30000000Y-60000000D01*
X32000000Y-30000000D02*
X98000000Y-30000000D01*
D11*
X35960000Y-33000000D03*
D12*
X38500000Y-33000000D03*
D11*
X41040000Y-33000000D03*
D12*
X98250000Y-32000000D03*
D11*
X91750000Y-36500000D03*
X98250000Y-36500000D03*
D12*
X91750000Y-32000000D03*
D13*
X98000000Y-58000000D03*
X42500000Y-55000000D03*
D14*
X34400000Y-52000000D03*
D15*
X34400000Y-45904000D03*
D16*
X39480000Y-48825000D03*
D17*
X48160000Y-37370000D03*
X48160000Y-34830000D03*
X50700000Y-37370000D03*
X50700000Y-34830000D03*
X53240000Y-37370000D03*
D18*
X53240000Y-34830000D03*
D19*
X65890000Y-31600000D03*
X63350000Y-31600000D03*
X60810000Y-31600000D03*
X58270000Y-31600000D03*
X55730000Y-31600000D03*
X53190000Y-31600000D03*
D20*
X50650000Y-31600000D03*
D19*
X48110000Y-31600000D03*
X88790000Y-31600000D03*
X86250000Y-31600000D03*
X83710000Y-31600000D03*
X81170000Y-31600000D03*
X78630000Y-31600000D03*
X76090000Y-31600000D03*
X73550000Y-31600000D03*
X71010000Y-31600000D03*
X76090000Y-57000000D03*
X78630000Y-57000000D03*
X81170000Y-57000000D03*
X83710000Y-57000000D03*
X86250000Y-57000000D03*
X88790000Y-57000000D03*
X58310000Y-57000000D03*
X60850000Y-57000000D03*
X63390000Y-57000000D03*
D20*
X65930000Y-57000000D03*
X68470000Y-57000000D03*
D19*
X71010000Y-57000000D03*
D17*
X45000000Y-31710000D03*
X45000000Y-34250000D03*
X45000000Y-36790000D03*
D21*
X51700000Y-56230000D03*
D22*
X51700000Y-58770000D03*
D21*
X47200000Y-56230000D03*
D22*
X47200000Y-58770000D03*
D23*
X82970000Y-42990000D03*
X80430000Y-42990000D03*
X77890000Y-42990000D03*
X75350000Y-42990000D03*
X72810000Y-42990000D03*
X70270000Y-42990000D03*
D24*
X67730000Y-42990000D03*
D23*
X65190000Y-42990000D03*
X62650000Y-42990000D03*
X60110000Y-42990000D03*
X57570000Y-42990000D03*
X55030000Y-42990000D03*
X52490000Y-42990000D03*
X85510000Y-42990000D03*
X52490000Y-50610000D03*
X55030000Y-50610000D03*
X57570000Y-50610000D03*
X60110000Y-50610000D03*
X62650000Y-50610000D03*
X65190000Y-50610000D03*
X67730000Y-50610000D03*
D24*
X70270000Y-50610000D03*
D23*
X72810000Y-50610000D03*
X75350000Y-50610000D03*
X77890000Y-50610000D03*
X80430000Y-50610000D03*
X82970000Y-50610000D03*
X85510000Y-50610000D03*
D18*
X98000000Y-53350000D03*
X98000000Y-50810000D03*
D17*
X98000000Y-48270000D03*
X98000000Y-45730000D03*
X98000000Y-43190000D03*
X98000000Y-40650000D03*
D25*
X37702000Y-58467000D03*
X31098000Y-58467000D03*
D26*
X64240940Y-36100000D03*
X59359060Y-36100000D03*
D27*
X61800000Y-36100000D03*
D28*
X41500000Y-44750000D03*
D29*
X41500000Y-40940000D03*
D13*
X32000000Y-32000000D03*
X87500000Y-35000000D03*
D17*
X70060000Y-36000000D03*
X72600000Y-36000000D03*
X75140000Y-36000000D03*
D27*
X33800000Y-38760000D03*
D26*
X33800000Y-41300000D03*
D30*
X112000000Y-45500000D03*
X112000000Y-48000000D03*
X112000000Y-42250000D03*
X112000000Y-39750000D03*
X123000000Y-45500000D03*
X123000000Y-48000000D03*
D21*
X117500000Y-37730000D03*
X117500000Y-40270000D03*
D18*
X111150000Y-54000000D03*
X113690000Y-54000000D03*
D17*
X116230000Y-54000000D03*
X118770000Y-54000000D03*
X121310000Y-54000000D03*
X123850000Y-54000000D03*
D31*
X117500000Y-34250000D03*
X116849760Y-34250000D03*
X116199520Y-34250000D03*
X118150240Y-34250000D03*
X118800480Y-34250000D03*
D32*
X120675000Y-33996000D03*
X114325000Y-33996000D03*
D33*
X118706500Y-31583000D03*
X116293500Y-31583000D03*
D25*
X120802000Y-31583000D03*
X114198000Y-31583000D03*
D34*
X123000000Y-39650000D03*
X123000000Y-42350000D03*
D35*
X118800480Y-44650120D03*
X118150240Y-44650120D03*
X117500000Y-44650120D03*
X116849760Y-44650120D03*
D36*
X114647580Y-45549280D03*
X114647580Y-46199520D03*
X114647580Y-46849760D03*
X114647580Y-47500000D03*
X114647580Y-48150240D03*
X114647580Y-48800480D03*
X114647580Y-49450720D03*
D35*
X119450720Y-44650120D03*
D37*
X116550040Y-46550040D03*
X118449960Y-46550040D03*
X118449960Y-48449960D03*
X116550040Y-48449960D03*
D35*
X115498480Y-50352420D03*
X116148720Y-50352420D03*
X116798960Y-50352420D03*
X117500000Y-50352420D03*
X118099440Y-50352420D03*
X118749680Y-50352420D03*
X119399920Y-50352420D03*
D36*
X120349880Y-49450720D03*
X120349880Y-48800480D03*
X120349880Y-48150240D03*
X120349880Y-47500000D03*
X120349880Y-46849760D03*
X120349880Y-46199520D03*
X120349880Y-45549280D03*
D35*
X116199520Y-44650120D03*
X115549280Y-44650120D03*
D13*
X123000000Y-58000000D03*
X112000000Y-58000000D03*
D18*
X43000000Y-50520000D03*
D17*
X43000000Y-47980000D03*
D38*
X123000000Y-37750000D03*
X121000000Y-42250000D03*
X119000000Y-42250000D03*
X116500000Y-42250000D03*
D39*
X49250000Y-40850000D02*
X46600000Y-38200000D01*
X46600000Y-38200000D02*
X46600000Y-36390000D01*
X46600000Y-36390000D02*
X48160000Y-34830000D01*
X65190000Y-50610000D02*
X65190000Y-52410000D01*
X49250000Y-52150000D02*
X49250000Y-40850000D01*
X50100000Y-53000000D02*
X49250000Y-52150000D01*
X64600000Y-53000000D02*
X50100000Y-53000000D01*
X65190000Y-52410000D02*
X64600000Y-53000000D01*
D40*
X112000000Y-39750000D02*
X111000000Y-39750000D01*
X111000000Y-48000000D02*
X112000000Y-48000000D01*
X110500000Y-47500000D02*
X111000000Y-48000000D01*
X110500000Y-40250000D02*
X110500000Y-47500000D01*
X111000000Y-39750000D02*
X110500000Y-40250000D01*
D39*
X112000000Y-39750000D02*
X114325000Y-39750000D01*
D41*
X116199520Y-34250000D02*
X115750000Y-34250000D01*
X115496000Y-33996000D02*
X114325000Y-33996000D01*
X115750000Y-34250000D02*
X115496000Y-33996000D01*
D39*
X117500000Y-40270000D02*
X114845000Y-40270000D01*
X114845000Y-40270000D02*
X114325000Y-39750000D01*
X61800000Y-36100000D02*
X60530000Y-34830000D01*
X60530000Y-34830000D02*
X53240000Y-34830000D01*
X70270000Y-47870000D02*
X70270000Y-50610000D01*
X67730000Y-45330000D02*
X70270000Y-47870000D01*
X67730000Y-42990000D02*
X67730000Y-45330000D01*
X99400000Y-39400000D02*
X99400000Y-50300000D01*
X99400000Y-50300000D02*
X98890000Y-50810000D01*
X98890000Y-50810000D02*
X98000000Y-50810000D01*
X120675000Y-31710000D02*
X120802000Y-31583000D01*
X120675000Y-33996000D02*
X120675000Y-31710000D01*
X118706500Y-31583000D02*
X120802000Y-31583000D01*
X118706500Y-31583000D02*
X116293500Y-31583000D01*
X116293500Y-31583000D02*
X114198000Y-31583000D01*
X114325000Y-31710000D02*
X114198000Y-31583000D01*
X114325000Y-33996000D02*
X114325000Y-31710000D01*
X114325000Y-33996000D02*
X114325000Y-39750000D01*
X116550040Y-48449960D02*
X116550040Y-46550040D01*
X116550040Y-46550040D02*
X118449960Y-46550040D01*
X118449960Y-46550040D02*
X118449960Y-48449960D01*
D40*
X118150240Y-46250320D02*
X118449960Y-46550040D01*
X118150240Y-44650120D02*
X118150240Y-46250320D01*
D39*
X111150000Y-54000000D02*
X113690000Y-54000000D01*
X112000000Y-52000000D02*
X111150000Y-52850000D01*
X111150000Y-52850000D02*
X111150000Y-54000000D01*
X112000000Y-48000000D02*
X112000000Y-52000000D01*
X124500000Y-43500000D02*
X124500000Y-37250000D01*
D40*
X118150240Y-44650120D02*
X118150240Y-43849760D01*
D39*
X120750000Y-44000000D02*
X123750000Y-44000000D01*
X120000000Y-43250000D02*
X120750000Y-44000000D01*
X118750000Y-43250000D02*
X120000000Y-43250000D01*
X118150240Y-43849760D02*
X118750000Y-43250000D01*
X124000000Y-44000000D02*
X124500000Y-43500000D01*
X123750000Y-44000000D02*
X124000000Y-44000000D01*
X120675000Y-35675000D02*
X121500000Y-36500000D01*
X121500000Y-36500000D02*
X123750000Y-36500000D01*
X123750000Y-36500000D02*
X124500000Y-37250000D01*
X120675000Y-33996000D02*
X120675000Y-35675000D01*
X96500000Y-32000000D02*
X95250000Y-33250000D01*
X95250000Y-33250000D02*
X95250000Y-37500000D01*
X95250000Y-37500000D02*
X96250000Y-38500000D01*
X96250000Y-38500000D02*
X98500000Y-38500000D01*
X98500000Y-38500000D02*
X99400000Y-39400000D01*
X98250000Y-32000000D02*
X96500000Y-32000000D01*
X48300000Y-54600000D02*
X69000000Y-54600000D01*
X48300000Y-54600000D02*
X47500000Y-53800000D01*
X47500000Y-53800000D02*
X47500000Y-43250000D01*
X47500000Y-43250000D02*
X45190000Y-40940000D01*
X41500000Y-40940000D02*
X45190000Y-40940000D01*
X69000000Y-54600000D02*
X69010000Y-54610000D01*
X35960000Y-33000000D02*
X35960000Y-40940000D01*
X41500000Y-40940000D02*
X35960000Y-40940000D01*
X35600000Y-41300000D02*
X35960000Y-40940000D01*
X33800000Y-41300000D02*
X35600000Y-41300000D01*
X71010000Y-55770000D02*
X69850000Y-54610000D01*
X69850000Y-54610000D02*
X69010000Y-54610000D01*
X71010000Y-57000000D02*
X71010000Y-55770000D01*
D41*
X74950000Y-38300000D02*
X76625000Y-36625000D01*
X71356600Y-35443400D02*
X71356600Y-37543400D01*
X63400000Y-45500000D02*
X52100000Y-45500000D01*
X63900000Y-45000000D02*
X63400000Y-45500000D01*
X63900000Y-41800000D02*
X63900000Y-45000000D01*
X65100000Y-40600000D02*
X63900000Y-41800000D01*
X68300000Y-40600000D02*
X65100000Y-40600000D01*
X71356600Y-37543400D02*
X68300000Y-40600000D01*
X53240000Y-37370000D02*
X50950000Y-39660000D01*
X52100000Y-45500000D02*
X50950000Y-44350000D01*
X50950000Y-44350000D02*
X50950000Y-39660000D01*
X85510000Y-44690000D02*
X85510000Y-42990000D01*
X72100000Y-34700000D02*
X71356600Y-35443400D01*
X76000000Y-34700000D02*
X72100000Y-34700000D01*
X76625000Y-35325000D02*
X76000000Y-34700000D01*
X76625000Y-36625000D02*
X76625000Y-35325000D01*
X84800000Y-45400000D02*
X72350000Y-45400000D01*
X85510000Y-44690000D02*
X84800000Y-45400000D01*
X72350000Y-45400000D02*
X71550000Y-44600000D01*
X71550000Y-44600000D02*
X71550000Y-39900000D01*
X71550000Y-39900000D02*
X73150000Y-38300000D01*
X73150000Y-38300000D02*
X74950000Y-38300000D01*
X90530000Y-44530000D02*
X88990000Y-42990000D01*
X89720000Y-59100000D02*
X90530000Y-58290000D01*
X90530000Y-44530000D02*
X90530000Y-58290000D01*
X89720000Y-59100000D02*
X59100000Y-59100000D01*
X88990000Y-42990000D02*
X85510000Y-42990000D01*
X58310000Y-58310000D02*
X59100000Y-59100000D01*
X58310000Y-57000000D02*
X58310000Y-58310000D01*
D39*
X34400000Y-45904000D02*
X37067300Y-45904000D01*
X41500000Y-44750000D02*
X38221300Y-44750000D01*
X38221300Y-44750000D02*
X37067300Y-45904000D01*
X42330000Y-31710000D02*
X41040000Y-33000000D01*
X45000000Y-31710000D02*
X42330000Y-31710000D01*
D41*
X76090000Y-53890000D02*
X72810000Y-50610000D01*
X76090000Y-57000000D02*
X76090000Y-53890000D01*
X78630000Y-53890000D02*
X75350000Y-50610000D01*
X78630000Y-57000000D02*
X78630000Y-53890000D01*
X81170000Y-53890000D02*
X77890000Y-50610000D01*
X81170000Y-57000000D02*
X81170000Y-53890000D01*
X83710000Y-53890000D02*
X80430000Y-50610000D01*
X83710000Y-57000000D02*
X83710000Y-53890000D01*
X86250000Y-53890000D02*
X82970000Y-50610000D01*
X86250000Y-57000000D02*
X86250000Y-53890000D01*
X88790000Y-53890000D02*
X85510000Y-50610000D01*
X88790000Y-57000000D02*
X88790000Y-53890000D01*
X67730000Y-50610000D02*
X67730000Y-49085700D01*
X67730000Y-49085700D02*
X66500000Y-47855700D01*
X66500000Y-47855700D02*
X66500000Y-41600000D01*
X66500000Y-41600000D02*
X66900000Y-41200000D01*
X72600000Y-37100000D02*
X68500000Y-41200000D01*
X68500000Y-41200000D02*
X66900000Y-41200000D01*
X72600000Y-36000000D02*
X72600000Y-37100000D01*
X93730000Y-45730000D02*
X89000000Y-41000000D01*
X89000000Y-41000000D02*
X83750000Y-41000000D01*
X83750000Y-41000000D02*
X82970000Y-41780000D01*
X82970000Y-41780000D02*
X82970000Y-42990000D01*
X98000000Y-45730000D02*
X93730000Y-45730000D01*
X80430000Y-41370000D02*
X81500000Y-40300000D01*
X84400000Y-40300000D02*
X85000000Y-40300000D01*
X81500000Y-40300000D02*
X84400000Y-40300000D01*
X90300000Y-40300000D02*
X93190000Y-43190000D01*
X85000000Y-40300000D02*
X90300000Y-40300000D01*
X93190000Y-43190000D02*
X98000000Y-43190000D01*
X80430000Y-42990000D02*
X80430000Y-41370000D01*
X86250000Y-32750000D02*
X85000000Y-34000000D01*
X85000000Y-34000000D02*
X85000000Y-40300000D01*
X86250000Y-31600000D02*
X86250000Y-32750000D01*
X82810000Y-36290000D02*
X77890000Y-41210000D01*
X77890000Y-41210000D02*
X77890000Y-42990000D01*
X83710000Y-35390000D02*
X82810000Y-36290000D01*
X83710000Y-31600000D02*
X83710000Y-35390000D01*
X75350000Y-42990000D02*
X75350000Y-41650000D01*
X75350000Y-41650000D02*
X80270000Y-36730000D01*
X81170000Y-35830000D02*
X80270000Y-36730000D01*
X81170000Y-31600000D02*
X81170000Y-35830000D01*
X72810000Y-42990000D02*
X72810000Y-41415000D01*
X72810000Y-41415000D02*
X77730000Y-36495000D01*
X78630000Y-35595000D02*
X77730000Y-36495000D01*
X78630000Y-31600000D02*
X78630000Y-35595000D01*
X60110000Y-42990000D02*
X60110000Y-41990000D01*
X67800000Y-36800000D02*
X64600000Y-40000000D01*
X64600000Y-40000000D02*
X61710000Y-40000000D01*
X60110000Y-41600000D02*
X60110000Y-42990000D01*
X61710000Y-40000000D02*
X60110000Y-41600000D01*
X74000000Y-34100000D02*
X70100000Y-34100000D01*
X70100000Y-34100000D02*
X67800000Y-36400000D01*
X67800000Y-36400000D02*
X67800000Y-36800000D01*
X76090000Y-33410000D02*
X75400000Y-34100000D01*
X75400000Y-34100000D02*
X74000000Y-34100000D01*
X76090000Y-31600000D02*
X76090000Y-33410000D01*
X67200000Y-36100000D02*
X69800000Y-33500000D01*
X71900000Y-33500000D02*
X69800000Y-33500000D01*
X59700000Y-39400000D02*
X57570000Y-41530000D01*
X57570000Y-41530000D02*
X57570000Y-42990000D01*
X64400000Y-39400000D02*
X59700000Y-39400000D01*
X67200000Y-36600000D02*
X64400000Y-39400000D01*
X67200000Y-36100000D02*
X67200000Y-36600000D01*
X73550000Y-32950000D02*
X73000000Y-33500000D01*
X73000000Y-33500000D02*
X71900000Y-33500000D01*
X73550000Y-31600000D02*
X73550000Y-32950000D01*
X71010000Y-31600000D02*
X71010000Y-31831800D01*
X55030000Y-42270000D02*
X55030000Y-42990000D01*
X71010000Y-31600000D02*
X71010000Y-32390000D01*
X55030000Y-41570000D02*
X55030000Y-42990000D01*
X57800000Y-38800000D02*
X55030000Y-41570000D01*
X66550000Y-36450000D02*
X64200000Y-38800000D01*
X64200000Y-38800000D02*
X57800000Y-38800000D01*
X69400000Y-31600000D02*
X66550000Y-34450000D01*
X66550000Y-34450000D02*
X66550000Y-36450000D01*
X71010000Y-31600000D02*
X69400000Y-31600000D01*
X65890000Y-36310000D02*
X64000000Y-38200000D01*
X64000000Y-38200000D02*
X55800000Y-38200000D01*
X55800000Y-38200000D02*
X52490000Y-41510000D01*
X52490000Y-41510000D02*
X52490000Y-42990000D01*
X65890000Y-31600000D02*
X65890000Y-36310000D01*
X50700000Y-34830000D02*
X51870400Y-33659600D01*
X58270000Y-32930000D02*
X57540400Y-33659600D01*
X57540400Y-33659600D02*
X51870400Y-33659600D01*
X58270000Y-31600000D02*
X58270000Y-32930000D01*
X60110000Y-48810000D02*
X59600000Y-48300000D01*
X59600000Y-48300000D02*
X51050000Y-48300000D01*
X60110000Y-50610000D02*
X60110000Y-48810000D01*
X50300000Y-40400000D02*
X50300000Y-47550000D01*
X48160000Y-38260000D02*
X50300000Y-40400000D01*
X48160000Y-37370000D02*
X48160000Y-38260000D01*
X51050000Y-48300000D02*
X50300000Y-47550000D01*
X52700000Y-33100000D02*
X50700000Y-33100000D01*
X50700000Y-33100000D02*
X49400000Y-34400000D01*
X49400000Y-34400000D02*
X49400000Y-36070000D01*
X49400000Y-36070000D02*
X50700000Y-37370000D01*
X53190000Y-32610000D02*
X52700000Y-33100000D01*
X53190000Y-31600000D02*
X53190000Y-32610000D01*
X74500000Y-37700000D02*
X75140000Y-37060000D01*
X72850000Y-37700000D02*
X74500000Y-37700000D01*
X69000000Y-41550000D02*
X72850000Y-37700000D01*
X69000000Y-45000000D02*
X69000000Y-41550000D01*
X71500000Y-47500000D02*
X69000000Y-45000000D01*
X75140000Y-37060000D02*
X75140000Y-36000000D01*
X48250000Y-52850000D02*
X49200000Y-53800000D01*
X48250000Y-42250000D02*
X48250000Y-52850000D01*
X49200000Y-53800000D02*
X70000000Y-53800000D01*
X71500000Y-52300000D02*
X71500000Y-47500000D01*
X70000000Y-53800000D02*
X71500000Y-52300000D01*
X48110000Y-31600000D02*
X48110000Y-32590000D01*
X47200000Y-31600000D02*
X45800000Y-33000000D01*
X45800000Y-33000000D02*
X44100000Y-33000000D01*
X44100000Y-33000000D02*
X43400000Y-33700000D01*
X43400000Y-33700000D02*
X43400000Y-37400000D01*
X43400000Y-37400000D02*
X48250000Y-42250000D01*
X48110000Y-31600000D02*
X47200000Y-31600000D01*
D40*
X123000000Y-37750000D02*
X123000000Y-39650000D01*
D41*
X118800480Y-34250000D02*
X118800480Y-35050480D01*
X112049280Y-45549280D02*
X112000000Y-45500000D01*
X113250000Y-45549280D02*
X112049280Y-45549280D01*
X114647580Y-45549280D02*
X113250000Y-45549280D01*
X115099880Y-44650120D02*
X114647580Y-45102420D01*
X114647580Y-45102420D02*
X114647580Y-45549280D01*
X115549280Y-44650120D02*
X115099880Y-44650120D01*
X113250000Y-51250000D02*
X113250000Y-45549280D01*
X113750000Y-51750000D02*
X113250000Y-51250000D01*
X115250000Y-51750000D02*
X113750000Y-51750000D01*
X116230000Y-52730000D02*
X115250000Y-51750000D01*
X116230000Y-54000000D02*
X116230000Y-52730000D01*
X118800480Y-35050480D02*
X118800480Y-34250000D01*
X120250000Y-36500000D02*
X118800480Y-35050480D01*
X121500000Y-37750000D02*
X120250000Y-36500000D01*
X123000000Y-37750000D02*
X121500000Y-37750000D01*
X116199520Y-43949520D02*
X115750000Y-43500000D01*
X115750000Y-43500000D02*
X112250000Y-43500000D01*
X116199520Y-44650120D02*
X116199520Y-43949520D01*
X112000000Y-43250000D02*
X112250000Y-43500000D01*
X112000000Y-42250000D02*
X112000000Y-43250000D01*
X122950720Y-45549280D02*
X123000000Y-45500000D01*
X120349880Y-45549280D02*
X122950720Y-45549280D01*
X123000000Y-50500000D02*
X123850000Y-51350000D01*
X123850000Y-51350000D02*
X123850000Y-54000000D01*
X123000000Y-48000000D02*
X123000000Y-50500000D01*
X121100000Y-42350000D02*
X123000000Y-42350000D01*
X121000000Y-42250000D02*
X121100000Y-42350000D01*
X118770000Y-52730000D02*
X119250000Y-52250000D01*
X119250000Y-52250000D02*
X120750000Y-52250000D01*
X120750000Y-52250000D02*
X121399998Y-51600002D01*
X121399998Y-51600002D02*
X121399998Y-47899998D01*
X121399998Y-47899998D02*
X121000000Y-47500000D01*
X121000000Y-47500000D02*
X120349880Y-47500000D01*
X118770000Y-54000000D02*
X118770000Y-52730000D01*
X121099760Y-46849760D02*
X121900000Y-47650000D01*
X121900000Y-47650000D02*
X121900000Y-52100000D01*
X121900000Y-52100000D02*
X121310000Y-52690000D01*
X121310000Y-52690000D02*
X121310000Y-54000000D01*
X120349880Y-46849760D02*
X121099760Y-46849760D01*
X117500000Y-44650120D02*
X117500000Y-42500000D01*
X117500000Y-35750000D02*
X117500000Y-34250000D01*
X119250000Y-37500000D02*
X117500000Y-35750000D01*
X119250000Y-40750000D02*
X119250000Y-37500000D01*
X117500000Y-42500000D02*
X119250000Y-40750000D01*
X120000000Y-37250000D02*
X120000000Y-41250000D01*
X120000000Y-41250000D02*
X119000000Y-42250000D01*
X116849760Y-44650120D02*
X116849760Y-42599760D01*
X116849760Y-42599760D02*
X116500000Y-42250000D01*
X118150240Y-34250000D02*
X118150240Y-35400240D01*
X118150240Y-35400240D02*
X120000000Y-37250000D01*
M02*
