G04 #@! TF.FileFunction,Soldermask,Top*
%FSLAX46Y46*%
G04 Gerber Fmt 4.6, Leading zero omitted, Abs format (unit mm)*
G04 Created by KiCad (PCBNEW (2014-12-01 BZR 5309)-product) date Thu Dec  4 13:20:49 2014*
%MOMM*%
G01*
G04 APERTURE LIST*
%ADD10C,0.100000*%
%ADD11C,1.778000*%
%ADD12R,1.778000X1.778000*%
%ADD13C,3.048000*%
%ADD14R,4.572000X3.048000*%
%ADD15O,4.572000X3.048000*%
%ADD16O,3.048000X4.572000*%
%ADD17C,1.524000*%
%ADD18R,1.524000X1.524000*%
%ADD19O,1.574800X2.286000*%
%ADD20R,1.574800X2.286000*%
%ADD21C,1.905000*%
%ADD22C,1.501140*%
%ADD23R,1.501140X1.501140*%
%ADD24R,1.250000X1.500000*%
%ADD25R,0.406400X1.371600*%
%ADD26R,1.600200X1.422400*%
%ADD27R,1.905000X1.905000*%
%ADD28R,1.500000X1.300000*%
%ADD29R,0.492760X0.942340*%
%ADD30R,0.942340X0.492760*%
%ADD31R,2.042160X2.042160*%
%ADD32R,1.200000X1.200000*%
G04 APERTURE END LIST*
D10*
X120000000Y-60000000D02*
X120000000Y-34000000D01*
X120000000Y-34000000D02*
G75*
G03X118000000Y-32000000I-2000000J0D01*
G01*
X118000000Y-62000000D02*
G75*
G03X120000000Y-60000000I0J2000000D01*
G01*
X52000000Y-32000000D02*
G75*
G03X50000000Y-34000000I0J-2000000D01*
G01*
X50000000Y-62000000D02*
X50000000Y-34000000D01*
X118000000Y-62000000D02*
X50000000Y-62000000D01*
X52000000Y-32000000D02*
X118000000Y-32000000D01*
X25000000Y-34000000D02*
X25000000Y-51000000D01*
X40000000Y-51000000D02*
X40000000Y-48000000D01*
X25000000Y-51000000D02*
X40000000Y-51000000D01*
X40000000Y-48000000D02*
X40000000Y-46000000D01*
X40000000Y-46000000D02*
X40000000Y-34000000D01*
X38000000Y-32000000D02*
X27000000Y-32000000D01*
X40000000Y-34000000D02*
G75*
G03X38000000Y-32000000I-2000000J0D01*
G01*
X27000000Y-32000000D02*
G75*
G03X25000000Y-34000000I0J-2000000D01*
G01*
D11*
X55960000Y-34870000D03*
D12*
X58500000Y-34870000D03*
D11*
X61040000Y-34870000D03*
D12*
X118250000Y-34000000D03*
D11*
X111750000Y-38500000D03*
X118250000Y-38500000D03*
D12*
X111750000Y-34000000D03*
D13*
X118000000Y-60000000D03*
X62500000Y-57000000D03*
D14*
X54400000Y-54000000D03*
D15*
X54400000Y-47904000D03*
D16*
X59480000Y-50825000D03*
D17*
X70320000Y-39950000D03*
X70320000Y-37410000D03*
X72860000Y-39950000D03*
X72860000Y-37410000D03*
X75400000Y-39950000D03*
D18*
X75400000Y-37410000D03*
D17*
X85560000Y-33600000D03*
X83020000Y-33600000D03*
X80480000Y-33600000D03*
X77940000Y-33600000D03*
X75400000Y-33600000D03*
X72860000Y-33600000D03*
D18*
X70320000Y-33600000D03*
D17*
X67780000Y-33600000D03*
X108420000Y-33600000D03*
X105880000Y-33600000D03*
X103340000Y-33600000D03*
X100800000Y-33600000D03*
X98260000Y-33600000D03*
X95720000Y-33600000D03*
X93180000Y-33600000D03*
X90640000Y-33600000D03*
X108420000Y-59000000D03*
X105880000Y-59000000D03*
X103340000Y-59000000D03*
X100800000Y-59000000D03*
X98260000Y-59000000D03*
X95720000Y-59000000D03*
X90640000Y-59000000D03*
D18*
X88100000Y-59000000D03*
X85560000Y-59000000D03*
D17*
X83020000Y-59000000D03*
X80480000Y-59000000D03*
X77940000Y-59000000D03*
X65230000Y-34870000D03*
X65230000Y-37410000D03*
X65230000Y-39950000D03*
X71700000Y-58230000D03*
D18*
X71700000Y-60770000D03*
D17*
X67200000Y-58230000D03*
D18*
X67200000Y-60770000D03*
D19*
X102970000Y-44990000D03*
X100430000Y-44990000D03*
X97890000Y-44990000D03*
X95350000Y-44990000D03*
X92810000Y-44990000D03*
X90270000Y-44990000D03*
D20*
X87730000Y-44990000D03*
D19*
X85190000Y-44990000D03*
X82650000Y-44990000D03*
X80110000Y-44990000D03*
X77570000Y-44990000D03*
X75030000Y-44990000D03*
X72490000Y-44990000D03*
X105510000Y-44990000D03*
X72490000Y-52610000D03*
X75030000Y-52610000D03*
X77570000Y-52610000D03*
X80110000Y-52610000D03*
X82650000Y-52610000D03*
X85190000Y-52610000D03*
X87730000Y-52610000D03*
D20*
X90270000Y-52610000D03*
D19*
X92810000Y-52610000D03*
X95350000Y-52610000D03*
X97890000Y-52610000D03*
X100430000Y-52610000D03*
X102970000Y-52610000D03*
X105510000Y-52610000D03*
D18*
X118000000Y-55350000D03*
X118000000Y-52810000D03*
D17*
X118000000Y-50270000D03*
X118000000Y-47730000D03*
X118000000Y-45190000D03*
X118000000Y-42650000D03*
D21*
X57702000Y-60467000D03*
X51098000Y-60467000D03*
D22*
X85450940Y-38080000D03*
X80569060Y-38080000D03*
D23*
X83010000Y-38080000D03*
D11*
X62000000Y-42250000D03*
D12*
X62000000Y-38440000D03*
D13*
X52000000Y-34000000D03*
X107500000Y-37000000D03*
D17*
X90640000Y-37410000D03*
X93180000Y-37410000D03*
X95720000Y-37410000D03*
D23*
X54910000Y-41970000D03*
D22*
X57450000Y-41970000D03*
D18*
X62700000Y-46300000D03*
D17*
X60160000Y-46300000D03*
D24*
X36925000Y-46000000D03*
X36925000Y-43500000D03*
X38925000Y-48850000D03*
X38925000Y-46350000D03*
D25*
X32500000Y-36250000D03*
X31849760Y-36250000D03*
X31199520Y-36250000D03*
X33150240Y-36250000D03*
X33800480Y-36250000D03*
D26*
X35675000Y-35996000D03*
X29325000Y-35996000D03*
D27*
X33706500Y-33583000D03*
X31293500Y-33583000D03*
D21*
X35802000Y-33583000D03*
X29198000Y-33583000D03*
D28*
X35650000Y-38800000D03*
X38350000Y-38800000D03*
D29*
X31199520Y-48849880D03*
X31849760Y-48849880D03*
X32500000Y-48849880D03*
X33150240Y-48849880D03*
D30*
X35352420Y-47950720D03*
X35352420Y-47300480D03*
X35352420Y-46650240D03*
X35352420Y-46000000D03*
X35352420Y-45349760D03*
X35352420Y-44699520D03*
X35352420Y-44049280D03*
D29*
X30549280Y-48849880D03*
D31*
X33449960Y-46949960D03*
X31550040Y-46949960D03*
X31550040Y-45050040D03*
X33449960Y-45050040D03*
D29*
X34501520Y-43147580D03*
X33851280Y-43147580D03*
X33201040Y-43147580D03*
X32500000Y-43147580D03*
X31900560Y-43147580D03*
X31250320Y-43147580D03*
X30600080Y-43147580D03*
D30*
X29650120Y-44049280D03*
X29650120Y-44699520D03*
X29650120Y-45349760D03*
X29650120Y-46000000D03*
X29650120Y-46650240D03*
X29650120Y-47300480D03*
X29650120Y-47950720D03*
D29*
X33800480Y-48849880D03*
X34450720Y-48849880D03*
D32*
X38400000Y-36150000D03*
X38400000Y-34050000D03*
D18*
X38850000Y-41000000D03*
X36310000Y-41000000D03*
D17*
X33770000Y-41000000D03*
X31230000Y-41000000D03*
X28690000Y-41000000D03*
X26150000Y-41000000D03*
M02*
