G04 #@! TF.FileFunction,Paste,Bot*
%FSLAX46Y46*%
G04 Gerber Fmt 4.6, Leading zero omitted, Abs format (unit mm)*
G04 Created by KiCad (PCBNEW (2014-12-01 BZR 5309)-product) date Thu Dec  4 13:20:49 2014*
%MOMM*%
G01*
G04 APERTURE LIST*
%ADD10C,0.100000*%
%ADD11R,1.500000X1.300000*%
%ADD12R,1.500000X1.250000*%
%ADD13R,1.250000X1.500000*%
%ADD14R,0.406400X1.371600*%
%ADD15R,1.600200X1.422400*%
%ADD16R,1.905000X1.905000*%
%ADD17C,1.905000*%
%ADD18R,1.000760X0.701040*%
G04 APERTURE END LIST*
D10*
X120000000Y-60000000D02*
X120000000Y-34000000D01*
X120000000Y-34000000D02*
G75*
G03X118000000Y-32000000I-2000000J0D01*
G01*
X118000000Y-62000000D02*
G75*
G03X120000000Y-60000000I0J2000000D01*
G01*
X52000000Y-32000000D02*
G75*
G03X50000000Y-34000000I0J-2000000D01*
G01*
X50000000Y-62000000D02*
X50000000Y-34000000D01*
X118000000Y-62000000D02*
X50000000Y-62000000D01*
X52000000Y-32000000D02*
X118000000Y-32000000D01*
X25000000Y-34000000D02*
X25000000Y-51000000D01*
X40000000Y-51000000D02*
X40000000Y-48000000D01*
X25000000Y-51000000D02*
X40000000Y-51000000D01*
X40000000Y-48000000D02*
X40000000Y-46000000D01*
X40000000Y-46000000D02*
X40000000Y-34000000D01*
X38000000Y-32000000D02*
X27000000Y-32000000D01*
X40000000Y-34000000D02*
G75*
G03X38000000Y-32000000I-2000000J0D01*
G01*
X27000000Y-32000000D02*
G75*
G03X25000000Y-34000000I0J-2000000D01*
G01*
D11*
X75250000Y-55700000D03*
X72550000Y-55700000D03*
X67210000Y-55700000D03*
X69910000Y-55700000D03*
X101750000Y-48000000D03*
X104450000Y-48000000D03*
D12*
X80550000Y-48800000D03*
X78050000Y-48800000D03*
X84250000Y-48800000D03*
X86750000Y-48800000D03*
X108050000Y-48000000D03*
X110550000Y-48000000D03*
X90750000Y-48800000D03*
X93250000Y-48800000D03*
D13*
X67750000Y-39000000D03*
X67750000Y-36500000D03*
D12*
X53460000Y-37420000D03*
X55960000Y-37420000D03*
X84250000Y-55700000D03*
X86750000Y-55700000D03*
D14*
X54400000Y-57800000D03*
X53749760Y-57800000D03*
X53099520Y-57800000D03*
X55050240Y-57800000D03*
X55700480Y-57800000D03*
D15*
X57575000Y-58054000D03*
X51225000Y-58054000D03*
D16*
X55606500Y-60467000D03*
X53193500Y-60467000D03*
D17*
X57702000Y-60467000D03*
X51098000Y-60467000D03*
X35802000Y-33583000D03*
X29198000Y-33583000D03*
D18*
X28430000Y-36047500D03*
X28430000Y-37000000D03*
X28430000Y-37952500D03*
X30970000Y-37952500D03*
X30970000Y-37000000D03*
X30970000Y-36047500D03*
M02*
