G04 #@! TF.FileFunction,Soldermask,Bot*
%FSLAX46Y46*%
G04 Gerber Fmt 4.6, Leading zero omitted, Abs format (unit mm)*
G04 Created by KiCad (PCBNEW (2014-12-01 BZR 5309)-product) date Thu Dec  4 13:20:49 2014*
%MOMM*%
G01*
G04 APERTURE LIST*
%ADD10C,0.100000*%
%ADD11C,1.778000*%
%ADD12R,1.778000X1.778000*%
%ADD13R,1.500000X1.300000*%
%ADD14C,3.048000*%
%ADD15R,4.572000X3.048000*%
%ADD16O,4.572000X3.048000*%
%ADD17O,3.048000X4.572000*%
%ADD18C,1.524000*%
%ADD19R,1.524000X1.524000*%
%ADD20R,1.500000X1.250000*%
%ADD21R,1.250000X1.500000*%
%ADD22O,1.574800X2.286000*%
%ADD23R,1.574800X2.286000*%
%ADD24R,0.406400X1.371600*%
%ADD25R,1.600200X1.422400*%
%ADD26R,1.905000X1.905000*%
%ADD27C,1.905000*%
%ADD28C,1.501140*%
%ADD29R,1.501140X1.501140*%
%ADD30R,1.000760X0.701040*%
G04 APERTURE END LIST*
D10*
X120000000Y-60000000D02*
X120000000Y-34000000D01*
X120000000Y-34000000D02*
G75*
G03X118000000Y-32000000I-2000000J0D01*
G01*
X118000000Y-62000000D02*
G75*
G03X120000000Y-60000000I0J2000000D01*
G01*
X52000000Y-32000000D02*
G75*
G03X50000000Y-34000000I0J-2000000D01*
G01*
X50000000Y-62000000D02*
X50000000Y-34000000D01*
X118000000Y-62000000D02*
X50000000Y-62000000D01*
X52000000Y-32000000D02*
X118000000Y-32000000D01*
X25000000Y-34000000D02*
X25000000Y-51000000D01*
X40000000Y-51000000D02*
X40000000Y-48000000D01*
X25000000Y-51000000D02*
X40000000Y-51000000D01*
X40000000Y-48000000D02*
X40000000Y-46000000D01*
X40000000Y-46000000D02*
X40000000Y-34000000D01*
X38000000Y-32000000D02*
X27000000Y-32000000D01*
X40000000Y-34000000D02*
G75*
G03X38000000Y-32000000I-2000000J0D01*
G01*
X27000000Y-32000000D02*
G75*
G03X25000000Y-34000000I0J-2000000D01*
G01*
D11*
X55960000Y-34870000D03*
D12*
X58500000Y-34870000D03*
D11*
X61040000Y-34870000D03*
D12*
X118250000Y-34000000D03*
D11*
X111750000Y-38500000D03*
X118250000Y-38500000D03*
D12*
X111750000Y-34000000D03*
D13*
X75250000Y-55700000D03*
X72550000Y-55700000D03*
X67210000Y-55700000D03*
X69910000Y-55700000D03*
X101750000Y-48000000D03*
X104450000Y-48000000D03*
D14*
X118000000Y-60000000D03*
X62500000Y-57000000D03*
D15*
X54400000Y-54000000D03*
D16*
X54400000Y-47904000D03*
D17*
X59480000Y-50825000D03*
D18*
X70320000Y-39950000D03*
X70320000Y-37410000D03*
X72860000Y-39950000D03*
X72860000Y-37410000D03*
X75400000Y-39950000D03*
D19*
X75400000Y-37410000D03*
D18*
X85560000Y-33600000D03*
X83020000Y-33600000D03*
X80480000Y-33600000D03*
X77940000Y-33600000D03*
X75400000Y-33600000D03*
X72860000Y-33600000D03*
D19*
X70320000Y-33600000D03*
D18*
X67780000Y-33600000D03*
X108420000Y-33600000D03*
X105880000Y-33600000D03*
X103340000Y-33600000D03*
X100800000Y-33600000D03*
X98260000Y-33600000D03*
X95720000Y-33600000D03*
X93180000Y-33600000D03*
X90640000Y-33600000D03*
X108420000Y-59000000D03*
X105880000Y-59000000D03*
X103340000Y-59000000D03*
X100800000Y-59000000D03*
X98260000Y-59000000D03*
X95720000Y-59000000D03*
X90640000Y-59000000D03*
D19*
X88100000Y-59000000D03*
X85560000Y-59000000D03*
D18*
X83020000Y-59000000D03*
X80480000Y-59000000D03*
X77940000Y-59000000D03*
X65230000Y-34870000D03*
X65230000Y-37410000D03*
X65230000Y-39950000D03*
X71700000Y-58230000D03*
D19*
X71700000Y-60770000D03*
D18*
X67200000Y-58230000D03*
D19*
X67200000Y-60770000D03*
D20*
X80550000Y-48800000D03*
X78050000Y-48800000D03*
X84250000Y-48800000D03*
X86750000Y-48800000D03*
X108050000Y-48000000D03*
X110550000Y-48000000D03*
X90750000Y-48800000D03*
X93250000Y-48800000D03*
D21*
X67750000Y-39000000D03*
X67750000Y-36500000D03*
D20*
X53460000Y-37420000D03*
X55960000Y-37420000D03*
X84250000Y-55700000D03*
X86750000Y-55700000D03*
D22*
X102970000Y-44990000D03*
X100430000Y-44990000D03*
X97890000Y-44990000D03*
X95350000Y-44990000D03*
X92810000Y-44990000D03*
X90270000Y-44990000D03*
D23*
X87730000Y-44990000D03*
D22*
X85190000Y-44990000D03*
X82650000Y-44990000D03*
X80110000Y-44990000D03*
X77570000Y-44990000D03*
X75030000Y-44990000D03*
X72490000Y-44990000D03*
X105510000Y-44990000D03*
X72490000Y-52610000D03*
X75030000Y-52610000D03*
X77570000Y-52610000D03*
X80110000Y-52610000D03*
X82650000Y-52610000D03*
X85190000Y-52610000D03*
X87730000Y-52610000D03*
D23*
X90270000Y-52610000D03*
D22*
X92810000Y-52610000D03*
X95350000Y-52610000D03*
X97890000Y-52610000D03*
X100430000Y-52610000D03*
X102970000Y-52610000D03*
X105510000Y-52610000D03*
D19*
X118000000Y-55350000D03*
X118000000Y-52810000D03*
D18*
X118000000Y-50270000D03*
X118000000Y-47730000D03*
X118000000Y-45190000D03*
X118000000Y-42650000D03*
D24*
X54400000Y-57800000D03*
X53749760Y-57800000D03*
X53099520Y-57800000D03*
X55050240Y-57800000D03*
X55700480Y-57800000D03*
D25*
X57575000Y-58054000D03*
X51225000Y-58054000D03*
D26*
X55606500Y-60467000D03*
X53193500Y-60467000D03*
D27*
X57702000Y-60467000D03*
X51098000Y-60467000D03*
D28*
X85450940Y-38080000D03*
X80569060Y-38080000D03*
D29*
X83010000Y-38080000D03*
D11*
X62000000Y-42250000D03*
D12*
X62000000Y-38440000D03*
D14*
X52000000Y-34000000D03*
X107500000Y-37000000D03*
D18*
X90640000Y-37410000D03*
X93180000Y-37410000D03*
X95720000Y-37410000D03*
D29*
X54910000Y-41970000D03*
D28*
X57450000Y-41970000D03*
D19*
X62700000Y-46300000D03*
D18*
X60160000Y-46300000D03*
D27*
X35802000Y-33583000D03*
X29198000Y-33583000D03*
D19*
X38850000Y-41000000D03*
X36310000Y-41000000D03*
D18*
X33770000Y-41000000D03*
X31230000Y-41000000D03*
X28690000Y-41000000D03*
X26150000Y-41000000D03*
D30*
X28430000Y-36047500D03*
X28430000Y-37000000D03*
X28430000Y-37952500D03*
X30970000Y-37952500D03*
X30970000Y-37000000D03*
X30970000Y-36047500D03*
M02*
