G04 #@! TF.FileFunction,Paste,Top*
%FSLAX46Y46*%
G04 Gerber Fmt 4.6, Leading zero omitted, Abs format (unit mm)*
G04 Created by KiCad (PCBNEW (2014-12-01 BZR 5309)-product) date Thu Dec  4 13:20:49 2014*
%MOMM*%
G01*
G04 APERTURE LIST*
%ADD10C,0.100000*%
%ADD11C,1.905000*%
%ADD12R,1.250000X1.500000*%
%ADD13R,0.406400X1.371600*%
%ADD14R,1.600200X1.422400*%
%ADD15R,1.905000X1.905000*%
%ADD16R,1.500000X1.300000*%
%ADD17R,0.350520X0.800100*%
%ADD18R,0.800100X0.350520*%
%ADD19R,1.701800X1.701800*%
%ADD20R,1.200000X1.200000*%
G04 APERTURE END LIST*
D10*
X120000000Y-60000000D02*
X120000000Y-34000000D01*
X120000000Y-34000000D02*
G75*
G03X118000000Y-32000000I-2000000J0D01*
G01*
X118000000Y-62000000D02*
G75*
G03X120000000Y-60000000I0J2000000D01*
G01*
X52000000Y-32000000D02*
G75*
G03X50000000Y-34000000I0J-2000000D01*
G01*
X50000000Y-62000000D02*
X50000000Y-34000000D01*
X118000000Y-62000000D02*
X50000000Y-62000000D01*
X52000000Y-32000000D02*
X118000000Y-32000000D01*
X25000000Y-34000000D02*
X25000000Y-51000000D01*
X40000000Y-51000000D02*
X40000000Y-48000000D01*
X25000000Y-51000000D02*
X40000000Y-51000000D01*
X40000000Y-48000000D02*
X40000000Y-46000000D01*
X40000000Y-46000000D02*
X40000000Y-34000000D01*
X38000000Y-32000000D02*
X27000000Y-32000000D01*
X40000000Y-34000000D02*
G75*
G03X38000000Y-32000000I-2000000J0D01*
G01*
X27000000Y-32000000D02*
G75*
G03X25000000Y-34000000I0J-2000000D01*
G01*
D11*
X57702000Y-60467000D03*
X51098000Y-60467000D03*
D12*
X36925000Y-46000000D03*
X36925000Y-43500000D03*
X38925000Y-48850000D03*
X38925000Y-46350000D03*
D13*
X32500000Y-36250000D03*
X31849760Y-36250000D03*
X31199520Y-36250000D03*
X33150240Y-36250000D03*
X33800480Y-36250000D03*
D14*
X35675000Y-35996000D03*
X29325000Y-35996000D03*
D15*
X33706500Y-33583000D03*
X31293500Y-33583000D03*
D11*
X35802000Y-33583000D03*
X29198000Y-33583000D03*
D16*
X35650000Y-38800000D03*
X38350000Y-38800000D03*
D17*
X31199520Y-48849880D03*
X31849760Y-48849880D03*
X32500000Y-48849880D03*
X33150240Y-48849880D03*
D18*
X35352420Y-47950720D03*
X35352420Y-47300480D03*
X35352420Y-46650240D03*
X35352420Y-46000000D03*
X35352420Y-45349760D03*
X35352420Y-44699520D03*
X35352420Y-44049280D03*
D17*
X30549280Y-48849880D03*
D19*
X33449960Y-46949960D03*
X31550040Y-46949960D03*
X31550040Y-45050040D03*
X33449960Y-45050040D03*
D17*
X34501520Y-43147580D03*
X33851280Y-43147580D03*
X33201040Y-43147580D03*
X32500000Y-43147580D03*
X31900560Y-43147580D03*
X31250320Y-43147580D03*
X30600080Y-43147580D03*
D18*
X29650120Y-44049280D03*
X29650120Y-44699520D03*
X29650120Y-45349760D03*
X29650120Y-46000000D03*
X29650120Y-46650240D03*
X29650120Y-47300480D03*
X29650120Y-47950720D03*
D17*
X33800480Y-48849880D03*
X34450720Y-48849880D03*
D20*
X38400000Y-36150000D03*
X38400000Y-34050000D03*
M02*
