M48
INCH,TZ
T1C0.025
T2C0.032
T3C0.040
T4C0.045
T5C0.046
T6C0.050
T7C0.100
%
G90
G05
T1
X1.0669Y-1.4567
X1.1289Y-1.9705
X1.2717Y-1.4882
X1.2736Y-1.9793
X1.2953Y-1.5354
X1.3199Y-1.9793
X1.4537Y-1.9232
T2
X2.1618Y-1.6524
X2.2618Y-1.6524
X2.6457Y-2.2925
X2.6457Y-2.3925
X2.8228Y-2.2925
X2.8228Y-2.3925
X2.8539Y-1.7713
X2.8539Y-2.0713
X2.9539Y-1.7713
X2.9539Y-2.0713
X3.0539Y-1.7713
X3.0539Y-2.0713
X3.1539Y-1.7713
X3.1539Y-2.0713
X3.172Y-1.4992
X3.2539Y-1.7713
X3.2539Y-2.0713
X3.2681Y-1.4992
X3.3539Y-1.7713
X3.3539Y-2.0713
X3.3642Y-1.4992
X3.4539Y-1.7713
X3.4539Y-2.0713
X3.5539Y-1.7713
X3.5539Y-2.0713
X3.6539Y-1.7713
X3.6539Y-2.0713
X3.7539Y-1.7713
X3.7539Y-2.0713
X3.8539Y-1.7713
X3.8539Y-2.0713
X3.9539Y-1.7713
X3.9539Y-2.0713
X4.0539Y-1.7713
X4.0539Y-2.0713
X4.1539Y-1.7713
X4.1539Y-2.0713
T3
X1.0295Y-1.6142
X1.1295Y-1.6142
X1.2295Y-1.6142
X1.3295Y-1.6142
X1.4295Y-1.6142
X1.5295Y-1.6142
X2.3685Y-1.8228
X2.4685Y-1.8228
X2.5681Y-1.3728
X2.5681Y-1.4728
X2.5681Y-1.5728
X2.6685Y-1.3228
X2.7685Y-1.3228
X2.7685Y-1.4728
X2.7685Y-1.5728
X2.8685Y-1.3228
X2.8685Y-1.4728
X2.8685Y-1.5728
X2.9685Y-1.3228
X2.9685Y-1.4728
X2.9685Y-1.5728
X3.0685Y-1.3228
X3.0685Y-2.3228
X3.1685Y-1.3228
X3.1685Y-2.3228
X3.2685Y-1.3228
X3.2685Y-2.3228
X3.3685Y-1.3228
X3.3685Y-2.3228
X3.4685Y-2.3228
X3.5685Y-1.3228
X3.5685Y-1.4728
X3.5685Y-2.3228
X3.6685Y-1.3228
X3.6685Y-1.4728
X3.7685Y-1.3228
X3.7685Y-1.4728
X3.7685Y-2.3228
X3.8685Y-1.3228
X3.8685Y-2.3228
X3.9685Y-1.3228
X3.9685Y-2.3228
X4.0685Y-1.3228
X4.0685Y-2.3228
X4.1685Y-1.3228
X4.1685Y-2.3228
X4.2685Y-1.3228
X4.2685Y-2.3228
X4.3996Y-1.3386
X4.3996Y-1.5157
X4.6457Y-1.6791
X4.6457Y-1.7791
X4.6457Y-1.8791
X4.6457Y-1.9791
X4.6457Y-2.0791
X4.6457Y-2.1791
X4.6555Y-1.3386
X4.6555Y-1.5157
T4
X2.2031Y-1.3728
X2.3031Y-1.3728
X2.4031Y-1.3728
X2.4409Y-1.5134
X2.4409Y-1.6634
T6
X1.1495Y-1.3222
X1.4095Y-1.3222
X2.0117Y-2.3806
X2.2717Y-2.3806
T7
X2.0472Y-1.3386
X2.4606Y-2.2441
X4.2323Y-1.4567
X4.6457Y-2.3622
T5
X2.0847Y-1.886G85X2.1987Y-1.886
G05
X2.0947Y-2.126G85X2.1887Y-2.126
G05
X2.3417Y-2.048G85X2.3417Y-1.954
G05
T0
M30
