G04 #@! TF.FileFunction,Copper,L1,Top,Signal*
%FSLAX46Y46*%
G04 Gerber Fmt 4.6, Leading zero omitted, Abs format (unit mm)*
G04 Created by KiCad (PCBNEW (2014-12-01 BZR 5309)-product) date Thu Dec  4 13:20:49 2014*
%MOMM*%
G01*
G04 APERTURE LIST*
%ADD10C,0.100000*%
%ADD11C,1.778000*%
%ADD12R,1.778000X1.778000*%
%ADD13C,3.048000*%
%ADD14R,4.572000X3.048000*%
%ADD15O,4.572000X3.048000*%
%ADD16O,3.048000X4.572000*%
%ADD17C,1.524000*%
%ADD18R,1.524000X1.524000*%
%ADD19O,1.574800X2.286000*%
%ADD20R,1.574800X2.286000*%
%ADD21C,1.905000*%
%ADD22C,1.501140*%
%ADD23R,1.501140X1.501140*%
%ADD24R,1.250000X1.500000*%
%ADD25R,0.406400X1.371600*%
%ADD26R,1.600200X1.422400*%
%ADD27R,1.905000X1.905000*%
%ADD28R,1.500000X1.300000*%
%ADD29R,0.350520X0.800100*%
%ADD30R,0.800100X0.350520*%
%ADD31R,1.899920X1.899920*%
%ADD32R,1.200000X1.200000*%
%ADD33C,0.900000*%
%ADD34C,0.250000*%
%ADD35C,0.500000*%
G04 APERTURE END LIST*
D10*
X120000000Y-60000000D02*
X120000000Y-34000000D01*
X120000000Y-34000000D02*
G75*
G03X118000000Y-32000000I-2000000J0D01*
G01*
X118000000Y-62000000D02*
G75*
G03X120000000Y-60000000I0J2000000D01*
G01*
X52000000Y-32000000D02*
G75*
G03X50000000Y-34000000I0J-2000000D01*
G01*
X50000000Y-62000000D02*
X50000000Y-34000000D01*
X118000000Y-62000000D02*
X50000000Y-62000000D01*
X52000000Y-32000000D02*
X118000000Y-32000000D01*
X25000000Y-34000000D02*
X25000000Y-51000000D01*
X40000000Y-51000000D02*
X40000000Y-48000000D01*
X25000000Y-51000000D02*
X40000000Y-51000000D01*
X40000000Y-48000000D02*
X40000000Y-46000000D01*
X40000000Y-46000000D02*
X40000000Y-34000000D01*
X38000000Y-32000000D02*
X27000000Y-32000000D01*
X40000000Y-34000000D02*
G75*
G03X38000000Y-32000000I-2000000J0D01*
G01*
X27000000Y-32000000D02*
G75*
G03X25000000Y-34000000I0J-2000000D01*
G01*
D11*
X55960000Y-34870000D03*
D12*
X58500000Y-34870000D03*
D11*
X61040000Y-34870000D03*
D12*
X118250000Y-34000000D03*
D11*
X111750000Y-38500000D03*
X118250000Y-38500000D03*
D12*
X111750000Y-34000000D03*
D13*
X118000000Y-60000000D03*
X62500000Y-57000000D03*
D14*
X54400000Y-54000000D03*
D15*
X54400000Y-47904000D03*
D16*
X59480000Y-50825000D03*
D17*
X70320000Y-39950000D03*
X70320000Y-37410000D03*
X72860000Y-39950000D03*
X72860000Y-37410000D03*
X75400000Y-39950000D03*
D18*
X75400000Y-37410000D03*
D17*
X85560000Y-33600000D03*
X83020000Y-33600000D03*
X80480000Y-33600000D03*
X77940000Y-33600000D03*
X75400000Y-33600000D03*
X72860000Y-33600000D03*
D18*
X70320000Y-33600000D03*
D17*
X67780000Y-33600000D03*
X108420000Y-33600000D03*
X105880000Y-33600000D03*
X103340000Y-33600000D03*
X100800000Y-33600000D03*
X98260000Y-33600000D03*
X95720000Y-33600000D03*
X93180000Y-33600000D03*
X90640000Y-33600000D03*
X108420000Y-59000000D03*
X105880000Y-59000000D03*
X103340000Y-59000000D03*
X100800000Y-59000000D03*
X98260000Y-59000000D03*
X95720000Y-59000000D03*
X90640000Y-59000000D03*
D18*
X88100000Y-59000000D03*
X85560000Y-59000000D03*
D17*
X83020000Y-59000000D03*
X80480000Y-59000000D03*
X77940000Y-59000000D03*
X65230000Y-34870000D03*
X65230000Y-37410000D03*
X65230000Y-39950000D03*
X71700000Y-58230000D03*
D18*
X71700000Y-60770000D03*
D17*
X67200000Y-58230000D03*
D18*
X67200000Y-60770000D03*
D19*
X102970000Y-44990000D03*
X100430000Y-44990000D03*
X97890000Y-44990000D03*
X95350000Y-44990000D03*
X92810000Y-44990000D03*
X90270000Y-44990000D03*
D20*
X87730000Y-44990000D03*
D19*
X85190000Y-44990000D03*
X82650000Y-44990000D03*
X80110000Y-44990000D03*
X77570000Y-44990000D03*
X75030000Y-44990000D03*
X72490000Y-44990000D03*
X105510000Y-44990000D03*
X72490000Y-52610000D03*
X75030000Y-52610000D03*
X77570000Y-52610000D03*
X80110000Y-52610000D03*
X82650000Y-52610000D03*
X85190000Y-52610000D03*
X87730000Y-52610000D03*
D20*
X90270000Y-52610000D03*
D19*
X92810000Y-52610000D03*
X95350000Y-52610000D03*
X97890000Y-52610000D03*
X100430000Y-52610000D03*
X102970000Y-52610000D03*
X105510000Y-52610000D03*
D18*
X118000000Y-55350000D03*
X118000000Y-52810000D03*
D17*
X118000000Y-50270000D03*
X118000000Y-47730000D03*
X118000000Y-45190000D03*
X118000000Y-42650000D03*
D21*
X57702000Y-60467000D03*
X51098000Y-60467000D03*
D22*
X85450940Y-38080000D03*
X80569060Y-38080000D03*
D23*
X83010000Y-38080000D03*
D11*
X62000000Y-42250000D03*
D12*
X62000000Y-38440000D03*
D13*
X52000000Y-34000000D03*
X107500000Y-37000000D03*
D17*
X90640000Y-37410000D03*
X93180000Y-37410000D03*
X95720000Y-37410000D03*
D23*
X54910000Y-41970000D03*
D22*
X57450000Y-41970000D03*
D18*
X62700000Y-46300000D03*
D17*
X60160000Y-46300000D03*
D24*
X36925000Y-46000000D03*
X36925000Y-43500000D03*
X38925000Y-48850000D03*
X38925000Y-46350000D03*
D25*
X32500000Y-36250000D03*
X31849760Y-36250000D03*
X31199520Y-36250000D03*
X33150240Y-36250000D03*
X33800480Y-36250000D03*
D26*
X35675000Y-35996000D03*
X29325000Y-35996000D03*
D27*
X33706500Y-33583000D03*
X31293500Y-33583000D03*
D21*
X35802000Y-33583000D03*
X29198000Y-33583000D03*
D28*
X35650000Y-38800000D03*
X38350000Y-38800000D03*
D29*
X31199520Y-48849880D03*
X31849760Y-48849880D03*
X32500000Y-48849880D03*
X33150240Y-48849880D03*
D30*
X35352420Y-47950720D03*
X35352420Y-47300480D03*
X35352420Y-46650240D03*
X35352420Y-46000000D03*
X35352420Y-45349760D03*
X35352420Y-44699520D03*
X35352420Y-44049280D03*
D29*
X30549280Y-48849880D03*
D31*
X33449960Y-46949960D03*
X31550040Y-46949960D03*
X31550040Y-45050040D03*
X33449960Y-45050040D03*
D29*
X34501520Y-43147580D03*
X33851280Y-43147580D03*
X33201040Y-43147580D03*
X32500000Y-43147580D03*
X31900560Y-43147580D03*
X31250320Y-43147580D03*
X30600080Y-43147580D03*
D30*
X29650120Y-44049280D03*
X29650120Y-44699520D03*
X29650120Y-45349760D03*
X29650120Y-46000000D03*
X29650120Y-46650240D03*
X29650120Y-47300480D03*
X29650120Y-47950720D03*
D29*
X33800480Y-48849880D03*
X34450720Y-48849880D03*
D32*
X38400000Y-36150000D03*
X38400000Y-34050000D03*
D18*
X38850000Y-41000000D03*
X36310000Y-41000000D03*
D17*
X33770000Y-41000000D03*
X31230000Y-41000000D03*
X28690000Y-41000000D03*
X26150000Y-41000000D03*
D33*
X36925000Y-48850000D03*
X27100000Y-37000000D03*
X28675000Y-50050000D03*
X32350000Y-50275000D03*
X33525000Y-50275000D03*
X32900000Y-39000000D03*
X32300000Y-37800000D03*
D34*
X38400000Y-38750000D02*
X38350000Y-38800000D01*
X38400000Y-36150000D02*
X38400000Y-38750000D01*
X36925000Y-48850000D02*
X36925000Y-46000000D01*
X36924880Y-48849880D02*
X36925000Y-48850000D01*
X34450720Y-48849880D02*
X36924880Y-48849880D01*
X36025720Y-47950720D02*
X36925000Y-48850000D01*
X35352420Y-47950720D02*
X36025720Y-47950720D01*
X33800480Y-40969520D02*
X33770000Y-41000000D01*
X33800480Y-38800000D02*
X33800480Y-40969520D01*
X33800480Y-36250000D02*
X33800480Y-38800000D01*
X35650000Y-38800000D02*
X33800480Y-38800000D01*
X32300000Y-39900000D02*
X32670000Y-39900000D01*
X33770000Y-41000000D02*
X32670000Y-39900000D01*
X27100000Y-37900000D02*
X27900000Y-38700000D01*
X27900000Y-38700000D02*
X31100000Y-38700000D01*
X27100000Y-37000000D02*
X27100000Y-37900000D01*
X31100000Y-38700000D02*
X32300000Y-39900000D01*
D35*
X85190000Y-54410000D02*
X84600000Y-55000000D01*
X84600000Y-55000000D02*
X70100000Y-55000000D01*
X70100000Y-55000000D02*
X69250000Y-54150000D01*
X85190000Y-54410000D02*
X85190000Y-52610000D01*
X69250000Y-42070000D02*
X68590000Y-41410000D01*
X68590000Y-41410000D02*
X68590000Y-38250000D01*
X68590000Y-38250000D02*
X69430000Y-37410000D01*
X69430000Y-37410000D02*
X70320000Y-37410000D01*
X69250000Y-54150000D02*
X69250000Y-42070000D01*
X35675000Y-33710000D02*
X35802000Y-33583000D01*
X35675000Y-35996000D02*
X35675000Y-33710000D01*
X33706500Y-33583000D02*
X35802000Y-33583000D01*
X33706500Y-33583000D02*
X31293500Y-33583000D01*
X31293500Y-33583000D02*
X29198000Y-33583000D01*
X29325000Y-33710000D02*
X29198000Y-33583000D01*
X29325000Y-35996000D02*
X29325000Y-33710000D01*
D34*
X38850000Y-43500000D02*
X38850000Y-41000000D01*
X36925000Y-43500000D02*
X38850000Y-43500000D01*
X31550040Y-45050040D02*
X33449960Y-45050040D01*
X33449960Y-46949960D02*
X33449960Y-45050040D01*
X31849760Y-47249680D02*
X31550040Y-46949960D01*
X31849760Y-48849880D02*
X31849760Y-47249680D01*
X30196000Y-35996000D02*
X30450000Y-36250000D01*
X30450000Y-36250000D02*
X31199520Y-36250000D01*
X29325000Y-35996000D02*
X30196000Y-35996000D01*
X36758000Y-33583000D02*
X37225000Y-34050000D01*
X37225000Y-34050000D02*
X38400000Y-34050000D01*
X35802000Y-33583000D02*
X36758000Y-33583000D01*
X38850000Y-46275000D02*
X38925000Y-46350000D01*
X38850000Y-43500000D02*
X38850000Y-46275000D01*
X31350000Y-50050000D02*
X28675000Y-50050000D01*
X31849760Y-49550240D02*
X31350000Y-50050000D01*
X31849760Y-48849880D02*
X31849760Y-49550240D01*
X31550040Y-46949960D02*
X33449960Y-46949960D01*
X33800480Y-49325480D02*
X34200000Y-49725000D01*
X33800480Y-48849880D02*
X33800480Y-49325480D01*
X38050000Y-49725000D02*
X38925000Y-48850000D01*
X34200000Y-49725000D02*
X38050000Y-49725000D01*
X28375240Y-46650240D02*
X27425000Y-45700000D01*
X27425000Y-45700000D02*
X27425000Y-40000000D01*
X27425000Y-40000000D02*
X27950000Y-39475000D01*
X27950000Y-39475000D02*
X29705000Y-39475000D01*
X29705000Y-39475000D02*
X31230000Y-41000000D01*
X29650120Y-46650240D02*
X28375240Y-46650240D01*
X100430000Y-43370000D02*
X101500000Y-42300000D01*
X101500000Y-42300000D02*
X105000000Y-42300000D01*
X110300000Y-42300000D02*
X113190000Y-45190000D01*
X105000000Y-42300000D02*
X110300000Y-42300000D01*
X113190000Y-45190000D02*
X118000000Y-45190000D01*
X100430000Y-44990000D02*
X100430000Y-43370000D01*
X105000000Y-36000000D02*
X105000000Y-42300000D01*
X105880000Y-35120000D02*
X105000000Y-36000000D01*
X105880000Y-33600000D02*
X105880000Y-35120000D01*
X28690000Y-45690000D02*
X29000000Y-46000000D01*
X29000000Y-46000000D02*
X29650120Y-46000000D01*
X28690000Y-41000000D02*
X28690000Y-45690000D01*
X113730000Y-47730000D02*
X109000000Y-43000000D01*
X109000000Y-43000000D02*
X103750000Y-43000000D01*
X103750000Y-43000000D02*
X102970000Y-43780000D01*
X102970000Y-43780000D02*
X102970000Y-44990000D01*
X118000000Y-47730000D02*
X113730000Y-47730000D01*
X29650120Y-47950720D02*
X27150720Y-47950720D01*
X26150000Y-46950000D02*
X26150000Y-41000000D01*
X27150720Y-47950720D02*
X26150000Y-46950000D01*
X29649400Y-47950000D02*
X29650120Y-47950720D01*
X111750000Y-38500000D02*
X118250000Y-38500000D01*
X83900000Y-47000000D02*
X83400000Y-47500000D01*
X83900000Y-44100000D02*
X83900000Y-47000000D01*
X72100000Y-47500000D02*
X70950000Y-46350000D01*
X70950000Y-46350000D02*
X70950000Y-42420000D01*
X83400000Y-47500000D02*
X72100000Y-47500000D01*
X97640000Y-37770000D02*
X91550000Y-43860000D01*
X97640000Y-36540000D02*
X97640000Y-37770000D01*
X97220000Y-36120000D02*
X97640000Y-36540000D01*
X110530000Y-46530000D02*
X108990000Y-44990000D01*
X108990000Y-44990000D02*
X105510000Y-44990000D01*
X110530000Y-46530000D02*
X110530000Y-60290000D01*
X109720000Y-61100000D02*
X110530000Y-60290000D01*
X78480000Y-61100000D02*
X77940000Y-60560000D01*
X77940000Y-60560000D02*
X77940000Y-59000000D01*
X109720000Y-61100000D02*
X78480000Y-61100000D01*
X105510000Y-46690000D02*
X105510000Y-44990000D01*
X104800000Y-47400000D02*
X92350000Y-47400000D01*
X105510000Y-46690000D02*
X104800000Y-47400000D01*
X92350000Y-47400000D02*
X91550000Y-46600000D01*
X91550000Y-46600000D02*
X91550000Y-43860000D01*
X89860000Y-36120000D02*
X89290000Y-36690000D01*
X97220000Y-36120000D02*
X89860000Y-36120000D01*
X89290000Y-40440000D02*
X87080000Y-42650000D01*
X87080000Y-42650000D02*
X85350000Y-42650000D01*
X85350000Y-42650000D02*
X83900000Y-44100000D01*
X89290000Y-36690000D02*
X89290000Y-40440000D01*
X75400000Y-40970000D02*
X74670000Y-41700000D01*
X74670000Y-41700000D02*
X71670000Y-41700000D01*
X71670000Y-41700000D02*
X70950000Y-42420000D01*
X75400000Y-39950000D02*
X75400000Y-40970000D01*
X32500000Y-48849880D02*
X32500000Y-50125000D01*
X32500000Y-50125000D02*
X32350000Y-50275000D01*
X33150240Y-49900240D02*
X33525000Y-50275000D01*
X33150240Y-48849880D02*
X33150240Y-49900240D01*
X33150240Y-38749760D02*
X32900000Y-39000000D01*
X33150240Y-36250000D02*
X33150240Y-38749760D01*
X32500000Y-37600000D02*
X32300000Y-37800000D01*
X32500000Y-36250000D02*
X32500000Y-37600000D01*
D35*
X90270000Y-49870000D02*
X90270000Y-52610000D01*
X87730000Y-47330000D02*
X90270000Y-49870000D01*
X87730000Y-44990000D02*
X87730000Y-47330000D01*
X77300000Y-37410000D02*
X78550000Y-36160000D01*
X75400000Y-37410000D02*
X77300000Y-37410000D01*
X82320000Y-36160000D02*
X83010000Y-36850000D01*
X83010000Y-36850000D02*
X83010000Y-38080000D01*
X78550000Y-36160000D02*
X82320000Y-36160000D01*
X89590000Y-56600000D02*
X68300000Y-56600000D01*
X90640000Y-57650000D02*
X89590000Y-56600000D01*
X68300000Y-56600000D02*
X67500000Y-55800000D01*
X90640000Y-59000000D02*
X90640000Y-57650000D01*
X57470000Y-41950000D02*
X57450000Y-41970000D01*
X62000000Y-38440000D02*
X57450000Y-38440000D01*
X57450000Y-38450000D02*
X57450000Y-38440000D01*
X57450000Y-41970000D02*
X57450000Y-38450000D01*
X55960000Y-36960000D02*
X57450000Y-38450000D01*
X55960000Y-34870000D02*
X55960000Y-36960000D01*
X62000000Y-39430000D02*
X67500000Y-44930000D01*
X67500000Y-44930000D02*
X67500000Y-55800000D01*
X62000000Y-38440000D02*
X62000000Y-39430000D01*
X58580000Y-46300000D02*
X56976000Y-47904000D01*
X56976000Y-47904000D02*
X54400000Y-47904000D01*
X60160000Y-46300000D02*
X58580000Y-46300000D01*
X60160000Y-45380000D02*
X62000000Y-43540000D01*
X62000000Y-43540000D02*
X62000000Y-42250000D01*
X60160000Y-46300000D02*
X60160000Y-45380000D01*
X65230000Y-34870000D02*
X61040000Y-34870000D01*
D34*
X95720000Y-55520000D02*
X92810000Y-52610000D01*
X95720000Y-59000000D02*
X95720000Y-55520000D01*
X98260000Y-55520000D02*
X95350000Y-52610000D01*
X98260000Y-59000000D02*
X98260000Y-55520000D01*
X100800000Y-55520000D02*
X97890000Y-52610000D01*
X100800000Y-59000000D02*
X100800000Y-55520000D01*
X103340000Y-55520000D02*
X100430000Y-52610000D01*
X103340000Y-59000000D02*
X103340000Y-55520000D01*
X105880000Y-55520000D02*
X102970000Y-52610000D01*
X105880000Y-59000000D02*
X105880000Y-55520000D01*
X108420000Y-55520000D02*
X105510000Y-52610000D01*
X108420000Y-59000000D02*
X108420000Y-55520000D01*
X87390000Y-43200000D02*
X93180000Y-37410000D01*
X87730000Y-52610000D02*
X87730000Y-51085700D01*
X87730000Y-51085700D02*
X86500000Y-49855700D01*
X86500000Y-49855700D02*
X86500000Y-43600000D01*
X86500000Y-43600000D02*
X86900000Y-43200000D01*
X87390000Y-43200000D02*
X86900000Y-43200000D01*
X103340000Y-38280000D02*
X97890000Y-43730000D01*
X97890000Y-43730000D02*
X97890000Y-44990000D01*
X103340000Y-33600000D02*
X103340000Y-38280000D01*
X95350000Y-43730000D02*
X95350000Y-44990000D01*
X100800000Y-38280000D02*
X95350000Y-43730000D01*
X100800000Y-33600000D02*
X100800000Y-38280000D01*
X92810000Y-43710000D02*
X92810000Y-44990000D01*
X98260000Y-38260000D02*
X92810000Y-43710000D01*
X98260000Y-33600000D02*
X98260000Y-38260000D01*
X80110000Y-44990000D02*
X80110000Y-43990000D01*
X89665000Y-35555000D02*
X88700000Y-36520000D01*
X93765000Y-35555000D02*
X95720000Y-33600000D01*
X89665000Y-35555000D02*
X93765000Y-35555000D01*
X83830000Y-43290000D02*
X80420000Y-43290000D01*
X80110000Y-43600000D02*
X80110000Y-44990000D01*
X80420000Y-43290000D02*
X80110000Y-43600000D01*
X85010000Y-42110000D02*
X83830000Y-43290000D01*
X88700000Y-40160000D02*
X86750000Y-42110000D01*
X86750000Y-42110000D02*
X85010000Y-42110000D01*
X88700000Y-36520000D02*
X88700000Y-40160000D01*
X77570000Y-43600000D02*
X77570000Y-44990000D01*
X89410000Y-35020000D02*
X88120000Y-36310000D01*
X91760000Y-35020000D02*
X93180000Y-33600000D01*
X89410000Y-35020000D02*
X91760000Y-35020000D01*
X83620000Y-42680000D02*
X80240000Y-42680000D01*
X80240000Y-42680000D02*
X79630000Y-43290000D01*
X79630000Y-43290000D02*
X77880000Y-43290000D01*
X77880000Y-43290000D02*
X77570000Y-43600000D01*
X84760000Y-41540000D02*
X83620000Y-42680000D01*
X88120000Y-39910000D02*
X86490000Y-41540000D01*
X86490000Y-41540000D02*
X84760000Y-41540000D01*
X88120000Y-36310000D02*
X88120000Y-39910000D01*
X75030000Y-44270000D02*
X75030000Y-44990000D01*
X75030000Y-43570000D02*
X75030000Y-44990000D01*
X90020000Y-33600000D02*
X87570000Y-36050000D01*
X90640000Y-33600000D02*
X90020000Y-33600000D01*
X84480000Y-40990000D02*
X83380000Y-42090000D01*
X83380000Y-42090000D02*
X80030000Y-42090000D01*
X80030000Y-42090000D02*
X79410000Y-42710000D01*
X79410000Y-42710000D02*
X77640000Y-42710000D01*
X77640000Y-42710000D02*
X77090000Y-43260000D01*
X77090000Y-43260000D02*
X75340000Y-43260000D01*
X75340000Y-43260000D02*
X75030000Y-43570000D01*
X87570000Y-39650000D02*
X86230000Y-40990000D01*
X86230000Y-40990000D02*
X84480000Y-40990000D01*
X87570000Y-36050000D02*
X87570000Y-39650000D01*
X72690000Y-43310000D02*
X72490000Y-43510000D01*
X72490000Y-43510000D02*
X72490000Y-44990000D01*
X84230000Y-40400000D02*
X83120000Y-41510000D01*
X83120000Y-41510000D02*
X79790000Y-41510000D01*
X79790000Y-41510000D02*
X79190000Y-42110000D01*
X79190000Y-42110000D02*
X77430000Y-42110000D01*
X77430000Y-42110000D02*
X76860000Y-42680000D01*
X76860000Y-42680000D02*
X75040000Y-42680000D01*
X75040000Y-42680000D02*
X74410000Y-43310000D01*
X74410000Y-43310000D02*
X72690000Y-43310000D01*
X86640000Y-33600000D02*
X87000000Y-33960000D01*
X87000000Y-33960000D02*
X87000000Y-39430000D01*
X87000000Y-39430000D02*
X86030000Y-40400000D01*
X86030000Y-40400000D02*
X84230000Y-40400000D01*
X85560000Y-33600000D02*
X86640000Y-33600000D01*
X77940000Y-34990000D02*
X76910000Y-36020000D01*
X76910000Y-36020000D02*
X74250000Y-36020000D01*
X74250000Y-36020000D02*
X72860000Y-37410000D01*
X77940000Y-33600000D02*
X77940000Y-34990000D01*
X80110000Y-50810000D02*
X79600000Y-50300000D01*
X79600000Y-50300000D02*
X71320000Y-50300000D01*
X80110000Y-52610000D02*
X80110000Y-50810000D01*
X75400000Y-34770000D02*
X74830000Y-35340000D01*
X74830000Y-35340000D02*
X72530000Y-35340000D01*
X72530000Y-35340000D02*
X71630000Y-36240000D01*
X71630000Y-36240000D02*
X71630000Y-38640000D01*
X71630000Y-38640000D02*
X70320000Y-39950000D01*
X75400000Y-33600000D02*
X75400000Y-34770000D01*
X70320000Y-49300000D02*
X71320000Y-50300000D01*
X70320000Y-39950000D02*
X70320000Y-49300000D01*
X89000000Y-44130000D02*
X95720000Y-37410000D01*
X90000000Y-55800000D02*
X91500000Y-54300000D01*
X91500000Y-54300000D02*
X91500000Y-49500000D01*
X69200000Y-55800000D02*
X90000000Y-55800000D01*
X68380000Y-54980000D02*
X69200000Y-55800000D01*
X91500000Y-49500000D02*
X89000000Y-47000000D01*
X89000000Y-47000000D02*
X89000000Y-44130000D01*
X68380000Y-54980000D02*
X68380000Y-42680000D01*
X67780000Y-42080000D02*
X68380000Y-42680000D01*
X67780000Y-33600000D02*
X67780000Y-42080000D01*
M02*
